<svg xmlns="http://www.w3.org/2000/svg" viewBox="0 0 439 461.5"><defs><style>.a{fill:#1a1010}.b{fill:#fff}.c{fill:#e51e29}</style></defs><path d="M368.2 160.8v155.5c0 4-.6 5.3-5 5.3q-118.4-.2-237 0c-3.7 0-4.6-.9-4.6-4.7V74.5c0-4 1-5.1 5-5 9.3.3 18.7.3 28 0 3.7-.1 4.7.9 4.7 4.7-.2 31 0 62 0 93 0 36.5 0 73-.2 109.5 0 3.7.7 5 4.8 5 17.8-.3 35.7-.1 53.5-.2 6.4 0 5.7 1 5.7-5.4V75.6c0-6.2 0-6 6.2-6h31.4c5.4 0 5.4 0 5.4 5.3v203c0 2.7.5 3.7 3.4 3.7 19.5-.1 39-.2 58.5 0 4.6 0 3.7-2.4 3.7-5V23.2c0-6.5.2-13 0-19.5-.1-2.9.8-3.7 3.6-3.7 9.7.2 19.3.3 29 0 3.6 0 4 1.4 4 4.4-.2 28.8-.1 57.6-.1 86.5zm-2 .1V42.6c0-12.2-.2-24.4 0-36.5.1-3.6-1-4.5-4.5-4.4-7.6.2-15.3.3-23 0-4-.2-5 1.1-5 5 .2 18.3.1 36.7.1 55V277c0 6.4 0 6.4-6.3 6.4h-57c-6.4 0-6.4 0-6.4-6.6v-199-4c0-1.7-.8-2.4-2.4-2.4h-34c-2 0-2.7.8-2.7 2.7v202.5c0 6.8 0 6.8-6.9 6.8h-55c-6 0-6 0-6-6v-195V75c.1-2.5-.8-3.5-3.4-3.5-8 .2-16 0-24 0-6.2 0-6.2 0-6.2 6.2v236c0 6.5-.6 5.7 6 5.7h231c6.3 0 5.6.8 5.6-5.5l.1-152.9z" class="a"/><path d="M71 161c0-52 0-103.7-.2-155.6 0-4.3 1-5.4 5.4-5.4q117.7.2 235.5.1c6.5 0 5.4-.6 5.4 5.6v240.5c0 6.2 1 5.7-5.4 5.7-8.8 0-17.7-.2-26.5.1-3.8.1-4.8-1-4.7-4.7v-91c0-37 0-74 .2-111 0-4.6-1.3-5.4-5.5-5.3q-27 .3-54 0c-4.2-.1-5.4.8-5.4 5.3q.2 100.5 0 201c0 6.9.8 6-5.7 6-11 0-22-.2-33 .2-4.1 0-4.8-1.3-4.8-5q.2-100.6 0-201a34 34 0 010-3.6c.3-2.1-.5-2.9-2.7-2.8H111c-2.1 0-3.1.5-2.9 2.7a29 29 0 010 3.5v270.5c0 5.7 0 5.7-5.8 5.7-9 0-18-.3-27 0-3.9.2-4.6-1-4.6-4.6q.2-78.5.1-157zm1.5 0l-.1 154.5c0 4 .9 5.2 5 5 7.4-.3 15 0 22.4 0s6.5 1 6.5-6.3V44.7c0-6.5 0-6.5 6.6-6.6h54c8.5 0 7.5-.4 7.5 7.6v199c0 5.6 0 5.6 5.6 5.6h28c6 0 6 0 6-5.8V44c0-5.8 0-5.8 5.7-5.8h56.5c6.2 0 6.3 0 6.3 6.2v202c-.3 2.9 1 3.8 3.8 3.7h23.5c5.4 0 5.4 0 5.4-5.4V7.2c0-5.5 0-5.5-5.7-5.5h-231c-6 0-6 0-6 5.8V161z" class="a"/><path d="M269 396.9c4.7 3.6 6 8 4.6 13.3-1 3.6-3.7 4.8-6.7 5-6 .4-12 .4-18 .3-3.7 0-8.7 1.8-10.8-1-1.8-2.2-.6-7-.7-10.6V383c0-2.6.7-3.5 3.4-3.4h24c3.4.1 7.2.1 8.3 4.5 1.5 5.6.1 10-4 12.8zM254.7 411h8.5c4.5.4 5.3-2.2 5.2-5.9-.1-5.1-.8-6.3-5.2-6.4h-15c-5.3 0-5.4 0-5.3 5.5 0 8-1 6.7 6.9 6.8h5zm.5-26.8a53 53 0 01-7.4 0c-4.4-.7-5.6 1.3-5 5.2a18.6 18.6 0 010 3c0 1.7.9 2.3 2.5 2.3l19-.1c4-.2 4-3.2 4-6.2 0-3.1-1.5-4.4-4.7-4.2h-8.4zM37.6 388.1c-4.3 6.3-8.7 12.4-12.8 18.8-2.2 3.4-3.6 3-5.7 0-4.6-6.6-9.5-13-14.7-20.2v25.5c0 1.4.8 3.4-2.1 3.4s-2.1-2-2.1-3.4v-29c0-1.3-.9-3.2 1.3-3.7a4 4 0 014.3 1.9q6.3 8.7 12.8 17.2c4 5.1 3 5.5 7-.3l11.1-16c1-1.3 1.7-2.8 3.8-2.9 2.3 0 3.7.3 3.6 3.2v30c0 2-.2 3-2.6 3.1-2.8.1-2.8-1.3-2.8-3.4v-23.9zM161.3 397.4v-15c0-2.1.7-2.9 2.9-2.9h28.5c1.7 0 3.3 0 3.2 2.5 0 2.8-2 2.2-3.5 2.2-7.2 0-14.4.4-21.5 0-4.9-.3-3.8 2.6-3.9 5.3 0 2.8-.6 5.8 4 5.3a75.7 75.7 0 0110 0c1.5 0 3.6-.7 3.5 2s-2.3 1.9-3.7 2h-10.5c-2.7-.2-3.3 1-3.4 3.4-.2 8.7-.3 8.7 8.5 8.7H193c2 0 3.3.3 3.2 2.7s-2 1.9-3.3 1.9h-28.5c-2.4 0-3-.7-3-3v-15zM376.1 407.6v-24.4c0-1.8-.5-3.8 2.6-3.7s2.5 2 2.5 3.7v28.5c0 1.2.7 2.9-.7 3.6-1.8.9-3.1-.4-4.4-1.6L351 391c-1-1-1.9-2.8-3.5-2.1-2 .8-.6 2.7-.7 4v19.5c0 1.6.2 3.2-2.4 3.3s-2.9-1.4-2.8-3.4v-29c0-1.3-.6-3 1-3.5s2.8.4 4 1.4l13.8 12.3 15.7 14.2zM346.5 388l.4.3.3-.3-.5-.4zM136 384.4h-21.1c-1.8 0-3.8.3-3.6-2.6 0-2.8 1.9-2.3 3.5-2.3h27c1 0 2.5-.6 3.1.6.9 1.6-.5 2.4-1.4 3.4l-22.2 23.7-2.2 2.6c1.1 1.8 2.8 1 4.1 1h19.5c2 0 2.6.7 2.6 2.7s-1 2-2.5 2h-31c-1 0-2.2.4-2.4-1s.7-2.1 1.5-3l19.4-20.9 5.7-6.3zM406 395.5l18.3-12.6c4.9-3.4 4.9-3.4 11.5-3.2-3 3.3-6.8 5-10 7.3-3.8 2.7-7.7 5.2-11.7 7.7-2.6 1.6-2.7 2.6 0 4.3 7.5 4.7 14.8 9.5 22.2 14.3l2.8 2c-5 .5-8.8.4-12.4-2.3-6.4-4.7-13.1-9-20.6-14v13.5c0 2-.4 3-2.7 3-2.5.1-3-.8-3-3.1v-29.5c0-2 .1-3.4 2.8-3.4s3 1.4 2.9 3.4v12.6zM56.2 415c6-11.2 12.1-22.4 18.3-33.5 1.8-3.2 6.5-3 8.4.3l18.3 33.2c-4 1.5-6.6.4-7.8-3.4-1.4-4.2-4.2-5.3-8.4-5a71 71 0 01-13 0c-4.4-.4-7.3.9-8.7 5.2-1 3.6-3.3 4.6-7.1 3.3zm22.2-31.5l-10 19h17c2.1 0 2.8-.6 1.8-2.6l-8.8-16.4zM329 415c-4.4 1.6-6.7 0-8-3.8s-3.6-5-7.5-4.6a81.2 81.2 0 01-14 0c-4.2-.4-7 .9-8.2 5-1.1 3.3-3.3 4.9-7 3.4 6-11.3 12-22.5 18.2-33.6 1.6-3 6.4-2.8 8.1.3l18.5 33.4zm-22.7-31.7l-8.8 16.5c-1.3 2.5-.1 2.8 2 2.8h13.4c2.7 0 3.2-.8 2-3.1-2.8-5-5.5-10.2-8.6-16.2zM180.8 460.5h-.5c-7.8 0-9.4-2-7.8-9.8.4-2.1 1.7-2.6 3.5-2.6h8.5c3.4-.3 4.3 1.2 4.3 4.4-.2 9.5.5 7.9-8 8zm-1-2c3.4-.2 6.5 1.1 6.5-4s-2.9-4-5.7-4.1a12.3 12.3 0 01-1.4 0c-3-.5-3.9.5-4 3.7-.4 4.6 2 4.8 4.6 4.4zM113.4 460.6h-.5c-8 0-9.3-1.9-7.8-9.8.4-2.2 1.7-2.7 3.5-2.7h8.5c3.3-.3 4.3 1.2 4.3 4.3-.2 9.6.5 8-8 8.2zm-.3-10.3c-5 0-4.6 0-5 4-.7 5 2.6 4 5.4 4.1s5.1.5 5.3-4c.1-5.2-3-4-5.7-4zM233.7 460.5h-3c-1.6 0-4.2.1-3.8-1.9.5-3.2 2.3.1 3.7 0a37.2 37.2 0 016-.2c1 0 2-.1 2-1.5s-.8-1.6-2-1.6H230c-2.4 0-3-1.3-3-3.5s.4-3.6 3-3.6h8c1.2 0 2.7.5 2.5 1.7-.2 2-1.6.7-2.7.6-2.3-.2-4.6-.2-7-.2-.8 0-1.7 0-1.8 1.2a1.6 1.6 0 001.8 1.9h6.5c2.4-.1 3.7.6 3.6 3.4 0 2.4-.7 3.8-3.4 3.7h-3.9zM314.6 460.6h-1.5c-7 0-7 0-6.9-6.9 0-5.3.3-5.6 5.7-5.6h4.5c6 0 6 0 6.1 5.9 0 8 0 6.4-7.9 6.6zm.5-10.3c-3.3 0-6.2-1-6 4.2.2 4.8 2.7 3.9 5.4 4a16.5 16.5 0 012 0c2.5.2 3.4-.6 3.6-3.3.3-4.4-1.4-5.7-5-4.8zM335.5 460.6a47.2 47.2 0 01-5.5-.3 1.6 1.6 0 01-1.2-2.3c.5-1 1.2-.3 2 0 2.7 1 5.6.3 8.4.4a1.4 1.4 0 001.6-1.4 1.5 1.5 0 00-1.5-1.7h-6.5c-2.7.1-4-.7-4-3.6s1.6-3.6 4.1-3.5l7.5.1c1 0 2 .5 1.8 1.8s-1.3.5-2 .4a54 54 0 00-6-.2c-1.1 0-3-.8-3.1 1.4 0 2.4 2 1.5 3.3 1.7a37.8 37.8 0 005 0c2.6-.2 3.6 1.1 3.6 3.5s-1 3.7-3.6 3.6h-4zM201.8 460.4h-5.5a1.7 1.7 0 01-1.6-2.1c.4-1.5 1.3-.8 2.3-.4 2.7 1.1 5.5.4 8.3.5a1.5 1.5 0 10.1-3h-7c-2.3 0-3.3-.9-3.3-3.3s.3-4 3.1-4l8.5.2c1 0 2 .7 1.8 2s-1.3.3-2 .2c-2.2 0-4.4-.2-6.5-.1-1 0-2.6-.5-2.7 1.3 0 2 1.6 1.7 2.9 1.7h4.5c2.4-.1 4.3 0 4.3 3.3s-1.3 4.2-4.2 3.9h-3zM279 456.2c1.2-2 .6-3.5.8-5 .1-1-.5-2.7 1-2.8 2-.2 1.4 1.6 1.3 2.6-.1 3 1.4 7.6-.7 8.8-2.7 1.6-4.8-3-7.5-4.4a34.7 34.7 0 01-4.2-3.4c-1 2.6-.3 4.9-.6 7 0 .8-.2 1.4-1 1.4a1 1 0 01-1.2-1.2c0-3.2-.2-6.3 0-9.5.1-2.3 1.6-1.4 2.7-.6l9.3 7zM245.6 460l5.7-10c1.7-2.7 3.5-3 5.3 0a113 113 0 015.7 10.4c-5.6-3-11-5.3-16.3 1.1zm8.2-10l-2.7 5.3c2 .5 4 1.5 4.9 0 1-1.7-1.2-3-2.2-5.3zM134.7 448.1c1.5.6 5.3-.8 5.2 1-.3 2.6-3.8.6-5.8 1.2a8.2 8.2 0 01-2 0c-1 0-2 0-2 1.4-.2 1.2.4 1.7 1.7 1.9s3.3-.8 3.3 1c0 2.2-2.2 1-3.5 1.2-2 .3-1.5 1.8-1.6 3-.1 1-.5 1.7-1.5 1.6s-1.2-.8-1.2-1.7v-8.4c0-1.9 1-2.2 2.5-2.2h4.8zM302.6 448.7l-.9 1.3c-5.8-.8-6.3 2.7-5.7 7.1a7.3 7.3 0 010 2.5 1.1 1.1 0 01-1.6.8 2 2 0 01-1-.9c-.2-.2 0-.6 0-1-.2-4.4 2.2-10.4-8.2-8l2-1.9zM168.8 460c-4 1-7.6.4-11.2.6-1.3 0-1.7-.7-1.7-1.9v-9c0-1 .4-1.5 1.5-1.4.8 0 1.1.6 1.2 1.3v.4c.3 2.8-1.2 6.5.8 8 2 1.4 5.4.5 8.2.8.3 0 .4.3 1.2 1.2z" class="b"/><path d="M366.2 161v153c0 6.2.7 5.5-5.7 5.5h-231c-6.5 0-6 .8-6-5.7v-236c0-6.2 0-6.2 6.3-6.2h24c2.6 0 3.6.8 3.4 3.4s0 5 0 7.5v195c0 6.1 0 6.1 6 6.1h55c7 0 7 0 7-6.8V78.3v-4c-.2-2 .6-2.7 2.5-2.7h34c1.7 0 2.5.6 2.5 2.3v203c0 6.6 0 6.6 6.4 6.6h57c6.3 0 6.3 0 6.3-6.4V61.6c0-18.3.1-36.6-.1-55 0-3.9 1-5.2 5-5 7.7.3 15.3.3 23 0 3.4 0 4.6.8 4.5 4.4-.2 12.2 0 24.3 0 36.5z" class="c"/><path d="M72.5 161V7.5c0-5.9 0-5.9 6-5.9h231c5.6 0 5.6 0 5.6 5.6v237.5c0 5.3 0 5.3-5.4 5.3h-23.5c-2.7 0-4-.7-3.8-3.6.2-2.2 0-4.3 0-6.5V44.4c0-6.2 0-6.2-6.3-6.2h-56.5c-5.7 0-5.7 0-5.7 5.8v200.5c0 5.8 0 5.8-6 5.8H180c-5.7 0-5.7 0-5.7-5.6v-199c0-8 1.1-7.6-7.4-7.6h-54c-6.6 0-6.7 0-6.7 6.6v269.5c0 7.2 1 6.1-6.4 6.2s-15-.2-22.5.1c-4 .2-5-1.1-5-5q.3-77.2.2-154.5z" class="c"/></svg>