<svg id="Capa_1" enable-background="new 0 0 512 512" height="512" viewBox="0 0 512 512" width="512" xmlns="http://www.w3.org/2000/svg"><path d="m507.603 4.397c-5.863-5.863-15.351-5.863-21.213 0l-76.397 76.396c-5.863 5.863-5.863 15.351 0 21.213s15.351 5.863 21.213 0l76.397-76.396c5.863-5.862 5.863-15.35 0-21.213z" fill="#725d57"/><path d="m431.207 102.007 76.397-76.396c5.863-5.863 5.863-15.351 0-21.213l-97.61 97.61c5.862 5.861 15.35 5.861 21.213-.001z" fill="#53433f"/><path d="m431.207 80.793c-17.546-17.546-46.093-17.546-63.64 0-17.546 17.546-17.546 46.093 0 63.64 17.546 17.546 46.093 17.546 63.64 0 17.546-17.546 17.546-46.093 0-63.64z" fill="#ff641a"/><path d="m431.207 144.433c17.546-17.546 17.546-46.093 0-63.64l-63.64 63.64c17.546 17.547 46.093 17.547 63.64 0z" fill="#f03800"/><path d="m201.997 497.002v-44.977c.01-6.08-3.636-11.528-9.26-13.859-5.604-2.331-12.057-1.036-16.345 3.252l-31.564 31.82c-11.694 11.694-30.732 11.694-42.426 0s-11.694-30.732 0-42.426l74.246-74.246c5.863-5.863 5.863-15.351 0-21.213-5.863-5.863-15.351-5.863-21.213 0l-74.246 74.246c-11.694 11.694-30.732 11.694-42.426 0s-11.694-30.732 0-42.426l31.82-31.564c4.288-4.288 5.583-10.741 3.252-16.345-2.31-5.624-7.779-9.27-13.859-9.26h-44.978c-8.286-.001-14.998 6.711-14.998 14.998 0 8.286 6.712 14.998 14.998 14.998h8.765l-6.215 5.959c-23.399 23.399-23.399 61.454 0 84.853 12.733 12.733 29.79 18.287 46.478 17.162-1.125 16.688 4.429 33.745 17.162 46.478 23.399 23.399 61.454 23.399 84.853 0l5.959-6.215v8.765c0 8.286 6.712 14.998 14.998 14.998s14.999-6.712 14.999-14.998z" fill="#725d57"/><path d="m166.041 494.451 5.959-6.215v8.765c0 8.286 6.712 14.998 14.998 14.998s14.998-6.712 14.998-14.998v-44.977c.01-6.08-3.636-11.528-9.26-13.859-5.604-2.331-12.057-1.036-16.345 3.252l-31.564 31.82c-11.694 11.694-30.732 11.694-42.426 0s-11.694-30.732 0-42.426l74.246-74.246c5.863-5.863 5.863-15.351 0-21.213l-112.62 112.621c-1.125 16.688 4.429 33.745 17.162 46.478 23.398 23.399 61.454 23.399 84.852 0z" fill="#53433f"/><path d="m303.927 208.073 74.246 74.246 36.562-5.864c23.779-50.135 15.472-111.807-25.956-153.235s-103.1-49.735-153.235-25.956l-5.864 36.562z" fill="#ff9100"/><path d="m240.288 271.712-74.246-74.246-36.562 5.864c-23.779 50.135-15.472 111.807 25.956 153.235s103.1 49.735 153.235 25.956l5.864-36.562z" fill="#ff9100"/><g fill="#ff641a"><path d="m414.736 276.455c23.779-50.135 15.472-111.807-25.956-153.235l-84.853 84.853 74.246 74.246z"/><path d="m308.67 382.521 5.864-36.562-74.246-74.246-84.853 84.853c41.428 41.427 103.1 49.734 153.235 25.955z"/><path d="m414.736 276.455-89.595-89.595-89.595-89.595c-13.568 6.436-26.472 14.745-37.684 25.956l-42.426 42.426c-11.211 11.211-19.52 24.116-25.956 37.684l89.595 89.595 89.595 89.595c13.568-6.436 26.472-14.745 37.684-25.956l42.426-42.426c11.211-11.212 19.52-24.116 25.956-37.684z"/></g><path d="m346.354 356.565 42.426-42.426c11.211-11.211 19.52-24.116 25.956-37.684l-89.595-89.595-106.067 106.066 89.595 89.595c13.569-6.436 26.473-14.745 37.685-25.956z" fill="#f03800"/></svg>