<?xml version="1.0" encoding="iso-8859-1"?>
<!-- Generator: Adobe Illustrator 19.0.0, SVG Export Plug-In . SVG Version: 6.00 Build 0)  -->
<svg version="1.1" id="Capa_1" xmlns="http://www.w3.org/2000/svg" xmlns:xlink="http://www.w3.org/1999/xlink" x="0px" y="0px"
	 viewBox="0 0 512 512" style="enable-background:new 0 0 512 512;" xml:space="preserve">
<path style="fill:#A9B1B5;" d="M324.394,0H187.596c-13.974,0-25.302,11.329-25.302,25.302v47.504h187.403V25.302
	C349.697,11.329,338.368,0,324.394,0z"/>
<path style="fill:#969FA3;" d="M215.723,0h-28.128c-13.974,0-25.302,11.329-25.302,25.302v47.504h53.43V0z"/>
<rect x="273.162" style="fill:#C4CCCE;" width="36.119" height="72.808"/>
<rect x="102.593" y="58.044" style="fill:#D1D4DD;" width="306.813" height="453.956"/>
<rect x="102.593" y="58.044" style="fill:#BDBFC6;" width="75.042" height="453.956"/>
<rect x="298.501" y="58.044" style="fill:#E8EAEF;" width="75.042" height="453.956"/>
<rect x="102.593" y="116.59" style="fill:#7AB800;" width="306.813" height="336.875"/>
<rect x="102.593" y="116.59" style="fill:#6F9B02;" width="75.042" height="336.875"/>
<rect x="298.501" y="116.59" style="fill:#93C911;" width="75.042" height="336.875"/>
<g>
	<polygon style="fill:#FDFBFC;" points="323.687,197.613 273.097,197.613 273.097,147.022 238.893,147.022 238.893,197.613
		188.302,197.613 188.302,231.816 238.893,231.816 238.893,282.408 273.097,282.408 273.097,231.816 323.687,231.816 	"/>
	<rect x="188.306" y="388.817" style="fill:#FDFBFC;" width="135.387" height="34.203"/>
</g>
<g>
</g>
<g>
</g>
<g>
</g>
<g>
</g>
<g>
</g>
<g>
</g>
<g>
</g>
<g>
</g>
<g>
</g>
<g>
</g>
<g>
</g>
<g>
</g>
<g>
</g>
<g>
</g>
<g>
</g>
</svg>
