<?xml version="1.0" encoding="iso-8859-1"?>
<!-- Generator: Adobe Illustrator 19.0.0, SVG Export Plug-In . SVG Version: 6.00 Build 0)  -->
<svg version="1.1" id="Layer_1" xmlns="http://www.w3.org/2000/svg" xmlns:xlink="http://www.w3.org/1999/xlink" x="0px" y="0px"
	 viewBox="0 0 512.001 512.001" style="enable-background:new 0 0 512.001 512.001;" xml:space="preserve">
<path style="fill:#FFC33E;" d="M180.39,496.923V267.775c0.001,0,0.002,0,0.003,0c-12.853-2.375-22.591-13.634-22.591-27.173
	c0-18.587,18.048-31.951,35.873-26.397c2.922-9.19,8.971-16.975,16.883-22.144c-3.33-3.706-9.178-6.051-14.552-6.051h0.942
	l-19.27-142.954c-10.208,0-43.206,0-53.44,0L104.971,186.01c-10.05,0-18.195,8.147-18.195,18.195v289.601
	c0,10.049,8.146,18.195,18.195,18.195h90.496C187.14,512,180.39,505.25,180.39,496.923z"/>
<path style="fill:#F9A832;" d="M112.583,496.214V213.839c0-8.262,5.512-15.228,13.057-17.447l-0.007-0.006
	c2.713-0.402,5.384-2.619,5.896-6.644l18.671-146.688h-25.964L104.971,186.01c-10.05,0-18.195,8.147-18.195,18.195v289.601
	c0,10.049,8.146,18.195,18.195,18.195h16.785C116.281,508.864,112.583,502.976,112.583,496.214z"/>
<path style="fill:#D8D4D2;" d="M114.154,117.873h73.61l-10.085-74.818c-10.208,0-43.206,0-53.44,0L114.154,117.873z"/>
<polygon style="fill:#C4BEBB;" points="140.678,117.873 150.202,43.056 124.238,43.056 114.154,117.873 "/>
<path style="fill:#ED4343;" d="M180.39,267.775c0.001,0,0.002,0,0.003,0c-12.853-2.375-22.591-13.634-22.591-27.173
	c0-1.608,0.145-3.182,0.409-4.713H86.775v224.452h93.614V267.775z"/>
<rect x="86.781" y="235.89" style="fill:#C93F3F;" width="25.808" height="224.45"/>
<path style="fill:#B72929;" d="M179.361,431.957h-58.367c-4.276,0-7.742-3.466-7.742-7.742s3.466-7.742,7.742-7.742h58.367
	c4.276,0,7.742,3.466,7.742,7.742S183.637,431.957,179.361,431.957z"/>
<path style="fill:#7F5030;" d="M193.711,28.056c0,8.854-7.179,16.032-16.033,16.032h-53.44c-8.854,0-16.032-7.178-16.032-16.032
	V16.032C108.206,7.177,115.383,0,124.238,0h53.44c8.854,0,16.033,7.177,16.033,16.032V28.056z"/>
<path style="fill:#704528;" d="M150.958,28.056V16.032C150.958,7.177,158.135,0,166.991,0h-42.753
	c-8.854,0-16.032,7.177-16.032,16.032v12.024c0,8.854,7.178,16.032,16.032,16.032h42.753
	C158.135,44.088,150.958,36.91,150.958,28.056z"/>
<path style="fill:#7F5030;" d="M395.276,279.302H352.36v25.129h42.916c2.658,0,4.82,2.162,4.82,4.82v137.056
	c0,2.657-2.161,4.82-4.82,4.82H352.36c0,25.316,0.053,23.634-0.14,25.129h43.056c16.515,0,29.949-13.435,29.949-29.949V309.251
	C425.225,292.737,411.791,279.302,395.276,279.302z"/>
<path style="fill:#FFC33E;" d="M352.318,262.474c-0.057,0.025-0.115,0.051-0.173,0.077c-0.688,0.311-1.386,0.601-2.094,0.873
	c-0.04,0.016-0.08,0.032-0.12,0.048c-1.507,0.574-3.056,1.065-4.641,1.462c-0.057,0.014-0.118,0.026-0.175,0.04
	c-0.684,0.167-1.374,0.319-2.071,0.452c-0.207,0.04-0.415,0.075-0.622,0.111c-0.561,0.099-1.124,0.188-1.692,0.263
	c-0.25,0.033-0.499,0.067-0.751,0.096c-0.557,0.063-1.121,0.114-1.687,0.155c-0.237,0.018-0.473,0.041-0.711,0.054
	c-0.792,0.045-1.589,0.074-2.392,0.074c-0.681,0-1.354-0.021-2.025-0.053c-0.245-0.012-0.487-0.031-0.731-0.046
	c-0.416-0.028-0.832-0.06-1.244-0.1c-0.305-0.029-0.608-0.062-0.91-0.098c-0.327-0.039-0.652-0.085-0.976-0.131
	c-0.356-0.05-0.711-0.1-1.063-0.159c-0.158-0.026-0.315-0.06-0.474-0.089c-1.54-0.279-3.052-0.643-4.528-1.088
	c-0.04-0.013-0.082-0.025-0.122-0.037c-0.527-0.16-1.05-0.33-1.569-0.511v44.614c0,8.674-7.033,15.706-15.706,15.706
	c-8.674,0-15.706-7.032-15.706-15.706v-43.793h-0.002c-1.582,0.543-3.306,0.936-4.715,1.152c-0.49,0.076-0.984,0.136-1.482,0.186
	c-0.214,0.021-0.426,0.046-0.641,0.063c-0.706,0.053-1.415,0.089-2.135,0.089c-8.732,0-16.513-4.053-21.579-10.377
	c-15.395,13.592-38.399,13.87-54.114,0.635c-10.882,12.788-25.078,9.273-26.11,9.273v231.212c0,8.327,6.75,15.077,15.077,15.077
	h144.913c8.326,0,15.077-6.75,15.077-15.077V261.446c-0.001,0-0.003,0-0.004,0.001C353.731,261.809,353.03,262.15,352.318,262.474z"
	/>
<path style="fill:#F9A832;" d="M206.796,496.923c0-10.721,0-229.86,0-239.426c-0.448-0.347-0.895-0.695-1.328-1.059
	c-10.882,12.788-25.078,9.273-26.11,9.273v231.212c0,8.327,6.75,15.077,15.077,15.077h27.438
	C213.546,512,206.796,505.25,206.796,496.923z"/>
<g>
	<path style="fill:#F9E178;" d="M214.538,450.636c-4.276,0-7.742-3.466-7.742-7.742V310.545c0-4.276,3.466-7.742,7.742-7.742
		s7.742,3.466,7.742,7.742v132.348C222.28,447.17,218.814,450.636,214.538,450.636z"/>
	<path style="fill:#F9E178;" d="M249.719,450.636c-4.276,0-7.742-3.466-7.742-7.742V310.545c0-4.276,3.467-7.742,7.742-7.742
		c4.276,0,7.742,3.466,7.742,7.742v132.348C257.461,447.17,253.995,450.636,249.719,450.636z"/>
	<path style="fill:#F9E178;" d="M284.9,450.636c-4.276,0-7.742-3.466-7.742-7.742v-93.398c0-4.276,3.466-7.742,7.742-7.742
		s7.742,3.466,7.742,7.742v93.398C292.642,447.17,289.176,450.636,284.9,450.636z"/>
	<path style="fill:#F9E178;" d="M320.081,450.636c-4.276,0-7.742-3.466-7.742-7.742v-93.398c0-4.276,3.466-7.742,7.742-7.742
		s7.742,3.466,7.742,7.742v93.398C327.824,447.17,324.357,450.636,320.081,450.636z"/>
</g>
<path style="fill:#FCEBA4;" d="M335.189,185.317c-5.383,0-10.52,1.036-15.239,2.903c-12.818-32.477-59.045-32.222-71.471,0.438
	c-22.477-9.633-48.432,2.25-55.838,25.548c-17.808-5.549-35.873,7.793-35.873,26.397c0,25.772,32.171,37.323,48.698,17.9
	c15.628,13.162,38.636,13.03,54.114-0.635c5.066,6.324,12.846,10.377,21.579,10.377c3.141,0,6.162-0.525,8.975-1.491v43.793
	c0,8.674,7.032,15.706,15.706,15.706c8.674,0,15.706-7.032,15.706-15.706v-44.614c4.272,1.491,8.858,2.313,13.642,2.313
	c22.899,0,41.463-18.564,41.463-41.463C376.652,203.88,358.089,185.317,335.189,185.317z"/>
<path style="fill:#F9E178;" d="M221.939,234.511c7.407-23.302,33.364-35.179,55.838-25.548c6.121-16.087,22.52-26.594,40.49-24.417
	c-15.293-29.242-58.055-26.725-69.787,4.111c-22.477-9.633-48.432,2.25-55.838,25.548c-17.808-5.549-35.873,7.793-35.873,26.397
	c0,16.155,13.86,29.049,30.252,27.511C181.379,247.169,201.064,228.006,221.939,234.511z"/>
<path style="fill:#7F5030;" d="M179.357,476.399v20.523c0,8.327,6.75,15.077,15.077,15.077h144.913
	c8.326,0,15.077-6.75,15.077-15.077v-20.523H179.357z"/>
<path style="fill:#704528;" d="M206.796,496.923V476.4h-27.438v20.523c0,8.327,6.75,15.077,15.077,15.077h27.438
	C213.546,512,206.796,505.25,206.796,496.923z"/>
<g>
</g>
<g>
</g>
<g>
</g>
<g>
</g>
<g>
</g>
<g>
</g>
<g>
</g>
<g>
</g>
<g>
</g>
<g>
</g>
<g>
</g>
<g>
</g>
<g>
</g>
<g>
</g>
<g>
</g>
</svg>
