<svg id="Capa_1" enable-background="new 0 0 512 512" height="512" viewBox="0 0 512 512" width="512" xmlns="http://www.w3.org/2000/svg"><g id="gas_drink"><g id="gas_drink_1_"><g><path d="m346.22 378-89.22 34-91.22-34c1.1-3.62 2.21-8.09 3.29-11.6 6.13-19.84 11.93-38.59 11.93-49.4 0-11.22-3.63-27.24-7.15-42.64-1.32-5.76-2.64-11.58-3.84-17.36l88.99-38 82.99 38c-1.2 5.78-2.52 11.6-3.84 17.36-3.52 15.4-7.15 31.42-7.15 42.64 0 10.81 5.8 29.56 11.93 49.4 1.08 3.51 2.19 7.98 3.29 11.6z" fill="#ff6c6c"/></g></g><path d="m331 317c0-11.22 3.63-27.24 7.15-42.64 1.32-5.76 2.64-11.58 3.84-17.36l-82.99-38-3 1.281v191.346l1 .373 89.22-34c-1.1-3.62-2.21-8.09-3.29-11.6-6.13-19.84-11.93-38.59-11.93-49.4z" fill="#e63950"/><g><path d="m301 15v62l-46 21-44-21v-62c0-8.28 6.72-15 15-15h60c8.28 0 15 6.72 15 15z" fill="#ff6c6c"/><path d="m286 0h-30v97.543l45-20.543v-62c0-8.28-6.72-15-15-15z" fill="#e63950"/><path d="m341.99 257h-171.98c-3.47-16.71-5.87-33.03-3.86-47.12 1.72-12.04 7.95-26.31 19.04-43.64 16.59-25.91 25.49-56.14 25.79-87.53.02-.57.02-1.14.02-1.71h90c0 .57 0 1.14.02 1.71.3 31.39 9.2 61.62 25.79 87.53 11.09 17.33 17.32 31.6 19.04 43.64 2.01 14.09-.39 30.41-3.86 47.12z" fill="#edf5ff"/><path d="m326.81 166.24c-16.59-25.91-25.49-56.14-25.79-87.53-.02-.57-.02-1.14-.02-1.71h-45v180h85.99c3.47-16.71 5.87-33.03 3.86-47.12-1.72-12.04-7.95-26.31-19.04-43.64z" fill="#cdf"/><path d="m346.22 378h-180.44c-7.48 24.58-14.78 50.31-14.78 74 0 29.44 11.42 44.19 21 51.38 10.95 8.2 21.91 8.62 24 8.62h120c2.09 0 13.05-.42 24-8.62 9.58-7.19 21-21.94 21-51.38 0-23.69-7.3-49.42-14.78-74z" fill="#edf5ff"/><g><path d="m256 378v134h60c2.09 0 13.05-.42 24-8.62 9.58-7.19 21-21.94 21-51.38 0-23.69-7.3-49.42-14.78-74z" fill="#cdf"/></g></g></g></svg>