<svg id="Capa_1" enable-background="new 0 0 513.294 513.294" height="512" viewBox="0 0 513.294 513.294" width="512" xmlns="http://www.w3.org/2000/svg"><g><g><path d="m125.854 512.337c-.023 0-.045 0-.069-.001-21.31-.018-41.336-8.307-56.391-23.34l-27.542-27.502c-55.869-55.788-55.792-146.484.172-202.178l217.63-216.573c27.081-26.95 63.058-41.787 101.318-41.787h.126c38.307.033 74.309 14.935 101.373 41.959l27.542 27.502c31.079 31.033 31.036 81.485-.096 112.466l-307.7 306.208c-15.065 14.992-35.079 23.246-56.363 23.246zm353.431-340.069h.01z" fill="#fbd9b0"/><g><path d="m476.913 57.337-419.598 419.598 12.079 12.061c15.055 15.033 35.082 23.322 56.391 23.34.023.001.046.001.069.001 21.284 0 41.298-8.254 56.362-23.246l307.7-306.208c31.131-30.98 31.175-81.433.096-112.466zm2.373 114.931h.01z" fill="#fbc182"/></g></g><g fill="#fab466"><path d="m296.821 172.944c6.809 6.82 15.867 10.581 25.497 10.59h.04c9.625 0 18.679-3.746 25.492-10.547 6.821-6.81 10.583-15.868 10.59-25.506.008-9.638-3.738-18.702-10.545-25.522l-83.555-83.669c-1.589 1.447-3.154 2.928-4.686 4.454l-46.574 46.346z"/><path d="m124.949 176.794 83.88 83.992c6.804 6.815 15.873 10.568 25.537 10.568 8.055 0 15.7-2.609 21.962-7.426l.008-.007c1.23-.946 2.407-1.979 3.523-3.093 14.081-14.057 14.1-36.948.044-51.028l-83.8-83.913z"/><path d="m171.956 297.687c-.65-.643-50.683-50.125-84.385-83.696l-45.547 45.326c-1.841 1.831-3.617 3.703-5.336 5.608l84.15 83.702c6.81 6.821 15.869 10.582 25.498 10.591h.04c10.766 0 20.566-4.555 27.594-12.826 4.791-5.638 7.761-12.805 8.362-20.18.881-10.809-2.819-20.956-10.376-28.525z"/></g></g></svg>