<svg enable-background="new 0 0 100 100" height="512" viewBox="0 0 100 100" width="512" xmlns="http://www.w3.org/2000/svg"><path d="m14.249334 23.220169h.917802v34.043011h-.917802z" fill="#ededed"/><path d="m80.9951172 58.3377762c-6.5198975 2.6077881-11.0836792 2.7109375-13.5650635.3051758-5.0332603-4.876709-.1281128-18.5698242-.0782471-18.7075195l.1309204-.3596191c-.1739502-.1192627-.3481445-.2376709-.5161743-.3653564l-.2948608.2247314c-8.8671227 6.7553711-15.1900597 9.0036621-18.7960777 6.6917725-5.8266602-3.7425537-2.8264771-18.3985596-2.5770874-19.5635986-.2550049-.1490479-.5174561-.2860107-.7807007-.4223633-6.7174683 7.6699219-12.8024902 10.9833984-18.0839233 9.8505859-7.8877563-1.6938477-11.3871469-12.9141846-11.4215708-13.0275879l-.8425903.2561035c.1461792.4815674 3.6816416 11.8266602 12.0767221 13.6313477 5.336792 1.1555176 11.3562622-1.8718262 17.899353-8.9780273-.7428589 4.2138672-2.1572266 15.5175781 3.253479 18.9937744 3.7857056 2.4315186 10.0656738.451416 18.6782799-5.8878174-1.1486816 3.6970215-3.7728233 13.921875.7394409 18.2956543 1.355896 1.3145752 3.2285156 1.9724121 5.600708 1.9724121 2.4435425 0 5.4176025-.6973877 8.9041138-2.0927734z" fill="#ededed"/><path d="m92.681488 79.47686c-.7015991 0-1.364502-.4221649-1.6379166-1.1134415-10.873886-27.4766158-27.914257-44.7938422-50.6499404-51.4727649-16.985342-4.9885578-30.9897575-1.8442707-31.1290455-1.8098793-.9517975.2175293-1.8932786-.3697128-2.1142468-1.3154926-.220109-.94664.3671341-1.8924198 1.3129134-2.1142483.6010008-.1410065 14.9123659-3.3824501 32.7549248 1.8115978 16.4402313 4.7856464 38.9979324 17.9706726 53.0995102 53.6042099.3585358.9045105-.0851212 1.9276733-.9887695 2.285347-.2132331.084259-.432479.1246719-.6474296.1246719z" fill="#344d5b"/><ellipse cx="82.662" cy="58.767" fill="#feda6f" rx="5.785" ry="5.785" transform="matrix(.987 -.16 .16 .987 -8.346 14)"/><ellipse cx="82.662" cy="58.767" fill="#de594e" rx="2.581" ry="2.581" transform="matrix(.987 -.16 .16 .987 -8.346 14)"/><path d="m92.3168335 57.69207-9.6726532.2311249c-.4661179 0-.8439407.3777733-.8439407.843998 0 .466011.3778229.843895.8439407.843895l9.6726532-.2311249c.4661179 0 .8440018-.3778801.8440018-.8438911 0-.4662286-.3778839-.8440019-.8440018-.8440019z" fill="#304551"/><path d="m92.4436417 55.5543327c-.4636993 0-.839592.3758392-.839592.839592v4.427002c0 .4637527.3758926.8395958.839592.8395958.4637604 0 .839653-.375843.839653-.8395958v-4.427002c0-.4637527-.3758927-.839592-.839653-.839592z" fill="#304551"/><path d="m17.5226212 57.2631798c0-1.5240097-1.2369003-2.7664032-2.7664022-2.7664032-1.5240088 0-2.7608747 1.2423935-2.7608747 2.7664032 0 1.2982712.8946218 2.377346 2.096034 2.676487v11.0711365c0 1.8959427-1.5427475 3.4386902-3.4386921 3.4386902-1.8673658 0-3.3912392-1.4963684-3.4370742-3.352951l1.6717925-1.0626984-2.5059867-2.8359604-.803997 3.6338959-.0194125.1790237c0 2.8094101 2.2858109 5.0952148 5.0952168 5.0952148s5.0946789-2.2858047 5.0946789-5.0952148v-11.171772c1.0370119-.398964 1.7747172-1.3970872 1.7747172-2.5758515zm-2.7664023 1.2202873c-.6736708 0-1.2147913-.5466499-1.2147913-1.2202873s.5411205-1.2202835 1.2147913-1.2202835c.6736374 0 1.2202854.5466461 1.2202854 1.2202835s-.546648 1.2202873-1.2202854 1.2202873z" fill="#feda6f"/></svg>