<svg id="icons" enable-background="new 0 0 64 64" height="512" viewBox="0 0 64 64" width="512" xmlns="http://www.w3.org/2000/svg"><path d="m61 22h-1-3-25-25-3-1c-1.1 0-2 .899-2 2v4h24 7 7 24v-4c0-1.101-.9-2-2-2z" fill="#ccd1d9"/><path d="m51 37c1.66 0 3 1.351 3 3 0 1.66-1.34 3-3 3-1.649 0-3-1.34-3-3 0-1.649 1.351-3 3-3z" fill="#545c66"/><path d="m13 37c1.66 0 3 1.351 3 3 0 1.66-1.34 3-3 3-1.649 0-3-1.34-3-3 0-1.649 1.351-3 3-3z" fill="#545c66"/><path d="m29 51.96v.04h-4v-4h4z" fill="#ccd1d9"/><path d="m25 34h14v9h-14z" fill="#ccd1d9"/><path d="m13 31c4.97 0 9 4.03 9 9 0 4.971-4.03 9-9 9s-9-4.029-9-9c0-4.97 4.03-9 9-9zm3 9c0-1.649-1.34-3-3-3-1.649 0-3 1.351-3 3 0 1.66 1.351 3 3 3 1.66 0 3-1.34 3-3z" fill="#656d78"/><path d="m4 15h3v7h-3z" fill="#aab2bd"/><path d="m57 15h3v7h-3z" fill="#aab2bd"/><path d="m39 43v5h-3.99-6.01-4v-5z" fill="#aab2bd"/><path d="m51 31c4.97 0 9 4.03 9 9 0 4.971-4.03 9-9 9s-9-4.029-9-9c0-4.97 4.03-9 9-9zm3 9c0-1.649-1.34-3-3-3-1.649 0-3 1.351-3 3 0 1.66 1.351 3 3 3 1.66 0 3-1.34 3-3z" fill="#656d78"/><path d="m39 48v4h-3.99v-.04-3.96z" fill="#ccd1d9"/><path d="m39 28.011v5.989h-14v-5.989-.011h7 7z" fill="#aab2bd"/><path d="m59 12c.55 0 1 .45 1 1v2c0 .55-.45 1-1 1h-1c-.55 0-1.45 0-2 0h-48c-.55 0-1.45 0-2 0h-1c-.55 0-1-.45-1-1v-2c0-.55.45-1 1-1z" fill="#656d78"/><path d="m35.01 51.96v.04h-6.01v-.04-3.96h6.01z" fill="#ccd1d9"/><path d="m34.499 40.999h-4.998c-.553 0-1-.447-1-1s.447-1 1-1h4.998c.553 0 1 .447 1 1s-.447 1-1 1z" fill="#545c66"/><g fill="#aab2bd"><path d="m5.031 25.998c-.553 0-1.005-.448-1.005-1 0-.553.442-1 .994-1h.011c.552 0 1 .447 1 1 0 .552-.448 1-1 1z"/><path d="m8.031 25.998c-.553 0-1.005-.448-1.005-1 0-.553.442-1 .994-1h.011c.552 0 1 .447 1 1 0 .552-.448 1-1 1z"/><path d="m11.031 25.998c-.553 0-1.005-.448-1.005-1 0-.553.442-1 .994-1h.011c.552 0 1 .447 1 1 0 .552-.448 1-1 1z"/><path d="m14.031 25.998c-.553 0-1.005-.448-1.005-1 0-.553.442-1 .994-1h.011c.552 0 1 .447 1 1 0 .552-.448 1-1 1z"/><path d="m60 25.998h-2c-.553 0-1-.448-1-1 0-.553.447-1 1-1h2c.553 0 1 .447 1 1 0 .552-.447 1-1 1z"/><path d="m55 25.998h-2c-.553 0-1-.448-1-1 0-.553.447-1 1-1h2c.553 0 1 .447 1 1 0 .552-.447 1-1 1z"/><path d="m50 25.998h-2c-.553 0-1-.448-1-1 0-.553.447-1 1-1h2c.553 0 1 .447 1 1 0 .552-.447 1-1 1z"/><path d="m39 25.998h-14c-.553 0-1-.448-1-1 0-.553.447-1 1-1h14c.553 0 1 .447 1 1 0 .552-.447 1-1 1z"/></g><path d="m32 26.998c-.553 0-1-.448-1-1v-2c0-.553.447-1 1-1s1 .447 1 1v2c0 .552-.447 1-1 1z" fill="#e6e9ed"/><path d="m29 48h1v4h-1z" fill="#aab2bd"/><path d="m34 48h1v4h-1z" fill="#aab2bd"/><path d="m29.501 40.999c-1.379 0-2.5-1.121-2.5-2.5s1.121-2.5 2.5-2.5 2.5 1.121 2.5 2.5-1.121 2.5-2.5 2.5zm0-3c-.275 0-.5.225-.5.5s.225.5.5.5.5-.225.5-.5-.225-.5-.5-.5z" fill="#656d78"/><path d="m34.499 40.999c-1.379 0-2.5-1.121-2.5-2.5s1.121-2.5 2.5-2.5 2.5 1.121 2.5 2.5-1.121 2.5-2.5 2.5zm0-3c-.275 0-.5.225-.5.5s.225.5.5.5.5-.225.5-.5-.225-.5-.5-.5z" fill="#656d78"/><path d="m39 28.011v5.989 9 5 4h22c1.1 0 2-.9 2-2v-22h-24zm12 2.989c4.97 0 9 4.03 9 9 0 4.971-4.03 9-9 9s-9-4.029-9-9c0-4.97 4.03-9 9-9z" fill="#e6e9ed"/><path d="m25 43v-9-5.989-.011h-24v22c0 1.1.9 2 2 2h22v-4zm-12 6c-4.97 0-9-4.029-9-9 0-4.97 4.03-9 9-9s9 4.03 9 9c0 4.971-4.03 9-9 9z" fill="#e6e9ed"/></svg>