<svg id="Capa_1" enable-background="new 0 0 511.991 511.991" height="512" viewBox="0 0 511.991 511.991" width="512" xmlns="http://www.w3.org/2000/svg"><path d="m238.85 494.183-111.583-193.269c-1.751-3.032-4.923-4.423-7.977-4.173l-5.507 7.63-11.292 173.125 135.74 26.017c1.95-2.545 2.449-6.162.619-9.33z" fill="#ffc269"/><path d="m454.194 19.414h-130.803c-4.257 0-8.355 1.615-11.467 4.52l-43.66 40.75c-3.138 2.929-3.564 7.751-.989 11.185l114.795 153.06c3.361 4.482 10.084 4.482 13.445 0l114.795-153.061c2.575-3.434 2.149-8.256-.989-11.185l-43.66-40.75c-3.112-2.904-7.21-4.519-11.467-4.519z" fill="#a4ccff"/><path d="m509.321 64.683-43.66-40.749c-3.112-2.905-7.211-4.52-11.467-4.52h-14.984v50.418h72.678c-.229-1.908-1.066-3.749-2.567-5.149z" fill="#c3ddff"/><path d="m265.697 69.832c-.25 2.082.234 4.244 1.578 6.036l114.795 153.06c1.681 2.241 4.201 3.361 6.722 3.361v-162.457z" fill="#739ad6"/><path d="m386.795 231.833c1.336.33 2.658.33 3.994 0l69.632-211.216c-1.965-.784-4.075-1.203-6.228-1.203h-130.802c-2.153 0-4.263.419-6.228 1.203z" fill="#8bb3ea"/><path d="m388.792 19.414-50.417 50.418h100.835z" fill="#a4ccff"/><path d="m449.058 506.787h-1.446l-56.122-17.292-61.519 17.292h-1.441c-4.457 0-8.732-1.771-11.884-4.922l-32.171-32.171c-3.152-3.152-4.922-7.426-4.922-11.884v-1.44l15.937-63.125-15.937-54.518v-1.446c0-4.457 1.771-8.732 4.922-11.884l32.167-32.167c3.152-3.152 7.426-4.922 11.884-4.922h1.446l55.686 11.686 61.955-11.686h1.442c4.457 0 8.731 1.77 11.883 4.922l32.171 32.167c3.152 3.152 4.923 7.427 4.923 11.884v1.445l-13.541 54.268 13.541 63.374v1.441c0 4.457-1.77 8.731-4.922 11.883l-32.167 32.171c-3.153 3.153-7.427 4.924-11.885 4.924z" fill="#b3e59f"/><path d="m220.728 60.78-92.433-53.327c-2.599-1.499-5.499-2.249-8.399-2.249l-83.405 70.133v106.632l83.406 70.132c2.9 0 5.799-.75 8.398-2.249l92.433-53.326c2.601-1.501 4.703-3.638 6.155-6.152l.004-123.436c-1.452-2.516-3.555-4.656-6.159-6.158z" fill="#ff8086"/><path d="m19.066 196.526c-2.588-1.494-4.678-3.621-6.129-6.119l41.466-23.941 65.495 29.41v56.225c-2.9 0-5.8-.749-8.398-2.249z" fill="#e5646e"/><path d="m10.739 74.726v107.853c.104 2.793.833 5.481 2.197 7.828l41.466-23.941v-75.627l-41.466-23.941c-1.363 2.347-2.093 5.035-2.197 7.828z" fill="#db4655"/><path d="m229.136 182.579v-107.853c-.104-2.793-.885-5.441-2.249-7.787l-41.414 23.9v75.627l41.406 23.906c1.363-2.347 2.153-5 2.257-7.793z" fill="#ff9a9f"/><path d="m19.066 60.779c-2.588 1.494-4.678 3.621-6.129 6.119l41.466 23.941 65.495-29.41v-56.225c-2.9 0-5.8.749-8.398 2.249z" fill="#e5646e"/><path d="m119.897 51.106-67.224 38.782v77.529l67.224 38.783 67.224-38.783v-77.529z" fill="#ff8086"/><path d="m119.897 67.381-53.116 30.643v61.257l53.116 30.644 53.115-30.644v-61.257z" fill="#ff9a9f"/><path d="m231.573 506.787c2.809 0 5.162-1.322 6.659-3.274l-72.995-44.063-85.78-8.858-78.399 51.826c1.392 2.534 4.044 4.369 7.348 4.369z" fill="#ffa95f"/><path d="m119.283 382.543.006-85.802c-2.585.215-5.096 1.607-6.577 4.173l-111.583 193.269c-1.582 2.741-1.404 5.808-.071 8.236l77.757-44.351z" fill="#ff8b5a"/><path d="m112.712 378.942-44.01 76.227c-3.234 5.602.809 12.604 7.277 12.604h88.019c6.469 0 10.512-7.002 7.277-12.604l-44.009-76.227c-3.233-5.602-11.319-5.602-14.554 0z" fill="#ffe07d"/><path d="m447.613 338.727h50.418v117.642h-50.418z" fill="#ccf49f" transform="matrix(-1 0 0 -1 945.645 795.096)"/><path d="m279.554 338.727h50.418v117.642h-50.418z" fill="#95d6a4" transform="matrix(-1 0 0 -1 609.525 795.096)"/><path d="m329.972 288.309h117.642v50.418h-117.642z" fill="#ccf49f"/><path d="m329.972 456.369h117.642v50.418h-117.642z" fill="#95d6a4"/><path d="m414.001 439.563h-50.418c-9.282 0-16.806-7.524-16.806-16.806v-50.418c0-9.282 7.524-16.806 16.806-16.806h50.418c9.282 0 16.806 7.524 16.806 16.806v50.418c0 9.282-7.524 16.806-16.806 16.806z" fill="#ccf49f"/></svg>