<?xml version="1.0" encoding="iso-8859-1"?>
<!-- Generator: Adobe Illustrator 19.0.0, SVG Export Plug-In . SVG Version: 6.00 Build 0)  -->
<svg version="1.1" id="Layer_1" xmlns="http://www.w3.org/2000/svg" xmlns:xlink="http://www.w3.org/1999/xlink" x="0px" y="0px"
	 viewBox="0 0 512 512" style="enable-background:new 0 0 512 512;" xml:space="preserve">
<path style="fill:#E7F3EB;" d="M399.001,114.646c-2.046-2.185-4.904-3.425-7.898-3.425H200.977c-2.992,0-5.853,1.24-7.898,3.425
	c-2.046,2.186-3.093,5.121-2.897,8.107l4.272,64.61c0.376,5.686,5.099,10.104,10.795,10.104h181.582
	c5.699,0,10.419-4.418,10.795-10.104l4.272-64.61C402.094,119.768,401.046,116.833,399.001,114.646z"/>
<path style="opacity:0.19;fill:#202121;enable-background:new    ;" d="M209.6,187.363l-4.272-64.61
	c-0.197-2.986,0.851-5.921,2.897-8.107c2.046-2.185,4.906-3.425,7.898-3.425h-15.145c-2.992,0-5.853,1.24-7.898,3.425
	c-2.046,2.186-3.093,5.121-2.897,8.107l4.272,64.61c0.376,5.686,5.099,10.104,10.795,10.104h15.145
	C214.698,197.467,209.976,193.049,209.6,187.363z"/>
<path style="fill:#485D6D;" d="M342.122,200.77c-0.23,0-0.461-0.011-0.693-0.029c-4.465-0.376-7.777-4.302-7.402-8.767
	l12.529-148.413c0.241-2.865,1.98-5.386,4.571-6.63l75.181-36.127c4.039-1.944,8.887-0.241,10.829,3.799
	c1.94,4.037,0.239,8.885-3.799,10.827l-71.001,34.117l-12.139,143.793C349.841,197.571,346.292,200.77,342.122,200.77z"/>
<path style="fill:#E7F3EB;" d="M367.354,464.029H266.261c-4.686-1.654-9.985,0.108-12.715,4.393
	c-5.555,8.716-11.8,16.358-18.562,22.716c-3.23,3.039-4.281,7.743-2.647,11.866c1.636,4.125,5.622,6.833,10.057,6.833H366.28
	c5.79,0,10.552-4.555,10.807-10.337l1.075-24.172c0.131-2.95-0.949-5.826-2.99-7.959
	C373.131,465.235,370.306,464.029,367.354,464.029z"/>
<path style="fill:#F8981D;" d="M393.82,190.336c-2.046-2.134-4.906-3.345-7.898-3.345H206.157c-2.992,0-5.85,1.211-7.898,3.345
	c-2.046,2.134-3.093,5.001-2.895,7.917l0.339,5.016l-0.363-0.122l6.909,96.794l0,0l0.877,12.948
	c0.283,4.179,3.068,7.803,7.101,9.233l1.357,0.481c37.291,13.216,62.345,48.087,62.345,86.766c0,17.603-29.998,34.728-39.68,49.521
	l-2.174,3.321c-2.13,3.252-2.272,7.38-0.374,10.765c1.9,3.385,5.536,5.489,9.488,5.489h126.429c5.699,0,10.419-4.316,10.794-9.867
	l18.304-270.346C396.913,195.337,395.866,192.471,393.82,190.336z"/>
<path style="opacity:0.19;fill:#202121;enable-background:new    ;" d="M297.43,407.079c0-30.029-11.297-58.685-31.814-80.689
	c-8.978-9.628-19.348-17.59-30.679-23.684c4.826-2.964,9.197-6.71,12.92-11.15c9.975-11.893,14.252-27.535,11.738-42.911l-0.3-1.836
	c-1.933-11.828-12.035-20.412-24.019-20.412c-0.11,0-0.22,0-0.328,0.002l-1.813,0.022c-7.012,0.08-13.831,1.545-20.127,4.205
	l-3.114-43.633h-3.735c-2.992,0-5.85,1.211-7.898,3.345c-2.046,2.134-3.093,5.001-2.895,7.917l0.339,5.016l-0.363-0.122
	l2.922,40.929l0,0l3.988,55.865l0.877,12.948c0.283,4.179,3.068,7.803,7.101,9.233l1.357,0.481
	c37.291,13.216,62.345,48.087,62.345,86.766c0,17.603-29.998,34.728-39.68,49.521l-2.174,3.321c-2.13,3.252-2.272,7.38-0.374,10.765
	c1.9,3.385,5.536,5.489,9.488,5.489h5.269h26.958h0.019c0.111-0.148,0.215-0.302,0.326-0.45c0.61-0.814,1.204-1.638,1.794-2.465
	c0.255-0.361,0.519-0.714,0.771-1.077c0.829-1.193,1.64-2.401,2.425-3.626c0.116-0.182,0.224-0.368,0.34-0.552
	c0.663-1.048,1.314-2.102,1.946-3.172c0.262-0.446,0.514-0.896,0.771-1.346c0.334-0.583,0.678-1.16,1.002-1.749h-0.023
	C292.106,447.119,297.43,427.713,297.43,407.079z"/>
<path style="fill:#304451;" d="M178.764,310.271c-4.09,0-7.606-3.085-8.056-7.243c-3.877-35.877-29.769-44.679-30.029-44.764
	c-4.263-1.384-6.597-5.961-5.214-10.222c1.384-4.261,5.961-6.599,10.222-5.212c1.475,0.477,36.16,12.246,41.155,58.455
	c0.481,4.454-2.74,8.455-7.194,8.938C179.349,310.253,179.056,310.271,178.764,310.271z"/>
<path style="fill:#75C04D;" d="M246.25,250.826l-0.3-1.834c-0.856-5.238-5.382-9.073-10.674-9.073c-0.042,0-0.084,0-0.124,0
	l-1.862,0.022c-11.631,0.133-22.583,5.309-30.039,14.203c-7.444,8.87-10.636,20.55-8.758,32.044l0.3,1.834
	c0.858,5.238,5.382,9.073,10.676,9.073c0.04,0,0.082,0,0.124,0l1.86-0.022c11.634-0.133,22.583-5.309,30.043-14.205
	C244.938,273.994,248.128,262.314,246.25,250.826z"/>
<path style="opacity:0.19;fill:#202121;enable-background:new    ;" d="M203.447,294.164l-0.3-1.834
	c-1.878-11.494,1.314-23.174,8.758-32.044c7.457-8.893,18.408-14.07,30.039-14.203l1.862-0.022c0.04,0,0.082,0,0.124,0
	c0.381,0,0.754,0.025,1.126,0.064c-1.747-3.711-5.513-6.205-9.781-6.205c-0.042,0-0.084,0-0.124,0l-1.862,0.022
	c-11.632,0.133-22.583,5.309-30.039,14.203c-7.444,8.87-10.636,20.55-8.758,32.044l0.3,1.834c0.796,4.859,4.752,8.508,9.548,9.009
	C203.92,296.139,203.614,295.178,203.447,294.164z"/>
<path style="fill:#F8981D;" d="M178.895,302.154l-0.036,0.002c-57.785,0.069-104.797,47.136-104.797,104.921
	c0,57.855,47.069,104.921,104.924,104.921c57.854,0,104.921-47.067,104.921-104.921
	C283.907,349.227,236.844,302.158,178.895,302.154z"/>
<path style="opacity:0.19;fill:#202121;enable-background:new    ;" d="M102.109,407.079c0-53.063,39.643-97.083,90.867-103.977
	c-4.608-0.619-9.306-0.947-14.081-0.947l-0.036,0.002c-57.785,0.069-104.797,47.136-104.797,104.921
	C74.062,464.933,121.131,512,178.986,512c4.755,0,9.434-0.323,14.023-0.94C141.759,504.186,102.109,460.18,102.109,407.079z"/>
<g>
</g>
<g>
</g>
<g>
</g>
<g>
</g>
<g>
</g>
<g>
</g>
<g>
</g>
<g>
</g>
<g>
</g>
<g>
</g>
<g>
</g>
<g>
</g>
<g>
</g>
<g>
</g>
<g>
</g>
</svg>
