<svg enable-background="new 0 0 110 110" height="512" viewBox="0 0 110 110" width="512" xmlns="http://www.w3.org/2000/svg"><path d="m86.0984192 39.2355957-29.0069962-14.9443703c-1.2893639-.7658215-2.8941078-.7658215-4.1834717 0l-29.0069312 14.9443703c-1.3456173 1.0699196-2.1297474 2.6948547-2.1297474 4.4139137v30.9263573h66.4568329v-30.9263573c-.000002-1.719059-.7840672-3.3439941-2.1296864-4.4139137z" fill="#d6b24e"/><path d="m82.8409882 20.3326035h-55.682663c-1.0415535 0-1.8858452.8444004-1.8858452 1.8859005v46.146019c0 1.0417175.8442917 1.8859024 1.8858452 1.8859024h55.682663c1.0415573 0 1.8859024-.8441849 1.8859024-1.8859024v-46.146019c0-1.0415001-.8443451-1.8859005-1.8859024-1.8859005z" fill="#ededed"/><path d="m59.9062309 63.9454346-4.9048042 3.1596375-.8783264.5703278.8783264.5703278 23.5317307 15.1707764 7.916153 5.0986938c.0912018-.0685043.1824722-.1484299.2623291-.2280731.9353409-.9011612 1.5170898-2.1674118 1.5170898-3.5589828v-39.0331957z" fill="#f9c74b"/><path d="m55.0014267 67.105072-4.9048042-3.1596375-28.3224964-18.2504882v39.0331955c0 1.391571.5817471 2.6578217 1.5170918 3.5589828.079855.0796432.1710567.1595688.2623291.2280731l7.9047337-5.0986938 23.5431461-15.1707764.8783264-.5703278z" fill="#f9c74b"/><path d="m79.4228592 81.6713028-19.5166016-17.7260742h-9.8096313l-19.5166607 17.7260742-7.2887573 6.6157227c.079895.0795898.1710815.159668.2623291.2280273.8440552.7299805 1.9505615 1.1523438 3.159668 1.1523438h56.5764771c1.2091064 0 2.3155518-.4223633 3.1596069-1.1523438.0912476-.0683594.1824951-.1484375.2623291-.2280273z" fill="#fed35b"/><path d="m31.9204941 40.6156311h-.000061.000061c12.7462769 16.0036888 33.4121094 16.0036888 46.1584473 0-12.7463379-16.0043068-33.4121705-16.0043068-46.1584473 0z" fill="#ededed"/><circle cx="55" cy="40.615" fill="#4da0dc" r="9.724"/><path d="m57.7763138 41.1672974 6.0708847-.5520897-6.0713692-.5520935 5.3978081-2.8338127-5.8196945 1.8130226 3.9019012-4.6831284-4.683033 3.9017067 1.8126869-5.8197441-2.833477 5.3973732-.5523338-6.070694-.5523338 6.070694-2.8334771-5.3973732 1.8128319 5.8201294-4.683033-3.902092 3.9020424 4.6831284-5.8199844-1.8126374 5.3973274 2.8334275-6.0708885.5520935 6.0712738.5520897-5.3978577 2.8338165 5.820324-1.8134117-3.9023819 4.6839027 4.683033-3.9017067-1.812687 5.8197441 2.8334771-5.397377.5523338 6.0706978.5523796-6.0706978 2.8334312 5.397377-1.8129272-5.8205185 4.6833687 3.9024811-3.9020424-4.6835174 5.8199844 1.8130264z" fill="#4288b9"/><circle cx="55" cy="40.615" fill="#293b44" r="5.009"/></svg>