<svg id="Capa_1" enable-background="new 0 0 496.73 496.73" height="512" viewBox="0 0 496.73 496.73" width="512" xmlns="http://www.w3.org/2000/svg"><g><path d="m248.365 119.73c-63.189 0-115.379-49.498-119.709-111.636-.321-4.604 3.469-8.394 8.074-8.074 62.137 4.331 111.635 56.521 111.635 119.71z" fill="#adcb74"/><path d="m338.314 3.566-89.949 116.164c63.188 0 115.377-49.496 119.709-111.632.32-4.59-3.45-8.398-8.041-8.079-7.442.517-14.703 1.721-21.719 3.547z" fill="#1fb55b"/><path d="m338.314 3.566c-51.581 13.427-89.949 60.531-89.949 116.164 48.537 0 88.415-51.921 89.949-116.164z" fill="#7cc466"/><circle cx="248.365" cy="308.23" fill="#ff7a3c" r="188.5"/><circle cx="248.365" cy="308.23" fill="#ffe8c2" r="158.5"/><path d="m281.325 184.002c-10.518-2.786-21.565-4.272-32.96-4.272v104.303c5.651 0 11.301-3.087 13.858-9.26l44.204-35.252-15-35.252c3.488-8.42-1.291-17.933-10.102-20.267z" fill="#ff7a3c"/><path d="" fill="#ff7a3c"/><path d="m258.959 184.002c-3.381-2.786-6.931-4.272-10.594-4.272-11.395 0-22.442 1.486-32.96 4.272-8.811 2.334-13.59 11.847-10.102 20.268l-15 35.252 44.204 35.252c2.557 6.173 8.208 9.26 13.858 9.26 1.816 0 3.632-3.087 4.454-9.26l9.386-70.504c1.121-8.421-.414-17.934-3.246-20.268z" fill="#ff9a42"/><path d="m183.829 197.081c-9.408 5.468-18.27 12.228-26.327 20.286l73.754 73.754c3.996-3.996 5.809-10.174 3.252-16.347l-29.204-70.504c-3.489-8.421-13.594-11.769-21.475-7.189z" fill="#ff7a3c"/><path d="m168.013 212.897c-4.36.421-7.922 1.88-10.512 4.47-8.057 8.057-14.818 16.92-20.286 26.327-4.58 7.881-1.233 17.986 7.189 21.474l14.32 35.533 56.184-6.33c6.173 2.557 12.351.744 16.347-3.252 1.284-1.284.386-4.751-3.398-9.697l-43.216-56.491c-5.162-6.746-12.975-12.387-16.628-12.034z" fill="#ff9a42"/><path d="m124.137 275.27c-2.786 10.518-4.272 21.565-4.272 32.96h104.303c0-5.651-3.087-11.301-9.26-13.858l-70.504-29.204c-8.42-3.488-17.933 1.291-20.267 10.102z" fill="#ff7a3c"/><path d="m124.137 297.636c-2.786 3.381-4.272 6.931-4.272 10.594 0 11.395 1.486 22.442 4.272 32.96 2.334 8.811 11.847 13.59 20.268 10.102l35.252 15 35.252-44.204c6.173-2.557 9.26-8.208 9.26-13.858 0-1.816-3.087-3.632-9.26-4.454l-70.504-9.386c-8.421-1.121-17.934.414-20.268 3.246z" fill="#ff9a42"/><path d="m137.216 372.766c5.468 9.408 12.228 18.27 20.286 26.327l73.754-73.754c-3.996-3.996-10.174-5.809-16.347-3.252l-70.504 29.204c-8.421 3.489-11.769 13.594-7.189 21.475z" fill="#ff7a3c"/><path d="m153.032 388.582c.421 4.36 1.88 7.922 4.47 10.512 8.057 8.057 16.92 14.818 26.327 20.286 7.881 4.58 17.986 1.233 21.474-7.189l35.533-14.32-6.33-56.183c2.557-6.173.744-12.351-3.252-16.347-1.284-1.284-4.751-.386-9.697 3.398l-56.491 43.217c-6.746 5.16-12.387 12.973-12.034 16.626z" fill="#ff9a42"/><path d="m215.405 432.458c10.518 2.786 21.565 4.272 32.96 4.272v-104.303c-5.651 0-11.301 3.087-13.858 9.26l-29.204 70.504c-3.488 8.42 1.291 17.933 10.102 20.267z" fill="#ff7a3c"/><path d="m237.771 432.458c3.381 2.786 6.931 4.272 10.594 4.272 11.395 0 22.442-1.486 32.96-4.272 8.811-2.334 13.59-11.847 10.102-20.268l15-35.252-44.204-35.252c-2.557-6.173-8.208-9.26-13.858-9.26-1.816 0-3.632 3.087-4.454 9.26l-9.386 70.504c-1.121 8.421.414 17.934 3.246 20.268z" fill="#ff9a42"/><path d="m312.901 419.379c9.408-5.468 18.27-12.228 26.327-20.286l-73.754-73.754c-3.996 3.996-5.809 10.174-3.252 16.347l29.204 70.504c3.489 8.421 13.594 11.769 21.475 7.189z" fill="#ff7a3c"/><path d="m328.717 403.563c4.36-.421 7.922-1.88 10.512-4.47 8.057-8.057 14.818-16.92 20.286-26.327 4.58-7.881 1.233-17.986-7.189-21.474l-14.32-35.533-56.183 6.33c-6.173-2.557-12.351-.744-16.347 3.252-1.284 1.284-.386 4.751 3.398 9.697l43.217 56.491c5.16 6.746 12.973 12.387 16.626 12.034z" fill="#ff9a42"/><path d="m372.593 341.19c2.786-10.518 4.272-21.565 4.272-32.96h-104.303c0 5.651 3.087 11.301 9.26 13.858l70.504 29.204c8.42 3.488 17.933-1.291 20.267-10.102z" fill="#ff7a3c"/><path d="m372.593 318.824c2.786-3.381 4.272-6.931 4.272-10.594 0-11.395-1.486-22.442-4.272-32.96-2.334-8.811-11.847-13.59-20.268-10.102l-35.252-15-35.252 44.204c-6.173 2.557-9.26 8.208-9.26 13.858 0 1.816 3.087 3.632 9.26 4.454l70.504 9.386c8.421 1.121 17.934-.414 20.268-3.246z" fill="#ff9a42"/><path d="m359.514 243.694c-5.468-9.408-12.228-18.27-20.286-26.327l-73.754 73.754c3.996 3.996 10.174 5.809 16.347 3.252l70.504-29.204c8.421-3.489 11.769-13.594 7.189-21.475z" fill="#ff7a3c"/><path d="m343.698 227.878c-.421-4.36-1.88-7.922-4.47-10.512-8.057-8.057-16.92-14.818-26.327-20.286-7.881-4.58-17.986-1.233-21.474 7.189l-29.204 70.504c-2.557 6.173-.744 12.351 3.252 16.347 1.284 1.284 4.751.386 9.697-3.398l56.491-43.217c6.747-5.161 12.388-12.974 12.035-16.627z" fill="#ff9a42"/></g></svg>