<svg height="472pt" viewBox="-60 0 472 472.0399" width="472pt" xmlns="http://www.w3.org/2000/svg"><path d="m176.019531 256.039062-175.9999998-192h351.9999998zm0 0" fill="#aae1f9"/><path d="m249.941406 144.039062c-15.222656 16.488282-36.667968 25.824219-59.105468 25.734376-22.441407-.09375-43.808594-9.601563-58.894532-26.214844l-72-79.4375h-59.9218748l175.9999998 191.917968 176-192h-28.320312zm0 0" fill="#57b7eb"/><path d="m176.019531 104.039062c-48.070312-7.988281-96.929687-10.164062-145.519531-6.480468l145.519531 158.480468 132.320313-144.71875c-44.238282 2.417969-88.613282-.023437-132.320313-7.28125zm0 0" fill="#f89c8d"/><path d="m249.941406 144.039062c-15.222656 16.488282-36.667968 25.824219-59.105468 25.734376-22.441407-.09375-43.808594-9.601563-58.894532-26.214844l-43.203125-47.519532c-19.4375-.398437-38.878906 0-58.238281 1.601563l145.519531 158.398437 132.320313-144.71875c-9.679688.480469-19.359375.800782-29.121094.800782zm0 0" fill="#f8664f"/><path d="m136.019531 208.039062c-2.003906-.023437-3.933593-.757812-5.441406-2.078124-1.578125-1.4375-2.515625-3.445313-2.609375-5.582032-.089844-2.132812.679688-4.214844 2.132812-5.777344l176-192c3.003907-3.269531 8.089844-3.484374 11.359376-.480468 3.269531 3.003906 3.484374 8.089844.480468 11.359375l-176 192c-1.527344 1.644531-3.675781 2.574219-5.921875 2.558593zm0 0" fill="#f9e109"/><path d="m208.019531 160.039062c0 17.675782-14.328125 32-32 32s-32-14.324218-32-32c0-17.671874 14.328125-32 32-32s32 14.328126 32 32zm0 0" fill="#c4f236"/><path d="m192.019531 176.039062c-17.671875 0-32-14.324218-32-32-.003906-4.53125.980469-9.007812 2.878907-13.121093-13.046876 5.804687-20.671876 19.546875-18.6875 33.691406 1.984374 14.140625 13.097656 25.253906 27.242187 27.242187 14.140625 1.984376 27.886719-5.644531 33.6875-18.691406-4.113281 1.902344-8.589844 2.882813-13.121094 2.878906zm0 0" fill="#a1d51c"/><path d="m184.019531 160.039062c0 4.417969-3.582031 8-8 8s-8-3.582031-8-8c0-4.417968 3.582031-8 8-8s8 3.582032 8 8zm0 0" fill="#7ab92d"/><path d="m272.019531 472.039062-80-53.359374v-180.160157h-32v180.160157l-80 53.359374zm0 0" fill="#aae1f9"/><path d="m200.820312 461.800781c-14.523437-3.355469-24.808593-16.292969-24.800781-31.199219v-120c.027344-14.464843 5.78125-28.328124 16-38.5625v-33.519531h-32v180.160157l-80 53.359374h165.359375zm0 0" fill="#57b7eb"/></svg>