<svg id="icons" enable-background="new 0 0 64 64" height="512" viewBox="0 0 64 64" width="512" xmlns="http://www.w3.org/2000/svg"><path d="m54.005.993h-44.01c-3.3 0-6 2.71-6 6v4.01 42c0 3.301 2.7 6 6 6h44.01c3.3 0 6-2.699 6-6v-42-4.01c0-3.29-2.7-6-6-6z" fill="#434a54"/><path d="m60.005 53.008v4c0 3.299-2.7 6-6 6h-44.01c-3.3 0-6-2.701-6-6v-4c0 3.299 2.7 6 6 6h44.01c3.3 0 6-2.701 6-6z" fill="#545c66"/><path d="m55.995 41.008c0 6.08-4.92 11-11 11-6.07 0-11-4.92-11-11s4.93-11 11-11c6.08-.001 11 4.92 11 11z" fill="#965353"/><path d="m44.995 27.007c6.08 0 11-4.93 11-11v3c0 6.07-4.92 11-11 11-6.07 0-11-4.93-11-11v-3c0 6.071 4.93 11 11 11z" fill="#844747"/><path d="m44.995 52.008c6.08 0 11-4.92 11-11v3c0 6.07-4.92 11-11 11-6.07 0-11-4.93-11-11v-3c0 6.08 4.93 11 11 11z" fill="#844747"/><path d="m29.985 41.008c0 6.08-4.92 11-11 11-6.07 0-11-4.92-11-11s4.93-11 11-11c6.08-.001 11 4.92 11 11z" fill="#965353"/><path d="m18.985 52.008c6.08 0 11-4.92 11-11v3c0 6.07-4.92 11-11 11-6.07 0-11-4.93-11-11v-3c0 6.08 4.93 11 11 11z" fill="#844747"/><path d="m29.985 19.007c0 6.07-4.92 11-11 11-6.07 0-11-4.93-11-11v-3c0 6.07 4.93 11 11 11 6.08 0 11-4.93 11-11z" fill="#844747"/><path d="m55.995 16.007c0 6.07-4.92 11-11 11-6.07 0-11-4.93-11-11 0-6.08 4.93-11 11-11 6.08 0 11 4.92 11 11z" fill="#965353"/><path d="m29.985 16.007c0 6.07-4.92 11-11 11-6.07 0-11-4.93-11-11 0-6.08 4.93-11 11-11 6.08 0 11 4.92 11 11z" fill="#965353"/><g fill="#844747"><path d="m19.018 17.002c-.553 0-1.005-.447-1.005-1s.442-1 .994-1h.011c.552 0 1 .447 1 1s-.449 1-1 1z"/><path d="m15.014 21.006c-.553 0-1.005-.447-1.005-1s.442-1 .994-1h.011c.552 0 1 .447 1 1s-.449 1-1 1z"/><path d="m23.021 21.006c-.553 0-1.005-.447-1.005-1s.442-1 .994-1h.011c.552 0 1 .447 1 1s-.448 1-1 1z"/><path d="m23.021 12.999c-.553 0-1.005-.447-1.005-1s.442-1 .994-1h.011c.552 0 1 .447 1 1s-.448 1-1 1z"/><path d="m15.014 12.999c-.553 0-1.005-.447-1.005-1s.442-1 .994-1h.011c.552 0 1 .447 1 1s-.449 1-1 1z"/><path d="m19.018 42.002c-.553 0-1.005-.447-1.005-1s.442-1 .994-1h.011c.552 0 1 .447 1 1s-.449 1-1 1z"/><path d="m15.014 46.006c-.553 0-1.005-.447-1.005-1s.442-1 .994-1h.011c.552 0 1 .447 1 1s-.449 1-1 1z"/><path d="m23.021 46.006c-.553 0-1.005-.447-1.005-1s.442-1 .994-1h.011c.552 0 1 .447 1 1s-.448 1-1 1z"/><path d="m23.021 38c-.553 0-1.005-.447-1.005-1s.442-1 .994-1h.011c.552 0 1 .447 1 1s-.448 1-1 1z"/><path d="m15.014 38c-.553 0-1.005-.447-1.005-1s.442-1 .994-1h.011c.552 0 1 .447 1 1s-.449 1-1 1z"/><path d="m45.029 17.002c-.553 0-1.005-.447-1.005-1s.442-1 .994-1h.011c.552 0 1 .447 1 1s-.448 1-1 1z"/><path d="m41.025 21.006c-.553 0-1.005-.447-1.005-1s.442-1 .994-1h.011c.552 0 1 .447 1 1s-.448 1-1 1z"/><path d="m49.033 21.006c-.553 0-1.005-.447-1.005-1s.442-1 .994-1h.011c.552 0 1 .447 1 1s-.448 1-1 1z"/><path d="m49.033 12.999c-.553 0-1.005-.447-1.005-1s.442-1 .994-1h.011c.552 0 1 .447 1 1s-.448 1-1 1z"/><path d="m41.025 12.999c-.553 0-1.005-.447-1.005-1s.442-1 .994-1h.011c.552 0 1 .447 1 1s-.448 1-1 1z"/><path d="m45.029 42.002c-.553 0-1.005-.447-1.005-1s.442-1 .994-1h.011c.552 0 1 .447 1 1s-.448 1-1 1z"/><path d="m41.025 46.006c-.553 0-1.005-.447-1.005-1s.442-1 .994-1h.011c.552 0 1 .447 1 1s-.448 1-1 1z"/><path d="m49.033 46.006c-.553 0-1.005-.447-1.005-1s.442-1 .994-1h.011c.552 0 1 .447 1 1s-.448 1-1 1z"/><path d="m49.033 38c-.553 0-1.005-.447-1.005-1s.442-1 .994-1h.011c.552 0 1 .447 1 1s-.448 1-1 1z"/><path d="m41.025 38c-.553 0-1.005-.447-1.005-1s.442-1 .994-1h.011c.552 0 1 .447 1 1s-.448 1-1 1z"/></g></svg>