<svg height="512pt" viewBox="-37 0 512 512" width="512pt" xmlns="http://www.w3.org/2000/svg"><path d="m285.863281 346.78125-56.085937-67.800781c-5.832032-7.050781-9.027344-15.914063-9.027344-25.066407v-60.65625h-139.609375v60.65625c0 9.152344-3.191406 18.015626-9.027344 25.066407l-56.085937 67.800781c-17.816406 21.535156-21.074219 51.617188-8.289063 76.46875l26.175781 50.867188c11.972657 23.261718 35.941407 37.882812 62.101563 37.882812h109.859375c26.164062 0 50.128906-14.621094 62.101562-37.882812l26.175782-50.867188c12.785156-24.851562 9.527344-54.933594-8.289063-76.46875zm0 0" fill="#b49cdc"/><path d="m205.875 512c10.175781 0 20.015625-2.222656 28.949219-6.292969-184.082031-40.050781-112.363281-168.925781-102.175781-312.449219h-51.507813v60.65625c0 9.152344-3.191406 18.015626-9.027344 25.066407l-56.085937 67.800781c-17.816406 21.535156-21.074219 51.617188-8.285156 76.46875l26.175781 50.867188c11.96875 23.261718 35.9375 37.882812 62.097656 37.882812zm0 0" fill="#908cd6"/><path d="m227.386719 193.257812h-152.882813c-12.765625 0-23.117187-10.351562-23.117187-23.117187v-12.261719c0-22.308594 18.085937-40.394531 40.394531-40.394531h118.332031c22.308594 0 40.394531 18.085937 40.394531 40.394531v12.261719c-.003906 12.765625-10.351562 23.117187-23.121093 23.117187zm0 0" fill="#f7ef87"/><path d="m147.492188 117.484375h-55.710938c-22.308594 0-40.394531 18.085937-40.394531 40.394531v12.261719c0 12.765625 10.351562 23.117187 23.117187 23.117187h86.035156c-25.410156-19.867187-22.019531-59.90625-13.046874-75.773437zm0 0" fill="#efd176"/><path d="m228.507812 342.96875c11.660157 14.097656-5.03125 28.855469-36.453124 23.402344-9.21875-1.597656-21.058594-5.992188-33.886719-10.816406-31.886719-11.980469-69.894531-26.597657-88.992188-7.5l-20.96875 25.34375c-7.171875 8.671874-8.476562 20.738281-3.328125 30.742187l26.175782 50.867187c4.832031 9.390626 14.394531 15.226563 24.960937 15.226563h109.863281c10.5625 0 20.128906-5.835937 24.960938-15.226563l26.175781-50.867187c5.148437-10.003906 3.839844-22.074219-3.332031-30.742187zm0 0" fill="#f7ef87"/><path d="m96.015625 470.234375h54.761719c-39.496094-31.554687-43.953125-76.648437-38.429688-129.417969-17.253906-3.542968-32.933594-3-43.171875 7.238282l-20.96875 25.347656c-7.171875 8.667968-8.476562 20.734375-3.328125 30.738281l26.175782 50.867187c4.832031 9.394532 14.394531 15.226563 24.960937 15.226563zm0 0" fill="#efd176"/><path d="m228.507812 342.96875c11.660157 14.097656-5.03125 28.855469-36.453124 23.402344-9.21875-1.597656-21.058594-5.992188-33.886719-10.816406 19.292969-18.5625 54.84375-31.320313 70.339843-12.585938zm0 0" fill="#efd176"/><path d="m112.71875 312.222656c0-9.832031-10.011719-17.800781-22.355469-17.800781-12.347656 0-22.355469 7.96875-22.355469 17.800781 0 9.832032 10.007813 17.804688 22.355469 17.804688 12.34375 0 22.355469-7.972656 22.355469-17.804688zm0 0" fill="#fff"/><path d="m233.882812 312.222656c0-9.832031-10.007812-17.800781-22.355468-17.800781-12.34375 0-22.351563 7.96875-22.351563 17.800781 0 9.832032 10.007813 17.804688 22.351563 17.804688 12.347656 0 22.355468-7.972656 22.355468-17.804688zm0 0" fill="#fff"/><g fill="#4e5660"><path d="m103.390625 301.964844c-4.140625 0-7.5-3.355469-7.5-7.5v-7.894532c0-4.140624 3.359375-7.5 7.5-7.5s7.5 3.359376 7.5 7.5v7.894532c0 4.140625-3.359375 7.5-7.5 7.5zm0 0"/><path d="m198.5 301.964844c-4.140625 0-7.5-3.355469-7.5-7.5v-7.894532c0-4.140624 3.359375-7.5 7.5-7.5 4.144531 0 7.5 3.359376 7.5 7.5v7.894532c0 4.140625-3.355469 7.5-7.5 7.5zm0 0"/><path d="m150.945312 308.027344c-6.972656 0-13.601562-3.019532-18.191406-8.285156-2.722656-3.121094-2.394531-7.859376.726563-10.582032 3.121093-2.71875 7.859375-2.394531 10.582031.726563 1.738281 1.996093 4.25 3.140625 6.882812 3.140625 2.636719 0 5.148438-1.144532 6.886719-3.140625 2.722657-3.121094 7.457031-3.445313 10.582031-.726563 3.121094 2.722656 3.445313 7.460938.726563 10.582032-4.589844 5.265624-11.222656 8.285156-18.195313 8.285156zm0 0"/><path d="m189.757812 47.953125h-77.621093c-9.703125 0-17.566407 7.863281-17.566407 17.566406v51.964844h112.75v-51.964844c.003907-9.703125-7.863281-17.566406-17.5625-17.566406zm0 0"/></g><path d="m438.738281 82.71875c0-24.824219-17.265625-45.609375-40.441406-51.023438-3.132813-.734374-5.707031-2.882812-7.066406-5.800781-7.136719-15.292969-22.644531-25.894531-40.632813-25.894531-24.753906 0-44.824218 20.070312-44.824218 44.824219 0 1.078125.039062 2.148437.117187 3.207031.199219 2.730469-1.394531 5.265625-3.929687 6.296875l-57.289063 23.300781c-4.5625 1.859375-4.5625 8.320313 0 10.179688l57.289063 23.300781c2.535156 1.03125 4.128906 3.566406 3.929687 6.292969-.078125 1.0625-.117187 2.128906-.117187 3.210937 0 24.753907 20.070312 44.824219 44.824218 44.824219 17.988282 0 33.496094-10.601562 40.632813-25.894531 1.359375-2.917969 3.933593-5.066407 7.066406-5.800781 23.175781-5.414063 40.441406-26.195313 40.441406-51.023438zm0 0" fill="#f7ef87"/><path d="m350.597656 165.4375c16.984375 0 31.75-9.449219 39.351563-23.375-45.4375-11.945312-43.425781-47.492188-34.246094-63.992188 1.5-2.699218.246094-6.054687-2.617187-7.214843-24.835938-10.066407-30.191407-48.820313-13.242188-69.546875-19.5625 4.816406-34.070312 22.46875-34.070312 43.515625 0 1.046875.035156 2.089843.109374 3.117187.195313 2.753906-1.335937 5.332032-3.890624 6.371094l-57.320313 23.316406c-4.566406 1.859375-4.566406 8.320313 0 10.179688l57.320313 23.3125c2.554687 1.039062 4.085937 3.621094 3.890624 6.375-.074218 1.027344-.113281 2.066406-.113281 3.117187.003907 24.753907 20.070313 44.824219 44.828125 44.824219zm0 0" fill="#efd176"/><path d="m189.429688 82.71875c0 5.523438-4.480469 10-10 10-5.523438 0-10-4.476562-10-10s4.476562-10 10-10c5.519531 0 10 4.476562 10 10zm0 0" fill="#fff"/></svg>