<svg id="Capa_1" enable-background="new 0 0 510 510" height="512" viewBox="0 0 510 510" width="512" xmlns="http://www.w3.org/2000/svg" xmlns:xlink="http://www.w3.org/1999/xlink"><linearGradient id="lg1"><stop offset="0" stop-color="#ff7044"/><stop offset=".2346" stop-color="#fe653c"/><stop offset=".6509" stop-color="#fb4628"/><stop offset="1" stop-color="#f82814"/></linearGradient><linearGradient id="SVGID_1_" gradientUnits="userSpaceOnUse" x1="301.702" x2="322.43" xlink:href="#lg1" y1="39.914" y2="148.488"/><linearGradient id="SVGID_2_" gradientUnits="userSpaceOnUse" x1="49.886" x2="172.213" xlink:href="#lg1" y1="143.847" y2="143.847"/><linearGradient id="SVGID_3_" gradientUnits="userSpaceOnUse" x1="49.846" x2="469.114" xlink:href="#lg1" y1="317.536" y2="317.536"/><linearGradient id="SVGID_4_" gradientUnits="userSpaceOnUse" x1="381.649" x2="30.925" xlink:href="#lg1" y1="439.705" y2="88.981"/><linearGradient id="SVGID_5_" gradientTransform="matrix(.707 .707 -.707 .707 298.74 -95.105)" gradientUnits="userSpaceOnUse" x1="248.816" x2="281.923" xlink:href="#lg1" y1="231.899" y2="231.899"/><linearGradient id="SVGID_6_" gradientTransform="matrix(.707 .707 -.707 .707 298.74 -95.105)" gradientUnits="userSpaceOnUse" x1="248.816" x2="281.923" xlink:href="#lg1" y1="407.185" y2="407.185"/><linearGradient id="SVGID_7_" gradientTransform="matrix(-.707 .707 .707 .707 229.603 -95.105)" gradientUnits="userSpaceOnUse" x1="255.451" x2="288.559" xlink:href="#lg1" y1="225.264" y2="225.264"/><linearGradient id="SVGID_8_" gradientTransform="matrix(-.707 .707 .707 .707 229.603 -95.105)" gradientUnits="userSpaceOnUse" x1="255.451" x2="288.559" xlink:href="#lg1" y1="400.55" y2="400.55"/><linearGradient id="lg2"><stop offset="0" stop-color="#f82814" stop-opacity="0"/><stop offset=".1249" stop-color="#ed2819" stop-opacity=".125"/><stop offset=".4524" stop-color="#d42724" stop-opacity=".452"/><stop offset=".7531" stop-color="#c5272b" stop-opacity=".753"/><stop offset="1" stop-color="#c0272d"/></linearGradient><linearGradient id="SVGID_9_" gradientUnits="userSpaceOnUse" x1="259.48" x2="259.48" xlink:href="#lg2" y1="453.964" y2="508.01"/><linearGradient id="SVGID_10_" gradientUnits="userSpaceOnUse" x1="336.429" x2="-163.189" xlink:href="#lg2" y1="197.95" y2="-55.267"/><linearGradient id="SVGID_11_" gradientUnits="userSpaceOnUse" x1="103.707" x2="119.784" y1="55.24" y2="97.88"><stop offset="0" stop-color="#ffd945"/><stop offset=".3043" stop-color="#ffcd3e"/><stop offset=".8558" stop-color="#ffad2b"/><stop offset="1" stop-color="#ffa325"/></linearGradient><linearGradient id="lg3"><stop offset="0" stop-color="#f35227" stop-opacity="0"/><stop offset="1" stop-color="#f35227"/></linearGradient><linearGradient id="SVGID_12_" gradientUnits="userSpaceOnUse" x1="104.691" x2="120.943" xlink:href="#lg3" y1="46.206" y2="119.078"/><linearGradient id="SVGID_13_" gradientTransform="matrix(-1 0 0 1 -283.602 -30.476)" gradientUnits="userSpaceOnUse" x1="-399.824" x2="-386.6" xlink:href="#lg3" y1="81.992" y2="141.289"/><g><path d="m445.523 147.886h-268.648c-9.423 0-17.944-5.608-21.67-14.265-3.726-8.656-1.942-18.699 4.535-25.543l85.026-89.842c10.969-11.589 26.411-18.236 42.367-18.236h123.65c32.164 0 58.332 26.167 58.332 58.332v65.963c-.001 13.029-10.563 23.591-23.592 23.591zm-194.678-47.183h162.838c4.555 0 8.248-3.693 8.248-8.248v-34.123c0-6.157-4.991-11.149-11.149-11.149h-123.65c-3.063 0-5.992 1.26-8.097 3.485l-34.181 36.117c-4.975 5.259-1.248 13.918 5.991 13.918z" fill="url(#SVGID_1_)"/><path d="m49.885 88.769h122.327v110.157h-122.327z" fill="url(#SVGID_2_)"/><path d="m422.556 510h-326.153c-25.713 0-46.558-20.845-46.558-46.558v-338.371h419.269v338.371c0 25.713-20.844 46.558-46.558 46.558z" fill="url(#SVGID_3_)"/><path d="m364.719 469.173h-210.478c-33.319 0-60.33-27.01-60.33-60.33v-182.616c0-33.319 27.01-60.33 60.33-60.33h210.478c33.319 0 60.33 27.01 60.33 60.33v182.616c0 33.32-27.011 60.33-60.33 60.33z" fill="url(#SVGID_4_)"/><g><g><path d="m278.822 298.194c-8.804-8.804-8.804-23.077 0-31.881l53.382-53.382c8.804-8.804 23.077-8.804 31.881 0 8.804 8.804 8.804 23.077 0 31.881l-53.382 53.382c-8.804 8.803-23.078 8.803-31.881 0z" fill="url(#SVGID_5_)"/><path d="m154.876 422.14c-8.804-8.804-8.804-23.077 0-31.881l53.382-53.382c8.804-8.804 23.077-8.804 31.881 0 8.804 8.804 8.804 23.077 0 31.881l-53.382 53.382c-8.804 8.803-23.078 8.803-31.881 0z" fill="url(#SVGID_6_)"/></g><g><path d="m240.138 298.194c8.804-8.804 8.804-23.077 0-31.881l-53.382-53.382c-8.804-8.804-23.077-8.804-31.881 0-8.804 8.804-8.804 23.077 0 31.881l53.382 53.382c8.804 8.803 23.078 8.803 31.881 0z" fill="url(#SVGID_7_)"/><path d="m364.084 422.14c8.804-8.804 8.804-23.077 0-31.881l-53.382-53.382c-8.804-8.804-23.077-8.804-31.881 0-8.804 8.804-8.804 23.077 0 31.881l53.382 53.382c8.804 8.803 23.078 8.803 31.881 0z" fill="url(#SVGID_8_)"/></g></g><path d="m49.846 387.177v76.265c0 25.713 20.844 46.558 46.557 46.558h326.153c25.713 0 46.558-20.845 46.558-46.558v-76.265z" fill="url(#SVGID_9_)"/><path d="m469.11 58.333c0-32.169-26.16-58.329-58.329-58.329h-123.651c-15.948 0-31.393 6.648-42.36 18.234l-72.557 76.668v-6.134h-122.331v8.22l402.347 402.337c10.307-8.545 16.881-21.453 16.881-35.891v-338.367h-.01c0-.262.01-.514.01-.776zm-47.183 34.119c0 4.561-3.691 8.252-8.241 8.252h-162.845c-7.235 0-10.957-8.661-5.987-13.914l34.182-36.121c2.108-2.223 5.033-3.481 8.095-3.481h123.652c6.155 0 11.146 4.991 11.146 11.146v34.118z" fill="url(#SVGID_10_)"/><g><path d="m166.308 51.216h-110.518c-8.231 0-14.904 6.673-14.904 14.904v17.184c0 8.231 6.673 14.904 14.904 14.904h110.518c8.231 0 14.904-6.673 14.904-14.904v-17.183c0-8.232-6.673-14.905-14.904-14.905z" fill="url(#SVGID_11_)"/><path d="m147.486 51.216h-72.874c-6.87 0-12.44 5.569-12.44 12.44v22.113c0 6.87 5.569 12.44 12.44 12.44h72.873c6.87 0 12.44-5.569 12.44-12.44v-22.113c0-6.87-5.569-12.44-12.439-12.44z" fill="url(#SVGID_12_)"/><path d="m100.736 51.216h20.625c4.149 0 7.512 3.363 7.512 7.512v31.968c0 4.149-3.363 7.512-7.512 7.512h-20.625c-4.149 0-7.512-3.363-7.512-7.512v-31.967c0-4.149 3.363-7.513 7.512-7.513z" fill="url(#SVGID_13_)"/></g></g></svg>