<?xml version="1.0" encoding="iso-8859-1"?>
<!-- Generator: Adobe Illustrator 19.0.0, SVG Export Plug-In . SVG Version: 6.00 Build 0)  -->
<svg version="1.1" id="Capa_1" xmlns="http://www.w3.org/2000/svg" xmlns:xlink="http://www.w3.org/1999/xlink" x="0px" y="0px"
	 viewBox="0 0 468.293 468.293" style="enable-background:new 0 0 468.293 468.293;" xml:space="preserve">
<g>
	<path style="fill:#D5D6DB;" d="M359.024,468.293H109.268c-10.345,0-18.732-8.386-18.732-18.732V386.72h287.219v62.841
		C377.756,459.906,369.37,468.293,359.024,468.293z"/>
	<path style="fill:#D5D6DB;" d="M377.756,81.573H90.537V18.732C90.537,8.386,98.923,0,109.268,0h249.756
		c10.345,0,18.732,8.386,18.732,18.732V81.573z"/>
</g>
<g>
	<rect x="90.537" y="81.57" style="fill:#3A556A;" width="287.22" height="305.146"/>
	<path style="fill:#3A556A;" d="M268.488,65.762h-68.683c-5.173,0-9.366-4.193-9.366-9.366v0c0-5.173,4.193-9.366,9.366-9.366
		h68.683c5.173,0,9.366,4.193,9.366,9.366v0C277.854,61.569,273.66,65.762,268.488,65.762z"/>
	<circle style="fill:#3A556A;" cx="234.146" cy="25.175" r="9.366"/>
	<circle style="fill:#3A556A;" cx="234.146" cy="427.508" r="28.098"/>
</g>
<path style="fill:#D5D6DB;" d="M243.512,439.994H224.78c-1.724,0-3.122-1.398-3.122-3.122v-18.732c0-1.724,1.398-3.122,3.122-3.122
	h18.732c1.724,0,3.122,1.398,3.122,3.122v18.732C246.634,438.596,245.236,439.994,243.512,439.994z"/>
<g>
</g>
<g>
</g>
<g>
</g>
<g>
</g>
<g>
</g>
<g>
</g>
<g>
</g>
<g>
</g>
<g>
</g>
<g>
</g>
<g>
</g>
<g>
</g>
<g>
</g>
<g>
</g>
<g>
</g>
</svg>
