<svg id="Capa_1" enable-background="new 0 0 512 512" height="512" viewBox="0 0 512 512" width="512" xmlns="http://www.w3.org/2000/svg"><g><path d="m352.387 333.207c45.088 0 81.639-36.551 81.639-81.639 0-37.225-24.921-68.613-58.985-78.432-4.452-1.283-8.01-4.71-9.404-9.129-14.083-44.642-63.38-68.14-106.762-51.561-5.065 1.936-10.751.845-14.754-2.811-14.51-13.253-33.811-21.345-55.011-21.345-38.704 0-71.115 26.935-79.517 63.083-1.335 5.744-5.948 10.095-11.776 10.99-39.152 6.017-69.137 39.827-69.137 80.661 0 45.088 36.551 81.639 81.639 81.639z" fill="#fbf1cf"/><path d="m180.707 88.735c-34.922 3.573-63.329 29.142-71.115 62.638-1.335 5.744-5.948 10.095-11.776 10.99-39.151 6.016-69.136 39.827-69.136 80.661 0 45.088 36.551 81.639 81.639 81.639l120.98 4.27c-79.774-28.299-94.072-187.854-50.592-240.198z" fill="#f5e2a2"/><path d="m42.821 377.047c55.03-25.651 123.247 7.779 188.532 7.779s133.502-33.43 188.532-7.779c19.193-36.569 36.017-79.8 42.578-118.547 1.775-10.482-6.398-20.015-17.03-20.015h-428.16c-10.631 0-18.804 9.533-17.03 20.015 6.561 38.747 23.385 81.979 42.578 118.547z" fill="#e7889d"/><path d="m42.821 377.047c34.3-15.988 73.722-9.023 114.365-1.507-14.113-44.944-15.595-96.793-11.529-137.055h-128.384c-10.631 0-18.804 9.533-17.03 20.015 6.561 38.747 23.385 81.979 42.578 118.547z" fill="#e16e7e"/><path d="m231.353 384.827c-65.285 0-133.502-33.43-188.532-7.779 6.872 13.094 14.046 25.341 21.164 36.212 14.601 22.298 39.482 35.697 66.134 35.697h202.467c26.653 0 51.533-13.399 66.134-35.697 7.118-10.871 14.292-23.118 21.164-36.212-55.029-25.652-123.246 7.779-188.531 7.779z" fill="#f6ee86"/><path d="m474.511 450.806c-29.95 38.023-87.507 59.454-124.113 11.851-23.895-31.073-12.415-79.348 40.732-124.011 37.055-31.14 75.98-32.405 103.697-4.688 27.716 27.717 22.538 62.443-20.316 116.848z" fill="#f5e2a2"/><path d="m416.612 322.013c-8.488 4.004-17.034 9.533-25.482 16.633-53.147 44.663-64.626 92.938-40.732 124.011 26.497 34.456 63.967 32.739 94.003 14.746-66.431-19.601-51.554-120.103-27.789-155.39z" fill="#eed076"/><g><path d="m231.353 321.674c-4.142 0-7.5-3.358-7.5-7.5v-19.702c0-4.142 3.358-7.5 7.5-7.5s7.5 3.358 7.5 7.5v19.702c0 4.142-3.358 7.5-7.5 7.5z" fill="#f6ee86"/><g fill="#fff"><path d="m118.814 318.789c-1.92 0-3.839-.732-5.303-2.197l-13.931-13.931c-2.929-2.929-2.929-7.678 0-10.606 2.929-2.929 7.678-2.929 10.606 0l13.931 13.932c2.929 2.929 2.929 7.678 0 10.607-1.464 1.463-3.384 2.195-5.303 2.195z"/><path d="m343.892 318.789c-1.919 0-3.839-.732-5.303-2.197-2.929-2.929-2.929-7.678 0-10.607l13.932-13.932c2.929-2.929 7.678-2.929 10.606 0 2.929 2.929 2.929 7.678 0 10.606l-13.932 13.932c-1.465 1.466-3.384 2.198-5.303 2.198z"/></g></g><path d="m157.188 375.54c-40.643-7.516-80.066-14.481-114.367 1.507 6.872 13.094 14.046 25.341 21.164 36.212 14.601 22.298 39.482 35.697 66.134 35.697h72.079c-21.536-18.28-35.903-44.409-45.01-73.416z" fill="#eed076"/><g><path d="m277.98 22.521c8.442.94 15.139 7.637 16.079 16.079 1.799 16.167.266 44.299-24.592 69.158-24.715 24.715-52.667 26.373-68.877 24.623-8.655-.935-15.456-7.735-16.39-16.39-1.75-16.21-.092-44.162 24.623-68.877 24.857-24.858 52.99-26.392 69.157-24.593z" fill="#88d37f"/><g fill="#5ec682"><path d="m220.819 36.982c-4.041 2.846-8.06 6.194-11.997 10.131-24.715 24.715-26.373 52.667-24.623 68.877.935 8.655 7.735 15.456 16.39 16.39 14.145 1.527 37.231.455 59.305-16.264-43.234-12.092-45.399-54.957-39.075-79.134z"/><path d="m229.444 94.636c-1.919 0-3.839-.732-5.303-2.197-2.929-2.929-2.929-7.678 0-10.607l19.444-19.444c2.929-2.929 7.678-2.929 10.606 0 2.929 2.929 2.929 7.678 0 10.606l-19.444 19.446c-1.464 1.464-3.384 2.196-5.303 2.196z"/></g></g><g><path d="m91.839 57.624c.94-8.442 7.637-15.139 16.079-16.079 16.167-1.799 44.3-.266 69.158 24.592 24.715 24.715 26.373 52.666 24.623 68.877-.934 8.655-7.735 15.456-16.39 16.39-16.21 1.75-44.162.092-68.877-24.623-24.859-24.857-26.392-52.99-24.593-69.157z" fill="#88d37f"/><path d="m156.454 113.66c-1.919 0-3.839-.732-5.303-2.197l-19.445-19.443c-2.929-2.929-2.929-7.678 0-10.606 2.929-2.929 7.678-2.929 10.606 0l19.444 19.444c2.929 2.929 2.929 7.677 0 10.606-1.463 1.464-3.383 2.196-5.302 2.196z" fill="#5ec682"/></g><g><circle cx="378.584" cy="423.199" fill="#f5e2a2" r="7.369"/><g fill="#eed076"><ellipse cx="439.335" cy="439.692" rx="7.369" ry="7.369" transform="matrix(.973 -.231 .231 .973 -89.512 113.095)"/><ellipse cx="470.075" cy="385.966" rx="7.369" ry="7.369" transform="matrix(.971 -.238 .238 .971 -78.235 122.723)"/><circle cx="412.516" cy="371.227" r="7.369"/></g></g></g></svg>