<svg height="512pt" viewBox="0 0 512.00125 512" width="512pt" xmlns="http://www.w3.org/2000/svg"><path d="m127.0625 384.984375-.011719-.242187v-1.800782l-60.898437-.902344-53.101563 53.101563c-17.402343 17.699219-17.402343 46.199219 0 63.601563.046875.046874.105469.054687.152344.101562 17.703125 17.566406 46.09375 17.554688 63.746094-.101562l52.800781-52.800782zm0 0" fill="#64e1dc"/><path d="m76.953125 498.742188 52.796875-52.800782-2.6875-60.957031-113.859375 113.859375c17.703125 17.566406 46.09375 17.554688 63.75-.101562zm0 0" fill="#00c8c8"/><path d="m168.75 343.34375-.003906-.042969-.296875-3.558593h-59.699219l-42.597656 42.300781 31.800781 31.796875.125.128906 31.671875 31.972656 42.601562-42.597656zm0 0" fill="#00c8c8"/><path d="m172.351562 403.34375-3.601562-60-.003906-.042969-70.667969 70.667969 31.671875 31.972656zm0 0" fill="#1cadb5"/><path d="m269.527344 242.476562-.023438-.023437-32.078125-31.777344-128.675781 129.066407 63.601562 63.601562 128.976563-129.066406zm0 0" fill="#64e1dc"/><path d="m301.328125 274.277344-31.824219-31.824219-128.976562 129.066406 31.824218 31.824219zm0 0" fill="#00c8c8"/><path d="m306.125 205.875-.019531-.019531-53.082031-53.078125c-29.089844 29.089844-29.09375 76.777344-.015626 106.175781.007813.007813.011719.015625.015626.023437 29.402343 29.097657 76.800781 29.097657 106.203124 0zm0 0" fill="#895d3c"/><path d="m359.226562 258.976562-53.121093-53.121093-53.097657 53.097656c.007813.007813.011719.015625.015626.023437 29.402343 29.101563 76.800781 29.101563 106.203124 0zm0 0" fill="#523522"/><path d="m507.726562 216.375-106.199218-105.898438-.023438-.019531-105.878906-106.179687c-6-5.703125-15.296875-5.703125-21.300781 0-2.996094 3-84.898438 84.898437-84.898438 84.898437-5.699219 5.699219-5.699219 15.300781 0 21.300781 1.5 1.5 53.699219 53.699219 105.898438 105.898438.046875.046875.085937.085938.128906.128906 51.554687 51.558594 103.074219 103.074219 106.070313 106.070313 6 5.703125 15.300781 5.703125 21.300781 0 3-3.296875 84.902343-84.898438 84.902343-84.898438 5.699219-6 5.699219-15.300781 0-21.300781zm0 0" fill="#64e1dc"/><path d="m401.527344 322.574219c6 5.703125 15.296875 5.703125 21.300781 0 2.996094-3.296875 84.898437-84.898438 84.898437-84.898438 5.699219-6 5.699219-15.300781 0-21.300781l-106.199218-105.898438-.023438-.019531-106.050781 106.046875c51.554687 51.558594 103.074219 103.074219 106.074219 106.070313zm0 0" fill="#00c8c8"/><path d="m337.90625 174.054688-95.378906-95.378907-21.300782 21 95.527344 95.53125 95.570313 95.570313 21-21.300782-95.398438-95.398437zm0 0" fill="#e0f4ff"/><path d="m380.527344 131.476562-.023438-.019531-95.679687-95.382812-20.996094 21.300781 95.378906 95.378906 95.417969 95.421875 21.300781-21.300781zm0 0" fill="#e0f4ff"/><g fill="#bbdcff"><path d="m433.324219 269.476562-95.398438-95.398437-.019531-.023437-21.152344 21.152343 95.570313 95.570313zm0 0"/><path d="m475.925781 226.875-95.398437-95.398438-.023438-.019531-21.296875 21.296875 95.417969 95.421875zm0 0"/></g></svg>