<svg height="512" viewBox="0 0 512 512" width="512" xmlns="http://www.w3.org/2000/svg"><g id="Flat"><path d="m232 248-111.43147 111.43147a56.5685 56.5685 0 0 0 -16.56853 40v.00008a56.56848 56.56848 0 0 0 56.56849 56.56845h.00008a56.5685 56.5685 0 0 0 40-16.56853l87.43143-87.43147 24 24-85.49036 85.49036a90.50956 90.50956 0 0 1 -63.99993 26.50964h-.00013a90.50958 90.50958 0 0 1 -90.50958-90.50958v-.00013a90.50956 90.50956 0 0 1 26.50964-63.99993l109.49036-109.49036z" fill="#bc8d5d"/><path d="m272 208 87.43147-87.43147a56.5685 56.5685 0 0 1 40-16.56853h.00008a56.56848 56.56848 0 0 1 56.56845 56.56849v.00008a56.5685 56.5685 0 0 1 -16.56853 40l-87.43147 87.43143 24 24 85.49036-85.49036a90.50956 90.50956 0 0 0 26.50964-63.99993v-.00013a90.50958 90.50958 0 0 0 -90.50958-90.50958h-.00013a90.50956 90.50956 0 0 0 -63.99993 26.50964l-85.49036 85.49036z" fill="#bc8d5d"/><path d="m208 224-111.43147 111.43147a56.5685 56.5685 0 0 0 -16.56853 40v.00008a56.56848 56.56848 0 0 0 56.56849 56.56845h.00008a56.5685 56.5685 0 0 0 40-16.56853l87.43143-87.43147 24 24-85.49036 85.49036a90.50956 90.50956 0 0 1 -63.99993 26.50964h-.00013a90.50958 90.50958 0 0 1 -90.50958-90.50958v-.00013a90.50956 90.50956 0 0 1 26.50964-63.99993l109.49036-109.49036z" fill="#a1764a"/><path d="m248 184 87.43147-87.43147a56.5685 56.5685 0 0 1 40-16.56853h.00008a56.56848 56.56848 0 0 1 56.56845 56.56849v.00008a56.5685 56.5685 0 0 1 -16.56853 40l-87.43147 87.43143 24 24 85.49036-85.49036a90.50956 90.50956 0 0 0 26.50964-63.99993v-.00013a90.50958 90.50958 0 0 0 -90.50958-90.50958h-.00013a90.50956 90.50956 0 0 0 -63.99993 26.50964l-85.49036 85.49036z" fill="#a1764a"/><path d="m184 200-111.43147 111.43147a56.5685 56.5685 0 0 0 -16.56853 40v.00008a56.56848 56.56848 0 0 0 56.56849 56.56845h.00008a56.5685 56.5685 0 0 0 40-16.56853l87.43143-87.43147 24 24-85.49036 85.49036a90.50956 90.50956 0 0 1 -63.99993 26.50964h-.00013a90.50958 90.50958 0 0 1 -90.50958-90.50958v-.00013a90.50956 90.50956 0 0 1 26.50964-63.99993l109.49036-109.49036z" fill="#bc8d5d"/><path d="m224 160 87.43147-87.43147a56.5685 56.5685 0 0 1 40-16.56853h.00008a56.56848 56.56848 0 0 1 56.56845 56.56849v.00008a56.5685 56.5685 0 0 1 -16.56853 40l-87.43147 87.43143 24 24 85.49036-85.49036a90.50956 90.50956 0 0 0 26.50964-63.99993v-.00013a90.50958 90.50958 0 0 0 -90.50958-90.50958h-.00013a90.50956 90.50956 0 0 0 -63.99993 26.50964l-85.49036 85.49036z" fill="#bc8d5d"/><path d="m364.686 271.029h22.627v33.941h-22.627z" fill="#a1764a" transform="matrix(.707 -.707 .707 .707 -93.519 350.225)"/><path d="m316.686 223.029h22.627v33.941h-22.627z" fill="#a1764a" transform="matrix(.707 -.707 .707 .707 -73.637 302.225)"/><path d="m340.686 247.029h22.627v33.941h-22.627z" fill="#8c6231" transform="matrix(.707 -.707 .707 .707 -83.578 326.225)"/><path d="m260.686 167.029h22.627v33.941h-22.627z" fill="#a1764a" transform="matrix(.707 -.707 .707 .707 -50.441 246.225)"/><path d="m212.686 119.029h22.627v33.941h-22.627z" fill="#a1764a" transform="matrix(.707 -.707 .707 .707 -30.558 198.225)"/><path d="m236.686 143.029h22.627v33.941h-22.627z" fill="#8c6231" transform="matrix(.707 -.707 .707 .707 -40.5 222.225)"/><path d="m172.686 255.029h22.627v33.941h-22.627z" fill="#a1764a" transform="matrix(.707 -.707 .707 .707 -138.441 209.775)"/><path d="m124.686 207.029h22.627v33.941h-22.627z" fill="#a1764a" transform="matrix(.707 -.707 .707 .707 -118.558 161.775)"/><g fill="#8c6231"><path d="m148.686 231.029h22.627v33.941h-22.627z" transform="matrix(.707 -.707 .707 .707 -128.5 185.775)"/><path d="m252.686 383.029h22.627v33.941h-22.627z" transform="matrix(.707 -.707 .707 .707 -205.519 303.833)"/><path d="m204.686 335.029h22.627v33.941h-22.627z" transform="matrix(.707 -.707 .707 .707 -185.637 255.833)"/></g><path d="m228.686 359.029h22.627v33.941h-22.627z" fill="#7d572a" transform="matrix(.707 -.707 .707 .707 -195.578 279.833)"/><path d="m488 240v32h-15.42993a136.48239 136.48239 0 0 0 -74.47 22.1 134.14058 134.14058 0 0 0 -18.01 13.99c-1.39014 1.26-2.75 2.56994-4.09009 3.91l-24-24 8-8a136.61718 136.61718 0 0 1 96.57007-40z" fill="#a1764a"/><rect fill="#bc8d5d" height="305.47" rx="16.971" transform="matrix(.707 -.707 .707 .707 -82.039 265.941)" width="33.941" x="263.029" y="79.265"/><rect fill="#a1764a" height="305.47" rx="16.971" transform="matrix(.707 -.707 .707 .707 -106.039 256)" width="33.941" x="239.029" y="103.265"/><path d="m232 127.26494a16.97055 16.97055 0 0 1 16.97055 16.97055v271.529a16.97055 16.97055 0 0 1 -16.97055 16.97057 16.97055 16.97055 0 0 1 -16.97055-16.97055v-271.529a16.97054 16.97054 0 0 1 16.97055-16.97057z" fill="#bc8d5d" transform="matrix(.707 -.707 .707 .707 -130.039 246.059)"/><rect fill="#a1764a" height="135.765" rx="16.971" transform="matrix(.707 -.707 .707 .707 -175.578 288.118)" width="33.941" x="243.029" y="288.118"/><path d="m398.1001 294.1a134.14058 134.14058 0 0 0 -18.01 13.99l-24.0901-24.09 4-4a135.50775 135.50775 0 0 1 12.75-11.25z" fill="#8c6231"/></g></svg>