<svg height="512pt" viewBox="0 0 512 512" width="512pt" xmlns="http://www.w3.org/2000/svg"><path d="m500.601562 261.625c0 84.421875-41.773437 159.085938-105.769531 204.4375-15.386719 10.902344-36.011719-2.640625-32.242187-21.121094 3.320312-16.257812 5.058594-33.085937 5.058594-50.324218 0-138.546876-111.800782-250.382813-250.304688-250.378907-17.066406 0-33.738281 1.707031-49.84375 4.964844-18.601562 3.761719-32.121094-17.375-21.101562-32.828125 45.382812-63.636719 119.796874-105.132812 203.898437-105.132812 138.273437-.003907 250.308594 112.066406 250.304687 250.382812zm0 0" fill="#f58057"/><path d="m436.886719 292.765625c-35.859375 7.6875-71.160157-15.164063-78.847657-51.035156-3.527343-16.460938-.609374-32.800781 7.03125-46.410157-3.539062-4.964843-6.148437-10.710937-7.507812-17.050781-5.320312-24.835937 10.492188-49.28125 35.320312-54.605469 24.828126-5.320312 49.265626 10.496094 54.585938 35.332032.539062 2.5.847656 5 .96875 7.472656 19.4375 8.09375 34.722656 25.269531 39.46875 47.421875 7.683594 35.875-15.15625 71.183594-51.019531 78.875zm0 0" fill="#08b772"/><path d="m443.242188 276.757812c-24.4375 24.441407-64.058594 24.441407-88.496094 0-24.4375-24.445312-24.4375-64.078124 0-88.523437s64.058594-24.445313 88.496094 0 24.4375 64.078125 0 88.523437zm0 0" fill="#fff5f5"/><path d="m364.105469 272.578125c-17.457031-17.460937-17.457031-45.769531 0-63.230469 17.453125-17.460937 45.753906-17.460937 63.210937 0 17.453125 17.460938 17.453125 45.769532 0 63.230469-17.457031 17.460937-45.757812 17.460937-63.210937 0zm0 0" fill="#fdf061"/><path d="m424.503906 346.226562c-30.34375 6.507813-60.214844-12.824218-66.714844-43.179687-6.503906-30.351563 12.824219-60.234375 43.167969-66.738281s60.214844 12.828125 66.714844 43.183594c6.503906 30.351562-12.824219 60.230468-43.167969 66.734374zm0 0" fill="#08e092"/><path d="m470.089844 439.277344c.0625 19.511718-13.492188 37.078125-33.328125 41.332031-22.765625 4.878906-45.175781-9.625-50.054688-32.398437-1.8125-8.453126-.945312-16.859376 2.011719-24.335938-9.015625-9.316406-15.625-21.183594-18.542969-34.796875-8.296875-38.734375 16.363281-76.859375 55.082031-85.160156 38.722657-8.300781 76.835938 16.367187 85.132813 55.101562 7.1875 33.53125-10.34375 66.59375-40.300781 80.257813zm0 0" fill="#22b27f"/><path d="m315.6875 94.148438c0 31.042968-25.160156 56.207031-56.191406 56.207031s-56.191406-25.164063-56.191406-56.207031c0-31.042969 25.160156-56.207032 56.191406-56.207032s56.191406 25.164063 56.191406 56.207032zm0 0" fill="#08e092"/><path d="m234.804688 70.136719c0 38.734375-31.390626 70.136719-70.113282 70.136719-14.203125 0-27.410156-4.238282-38.453125-11.5-8.882812 9.875-21.757812 16.082031-36.082031 16.082031-26.808594 0-48.539062-21.738281-48.539062-48.554688 0-26.816406 21.730468-48.554687 48.539062-48.554687 2.679688 0 5.308594.226562 7.871094.644531 9.152344-28.085937 35.53125-48.390625 66.664062-48.390625 38.722656 0 70.113282 31.402344 70.113282 70.136719zm0 0" fill="#22b27f"/><path d="m191.8125 44.710938c-34.558594 0-62.574219 28.023437-62.574219 62.59375 0 34.570312 28.015625 62.59375 62.574219 62.59375s62.574219-28.023438 62.574219-62.59375c0-34.570313-28.015625-62.59375-62.574219-62.59375zm5.109375 107.304687c-24.6875 0-44.699219-20.019531-44.699219-44.710937 0-24.691407 20.011719-44.710938 44.699219-44.710938 24.683594 0 44.695313 20.019531 44.695313 44.710938 0 24.691406-20.011719 44.710937-44.695313 44.710937zm0 0" fill="#fdf7bd"/><path d="m306.746094 28.613281c-34.558594 0-62.574219 28.027344-62.574219 62.597657 0 34.566406 28.015625 62.59375 62.574219 62.59375 34.5625 0 62.578125-28.027344 62.578125-62.59375 0-34.570313-28.015625-62.597657-62.578125-62.597657zm5.109375 107.308594c-24.683594 0-44.695313-20.019531-44.695313-44.710937 0-24.695313 20.011719-44.710938 44.695313-44.710938 24.6875 0 44.695312 20.015625 44.695312 44.710938 0 24.691406-20.007812 44.710937-44.695312 44.710937zm0 0" fill="#fdf7bd"/><path d="m456.976562 390.003906c-24.4375 24.445313-64.058593 24.445313-88.492187 0-24.4375-24.445312-24.4375-64.078125 0-88.523437 24.433594-24.445313 64.054687-24.445313 88.492187 0 24.4375 24.445312 24.4375 64.078125 0 88.523437zm0 0" fill="#fff5f5"/><path d="m377.839844 385.828125c-17.453125-17.464844-17.453125-45.769531 0-63.230469 17.457031-17.460937 45.757812-17.464844 63.214844 0 17.453124 17.460938 17.453124 45.765625 0 63.230469-17.457032 17.457031-45.757813 17.457031-63.214844 0zm0 0" fill="#fdf061"/><path d="m387.203125 125.574219c0 28.21875-22.871094 51.097656-51.082031 51.097656-28.214844 0-51.085938-22.878906-51.085938-51.097656 0-28.222657 22.871094-51.097657 51.085938-51.097657 28.210937 0 51.082031 22.875 51.082031 51.097657zm0 0" fill="#08e092"/><path d="m372.574219 158.632812c19.738281 59.332032 30.972656 127.527344 30.972656 200.074219 0 37.054688-2.929687 72.972657-8.429687 107.15625-18.648438 13.253907-39.1875 24.015625-61.140626 31.804688-26.164062 9.28125-54.328124 13.308593-83.675781 13.308593-138.238281 0-249.277343-111.074218-249.277343-249.355468 0-29.359375 4.027343-57.539063 13.3125-83.71875 7.78125-21.945313 18.535156-42.484375 31.78125-61.132813 34.175781-5.5 70.082031-8.441406 107.128906-8.441406 72.523437 0 140.699218 11.238281 200.011718 30.980469 9.117188 3.035156 16.28125 10.203125 19.316407 19.324218zm0 0" fill="#f7c37d"/><path d="m371.664062 156.265625c-63.554687-13.261719-134.949218-17.003906-209.492187-9.027344-52.1875 5.589844-101.628906 16.480469-146.953125 31.5625-.550781.183594-1.074219-.34375-.886719-.890625 7.550781-22.058594 18.539063-42.507812 31.789063-61.15625 34.171875-5.5 70.082031-8.425781 107.125-8.425781 72.523437 0 140.699218 11.238281 200.011718 30.980469 8.3125 2.769531 14.988282 8.976562 18.40625 16.957031zm0 0" fill="#f5b65d"/><path d="m327.8125 199.464844c15.710938 47.222656 24.652344 101.5 24.652344 159.242187 0 49.644531-6.644532 96.71875-18.488282 138.960938-25.632812 9.351562-54.324218 14.332031-83.675781 14.332031-138.238281 0-250.300781-112.097656-250.300781-250.378906 0-29.359375 5.050781-57.542969 14.332031-83.71875 42.226563-11.847656 89.285157-18.476563 138.914063-18.476563 57.722656 0 111.984375 8.945313 159.195312 24.660157 7.253906 2.414062 12.957032 8.117187 15.371094 15.378906zm0 0" fill="#fdf7bd"/><path d="m60.277344 199.28125c0 8.464844-6.863282 15.328125-15.324219 15.328125-8.464844 0-15.324219-6.863281-15.324219-15.328125s6.859375-15.328125 15.324219-15.328125c8.460937 0 15.324219 6.863281 15.324219 15.328125zm45.972656 45.988281c-8.464844 0-15.324219 6.863281-15.324219 15.328125 0 8.46875 6.863281 15.332032 15.324219 15.332032 8.464844 0 15.324219-6.863282 15.324219-15.332032 0-8.464844-6.859375-15.328125-15.324219-15.328125zm194.113281 30.660157c8.460938 0 15.324219-6.863282 15.324219-15.332032 0-8.464844-6.863281-15.328125-15.324219-15.328125-8.464843 0-15.324219 6.863281-15.324219 15.328125 0 8.46875 6.859376 15.332032 15.324219 15.332032zm-102.164062-91.976563c-8.464844 0-15.324219 6.863281-15.324219 15.328125s6.859375 15.328125 15.324219 15.328125c8.460937 0 15.324219-6.863281 15.324219-15.328125s-6.863282-15.328125-15.324219-15.328125zm0 255.488281c-8.464844 0-15.324219 6.863282-15.324219 15.328125 0 8.46875 6.859375 15.332031 15.324219 15.332031 8.460937 0 15.324219-6.863281 15.324219-15.332031 0-8.464843-6.863282-15.328125-15.324219-15.328125zm51.082031 10.21875c-8.464844 0-15.324219 6.863282-15.324219 15.328125 0 8.46875 6.859375 15.332031 15.324219 15.332031 8.460938 0 15.324219-6.863281 15.324219-15.332031 0-8.464843-6.863281-15.328125-15.324219-15.328125zm-51.082031-153.292968c-8.464844 0-15.324219 6.863281-15.324219 15.328124 0 8.46875 6.859375 15.332032 15.324219 15.332032 8.460937 0 15.324219-6.863282 15.324219-15.332032 0-8.464843-6.863282-15.328124-15.324219-15.328124zm-112.382813 51.097656c-8.460937 0-15.324218 6.863281-15.324218 15.328125 0 8.46875 6.863281 15.332031 15.324218 15.332031 8.464844 0 15.324219-6.863281 15.324219-15.332031 0-8.464844-6.859375-15.328125-15.324219-15.328125zm163.464844-163.511719c-8.464844 0-15.324219 6.863281-15.324219 15.328125s6.859375 15.328125 15.324219 15.328125c8.460938 0 15.324219-6.863281 15.324219-15.328125s-6.863281-15.328125-15.324219-15.328125zm51.082031 173.730469c-8.464843 0-15.324219 6.863281-15.324219 15.332031 0 8.464844 6.859376 15.328125 15.324219 15.328125 8.460938 0 15.324219-6.863281 15.324219-15.328125 0-8.46875-6.863281-15.332031-15.324219-15.332031zm0 0" fill="#f5dc90"/></svg>