<?xml version="1.0" encoding="iso-8859-1"?>
<!-- Generator: Adobe Illustrator 19.0.0, SVG Export Plug-In . SVG Version: 6.00 Build 0)  -->
<svg version="1.1" id="Capa_1" xmlns="http://www.w3.org/2000/svg" xmlns:xlink="http://www.w3.org/1999/xlink" x="0px" y="0px"
	 viewBox="0 0 512 512" style="enable-background:new 0 0 512 512;" xml:space="preserve">
<path style="fill:#2C733F;" d="M351.934,344.288v122.123c0,0.578-0.01,1.145-0.031,1.713C351.006,492.508,330.946,512,306.346,512
	H205.654c-24.6,0-44.66-19.492-45.558-43.876c-0.021-0.568-0.031-1.135-0.031-1.713V344.288c0-19.234,3.632-38.345,10.742-56.65
	l26.86-69.136l12.145-31.245c7.11-18.326,10.742-37.437,10.742-56.661V90.888h70.89v39.707c0,19.224,3.632,38.334,10.742,56.661
	l12.145,31.245l26.86,69.136C348.302,305.943,351.934,325.054,351.934,344.288z"/>
<path style="fill:#368B4C;" d="M351.934,344.288v122.123c0,0.578-0.01,1.145-0.031,1.713C351.006,492.508,330.946,512,306.346,512
	h-70.663c-24.6,0-44.66-19.492-45.558-43.876c-0.021-0.568-0.031-1.135-0.031-1.713V344.288c0-19.234,3.632-38.345,10.742-56.65
	l20.514-52.801l6.346-16.335l12.145-31.245c7.11-18.326,10.742-37.437,10.742-56.661V90.888h40.863v39.707
	c0,19.224,3.632,38.334,10.742,56.661l12.145,31.245l26.86,69.136C348.302,305.943,351.934,325.054,351.934,344.288z"/>
<path style="fill:#FFE477;" d="M314.332,218.501c-15.014,14.777-35.621,23.878-58.332,23.878c-12.362,0-24.105-2.693-34.651-7.543
	c-8.833-4.045-16.851-9.607-23.682-16.335l12.145-31.245c7.11-18.326,10.742-37.437,10.742-56.661V90.888l71.138,0.155v39.707
	c0,19.224,3.632,38.334,10.742,56.661L314.332,218.501z"/>
<path style="fill:#FFCD00;" d="M351.934,353.946v112.465c0,0.578-0.01,1.145-0.031,1.713H160.097
	c-0.021-0.568-0.031-1.135-0.031-1.713V353.946H351.934z"/>
<path style="fill:#FFDA44;" d="M250.583,90.888v39.707c0,19.224-3.632,38.334-10.742,56.661l-12.145,31.245l-6.346,16.335
	c-8.833-4.045-16.851-9.607-23.682-16.335l12.145-31.245c7.11-18.326,10.742-37.437,10.742-56.661V90.888H250.583z"/>
<path style="fill:#DDB200;" d="M301.661,32.453v58.539c0,11.082-8.977,20.06-20.049,20.06h-51.223
	c-11.072,0-20.05-8.977-20.05-20.06V32.453C210.339,14.529,224.868,0,242.792,0h26.416C287.132,0,301.661,14.529,301.661,32.453z"/>
<path style="fill:#FFCD00;" d="M301.661,32.453v58.539c0,11.082-8.977,20.06-20.049,20.06h-29.553
	c-11.072,0-20.05-8.977-20.05-20.06V32.453C232.009,14.529,246.538,0,264.461,0h4.747C287.132,0,301.661,14.529,301.661,32.453z"/>
<path style="fill:#CCA400;" d="M190.094,466.411V353.946h-30.028v112.465c0,0.578,0.01,1.145,0.031,1.713h30.028
	C190.104,467.557,190.094,466.989,190.094,466.411z"/>
<g>
</g>
<g>
</g>
<g>
</g>
<g>
</g>
<g>
</g>
<g>
</g>
<g>
</g>
<g>
</g>
<g>
</g>
<g>
</g>
<g>
</g>
<g>
</g>
<g>
</g>
<g>
</g>
<g>
</g>
</svg>
