<svg height="512" viewBox="0 0 512 512" width="512" xmlns="http://www.w3.org/2000/svg"><g id="flat"><path d="m358.54 324.29a57.6 57.6 0 0 1 -21.9 23.65l-5.01 3.01a475.671 475.671 0 0 0 -108 88.75l-26.38 29.17c-.53.58-1.06 1.15-1.61 1.7a58.135 58.135 0 0 1 -80 2.86q-1.86-1.635-3.6-3.47a58.138 58.138 0 0 1 -5.34-73.7l108.34-152.95v-219.31h128v227.31l8.96 11.2a57.632 57.632 0 0 1 6.54 61.78z" fill="#c7463b"/><path d="m195.64 470.57a58.135 58.135 0 0 1 -80 2.86l3.14-3.47a53.508 53.508 0 0 1 66.87-6.05z" fill="#a83b32"/><path d="m215.04 80h56.96v128h-56.96z" fill="#ea9d2d"/><path d="m227.086 128.284h40v40h-40z" fill="#da922a" transform="matrix(.707 .707 -.707 .707 177.223 -131.285)"/><path d="m407.51 324.29a57.664 57.664 0 0 1 -21.9 23.65l-5.02 3.01a476.105 476.105 0 0 0 -108 88.75l-26.38 29.17a57.18 57.18 0 0 1 -5.48 5.32 58.141 58.141 0 0 1 -85.07-77.93l108.34-152.95v-35.31l8-8v-104l-8-8v-64h128v227.31l8.96 11.2a57.634 57.634 0 0 1 6.55 61.78z" fill="#dc4d41"/><path d="m264 88h128v120h-128z" fill="#fbb540"/><path d="m215.04 24h48.96v32h-48.96z" fill="#a83b32"/><path d="m215.04 56h48.96v32h-48.96z" fill="#5e8569"/><path d="m407.51 324.29a57.664 57.664 0 0 1 -21.9 23.65l-3.26-2.81c-30.27-26.13-25.3-74.4 9.65-93.82l8.96 11.2a57.634 57.634 0 0 1 6.55 61.78z" fill="#c7463b"/><path d="m264 24h128v32h-128z" fill="#dc4d41"/><path d="m279.716 128.284h40v40h-40z" fill="#ea9d2d" transform="matrix(.707 .707 -.707 .707 192.638 -168.5)"/><path d="m335.716 128.284h40v40h-40z" fill="#ea9d2d" transform="matrix(.707 .707 -.707 .707 209.04 -208.098)"/><path d="m264 56h128v32h-128z" fill="#6b9777"/><g fill="#c7463b"><path d="m288 288h16v16h-16z"/><path d="m288 320h16v16h-16z"/><path d="m272 304h16v16h-16z"/><path d="m304 304h16v16h-16z"/><path d="m224 360h16v16h-16z"/><path d="m224 392h16v16h-16z"/><path d="m208 376h16v16h-16z"/><path d="m240 376h16v16h-16z"/><path d="m240.73 474.19a58.158 58.158 0 0 1 -79.73-4.23 52.922 52.922 0 0 1 70.57-3.09z"/></g></g></svg>