<svg id="Capa_1" enable-background="new 0 0 512 512" height="512" viewBox="0 0 512 512" width="512" xmlns="http://www.w3.org/2000/svg"><path d="m256 0c-141.159 0-256 114.841-256 256s114.841 256 256 256 256-114.841 256-256-114.841-256-256-256zm0 432.734c-97.451 0-176.734-79.282-176.734-176.734s79.283-176.734 176.734-176.734 176.734 79.282 176.734 176.734-79.283 176.734-176.734 176.734z" fill="#00465f"/><path d="m512 256c0-140.009-112.982-254.106-252.56-255.956v79.266c95.869 1.841 173.293 80.389 173.293 176.69s-77.424 174.849-173.293 176.69v79.266c139.578-1.85 252.56-115.947 252.56-255.956z" fill="#002c3c"/><path d="m202.225 86.982c-3.169-7.654-11.943-11.289-19.598-8.118-7.654 3.17-11.288 11.945-8.118 19.598l49.188 118.749c2.274 5.49 10.064 12.069 19.598 8.118 7.654-3.17 11.288-11.945 8.118-19.598z" fill="#d7e3f0"/><path d="m288.303 294.789c-3.172-7.654-11.946-11.29-19.599-8.118-7.653 3.17-11.288 11.945-8.118 19.598l49.188 118.749c2.275 5.49 10.065 12.069 19.599 8.118 7.653-3.17 11.288-11.945 8.118-19.598z" fill="#bed2e6"/><path d="m286.67 243.295c2.289 5.526 10.09 12.056 19.599 8.118l118.749-49.188c7.653-3.17 11.288-11.945 8.118-19.599s-11.945-11.29-19.599-8.118l-118.749 49.188c-7.653 3.171-11.288 11.946-8.118 19.599z" fill="#bed2e6"/><path d="m225.33 268.705c-3.17-7.654-11.944-11.287-19.599-8.118l-118.749 49.187c-7.654 3.17-11.288 11.945-8.118 19.599 2.274 5.49 10.065 12.069 19.599 8.118l118.749-49.188c7.653-3.17 11.288-11.945 8.118-19.598z" fill="#d7e3f0"/><path d="m268.704 225.329c9.626 3.989 17.334-2.651 19.599-8.118l49.188-118.749c3.17-7.653-.465-16.428-8.118-19.598-7.652-3.17-16.429.463-19.599 8.118l-49.188 118.749c-3.17 7.653.465 16.428 8.118 19.598z" fill="#bed2e6"/><path d="m243.296 286.671c-7.655-3.171-16.428.464-19.598 8.118l-49.188 118.749c-3.17 7.653.464 16.428 8.118 19.598 9.626 3.988 17.328-2.636 19.598-8.118l49.188-118.749c3.17-7.653-.464-16.428-8.118-19.598z" fill="#d7e3f0"/><path d="m425.018 309.774-118.749-49.188c-7.651-3.17-16.429.464-19.599 8.118s.465 16.428 8.118 19.599l118.749 49.188c9.626 3.989 17.334-2.651 19.599-8.118 3.17-7.653-.465-16.428-8.118-19.599z" fill="#bed2e6"/><path d="m86.982 202.226 118.749 49.188c9.652 3.996 17.34-2.666 19.599-8.118 3.17-7.654-.464-16.428-8.118-19.599l-118.749-49.188c-7.653-3.171-16.428.464-19.599 8.118-3.17 7.653.465 16.428 8.118 19.599z" fill="#d7e3f0"/><path d="m256 64.267c-105.722 0-191.733 86.011-191.733 191.733s86.011 191.733 191.733 191.733 191.733-86.011 191.733-191.733-86.011-191.733-191.733-191.733zm0 353.466c-89.18 0-161.733-72.553-161.733-161.733s72.553-161.733 161.733-161.733 161.733 72.553 161.733 161.733-72.553 161.733-161.733 161.733z" fill="#f0f5fa"/><path d="m447.733 256c0-104.572-84.153-189.846-188.293-191.69v30c87.597 1.838 158.293 73.66 158.293 161.69s-70.696 159.852-158.293 161.69v30c104.14-1.844 188.293-87.118 188.293-191.69z" fill="#d7e3f0"/><circle cx="256" cy="256" fill="#f0f5fa" r="63.2"/><path d="m319.2 256c0-33.694-26.505-61.31-59.76-63.103v126.206c33.255-1.793 59.76-29.409 59.76-63.103z" fill="#d7e3f0"/></svg>