<?xml version="1.0" encoding="iso-8859-1"?>
<!-- Generator: Adobe Illustrator 19.0.0, SVG Export Plug-In . SVG Version: 6.00 Build 0)  -->
<svg version="1.1" id="Layer_1" xmlns="http://www.w3.org/2000/svg" xmlns:xlink="http://www.w3.org/1999/xlink" x="0px" y="0px"
	 viewBox="0 0 512 512" style="enable-background:new 0 0 512 512;" xml:space="preserve">
<g>
	<path style="fill:#807A72;" d="M322.487,117.791c-4.626,0-8.376-3.75-8.376-8.376v-67.01c0-4.626,3.75-8.376,8.376-8.376
		s8.376,3.75,8.376,8.376v67.01C330.863,114.041,327.112,117.791,322.487,117.791z"/>
	<path style="fill:#807A72;" d="M188.466,117.791c-4.626,0-8.376-3.75-8.376-8.376v-67.01c0-4.626,3.75-8.376,8.376-8.376
		c4.626,0,8.376,3.75,8.376,8.376v67.01C196.843,114.041,193.092,117.791,188.466,117.791z"/>
</g>
<path style="fill:#FF4A36;" d="M314.11,25.652H196.843c-9.253,0-16.753,7.5-16.753,16.753V75.91h150.773V42.405
	C330.863,33.152,323.363,25.652,314.11,25.652z"/>
<path style="fill:#FF9A8F;" d="M486.871,101.039H25.129C11.273,101.039,0,112.312,0,126.168v335.051
	c0,13.855,11.273,25.129,25.129,25.129h461.742c13.855,0,25.129-11.273,25.129-25.129V126.168
	C512,112.312,500.727,101.039,486.871,101.039z"/>
<path style="fill:#FF7161;" d="M25.129,461.219V126.168c0-13.855,11.273-25.129,25.129-25.129H25.129
	C11.273,101.039,0,112.312,0,126.168v335.051c0,13.855,11.273,25.129,25.129,25.129h25.129
	C36.402,486.348,25.129,475.074,25.129,461.219z"/>
<g>
	<path style="fill:#FF6C5C;" d="M512,126.168c0-13.855-11.273-25.129-25.129-25.129h-49.211L512,175.378V126.168z"/>
	<path style="fill:#FF6C5C;" d="M0,126.168c0-13.855,11.273-25.129,25.129-25.129h49.211L0,175.378V126.168z"/>
	<path style="fill:#FF6C5C;" d="M512,461.219c0,13.855-11.273,25.129-25.129,25.129h-49.211L512,412.008V461.219z"/>
	<path style="fill:#FF6C5C;" d="M0,461.219c0,13.855,11.273,25.129,25.129,25.129h49.211L0,412.008V461.219z"/>
</g>
<rect x="339.239" y="101.039" style="fill:#928D86;" width="67.01" height="385.309"/>
<path style="fill:#DBD9D7;" d="M397.873,302.07h-50.258c-4.626,0-8.376,3.75-8.376,8.376v67.01c0,4.626,3.75,8.376,8.376,8.376
	h50.258c4.626,0,8.376-3.75,8.376-8.376v-67.01C406.249,305.82,402.499,302.07,397.873,302.07z"/>
<rect x="104.703" y="101.039" style="fill:#928D86;" width="67.01" height="385.309"/>
<path style="fill:#DBD9D7;" d="M163.337,302.07H113.08c-4.626,0-8.376,3.75-8.376,8.376v67.01c0,4.626,3.75,8.376,8.376,8.376
	h50.258c4.626,0,8.376-3.75,8.376-8.376v-67.01C171.714,305.82,167.963,302.07,163.337,302.07z"/>
<circle style="fill:#FFDC73;" cx="238.724" cy="176.425" r="41.881"/>
<g>
	<path style="fill:#FFD042;" d="M512,235.059c-18.504,0-33.505,15.001-33.505,33.505S493.496,302.07,512,302.07V235.059z"/>
	<path style="fill:#FFD042;" d="M19.66,254.547l42.134-21.067c5.9-2.951,12.737,1.761,12.081,8.325l-5.267,52.667
		c-0.673,6.737-8.645,9.932-13.786,5.526l-36.867-31.601C13.406,264.5,14.301,257.225,19.66,254.547z"/>
</g>
<path style="fill:#FFDC73;" d="M246.495,422.926l47.803,10.623c5.607,1.246,10.776-3.393,10.143-9.102l-5.312-47.803
	c-0.748-6.725-8.748-9.835-13.841-5.379l-42.492,37.18C237.631,412.964,239.795,421.437,246.495,422.926z"/>
<g>
</g>
<g>
</g>
<g>
</g>
<g>
</g>
<g>
</g>
<g>
</g>
<g>
</g>
<g>
</g>
<g>
</g>
<g>
</g>
<g>
</g>
<g>
</g>
<g>
</g>
<g>
</g>
<g>
</g>
</svg>
