<svg height="504pt" viewBox="-168 0 504 504" width="504pt" xmlns="http://www.w3.org/2000/svg"><path d="m84 504c-4.425781 0-8-3.574219-8-8v-48c0-4.425781 3.574219-8 8-8s8 3.574219 8 8v48c0 4.425781-3.574219 8-8 8zm0 0" fill="#434a54"/><path d="m79.992188 415.753906c4.078124 0 16.007812-.328125 19.929687-.800781l.078125.800781v24.230469l-8.007812 8.015625h-15.992188l-8.007812-8.015625v-24.230469l.078124-.800781c3.921876.472656 7.839844.800781 11.921876.800781zm0 0" fill="#353b44"/><path d="m152 96h-136c-8.800781 0-16-7.128906-16-16v259.839844c0 42.230468 31.359375 77.265625 72.078125 83.113281 3.921875.488281 7.84375.800781 11.921875.800781s8-.3125 11.921875-.800781c40.71875-5.839844 72.078125-40.875 72.078125-83.113281v-259.839844c0 8.871094-7.121094 16-16 16zm-68 248c-19.921875 0-36-16.078125-36-36 0-19.839844 16.078125-36 36-36s36 16.160156 36 36c0 19.921875-16.078125 36-36 36zm0 0" fill="#434a54"/><g fill="#aab2bd"><path d="m48 16h24v56h-24zm0 0"/><path d="m24 16h24v56h-24zm0 0"/><path d="m72 16h24v56h-24zm0 0"/><path d="m120 16h24v56h-24zm0 0"/><path d="m96 16h24v56h-24zm0 0"/></g><path d="m120 96c4.398438 0 8 3.59375 8 8v8c0 4.390625-3.601562 8-8 8h-72c-4.398438 0-8-3.609375-8-8v-8c0-4.40625 3.601562-8 8-8zm0 0" fill="#353b44"/><path d="m84 352c-24.34375 0-44-19.65625-44-44 0-24.246094 19.65625-44 44-44s44 19.753906 44 44c0 24.34375-19.65625 44-44 44zm0 0" fill="#ccd1d9"/><path d="m41.984375 80c-4.425781 0-8-3.574219-8-8v-64c0-4.425781 3.574219-8 8-8 4.421875 0 8 3.574219 8 8v64c0 4.425781-3.578125 8-8 8zm0 0" fill="#ccd1d9"/><path d="m70 80c-4.425781 0-8-3.574219-8-8v-64c0-4.425781 3.574219-8 8-8s8 3.574219 8 8v64c0 4.425781-3.574219 8-8 8zm0 0" fill="#ccd1d9"/><path d="m98 80c-4.425781 0-8-3.574219-8-8v-64c0-4.425781 3.574219-8 8-8s8 3.574219 8 8v64c0 4.425781-3.574219 8-8 8zm0 0" fill="#ccd1d9"/><path d="m126.015625 80c-4.421875 0-8-3.574219-8-8v-64c0-4.425781 3.578125-8 8-8 4.425781 0 8 3.574219 8 8v64c0 4.425781-3.574219 8-8 8zm0 0" fill="#ccd1d9"/><path d="m130.398438 200c-4.398438 0-11.597657 0-16 0h-9.597657c-4.402343 0-11.601562 0-16 0h-9.679687c-4.402344 0-11.601563 0-16 0h-9.601563c-4.398437 0-11.597656 0-16 0h-9.519531c-4.398438 0-8 3.59375-8 8v7.984375c0 4.40625 3.601562 8 8 8h9.511719 16 9.601562 16 9.679688 16 9.597656 16 9.609375c4.398438 0 8-3.59375 8-8v-7.984375c0-4.40625-3.601562-8-8-8zm0 0" fill="#656d78"/><path d="m122.03125 200v23.984375h6.183594 1.816406v-23.984375h-1.816406c-1.671875 0-4.125 0-6.183594 0zm0 0" fill="#545c66"/><path d="m94.015625 200v23.984375h6.183594 1.816406v-23.984375h-1.816406c-1.671875 0-4.128907 0-6.183594 0zm0 0" fill="#545c66"/><path d="m66 200v23.984375h6.183594 1.816406v-23.984375h-1.816406c-1.671875 0-4.128906 0-6.183594 0zm0 0" fill="#545c66"/><path d="m37.984375 200v23.984375h6.183594 1.816406v-23.984375h-1.816406c-1.664063 0-4.128907 0-6.183594 0zm0 0" fill="#545c66"/><path d="m95.992188 316h-24c-4.425782 0-8-3.574219-8-8s3.574218-8 8-8h24c4.421874 0 8 3.574219 8 8s-3.578126 8-8 8zm0 0" fill="#aab2bd"/><path d="m127.992188 168.015625h-88c-4.425782 0-8-3.574219-8-8 0-4.421875 3.574218-8 8-8h88c4.421874 0 8 3.578125 8 8 0 4.425781-3.578126 8-8 8zm0 0" fill="#353b44"/><path d="m24 72h120v-60c0-6.640625 5.359375-12 12-12s12 5.359375 12 12v68c0 8.871094-7.121094 16-16 16h-136c-8.800781 0-16-7.128906-16-16v-68c0-6.640625 5.359375-12 12-12s12 5.359375 12 12zm0 0" fill="#e6e9ed"/><path d="m40 96h88v16h-88zm0 0" fill="#353b44"/><path d="m84 440c0 4.417969-3.582031 8-8 8s-8-3.582031-8-8 3.582031-8 8-8 8 3.582031 8 8zm0 0" fill="#353b44"/><path d="m100 440c0 4.417969-3.582031 8-8 8s-8-3.582031-8-8 3.582031-8 8-8 8 3.582031 8 8zm0 0" fill="#353b44"/></svg>