<svg xmlns="http://www.w3.org/2000/svg" viewBox="0 0 1200 736">
	<style>
		.prefix__st0,
		.prefix__st5 {
			fill: none;
			stroke: #fff;
			stroke-width: 5;
			stroke-miterlimit: 10
		}

		.prefix__st5 {
			stroke-width: 2
		}

		.prefix__st6 {
			fill: #fff
		}

		.prefix__st7 {
			fill: #0f0f0f
		}

		.prefix__st8 {
			font-family: &apos;
			OpenSans-Semibold&apos;
		}

		.prefix__st10 {
			font-size: 25.3584px
		}
	</style>
	<g id="prefix__TEXT">
		<path class="prefix__st0"
			d="M27 499.5v191.6h189.9M216.9 38.1H27v185.2M1179 499.5v191.6H989.1M989.1 38.1H1179v185.2" />
		<circle cx="61.7" cy="77" r="11.8" fill="#b51700" /><text transform="translate(80.032 90.568)" font-size="41.153"
			font-family="Raleway-SemiBold" fill="#fcfcfc">REC</text>
		<path class="prefix__st0"
			d="M378.2 416.6v73.9h73.3M451.5 238.7h-73.3v71.4M822.4 416.6v73.9h-73.2M749.2 238.7h73.2v71.4M599.3 346.4v33.5M616 363.1h-33.5" />
		<path class="prefix__st5"
			d="M1100.7 92.5h-67c-1.7 0-3-1.3-3-3V65.8c0-1.7 1.3-3 3-3h67c1.7 0 3 1.3 3 3v23.7c0 1.6-1.4 3-3 3zM1029.8 86.3h-2.6c-2.3 0-4.1-1.9-4.1-4.1v-9.1c0-2.3 1.9-4.1 4.1-4.1h2.6" />
		<path class="prefix__st6"
			d="M1062.9 65.3l10.3 24.6h15.7l-10.3-24.6zM1037.4 65.3c-2.5 0-4.5 2-4.5 4.5v15.6c0 2.5 2 4.5 4.5 4.5h15.8l-10.3-24.6h-5.5zM1045.1 65.3l10.2 24.6h15.7l-10.2-24.6zM1097.2 65.3h-16.3l10.3 24.6h6.1c2.5 0 4.5-2 4.5-4.5V69.8c-.1-2.5-2.2-4.5-4.6-4.5z" />
		<path class="prefix__st7"
			d="M1042.9 65.3l10.2 24.6h2.2l-10.2-24.6zM1060.8 65.3l10.2 24.6h2.2l-10.3-24.6zM1078.6 65.3l10.3 24.6h2.2l-10.3-24.6z" />
		<text transform="translate(1114.965 84.025)" class="prefix__st6 prefix__st8" font-size="21.532">99%</text>
		<g>
			<path class="prefix__st6" d="M796.5 60.4h50.6v34.4h-50.6z" /><text transform="translate(803.005 86.282)"
				class="prefix__st8 prefix__st10">HD</text>
			<path class="prefix__st5" d="M860.3 60.4h50.6v34.4h-50.6z" /><text transform="translate(868.775 86.282)"
				class="prefix__st6 prefix__st8 prefix__st10">4K</text></g><text transform="translate(922.205 84.932)"
			class="prefix__st6 prefix__st8 prefix__st10">25FPS</text>
		<g><text transform="translate(1038.472 663.911)" class="prefix__st6 prefix__st8" font-size="24.612">MENU</text>
			<path class="prefix__st5" d="M1118.6 647.7h7.6M1118.6 654.9h7.6M1118.6 662.1h7.6" />
			<g>
				<path class="prefix__st5" d="M1133.2 647.7h23.9M1133.2 654.9h23.9M1133.2 662.1h23.9" />
			</g>
		</g><text transform="translate(527.561 690.78)" class="prefix__st6 prefix__st8 prefix__st10">00:00:20:05</text>
	</g>
</svg>
