<svg xmlns="http://www.w3.org/2000/svg" viewBox="0 0 512 512">
    <path
        d="M475.858 268.032C456.877 264.086 431.164 262 401.5 262c-12.243 0-23.799.361-34.5 1.056V27.5C367 12.337 354.663 0 339.5 0h-312C11.565 0 0 13.248 0 31.5v415C0 457.367 12.013 470 27.5 470H291v11.5c0 16.954 27.202 22.609 36.142 24.468C346.123 509.914 371.836 512 401.5 512s55.377-2.086 74.358-6.032c8.94-1.859 36.142-7.514 36.142-24.468v-189c0-16.954-27.202-22.609-36.142-24.468zM497 386.952c-.155.322-3.276 5.834-26.702 10.332-17.779 3.413-41.569 5.217-68.798 5.217s-51.019-1.804-68.798-5.217C308.7 392.676 306.013 387 306 387v-29.227c7.85 3.677 16.724 5.526 21.142 6.444 18.981 3.946 44.694 6.032 74.358 6.032s55.377-2.086 74.358-6.032c4.417-.918 13.292-2.767 21.142-6.444zM193 388.5a7.499 7.499 0 00-7.5 7.5v19h-114c-3.909 0-6.5-3.202-6.5-4.5V336h120.5v25c0 4.143 3.357 7.5 7.5 7.5s7.5-3.357 7.5-7.5v-25H291v79h-90.5v-19c0-4.143-3.357-7.5-7.5-7.5zm128-119.098c-11.5 2.82-30 9.114-30 23.098V321h-90.5v-79h114c3.584 0 6.5 2.916 6.5 6.5zM185.5 321H65v-70.5c0-5.084 2.612-8.5 6.5-8.5h114zM497 339.702c-.155.322-3.276 5.834-26.702 10.332-17.779 3.413-41.569 5.217-68.798 5.217s-51.019-1.804-68.798-5.217C308.7 345.426 306.013 339.75 306 339.75v-29.227c7.85 3.677 16.724 5.526 21.142 6.444C346.123 320.914 371.836 323 401.5 323s55.377-2.086 74.358-6.032c4.417-.918 13.292-2.767 21.142-6.444zm-26.702-57.485c22.622 4.343 26.31 9.635 26.677 10.283-.367.648-4.055 5.94-26.677 10.283C452.519 306.196 428.729 308 401.5 308s-51.019-1.804-68.798-5.217c-22.622-4.343-26.31-9.635-26.677-10.283.367-.648 4.055-5.94 26.677-10.283C350.481 278.804 374.271 277 401.5 277s51.019 1.804 68.798 5.217zM27.5 455c-7.222 0-12.5-5.965-12.5-8.5V202h247c4.143 0 7.5-3.357 7.5-7.5s-3.357-7.5-7.5-7.5H15V31.5C15 21.477 19.906 15 27.5 15h312c6.893 0 12.5 5.607 12.5 12.5V187h-55c-4.143 0-7.5 3.357-7.5 7.5s3.357 7.5 7.5 7.5h55v62.308a284.52 284.52 0 00-16 2.103V248.5c0-11.855-9.645-21.5-21.5-21.5h-243C59.243 227 50 237.103 50 250.5v160c0 10.388 10.047 19.5 21.5 19.5H291v25zm442.798 36.783C452.519 495.196 428.729 497 401.5 497s-51.019-1.804-68.798-5.217C308.7 487.176 306.013 481.5 306 481.5v-29.227c7.85 3.677 16.724 5.526 21.142 6.444 18.981 3.946 44.694 6.032 74.358 6.032 14.293 0 27.832-.495 40.24-1.473a7.5 7.5 0 00-1.177-14.953c-12.018.946-25.16 1.426-39.063 1.426-27.229 0-51.019-1.804-68.798-5.217C308.7 439.926 306.013 434.25 306 434.25v-29.227c7.85 3.677 16.724 5.526 21.142 6.444 18.981 3.946 44.694 6.032 74.358 6.032s55.377-2.086 74.358-6.032c4.417-.918 13.292-2.767 21.142-6.444v29.178c-.154.32-2.916 5.202-22.767 9.527a7.5 7.5 0 00-5.731 8.925c.864 4.076 4.981 6.624 8.925 5.731 4.104-.894 12.229-2.67 19.573-6.105v29.172c-.155.323-3.276 5.834-26.702 10.332z" />
    <path
        d="M337 140.5v-79c0-11.855-9.645-21.5-21.5-21.5H150c-4.143 0-7.5 3.357-7.5 7.5s3.357 7.5 7.5 7.5h165.5c3.584 0 6.5 2.916 6.5 6.5v79c0 3.584-2.916 6.5-6.5 6.5h-244a6.508 6.508 0 01-6.5-6.5v-79c0-3.584 2.916-6.5 6.5-6.5H115c4.143 0 7.5-3.357 7.5-7.5S119.143 40 115 40H71.5C59.645 40 50 49.645 50 61.5v79c0 11.855 9.645 21.5 21.5 21.5h244c11.855 0 21.5-9.645 21.5-21.5zM157.5 368h-54c-4.143 0-7.5 3.357-7.5 7.5s3.357 7.5 7.5 7.5h54c4.143 0 7.5-3.357 7.5-7.5s-3.357-7.5-7.5-7.5zM108.5 289H123v14.5c0 4.143 3.357 7.5 7.5 7.5s7.5-3.357 7.5-7.5V289h14.5c4.143 0 7.5-3.357 7.5-7.5s-3.357-7.5-7.5-7.5H138v-14.5c0-4.143-3.357-7.5-7.5-7.5s-7.5 3.357-7.5 7.5V274h-14.5c-4.143 0-7.5 3.357-7.5 7.5s3.357 7.5 7.5 7.5zM276.86 260.64a7.502 7.502 0 00-10.607 0L256 270.893l-10.253-10.253a7.5 7.5 0 00-10.607 10.607l10.253 10.253-10.253 10.253a7.5 7.5 0 0010.607 10.607L256 292.107l10.253 10.253a7.5 7.5 0 0010.607-10.607L266.607 281.5l10.253-10.253a7.5 7.5 0 000-10.607zM239.146 400.146a7.481 7.481 0 005.304-2.196l34-34a7.5 7.5 0 00-10.607-10.607l-34 34a7.5 7.5 0 005.303 12.803z" />
    <circle cx="241.5" cy="356.5" r="7.5" />
    <circle cx="271.5" cy="394.5" r="7.5" />
    <path
        d="M290.5 133c9.649 0 17.5-7.851 17.5-17.5v-29c0-9.649-7.851-17.5-17.5-17.5h-14c-9.649 0-17.5 7.851-17.5 17.5v29c0 9.649 7.851 17.5 17.5 17.5zM274 115.5v-29c0-1.379 1.121-2.5 2.5-2.5h14c1.379 0 2.5 1.121 2.5 2.5v29c0 1.379-1.121 2.5-2.5 2.5h-14a2.502 2.502 0 01-2.5-2.5z" />
    </svg>