<?xml version="1.0" encoding="iso-8859-1"?>
<!-- Generator: Adobe Illustrator 19.0.0, SVG Export Plug-In . SVG Version: 6.00 Build 0)  -->
<svg version="1.1" id="Layer_1" xmlns="http://www.w3.org/2000/svg" xmlns:xlink="http://www.w3.org/1999/xlink" x="0px" y="0px"
	 viewBox="0 0 512.001 512.001" style="enable-background:new 0 0 512.001 512.001;" xml:space="preserve">
<path style="fill:#B3B3B3;" d="M325.881,108.337c-0.003-10.734-6.798-20.367-16.909-23.971L258.844,66.47l-5.156,14.594
	l50.096,17.858c3.973,1.417,6.644,5.202,6.645,9.419l0.007,43.785h15.453L325.881,108.337z"/>
<path style="fill:#808080;" d="M328.577,149.19h-19.31c-3.383,0-6.126,2.743-6.126,6.126v22.559h31.562v-22.56
	C334.703,151.932,331.96,149.19,328.577,149.19z"/>
<path style="fill:#FFCC5A;" d="M373.876,229.667l-10.818-41.45c-2.079-7.986-9.29-13.559-17.543-13.559h-53.188
	c-8.252,0-15.463,5.573-17.543,13.559l-10.846,41.45H373.876z"/>
<path style="fill:#FFB000;" d="M345.516,174.658h-29.583c8.251,0.001,15.461,5.574,17.54,13.559l11.058,41.45h29.346l-10.818-41.45
	c-0.39-1.497-0.96-2.91-1.684-4.217C358.238,178.337,352.221,174.658,345.516,174.658z"/>
<path style="fill:#CCCCCC;" d="M262.587,64.362l-7.051,19.78c-0.527,1.479-2.153,2.25-3.632,1.723L81.976,25.301
	c-1.479-0.527-2.25-2.153-1.723-3.632l7.051-19.78c0.527-1.479,2.153-2.25,3.632-1.723L260.864,60.73
	C262.343,61.257,263.114,62.883,262.587,64.362z"/>
<path style="fill:#808080;" d="M428.568,216.264h-23.584c-1.847,0-3.345-1.498-3.345-3.345v-51.812c0-1.847,1.498-3.345,3.345-3.345
	h23.584c1.847,0,3.345,1.498,3.345,3.345v51.812C431.913,214.767,430.415,216.264,428.568,216.264z"/>
<path style="fill:#CCCCCC;" d="M345.854,174.672c8.11,0.151,15.154,5.669,17.204,13.545l2.9,11.138h35.68v-24.683H345.854z"/>
<path style="fill:#FF395A;" d="M373.97,512H263.873c-5.996,0-10.856-4.86-10.856-10.856V229.802c0-5.996,4.86-10.856,10.856-10.856
	H373.97c5.996,0,10.856,4.86,10.856,10.856v271.342C384.826,507.14,379.966,512,373.97,512z"/>
<path style="fill:#D81942;" d="M373.97,218.946h-29.586c5.996,0,10.856,4.86,10.856,10.856v271.343
	c0,5.995-4.861,10.856-10.856,10.856h29.586c5.996,0,10.856-4.86,10.856-10.856V229.802
	C384.826,223.806,379.966,218.946,373.97,218.946z"/>
<g>
</g>
<g>
</g>
<g>
</g>
<g>
</g>
<g>
</g>
<g>
</g>
<g>
</g>
<g>
</g>
<g>
</g>
<g>
</g>
<g>
</g>
<g>
</g>
<g>
</g>
<g>
</g>
<g>
</g>
</svg>
