<?xml version="1.0" encoding="iso-8859-1"?>
<!-- Generator: Adobe Illustrator 19.0.0, SVG Export Plug-In . SVG Version: 6.00 Build 0)  -->
<svg version="1.1" id="Capa_1" xmlns="http://www.w3.org/2000/svg" xmlns:xlink="http://www.w3.org/1999/xlink" x="0px" y="0px"
	 viewBox="0 0 512 512" style="enable-background:new 0 0 512 512;" xml:space="preserve">
<path style="fill:#C73E3E;" d="M374.473,91.226c-13.493-23.843-29.696-42.928-48.158-56.722
	C304.901,18.492,280.586,10.039,256,10.039s-48.901,8.453-70.315,24.466c-18.462,13.794-34.665,32.878-48.158,56.722
	C112.238,135.931,98.304,194.45,98.304,256s13.934,120.069,39.223,164.774c13.493,23.843,29.696,42.928,48.158,56.722
	c21.414,16.013,45.729,24.466,70.315,24.466s48.901-8.453,70.315-24.466c18.462-13.794,34.665-32.878,48.158-56.722
	C399.762,376.069,413.696,317.55,413.696,256S399.762,135.931,374.473,91.226z"/>
<path style="fill:#7D2727;" d="M371.049,256c0,36.412-5.411,70.586-14.908,100.141l-42.616-42.616L371.049,256z"/>
<path id="SVGCleanerId_0" style="fill:#FF4F4F;" d="M313.525,313.525l42.616,42.616c-9.778,30.509-23.903,56.099-40.89,74.16
	L256,371.049L313.525,313.525z"/>
<path id="SVGCleanerId_1" style="fill:#FF4F4F;" d="M256,371.049l-59.251,59.251c-16.986-18.061-31.112-43.651-40.89-74.16
	l42.616-42.616L256,371.049z"/>
<g>
	<path style="fill:#7D2727;" d="M198.475,313.525l-42.616,42.616c-9.487-29.555-14.908-63.739-14.908-100.141L198.475,313.525z"/>
	<path style="fill:#7D2727;" d="M198.475,198.475L140.951,256c0-36.412,5.411-70.586,14.908-100.141L198.475,198.475z"/>
</g>
<g>

		<rect x="157.789" y="215.323" transform="matrix(-0.7071 0.7071 -0.7071 -0.7071 519.8135 296.6799)" style="fill:#FF4F4F;" width="81.347" height="81.347"/>

		<rect x="272.842" y="215.33" transform="matrix(-0.7071 0.7071 -0.7071 -0.7071 716.2259 215.3359)" style="fill:#FF4F4F;" width="81.347" height="81.347"/>
</g>
<path style="fill:#7D2727;" d="M371.049,256l-57.525-57.525l42.616-42.616C365.638,185.414,371.049,219.588,371.049,256z"/>
<g>
	<path id="SVGCleanerId_0_1_" style="fill:#FF4F4F;" d="M313.525,313.525l42.616,42.616c-9.778,30.509-23.903,56.099-40.89,74.16
		L256,371.049L313.525,313.525z"/>
</g>
<g>
	<path id="SVGCleanerId_1_1_" style="fill:#FF4F4F;" d="M256,371.049l-59.251,59.251c-16.986-18.061-31.112-43.651-40.89-74.16
		l42.616-42.616L256,371.049z"/>
</g>
<g>
	<path style="fill:#FF4F4F;" d="M196.749,81.699L256,140.951L196.749,81.699z"/>
	<path style="fill:#FF4F4F;" d="M315.255,81.695L256,140.951l57.525,57.525l42.616-42.616
		C346.357,125.349,332.234,99.76,315.255,81.695z"/>
	<path style="fill:#FF4F4F;" d="M256,140.951l-57.525,57.525l-42.616-42.616c9.778-30.509,23.903-56.099,40.89-74.16L256,140.951z"
		/>
</g>
<path style="fill:#FBC640;" d="M374.473,91.226C399.762,135.931,413.696,194.45,413.696,256s-13.934,120.069-39.223,164.774
	c-13.493,23.843-29.696,42.928-48.158,56.722c-21.414,16.013-45.729,24.466-70.315,24.466s-48.901-8.453-70.315-24.466
	c-18.462-13.794-34.665-32.878-48.158-56.722C112.238,376.069,98.304,317.55,98.304,256s13.934-120.069,39.223-164.774
	c13.493-23.843,29.696-42.928,48.158-56.722C207.099,18.492,231.414,10.039,256,10.039s48.901,8.453,70.315,24.466
	C344.777,48.299,360.98,67.383,374.473,91.226z M371.049,256c0-36.412-5.411-70.586-14.908-100.141
	C336.384,94.248,298.938,52.686,256,52.686c-21.675,0-41.954,10.591-59.251,29.013c-16.986,18.061-31.112,43.651-40.89,74.16
	c-9.497,29.555-14.908,63.729-14.908,100.141c0,36.402,5.421,70.586,14.908,100.141c9.778,30.509,23.903,56.099,40.89,74.16
	c17.298,18.422,37.577,29.013,59.251,29.013c21.675,0,41.954-10.591,59.251-29.013c16.986-18.061,31.112-43.651,40.89-74.16
	C365.638,326.586,371.049,292.412,371.049,256z"/>
<path d="M111.406,59.729c2.847-4.758,1.298-10.923-3.459-13.771c-4.761-2.845-10.923-1.297-13.771,3.459
	C60.547,105.614,42.024,178.979,42.024,256s18.522,150.386,52.153,206.582c1.881,3.142,5.209,4.885,8.625,4.885
	c1.754,0,3.532-0.461,5.146-1.427c4.757-2.848,6.306-9.013,3.459-13.771c-30.341-50.696-47.661-116.496-49.181-186.23h26.169
	c1.44,59.563,15.649,115.933,40.396,159.679c14.18,25.061,31.301,45.187,50.884,59.818C202.826,502.849,229.219,512,256,512
	s53.174-9.151,76.323-26.462c19.586-14.633,36.706-34.759,50.887-59.821c24.747-43.745,38.956-100.115,40.396-159.678h26.169
	c-1.521,69.734-18.841,135.534-49.181,186.231c-2.847,4.758-1.298,10.923,3.458,13.771c1.615,0.966,3.392,1.427,5.146,1.427
	c3.414,0,6.743-1.743,8.625-4.885c33.63-56.197,52.153-129.562,52.153-206.583s-18.522-150.386-52.153-206.582
	c-2.848-4.756-9.013-6.304-13.771-3.459c-4.757,2.848-6.306,9.013-3.458,13.771c30.34,50.697,47.66,116.496,49.181,186.231h-26.169
	c-1.44-59.563-15.649-115.933-40.396-159.679c-14.18-25.061-31.301-45.187-50.884-59.818C309.174,9.151,282.781,0,256,0
	s-53.174,9.151-76.323,26.462c-19.585,14.633-36.706,34.759-50.887,59.821c-24.747,43.745-38.956,100.115-40.396,159.678H62.225
	C63.745,176.226,81.066,110.426,111.406,59.729z M146.264,96.171c12.802-22.624,28.088-40.666,45.432-53.625
	C211.352,27.847,233.588,20.078,256,20.078s44.648,7.768,64.306,22.469c17.342,12.958,32.627,30.999,45.428,53.622
	c24.455,43.229,37.922,99.992,37.922,159.83s-13.468,116.602-37.921,159.829c-12.802,22.624-28.088,40.666-45.432,53.625
	c-19.655,14.698-41.892,22.467-64.303,22.467s-44.648-7.768-64.306-22.469c-17.342-12.958-32.627-30.999-45.428-53.622
	c-24.455-43.229-37.922-99.992-37.922-159.83S121.811,139.399,146.264,96.171z"/>
<path d="M130.911,255.994c0,0.004,0,0.008,0,0.013c0.001,36.061,5.297,71.654,15.311,102.951c0.011,0.037,0.023,0.073,0.034,0.109
	c0.015,0.045,0.028,0.092,0.042,0.139c10.213,31.865,25.129,58.829,43.131,77.968c19.767,21.053,42.786,32.181,66.57,32.181
	s46.802-11.127,66.564-32.174c18.008-19.146,32.925-46.109,43.135-77.967c0.017-0.052,0.032-0.106,0.049-0.159
	c0.009-0.03,0.019-0.059,0.027-0.089c10.016-31.271,15.312-66.865,15.313-102.959c0-0.004,0-0.008,0-0.013
	c-0.001-36.097-5.298-71.694-15.313-102.961c-0.008-0.028-0.017-0.055-0.026-0.083c-0.017-0.051-0.032-0.104-0.048-0.156
	c-10.324-32.196-25.422-59.355-43.662-78.541C302.384,53.575,279.548,42.647,256,42.647c-23.783,0-46.802,11.127-66.564,32.174
	c-18.007,19.147-32.925,46.109-43.135,77.967c-0.017,0.052-0.032,0.106-0.049,0.159c-0.009,0.03-0.019,0.059-0.027,0.089
	C136.208,184.306,130.912,219.9,130.911,255.994z M197.29,96.438l44.513,44.513l-43.327,43.327l-31.128-31.128
	C175.104,130.78,185.322,111.456,197.29,96.438z M351.193,175.006c4.505,17.675,7.511,36.518,8.909,55.849l-32.378-32.38
	L351.193,175.006z M351.193,336.994l-23.47-23.47l32.378-32.379C358.703,300.475,355.696,319.317,351.193,336.994z M314.71,415.562
	l-44.512-44.513l43.326-43.327l31.128,31.128C336.896,381.22,326.678,400.544,314.71,415.562z M197.29,415.562
	c-11.965-15.015-22.184-34.338-29.941-56.713l31.127-31.127l43.326,43.327L197.29,415.562z M151.899,281.147l32.377,32.378
	l-23.467,23.467C156.307,319.307,153.299,300.466,151.899,281.147z M155.149,256l43.326-43.326L241.802,256l-43.326,43.326
	L155.149,256z M212.674,313.525L256,270.198l43.326,43.326L256,356.852L212.674,313.525z M356.851,256l-43.326,43.326L270.198,256
	l43.326-43.326L356.851,256z M256,241.802l-43.326-43.326L256,155.149l43.326,43.326L256,241.802z M184.278,198.475l-32.378,32.38
	c1.398-19.33,4.404-38.172,8.909-55.849L184.278,198.475z M211.043,430.204L256,385.248l44.957,44.958
	c-14.072,12.497-29.46,19.069-44.957,19.069C240.505,449.275,225.118,442.703,211.043,430.204z M344.652,153.149l-31.128,31.128
	l-43.326-43.326l10.922-10.922c3.92-3.92,3.92-10.277,0-14.198c-3.921-3.919-10.276-3.919-14.198,0L256,126.752l-44.958-44.958
	C225.115,69.298,240.503,62.725,256,62.725C291.633,62.725,325.266,97.204,344.652,153.149z"/>
<path d="M294.149,112.105c12.919,0,12.941-20.078,0-20.078C281.23,92.026,281.208,112.105,294.149,112.105z"/>
<g>
</g>
<g>
</g>
<g>
</g>
<g>
</g>
<g>
</g>
<g>
</g>
<g>
</g>
<g>
</g>
<g>
</g>
<g>
</g>
<g>
</g>
<g>
</g>
<g>
</g>
<g>
</g>
<g>
</g>
</svg>
