<svg height="512" viewBox="0 0 512 512" width="512" xmlns="http://www.w3.org/2000/svg"><g id="flat"><path d="m88 464h-8a32.036 32.036 0 0 1 -32-32v-104a32.036 32.036 0 0 1 32-32h8a8 8 0 0 1 0 16h-8a16.019 16.019 0 0 0 -16 16v104a16.019 16.019 0 0 0 16 16h8a16.019 16.019 0 0 0 16-16v-72a8 8 0 0 1 16 0v72a32.036 32.036 0 0 1 -32 32z" fill="#da922a"/><path d="m432 216h-8a8 8 0 0 1 0-16h8a16.019 16.019 0 0 0 16-16v-104a16.019 16.019 0 0 0 -16-16h-8a16.019 16.019 0 0 0 -16 16v72a8 8 0 0 1 -16 0v-72a32.036 32.036 0 0 1 32-32h8a32.036 32.036 0 0 1 32 32v104a32.036 32.036 0 0 1 -32 32z" fill="#ea9d2d"/><path d="m96 320h320v48h-320z" fill="#b94137"/><path d="m96 144h320v48h-320z" fill="#b94137"/><path d="m80 192h352v64h-352z" fill="#c7463b"/><path d="m96 184.368h320v7.632h-320z" fill="#a83b32"/><path d="m96 320.184h320v7.632h-320z" fill="#a83b32"/><path d="m80 256h352v64h-352z" fill="#c7463b"/><path d="m80 248h352v8h-352z" fill="#b94137"/><path d="m80 312h352v8h-352z" fill="#b94137"/><path d="m368 192h32v128h-32z" fill="#a83b32"/><path d="m368 144h32v48h-32z" fill="#a03830"/><path d="m496 80v104a64.072 64.072 0 0 1 -64 64v-16a48.051 48.051 0 0 0 48-48v-104a48.051 48.051 0 0 0 -48-48h-8a48.051 48.051 0 0 0 -48 48v124a28.031 28.031 0 0 1 -28 28h-20a8 8 0 0 1 0-16h20a12.01 12.01 0 0 0 12-12v-124a64.072 64.072 0 0 1 64-64h8a64.072 64.072 0 0 1 64 64z" fill="#85bc94"/><path d="m368 320h32v48h-32z" fill="#a03830"/><g fill="#fbedbf"><path d="m144 104h16v16h-16z"/><path d="m176 104h56v16h-56z"/><path d="m112 104h16v16h-16z"/></g><path d="m112 192h32v128h-32z" fill="#a83b32"/><path d="m112 320h32v48h-32z" fill="#a03830"/><path d="m192 288a8 8 0 0 1 -8 8h-20a12.01 12.01 0 0 0 -12 12v124a64.072 64.072 0 0 1 -64 64h-8a64.072 64.072 0 0 1 -64-64v-104a64.072 64.072 0 0 1 64-64v16a48.051 48.051 0 0 0 -48 48v104a48.051 48.051 0 0 0 48 48h8a48.051 48.051 0 0 0 48-48v-124a28.031 28.031 0 0 1 28-28h20a8 8 0 0 1 8 8z" fill="#6b9777"/><circle cx="256" cy="256" fill="#428dc5" r="88"/><circle cx="256" cy="256" fill="#b8eaee" r="58.5"/><path d="m272 280a7.974 7.974 0 0 1 -5.657-2.343l-16-16a8 8 0 0 1 -2.343-5.657v-32a8 8 0 0 1 16 0v28.687l13.657 13.656a8 8 0 0 1 -5.657 13.657z" fill="#428dc5"/><path d="m112 144h32v48h-32z" fill="#a03830"/></g></svg>