<svg id="Layer_1" enable-background="new 0 0 110 110" height="512" viewBox="0 0 110 110" width="512" xmlns="http://www.w3.org/2000/svg" xmlns:x="http://ns.adobe.com/Extensibility/1.0/" xmlns:i="http://ns.adobe.com/AdobeIllustrator/10.0/" xmlns:graph="http://ns.adobe.com/Graphs/1.0/"><path d="m62.2198944 85.6544037c1.0612259-.1921158 20.8983841-25.1754875 26.6137695-41.5257683l-26.6137695 18.9070015z" fill="#c12525"/><path d="m60.1004639 74.8074493c1.3806648 3.915741 5.0812073 6.1799088 8.2654343 5.0571671 3.184227-1.1227341-.0514145-3.064949-1.4320831-6.98069-1.3806534-3.9157181-.3835068-8.3221664-3.5677338-7.1994247-3.1842271 1.122734-4.6462746 5.2072296-3.2656174 9.1229476z" fill="#f9b623"/><path d="m63.365406 65.683876c.3105812-.1095047.5825081-.165596.8183479-.1736221 2.194809-.0932083 1.5045471 3.8408508 2.7506714 7.3750076 1.2613602 3.5774002 4.0710602 5.5039062 2.1161499 6.6661072-.0039139.0013733-.007843.0027618-.0103912.0080872-.1826935.1086273-.4037857.2086792-.6750412.3043213.1845551-.0783463.3677063-.1605911.5212708-.2766266.1630478-.1016769.2851868-.2817612.1941299-.4397049-.08181-.1568146-.2512512-.2738495-.4086838-.3818817-.1574402-.1080246-.3331223-.2052155-.5074387-.298439-.690773-.3796387-1.4074707-.7324982-2.1012421-1.1331711-.6977158-.3993149-1.3623123-.8677444-1.9559326-1.4231033-.5950012-.5592728-1.1062584-1.2320557-1.398037-2.0220184-.2682114-.7982407-.2933846-1.6468353-.1793709-2.4517059.1126366-.8087845.3364525-1.5904617.6308022-2.335144.2837029-.7497787.6245346-1.4754868.924427-2.2044296.0772858-.1819611.1506424-.3625107.2080307-.550705.054863-.1828842.1134109-.3803406.0787811-.5537567-.0281448-.18013-.2348251-.2398453-.4269829-.2207108-.1923826.0059508-.3852346.0606764-.5794905.1114958z" fill="#fdc443"/><path d="m63.9412041 65.511795c.078846-.0145569.1579247-.0159149.2425499-.0015411.0224457.0009384.0423203.0071716.0675125.0159607.1151428.0257111.1935043.1351013.2256088.2387009.0605164.221756.0086441.4256744-.0327988.621521-.0439987.201149-.1053238.3907318-.1652603.5842438-.2691574.7534714-.5716019 1.4877396-.8157578 2.236824-.242794.7530212-.4670715 1.5083694-.5579567 2.2785339-.0962029.7676239-.0550461 1.5486984.1972275 2.264183.2508888.7115479.7087402 1.345726 1.2665138 1.8871841.5538483.5428467 1.2022858.9904709 1.8583679 1.4221344.6653137.4328308 1.3600311.8110809 2.0436325 1.2330399.1666718.1091995.3333359.2183914.4937668.3474579.1565018.1304474.3248062.2567596.4153671.4634933.0413666.1047668.0436478.236557-.026001.3273926-.0282135.0453186-.06707.0855331-.1034012.1204453-.0039139.0013733-.007843.0027618-.0103912.0080872-.0376892.030983-.0767975.0580215-.1172638.081131-.1762161.1018982-.3662872.1645203-.5577774.2231903.1845551-.0783463.3677063-.1605911.5212708-.2766266.1630478-.1016769.2851868-.2817612.1941299-.4397049-.08181-.1568146-.2512512-.2738495-.4086838-.3818817-.1574402-.1080246-.3331223-.2052155-.5074387-.298439-.690773-.3796387-1.4074707-.7324982-2.1012421-1.1331711-.6977158-.3993149-1.3623123-.8677444-1.9559326-1.4231033-.5950012-.5592728-1.1062584-1.2320557-1.398037-2.0220184-.2682114-.7982407-.2933846-1.6468353-.1793709-2.4517059.1126366-.8087845.3364525-1.5904617.6308022-2.335144.2837029-.7497787.6245346-1.4754868.924427-2.2044296.0772858-.1819611.1506424-.3625107.2080307-.550705.054863-.1828842.1134109-.3803406.0787811-.5537567-.0281448-.18013-.2348251-.2398453-.4269829-.2207108-.1923828.0059509-.3852348.0606766-.5794907.111496.1873249-.0704729.3732418-.1448747.5757984-.1720812z" fill="#f7c663"/><path d="m80.1648483 51.2748604c-2.2527618-5.1667213-7.4849319-7.8701019-11.6864395-6.0381851s.3696747 4.144886 2.6224442 9.3116035c2.2527466 5.166687 1.3340073 11.2306137 5.5355148 9.3986931 4.2015076-1.8319168 5.7812347-7.5054283 3.5284805-12.6721115z" fill="#f9b623"/><path d="m76.6373444 63.9477501c-.4098053.1786842-.7724991.2812462-1.0910416.315197-2.9626312.3410797-2.4131699-5.0531845-4.4464035-9.7164154-2.0581131-4.7202835-6.0510254-7.053688-3.5178757-8.8186836.0051651-.0022507.0103531-.0045166.0132828-.0119705.2367325-.1649742.5262909-.3220863.884201-.4781418-.2422104.1241455-.4821396.2534409-.6787109.4255829-.2108154.1536369-.358551.40942-.2197952.6143684.1261215.2043114.3669891.3461952.5907364.477047.2237396.1308517.471138.2452507.7162781.3544159.9724731.4463997 1.9774246.8539963 2.9560165 1.3285904.9837875.4723625 1.9295044 1.0415421 2.7876358 1.7353859.8603821.6990013 1.6184845 1.5598907 2.090889 2.6009254.4413071 1.0545578.5584717 2.201088.4828873 3.3020401-.0733261 1.1061134-.2998428 2.1864052-.6254807 3.2235184-.31073 1.0429726-.7011642 2.0589409-1.0358658 3.0752831-.0868225.2539444-.1684723.5055923-.2277451.7660255-.0563889.2529907-.1163254.5260735-.0524673.7574959.055748.2411423.3414459.3017578.5997467.2570343.259903-.0268861.5156708-.1198655.7737122-.2076989z" fill="#fdc443"/><path d="m75.8745651 64.237114c-.1053391.0274277-.2122726.0370178-.3282623.0258331-.0304871.0009384-.0579987-.0055695-.0929718-.0149994-.1584167-.0235367-.2752304-.1639786-.3288422-.3011131-.103653-.2943268-.0533829-.5755119-.0164413-.8447456.0398865-.2766571.1043549-.5393524.1665649-.8072433.2906723-1.0465431.6282959-2.0703468.8855438-3.1084976.2550201-1.0433617.4847412-2.0880508.532402-3.1397514.0551071-1.0487747-.0770874-2.102314-.4887161-3.0463791-.4093552-.9388695-1.0913696-1.7527199-1.8996048-2.4312401-.8030472-.6807861-1.7248535-1.2233887-2.6554413-1.7436295-.9432144-.5209122-1.9208755-.9650497-2.8877792-1.4694557-.2363663-.1315308-.4727249-.2630615-.7025757-.4221039-.2246704-.1613121-.46492-.3158607-.6077881-.5869141-.0662613-.1377983-.0822449-.3160172.0031586-.4458313.0337677-.0641174.0824356-.1223793.128212-.1731949.0051651-.0022507.0103531-.0045166.0132828-.0119705.0479965-.0456467.0983047-.0860786.1508255-.1213379.2286224-.1552238.4798508-.2586174.7333755-.3568039-.2422104.1241455-.4821396.2534409-.6787109.4255829-.2108154.1536369-.358551.40942-.2197952.6143684.1261215.2043114.3669891.3461952.5907364.477047.2237396.1308517.471138.2452507.7162781.3544159.9724731.4463997 1.9774246.8539963 2.9560165 1.3285904.9837875.4723625 1.9295044 1.0415421 2.7876358 1.7353859.8603821.6990013 1.6184845 1.5598907 2.090889 2.6009254.4413071 1.0545578.5584717 2.201088.4828873 3.3020401-.0733261 1.1061134-.2998428 2.1864052-.6254807 3.2235184-.31073 1.0429726-.7011642 2.0589409-1.0358658 3.0752831-.0868225.2539444-.1684723.5055923-.2277451.7660255-.0563889.2529907-.1163254.5260735-.0524673.7574959.055748.2411423.3414459.3017578.5997467.2570343.259903-.026886.5156708-.1198654.7737122-.2076988-.2467423.1137656-.4911805.2327002-.7627793.2893638z" fill="#f7c663"/><path d="m84.8740845 42.882782c-.0434189-.0258713-.0872955-.0519676-.1316299-.0782166-.9915085-.5948906-3.5446777-1.3137703-6.11026-1.9334717-3.288269-.791111-6.5765305-1.4219551-6.5935135-1.4252434-.0007553-.0001488.0005112.0004425-.0000916-.0000343-.0149612-.0119057-5.7186661-4.5640678-9.5434914-6.9159012-.5205269-.322258-1.1650429-.7064724-1.8715134-1.1154976v-.012331c-3.6329651-2.1517887-9.1650581-5.3298855-11.1603317-6.4737492-.4979095-.2854176-1.0467339-.4520683-1.6190033-.4950371h-1.6740036l-5.364727-7.3417473c-.0065498-.0089626-.0195312-.0100193-.0274429-.0022297l-35.7862459 35.2290327c-.0087504.0086136-.0151215.0187073-.0042849.0244789.4587917.2444763 12.6239262 6.7470932 20.0774689 11.8538971 7.5851593 5.217926 34.7405968 21.1938934 36.8971481 21.3550186.1115074.0123291.1709633.0902481.2577324.1026535.5577545-1.4500732 7.439003-21.2965317 15.036499-27.7786179 4.119606-3.521534 6.9821014-6.9920082 8.7394638-9.4314079.7635345-1.0598183 2.8378067-4.3157425 2.8378067-4.3157425-.277573-.8304558-3.1399463-.7571907-3.9595798-1.2458534z" fill="#ef3e3e"/><g fill="#e33636"><path d="m72.0385437 39.4458199s-5.7136459-4.5610046-9.5434456-6.915905c-.5205269-.322258-1.1650429-.7064724-1.8715134-1.1154976.0248108.6569214.1859398 1.2766266.5825577 1.8095589.2974472.4090271.7188034.7188797 1.1278267 1.0163231.7312851.5453415 1.4624901 1.090683 2.1937714 1.6360245 2.3548279 1.7351265 4.821312 3.6314545 5.8375549 6.3705673 0-.2354889 4.9328918-1.090683 5.3914642-1.1403084.8179779-.0619545 1.8467026.0991745 2.6275406-.123909.0867615-.0248146.1735306-.0743599.2478943-.1115799-3.2968674-.7931633-6.5936508-1.4252739-6.5936508-1.4252739z"/><path d="m74.407341 43.3798218c.5712967.3924065 1.1483612.7897987 1.6127777 1.3042679.4644241.5144653.8125839 1.1650391.8336792 1.8577995.0210953.6927643-.3375626 1.4185181-.9681015 1.7062569-.4783173.2182732-1.0587921.1763611-1.4995041.4630699-.4125137.2683601-.6132965.7774773-.6460037 1.2685089-.0327148.4910316.0762939.9787178.1548767 1.4645271.2711029 1.6761513.1797867 3.4099884-.2658844 5.0483932-.4187546 1.5394554-1.1493301 3.1481934-.6411896 4.6605034.5661774-.1686974.9174042-.7322617 1.1276321-1.2843742.2102203-.5521088.3406677-1.150528.6996689-1.6197205.4650345-.6077766 1.2421417-.9037552 1.7415924-1.4835854.9553375-1.1090851.6275406-2.8788757 1.4260712-4.1057014.4143906-.6366539 1.0836334-1.051445 1.6953735-1.5018158 2.1335678-1.5707703 3.7300797-3.7460899 5.2919998-5.8861504.1390686-.1905441.2851944-.4062538.2571487-.6404762-.0428772-.358036-.4612656-.5406494-.8214264-.5582657-1.1153107-.0545464-2.2091904.7695885-3.2799377.4527626-.6409607-.1896553-1.1090546-.7659302-1.341156-1.3927689-.2320938-.6268387-.264679-1.3071251-.2948151-1.9748726-.7718124.2845535-1.5659485.4548492-2.3305588.7126045-.9478224.319523-1.878517 1.0221292-2.7522429 1.5090372z"/><path d="m48.7129059 24.4985847h-7.2738724l-.8975258-.555933-5.0179901 1.1015091 5.5075493-1.7542553 1.2646942.4487629 3.4356003.0940743z"/><path d="m30.6371231 30.2410507c-1.3915329 1.4475117-2.7829914 2.8950233-4.1745243 4.3425369-2.3818321 2.4776039-4.7635899 4.9552803-7.1535168 7.4250908-1.0434036 1.0782776-2.0883961 2.1550407-3.1333141 3.2318077-2.9710493 3.0615234-5.5657253 5.480381-8.5367756 8.5419044 2.4305496-.1186142 4.2082348-.9473648 6.0003204-2.5936012 1.7921619-1.6462402 3.3942966-3.5370445 5.4570484-4.8281174 1.5624962-.9778938 3.3283329-1.5721054 5.0058136-2.3360672 1.6775551-.7640381 3.3305264-1.7533531 4.3647003-3.2791634 1.4497814-2.1392288 1.4208088-4.8747902 1.1727619-7.4890099.33247-1.0051268.6650163-2.0102537.9974862-3.0153807z"/><path d="m61.8446083 67.4825439c-1.8454933.7110138-3.7372818 1.2661133-5.6866379 1.6093979-1.0077019.177475-2.024704.3022919-3.0455627.3724136-.4019928.0276108-2.6021957.3516846-2.8486557.0535583 3.9776917 4.8042908 7.1703796 9.7808838 9.9618416 15.3585205.2774734-1.9451981.9928055-3.5796204 1.6641006-5.4263229 1.0990028-3.0230179 2.7011414-5.836647 4.3950348-8.5710754 1.385025-2.2358322 2.9866333-4.3544846 4.3423843-6.5980377-2.9246749.9681397-5.8997345 2.0909729-8.782505 3.2015457z"/><path d="m48.6499672 71.747467c-1.1008949-1.535408-2.2861366-3.1406479-4.02005-3.8908463-1.4214897-.6149368-3.081192-.5883102-4.4317245-1.3465958-1.3839684-.7769775-2.2400703-2.2657166-3.5819016-3.1134949-2.2058792-1.3936501-5.109148-.7453537-7.6237411-1.4419136-3.1454926-.8712311-5.3449402-3.7298698-8.3239326-5.06353-1.9720516-.8828049-4.1780033-1.0508194-6.3329706-1.2064247-1.2780619-.092289-2.6086349-.8341064-3.7870693-.2865715 2.3350067 1.2148972 4.7226763 1.2526627 7.2673025 1.8747864 2.8010693.6848373 5.4522076 1.9761353 7.7182999 3.7592964.7894554.6212158 1.5349598 1.3027992 2.3794117 1.8468552 1.2064991.7773514 2.5786667 1.251358 3.9358559 1.7181778 1.8977642.6528397 3.7955303 1.3055954 5.6932964 1.9584351 2.5058174.8619232 5.0536957 1.7454071 7.1942139 3.3074493 1.3253403.9671555 2.458313 2.1692657 3.5828857 3.3638916 1.9452705 2.0664597 3.8905449 4.1329193 5.8358917 6.199379-1.8352816-2.5596084-3.6705629-5.1192855-5.505768-7.678894z"/><path d="m71.8682632 46.4351845c-.2314835-.6138802-.7260666-1.0847092-1.2051392-1.5329933-1.0358429-.9690437-2.0716019-1.9380875-3.1074448-2.9072037-1.5003891-1.4037132-3.0009308-2.8076515-4.530899-4.1791382-.8495941-.7616959-1.7131844-1.5186234-2.4211693-2.413456-1.2642937-1.5978966-2.2374191-3.773138-4.2287598-4.2048569l.4159088.6350594c-.4471512-.3375378-1.0309982-.547308-1.5916977-.6184921-1.0272903-.1304932-2.0963402.0202732-3.0845947-.2893524-1.8163681-.5690193-2.8090897-2.4670868-4.2173424-3.7476444-.818428-.7442188-1.8964767-1.3129368-2.993515-1.1707954-1.096962.1421413-2.0947533 1.2211761-1.8386841 2.2973347.4022141 1.6904926 2.9848175 1.6959381 3.9948578 3.1099396.6774254.9483147.4574394 2.2445335.6958809 3.3852959.4460182 2.1343117 2.4591446 3.5583763 4.4431496 4.4628143 1.9840012.904438 3.7866516 2.0815125 5.7234039 3.0830841 5.9435959 3.0736809 3.7178383 8.3731041 4.3188553 9.0176201 1.3904762 1.4908562 1.1993141 3.9558258.1176338 5.6838379s-2.8474426 2.8910141-4.5583572 3.9994774c-1.8436775 1.1944695-3.687355 2.3889427-5.5310326 3.5834122-.7278786.4715881-1.4810257.9688187-1.9262085 1.7131882-.4451866.7442932-.4785461 1.8118286.1624146 2.3960571 4.9559593-1.957756 9.9119949-3.9155884 14.8679581-5.8733406 1.4858627-.5869484 3.0635681-1.2460632 3.9486389-2.5760956.5926971-.8906708.7974777-1.976059.9893951-3.0285416.5185623-2.8437347 1.0370483-5.6874695 1.5556107-8.5312042.1389619-.76215.2744446-1.569153.0011368-2.2940065z"/></g><g opacity=".15"><path d="m35.5937653 33.7373199-.1481171 1.1536217c.0720139-.0563545.1230774-.1226997.1637001-.1935806.0109673-.2764168.0192909-.5523758.0277634-.8285637-.0127106-.0439529-.0281411-.0875244-.0433464-.1314774z" fill="#fff"/><path d="m32.9768181 52.6550598c-.4274063-.3607635-.8803825-.7631302-.9944592-1.3106651-.1800404-.8641205.5412579-1.627327 1.1862278-2.2299347 1.807972-1.6894302 3.5525513-3.5767555 4.3535042-5.9179688 1.1661797-3.4089699.147892-7.1358147-.872139-10.5913086-.1598434-.5415611-.527565-1.2137623-1.0766869-1.0822868-.6177368.1478901-.5306664 1.0632248-.2373085 1.6266441.0936546.1798134.1867752.3826256.2578087.58778l.0646782-.5036583c-.0059776.2113571-.014904.4233971-.0213318.6351357.0867653.3015289.1045418.5977631-.0277634.8285637-.0718651 1.8095589-.2170334 3.6176071-.7098007 5.3550758-.6257553 2.2061806-1.8778687 4.322113-3.8332024 5.5202904-2.45574 1.5047035-5.6233978 1.3675537-8.16008 2.7313232-.7485313.4023705-1.4453182.9498291-1.8637238 1.6895103-.4184055.7396011-.5178814 1.6936684-.1073437 2.437809.7630558 1.3831367 2.6824551 1.4161949 4.2580376 1.5303459 3.8446274.2786102 7.3929424 2.0737991 10.8221111 3.8344154 2.5951576 1.3323746 5.1903152 2.664753 7.7854767 3.9972038-3.6080015-3.046089-7.2160032-6.092182-10.8240049-9.138275z" fill="#e33636"/></g><path d="m71.6513062 43.0989838c.2719498-.1545486.5255203-.3420029.8084412-.4753685.4852753-.228756 1.0308456-.2867775 1.564537-.3416977 2.090065-.2148399 4.1800461-.4297523 6.2701111-.6446686-2.1628342.0295029-4.325592.0590057-6.4884262.0885086-.4631119.0063553-.9378738.0148277-1.3694458.1829147-.4131088.1608276-.7587433.4574394-1.1569519.6521568-.7006454.3427582-1.4842758.3427582-2.2667694.2143822-.8552704-.9431686-1.7340698-1.8650856-2.6534882-2.7457695-2.5670128-2.4590683-4.8190346-5.2588539-7.3712273-7.7333565-.7517815-.7289352-1.527092-1.4652119-2.4754829-1.9091854-.9868965-.4620552-2.0935402-.5766602-3.1634216-.7834053-1.0698814-.2066689-2.1736526-.5415592-2.9311829-1.3248119-.8259201-.8540592-1.1659546-2.1668434-2.1834106-2.7803421-.8424072-.5078964-1.9057083-.3854237-2.8795166-.2463074-2.1629829.3090935-4.326046.6181145-6.4890289.9272079 1.8173523.5064602 3.9589272.5830898 5.6201439-.3110619.9570885-.515234 2.1829567-.1835957 3.0463943.4765797.8635139.6601734 1.4640808 1.5956287 2.1303062 2.4543781.6662254.8588238 1.4671059 1.6904163 2.5114174 1.9917946 1.1591415.3345127 2.4313049-.0391102 3.5944595.281332 1.1378098.3134823 1.9898262 1.2335072 2.7774658 2.1123791 4.5752296 5.1054382 9.1504555 10.2109528 13.7256813 15.3163948-.2804184.4620552-.3558426 1.0435562-.2026596 1.5618896-.716301 1.6178703-1.1937103 3.4417267-1.2285843 5.210743-.0279922 1.4175568.1696014 2.8335228.1202011 4.2505493-.049324 1.4169502-.3794479 2.8898811-1.3106613 3.9590797 1.1167755-.1282234 1.9153137-1.2084656 2.1596527-2.3056564.2444153-1.0971909.0763321-2.2375717.0497742-3.3613129-.0563583-2.3928032.5353622-4.7531509 1.2509079-7.0370979.2276993-.726593.4704514-1.4983482.2784576-2.2351532-.1202774-.4615974-.4013062-.8623009-.6819611-1.2479515-.9319-1.2805595-1.9212189-2.5192108-2.961441-3.7134552.6644822-.0033263 1.3277588-.1553038 1.9057084-.4836882z" fill="#fff" opacity=".1"/><path d="m50.4422798 66.2373886c.2119675-.6554794.9063339-1.0081482 1.5427551-1.2720032 3.8830528-1.6098557 8.0596199-2.5087738 12.2612267-2.6388855-2.2784233-1.0577011-4.9201813-1.3124084-7.3587494-.7094955-2.0468674.5060806-3.9010582 1.5784569-5.8523827 2.3773689-1.9513245.7989845-4.1486511 1.325489-6.1570892.6836967-.5622864-1.2580109-.3075066-2.7606735.3381424-3.9780655.6456528-1.217392 1.6399612-2.2070847 2.6191406-3.1767349 1.5222511-1.5074234 3.0445023-3.0149231 4.5667534-4.5223503-1.7999535.6558647-3.6362152 1.3335876-5.2414551 2.3539963-.4793739-1.8060799-.4270287-3.7543793.1886673-5.5200653.3528175-1.011631.8781128-2.1356735.395256-3.0921593-.263176-.521286-.7749329-.8603401-1.2349434-1.2200432-2.2919617-1.79216-3.6893959-4.6759148-3.675705-7.5853119-.5994301 1.5190773-.9654884 3.2461052-.3771019 4.7695656.4391327 1.136982 1.349926 2.0118446 2.1589775 2.9234695.8089714.9116249 1.5711937 1.984684 1.5941162 3.203289.0211792 1.1303215.0495224 2.4647903-.3489113 3.5227203-.6169052 1.6381416.1389961 3.1036644.5601997 4.8017197-1.4761047 1.6942749-4.0841293 5.4927635-3.3967972 7.6027184-3.6458244-6.2322807-7.4470863-9.5624657-19.0112247-10.6037941-1.2246628-.1102791-1.2600746-.4795914-2.4474373-.7991257-1.1873608-.319458-2.3138256-1.287365-2.342268-2.5165596-.0217113-.9348488.5972347-1.7871704 1.3670979-2.3179855.7697887-.5308189 1.6822472-.8041306 2.5663376-1.1087646 2.7795105-.9579201 5.5533485-2.4114113 7.1426983-4.8847771 2.0175171-3.1395912 1.8216629-7.4430923 1.0729065-10.9551735-.7321148.9422646-.1812496 3.2271919-.297596 4.4522247-.1590862 1.6761208-.5983715 3.3390007-1.5752048 4.7331047-1.2521915 1.7870941-3.2122135 2.9226341-5.1088448 4.0016708-3.1042652 1.7660599-6.2085285 3.5321236-9.3127947 5.2981873 1.557126 1.7079659 3.4834089 3.0775604 5.6080408 3.9872971 3.0539608 1.3076401 6.4195118 1.6465416 9.650032 2.4216232 3.2305202.7751579 6.5378208 2.137188 8.4545002 4.850811 1.0980949 1.5547028 1.7529755 3.5506592 3.3933144 4.5162201 1.4574966.8579178 3.3517075.6691818 4.8153305 1.516655 1.2720108.7365799 1.9999657 2.1209259 2.6618042 3.4334106 1.4667244 2.9083328 2.9334526 5.8166733 4.4001808 8.7250137-1.1636086-3.9392624-2.3272171-7.8786011-3.4908257-11.8178558-.1402471-.4746932-.2804983-.984703-.1281469-1.4556121z" fill="#fff" opacity=".1"/><path d="m79.8067932 65.6284485c-5.6364822 0-10.2057266 3.7156296-10.2057266 8.2991409s3.9471893 1.3177414 9.5836716 1.3177414c5.6364517 0 10.8277893 3.26577 10.8277893-1.3177414s-4.5692826-8.2991409-10.2057343-8.2991409z" fill="#f9b623"/><path d="m90.0136261 73.927002c0 .4470673-.0509415.8205261-.1471329 1.126091-.8714371 2.8520355-5.5965195.1924133-10.6837387.1924133-5.1494522 0-8.8842545 2.7275238-9.4897156-.2999344 0-.0056305 0-.0112915-.005661-.0169601-.0566101-.2829361-.0848923-.6111526-.0848923-1.0016098.0169907.2716446.0396118.543251.1188431.792244.056572.2546463.2319946.4923096.4753189.4470291.2376938-.0339508.4640198-.1980438.6733932-.3508453.2093735-.1527939.4131088-.333847.6111526-.5149307.7978745-.7130051 1.5731506-1.4712982 2.3993073-2.1786423.8261948-.7130051 1.725914-1.352417 2.7049026-1.8617172.9846191-.5093002 2.0767593-.8601456 3.219841-.8770981 1.1430435.0169525 2.2408447.3677979 3.2198334.8770981.9846191.5093002 1.8843384 1.1487122 2.7048645 1.8617172.8318558.701683 1.6071014 1.4656372 2.4049759 2.1786423.1980743.1810837.3961182.3565063.6111526.5149307.2093735.1528015.4357376.3168945.6733932.3508453.2433243.0452805.4130783-.1923828.4753189-.4470291.0792315-.248993.0962221-.5205995.1188433-.792244z" fill="#fdc443"/><path d="m89.9740143 74.7418671c-.0169601.1075134-.0509109.2093735-.1075211.3112259-.0113297.0283203-.0282822.0509415-.0509033.0792313-.0848999.1358032-.2603226.1867447-.4074554.1810837-.3112183-.0226212-.5488815-.1810837-.7809067-.3225555-.2376633-.1471329-.4526978-.3112259-.6733932-.4753189-.8431549-.6847229-1.6466827-1.4033966-2.4954987-2.0541306-.8544769-.6507721-1.7202835-1.2788849-2.6652908-1.7429047-.9393387-.4696884-1.9579086-.7695847-2.9878006-.7695847-1.0242386 0-2.0428391.2998962-2.9878464.7695847-.9449997.4640198-1.8108063 1.0921326-2.6596222 1.7372437-.8544769.656395-1.6523438 1.3750687-2.5011597 2.0597916-.2150345.164093-.430069.328186-.6677322.4753189-.2376556.1414719-.4753494.2999344-.7809067.3225555-.1528015.005661-.3225555-.0509109-.4074173-.1810837-.0452805-.0565796-.0792313-.1244812-.1075211-.1867523 0-.0056305 0-.0112915-.005661-.0169601-.0226593-.062233-.0396118-.1245117-.0509415-.1867447-.0509109-.2716141-.0452805-.5432205-.0339508-.8148651.0169907.2716446.0396118.543251.1188431.792244.056572.2546463.2319946.4923096.4753189.4470291.2376938-.0339508.4640198-.1980438.6733932-.3508453.2093735-.1527939.4131088-.333847.6111526-.5149307.7978745-.7130051 1.5731506-1.4712982 2.3993073-2.1786423.8261948-.7130051 1.725914-1.352417 2.7049026-1.8617172.9846191-.5093002 2.0767593-.8601456 3.219841-.8770981 1.1430435.0169525 2.2408447.3677979 3.2198334.8770981.9846191.5093002 1.8843384 1.1487122 2.7048645 1.8617172.8318558.701683 1.6071014 1.4656372 2.4049759 2.1786423.1980743.1810837.3961182.3565063.6111526.5149307.2093735.1528015.4357376.3168945.6733932.3508453.2433243.0452805.4130783-.1923828.4753189-.4470291.0792313-.2489929.0962219-.5205994.1188431-.792244.0056688.2716444.0169985.5432509-.0396116.814865z" fill="#f7c663"/><path d="m95.3957367 61.0041237c1.380661 3.9157372 5.0812073 6.1799049 8.2654343 5.0571709 3.184227-1.1227417-.0514221-3.0649529-1.4320831-6.98069-1.3806534-3.9157181-.3835068-8.3221664-3.5677338-7.1994286s-4.6462784 5.2072296-3.2656174 9.1229477z" fill="#f9b623"/><path d="m98.660675 51.8805542c.310585-.1095123.5825119-.1655998.8183517-.1736221 2.1948013-.0932121 1.5045471 3.840847 2.7506638 7.3750076 1.2613678 3.5773964 4.0710602 5.5038986 2.1161575 6.6660995-.0039139.0013809-.0078506.0027695-.0103989.0080872-.1826935.1086349-.4037781.2086868-.6750336.3043289.1845551-.0783463.3676987-.1605911.5212708-.2766266.1630478-.1016769.2851868-.2817612.1941223-.4397125-.08181-.1568069-.2512436-.2738495-.4086761-.3818741-.1574402-.1080246-.3331223-.2052155-.5074387-.2984467-.690773-.3796387-1.4074783-.7324905-2.1012421-1.1331673-.6977158-.3993149-1.3623123-.8677406-1.9559326-1.4231033-.5950089-.5592728-1.1062622-1.2320557-1.3980408-2.0220146-.2682114-.7982445-.2933807-1.6468391-.1793671-2.4517097.1126328-.8087845.3364487-1.5904579.6307983-2.3351402.2837067-.7497787.6245346-1.4754868.9244308-2.2044296.0772858-.1819649.1506424-.3625145.2080307-.5507126.054863-.1828804.1134109-.3803329.0787811-.5537529-.0281448-.18013-.2348328-.2398491-.4269867-.2207069-.1923825.0059432-.3852307.0606727-.5794904.1114959z" fill="#fdc443"/><path d="m99.2364731 51.7084732c.0788498-.0145569.1579285-.0159187.2425537-.0015411.0224457.0009308.0423203.0071716.0675125.0159607.1151352.0257111.1934967.1350975.2256012.2387009.060524.221756.0086517.4256744-.0327911.621521-.0440063.2011452-.1053238.390728-.1652603.5842438-.2691574.7534714-.5716019 1.4877396-.8157578 2.2368202-.2427979.7530251-.4670715 1.5083694-.5579605 2.2785378-.096199.7676239-.0550461 1.5486984.1972275 2.2641792.2508926.7115517.7087402 1.3457298 1.2665176 1.8871841.5538406.5428429 1.2022858.9904747 1.8583679 1.4221382.6653137.4328308 1.3600235.8110809 2.0436325 1.2330399.1666641.1091919.3333359.2183838.4937668.3474503.1564941.130455.3248062.2567673.4153671.463501.0413666.1047668.0436401.2365494-.026001.3273926-.0282135.045311-.06707.0855331-.1034012.1204376-.0039139.0013809-.0078506.0027695-.0103989.0080872-.0376816.0309906-.0767899.0580215-.1172562.0811386-.1762161.1018982-.3662872.1645203-.5577774.2231903.1845551-.0783463.3676987-.1605911.5212708-.2766266.1630478-.1016769.2851868-.2817612.1941223-.4397125-.08181-.1568069-.2512436-.2738495-.4086761-.3818741-.1574402-.1080246-.3331223-.2052155-.5074387-.2984467-.690773-.3796387-1.4074783-.7324905-2.1012421-1.1331673-.6977158-.3993149-1.3623123-.8677406-1.9559326-1.4231033-.5950089-.5592728-1.1062622-1.2320557-1.3980408-2.0220146-.2682114-.7982445-.2933807-1.6468391-.1793671-2.4517097.1126328-.8087845.3364487-1.5904579.6307983-2.3351402.2837067-.7497787.6245346-1.4754868.9244308-2.2044296.0772858-.1819649.1506424-.3625145.2080307-.5507126.054863-.1828804.1134109-.3803329.0787811-.5537529-.0281448-.18013-.2348328-.2398491-.4269867-.2207069-.1923828.0059433-.385231.0606728-.5794907.111496.1873249-.0704768.3732456-.1448787.5757984-.1720813z" fill="#f7c663"/><path d="m75.9569473 78.3929062c-4.6453476 0-8.4111252 2.9289627-8.4111252 6.5419922 0 1.8065262 2.7296982 1.7188873 4.523201 3.0756378 1.7934952 1.3567505 2.7156601 4.4453964 4.9971161 4.881012.4701691.0897751 7.3019333-4.3435898 7.3019333-7.9566498 0-3.6130295-3.7657776-6.5419922-8.4111252-6.5419922z" fill="#ffc94f"/><path d="m75.9569473 78.3929062c-4.6453476 0-8.4111252 2.9289627-8.4111252 6.5419922 0 3.61306 6.3454895-5.9389191 8.4111252 6.5419998.7584991 4.5830002 8.4111252-2.9289398 8.4111252-6.5419998 0-3.6130295-3.7657776-6.5419922-8.4111252-6.5419922z" fill="#f9b623"/><path d="m92.8389664 63.2450066c-3.0646515 0-5.5490265 1.9323082-5.5490265 4.3159142 0 1.191803 1.8008499 1.1339874 2.9840622 2.029068 1.1832199.8950806 1.7915878 2.9327316 3.2967224 3.2201233.3101807.0592194 4.8172607-2.8655777 4.8172607-5.2491913 0-2.383606-2.484375-4.3159142-5.5490188-4.3159142z" fill="#ffc94f"/><path d="m92.8389664 63.2450066c-3.0646515 0-5.5490265 1.9323082-5.5490265 4.3159142 0 2.3836136 4.1862717-3.9180527 5.5490265 4.3159103.5003967 3.0235138 5.5490189-1.9322968 5.5490189-4.3159103-.0000001-2.383606-2.4843751-4.3159142-5.5490189-4.3159142z" fill="#f9b623"/><path d="m97.0618362 75.2021255c-.334053-.2976837-.4287415-.6485596-.3742828-.976265-1.0808105-.2646179-2.2128067-.4418259-3.3426361-.5588303-4.5789795.4258347-9.6166916 3.4602661-9.6166916 6.9502411 0 3.684845 3.862175 6.6719894 8.6264038 6.6719894 2.6303177 0 1.0947952-3.2168884 2.6770554-4.6526337 1.2836685-1.1647797 6.9109497-.5843964 6.9109497-2.2348709 0-.0427933-.0059509-.0848389-.0072098-.1274796-1.2109299-2.041702-3.1099396-3.5005796-4.8735886-5.072151z" fill="#ffc94f"/><path d="m91.5409546 73.7650528c-4.5082245 1.5407639-7.8127289 3.1673813-7.8127289 6.8522186 0 3.684845 3.8621674 6.6719894 8.6264114 6.6719894 3.2583694 0-7.0359955-7.354454-1.3491211-9.5263519 3.9009552-1.4898224 5.7953186.031311 9.9755325 2.8543625 3.0537034 2.0622711-1.3896789-9.6035766-9.4400939-6.8522186z" fill="#f9b623"/><path d="m85.5158081 65.9391632c6.0691452.2864532 11.1352615-2.5769157 11.3154907-6.3954926.1802292-3.8185463-4.5936737-7.146347-10.6628189-7.4328003-6.0691147-.2864494-2.2009659 2.0023956-2.3811951 5.8209419-.1802291 3.8185807-4.3405914 7.7209054 1.7285233 8.007351z" fill="#ffc94f"/><path d="m85.5168457 65.940155c-.9864502-.0463791-1.7047348-.187149-2.2117386-.4133072-2.6066208-1.1427231.3314667-4.3966103.4806824-7.5953865.1533356-3.1810684-2.5064545-5.2998581.1088715-5.7526016.5252686-.088459 1.2630768-.1160774 2.2745972-.066925-.4206696.0136986-.8380966.0165977-1.2507019.058567-.2065125.0138702-.4125824.0419922-.607132.0946999-.1876526.0453796-.402916.1201935-.4488602.2430344-.053566.1087761.0309067.2916222.1466217.4484253.1051865.1607361.2457352.313179.3863068.4655991l.8714828.899498c.5834427.6019135 1.1402283 1.2618294 1.5473251 2.0372467.4031754.7648239.6090775 1.7180557.3807449 2.5962563-.2108612.8668938-.6752396 1.6207237-1.1738663 2.3078613-.5131302.6804657-1.0743713 1.3089828-1.6252136 1.926445-.2789078.3124046-.5506516.6245995-.7789307.9567719-.2250748.3213654-.4441223.7174911-.302124 1.0233307.0584488.1515427.2195053.274765.3970795.3582001.1743546.0942535.3726196.1556015.5741119.206131.3958589.1013029.814911.1483152 1.2307435.2061536z" fill="#f9b623"/><path d="m85.5168457 65.940155c-.4211121-.0005493-.8422241-.0011063-1.262207-.0766678-.2044983-.0325928-.4200058-.0755386-.6226501-.161705-.1083374-.0393143-.227951-.0960846-.3268814-.1749344-.0841675-.0650635-.1545944-.1448364-.211441-.2464905-.1251678-.22789-.1017838-.4962769-.0337601-.709053.0751114-.2130051.1721268-.4124069.287529-.5946198.2271194-.3678093.4873657-.7046089.7478333-1.034256.5172806-.6627846 1.0679092-1.2873611 1.5385208-1.9593201.4742508-.6685066.8935394-1.3815956 1.0685806-2.1438408.2072067-.7597427.0385971-1.5536156-.3164902-2.2664719-.3447342-.7239075-.8757477-1.3596802-1.4102173-1.9917641l-.8231888-.9509926c-.1336899-.1598091-.2675934-.3267365-.3844833-.5191994-.0566177-.0945168-.1134415-.1961479-.1493683-.312748-.0287857-.1168327-.0589676-.2764435.0260925-.4041061.0715027-.1058083.1586533-.1693306.2499466-.215126.1230164-.0575409.2617035-.072731.3785172-.1015396.2129745-.0354919.426857-.0424538.6409912-.042263.4208832-.0065804.8396988.0332947 1.2550888.0768776-.4206696.0136986-.8380966.0165977-1.2507019.058567-.2065125.0138702-.4125824.0419922-.607132.0946999-.1876526.0453796-.402916.1201935-.4488602.2430344-.053566.1087761.0309067.2916222.1466217.4484253.1051865.1607361.2457352.313179.3863068.4655991l.8714828.899498c.5834427.6019135 1.1402283 1.2618294 1.5473251 2.0372467.4031754.7648239.6090775 1.7180557.3807449 2.5962563-.2108612.8668938-.6752396 1.6207237-1.1738663 2.3078613-.5131302.6804657-1.0743713 1.3089828-1.6252136 1.926445-.2789078.3124046-.5506516.6245995-.7789307.9567719-.2250748.3213654-.4441223.7174911-.302124 1.0233307.0584488.1515427.2195053.274765.3970795.3582001.1743546.0942535.3726196.1556015.5741119.206131.3958589.1013031.814911.1483154 1.2307435.2061538z" fill="#f7c663"/></svg>