<svg id="Capa_1" enable-background="new 0 0 512 512" height="512" viewBox="0 0 512 512" width="512" xmlns="http://www.w3.org/2000/svg"><g><path d="m422.504 114.472h-333.008c-5.747 0-10.407-4.659-10.407-10.407v-29.138c0-5.747 4.659-10.407 10.407-10.407h333.008c5.747 0 10.407 4.659 10.407 10.407v29.138c0 5.747-4.66 10.407-10.407 10.407z" fill="#665e66"/><path d="m401.691 64.52v49.951h20.813c5.747 0 10.407-4.659 10.407-10.407v-29.137c0-5.747-4.659-10.407-10.407-10.407z" fill="#544f57"/><path d="m99.902 114.472 20.302 387.765c.287 5.473 4.808 9.763 10.288 9.763h251.016c5.48 0 10.001-4.29 10.288-9.763l20.302-387.765z" fill="#f6f9f9"/><path d="m382.959 114.472-20.813 397.528h19.362c5.48 0 10.001-4.29 10.288-9.763l20.302-387.765z" fill="#f1f4f6"/><path d="m310.519 3.432-54.519 23.625h-135.285c-5.747 0-10.407 4.659-10.407 10.407v27.056h291.382v-54.113c.001-5.748-4.658-10.407-10.405-10.407h-64.215c-5.693 0-11.326 1.168-16.551 3.432z" fill="#665e66"/><path d="m110.309 43.707h291.382v20.813h-291.382z" fill="#544f57"/><path d="m88.186 202.501 13.127 187.526c.378 5.397 4.866 9.582 10.277 9.582h288.82c5.41 0 9.899-4.185 10.277-9.582l13.127-187.526c.417-5.958-4.304-11.021-10.277-11.021h-315.074c-5.973 0-10.694 5.063-10.277 11.021z" fill="#f1d0a5"/><path d="m387.122 191.48-9.366 208.13h22.654c5.41 0 9.899-4.185 10.277-9.582l13.127-187.526c.417-5.958-4.304-11.021-10.277-11.021h-26.415z" fill="#f1b986"/><g><path d="m300.151 310.262c16.256-16.256 16.256-42.612 0-58.868s-42.612-16.256-58.868 0c-5.363 5.363-24.071 24.071-29.434 29.434-16.256 16.256-16.256 42.612 0 58.868s42.612 16.256 58.868 0c5.363-5.363 24.071-24.071 29.434-29.434z" fill="#b78b7a"/></g><path d="m287.705 280.284c3.835-6.624 7.476-12.895 17.398-22.907-1.439-2.106-3.083-4.113-4.953-5.983-1.866-1.866-3.871-3.508-5.973-4.946-11.36 11.454-15.681 18.899-19.846 26.093-3.902 6.739-7.588 13.106-17.91 23.428-10.322 10.323-16.689 14.009-23.428 17.91-7.194 4.165-14.639 8.486-26.091 19.844 1.438 2.102 3.079 4.107 4.946 5.973 1.869 1.869 3.877 3.513 5.983 4.952 10.011-9.92 16.282-13.561 22.905-17.396 7.305-4.229 14.858-8.602 26.612-20.356 11.755-11.754 16.128-19.307 20.357-26.612z" fill="#aa7a63"/><g><g><path d="m381.919 345.938h-12.487c-4.267 0-7.726-3.459-7.726-7.726s3.459-7.726 7.726-7.726h12.487c4.267 0 7.726 3.459 7.726 7.726s-3.459 7.726-7.726 7.726z" fill="#b78b7a"/></g></g><g><path d="m381.919 379.238h-22.894c-4.267 0-7.726-3.459-7.726-7.726 0-4.268 3.459-7.726 7.726-7.726h22.894c4.267 0 7.726 3.459 7.726 7.726 0 4.268-3.459 7.726-7.726 7.726z" fill="#b78b7a"/></g><g><g><path d="m142.569 345.938h-12.487c-4.267 0-7.726-3.459-7.726-7.726s3.459-7.726 7.726-7.726h12.487c4.267 0 7.726 3.459 7.726 7.726s-3.459 7.726-7.726 7.726z" fill="#b78b7a"/></g></g><g><g><path d="m152.976 379.238h-22.894c-4.267 0-7.726-3.459-7.726-7.726 0-4.268 3.459-7.726 7.726-7.726h22.894c4.267 0 7.726 3.459 7.726 7.726 0 4.268-3.459 7.726-7.726 7.726z" fill="#b78b7a"/></g></g></g></svg>