<svg height="511pt" viewBox="1 -43 511.999 511" width="511pt" xmlns="http://www.w3.org/2000/svg"><path d="m234.570312 28.949219h258.023438v368.796875h-258.023438zm0 0" fill="#39aaff"/><path d="m468.089844 28.949219h24.507812v368.796875h-24.507812zm0 0" fill="#2584f6"/><path d="m234.566406 98.925781h258.03125v215.929688h-258.03125zm0 0" fill="#ff9c26"/><path d="m428.535156 198.078125c0 35.871094-29.078125 64.953125-64.953125 64.953125-35.871093 0-64.953125-29.082031-64.953125-64.953125 0-35.875 29.082032-64.953125 64.953125-64.953125 35.875 0 64.953125 29.078125 64.953125 64.953125zm0 0" fill="#fff0d0"/><path d="m468.085938 98.925781h24.511718v215.929688h-24.511718zm0 0" fill="#f4810e"/><g fill="#95c6df"><path d="m493.195312 38.109375h-259.226562c-10.382812 0-18.804688-8.421875-18.804688-18.804687 0-10.386719 8.421876-18.804688 18.804688-18.804688h259.226562c10.382813 0 18.804688 8.417969 18.804688 18.804688 0 10.382812-8.417969 18.804687-18.804688 18.804687zm0 0"/><path d="m493.195312 426.195312h-259.226562c-10.382812 0-18.804688-8.417968-18.804688-18.804687s8.421876-18.804687 18.804688-18.804687h259.226562c10.382813 0 18.804688 8.417968 18.804688 18.804687s-8.417969 18.804687-18.804688 18.804687zm0 0"/><path d="m74.863281 134.746094 5.328125 48.425781c1.011719 9.222656 8.804688 16.203125 18.082032 16.203125h15.855468c9.277344 0 17.066406-6.984375 18.082032-16.203125l5.324218-48.425781c1.183594-10.769532-7.25-20.179688-18.082031-20.179688h-26.503906c-10.835938 0-19.269531 9.410156-18.085938 20.179688zm0 0"/></g><path d="m114.394531 154.925781h-16.390625c-4.265625 0-7.726562-3.460937-7.726562-7.726562s3.460937-7.726563 7.726562-7.726563h16.390625c4.265625 0 7.726563 3.460938 7.726563 7.726563s-3.460938 7.726562-7.726563 7.726562zm0 0" fill="#4d78a0"/><path d="m19.40625 212.171875h349.636719v185.574219h-349.636719zm0 0" fill="#ff5656"/><path d="m344.535156 212.171875h24.507813v185.574219h-24.507813zm0 0" fill="#f72d2d"/><path d="m369.640625 221.332031h-350.835937c-10.386719 0-18.804688-8.417969-18.804688-18.804687 0-10.386719 8.417969-18.804688 18.804688-18.804688h350.835937c10.386719 0 18.804687 8.417969 18.804687 18.804688 0 10.386718-8.417968 18.804687-18.804687 18.804687zm0 0" fill="#b9deed"/><path d="m369.640625 426.195312h-350.835937c-10.386719 0-18.804688-8.417968-18.804688-18.804687s8.417969-18.804687 18.804688-18.804687h350.835937c10.386719 0 18.804687 8.417968 18.804687 18.804687s-8.417968 18.804687-18.804687 18.804687zm0 0" fill="#b9deed"/><path d="m269.339844 266.878906c0-6.195312-5.023438-11.21875-11.21875-11.21875h-127.828125c-6.195313 0-11.21875 5.023438-11.21875 11.21875 0 5.511719-3.488281 10.417969-8.695313 12.238282-10.691406 3.738281-18.359375 13.914062-18.359375 25.882812 0 12.203125 7.972657 22.542969 18.996094 26.09375 4.742187 1.53125 8.054687 5.800781 8.054687 10.78125v.378906c0 6.195313 5.023438 11.21875 11.21875 11.21875h127.832032c6.195312 0 11.21875-5.023437 11.21875-11.21875v-.273437c0-5.015625 3.363281-9.304688 8.152344-10.792969 11.164062-3.472656 19.269531-13.882812 19.269531-26.1875 0-12.109375-7.847657-22.382812-18.734375-26.015625-5.199219-1.738281-8.6875-6.621094-8.6875-12.105469zm0 0" fill="#3ad391"/></svg>