<svg height="512pt" viewBox="0 -37 512 512" width="512pt" xmlns="http://www.w3.org/2000/svg"><path d="m17.789062 261.960938.152344 20.429687 21.871094 128.242187c2.660156 15.589844 16.171875 26.992188 31.988281 26.992188h58.191407c15.816406 0 29.328124-11.402344 31.988281-26.992188l8.671875-50.84375c1.496094-8.773437 14.09375-8.773437 15.589844 0l8.671874 50.84375c2.660157 15.589844 16.171876 26.992188 31.988282 26.992188h58.195312c15.816406 0 29.328125-11.402344 31.988282-26.992188l8.671874-50.84375c1.496094-8.773437 14.09375-8.773437 15.589844 0l8.671875 50.84375c2.660157 15.589844 16.171875 26.992188 31.988281 26.992188h58.191407c15.816406 0 29.328125-11.402344 31.988281-26.992188l21.875-128.242187.148438-20.429687zm0 0" fill="#d1a190"/><path d="m482.667969 228.816406h-453.335938v-202.730468c0-14.402344 11.675781-26.08203175 26.082031-26.08203175h401.171876c14.40625 0 26.082031 11.67968775 26.082031 26.08203175zm0 0" fill="#d1a190"/><path d="m482.667969 26.085938v202.726562h-35.910157v-202.726562c0-14.402344-11.683593-26.085938-26.082031-26.085938h35.910157c14.398437 0 26.082031 11.683594 26.082031 26.085938zm0 0" fill="#c78e7a"/><path d="m494.0625 282.394531-21.875 128.234375c-2.660156 15.589844-16.167969 26.996094-31.984375 26.996094h-33.363281c15.816406 0 29.324218-11.40625 31.992187-26.996094l21.867188-128.234375zm0 0" fill="#c78e7a"/><g fill="#f9b276"><path d="m97.183594 131.5s-67.410156-7.488281-79.394532 100.367188h158.789063c-11.984375-107.855469-79.394531-100.367188-79.394531-100.367188zm0 0"/><path d="m256 131.5s-67.410156-7.488281-79.394531 100.367188h158.789062c-11.984375-107.855469-79.394531-100.367188-79.394531-100.367188zm0 0"/><path d="m414.816406 131.5s-67.410156-7.488281-79.394531 100.367188h158.789063c-11.984376-107.855469-79.394532-100.367188-79.394532-100.367188zm0 0"/></g><path d="m176.578125 231.863281h-38.644531c-7.808594-70.3125-39.183594-91.605469-60.066406-97.902343 11.148437-3.367188 19.3125-2.464844 19.3125-2.464844s67.410156-7.484375 79.398437 100.367187zm0 0" fill="#efa065"/><path d="m335.390625 231.863281h-38.640625c-7.804688-70.3125-39.179688-91.605469-60.0625-97.902343 11.148438-3.367188 19.3125-2.464844 19.3125-2.464844s67.410156-7.484375 79.390625 100.367187zm0 0" fill="#efa065"/><path d="m494.207031 231.863281h-38.636719c-7.804687-70.3125-39.183593-91.605469-60.066406-97.902343 11.148438-3.367188 19.316406-2.464844 19.316406-2.464844s67.40625-7.484375 79.386719 100.367187zm0 0" fill="#efa065"/><path d="m506.871094 282.390625h-501.742188c-2.832031 0-5.128906-2.292969-5.128906-5.125v-43.328125c0-2.832031 2.296875-5.128906 5.128906-5.128906h501.742188c2.832031 0 5.128906 2.296875 5.128906 5.128906v43.328125c0 2.832031-2.296875 5.125-5.128906 5.125zm0 0" fill="#f9efef"/><path d="m506.871094 282.390625h-24.203125v-53.582031h24.203125c2.832031 0 5.128906 2.296875 5.128906 5.128906v43.324219c0 2.835937-2.296875 5.128906-5.128906 5.128906zm0 0" fill="#efe2dd"/></svg>