<svg id="Flat" height="512" viewBox="0 0 512 512" width="512" xmlns="http://www.w3.org/2000/svg"><path d="m280 184h120v160h-120z" fill="#2ea5c5"/><path d="m280 104h120v80h-120z" fill="#057998"/><g fill="#fdc01e"><path d="m88 456h16v32h-16z"/><path d="m120 456h16v32h-16z"/><path d="m152 456h16v32h-16z"/><path d="m184 456h16v32h-16z"/><path d="m216 456h16v32h-16z"/><path d="m248 456h16v32h-16z"/><path d="m280 456h16v32h-16z"/><path d="m312 456h16v32h-16z"/></g><path d="m104 288h-64c-8.837 0-16-10.745-16-24s7.163-24 16-24h64z" fill="#ebae48"/><path d="m104 128h-64c-8.837 0-16-10.745-16-24s7.163-24 16-24h64z" fill="#ebae48"/><path d="m344 104v360h-272v-360c0-44.183 25.072-80 56-80h272z" fill="#0093b9"/><path d="m453.43 288c-7.13 32.46-28.36 56-53.43 56-30.93 0-56-35.82-56-80s25.07-80 56-80c25.07 0 46.3 23.54 53.43 56z" fill="#5db9d3"/><path d="m472 288h-56c-8.837 0-16-10.745-16-24s7.163-24 16-24h56z" fill="#ebae48"/><path d="m72 392h272v32h-272z" fill="#fdc01e"/><path d="m72 424h272v40h-272z" fill="#f79726"/><ellipse cx="472" cy="264" fill="#cf8a29" rx="16" ry="24"/><path d="m453.43 128c-7.13 32.46-28.36 56-53.43 56-30.93 0-56-35.82-56-80s25.07-80 56-80c25.07 0 46.3 23.54 53.43 56z" fill="#0085aa"/><path d="m472 128h-56c-8.837 0-16-10.745-16-24s7.163-24 16-24h56z" fill="#ebae48"/><ellipse cx="472" cy="104" fill="#cf8a29" rx="16" ry="24"/></svg>