<svg id="Capa_1" enable-background="new 0 0 512 512" height="512" viewBox="0 0 512 512" width="512" xmlns="http://www.w3.org/2000/svg"><g><path d="m271.849 137v60c0 8.28-6.72 15-15 15s-15-6.72-15-15v-60c0-8.28 6.72-15 15-15s15 6.72 15 15z" fill="#c8feff"/><path d="m271.849 137v60c0 8.28-6.72 15-15 15v-90c8.28 0 15 6.72 15 15z" fill="#98e1e2"/><path d="m322.474 209.887c-7.117-4.24-9.449-13.447-5.21-20.563 13.642-22.899 30.12-44.072 48.979-62.93 5.857-5.858 15.355-5.858 21.213 0s5.858 15.355 0 21.213c-17.103 17.103-32.047 36.304-44.418 57.07-4.239 7.115-13.445 9.451-20.564 5.21z" fill="#98e1e2"/><path d="m168.963 204.677c-12.372-20.767-27.317-39.968-44.419-57.071-5.858-5.858-5.858-15.355 0-21.213 5.857-5.858 15.355-5.858 21.213 0 18.857 18.857 35.336 40.03 48.979 62.929 4.24 7.117 1.907 16.324-5.209 20.564-7.118 4.24-16.324 1.909-20.564-5.209z" fill="#c8feff"/><path d="m314.879 392-24.36-12.01 39.62-17.99c27.75-24.93 61.71-71.58 61.71-165 0-8.28-6.72-15-15-15h-240c-8.28 0-15 6.72-15 15 0 62.28 12.69 125.2 60.89 165 9.17 7.6 17.44 12.72 24.46 17.43l-8.38 12.57-44.45 66.68c-4.37 6.56-2.88 15.56 3.48 20.32 28.78 21.59 63.02 33 99 33s70.21-11.41 99-33c6.38-4.79 7.84-13.78 3.48-20.32z" fill="#fff5f5"/><path d="m359.329 458.68c4.36 6.54 2.9 15.53-3.48 20.32-28.79 21.59-63.02 33-99 33v-330h120c8.28 0 15 6.72 15 15 0 93.42-33.96 140.07-61.71 165l-39.62 17.99 24.36 12.01z" fill="#efe2dd"/><path d="m421.849 77c-6.627-4.971-7.971-14.373-3-21l18-24c4.971-6.627 14.373-7.971 21-3s7.971 14.373 3 21l-18 24c-4.945 6.595-14.342 7.994-21 3z" fill="#ffb64c"/><path d="m314.879 392h-148.03c-8.28 0-15-6.72-15-15s6.72-15 15-15h69.19l-23.42-70.26c-2.62-7.86 1.63-16.35 9.49-18.97s16.35 1.63 18.97 9.49l15.77 47.31 15.77-47.31c2.62-7.86 11.12-12.11 18.97-9.49 7.86 2.62 12.11 11.11 9.49 18.97l-23.42 70.26h52.48c-8.81 7.92-15.26 30-15.26 30z" fill="#98e1e2"/><path d="m314.879 392h-58.03v-62.43l15.77-47.31c2.62-7.86 11.12-12.11 18.97-9.49 7.86 2.62 12.11 11.11 9.49 18.97l-23.42 70.26h52.48c-8.81 7.92-15.26 30-15.26 30z" fill="#51c0c2"/><path d="m271.849 15v32c0 8.28-6.72 15-15 15s-15-6.72-15-15v-32c0-8.28 6.72-15 15-15s15 6.72 15 15z" fill="#fed843"/><path d="m271.849 15v32c0 8.28-6.72 15-15 15v-62c8.28 0 15 6.72 15 15z" fill="#ffb64c"/><path d="m367.849 149c-26.527-19.896-31.899-57.468-12-84l27-36c4.971-6.626 14.373-7.971 21-3l72 54c6.627 4.971 7.971 14.373 3 21l-27 36c-19.787 26.382-57.452 31.911-84 12z" fill="#e63950"/><path d="m69.151 74-18-24c-4.971-6.627-3.627-16.029 3-21 6.628-4.971 16.03-3.627 21 3l18 24c4.971 6.627 3.627 16.029-3 21-6.59 4.941-15.999 3.668-21-3z" fill="#fed843"/><path d="m301.849 32h-90c-8.28 0-15 6.72-15 15v45c0 33.08 26.92 60 60 60s60-26.92 60-60v-45c0-8.28-6.72-15-15-15z" fill="#ff6c6c"/><path d="m316.849 47v45c0 33.08-26.92 60-60 60v-120h45c8.28 0 15 6.72 15 15z" fill="#e63950"/><path d="m60.151 137-27-36c-4.971-6.627-3.627-16.029 3-21l72-54c6.628-4.971 16.029-3.626 21 3l27 36c19.896 26.529 14.532 64.102-12 84-26.567 19.926-64.225 14.367-84-12z" fill="#ff6c6c"/></g></svg>