<svg height="512pt" viewBox="-110 0 512 512.00077" width="512pt" xmlns="http://www.w3.org/2000/svg"><path d="m28.921875.535156-15.527344 5.847656c-4.289062 1.617188-6.453125 6.402344-4.839843 10.6875l105.304687 279.585938c1.617187 4.289062 6.402344 6.457031 10.691406 4.839844l15.527344-5.847656c4.285156-1.617188 6.453125-6.402344 4.839844-10.6875l-105.308594-279.585938c-1.613281-4.289062-6.398437-6.457031-10.6875-4.839844zm0 0" fill="#c38c66"/><path d="m237.9375 300.4375c-29.738281 0-53.929688-24.195312-53.929688-53.929688v-33.183593c0-29.738281 24.191407-53.929688 53.929688-53.929688 29.734375 0 53.925781 24.191407 53.925781 53.929688v33.183593c0 29.734376-24.195312 53.929688-53.925781 53.929688zm0-116.152344c-16.011719 0-29.039062 13.027344-29.039062 29.035156v33.1875c0 16.011719 13.027343 29.039063 29.039062 29.039063 16.007812 0 29.035156-13.027344 29.035156-29.039063v-33.1875c0-16.007812-13.027344-29.035156-29.035156-29.035156zm0 0" fill="#f9eac7"/><path d="m208.898438 246.507812v-33.183593c0-14.496094 10.71875-26.554688 24.625-28.703125.605468-8.546875 1.308593-16.972656 2.117187-25.175782-28.664063 1.21875-51.632813 24.917969-51.632813 53.875v33.1875c0 26.8125 19.691407 49.121094 45.359376 53.242188.101562-1.472656.273437-3 .273437-4.492188 0-.316406.011719-8.183593.21875-20.855468-12.066406-3.523438-20.960937-14.707032-20.960937-27.894532zm0 0" fill="#f4dbb3"/><path d="m8.273438 97.167969c-5.421876 0-9.292969 5.09375-8.035157 10.367187 13.6875 57.28125 13.6875 187.726563 13.6875 187.726563 0 16.242187 7.925781 31.464843 21.234375 40.777343l47.578125 33.304688c8.871094 6.210938 14.15625 16.359375 14.15625 27.1875v57.390625l-3.316406 9.949219c-1.402344 4.203125-4.628906 7.550781-8.777344 9.105468l-28.160156 10.558594c-5.730469 2.152344-9.527344 7.628906-9.527344 13.753906v6.414063c0 4.582031 3.714844 8.296875 8.296875 8.296875h116.152344c4.582031 0 8.296875-3.714844 8.296875-8.296875v-6.414063c0-6.125-3.796875-11.601562-9.527344-13.753906l-28.175781-10.5625c-4.152344-1.558594-7.382812-4.910156-8.78125-9.121094l-3.296875-9.929687v-57.390625c0-10.828125 5.285156-20.976562 14.15625-27.1875l47.578125-33.304688c13.308594-9.3125 21.234375-24.535156 21.234375-40.777343 0 0 0-130.445313 13.6875-187.726563 1.257813-5.273437-2.613281-10.367187-8.035156-10.367187zm0 0" fill="#f9eac7"/><path d="m113.859375 296.65625c1.617187 4.289062 6.402344 6.453125 10.691406 4.839844l15.527344-5.847656c4.285156-1.617188 6.453125-6.402344 4.839844-10.691407l-70.730469-187.789062h-35.464844zm0 0" fill="#e2a975"/><path d="m70.824219 154.066406c-32.398438 32.398438-32.398438 84.929688 0 117.332032l112.921875-112.921876c2.460937-2.460937 2.332031-6.519531-.316406-8.785156-32.59375-27.953125-81.738282-26.492187-112.605469 4.375zm0 0" fill="#ffc269"/><path d="m88.265625 253.960938c-11.019531-11.007813-17.082031-25.65625-17.082031-41.230469 0-15.570313 6.0625-30.210938 17.082031-41.222657 11.007813-11.019531 25.648437-17.078124 41.222656-17.078124s30.21875 6.058593 41.230469 17.078124l-11.730469 11.730469c-7.882812-7.882812-18.359375-12.21875-29.5-12.21875s-21.617187 4.335938-29.492187 12.21875c-7.882813 7.875-12.21875 18.351563-12.21875 29.492188s4.335937 21.617187 12.21875 29.5zm0 0" fill="#ffa95f"/><path d="m8.273438 97.167969c-5.421876 0-9.292969 5.09375-8.035157 10.367187 13.6875 57.277344 13.6875 187.722656 13.6875 187.722656 0 16.246094 7.925781 31.46875 21.234375 40.78125l47.578125 33.304688c8.871094 6.210938 14.15625 16.359375 14.15625 27.1875v57.390625l-3.316406 9.949219c-1.402344 4.203125-4.625 7.550781-8.777344 9.105468l-28.15625 10.558594c-5.734375 2.148438-9.53125 7.628906-9.53125 13.75v6.417969c0 4.582031 3.714844 8.296875 8.296875 8.296875h58.078125v-136.152344c0-13.863281-4.960937-27.269531-13.980469-37.796875l-21.820312-25.449219c-9.023438-10.527343-13.980469-23.933593-13.980469-37.796874v-177.636719zm0 0" fill="#f4dbb3"/><path d="m63.707031 263.164062v-100.976562c-22.804687 29.683594-22.808593 71.292969 0 100.976562zm0 0" fill="#ffa95f"/><path d="m163.238281 205.027344c-24.90625 0-24.90625-16.59375-49.808593-16.59375-24.886719 0-24.886719 16.59375-49.773438 16.59375-14.914062 0-20.910156-5.957032-28.675781-10.726563-3.328125-2.046875-7.582031.488281-7.355469 4.386719 2.839844 48.476562 2.894531 93.414062 2.894531 96.574219 0 10.816406 5.292969 20.980469 14.15625 27.183593l47.578125 33.304688.398438.28125c12.484375 8.832031 29.183594 8.832031 41.671875 0l.394531-.28125 47.578125-33.304688c8.863281-6.203124 14.15625-16.367187 14.15625-27.183593 0-3.164063.058594-48.109375 2.894531-96.59375.230469-3.898438-4.019531-6.429688-7.351562-4.390625-7.796875 4.773437-13.792969 10.75-28.757813 10.75zm0 0" fill="#e5646e"/><path d="m99.503906 338.054688-21.816406-25.453126c-9.023438-10.527343-13.980469-23.933593-13.980469-37.796874v-69.78125c-.019531 0-.03125 0-.050781 0-14.914062 0-20.910156-5.953126-28.675781-10.726563-3.328125-2.042969-7.582031.488281-7.355469 4.390625 2.839844 48.476562 2.894531 93.410156 2.894531 96.570312 0 10.820313 5.292969 20.984376 14.15625 27.1875l47.578125 33.304688.398438.28125c5.742187 4.0625 12.601562 6.265625 19.308594 6.589844-2.121094-8.949219-6.386719-17.488282-12.457032-24.566406zm0 0" fill="#db4655"/><path d="m113.253906 188.410156c-24.886718 0-24.886718 16.613282-49.773437 16.613282-7.078125 0-12.113281-1.265626-16.316407-3.183594-3.023437 22.734375 3.296876 46.46875 19.097657 64.917968 2.269531 2.648438 6.332031 2.789063 8.796875.320313l67.625-67.542969c-8.054688-4.832031-14.125-11.125-29.429688-11.125zm0 0" fill="#db4655"/><path d="m121.78125 453.921875h-16.589844c-9.164062 0-16.59375-7.425781-16.59375-16.589844 0-9.164062 7.429688-16.59375 16.59375-16.59375h16.589844c9.164062 0 16.59375 7.429688 16.59375 16.59375 0 9.164063-7.429688 16.589844-16.59375 16.589844zm0 0" fill="#f9eac7"/><path d="m144.914062 284.957031-36.265624-96.285156c-14.800782 1.453125-19.640626 9.546875-30.269532 13.78125l35.480469 94.203125c1.617187 4.289062 6.402344 6.453125 10.691406 4.839844l15.527344-5.847656c4.285156-1.617188 6.453125-6.402344 4.835937-10.691407zm0 0" fill="#db4655"/><path d="m63.707031 162.1875v-65.019531h-24.984375l24.65625 65.457031zm0 0" fill="#d19a6e"/></svg>