<svg height="464pt" viewBox="-64 0 464 464.0804" width="464pt" xmlns="http://www.w3.org/2000/svg"><path d="m128.039062 96.082031h-48v112l24 24v200h208v-200l24-24v-112zm0 0" fill="#f1b355"/><path d="m324.472656 96.082031c-22.300781 135.402344-102.878906 254.210938-220.433594 325.015625v10.984375h208v-200l24-24v-112zm0 0" fill="#f09c57"/><path d="m80.039062 64.082031h256v32h-256zm0 0" fill="#e6e6e6"/><path d="m104.039062 432.082031h208v32h-208zm0 0" fill="#afaab0"/><path d="m80.039062 32.082031c20.324219.019531 38.433594 12.835938 45.210938 32h33.191406c-8.179687-40.28125-45.550781-67.808593-86.441406-63.675781-40.890625 4.128906-72 38.574219-71.9609375 79.675781v16h31.9999995v-16c0-26.511719 21.492188-48 48-48zm0 0" fill="#e37c55"/><path d="m125.25 64.082031c-7.839844-21.972656-30.339844-35.125-53.332031-31.179687-22.988281 3.949218-39.8125 23.851562-39.878907 47.179687v16h48v-32zm0 0" fill="#f1b355"/><path d="m128.039062 80.082031v16h32v-16c.003907-5.375-.53125-10.734375-1.597656-16h-33.191406c1.835938 5.132813 2.78125 10.542969 2.789062 16zm0 0" fill="#d36157"/><path d="m128.039062 80.082031c-.007812-5.457031-.953124-10.867187-2.789062-16h-45.210938v32h48zm0 0" fill="#f09c57"/><g fill="#f6c869"><path d="m240.039062 160.078125 16.003907-48.003906 48 16.003906-16 48.003906zm0 0"/><path d="m96.039062 152.082031 40-40 39.996094 40-39.996094 40zm0 0"/><path d="m176.039062 144.082031h64v64h-64zm0 0"/></g><path d="m256.039062 208.082031c30.929688 0 56 25.070313 56 56 0 30.925781-25.070312 56-56 56-30.925781 0-56-25.074219-56-56 0-30.929687 25.074219-56 56-56zm0 0" fill="#e37c55"/><path d="m256.039062 240.082031c13.257813 0 24 10.742188 24 24 0 13.253907-10.742187 24-24 24-13.253906 0-24-10.746093-24-24 0-13.257812 10.746094-24 24-24zm0 0" fill="#f1b355"/><path d="m120.039062 304.078125 16-64 64 16-16 64zm0 0" fill="#f6c869"/></svg>