<svg height="512pt" viewBox="-118 0 512 512.0005" width="512pt" xmlns="http://www.w3.org/2000/svg"><path d="m120.828125 1.15625c2.988281-1.542969 6.523437-1.542969 9.515625 0 12.496094 6.449219 45.296875 27.3125 45.296875 68.675781 0 21.378907-12.511719 41.714844-12.511719 41.714844h-75.085937s-12.511719-20.335937-12.511719-41.714844c-.003906-41.363281 32.800781-62.226562 45.296875-68.675781zm0 0" fill="#ffe046"/><path d="m164.816406 31.96875c.253906 2.160156.398438 4.351562.398438 6.578125 0 31.101563-25.214844 56.316406-56.316406 56.316406-11.640626 0-22.457032-3.535156-31.4375-9.585937 3.511718 14.78125 10.582031 26.269531 10.582031 26.269531h75.082031s12.515625-20.335937 12.515625-41.714844c0-15.335937-4.511719-27.851562-10.824219-37.863281zm0 0" fill="#ffd508"/><path d="m120.050781 64.464844c3.371094-2.164063 7.699219-2.164063 11.070313 0 6.585937 4.230468 16.710937 13.222656 16.710937 28.542968 0 9.5-5.5625 18.539063-5.5625 18.539063h-33.371093s-5.5625-9.039063-5.5625-18.539063c.003906-15.320312 10.125-24.3125 16.714843-28.542968zm0 0" fill="#fcb54c"/><path d="m145.601562 81.238281c-9.855468 8.484375-22.675781 13.625-36.703124 13.625-1.855469 0-3.691407-.101562-5.503907-.277343.550781 8.898437 5.503907 16.960937 5.503907 16.960937h33.375s5.5625-9.039063 5.5625-18.539063c-.003907-4.445312-.863282-8.351562-2.234376-11.769531zm0 0" fill="#fba72d"/><path d="m188.15625 226.257812h-125.140625v-104.28125c0-5.761718 4.667969-10.429687 10.425781-10.429687h104.285156c5.757813 0 10.429688 4.667969 10.429688 10.429687zm0 0" fill="#dce6eb"/><path d="m175.640625 111.546875v90.726563c0 5.761718-4.667969 10.429687-10.425781 10.429687h-102.199219v13.554687h125.140625v-104.28125c0-5.761718-4.671875-10.429687-10.429688-10.429687zm0 0" fill="#c8d2dc"/><path d="m250.726562 132.402344c0 17.28125-14.007812 31.285156-31.285156 31.285156s-31.285156-14.003906-31.285156-31.285156c0-17.277344 14.007812-31.285156 31.285156-31.285156s31.285156 14.007812 31.285156 31.285156zm0 0" fill="#dce6eb"/><path d="m236.363281 106.097656c3.144531 4.878906 4.976563 10.683594 4.976563 16.921875 0 17.277344-14.003906 31.285157-31.285156 31.285157-6.234376 0-12.042969-1.832032-16.921876-4.980469 5.570313 8.640625 15.265626 14.363281 26.308594 14.363281 17.277344 0 31.285156-14.007812 31.285156-31.285156 0-11.039063-5.722656-20.738282-14.363281-26.304688zm0 0" fill="#c8d2dc"/><path d="m229.871094 132.402344c0 5.761718-4.671875 10.429687-10.429688 10.429687-5.757812 0-10.429687-4.667969-10.429687-10.429687 0-5.757813 4.671875-10.425782 10.429687-10.425782 5.757813 0 10.429688 4.667969 10.429688 10.425782zm0 0" fill="#828282"/><path d="m188.15625 163.691406h77.273438c5.703124 0 10.324218 4.621094 10.324218 10.320313v10.640625c0 5.699218-4.621094 10.324218-10.324218 10.324218h-.207032c-5.703125 0-10.324218 4.621094-10.324218 10.324219v20.960938h-66.742188zm0 0" fill="#828282"/><path d="m263.242188 163.691406v12.511719c0 3.457031-2.800782 6.257813-6.257813 6.257813h-4.171875c-5.757812 0-10.425781 4.667968-10.425781 10.425781v14.601562c0 3.457031-2.800781 6.257813-6.257813 6.257813h-47.972656v12.511718h66.742188v-20.960937c0-5.703125 4.621093-10.324219 10.324218-10.324219h.210938c5.703125 0 10.324218-4.621094 10.324218-10.324218v-10.636719c0-5.703125-4.621093-10.324219-10.324218-10.324219h-2.191406zm0 0" fill="#5a5a5a"/><path d="m63.015625 226.257812h191.882813v31.285157h-191.882813zm0 0" fill="#828282"/><path d="m239.253906 226.257812h15.644532v31.285157h-15.644532zm0 0" fill="#5a5a5a"/><path d="m63.015625 257.546875v244.128906c0 5.703125 4.621094 10.324219 10.324219 10.324219h171.234375c5.703125 0 10.324219-4.621094 10.324219-10.324219v-244.128906zm0 0" fill="#f76c57"/><path d="m125.585938 512v-158.511719c0-18.433593 14.941406-33.371093 33.371093-33.371093 18.429688 0 33.371094 14.9375 33.371094 33.371093v158.511719zm0 0" fill="#e5554e"/><path d="m239.253906 257.546875v254.453125h5.320313c5.703125 0 10.324219-4.621094 10.324219-10.324219v-244.128906zm0 0" fill="#e5554e"/><path d="m97.429688 142.832031c0 4.03125-3.269532 7.300781-7.300782 7.300781s-7.300781-3.269531-7.300781-7.300781 3.269531-7.300781 7.300781-7.300781 7.300782 3.269531 7.300782 7.300781zm0 0" fill="#828282"/><path d="m133.929688 142.832031c0 4.03125-3.269532 7.300781-7.300782 7.300781s-7.300781-3.269531-7.300781-7.300781 3.269531-7.300781 7.300781-7.300781 7.300782 3.269531 7.300782 7.300781zm0 0" fill="#828282"/><path d="m170.429688 142.832031c0 4.03125-3.269532 7.300781-7.300782 7.300781s-7.300781-3.269531-7.300781-7.300781 3.269531-7.300781 7.300781-7.300781 7.300782 3.269531 7.300782 7.300781zm0 0" fill="#828282"/><path d="m115.679688 168.902344c0 4.03125-3.269532 7.300781-7.300782 7.300781s-7.300781-3.269531-7.300781-7.300781 3.269531-7.300782 7.300781-7.300782 7.300782 3.269532 7.300782 7.300782zm0 0" fill="#828282"/><path d="m152.179688 168.902344c0 4.03125-3.269532 7.300781-7.300782 7.300781s-7.300781-3.269531-7.300781-7.300781 3.269531-7.300782 7.300781-7.300782 7.300782 3.269532 7.300782 7.300782zm0 0" fill="#828282"/><path d="m97.429688 194.972656c0 4.035156-3.269532 7.300782-7.300782 7.300782s-7.300781-3.265626-7.300781-7.300782c0-4.03125 3.269531-7.296875 7.300781-7.296875s7.300782 3.265625 7.300782 7.296875zm0 0" fill="#828282"/><path d="m133.929688 194.972656c0 4.035156-3.269532 7.300782-7.300782 7.300782s-7.300781-3.265626-7.300781-7.300782c0-4.03125 3.269531-7.296875 7.300781-7.296875s7.300782 3.265625 7.300782 7.296875zm0 0" fill="#828282"/><path d="m170.429688 194.972656c0 4.035156-3.269532 7.300782-7.300782 7.300782s-7.300781-3.265626-7.300781-7.300782c0-4.03125 3.269531-7.296875 7.300781-7.296875s7.300782 3.265625 7.300782 7.296875zm0 0" fill="#828282"/><g fill="#ffe046"><path d="m215.269531 33.777344c-4.273437 0-7.742187-3.46875-7.742187-7.742188v-6.257812c0-4.277344 3.46875-7.742188 7.742187-7.742188 4.277344 0 7.742188 3.464844 7.742188 7.742188v6.257812c0 4.273438-3.464844 7.742188-7.742188 7.742188zm0 0"/><path d="m234.042969 46.289062h-6.257813c-4.277344 0-7.742187-3.464843-7.742187-7.742187 0-4.273437 3.464843-7.742187 7.742187-7.742187h6.257813c4.273437 0 7.742187 3.46875 7.742187 7.742187 0 4.277344-3.46875 7.742187-7.742187 7.742187zm0 0"/><path d="m215.269531 65.0625c-4.273437 0-7.742187-3.46875-7.742187-7.742188v-6.257812c0-4.277344 3.46875-7.742188 7.742187-7.742188 4.277344 0 7.742188 3.464844 7.742188 7.742188v6.257812c0 4.273438-3.464844 7.742188-7.742188 7.742188zm0 0"/><path d="m202.757812 46.289062h-6.257812c-4.277344 0-7.742188-3.464843-7.742188-7.742187 0-4.273437 3.464844-7.742187 7.742188-7.742187h6.257812c4.273438 0 7.742188 3.46875 7.742188 7.742187 0 4.277344-3.46875 7.742187-7.742188 7.742187zm0 0"/><path d="m26.515625 75.492188c-4.277344 0-7.742187-3.46875-7.742187-7.746094v-6.253906c0-4.277344 3.464843-7.746094 7.742187-7.746094s7.742187 3.46875 7.742187 7.746094v6.253906c0 4.277344-3.464843 7.746094-7.742187 7.746094zm0 0"/><path d="m45.285156 88.003906h-6.257812c-4.273438 0-7.742188-3.464844-7.742188-7.742187 0-4.277344 3.46875-7.742188 7.742188-7.742188h6.257812c4.277344 0 7.742188 3.464844 7.742188 7.742188 0 4.277343-3.464844 7.742187-7.742188 7.742187zm0 0"/><path d="m26.515625 106.777344c-4.277344 0-7.742187-3.46875-7.742187-7.746094v-6.253906c0-4.277344 3.464843-7.746094 7.742187-7.746094s7.742187 3.46875 7.742187 7.746094v6.253906c0 4.277344-3.464843 7.746094-7.742187 7.746094zm0 0"/><path d="m14 88.003906h-6.257812c-4.273438 0-7.742188-3.464844-7.742188-7.742187 0-4.277344 3.46875-7.742188 7.742188-7.742188h6.257812c4.277344 0 7.742188 3.464844 7.742188 7.742188 0 4.277343-3.464844 7.742187-7.742188 7.742187zm0 0"/></g></svg>