<svg height="512pt" viewBox="-26 0 511 512" width="512pt" xmlns="http://www.w3.org/2000/svg"><path d="m182.195312 10h96.613282c4.71875 60.6875 69.210937 98.695312 128.128906 80.886719l43.5625 72.917969c-64.257812 76.148437-66.859375 180.160156 0 254.234374l-48.476562 82.945313c-64.273438-46.453125-134.605469-28.421875-171.523438 1.015625-36.914062-29.4375-107.246094-47.46875-171.523438-1.015625l-48.476562-82.945313c66.863281-74.074218 64.257812-178.085937 0-254.234374l43.566406-72.917969c58.914063 17.808593 123.40625-20.199219 128.128906-80.886719zm0 0" fill="#c58965" fill-rule="evenodd"/><path d="m273.511719 468.960938c-15.6875 4.652343-30.40625 11.699218-43.011719 20.554687-21.082031-14.792969-47.875-24.335937-74.714844-26.449219-32.71875-2.578125-64.847656 5.582032-93.558594 23.660156l-39.464843-67.53125c31.058593-36.804687 47.25-80.757812 46.910156-127.566406-.332031-45.382812-16.964844-90.820312-46.988281-128.71875l36.105468-60.433594c13.714844 3.136719 27.777344 3.664063 41.90625 1.5625 5.460938-.8125 9.234376-5.898437 8.421876-11.359374-.8125-5.460938-5.902344-9.238282-11.363282-8.421876-13.8125 2.054688-27.539062 1.0625-40.792968-2.945312-4.394532-1.324219-9.125.503906-11.480469 4.445312l-43.5625 72.917969c-2.191407 3.664063-1.8125 8.316407.941406 11.578125 61.96875 73.4375 62.058594 172.574219.21875 241.082032-2.921875 3.234374-3.410156 7.984374-1.210937 11.746093l48.476562 82.945313c1.421875 2.4375 3.808594 4.15625 6.566406 4.738281 2.761719.582031 5.636719-.027344 7.925782-1.679687 57.128906-41.289063 122.691406-28.5625 159.429687.730468 1.824219 1.457032 4.03125 2.183594 6.234375 2.183594 2.207031 0 4.410156-.726562 6.234375-2.183594 11.875-9.464844 26.558594-16.964844 42.460937-21.679687 5.292969-1.570313 8.316407-7.136719 6.746094-12.429688-1.570312-5.296875-7.140625-8.3125-12.429687-6.746093zm0 0"/><path d="m458.144531 170.253906c2.753907-3.261718 3.128907-7.910156.941407-11.578125l-43.566407-72.917969c-2.351562-3.9375-7.082031-5.769531-11.476562-4.445312-26.867188 8.121094-56.691407 3.542969-79.78125-12.246094-20.996094-14.355468-33.597657-35.609375-35.484375-59.839844-.40625-5.207031-4.746094-9.226562-9.96875-9.226562h-96.613282c-5.222656 0-9.566406 4.019531-9.972656 9.226562-1.054687 13.59375-5.460937 26.207032-13.089844 37.488282-3.089843 4.574218-1.890624 10.792968 2.683594 13.886718 4.578125 3.09375 10.792969 1.894532 13.886719-2.683593 7.84375-11.601563 12.976563-24.320313 15.3125-37.917969h78.984375c4.605469 26.277344 19.917969 49.8125 42.96875 65.574219 25.875 17.695312 58.703125 23.800781 89.234375 16.894531l36.113281 60.441406c-30.023437 37.898438-46.65625 83.335938-46.988281 128.71875-.339844 46.808594 15.851563 90.761719 46.910156 127.566406l-39.464843 67.527344c-12.609376-7.949218-25.886719-14.003906-39.59375-18.046875-5.296876-1.558593-10.859376 1.46875-12.417969 6.765625-1.5625 5.296875 1.464843 10.859375 6.761719 12.417969 14.871093 4.386719 29.21875 11.527344 42.644531 21.230469 1.71875 1.242187 3.769531 1.894531 5.855469 1.894531.6875 0 1.378906-.070313 2.066406-.214844 2.757812-.582031 5.144531-2.304687 6.566406-4.738281l48.476562-82.945312c2.199219-3.761719 1.707032-8.515626-1.210937-11.746094-61.835937-68.511719-61.746094-167.648438.222656-241.085938zm0 0"/><path d="m109.609375 287.777344c-.160156-6.921875-.632813-13.929688-1.40625-20.832032-.613281-5.488281-5.570313-9.441406-11.050781-8.824218-5.488282.613281-9.4375 5.5625-8.824219 11.050781.707031 6.320313 1.140625 12.734375 1.285156 19.066406.125 5.441407 4.578125 9.769531 9.996094 9.769531.078125 0 .15625 0 .234375-.003906 5.519531-.125 9.894531-4.703125 9.765625-10.226562zm0 0"/><path d="m137.476562 125.226562c1.722657 3.582032 5.296876 5.671876 9.019532 5.671876 1.453125 0 2.929687-.316407 4.324218-.988282 6.433594-3.089844 12.683594-6.648437 18.582032-10.582031 4.59375-3.066406 5.835937-9.273437 2.769531-13.867187-3.0625-4.597657-9.269531-5.835938-13.867187-2.773438-5.121094 3.417969-10.554688 6.511719-16.144532 9.195312-4.976562 2.390626-7.074218 8.363282-4.683594 13.34375zm0 0"/><path d="m189.890625 438.230469c-1.667969 5.265625 1.246094 10.886719 6.511719 12.554687 6.015625 1.90625 11.96875 4.152344 17.691406 6.675782 1.3125.578124 2.679688.851562 4.027344.851562 3.84375 0 7.507812-2.226562 9.15625-5.96875 2.230468-5.054688-.0625-10.957031-5.117188-13.183594-6.378906-2.8125-13.015625-5.316406-19.714844-7.441406-5.265624-1.667969-10.886718 1.25-12.554687 6.511719zm0 0"/><path d="m79.859375 145.191406c3.054687.074219 6.113281.058594 9.144531-.046875 5.519532-.195312 9.835938-4.824219 9.644532-10.34375-.195313-5.519531-4.8125-9.8125-10.34375-9.644531-4.40625.15625-8.902344.089844-13.3125-.199219-3.742188-.261719-7.308594 1.628907-9.234376 4.851563l-2.914062 4.878906c-2.832031 4.742188-1.285156 10.882812 3.457031 13.714844 1.605469.957031 3.375 1.414062 5.121094 1.414062 3.308594 0 6.542969-1.644531 8.4375-4.625zm0 0"/><path d="m120.371094 444.152344c.441406 0 .886718-.027344 1.332031-.089844 6.203125-.824219 12.53125-1.304688 18.8125-1.433594 5.519531-.109375 9.90625-4.675781 9.796875-10.199218-.109375-5.519532-4.683594-9.871094-10.199219-9.796876-7.027343.140626-14.105469.683594-21.046875 1.605469-5.476562.730469-9.324218 5.757813-8.59375 11.230469.667969 5.027344 4.960938 8.683594 9.898438 8.683594zm0 0"/><path d="m65.621094 411.617188c-4.550782-3.128907-10.777344-1.980469-13.90625 2.570312-.355469.515625-.714844 1.03125-1.074219 1.546875-2.238281 3.199219-2.410156 7.40625-.441406 10.777344l9.105469 15.574219c1.859374 3.183593 5.207031 4.957031 8.644531 4.957031 1.710937 0 3.449219-.441407 5.035156-1.367188 4.769531-2.789062 6.375-8.910156 3.589844-13.679687l-6.648438-11.375c.257813-3.433594-1.265625-6.910156-4.304687-9.003906zm0 0"/><path d="m74.640625 213.558594c1.535156 3.96875 5.320313 6.402344 9.332031 6.402344 1.199219 0 2.417969-.21875 3.601563-.675782 5.152343-1.988281 7.714843-7.777344 5.726562-12.929687-2.480469-6.425781-5.273437-12.847657-8.292969-19.097657-2.40625-4.96875-8.386718-7.050781-13.359374-4.644531-4.96875 2.40625-7.050782 8.386719-4.644532 13.355469 2.785156 5.757812 5.355469 11.675781 7.636719 17.589844zm0 0"/><path d="m204.898438 77.960938c3.425781 0 6.757812-1.761719 8.625-4.925782 2.484374-4.210937 4.746093-8.574218 6.765624-13.035156h14.570313c5.523437 0 10-4.476562 10-10s-4.476563-10-10-10h-20c-.195313 0-.386719.007812-.582031.015625-4.21875-.273437-8.300782 2.1875-9.925782 6.332031-2.234374 5.6875-4.945312 11.25-8.058593 16.53125-2.804688 4.757813-1.222657 10.886719 3.535156 13.691406 1.597656.941407 3.34375 1.390626 5.070313 1.390626zm0 0"/><path d="m83.824219 376.011719c1.097656.386719 2.21875.566406 3.320312.566406 4.125 0 7.984375-2.570313 9.433594-6.679687 2.304687-6.550782 4.335937-13.28125 6.039063-20 1.355468-5.355469-1.886719-10.792969-7.238282-12.148438-5.355468-1.351562-10.792968 1.886719-12.148437 7.238281-1.554688 6.140625-3.410157 12.285157-5.515625 18.269531-1.835938 5.207032.898437 10.917969 6.109375 12.753907zm0 0"/><path d="m291.902344 424.265625c-6.910156.921875-13.878906 2.234375-20.707032 3.90625-5.363281 1.3125-8.648437 6.730469-7.335937 12.09375 1.121094 4.5625 5.207031 7.621094 9.707031 7.621094.785156 0 1.585938-.09375 2.386719-.289063 6.132813-1.5 12.386719-2.679687 18.585937-3.503906 5.472657-.730469 9.320313-5.757812 8.59375-11.230469-.730468-5.476562-5.761718-9.324219-11.230468-8.597656zm0 0"/><path d="m390.703125 190.527344c3.535156 0 6.960937-1.878906 8.78125-5.199219 3.046875-5.566406 6.375-11.105469 9.882813-16.460937 3.027343-4.621094 1.734374-10.816407-2.882813-13.84375-4.621094-3.027344-10.820313-1.738282-13.847656 2.882812-3.792969 5.792969-7.394531 11.785156-10.695313 17.816406-2.652344 4.847656-.875 10.921875 3.96875 13.574219 1.523438.835937 3.167969 1.230469 4.792969 1.230469zm0 0"/><path d="m372.402344 314.472656c-.554688-5.496094-5.457032-9.511718-10.953125-8.945312-5.496094.554687-9.5 5.457031-8.945313 10.953125.699219 6.910156 1.722656 13.867187 3.039063 20.675781.925781 4.78125 5.113281 8.105469 9.808593 8.105469.628907 0 1.269532-.0625 1.910157-.1875 5.421875-1.050781 8.96875-6.296875 7.917969-11.71875-1.207032-6.21875-2.136719-12.574219-2.777344-18.882813zm0 0"/><path d="m371.121094 226.457031c-5.351563-1.382812-10.800782 1.839844-12.183594 7.1875-1.734375 6.71875-3.191406 13.582031-4.335938 20.394531-.914062 5.445313 2.761719 10.601563 8.210938 11.515626.558594.09375 1.117188.140624 1.664062.140624 4.796876 0 9.03125-3.460937 9.851563-8.347656 1.046875-6.246094 2.386719-12.542968 3.976563-18.707031 1.378906-5.351563-1.835938-10.804687-7.183594-12.183594zm0 0"/><path d="m375.617188 396.355469c3.078124 6.1875 6.480468 12.332031 10.109374 18.261719 1.886719 3.082031 5.171876 4.78125 8.539063 4.78125 1.78125 0 3.582031-.472657 5.210937-1.472657 4.710938-2.882812 6.191407-9.039062 3.308594-13.75-3.324218-5.433593-6.441406-11.0625-9.261718-16.726562-2.460938-4.945313-8.460938-6.960938-13.40625-4.5-4.941407 2.460937-6.957032 8.460937-4.5 13.40625zm0 0"/><path d="m280.8125 111.414062c1.847656 1.488282 4.066406 2.210938 6.265625 2.210938 2.921875 0 5.820313-1.273438 7.792969-3.726562 3.464844-4.304688 2.785156-10.597657-1.515625-14.0625-4.828125-3.886719-9.378907-8.136719-13.519531-12.628907-3.746094-4.058593-10.074219-4.316406-14.132813-.570312-4.058594 3.742187-4.316406 10.070312-.570313 14.128906 4.8125 5.21875 10.085938 10.144531 15.679688 14.648437zm0 0"/><path d="m359.929688 144.175781c4.980468 0 9.292968-3.722656 9.914062-8.789062.667969-5.484375-3.234375-10.472657-8.71875-11.140625-6.136719-.746094-12.285156-1.929688-18.277344-3.515625-5.335937-1.417969-10.8125 1.773437-12.226562 7.109375-1.410156 5.339844 1.773437 10.8125 7.113281 12.226562 6.871094 1.816406 13.925781 3.175782 20.96875 4.035156.414063.046876.820313.074219 1.226563.074219zm0 0"/><path d="m369.148438 450.84375c1.023437.332031 2.0625.488281 3.082031.488281 4.21875 0 8.140625-2.691406 9.511719-6.921875 1.703124-5.253906-1.175782-10.890625-6.429688-12.59375-6.691406-2.167968-13.554688-3.980468-20.398438-5.386718-5.410156-1.109376-10.695312 2.378906-11.804687 7.789062-1.113281 5.410156 2.375 10.695312 7.785156 11.804688 6.121094 1.253906 12.261719 2.875 18.253907 4.820312zm0 0"/><path d="m137.738281 90.320312c1.90625 0 3.832031-.542968 5.539063-1.679687l.003906-.003906c4.597656-3.0625 5.835938-9.269531 2.773438-13.863281-3.066407-4.597657-9.277344-5.835938-13.871094-2.773438s-5.835938 9.273438-2.773438 13.867188c1.925782 2.890624 5.097656 4.453124 8.328125 4.453124zm0 0"/><path d="m316.355469 462.601562h-.003907c-5.523437 0-9.996093 4.476563-9.996093 10 0 5.519532 4.480469 10 10 10 5.523437 0 10-4.480468 10-10 0-5.523437-4.476563-10-10-10zm0 0"/></svg>