<svg id="Layer_1" enable-background="new 0 0 256 256" height="512" viewBox="0 0 256 256" width="512" xmlns="http://www.w3.org/2000/svg"><g><g><path d="m142.752 202.624c-1.104 0-2-.896-2-2v-174.468c0-4.857 3.951-8.809 8.808-8.809h13.759c1.104 0 2 .896 2 2s-.896 2-2 2h-13.759c-2.651 0-4.808 2.157-4.808 4.809v174.468c0 1.105-.896 2-2 2z" fill="#3762cc"/></g><g><path d="m224.454 202.624c-1.104 0-2-.896-2-2v-156.745c0-1.795.539-3.524 1.558-5.002l14.257-20.666c.627-.909 1.873-1.137 2.782-.511.909.627 1.138 1.873.511 2.782l-14.257 20.666c-.557.806-.851 1.75-.851 2.73v156.745c0 1.106-.895 2.001-2 2.001z" fill="#3762cc"/></g><g><path d="m183.603 202.624c-1.104 0-2-.896-2-2v-142.33l-3.3-4.552c-.727-1.003-.795-2.342-.174-3.413l3.091-5.329-2.917-4.024c-.727-1.001-.795-2.341-.174-3.413l3.091-5.329-2.917-4.024c-.727-1.003-.795-2.343-.173-3.414l3.743-6.453c.554-.955 1.776-1.281 2.733-.727.956.554 1.281 1.778.727 2.733l-3.461 5.967 2.917 4.024c.727 1.003.795 2.343.173 3.414l-3.091 5.328 2.917 4.024c.727 1.003.795 2.342.174 3.413l-3.091 5.329 3.134 4.323c.391.538.597 1.175.597 1.84v142.61c.001 1.108-.894 2.003-1.999 2.003z" fill="#3762cc"/></g><g><path d="m109.135 248h-83.972c-5.014 0-9.078-4.064-9.078-9.078v-172.955h102.128v172.955c0 5.014-4.065 9.078-9.078 9.078z" fill="#4671c6"/></g><g><path d="m109.135 250h-83.972c-6.108 0-11.078-4.97-11.078-11.078v-172.955c0-1.104.896-2 2-2h102.128c1.104 0 2 .896 2 2v172.955c0 6.108-4.97 11.078-11.078 11.078zm-91.05-182.033v170.955c0 3.903 3.175 7.078 7.078 7.078h83.972c3.903 0 7.078-3.175 7.078-7.078v-170.955z" fill="#3762cc"/></g><g><path d="m101.191 87.149h-68.085c-9.401 0-17.021-7.621-17.021-17.021v-53.05c0-5.014 4.064-9.078 9.078-9.078h83.972c5.014 0 9.078 4.064 9.078 9.078v53.05c0 9.4-7.621 17.021-17.022 17.021z" fill="#a4c9ff"/></g><g><circle cx="67.149" cy="65.967" fill="#e0ebfc" r="9.986"/></g><g><path d="m101.191 89.149h-68.085c-10.488 0-19.021-8.533-19.021-19.021v-53.05c0-6.108 4.97-11.078 11.078-11.078h83.972c6.108 0 11.078 4.97 11.078 11.078v53.049c0 10.489-8.533 19.022-19.022 19.022zm-76.028-79.149c-3.903 0-7.078 3.175-7.078 7.078v53.049c0 8.283 6.739 15.021 15.021 15.021h68.085c8.283 0 15.021-6.739 15.021-15.021v-53.049c0-3.903-3.175-7.078-7.078-7.078z" fill="#3762cc"/></g><g><path d="m67.149 77.953c-6.609 0-11.986-5.377-11.986-11.986s5.377-11.986 11.986-11.986 11.986 5.377 11.986 11.986-5.377 11.986-11.986 11.986zm0-19.972c-4.403 0-7.986 3.583-7.986 7.986s3.583 7.986 7.986 7.986 7.986-3.583 7.986-7.986-3.583-7.986-7.986-7.986z" fill="#3762cc"/></g><g><path d="m146.014 248h-6.525c-5.014 0-9.078-4.064-9.078-9.078v-103.83c0-2.507 2.032-4.539 4.539-4.539h15.603c2.507 0 4.539 2.032 4.539 4.539v103.83c0 5.014-4.064 9.078-9.078 9.078z" fill="#a4c9ff"/></g><g><path d="m186.865 248h-6.525c-5.014 0-9.078-4.064-9.078-9.078v-103.83c0-2.507 2.032-4.539 4.539-4.539h15.603c2.507 0 4.539 2.032 4.539 4.539v103.83c0 5.014-4.064 9.078-9.078 9.078z" fill="#a4c9ff"/></g><g><path d="m227.716 248h-6.525c-5.014 0-9.078-4.064-9.078-9.078v-103.83c0-2.507 2.032-4.539 4.539-4.539h15.603c2.507 0 4.539 2.032 4.539 4.539v103.83c0 5.014-4.064 9.078-9.078 9.078z" fill="#a4c9ff"/></g><g><path d="m149.655 130.553v-8.983c0-1.88-1.524-3.404-3.404-3.404h-6.998c-1.88 0-3.404 1.524-3.404 3.404v8.983z" fill="#e0ebfc"/></g><g><path d="m190.506 130.553v-8.983c0-1.88-1.524-3.404-3.404-3.404h-6.998c-1.88 0-3.404 1.524-3.404 3.404v8.983z" fill="#e0ebfc"/></g><g><path d="m231.357 130.553v-8.983c0-1.88-1.524-3.404-3.404-3.404h-6.998c-1.88 0-3.404 1.524-3.404 3.404v8.983z" fill="#e0ebfc"/></g><g><path d="m146.014 250h-6.525c-6.108 0-11.078-4.97-11.078-11.078v-103.83c0-3.605 2.934-6.539 6.539-6.539h15.603c3.605 0 6.539 2.934 6.539 6.539v103.83c0 6.108-4.969 11.078-11.078 11.078zm-11.064-117.447c-1.4 0-2.539 1.139-2.539 2.539v103.83c0 3.903 3.175 7.078 7.078 7.078h6.525c3.903 0 7.078-3.175 7.078-7.078v-103.83c0-1.4-1.139-2.539-2.539-2.539z" fill="#3762cc"/></g><g><path d="m186.865 250h-6.525c-6.108 0-11.078-4.97-11.078-11.078v-103.83c0-3.605 2.934-6.539 6.539-6.539h15.603c3.605 0 6.539 2.934 6.539 6.539v103.83c0 6.108-4.969 11.078-11.078 11.078zm-11.064-117.447c-1.4 0-2.539 1.139-2.539 2.539v103.83c0 3.903 3.175 7.078 7.078 7.078h6.525c3.903 0 7.078-3.175 7.078-7.078v-103.83c0-1.4-1.139-2.539-2.539-2.539z" fill="#3762cc"/></g><g><path d="m227.716 250h-6.525c-6.108 0-11.078-4.97-11.078-11.078v-103.83c0-3.605 2.934-6.539 6.539-6.539h15.603c3.605 0 6.539 2.934 6.539 6.539v103.83c0 6.108-4.969 11.078-11.078 11.078zm-11.064-117.447c-1.4 0-2.539 1.139-2.539 2.539v103.83c0 3.903 3.175 7.078 7.078 7.078h6.525c3.903 0 7.078-3.175 7.078-7.078v-103.83c0-1.4-1.139-2.539-2.539-2.539z" fill="#3762cc"/></g><g><path d="m149.655 132.553h-13.806c-1.104 0-2-.896-2-2v-8.983c0-2.98 2.424-5.404 5.404-5.404h6.998c2.98 0 5.404 2.424 5.404 5.404v8.983c0 1.105-.896 2-2 2zm-11.806-4h9.806v-6.983c0-.774-.63-1.404-1.404-1.404h-6.998c-.774 0-1.404.63-1.404 1.404z" fill="#3762cc"/></g><g><path d="m190.506 132.553h-13.806c-1.104 0-2-.896-2-2v-8.983c0-2.98 2.424-5.404 5.404-5.404h6.998c2.98 0 5.404 2.424 5.404 5.404v8.983c0 1.105-.896 2-2 2zm-11.806-4h9.806v-6.983c0-.774-.63-1.404-1.404-1.404h-6.998c-.774 0-1.404.63-1.404 1.404z" fill="#3762cc"/></g><g><path d="m231.357 132.553h-13.806c-1.104 0-2-.896-2-2v-8.983c0-2.98 2.424-5.404 5.404-5.404h6.998c2.98 0 5.404 2.424 5.404 5.404v8.983c0 1.105-.896 2-2 2zm-11.806-4h9.806v-6.983c0-.774-.63-1.404-1.404-1.404h-6.998c-.774 0-1.404.63-1.404 1.404z" fill="#3762cc"/></g><g><path d="m33.536 178.677v36.204c0 10.027 8.129 18.156 18.156 18.156h31.773c10.027 0 18.156-8.129 18.156-18.156v-36.204c0-2.209-1.791-4-4-4h-60.085c-2.209 0-4 1.791-4 4z" fill="#f9cfcf"/></g><g><path d="m76.017 196.576c0-5.008-4.515-8.961-9.697-8.009-3.17.582-5.753 3.081-6.419 6.235-.65 3.083.444 5.953 2.48 7.805.184.167.287.404.269.651l-1.104 15.174c-.034.463.333.858.798.858h3.393 4.254 3.393c.465 0 .832-.395.798-.858l-1.104-15.173c-.018-.248.086-.485.27-.653 1.641-1.491 2.669-3.641 2.669-6.03z" fill="#f9a7a7"/></g><g><path d="m49.214 174.677v-5.769c0-10.152 8.259-18.411 18.412-18.411 10.152 0 18.411 8.259 18.411 18.411v5.769h8v-5.769c0-14.563-11.848-26.411-26.411-26.411s-26.412 11.848-26.412 26.411v5.769z" fill="#f9a7a7"/></g></g></svg>