<svg id="Layer_1" enable-background="new 0 0 512 512" height="512" viewBox="0 0 512 512" width="512" xmlns="http://www.w3.org/2000/svg"><path d="m420.45 0c-40.33 0-75.42 22.86-93 56.3 0 .01-.01.01-.01.02-13.77-16.09-34.2-26.32-56.99-26.32h-45v15c0 41.35 33.64 75 75 75h60c57.9 0 105-47.1 105-105v-15z" fill="#54e360"/><path d="m465.45 0v15c0 57.9-47.1 105-105 105h-33v-63.7c17.58-33.44 52.67-56.3 93-56.3z" fill="#00cc71"/><path d="m105.45 90v44c0 8.82 7.18 16 16 16l119 5 119-5c8.82 0 16-7.18 16-16v-44z" fill="#d9f2ff"/><path d="m375.45 90v44c0 8.82-7.18 16-16 16l-119 5v-65z" fill="#cdf"/><path d="m375.45 195v30h-270v-30c0-24.81 20.19-45 45-45h180c24.81 0 45 20.19 45 45z" fill="#e6ffff"/><path d="m375.45 195v30h-135v-75h90c24.81 0 45 20.19 45 45z" fill="#d9f2ff"/><path d="m405.45 226v89l-57.57 10c-29.7 0-59.21-4.53-87.53-13.42-6.59-2.07-13.23-4.01-19.9-5.77-24.88-6.59-50.27-10.81-76.06-10.81l-88.94-10v-59c0-8.82 7.18-16 16-16h298c8.82 0 16 7.18 16 16z" fill="#d9f2ff"/><path d="m405.45 226v89l-57.57 10c-29.7 0-59.21-4.53-87.53-13.42-6.59-2.07-13.23-4.01-19.9-5.77v-95.81h149c8.82 0 16 7.18 16 16z" fill="#cdf"/><path d="m190.51 150-14.06 6-18.25-6c-11.74-29.35-21.18-52.95-24-60l13.75-8 18.56 8c1.3 3.25 11.22 28.05 24 60z" fill="#4bb9ec"/><path d="m255.46 312.38c-3.32-.041 12.027.148-32.47-.4-7.05-17.66-40.05-100.11-40.79-101.98l15.75-7 16.57 7c.04.1 40.88 102.28 40.94 102.38z" fill="#4bb9ec"/><path d="m255.46 312.38-15.01-.18v-37.36c8.13 20.34 14.98 37.49 15.01 37.54z" fill="#0095ff"/><path d="m166.51 90h-32.31l-24-60h-63.65v-30h83.96z" fill="#76e2f8"/><path d="m405.45 315v197h-330v-227h88.94c25.79 0 51.18 4.22 76.06 10.81 6.67 1.76 13.31 3.7 19.9 5.77 28.32 8.89 57.83 13.42 87.53 13.42z" fill="#54e360"/><path d="m405.45 315v197h-165v-216.19c6.67 1.76 13.31 3.7 19.9 5.77 28.32 8.89 57.83 13.42 87.53 13.42z" fill="#00cc71"/><path d="m214.52 210h-32.32c-8.19-20.47-16.55-41.39-24-60h32.31c7.41 18.53 15.79 39.47 24.01 60z" fill="#76e2f8"/></svg>