<svg id="Capa_1" enable-background="new 0 0 511.046 511.046" height="512" viewBox="0 0 511.046 511.046" width="512" xmlns="http://www.w3.org/2000/svg"><g><g><path d="m259.626 221.658h-8.206c-9.561 0-17.927-6.428-20.391-15.666l-14.399-53.998c-3.572-13.397 6.525-26.54 20.391-26.54h37.004c13.865 0 23.963 13.143 20.391 26.54l-14.399 53.998c-2.464 9.238-10.83 15.666-20.391 15.666z" fill="#fcb44d"/><path d="m294.413 151.992-14.4 54c-2.46 9.24-10.83 15.67-20.39 15.67h-8.2c-4.13 0-8.04-1.2-11.35-3.31 4.34-2.77 7.64-7.11 9.04-12.36l14.4-54c3.58-13.4-6.52-26.54-20.39-26.54h30.9c13.87 0 23.97 13.14 20.39 26.54z" fill="#fca62f"/><g><path d="m312.108 296.817-56.585-66.936-56.665 66.936c-12.131 14.351-18.812 33.783-18.032 52.564.39 9.391 2.53 18.502 6.231 26.922 3.7 8.431 8.961 16.161 15.601 22.812 14.571 14.581 33.723 21.862 52.864 21.862s38.293-7.281 52.864-21.862c13.291-13.291 21.042-30.953 21.832-49.734.781-18.782-5.979-38.213-18.11-52.564z" fill="#fcc16d"/></g><g><path d="m312.103 296.812-56.58-66.93-18.67 22.06 37.25 44.06c12.47 14.76 19.43 34.74 18.62 54.06s-8.78 37.48-22.45 51.15c-8.55 8.56-18.63 14.67-29.37 18.33 4.82.96 9.72 1.44 14.62 1.44 19.14 0 38.29-7.29 52.86-21.87 13.3-13.29 21.05-30.95 21.84-49.73.78-18.78-5.98-38.21-18.12-52.57z" fill="#fcb44d"/></g><path d="m280.095 370.833c-13.551 13.551-35.593 13.551-49.144 0-12.681-12.671-13.541-33.323-1.97-47.014l22.724-26.885c1.997-2.363 5.64-2.363 7.637 0l22.724 26.885c11.57 13.691 10.71 34.343-1.971 47.014z" fill="#fc5a95"/><path d="m280.093 370.832c-9.86 9.86-24.22 12.55-36.53 8.04 4.6-1.68 8.91-4.36 12.6-8.04 12.68-12.67 13.54-33.32 1.97-47.01l-14.57-17.25 8.141-9.638c1.997-2.365 5.641-2.365 7.639-.001l22.72 26.889c11.57 13.69 10.71 34.34-1.97 47.01z" fill="#fb3a82"/><g><path d="m255.523 504.502c-35.27 0-68.43-13.735-93.369-38.675-23.477-23.477-37.171-54.676-38.559-87.848-1.388-33.173 9.651-65.406 31.084-90.763l85.569-101.232c3.801-4.496 9.388-7.089 15.276-7.089s11.475 2.593 15.276 7.089l85.569 101.232c21.433 25.357 32.472 57.59 31.084 90.763-1.388 33.172-15.082 64.371-38.559 87.847-24.941 24.941-58.1 38.676-93.371 38.676zm0-274.621-70.293 83.16c-30.641 36.25-28.352 90.937 5.21 124.499 35.887 35.887 94.278 35.887 130.165 0 33.563-33.563 35.852-88.25 5.21-124.5z" fill="#fddaa9"/></g><g><path d="m387.453 377.982c-1.39 33.17-15.08 64.37-38.56 87.85-24.94 24.94-58.1 38.67-93.37 38.67-5.22 0-10.39-.3-15.5-.9 29.4-3.41 56.62-16.52 77.87-37.77 23.48-23.48 37.17-54.68 38.56-87.85s-9.65-65.41-31.09-90.77l-85.34-100.97.22-.26c3.8-4.49 9.39-7.09 15.28-7.09s11.48 2.6 15.28 7.09l85.56 101.23c21.44 25.36 32.48 57.6 31.09 90.77z" fill="#fcc16d"/></g></g><g><g><path d="m416.118 229.923c-13.551 13.551-35.593 13.551-49.144 0-12.681-12.671-13.541-33.323-1.97-47.014l22.724-26.885c1.997-2.363 5.64-2.363 7.637 0l22.724 26.885c11.57 13.691 10.71 34.343-1.971 47.014z" fill="#fc5a95"/><path d="m416.116 229.922c-10.76 10.76-26.88 12.98-39.85 6.63 3.36-1.63 6.51-3.84 9.29-6.63 12.68-12.67 13.54-33.32 1.97-47.01l-11.26-13.33 11.46-13.56c2-2.36 5.64-2.36 7.64 0l22.72 26.89c11.57 13.69 10.71 34.34-1.97 47.01z" fill="#fb3a82"/></g><g><g><path d="m144.072 229.923c-13.551 13.551-35.593 13.551-49.144 0-12.681-12.671-13.541-33.323-1.97-47.014l22.724-26.885c1.997-2.363 5.64-2.363 7.637 0l22.724 26.885c11.571 13.691 10.711 34.343-1.971 47.014z" fill="#fc5a95"/><path d="m144.07 229.922c-10.76 10.76-26.88 12.98-39.85 6.63 3.36-1.63 6.51-3.84 9.29-6.63 12.68-12.67 13.54-33.32 1.97-47.01l-11.26-13.33 11.46-13.56c2-2.36 5.64-2.36 7.64 0l22.72 26.89c11.57 13.69 10.71 34.34-1.97 47.01z" fill="#fb3a82"/></g><g><path d="m466.947 10.269c1.528-3.85-.354-8.21-4.203-9.738-3.85-1.527-8.209.354-9.738 4.203-13.704 34.518-32.481 64.689-54.829 89.102-1.258-2.378-3.754-4.001-6.631-4.001-4.142 0-7.5 3.358-7.5 7.5v10.726c-24.636 22.826-52.786 39.142-82.784 47.367l.4-1.501c2.308-8.655.502-17.693-4.955-24.796-5.457-7.104-13.725-11.177-22.682-11.177h-37.004c-8.958 0-17.225 4.074-22.682 11.177s-7.263 16.141-4.955 24.796l.401 1.503c-29.994-8.224-58.146-24.546-82.784-47.376v-10.719c0-4.142-3.358-7.5-7.5-7.5-2.875 0-5.37 1.62-6.628 3.995-22.352-24.416-41.131-54.587-54.832-89.096-1.528-3.849-5.887-5.731-9.738-4.203-3.85 1.528-5.731 5.888-4.203 9.738 16.399 41.305 39.809 76.76 67.901 104.191v34.795c-.744.559-24.771 28.812-24.771 28.812-14.071 16.649-13.019 41.757 2.395 57.158 7.971 7.971 18.581 12.36 29.875 12.36 11.293 0 21.903-4.389 29.873-12.358 15.416-15.403 16.468-40.511 2.397-57.161 0 0-24.026-28.253-24.77-28.812v-21.276c26.247 21.766 55.851 36.937 87.199 44.007l6.729 25.235-71.979 85.154c-22.65 26.797-34.316 60.861-32.85 95.918 1.467 35.057 15.939 68.027 40.75 92.838 22.063 22.063 49.979 35.801 80.727 39.728.323.042.643.062.959.062 3.719 0 6.947-2.765 7.43-6.551.525-4.109-2.381-7.865-6.489-8.39-27.423-3.502-52.328-15.762-72.021-35.455-22.144-22.144-35.06-51.57-36.369-82.858-1.31-31.289 9.103-61.691 29.318-85.607l85.568-101.231c2.381-2.816 5.861-4.432 9.548-4.432s7.167 1.615 9.548 4.431l39.607 46.857c2.673 3.162 7.405 3.56 10.57.886 3.163-2.674 3.56-7.406.886-10.57l-26.016-30.779 6.729-25.233c31.352-7.071 60.955-22.237 87.199-43.999v21.267c-.744.559-24.77 28.812-24.77 28.812-14.071 16.649-13.019 41.757 2.395 57.158 7.97 7.971 18.58 12.36 29.875 12.36 11.294 0 21.903-4.389 29.874-12.358 15.416-15.403 16.468-40.511 2.397-57.161 0 0-24.026-28.253-24.771-28.813v-34.788c28.092-27.426 51.5-62.88 67.904-104.197zm-326.632 177.481c9.076 10.739 8.398 26.933-1.543 36.867 0 .001-.001.002-.002.002-5.137 5.137-11.98 7.967-19.269 7.967s-14.131-2.83-19.271-7.969c-9.942-9.934-10.62-26.127-1.543-36.867l20.814-24.625zm136.211-6.608c-5.237-6.194-12.893-9.747-21.003-9.747s-15.766 3.553-21.004 9.748l-1.789 2.117-8.853-33.198c-1.098-4.116-.239-8.414 2.356-11.792 2.596-3.378 6.527-5.315 10.788-5.315h37.004c4.26 0 8.192 1.938 10.788 5.315 2.595 3.378 3.454 7.676 2.356 11.792l-8.853 33.199zm135.834 6.608c9.076 10.739 8.398 26.933-1.543 36.867 0 .001-.001.001-.002.002-5.138 5.137-11.98 7.967-19.269 7.967-7.288 0-14.131-2.83-19.271-7.969-9.942-9.934-10.62-26.127-1.543-36.867l20.814-24.625z"/><path d="m255.523 388.491c10.818 0 21.637-4.118 29.874-12.353 15.416-15.403 16.468-40.511 2.396-57.16l-22.723-26.885c-2.38-2.816-5.86-4.431-9.547-4.431s-7.167 1.615-9.547 4.431l-22.723 26.885c-14.072 16.649-13.019 41.757 2.395 57.158 8.236 8.237 19.056 12.355 29.875 12.355zm-20.814-59.831 20.814-24.626 20.814 24.626c9.076 10.739 8.399 26.933-1.543 36.867 0 0-.001.001-.002.002-10.625 10.625-27.913 10.625-38.54-.002-9.942-9.934-10.619-26.127-1.543-36.867z"/><path d="m337.315 253.058c-2.675-3.163-7.407-3.561-10.57-.886-3.163 2.674-3.56 7.406-.886 10.57l24.781 29.316c20.216 23.916 30.628 54.318 29.318 85.607-1.309 31.288-14.226 60.714-36.369 82.858-19.938 19.938-45.168 32.24-72.964 35.575-4.113.494-7.046 4.228-6.553 8.34.458 3.81 3.694 6.607 7.438 6.607.298 0 .6-.018.903-.054 31.166-3.74 59.446-17.523 81.784-39.862 24.811-24.81 39.283-57.78 40.75-92.837s-10.199-69.121-32.85-95.918z"/><path d="m331.544 308.199-70.293-83.16c-1.425-1.686-3.521-2.658-5.728-2.658s-4.303.973-5.728 2.658l-70.293 83.16c-33.138 39.204-30.663 98.347 5.635 134.645 19.405 19.405 44.896 29.108 70.386 29.108s50.98-9.703 70.386-29.108c36.298-36.298 38.773-95.441 5.635-134.645zm-76.021 148.757c-22.609 0-43.839-8.779-59.779-24.719-21.319-21.319-28.891-51.914-22.231-79.773.697 9.296 2.927 18.319 6.677 26.854 1.854 4.224 4.125 8.373 6.749 12.333 1.443 2.178 3.828 3.357 6.258 3.357 1.423 0 2.862-.404 4.137-1.25 3.453-2.289 4.396-6.942 2.108-10.395-2.151-3.246-4.007-6.635-5.518-10.077-3.369-7.667-5.254-15.815-5.603-24.217-.662-15.94 4.778-32.692 14.619-45.361l52.584-62.209 50.97 60.3c10.858 12.92 16.927 30.575 16.233 47.267-.711 16.9-7.687 32.791-19.644 44.748-12.671 12.68-29.562 19.664-47.559 19.664-12.238 0-24.217-3.31-34.642-9.573-3.551-2.133-8.159-.983-10.292 2.567-2.133 3.551-.984 8.158 2.567 10.292 12.757 7.664 27.407 11.714 42.366 11.714 22.006 0 42.665-8.545 58.167-24.059 13.967-13.967 22.359-32.328 23.842-51.961 6.662 27.861-.909 58.459-22.23 79.78-15.94 15.939-37.17 24.718-59.779 24.718z"/></g></g></g></g></svg>