<svg height="512pt" viewBox="-31 0 512 512" width="512pt" xmlns="http://www.w3.org/2000/svg"><path d="m285 370.300781v35.699219c0 19.5-12.597656 36.300781-30 42.300781v48.699219c0 8.398438-6.597656 15-15 15h-30c-8.402344 0-15-6.601562-15-15v-48.699219c-17.402344-6-30-22.800781-30-42.300781v-35.699219c0-8.101562 6.597656-15 15-15h90c8.402344 0 15 6.898438 15 15zm0 0" fill="#5bc980"/><path d="m285 370.300781v35.699219c0 19.5-12.597656 36.300781-30 42.300781v48.699219c0 8.398438-6.597656 15-15 15h-15v-156.699219h45c8.402344 0 15 6.898438 15 15zm0 0" fill="#00ab5e"/><path d="m337.800781 82.199219c4.199219-10.199219 10.5-19.199219 17.699219-26.699219 4.5-4.199219 5.699219-10.5 3.300781-16.199219-2.402343-5.699219-7.800781-9.300781-13.800781-9.300781h-30c-19.5 0-37.800781 7.5-51.300781 20.699219-5.699219-17.699219-15.296875-33.597657-28.199219-46.199219-2.699219-3-6.601562-4.5-10.5-4.5s-7.800781 1.5-10.5 4.5c-12.902344 12.601562-22.5 28.5-28.199219 46.199219-13.5-13.199219-31.800781-20.699219-51.300781-20.699219h-30c-6 0-11.398438 3.601562-13.800781 9.300781-2.398438 5.699219-1.199219 12 3.300781 16.199219 7.199219 7.5 13.5 16.5 17.699219 26.699219-69.601563 29.398437-112.199219 84.101562-112.199219 143.800781 0 90.898438 100.800781 165 225 165s225-74.101562 225-165c0-59.699219-42.597656-114.402344-112.199219-143.800781zm0 0" fill="#7fe881"/><g fill="#5bc980"><path d="m450 226c0 90.898438-100.800781 165-225 165v-391c3.898438 0 7.800781 1.5 10.5 4.5 12.902344 12.601562 22.5 28.5 28.199219 46.199219 13.5-13.199219 31.800781-20.699219 51.300781-20.699219h30c6 0 11.398438 3.601562 13.800781 9.300781 2.398438 5.699219 1.199219 12-3.300781 16.199219-7.199219 7.5-13.5 16.5-17.699219 26.699219 69.601563 29.398437 112.199219 84.101562 112.199219 143.800781zm0 0"/><path d="m360 256c0 74.398438-60.601562 135-135 135s-135-60.601562-135-135c0-38.699219 16.800781-75.601562 45.601562-101.398438 6.296876-5.402343 15.898438-4.800781 21.296876 1.5 5.402343 6.300782 4.800781 15.597657-1.199219 21.296876-22.800781 19.800781-35.699219 48.601562-35.699219 78.601562 0 57.898438 47.101562 105 105 105s105-47.101562 105-105c0-30-12.898438-58.800781-35.699219-78.601562-6-5.699219-6.601562-15-1.199219-21.300782 5.699219-6.300781 15-6.898437 21.296876-1.5 28.800781 25.800782 45.601562 62.703125 45.601562 101.402344zm0 0"/><path d="m240 166v210c0 8.398438-6.597656 15-15 15s-15-6.601562-15-15v-210c0-8.402344 6.597656-15 15-15s15 6.597656 15 15zm0 0"/></g><path d="m360 256c0 74.398438-60.601562 135-135 135v-30c57.898438 0 105-47.101562 105-105 0-30-12.898438-58.800781-35.699219-78.601562-6-5.699219-6.601562-15-1.199219-21.300782 5.699219-6.300781 15-6.898437 21.296876-1.5 28.800781 25.800782 45.601562 62.703125 45.601562 101.402344zm0 0" fill="#00ab5e"/><path d="m240 166v210c0 8.398438-6.597656 15-15 15v-240c8.402344 0 15 6.597656 15 15zm0 0" fill="#00ab5e"/></svg>