<svg height="512pt" viewBox="0 -98 512 512" width="512pt" xmlns="http://www.w3.org/2000/svg"><path d="m261.601562 48.128906h-261.601562v90.25l212.585938 176.878906h86.824218l212.585938-176.878906v-90.25zm0 0" fill="#f79341"/><path d="m512 138.375-212.59375 176.882812 8.464844-37.117187 164.136718-137.800781zm0 0" fill="#ef7e29"/><path d="m511.996094 58.441406h-511.996094v-48.578125c0-5.449219 4.414062-9.863281 9.863281-9.863281h492.269531c5.445313 0 9.863282 4.414062 9.863282 9.863281zm0 0" fill="#e8dacd"/><path d="m511.996094 58.441406h-26.925782v-58.441406h17.0625c5.445313 0 9.863282 4.414062 9.863282 9.863281zm0 0" fill="#e5ccb7"/><path d="m0 138.378906 212.585938 176.878906-10.523438-46.179687c-16.457031-72.234375-78.996094-124.679687-152.996094-128.296875zm0 0" fill="#e8dacd"/><path d="m511.996094 138.378906-212.585938 176.878906 10.523438-46.179687c16.460937-72.234375 79-124.679687 153-128.300781zm0 0" fill="#e8dacd"/><path d="m512 138.375-212.59375 176.882812 8.464844-37.117187 164.136718-137.800781zm0 0" fill="#e5ccb7"/><g fill="#e8dacd"><path d="m174.839844 208.949219c-3.25-4.5-6.71875-8.820313-10.398438-12.941407 8.730469-15.597656 32.378906-66.019531 19.667969-136.179687-.089844-.46875-.128906-.917969-.128906-1.390625h15.679687c14.96875 85.292969-19.308594 142.070312-24.820312 150.511719zm0 0"/><path d="m347.378906 196.199219c-3.667968 4.121093-7.128906 8.441406-10.367187 12.941406-5.070313-7.710937-40.03125-64.722656-24.941407-150.703125h15.679688c0 .472656-.039062.921875-.128906 1.390625-8.019532 44.261719-1.429688 80.261719 5.5 102.671875 4.96875 16.039062 10.820312 27.617188 14.257812 33.699219zm0 0"/></g></svg>