<svg id="Capa_1" enable-background="new 0 0 512 512" height="512" viewBox="0 0 512 512" width="512" xmlns="http://www.w3.org/2000/svg"><g><g><g><path d="m260.198 186.404c11.128-19.551 17.135-42.385 16.14-66.721-2.65-64.777-55.209-117.167-119.996-119.593-71.167-2.665-129.698 54.237-129.698 124.809 0 22.781 6.131 44.108 16.805 62.477 11.951 20.567 18.098 43.991 18.098 67.778v1.687c0 24.17-6.703 47.751-18.658 68.757-11.126 19.549-17.133 42.38-16.138 66.713 2.647 64.779 55.205 117.172 119.993 119.6 71.168 2.667 129.701-54.236 129.701-124.81 0-22.781-6.13-44.106-16.804-62.475-11.952-20.567-18.099-43.991-18.099-67.779v-1.687c-.001-24.17 6.701-47.751 18.656-68.756z" fill="#ffb54c"/></g></g><g><path d="m276.444 387.099c0-22.781-6.13-44.106-16.804-62.475-11.952-20.567-18.099-43.991-18.099-67.779v-1.687c0-24.169 6.702-47.75 18.657-68.755 11.128-19.551 17.135-42.385 16.14-66.721-2.65-64.776-55.209-117.166-119.996-119.592v511.815c66.757-2.521 120.102-57.432 120.102-124.806z" fill="#fd7816"/></g><g><g><g><g><path d="m84.051 372.038h31.867v30h-31.867z" fill="#fd7816"/></g><g><path d="m112.893 314.987h31.867v30h-31.867z" fill="#fd7816"/></g><g><path d="m112.893 429.09h31.867v30h-31.867z" fill="#fd7816"/></g></g><g><g><path d="m200.616 109.754h31.867v30h-31.867z" fill="#a14603"/></g><g><path d="m171.773 52.703h31.867v30h-31.867z" fill="#a14603"/></g><g><path d="m171.773 166.805h31.867v30h-31.867z" fill="#a14603"/></g></g></g><g><path d="m400.917 512c-46.634 0-84.438-37.804-84.438-84.438v-102.124c0-46.634 37.804-84.438 84.438-84.438 46.634 0 84.438 37.804 84.438 84.438v102.124c0 46.633-37.804 84.438-84.438 84.438z" fill="#ffb54c"/></g><path d="m400.917 241v271c46.634 0 84.438-37.804 84.438-84.438v-102.124c0-46.634-37.804-84.438-84.438-84.438z" fill="#fd7816"/></g></g></svg>