<?xml version="1.0" encoding="iso-8859-1"?>
<!-- Generator: Adobe Illustrator 19.0.0, SVG Export Plug-In . SVG Version: 6.00 Build 0)  -->
<svg xmlns="http://www.w3.org/2000/svg" xmlns:xlink="http://www.w3.org/1999/xlink" version="1.1" id="Capa_1" x="0px" y="0px" viewBox="0 0 520 520" style="enable-background:new 0 0 520 520;" xml:space="preserve" width="512" height="512">
<g id="XMLID_1167_">
	<path id="XMLID_1168_" style="fill:#EF5350;" d="M110.002,0c-4.87,0-9.43,2.36-12.25,6.34c-2.81,3.97-3.52,9.06-1.9,13.65   l29.15,82.58V397.9l-29.42,102.98c-1.3,4.53-0.39,9.4,2.44,13.15c2.84,3.76,7.27,5.97,11.98,5.97H260l10.008-261L260,0H110.002z"/>
	<path id="XMLID_1169_" style="fill:#D32F2F;" d="M395.002,397.9V102.57l29.14-82.58c1.62-4.59,0.92-9.68-1.89-13.65   c-2.82-3.98-7.38-6.34-12.25-6.34H260v520h150.002c4.71,0,9.14-2.21,11.98-5.97c2.83-3.75,3.74-8.62,2.44-13.15L395.002,397.9z"/>
	<path id="XMLID_1172_" style="fill:#FFF5F5;" d="M200.002,125c-8.28,0-15,6.72-15,15v240c0,8.28,6.72,15,15,15H260l10.008-139   L260,125H200.002z"/>
	<path id="XMLID_1173_" style="fill:#EEE1DC;" d="M320.002,125H260v270h60.002c8.28,0,15-6.72,15-15V140   C335.002,131.72,328.282,125,320.002,125z"/>
	<path id="XMLID_1174_" style="fill:#FFF04A;" d="M245.002,210v100c0,8.284,6.715,14.999,14.998,15l10.008-65L260,195   C251.717,195.001,245.002,201.716,245.002,210z"/>
	<path id="XMLID_1177_" style="fill:#FFCD00;" d="M260.002,195c-0.001,0-0.001,0-0.002,0v130c0.001,0,0.001,0,0.002,0   c8.284,0,15-6.716,15-15V210C275.002,201.716,268.286,195,260.002,195z"/>
	<g id="XMLID_1178_">
		<path id="XMLID_1179_" style="fill:#D32F2F;" d="M198.252,74.64c-1.09,0.25-2.19,0.36-3.26,0.36c-6.88,0-13.08-4.75-14.63-11.75    L166.302,0h30.73l12.61,56.75C211.442,64.83,206.342,72.85,198.252,74.64z"/>
	</g>
	<g id="XMLID_1180_">
		<path id="XMLID_1181_" style="fill:#B71C1C;" d="M353.702,0l-14.06,63.25c-1.55,7-7.75,11.75-14.63,11.75    c-1.07,0-2.17-0.11-3.26-0.36c-8.09-1.79-13.19-9.81-11.39-17.89L322.972,0H353.702z"/>
	</g>
	<path id="XMLID_1182_" style="fill:#D32F2F;" d="M245.002,0v60c0,8.279,6.719,14.999,14.998,15l10.008-37.5L260,0H245.002z"/>
	<path id="XMLID_1183_" style="fill:#B71C1C;" d="M260,0v75c0.001,0,0.001,0,0.002,0c8.28,0,15-6.72,15-15V0H260z"/>
	<g id="XMLID_1184_">
		<path id="XMLID_1185_" style="fill:#D32F2F;" d="M209.642,463.25L197.032,520h-30.73l14.06-63.25c1.79-8.09,9.81-13.2,17.89-11.39    C206.342,447.15,211.442,455.17,209.642,463.25z"/>
	</g>
	<g id="XMLID_1186_">
		<path id="XMLID_1187_" style="fill:#B71C1C;" d="M353.702,520h-30.73l-12.61-56.75c-1.8-8.08,3.3-16.1,11.39-17.89    c8.09-1.81,16.1,3.3,17.89,11.39L353.702,520z"/>
	</g>
	<path id="XMLID_1188_" style="fill:#D32F2F;" d="M245.002,460v60H260l10.008-37.5L260,445   C251.721,445.001,245.002,451.721,245.002,460z"/>
	<path id="XMLID_1189_" style="fill:#B71C1C;" d="M275.002,460c0-8.28-6.72-15-15-15c-0.001,0-0.001,0-0.002,0v75h15.002V460z"/>
</g>















</svg>
