<?xml version="1.0" encoding="iso-8859-1"?>
<!-- Generator: Adobe Illustrator 19.0.0, SVG Export Plug-In . SVG Version: 6.00 Build 0)  -->
<svg version="1.1" id="Capa_1" xmlns="http://www.w3.org/2000/svg" xmlns:xlink="http://www.w3.org/1999/xlink" x="0px" y="0px"
	 viewBox="0 0 511.989 511.989" style="enable-background:new 0 0 511.989 511.989;" xml:space="preserve">
<path style="fill:#D2D6D8;" d="M125.23,38.685l109.973-1.809c13.257-0.218,24.181,10.352,24.4,23.61l1.925,117.062l-157.982,2.599
	L101.62,63.083C101.402,49.826,111.973,38.902,125.23,38.685z"/>
<path style="fill:#DFE2E5;" d="M222.774,103.982l108.798,16.129c13.116,1.944,22.173,14.153,20.228,27.269l-17.168,115.812
	l-156.296-23.17l17.168-115.812C197.449,111.093,209.658,102.037,222.774,103.982z"/>
<circle style="fill:#96D7E8;" cx="482.65" cy="275.822" r="29.339"/>
<path style="fill:#5FBDFF;" d="M371.73,118.956c52.891-13.267,98.539,159.973,98.539,159.973s41.52,174.275-11.37,187.541
	l-60.764-169.447L371.73,118.956z"/>
<path style="fill:#ECEFF1;" d="M159.611,117.969L50.813,134.098c-13.116,1.944-22.173,14.153-20.228,27.269l17.168,115.812
	l156.296-23.17l-17.168-115.812C184.936,125.082,172.728,116.025,159.611,117.969z"/>
<g>
	<path style="fill:#3B484A;" d="M70.895,178.074c-3.766,0-7.064-2.757-7.634-6.594l-1.073-7.239
		c-0.625-4.221,2.289-8.151,6.51-8.776c4.227-0.625,8.15,2.289,8.776,6.51l1.073,7.239c0.625,4.221-2.289,8.151-6.51,8.776
		C71.654,178.046,71.272,178.074,70.895,178.074z"/>
	<path style="fill:#3B484A;" d="M150.89,166.216c-3.766,0-7.064-2.758-7.634-6.594l-1.073-7.239c-0.625-4.221,2.289-8.15,6.51-8.776
		c4.223-0.625,8.15,2.289,8.776,6.51l1.073,7.239c0.625,4.221-2.289,8.15-6.51,8.776
		C151.649,166.188,151.267,166.216,150.89,166.216z"/>
	<path style="fill:#3B484A;" d="M109.184,177.68c-5.675,0-11.149-1.958-15.423-5.598c-3.249-2.766-3.641-7.642-0.875-10.891
		c2.766-3.249,7.643-3.641,10.891-0.875c1.788,1.524,4.261,2.181,6.784,1.809c2.522-0.374,4.697-1.721,5.967-3.698
		c2.306-3.59,7.088-4.63,10.677-2.323c3.59,2.307,4.631,7.087,2.323,10.677c-3.681,5.729-9.767,9.603-16.7,10.63
		C111.611,177.591,110.392,177.68,109.184,177.68z"/>
	<path style="fill:#3B484A;" d="M311.49,164.086c-0.377,0-0.758-0.028-1.142-0.084c-4.221-0.625-7.136-4.554-6.51-8.776l1.073-7.239
		c0.625-4.221,4.547-7.137,8.776-6.51c4.221,0.625,7.136,4.554,6.51,8.776l-1.073,7.239
		C318.555,161.329,315.256,164.086,311.49,164.086z"/>
	<path style="fill:#3B484A;" d="M231.494,152.228c-0.377,0-0.758-0.028-1.142-0.084c-4.221-0.625-7.135-4.555-6.51-8.776
		l1.073-7.239c0.626-4.221,4.554-7.132,8.776-6.51c4.221,0.625,7.135,4.555,6.51,8.776l-1.073,7.239
		C238.559,149.47,235.261,152.228,231.494,152.228z"/>
	<path style="fill:#3B484A;" d="M273.201,163.692c-1.208,0-2.426-0.089-3.644-0.269c-6.933-1.029-13.02-4.904-16.7-10.63
		c-2.307-3.59-1.266-8.37,2.323-10.677c3.588-2.308,8.369-1.267,10.677,2.323c1.27,1.976,3.445,3.324,5.967,3.698
		c2.523,0.376,4.994-0.285,6.783-1.809c3.248-2.765,8.126-2.376,10.891,0.875c2.767,3.249,2.375,8.125-0.875,10.891
		C284.35,161.732,278.877,163.692,273.201,163.692z"/>
	<path style="fill:#3B484A;" d="M221.282,83.64c-4.208,0-7.653-3.376-7.723-7.6l-0.121-7.317c-0.07-4.267,3.332-7.782,7.599-7.852
		c4.248-0.036,7.782,3.332,7.852,7.599l0.121,7.317c0.07,4.267-3.332,7.782-7.599,7.852C221.368,83.639,221.325,83.64,221.282,83.64
		z"/>
	<path style="fill:#3B484A;" d="M140.423,84.97c-4.208,0-7.653-3.376-7.723-7.6l-0.121-7.317c-0.07-4.267,3.332-7.782,7.599-7.852
		c0.043,0,0.085-0.001,0.129-0.001c4.208,0,7.653,3.376,7.723,7.6l0.121,7.317c0.07,4.267-3.332,7.782-7.599,7.852
		C140.51,84.969,140.467,84.97,140.423,84.97z"/>
	<path style="fill:#3B484A;" d="M180.659,89.714c-6.855,0-13.321-2.819-17.796-7.771c-2.861-3.166-2.614-8.052,0.553-10.913
		c3.166-2.86,8.052-2.614,10.913,0.553c1.575,1.743,3.952,2.731,6.489,2.677c2.55-0.042,4.881-1.095,6.398-2.889
		c2.755-3.258,7.63-3.666,10.888-0.912c3.258,2.755,3.667,7.63,0.912,10.888c-4.396,5.199-10.936,8.248-17.944,8.363
		C180.934,89.713,180.796,89.714,180.659,89.714z"/>
</g>
<path style="fill:#FDD974;" d="M348.237,202.698H24.589c-13.833,0-24.942,11.407-24.58,25.229
	C2.967,340.75,25.461,392.358,43.519,433.304c0.202,0.457,0.405,0.904,0.627,1.352l142.266,20.217l142.267-20.217
	c0.224-0.447,0.425-0.894,0.627-1.352c18.057-40.946,40.552-92.552,43.51-205.376C373.19,214.105,362.07,202.698,348.237,202.698z"
	/>
<g>
	<path style="fill:#E6C468;" d="M85.354,434.655c-0.224-0.447-0.425-0.894-0.627-1.352c-18.057-40.946-40.552-92.552-43.51-205.376
		c-0.362-13.822,10.747-25.229,24.58-25.229H24.59c-13.833,0-24.942,11.407-24.58,25.229c2.958,112.823,25.452,164.43,43.51,205.376
		c0.202,0.457,0.405,0.904,0.627,1.352l142.266,20.217l20.604-2.928L85.354,434.655z"/>
	<path style="fill:#E6C468;" d="M328.68,434.655c-11.503,24.676-36.401,40.435-63.717,40.435H107.863
		c-27.315,0-52.214-15.759-63.717-40.435H328.68z"/>
</g>
<path style="fill:#CAAC5C;" d="M85.354,434.655H44.147c11.503,24.676,36.401,40.435,63.717,40.435h41.207
	C121.755,475.09,96.857,459.331,85.354,434.655z"/>
<rect x="218.973" y="279.331" transform="matrix(-0.2433 -0.97 0.97 -0.2433 206.8588 755.4681)" style="fill:#96D7E8;" width="358.293" height="35.426"/>
<g>
</g>
<g>
</g>
<g>
</g>
<g>
</g>
<g>
</g>
<g>
</g>
<g>
</g>
<g>
</g>
<g>
</g>
<g>
</g>
<g>
</g>
<g>
</g>
<g>
</g>
<g>
</g>
<g>
</g>
</svg>
