<?xml version="1.0" encoding="iso-8859-1"?>
<!-- Generator: Adobe Illustrator 19.0.0, SVG Export Plug-In . SVG Version: 6.00 Build 0)  -->
<svg version="1.1" id="Layer_1" xmlns="http://www.w3.org/2000/svg" xmlns:xlink="http://www.w3.org/1999/xlink" x="0px" y="0px"
	 viewBox="0 0 512 512" style="enable-background:new 0 0 512 512;" xml:space="preserve">
<g>
	<path style="fill:#CDD6E0;" d="M150.4,66.133c6.4-19.2,0-39.467-17.067-51.2C144,32,138.667,48,133.333,65.067
		c-6.4,19.2,0,39.467,17.067,51.2C139.733,99.2,145.067,82.133,150.4,66.133z"/>
	<path style="fill:#CDD6E0;" d="M284.8,66.133c6.4-19.2,0-39.467-17.067-51.2C278.4,32,273.067,48,267.733,65.067
		c-6.4,19.2,0,39.467,17.067,51.2C273.067,99.2,278.4,82.133,284.8,66.133z"/>
	<path style="fill:#CDD6E0;" d="M217.6,51.2C224,32,216.533,11.733,200.533,0c10.667,17.067,5.333,33.067,0,50.133
		c-6.4,19.2,0,39.467,17.067,51.2C205.867,84.267,211.2,67.2,217.6,51.2z"/>
</g>
<path style="fill:#F8B64C;" d="M445.867,174.933h-124.8v222.933h124.8c23.467,0,42.667-19.2,42.667-42.667V217.6
	C488.533,194.133,469.333,174.933,445.867,174.933z M363.733,356.267V217.6h82.133v137.6h-82.133V356.267z"/>
<g>
	<rect x="394.667" y="174.933" style="opacity:0.15;fill:#231F20;enable-background:new    ;" width="11.733" height="42.667"/>
	<rect x="394.667" y="356.267" style="opacity:0.15;fill:#231F20;enable-background:new    ;" width="11.733" height="42.667"/>
</g>
<polygon style="fill:#FFD15C;" points="23.467,124.8 23.467,455.467 66.133,512 352,512 394.667,455.467 394.667,124.8 "/>
<polygon style="fill:#F8B64C;" points="352,512 66.133,512 23.467,455.467 394.667,455.467 "/>
<polygon style="fill:#FF7058;" points="156.8,256 138.667,256 138.667,124.8 116.267,124.8 116.267,256 98.133,256 78.933,284.8
	78.933,345.6 176,345.6 176,284.8 "/>
<g>
</g>
<g>
</g>
<g>
</g>
<g>
</g>
<g>
</g>
<g>
</g>
<g>
</g>
<g>
</g>
<g>
</g>
<g>
</g>
<g>
</g>
<g>
</g>
<g>
</g>
<g>
</g>
<g>
</g>
</svg>
