<?xml version="1.0" encoding="iso-8859-1"?>
<!-- Generator: Adobe Illustrator 19.0.0, SVG Export Plug-In . SVG Version: 6.00 Build 0)  -->
<svg version="1.1" id="Layer_1" xmlns="http://www.w3.org/2000/svg" xmlns:xlink="http://www.w3.org/1999/xlink" x="0px" y="0px"
	 viewBox="0 0 512 512" style="enable-background:new 0 0 512 512;" xml:space="preserve">
<path style="fill:#FFC33E;" d="M332.606,475.785H102.951l-2.704,2.644c0,0-0.003,0.004-0.004,0.006l-0.31,0.383v18.433
	c0,8.144,6.602,14.749,14.748,14.749c4.673,0,197.29,0,206.194,0c8.146,0,14.748-6.604,14.748-14.749v-18.433
	C335.103,478.173,333.211,476.376,332.606,475.785z"/>
<path style="fill:#F9A832;" d="M206.114,497.251v-18.433c0.521-0.644,2.413-2.441,3.018-3.033H102.951l-2.704,2.644
	c0,0-0.003,0.004-0.004,0.006l-0.31,0.383v18.433c0,8.144,6.602,14.749,14.748,14.749h106.18
	C212.716,512,206.114,505.396,206.114,497.251z"/>
<path style="fill:#88BC24;" d="M306.228,0.816c-0.176-0.234-0.443-0.383-0.735-0.408C302.33,0.137,299.116,0,295.939,0
	c-53.18,0-98.942,37.283-109.838,89.014c-0.108,0.514,0.129,0.795,0.453,1.105c22.925,22.925,30.425,57.402,19.107,87.834
	c-0.121,0.326-0.069,0.692,0.138,0.972c0.319,0.442,0.505,0.804,1.055,0.851c5.268,0.452,9.558,0.409,9.558,0.409
	C308.617,180.186,361.547,74.725,306.228,0.816z"/>
<path style="fill:#9DCE32;" d="M306.228,0.816c-0.417-0.555-0.999-0.418-2.632-0.529c-79.693,17.284-108.525,116.375-50.858,173.855
	C325.225,149.358,351.521,61.33,306.228,0.816z"/>
<path style="fill:#428715;" d="M205.66,181.109c-4.039-1.349-6.219-5.718-4.869-9.757c22.101-66.149,61.082-124.693,82.352-153.703
	c2.517-3.435,7.343-4.177,10.777-1.66c3.434,2.518,4.177,7.343,1.659,10.778c-20.736,28.283-58.725,85.312-80.162,149.472
	C214.068,180.275,209.7,182.459,205.66,181.109z"/>
<path style="fill:#93CE36;" d="M97.185,68.833c-0.411,0.157-0.735,0.481-0.892,0.892c-26.197,68.751,41.22,137.117,110.656,110.654
	c0.411-0.157,0.735-0.481,0.892-0.891C233.989,110.852,166.729,42.329,97.185,68.833z"/>
<path style="fill:#A9DB49;" d="M141.658,64.342c-28.905,50.005,4.899,113.295,62.62,116.985c2.223-0.765,3.196-0.879,3.563-1.84
	C227.216,128.629,194.809,72.943,141.658,64.342z"/>
<path style="fill:#FC9835;" d="M401.348,273.252c-1.005,10.367-2.682,20.512-4.994,30.371c28.933,2.521,52.737,26.863,52.737,56.439
	c0,51.453-64.294,77.653-100.439,36.117c-6.841,7.764-14.219,14.926-22.066,21.416c16.004,17.694,40.156,29.859,65.837,29.859
	c48.188,0,87.393-39.204,87.393-87.392C479.816,315.239,444.865,278.21,401.348,273.252z"/>
<path style="fill:#F9A832;" d="M394.267,241.265H41.403c-5.091,0-9.218,4.126-9.218,9.217c0,84.008,44.399,156.569,108.201,189.623
	h154.895c63.804-33.054,108.203-105.615,108.203-189.623C403.484,245.391,399.355,241.265,394.267,241.265z"/>
<path style="fill:#FFC33E;" d="M394.267,241.265H93.549c-1.45,95.911,64.217,177.047,153.541,198.84h48.191
	c63.804-33.054,108.203-105.615,108.203-189.623C403.484,245.391,399.355,241.265,394.267,241.265z"/>
<path style="fill:#F47A27;" d="M359.05,327.956c-0.285-0.433-0.769-0.693-1.287-0.693H77.905c-0.519,0-1.002,0.26-1.287,0.693
	c-0.286,0.433-0.334,0.98-0.131,1.457c16.424,38.339,42.468,67.598,75.316,84.616c0.219,0.113,0.462,0.173,0.709,0.173h130.642
	c0.247,0,0.49-0.059,0.709-0.173c32.848-17.017,58.891-46.276,75.316-84.616C359.384,328.936,359.336,328.389,359.05,327.956z"/>
<path style="fill:#FC9835;" d="M359.181,329.413c0.204-0.477,0.155-1.024-0.131-1.457c-0.285-0.433-0.769-0.693-1.287-0.693H111.308
	c16.172,35.769,42.488,65.966,75.277,86.938h96.57c0.247,0,0.49-0.059,0.709-0.173C316.712,397.011,342.756,367.752,359.181,329.413
	z"/>
<path style="fill:#4E991D;" d="M226.878,226.176c-3.114,0-6.047-1.9-7.214-4.985c-26.841-70.969-86.729-117.98-111.231-134.898
	c-3.504-2.42-4.384-7.222-1.964-10.727c2.421-3.503,7.222-4.384,10.726-1.964c31.914,22.035,89.537,69.802,116.893,142.133
	c1.507,3.984-0.501,8.434-4.484,9.939C228.706,226.015,227.784,226.176,226.878,226.176z"/>
<path style="fill:#F9A83D;" d="M335.623,478.818c-0.519-0.644-38.921-38.135-39.512-38.713h-3.687c-19.55,0-127.954,0-149.291,0
	h-3.687l-39.199,38.324c0,0-0.003,0.004-0.004,0.006l-0.31,0.383H335.623z"/>
<path style="fill:#FC9835;" d="M245.627,440.105c-9.455,0-89.586,0-102.494,0h-3.687l-39.199,38.324c0,0-0.003,0.004-0.004,0.006
	l-0.31,0.383h106.18C206.634,478.175,245.036,440.683,245.627,440.105z"/>
<g>
</g>
<g>
</g>
<g>
</g>
<g>
</g>
<g>
</g>
<g>
</g>
<g>
</g>
<g>
</g>
<g>
</g>
<g>
</g>
<g>
</g>
<g>
</g>
<g>
</g>
<g>
</g>
<g>
</g>
</svg>
