<svg id="Capa_1" enable-background="new 0 0 510.831 510.831" height="512" viewBox="0 0 510.831 510.831" width="512" xmlns="http://www.w3.org/2000/svg"><path id="XMLID_1470_" d="m136.921 156.497c-8.284 0-15-6.716-15-15v-126.497c0-8.284 6.716-15 15-15s15 6.716 15 15v126.497c0 8.284-6.715 15-15 15z" fill="#707789"/><path id="XMLID_1469_" d="m217.099 156.497c-8.284 0-15-6.716-15-15v-43.081c0-8.284 6.716-15 15-15s15 6.716 15 15v43.081c0 8.284-6.716 15-15 15z" fill="#707789"/><path id="XMLID_1468_" d="m272.94 93.416h84.976v63.081h-84.976z" fill="#555a66"/><path id="XMLID_962_" d="m121.921 126.497h266.988v384.334h-266.988z" fill="#9196aa"/><path id="XMLID_1562_" d="m255.416 126.497h133.494v384.334h-133.494z" fill="#707789"/><path id="XMLID_1490_" d="m174.301 177.582h162.229v101.333h-162.229z" fill="#cff9ff"/><path id="XMLID_1476_" d="m175.968 383.249h42.716v30h-42.716z" fill="#707789"/><path id="XMLID_1475_" d="m234.057 383.249h42.717v30h-42.717z" fill="#707789"/><path id="XMLID_1474_" d="m292.146 383.249h42.717v30h-42.717z" fill="#555a66"/><path id="XMLID_1473_" d="m175.968 429.582h42.716v30h-42.716z" fill="#707789"/><path id="XMLID_1472_" d="m234.057 429.582h42.717v30h-42.717z" fill="#707789"/><path id="XMLID_1471_" d="m292.146 429.582h42.717v30h-42.717z" fill="#555a66"/><circle id="XMLID_1459_" cx="255.416" cy="328.664" fill="#1462c1" r="30.225"/><path id="XMLID_1561_" d="m255.416 429.582h21.358v30h-21.358z" fill="#555a66"/><path id="XMLID_1560_" d="m255.416 383.249h21.358v30h-21.358z" fill="#555a66"/><path id="XMLID_1570_" d="m255.416 298.439v60.45c16.693 0 30.225-13.532 30.225-30.225s-13.532-30.225-30.225-30.225z" fill="#27488f"/><path id="XMLID_1572_" d="m255.416 177.582h81.114v101.333h-81.114z" fill="#bfe1ff"/></svg>