<?xml version="1.0" encoding="iso-8859-1"?>
<!-- Generator: Adobe Illustrator 19.0.0, SVG Export Plug-In . SVG Version: 6.00 Build 0)  -->
<svg version="1.1" id="Capa_1" xmlns="http://www.w3.org/2000/svg" xmlns:xlink="http://www.w3.org/1999/xlink" x="0px" y="0px"
	 viewBox="0 0 464 464" style="enable-background:new 0 0 464 464;" xml:space="preserve">
<path style="fill:#759D59;" d="M32,288H0V112h392v32"/>
<path style="fill:#98BD7A;" d="M64,320H32V144h392v32"/>
<path style="fill:#A5C986;" d="M64,176h400v176H64V176z"/>
<path style="fill:#98BD7A;" d="M304,208h112c0,8.837,7.163,16,16,16v80c-8.837,0-16,7.163-16,16H112c0-8.837-7.163-16-16-16v-80
	c8.837,0,16-7.163,16-16H304z"/>
<path style="fill:#759D59;" d="M275.2,258.92l-17.832-5.2c-5.496-1.6-9.328-5.128-9.328-8.568v-5.648c0-4.208,7.024-7.504,16-7.504
	s16,3.296,16,7.504V240c0.021,4.303,3.526,7.775,7.829,7.755c0.057,0,0.114-0.001,0.171-0.003c4.465-0.117,8.019-3.781,8-8.248
	c0-11.808-9.6-20.512-24.136-22.84c0.045-0.219,0.077-0.441,0.096-0.664v-8c0-4.418-3.582-8-8-8s-8,3.582-8,8v8
	c0.032,0.224,0.078,0.446,0.136,0.664C241.6,218.992,232,227.696,232,239.504v5.648c0.754,11.75,9.27,21.546,20.8,23.928l17.832,5.2
	c5.496,1.6,9.328,5.128,9.328,8.568v5.656c0,4.2-7.024,7.496-16,7.496s-16-3.296-16-8c-0.021-4.303-3.526-7.775-7.829-7.755
	c-0.057,0-0.114,0.001-0.171,0.003c-4.467,0.122-8.019,3.788-8,8.256c0,11.8,9.6,20.504,24.136,22.832
	c-0.045,0.219-0.077,0.441-0.096,0.664v8c0,4.418,3.582,8,8,8s8-3.582,8-8v-8c-0.032-0.224-0.078-0.446-0.136-0.664
	C286.4,309.008,296,300.304,296,288.504v-5.656C295.246,271.098,286.73,261.303,275.2,258.92L275.2,258.92z"/>
<g>
</g>
<g>
</g>
<g>
</g>
<g>
</g>
<g>
</g>
<g>
</g>
<g>
</g>
<g>
</g>
<g>
</g>
<g>
</g>
<g>
</g>
<g>
</g>
<g>
</g>
<g>
</g>
<g>
</g>
</svg>
