<svg xmlns="http://www.w3.org/2000/svg" id="svg-icon" viewBox="0 0 512 512">
    <path
        d="M393.421 186.017h-15.918v63.924h5.264c17.652 0 31.962 14.31 31.962 31.962v71.008c0 17.652-14.31 31.962-31.962 31.962h-5.264v63.924h15.918c47.073 0 85.232-38.16 85.232-85.232v-92.316c.001-47.072-38.159-85.232-85.232-85.232zM312.503 21.684c-12.014-.71-23.297 2.21-32.863 7.765-8.647 5.021-19.734 2.957-26.165-4.7C240.764 9.618 221.704 0 200.397 0c-21.308 0-40.368 9.618-53.078 24.75-6.431 7.656-17.517 9.72-26.163 4.699-9.565-5.554-20.848-8.475-32.861-7.765-29.653 1.752-53.524 25.963-54.885 55.637-.824 17.963 6.462 34.239 18.501 45.493h65.304v84.449c0 17.652 14.31 31.962 31.962 31.962s31.962-14.31 31.962-31.962v-84.449h167.743c12.039-11.254 19.325-27.528 18.502-45.49-1.359-29.673-25.228-53.885-54.881-55.64z" />
    <path
        d="M211.14 207.263c0 34.166-27.796 61.962-61.962 61.962s-61.962-27.796-61.962-61.962v-54.448H53.291v327.223c0 17.652 14.31 31.962 31.962 31.962h230.288c17.652 0 31.962-14.31 31.962-31.962V152.815H211.14z" />
    </svg>
