<svg xmlns="http://www.w3.org/2000/svg" id="svg-icon" viewBox="-17 0 511 511.737">
  <path
    d="M141.82 423.02v66.648c0 12.187-9.879 22.07-22.066 22.07-12.192 0-22.07-9.883-22.07-22.07v-66.207h39.722c1.485-.012 2.961-.16 4.414-.441zm0 0"
    fill="#2c3e50" />
  <path
    d="M141.82 379.766v-79.891H53.547v12.887L18.148 348.25a44.14 44.14 0 0031.336 75.3l48.2-.09h39.722c1.485-.01 2.961-.16 4.414-.44 10.285-2.09 17.68-11.133 17.68-21.63 0-10.492-7.395-19.538-17.68-21.624zm-81.656-.442a4.418 4.418 0 01-4.09-2.691 4.417 4.417 0 01.914-4.813L90.18 338.63a4.412 4.412 0 017.504 3.176v37.52zm0 0"
    fill="#285680" />
  <path
    d="M141.82 362.02v17.746a9.95 9.95 0 01-1.59-.176c-.93-.18-1.875-.27-2.824-.266H97.684v-17.656h39.722c1.477.027 2.953.145 4.414.352zm0 0"
    fill="#2c3e50" />
  <path
    d="M161.418 261.918l-19.598 10.328-.351.262-2.914 1.504c-8.63 4.531-19.297 1.21-23.836-7.418a17.377 17.377 0 01-2.028-8.207c0-1.961.36-3.907 1.059-5.739a16.76 16.76 0 018.387-9.886l19.683-10.418 1.414-.707zm0 0"
    fill="#fdd7ad" />
  <path
    d="M195.406 243.996l-8.566 4.504-25.422 13.418-18.184-30.281 17.477-9.27-18.89-18.89v28.867l-19.684 10.418a16.76 16.76 0 00-8.387 9.886 16.096 16.096 0 00-1.059 5.739c-.011 2.86.688 5.68 2.028 8.207 4.539 8.629 15.207 11.949 23.836 7.418l2.914-1.504.351.355v27.012H53.547V192.441l-40.078-40.164a44.143 44.143 0 01-12.89-31.16A257.379 257.379 0 017.64 49.965a173.075 173.075 0 015.828-17.3l33.367 16.683a140.67 140.67 0 00-8.031 24.363 203.555 203.555 0 00-2.914 48.023 7.607 7.607 0 002.207 5.387l23.832 23.746a24.982 24.982 0 009.8 6.176l-.53 1.59 22.687 37.87c.812 1.317 2.25 2.122 3.797 2.122s2.984-.805 3.796-2.121l22.684-37.871h3.09a35.444 35.444 0 0124.894 10.242l47.407 46.96a17.661 17.661 0 015.054 15.134 17.66 17.66 0 01-9.203 13.027zm0 0"
    fill="#cc4b4c" />
  <path
    d="M124.164 158.633l-22.684 37.87c-.812 1.317-2.25 2.122-3.796 2.122s-2.985-.805-3.797-2.121l-22.688-37.871.531-1.59a25.251 25.251 0 008.915 1.59zm0 0"
    fill="#f09372" />
  <g fill="#fdd7ad">
    <path
      d="M62.11 15.008c.792 9.625-8.301 19.597-12.36 27.808a86.524 86.524 0 00-2.914 6.532L13.469 32.664c2-5.21 4.515-10.207 7.504-14.918C26.09 9.711 34.743.09 45.07.004c8.696-.133 16.07 6.363 17.04 15.004zm0 0M141.82 92.426c0 21.941-17.785 39.726-39.722 39.726-21.942 0-39.727-17.785-39.727-39.726 0-21.938 17.785-39.723 39.727-39.723 21.937 0 39.722 17.785 39.722 39.723zm0 0M380.164 101.254c.027 16.484-10.176 31.258-25.598 37.078a37.906 37.906 0 01-14.125 2.645c-16.812.043-31.82-10.54-37.43-26.391a39.16 39.16 0 01-2.292-13.332c0-21.938 17.785-39.723 39.722-39.723s39.723 17.785 39.723 39.723zm0 0" />
  </g>
  <path
    d="M417.77 364.316l57.824 100.192c5.996 10.547 2.355 23.957-8.153 30.023-10.503 6.063-23.937 2.512-30.074-7.953l-62.054-107.61zm0 0M283.063 385.945v103.723c0 12.187-9.88 22.07-22.07 22.07-12.188 0-22.067-9.883-22.067-22.07v-118.29zm0 0"
    fill="#f09372" />
  <path
    d="M431.543 358.137c-3.707 1.765-8.387 3.883-13.773 6.18a319.464 319.464 0 01-42.457 14.652 208.531 208.531 0 01-109.907 3.09c-2.117-.618-4.234-1.235-6.355-2.028a129.255 129.255 0 01-29.485-14.125l-.086-.09-8.562-6.53a8.828 8.828 0 01-.621-13.595l31.867-28.957a65.974 65.974 0 0019.156-66.558l-9.972-35.488c14.652-14.122 36.105-7.856 44.578-4.59a8.825 8.825 0 007.152-.618 39.456 39.456 0 0139.899 3.708 4.44 4.44 0 00.09 1.855l6.355 22.598 9.531 34.074 7.945 8.918 57.38 63.644a8.823 8.823 0 012.097 7.614 8.817 8.817 0 01-4.832 6.246zm0 0"
    fill="#cc4b4c" />
  <path
    d="M431.895 224.664l-5.739 48.816a17.648 17.648 0 01-9.328 13.653 17.657 17.657 0 01-16.535-.059 17.967 17.967 0 01-9.27-18.008l.09-.441 1.41-11.918 2.739-23.48a8.66 8.66 0 00-5.032-9.004l-31.074-14.391a4.425 4.425 0 00-3.922.145 4.42 4.42 0 00-2.257 3.21 39.456 39.456 0 00-39.899-3.707 8.825 8.825 0 01-7.152.618c-8.473-3.266-29.926-9.532-44.578 4.59l-3.356-11.829a203.668 203.668 0 01-4.59-20.304l-25.16-145.567c-1.433-9.644 5.192-18.64 14.832-20.125.883-.09 1.766-.175 2.559-.175 8.773.019 16.226 6.425 17.566 15.093l23.66 131.707a15.652 15.652 0 0019.774 12.711l29.57-8.648a26.858 26.858 0 0118.54 1.41l45.55 21.012 16.418 7.59a26.482 26.482 0 0115.184 27.101zm0 0"
    fill="#fdd7ad" />
</svg>
