<svg xmlns="http://www.w3.org/2000/svg" id="svg-icon" viewBox="0 0 512 512">
  <path
    d="M425 372H87c-8.284 0-15 6.716-15 15v110c0 8.284 6.716 15 15 15h338c8.284 0 15-6.716 15-15V387c0-8.284-6.716-15-15-15z"
    fill="#ff8b5c" />
  <path d="M256 372H87c-8.284 0-15 6.716-15 15v110c0 8.284 6.716 15 15 15h169V372z" fill="#ffba73" />
  <path
    d="M440 387.27c0-28.868-23.402-52.27-52.27-52.27H124.27C95.402 335 72 358.402 72 387.27v.461C72 416.598 95.402 440 124.27 440h263.46c28.868 0 52.27-23.402 52.27-52.27v-.46z"
    fill="#ffd866" />
  <path d="M256 335H124.27C95.402 335 72 358.402 72 387.27v.461C72 416.598 95.402 440 124.27 440H256V335z"
    fill="#fee7a3" />
  <path
    d="M295.333 377.461h-78.666c-8.284 0-15 6.716-15 15s6.716 15 15 15h78.666c8.284 0 15-6.716 15-15s-6.716-15-15-15z"
    fill="#5c739b" />
  <path d="M256 377.461h-39.333c-8.284 0-15 6.716-15 15s6.716 15 15 15H256v-30z" fill="#bfc1db" />
  <path d="M272 0h-32c-8.284 0-15 6.716-15 15v380h62V15c0-8.284-6.716-15-15-15z" fill="#9daccf" />
  <path d="M256 0h-16c-8.284 0-15 6.716-15 15v380h31V0z" fill="#f9f7ff" /></svg>
