<svg xmlns="http://www.w3.org/2000/svg" id="svg-icon" viewBox="0 0 64 64">
  <path
    d="M42.607 27.05l1.414 1.414 2.828-2.828 2.122 2.121-.5 2.486a2 2 0 00.547 1.807l2.072 2.071 9.9-9.9-2.07-2.071a2 2 0 00-1.807-.547l-2.486.5-2.121-2.121 2.829-2.828-6.345-6.348a10 10 0 00-5.11-2.734L29.172 5.13l-1.415 1.414 9.179 4.589a4 4 0 011.039 6.406l-2.439 2.44 1.414 1.414z"
    fill="#2488ff" />
  <path
    d="M40.95 21.393a2 2 0 010-2.828l1.025-1.026a4 4 0 00-1.039-6.406l-9.179-4.589.748-.747-3.333-.667-1.415 1.414 9.179 4.589a4 4 0 011.039 6.406l-2.439 2.44 1.414 1.414 5.657 5.657 1.414 1.414 2-2z"
    fill="#006df0" />
  <path d="M42.607 27.05l-5.657-5.657zM16.03 26.27l.001.001 4.24-4.24-.001-.001z" fill="#ffb655" />
  <path
    d="M21.686 16.373a3 3 0 00-4.242 0l-7.071 7.071a3 3 0 004.242 4.242l1.416-1.415 4.24-4.24 1.415-1.416a3 3 0 000-4.242z"
    fill="#a7a9ac" />
  <path d="M52.09 58.09l-5.65-9.9-26.169-26.159-.001-.001-4.24 4.24.001.001L42.19 52.44z" fill="#d1d3d4" />
  <path d="M5.494 58.506a4 4 0 005.657 0L42.607 27.05l-5.657-5.657L5.494 52.849a4 4 0 000 5.657z" fill="#8b5e3c" />
  <path d="M7.494 54.849L38.95 23.393l-2-2L5.494 52.849a3.974 3.974 0 001.191 6.466 3.991 3.991 0 01.809-4.466z"
    fill="#754c29" /></svg>
