<svg xmlns="http://www.w3.org/2000/svg" id="svg-icon" viewBox="0 0 74 74">
  <path
    d="M49.242 40.583h-24.17a.5.5 0 01-.5-.5V8.5a.5.5 0 01.4-.49 59.807 59.807 0 0124.372 0 .5.5 0 01.4.49v31.583a.5.5 0 01-.502.5zm-23.67-1h23.17V8.909a58.786 58.786 0 00-23.17 0z"
    fill="#323c6b" />
  <path d="M49.242 12.256a59.043 59.043 0 00-24.17 0V8.5a59.043 59.043 0 0124.17 0z" fill="#e7aa6c" />
  <path
    d="M49.242 12.756a.5.5 0 01-.1-.01 58.8 58.8 0 00-23.968 0 .5.5 0 01-.6-.49V8.5a.5.5 0 01.4-.49 59.807 59.807 0 0124.372 0 .5.5 0 01.4.49v3.756a.5.5 0 01-.5.5zm-12.085-2.245a59.991 59.991 0 0111.585 1.134V8.909a58.786 58.786 0 00-23.17 0v2.736a59.991 59.991 0 0111.585-1.134z"
    fill="#323c6b" />
  <path d="M17.167 47.413h39.98v5.933h-39.98z" fill="#e7aa6c" />
  <path d="M57.147 47.413h-39.98l3.213-7.325h33.554z" fill="#fe7058" />
  <path d="M54.194 47.415h2.954v5.935h-2.954z" fill="#d09865" />
  <path d="M57.148 47.415h-2.954l-3.264-7.33h3z" fill="#ea6453" />
  <path d="M25.072 19.771h24.17v3.167h-24.17z" fill="#e7aa6c" />
  <path
    d="M49.242 23.438h-24.17a.5.5 0 01-.5-.5v-3.167a.5.5 0 01.5-.5h24.17a.5.5 0 01.5.5v3.167a.5.5 0 01-.5.5zm-23.67-1h23.17v-2.167h-23.17z"
    fill="#323c6b" />
  <path d="M20.315 53.348H25.9V71.59a1.057 1.057 0 01-1.057 1.057h-3.471a1.057 1.057 0 01-1.057-1.057V53.348z"
    fill="#e7aa6c" />
  <path
    d="M24.84 73.146h-3.468a1.558 1.558 0 01-1.557-1.557V53.348a.5.5 0 01.5-.5H25.9a.5.5 0 01.5.5V71.59a1.558 1.558 0 01-1.56 1.556zm-4.024-19.3V71.59a.557.557 0 00.557.557h3.467a.557.557 0 00.557-.557V53.848z"
    fill="#323c6b" />
  <path d="M48.417 53.348H54V71.59a1.057 1.057 0 01-1.057 1.057h-3.469a1.057 1.057 0 01-1.057-1.057V53.348z"
    fill="#e7aa6c" />
  <g fill="#323c6b">
    <path
      d="M52.941 73.146h-3.467a1.558 1.558 0 01-1.557-1.557V53.348a.5.5 0 01.5-.5H54a.5.5 0 01.5.5V71.59a1.558 1.558 0 01-1.559 1.556zm-4.024-19.3V71.59a.557.557 0 00.557.557h3.468a.557.557 0 00.557-.557V53.848zm-2.792 14.685a.5.5 0 01-.5-.5v-.625a.5.5 0 011 0v.625a.5.5 0 01-.5.5zm0-2.875a.5.5 0 01-.5-.5V59a.5.5 0 011 0v6.156a.5.5 0 01-.5.5zM29.916 5.195a.5.5 0 01-.058-1c.283-.033.566-.062.849-.09l.243-.024a.5.5 0 01.1 1l-.244.024c-.277.028-.554.055-.831.088a.485.485 0 01-.059.002zm12.043-.236h-.04a60.823 60.823 0 00-4.763-.208 57.31 57.31 0 00-3.708.125.513.513 0 01-.531-.467.5.5 0 01.467-.531 58.53 58.53 0 013.772-.126c1.449 0 3.033.069 4.841.211a.5.5 0 01-.039 1zm15.188 42.955h-39.98a.5.5 0 01-.458-.7l3.213-7.326a.5.5 0 01.458-.3h33.554a.5.5 0 01.458.3l3.208 7.325a.5.5 0 01-.458.7zm-39.215-1h38.45l-2.774-6.326h-32.9z" />
    <path
      d="M57.147 53.847h-39.98a.5.5 0 01-.5-.5v-5.933a.5.5 0 01.5-.5h39.98a.5.5 0 01.5.5v5.933a.5.5 0 01-.5.5zm-39.48-1h38.98v-4.933h-38.98z" />
  </g>
  <path d="M34.24 45.2h-8.823a.7.7 0 110-1.4h8.823a.7.7 0 010 1.4zm3.61 0h-.76a.7.7 0 010-1.4h.759a.7.7 0 010 1.4z"
    fill="#fff" />
  <path d="M25.072 30.834h24.17v3.167h-24.17z" fill="#e7aa6c" />
  <path
    d="M49.242 34.5h-24.17a.5.5 0 01-.5-.5v-3.166a.5.5 0 01.5-.5h24.17a.5.5 0 01.5.5V34a.5.5 0 01-.5.5zm-23.67-1h23.17v-2.166h-23.17z"
    fill="#323c6b" />
  <path d="M26.072 6.187v33.9H20.38v-33.9a1.541 1.541 0 011.541-1.541h2.611a1.541 1.541 0 011.54 1.541z"
    fill="#e7aa6c" />
  <path
    d="M26.072 40.583h-5.693a.5.5 0 01-.5-.5V6.188a2.043 2.043 0 012.041-2.042h2.611a2.043 2.043 0 012.041 2.041v33.9a.5.5 0 01-.5.496zm-5.192-1h4.692V6.188a1.042 1.042 0 00-1.041-1.041H21.92a1.042 1.042 0 00-1.041 1.041z"
    fill="#323c6b" />
  <path d="M48.242 6.187v33.9h5.692v-33.9a1.541 1.541 0 00-1.541-1.541h-2.61a1.541 1.541 0 00-1.541 1.541z"
    fill="#e7aa6c" />
  <path d="M51.088 4.638v35.447h2.842V6.179a1.541 1.541 0 00-1.541-1.541z" fill="#d09865" />
  <path
    d="M53.934 40.583h-5.692a.5.5 0 01-.5-.5V6.188a2.043 2.043 0 012.041-2.041h2.61a2.043 2.043 0 012.041 2.041v33.9a.5.5 0 01-.5.495zm-5.192-1h4.692V6.188a1.042 1.042 0 00-1.041-1.041h-2.61a1.042 1.042 0 00-1.041 1.041z"
    fill="#323c6b" />
</svg>
