<svg xmlns="http://www.w3.org/2000/svg" id="svg-icon" viewBox="-31 0 512 512">
  <path d="M420 437.898L390 482h-71.398l-57.004 28.5c-2.098.898-4.2 1.5-6.598 1.5H120L90 257l300 135zm0 0"
    fill="#ffa78f" />
  <path d="M420 437.898L390 482h-71.398l-57.004 28.5c-2.098.898-4.2 1.5-6.598 1.5h-75V297.5L390 392zm0 0"
    fill="#f89580" />
  <path
    d="M247.8 0c-30 0-52.8 17.102-67.5 37.8 0 0 0-.3-.3-.3C163.2 13.5 139.5 0 113.102 0 65.102 0 30 37.398 30 86.602c0 63.296 60.3 110.699 140.398 181.5 3.004 2.699 6 3.898 9.602 3.898h.3c3.598 0 7.2-1.2 10.2-3.898C256.2 209.898 330 160.699 330 92c0-50.398-36-92-82.2-92zm0 0"
    fill="#ec5569" />
  <path
    d="M330 92c0 68.7-73.8 117.898-139.5 176.102-3 2.699-6.602 3.898-10.2 3.898h-.3V37.5c.3 0 .3.3.3.3C195 17.103 217.8 0 247.8 0 294 0 330 41.602 330 92zm0 0"
    fill="#e63950" />
  <path
    d="M150 343.25c0-18.64-15.11-33.25-33.75-33.25 18.64 0 33.75-15.613 33.75-34.25 0-18.64-15.11-33.75-33.75-33.75h-82.5C15.11 242 0 257.11 0 275.75 0 294.387 15.11 310 33.75 310 15.11 310 0 324.61 0 343.25 0 361.887 15.11 377 33.75 377 15.11 377 0 392.11 0 410.75 0 429.387 15.11 445 33.75 445 15.11 445 0 459.61 0 478.25 0 496.887 15.11 512 33.75 512h82.5c18.64 0 33.75-15.113 33.75-33.75 0-18.64-15.11-33.25-33.75-33.25 18.64 0 33.75-15.613 33.75-34.25 0-18.64-15.11-33.75-33.75-33.75 18.64 0 33.75-15.113 33.75-33.75zm0 0"
    fill="#ffbfab" />
  <path
    d="M420 355.398L390 392H225c-16.2 0-31.5-3.602-45-10.5-35.398-16.5-60-52.8-60-94.5V167c0-5.398.902-10.2 2.703-15C128.7 134.598 145.5 122 165 122c8.402 0 15 6.598 15 15v47.7c0 22.8 9.3 45.3 25.5 61.8l84 55.5H390zm0 0"
    fill="#ffcebf" />
  <path d="M420 355.398L390 392H225c-16.2 0-31.5-3.602-45-10.5V184.7c0 22.8 9.3 45.3 25.5 61.8l84 55.5H390zm0 0"
    fill="#ffbfab" />
  <path
    d="M435 302h-45v194.98c0 11.153 11.734 18.403 21.71 13.418l32.228-23.902A15 15 0 00450 474.45V317c0-8.285-6.715-15-15-15zm0 0"
    fill="#463b85" /></svg>
