<svg viewBox="0 0 512 512" xmlns="http://www.w3.org/2000/svg" id="svg-icon"><path d="M314.33 128.759c-8.284 0-15-6.716-15-15V73.257C299.33 49.405 279.892 30 256 30s-43.33 19.405-43.33 43.257v33.472c0 8.284-6.716 15-15 15s-15-6.716-15-15V73.257C182.67 32.863 215.566 0 256 0s73.33 32.863 73.33 73.257v40.502c0 8.284-6.716 15-15 15z" fill="#4a696f"/><path d="M308.439 76.961l-52.62-13.414h-50.34c-71.531 0-129.726 58.195-129.726 129.726v142.443l25.005 24.168 312.156 6.062 23.332-30.228V193.273c.001-71.531-56.275-116.312-127.807-116.312z" fill="#da9a5c"/><path d="M256 0c-.061 0-.12.004-.181.005v30c.061 0 .12-.005.181-.005 23.892 0 43.33 19.405 43.33 43.257v40.502c0 8.284 6.716 15 15 15s15-6.716 15-15V73.257C329.33 32.863 296.434 0 256 0z" fill="#384949"/><path d="M306.521 63.547h-50.702V512l133.783-45.953c14.888 0 46.645 18.953 46.645 18.953V193.273c0-71.531-58.195-129.726-129.726-129.726z" fill="#ba7d46"/><path d="M352.937 157.223h-73.491c-8.284 0-15 6.716-15 15v97.16c0 8.284 6.716 15 15 15h73.491c8.284 0 15-6.716 15-15v-97.16c0-8.284-6.716-15-15-15z" fill="#ff9100"/><path d="M292.574 163.04l-36.755-19.853h-96.125c-8.284 0-15 6.716-15 15v185.645c0 8.284 6.716 15 15 15h132.253z" fill="#9ee2f8"/><path d="M291.947 143.188h-36.128v215.645h36.128c8.284 0 15-6.716 15-15V158.188c0-8.285-6.716-15-15-15z" fill="#8cbcff"/><path d="M436.224 335.719c0-67.727-58.188-122.826-129.71-122.826H205.486c-71.522 0-129.71 55.1-129.71 122.824l-.023 150.003c0 14.491 12.112 26.28 27 26.28h306.493c14.888 0 27-11.789 27-26.282z" fill="#e9b070"/><path d="M436.224 335.719c0-67.727-58.188-122.826-129.71-122.826H255.82v64.772l60.373 168.161L346.06 512h63.187c14.888 0 27-11.789 27-26.282z" fill="#da9a5c"/><path d="M348.013 392.579l12.916-15.102c-2.743-55.502-48.758-99.813-104.929-99.813s-102.185 44.311-104.929 99.813l11.954 15.132-12.085 14.868V497c0 8.284 6.716 15 15 15h180.12c8.284 0 15-6.716 15-15v-89.522z" fill="#da9a5c"/><path d="M255.819 377.478H151.071a106.208 106.208 0 00-.131 5.247v24.753h104.879l11.404-13.473c0-.001-11.318-14.789-11.404-16.527z" fill="#4a696f"/><path d="M348.013 392.579l12.916-15.102c-2.743-55.502-48.758-99.813-104.929-99.813l-.181.002V512h90.241c8.284 0 15-6.716 15-15v-89.522z" fill="#ba7d46"/><path d="M360.929 377.478h-105.11v30h15.47v23.349c0 8.284 6.716 15 15 15s15-6.716 15-15v-23.349h59.771v-24.753c0-1.76-.045-3.509-.131-5.247z" fill="#384949"/></svg>
