<svg viewBox="0 0 512 512" height="512" width="512" xmlns="http://www.w3.org/2000/svg" id="svg-icon"><path d="M507.603 4.397c-5.863-5.863-15.351-5.863-21.213 0l-76.397 76.396c-5.863 5.863-5.863 15.351 0 21.213s15.351 5.863 21.213 0l76.397-76.396c5.863-5.862 5.863-15.35 0-21.213z" fill="#725d57"/><path d="M431.207 102.007l76.397-76.396c5.863-5.863 5.863-15.351 0-21.213l-97.61 97.61c5.862 5.861 15.35 5.861 21.213-.001z" fill="#53433f"/><path d="M431.207 80.793c-17.546-17.546-46.093-17.546-63.64 0-17.546 17.546-17.546 46.093 0 63.64 17.546 17.546 46.093 17.546 63.64 0 17.546-17.546 17.546-46.093 0-63.64z" fill="#ff641a"/><path d="M431.207 144.433c17.546-17.546 17.546-46.093 0-63.64l-63.64 63.64c17.546 17.547 46.093 17.547 63.64 0z" fill="#f03800"/><path d="M201.997 497.002v-44.977a14.953 14.953 0 00-9.26-13.859 14.984 14.984 0 00-16.345 3.252l-31.564 31.82c-11.694 11.694-30.732 11.694-42.426 0s-11.694-30.732 0-42.426l74.246-74.246c5.863-5.863 5.863-15.351 0-21.213-5.863-5.863-15.351-5.863-21.213 0l-74.246 74.246c-11.694 11.694-30.732 11.694-42.426 0s-11.694-30.732 0-42.426l31.82-31.564a14.984 14.984 0 003.252-16.345 14.932 14.932 0 00-13.859-9.26H14.998C6.712 310.003 0 316.715 0 325.002 0 333.288 6.712 340 14.998 340h8.765l-6.215 5.959c-23.399 23.399-23.399 61.454 0 84.853 12.733 12.733 29.79 18.287 46.478 17.162-1.125 16.688 4.429 33.745 17.162 46.478 23.399 23.399 61.454 23.399 84.853 0l5.959-6.215v8.765c0 8.286 6.712 14.998 14.998 14.998s14.999-6.712 14.999-14.998z" fill="#725d57"/><path d="M166.041 494.451l5.959-6.215v8.765c0 8.286 6.712 14.998 14.998 14.998s14.998-6.712 14.998-14.998v-44.977a14.953 14.953 0 00-9.26-13.859 14.984 14.984 0 00-16.345 3.252l-31.564 31.82c-11.694 11.694-30.732 11.694-42.426 0s-11.694-30.732 0-42.426l74.246-74.246c5.863-5.863 5.863-15.351 0-21.213L64.027 447.973c-1.125 16.688 4.429 33.745 17.162 46.478 23.398 23.399 61.454 23.399 84.852 0z" fill="#53433f"/><path d="M303.927 208.073l74.246 74.246 36.562-5.864c23.779-50.135 15.472-111.807-25.956-153.235s-103.1-49.735-153.235-25.956l-5.864 36.562zM240.288 271.712l-74.246-74.246-36.562 5.864c-23.779 50.135-15.472 111.807 25.956 153.235s103.1 49.735 153.235 25.956l5.864-36.562z" fill="#ff9100"/><g fill="#ff641a"><path d="M414.736 276.455c23.779-50.135 15.472-111.807-25.956-153.235l-84.853 84.853 74.246 74.246zM308.67 382.521l5.864-36.562-74.246-74.246-84.853 84.853c41.428 41.427 103.1 49.734 153.235 25.955z"/><path d="M414.736 276.455l-89.595-89.595-89.595-89.595c-13.568 6.436-26.472 14.745-37.684 25.956l-42.426 42.426c-11.211 11.211-19.52 24.116-25.956 37.684l89.595 89.595 89.595 89.595c13.568-6.436 26.472-14.745 37.684-25.956l42.426-42.426c11.211-11.212 19.52-24.116 25.956-37.684z"/></g><path d="M346.354 356.565l42.426-42.426c11.211-11.211 19.52-24.116 25.956-37.684l-89.595-89.595-106.067 106.066 89.595 89.595c13.569-6.436 26.473-14.745 37.685-25.956z" fill="#f03800"/></svg>
