<svg xmlns="http://www.w3.org/2000/svg" id="svg-icon" viewBox="0 0 512 512"><path d="M324.394 0H187.596c-13.974 0-25.302 11.329-25.302 25.302v47.504h187.403V25.302C349.697 11.329 338.368 0 324.394 0z" fill="#a9b1b5"/><path d="M215.723 0h-28.128c-13.974 0-25.302 11.329-25.302 25.302v47.504h53.43V0z" fill="#969fa3"/><path fill="#c4ccce" d="M273.162 0h36.119v72.808h-36.119z"/><path fill="#d1d4dd" d="M102.593 58.044h306.813V512H102.593z"/><path fill="#bdbfc6" d="M102.593 58.044h75.042V512h-75.042z"/><path fill="#e8eaef" d="M298.501 58.044h75.042V512h-75.042z"/><path fill="#7ab800" d="M102.593 116.59h306.813v336.875H102.593z"/><path fill="#6f9b02" d="M102.593 116.59h75.042v336.875h-75.042z"/><path fill="#93c911" d="M298.501 116.59h75.042v336.875h-75.042z"/><g fill="#fdfbfc"><path d="M323.687 197.613h-50.59v-50.591h-34.204v50.591h-50.591v34.203h50.591v50.592h34.204v-50.592h50.59zM188.306 388.817h135.387v34.203H188.306z"/></g></svg>
