<svg xmlns="http://www.w3.org/2000/svg" id="svg-icon" viewBox="0 0 512.001 512.001">
  <path
    d="M180.39 496.923V267.775h.003c-12.853-2.375-22.591-13.634-22.591-27.173 0-18.587 18.048-31.951 35.873-26.397 2.922-9.19 8.971-16.975 16.883-22.144-3.33-3.706-9.178-6.051-14.552-6.051h.942l-19.27-142.954h-53.44L104.971 186.01c-10.05 0-18.195 8.147-18.195 18.195v289.601c0 10.049 8.146 18.195 18.195 18.195h90.496c-8.327-.001-15.077-6.751-15.077-15.078z"
    fill="#ffc33e" />
  <path
    d="M112.583 496.214V213.839c0-8.262 5.512-15.228 13.057-17.447l-.007-.006c2.713-.402 5.384-2.619 5.896-6.644L150.2 43.054h-25.964L104.971 186.01c-10.05 0-18.195 8.147-18.195 18.195v289.601c0 10.049 8.146 18.195 18.195 18.195h16.785c-5.475-3.137-9.173-9.025-9.173-15.787z"
    fill="#f9a832" />
  <path d="M114.154 117.873h73.61l-10.085-74.818h-53.44l-10.085 74.818z" fill="#d8d4d2" />
  <path fill="#c4bebb" d="M140.678 117.873l9.524-74.817h-25.964l-10.084 74.817z" />
  <path
    d="M180.39 267.775h.003c-12.853-2.375-22.591-13.634-22.591-27.173 0-1.608.145-3.182.409-4.713H86.775v224.452h93.614V267.775z"
    fill="#ed4343" />
  <path fill="#c93f3f" d="M86.781 235.89h25.808v224.45H86.781z" />
  <path d="M179.361 431.957h-58.367a7.742 7.742 0 110-15.484h58.367a7.742 7.742 0 110 15.484z" fill="#b72929" />
  <path
    d="M193.711 28.056c0 8.854-7.179 16.032-16.033 16.032h-53.44c-8.854 0-16.032-7.178-16.032-16.032V16.032C108.206 7.177 115.383 0 124.238 0h53.44c8.854 0 16.033 7.177 16.033 16.032v12.024z"
    fill="#7f5030" />
  <path
    d="M150.958 28.056V16.032C150.958 7.177 158.135 0 166.991 0h-42.753c-8.854 0-16.032 7.177-16.032 16.032v12.024c0 8.854 7.178 16.032 16.032 16.032h42.753c-8.856 0-16.033-7.178-16.033-16.032z"
    fill="#704528" />
  <path
    d="M395.276 279.302H352.36v25.129h42.916a4.825 4.825 0 014.82 4.82v137.056a4.825 4.825 0 01-4.82 4.82H352.36c0 25.316.053 23.634-.14 25.129h43.056c16.515 0 29.949-13.435 29.949-29.949V309.251c0-16.514-13.434-29.949-29.949-29.949z"
    fill="#7f5030" />
  <path
    d="M352.318 262.474l-.173.077c-.688.311-1.386.601-2.094.873l-.12.048a41.085 41.085 0 01-4.641 1.462l-.175.04c-.684.167-1.374.319-2.071.452-.207.04-.415.075-.622.111-.561.099-1.124.188-1.692.263-.25.033-.499.067-.751.096a42.09 42.09 0 01-1.687.155c-.237.018-.473.041-.711.054-.792.045-1.589.074-2.392.074-.681 0-1.354-.021-2.025-.053-.245-.012-.487-.031-.731-.046a42.274 42.274 0 01-2.154-.198 44.059 44.059 0 01-.976-.131c-.356-.05-.711-.1-1.063-.159-.158-.026-.315-.06-.474-.089a41.022 41.022 0 01-4.528-1.088l-.122-.037c-.527-.16-1.05-.33-1.569-.511v44.614c0 8.674-7.033 15.706-15.706 15.706-8.674 0-15.706-7.032-15.706-15.706v-43.793h-.002a28.402 28.402 0 01-4.715 1.152c-.49.076-.984.136-1.482.186-.214.021-.426.046-.641.063a28.44 28.44 0 01-2.135.089c-8.732 0-16.513-4.053-21.579-10.377-15.395 13.592-38.399 13.87-54.114.635-10.882 12.788-25.078 9.273-26.11 9.273v231.212c0 8.327 6.75 15.077 15.077 15.077h144.913c8.326 0 15.077-6.75 15.077-15.077V261.446l-.004.001c-.689.362-1.39.703-2.102 1.027z"
    fill="#ffc33e" />
  <path
    d="M206.796 496.923V257.497a42.475 42.475 0 01-1.328-1.059c-10.882 12.788-25.078 9.273-26.11 9.273v231.212c0 8.327 6.75 15.077 15.077 15.077h27.438c-8.327 0-15.077-6.75-15.077-15.077z"
    fill="#f9a832" />
    <path fill="#f9e178"
      d="M214.538 450.636a7.742 7.742 0 01-7.742-7.742V310.545a7.742 7.742 0 1115.484 0v132.348a7.742 7.742 0 01-7.742 7.743zM249.719 450.636a7.742 7.742 0 01-7.742-7.742V310.545a7.742 7.742 0 0115.484 0v132.348a7.742 7.742 0 01-7.742 7.743zM284.9 450.636a7.742 7.742 0 01-7.742-7.742v-93.398a7.742 7.742 0 1115.484 0v93.398a7.742 7.742 0 01-7.742 7.742zM320.081 450.636a7.742 7.742 0 01-7.742-7.742v-93.398a7.742 7.742 0 1115.484 0v93.398a7.741 7.741 0 01-7.742 7.742z" />
  <path
    d="M335.189 185.317a41.322 41.322 0 00-15.239 2.903c-12.818-32.477-59.045-32.222-71.471.438-22.477-9.633-48.432 2.25-55.838 25.548-17.808-5.549-35.873 7.793-35.873 26.397 0 25.772 32.171 37.323 48.698 17.9 15.628 13.162 38.636 13.03 54.114-.635 5.066 6.324 12.846 10.377 21.579 10.377 3.141 0 6.162-.525 8.975-1.491v43.793c0 8.674 7.032 15.706 15.706 15.706s15.706-7.032 15.706-15.706v-44.614a41.308 41.308 0 0013.642 2.313c22.899 0 41.463-18.564 41.463-41.463.001-22.903-18.562-41.466-41.462-41.466z"
    fill="#fceba4" />
  <path
    d="M221.939 234.511c7.407-23.302 33.364-35.179 55.838-25.548 6.121-16.087 22.52-26.594 40.49-24.417-15.293-29.242-58.055-26.725-69.787 4.111-22.477-9.633-48.432 2.25-55.838 25.548-17.808-5.549-35.873 7.793-35.873 26.397 0 16.155 13.86 29.049 30.252 27.511-5.642-20.944 14.043-40.107 34.918-33.602z"
    fill="#f9e178" />
  <path
    d="M179.357 476.399v20.523c0 8.327 6.75 15.077 15.077 15.077h144.913c8.326 0 15.077-6.75 15.077-15.077v-20.523H179.357z"
    fill="#7f5030" />
  <path
    d="M206.796 496.923V476.4h-27.438v20.523c0 8.327 6.75 15.077 15.077 15.077h27.438c-8.327 0-15.077-6.75-15.077-15.077z"
    fill="#704528" />
</svg>
