<svg viewBox="0 0 64 64" xmlns="http://www.w3.org/2000/svg"><path d="m2 58h60c-1.23 2.45-3.73 4-6.47 4h-47.06c-1.37 0-2.68-.39-3.8-1.08-1.12-.7-2.05-1.7-2.67-2.92z" fill="#aab2bd"/><path d="m2 26h60v32h-60z" fill="#ccd1d9"/><path d="m56 47h-36c-1.1 0-2-.9-2-2v-4h29c6.08 0 11-4.92 11-11 0-1.41-.27-2.76-.75-4-.56-1.43-1.4-2.71-2.47-3.78-1.99-1.99-4.74-3.22-7.78-3.22h-2-7-6.23-11.9-6.16-1.71c-3.31 0-6 2.69-6 6l.09 1c.2 1.26.8 2.38 1.67 3.24 1.08 1.09 2.58 1.76 4.24 1.76v17c0 1.1-.9 2-2 2h-2c-1.1 0-2 .9-2 2 0 .55.22 1.05.59 1.41.36.37.86.59 1.41.59h37.56c.86 0 1.62-.55 1.9-1.37l.08-.26c.28-.82 1.04-1.37 1.9-1.37h6.56c1.1 0 2-.9 2-2 0-.55-.22-1.05-.59-1.41-.36-.37-.86-.59-1.41-.59z" fill="#cf9e76"/><path d="m47.03 26c1.09 0 1.97.88 1.97 1.97v.06c0 1.09-.88 1.97-1.97 1.97h-5.09c-1.07 0-1.94.87-1.94 1.94v.05c0 1.11-.89 2.01-1.99 2.01-3.14 0-9.33 0-14.01 0v-4c0-2.21 1.79-4 4-4h12z" fill="#b27946"/><g fill="#b4dd7f"><path d="m33.1 10.43c-.07-.29-.1-.58-.1-.87v-.56c0-1.1.45-2.1 1.17-2.83.73-.72 1.73-1.17 2.83-1.17 2.21 0 4 1.79 4 4v.56c0 .29-.03.58-.1.87l-.31 1.42c-1.08-.54-2.3-.85-3.59-.85s-2.51.31-3.59.86v-.01z"/><path d="m47.66 17.46-.49.28c-.25.15-.52.27-.79.36l-1.39.43c-.15-2.6-1.54-4.86-3.59-6.21l1.07-.99c.22-.19.45-.37.7-.51l.49-.28c.63-.37 1.32-.54 2-.54 1.38 0 2.72.72 3.46 2 1.11 1.91.45 4.36-1.46 5.46z"/><path d="m32.6 12.32c-1.52 1-2.67 2.5-3.23 4.27v.01l-4.53-4.53v-.01c.01-.02.02-.04.04-.06 1.1-1.91 3.55-2.57 5.46-1.46l.49.28c.25.14.48.32.7.51z"/></g><path d="m45 19h-7-6.23l-2.4-2.4v-.01c.56-1.77 1.71-3.27 3.23-4.27.26-.17.53-.33.81-.46 1.08-.55 2.3-.86 3.59-.86s2.51.31 3.59.85c.28.14.55.3.81.47 2.05 1.35 3.44 3.61 3.59 6.21.01.15.01.31.01.47z" fill="#a0d468"/><path d="m29.37 16.6-4.53-4.53-.95-.95-6.36-6.36c-1.56 1.62-2.53 3.81-2.53 6.24 0 2.48 1.01 4.73 2.64 6.36.65.66 1.4 1.21 2.23 1.64h11.9z" fill="#ff826e"/><path d="m19.87 19h-6.16c-3.93-5.06-3.58-12.36 1.06-17l2.76 2.76c-1.56 1.62-2.53 3.81-2.53 6.24 0 2.48 1.01 4.73 2.64 6.36.65.66 1.4 1.21 2.23 1.64z" fill="#fc6e51"/><path d="m57.895 25c-1.703-3.696-5.225-6.381-9.416-6.899 2.126-1.462 2.824-4.329 1.512-6.601-.668-1.157-1.746-1.984-3.036-2.33-1.292-.347-2.638-.168-3.794.5l-.487.281c-.278.161-.531.357-.772.566.062-.315.098-.635.098-.956v-.561c0-2.757-2.243-5-5-5s-5 2.243-5 5v.561c0 .321.036.641.098.956-.24-.209-.494-.405-.773-.566l-.485-.281c-1.157-.668-2.502-.846-3.794-.5-.886.237-1.661.718-2.299 1.388l-9.972-9.972-.707.707c-4.473 4.474-5.283 11.36-2.209 16.714-3.795.076-6.859 3.181-6.859 6.993h-4v33.236l.105.211c1.404 2.808 4.227 4.553 7.367 4.553h47.056c3.14 0 5.963-1.745 7.367-4.553l.105-.211v-33.236zm-40.211-9.098c-1.069-1.377-1.684-3.086-1.684-4.902 0-1.736.564-3.393 1.592-4.768l4.881 4.881zm2.463 2.098c-.37-.204-.716-.437-1.043-.69l4.783-4.783 5.473 5.473zm12.041 0-1.647-1.647c1.07-2.619 3.585-4.353 6.459-4.353 3.519 0 6.432 2.613 6.92 6zm11.486-6.317.486-.281c.695-.401 1.504-.506 2.276-.3.774.208 1.421.704 1.822 1.398.827 1.433.334 3.271-1.099 4.098l-.486.281c-.188.109-.39.197-.599.263l-.253.08c-.395-1.961-1.434-3.688-2.88-4.964l.205-.189c.161-.147.338-.277.528-.386zm-9.674-2.683c0-1.654 1.346-3 3-3s3 1.346 3 3v.561c0 .219-.024.438-.071.651l-.059.266c-.903-.305-1.866-.478-2.87-.478-.999 0-1.966.163-2.872.466l-.056-.254c-.048-.213-.072-.432-.072-.651zm-6.437 2.102c.774-.206 1.583-.1 2.277.3l.485.28c.19.11.368.24.528.387l.191.175c-.818.721-1.506 1.595-2.022 2.589l-2.874-2.874c.38-.408.863-.709 1.415-.857zm-12.759-7.658 1.357 1.357c-1.4 1.762-2.161 3.929-2.161 6.199 0 2.676 1.067 5.161 2.879 7h-2.655c-3.158-4.42-2.899-10.437.58-14.556zm-2.804 16.556h35c5.514 0 10 4.486 10 10s-4.486 10-10 10h-28v-4c0-.551.446-1 .994-1h18.012c1.651 0 2.994-1.35 2.994-3.06 0-.519.422-.94.941-.94h5.089c.793 0 1.54-.309 2.101-.87s.869-1.308.869-2.161c-.001-1.637-1.333-2.969-2.97-2.969h-19.03c-2.757 0-5 2.243-5 5v3h-3.006c-1.651 0-2.994 1.346-2.994 3v9c0 1.654 1.346 3 3 3h36c.551 0 1 .449 1 1s-.449 1-1 1h-6.559c-1.293 0-2.437.824-2.847 2.053l-.087.263c-.136.409-.517.684-.948.684h-37.559c-.551 0-1-.449-1-1s.449-1 1-1h2c1.654 0 3-1.346 3-3v-18h-1c-2.757 0-5-2.243-5-5s2.243-5 5-5zm13 13v-3c0-1.654 1.346-3 3-3h19.03c.535 0 .97.435.97 1.03 0 .259-.101.503-.284.686s-.427.284-.686.284h-5.089c-1.622 0-2.941 1.318-2.941 2.99 0 .566-.437 1.01-.994 1.01zm-19.705-6c.771 2.578 2.986 4.538 5.705 4.929v16.071c0 .551-.449 1-1 1h-2c-1.654 0-3 1.346-3 3s1.346 3 3 3h37.559c1.293 0 2.437-.824 2.847-2.053l.087-.263c.136-.409.517-.684.948-.684h6.559c1.654 0 3-1.346 3-3s-1.346-3-3-3h-36c-.551 0-1-.449-1-1v-3h28c6.617 0 12-5.383 12-12 0-1.037-.146-2.039-.395-3h2.395v30h-58v-30zm50.233 34h-47.056c-1.775 0-3.411-.742-4.571-2h56.197c-1.159 1.258-2.795 2-4.57 2z"/><path d="m13 26.5c0 1.378 1.122 2.5 2.5 2.5h5.5v-2h-5.5c-.276 0-.5-.224-.5-.5 0-1.378-1.122-2.5-2.5-2.5h-3.5v2h3.5c.276 0 .5.224.5.5z"/><path d="m43 33h2v2h-2z"/><path d="m50 31h2v2h-2z"/><path d="m24.5 36.793h2v1.414h-2z" transform="matrix(.707 -.707 .707 .707 -19.048 29.015)"/><path d="m25.5 21.793h2v1.414h-2z" transform="matrix(.707 -.707 .707 .707 -8.148 25.328)"/><path d="m31.793 21.5h1.414v2h-1.414z" transform="matrix(.707 -.707 .707 .707 -6.391 29.571)"/><path d="m38 21.382h2v2.236h-2z" transform="matrix(.447 -.894 .894 .447 1.434 47.32)"/><path d="m15.882 21.5h2.236v2h-2.236z" transform="matrix(.894 -.447 .447 .894 -8.268 9.978)"/><path d="m46 21.382h2v2.236h-2z" transform="matrix(.447 -.894 .894 .447 5.856 54.476)"/></svg>