<svg xmlns="http://www.w3.org/2000/svg" id="svg-icon" viewBox="0 0 512.001 512.001"><path d="M325.881 108.337c-.003-10.734-6.798-20.367-16.909-23.971L258.844 66.47l-5.156 14.594 50.096 17.858a10.025 10.025 0 016.645 9.419l.007 43.785h15.453l-.008-43.789z" fill="#b3b3b3"/><path d="M328.577 149.19h-19.31a6.126 6.126 0 00-6.126 6.126v22.559h31.562v-22.56a6.126 6.126 0 00-6.126-6.125z" fill="gray"/><path d="M373.876 229.667l-10.818-41.45a18.126 18.126 0 00-17.543-13.559h-53.188a18.128 18.128 0 00-17.543 13.559l-10.846 41.45h109.938z" fill="#ffcc5a"/><path d="M345.516 174.658h-29.583a18.127 18.127 0 0117.54 13.559l11.058 41.45h29.346l-10.818-41.45c-.39-1.497-.96-2.91-1.684-4.217a18.133 18.133 0 00-15.859-9.342z" fill="#ffb000"/><path d="M262.587 64.362l-7.051 19.78a2.842 2.842 0 01-3.632 1.723L81.976 25.301a2.842 2.842 0 01-1.723-3.632l7.051-19.78A2.842 2.842 0 0190.936.166L260.864 60.73a2.842 2.842 0 011.723 3.632z" fill="#ccc"/><path d="M428.568 216.264h-23.584a3.346 3.346 0 01-3.345-3.345v-51.812a3.346 3.346 0 013.345-3.345h23.584a3.346 3.346 0 013.345 3.345v51.812a3.345 3.345 0 01-3.345 3.345z" fill="gray"/><path d="M345.854 174.672c8.11.151 15.154 5.669 17.204 13.545l2.9 11.138h35.68v-24.683h-55.784z" fill="#ccc"/><path d="M373.97 512H263.873c-5.996 0-10.856-4.86-10.856-10.856V229.802c0-5.996 4.86-10.856 10.856-10.856H373.97c5.996 0 10.856 4.86 10.856 10.856v271.342c0 5.996-4.86 10.856-10.856 10.856z" fill="#ff395a"/><path d="M373.97 218.946h-29.586c5.996 0 10.856 4.86 10.856 10.856v271.343c0 5.995-4.861 10.856-10.856 10.856h29.586c5.996 0 10.856-4.86 10.856-10.856V229.802c0-5.996-4.86-10.856-10.856-10.856z" fill="#d81942"/></svg>
