<svg height="512" viewBox="0 0 58 58" width="512" xmlns="http://www.w3.org/2000/svg" id="svg-icon"><g fill-rule="nonzero" fill="none"><path d="M5.72 52.21L.17 20.7a7 7 0 01-.1-.92 7.157 7.157 0 016.01-7.23l10.71-1.89-.29 41.55z" fill="#35495e"/><path d="M46.94 50.83a2 2 0 01-1.59 1.5l-31.52 5.56a7.011 7.011 0 01-8.21-6.6 7.141 7.141 0 015.61-7.14l8.83 2.48h-.01l-7.95 1.41a3.005 3.005 0 00-2.28 4.05 3.09 3.09 0 003.44 1.84l24.09-4.25z" fill="#2c3e50"/><path d="M20.05 46.63l-7.95 1.41a3.005 3.005 0 00-2.28 4.05 3.09 3.09 0 003.44 1.84l24.09-4.25z" fill="#f9eab0"/><path d="M12.826 33.171l5.557-31.514A2.014 2.014 0 0120.7.035L51.977 5.55a7.163 7.163 0 016.015 7.235 7.15 7.15 0 01-.1.916l-5.557 31.514z" fill="#e64c3c"/><path d="M45.438 10.474c-.059 0-.117-.005-.175-.015L22.612 6.465A1 1 0 0122.96 4.5l22.65 3.989a1 1 0 01-.172 1.985zM40.63 14.7a.95.95 0 01-.175-.016l-14.772-2.601a1 1 0 01.347-1.969l14.773 2.6a1 1 0 01-.173 1.986z" fill="#3f5c6c"/><rect fill="#ecf0f1" height="12" rx="1" transform="rotate(10.02 31.273 23.184)" width="23" x="19.833" y="17.234"/><path d="M57.99 12.78a6.643 6.643 0 01-.1.92l-5.56 31.51-7.71-2.35 4.47-25.34 1.06-5.98 1.08-6.12.75.13a7.164 7.164 0 016.01 7.23z" fill="#c03a2b"/><path d="M46.42 37.06l-31.28-5.51a2 2 0 00-.69 3.94l31.51 5.55a3.013 3.013 0 012.27 4.06 3.071 3.071 0 01-3.43 1.83L13.41 41.4a2 2 0 10-.7 3.94l31.52 5.55a7.007 7.007 0 008.21-6.59 7.176 7.176 0 00-6.02-7.24z" fill="#802f34"/><path d="M48.23 45.1a3.071 3.071 0 01-3.43 1.83L13.41 41.4l1.04-5.91 31.51 5.55a3.013 3.013 0 012.27 4.06z" fill="#f9eab0"/></g></svg>
