<svg viewBox="0 0 512 512" xmlns="http://www.w3.org/2000/svg" id="svg-icon"><path d="M346.22 378L257 412l-91.22-34c1.1-3.62 2.21-8.09 3.29-11.6C175.2 346.56 181 327.81 181 317c0-11.22-3.63-27.24-7.15-42.64-1.32-5.76-2.64-11.58-3.84-17.36L259 219l82.99 38c-1.2 5.78-2.52 11.6-3.84 17.36-3.52 15.4-7.15 31.42-7.15 42.64 0 10.81 5.8 29.56 11.93 49.4 1.08 3.51 2.19 7.98 3.29 11.6z" fill="#ff6c6c"/><path d="M331 317c0-11.22 3.63-27.24 7.15-42.64 1.32-5.76 2.64-11.58 3.84-17.36L259 219l-3 1.281v191.346l1 .373 89.22-34c-1.1-3.62-2.21-8.09-3.29-11.6C336.8 346.56 331 327.81 331 317z" fill="#e63950"/><path d="M301 15v62l-46 21-44-21V15c0-8.28 6.72-15 15-15h60c8.28 0 15 6.72 15 15z" fill="#ff6c6c"/><path d="M286 0h-30v97.543L301 77V15c0-8.28-6.72-15-15-15z" fill="#e63950"/><path d="M341.99 257H170.01c-3.47-16.71-5.87-33.03-3.86-47.12 1.72-12.04 7.95-26.31 19.04-43.64 16.59-25.91 25.49-56.14 25.79-87.53.02-.57.02-1.14.02-1.71h90c0 .57 0 1.14.02 1.71.3 31.39 9.2 61.62 25.79 87.53 11.09 17.33 17.32 31.6 19.04 43.64 2.01 14.09-.39 30.41-3.86 47.12z" fill="#edf5ff"/><path d="M326.81 166.24c-16.59-25.91-25.49-56.14-25.79-87.53-.02-.57-.02-1.14-.02-1.71h-45v180h85.99c3.47-16.71 5.87-33.03 3.86-47.12-1.72-12.04-7.95-26.31-19.04-43.64z" fill="#cdf"/><path d="M346.22 378H165.78C158.3 402.58 151 428.31 151 452c0 29.44 11.42 44.19 21 51.38 10.95 8.2 21.91 8.62 24 8.62h120c2.09 0 13.05-.42 24-8.62 9.58-7.19 21-21.94 21-51.38 0-23.69-7.3-49.42-14.78-74z" fill="#edf5ff"/><path d="M256 378v134h60c2.09 0 13.05-.42 24-8.62 9.58-7.19 21-21.94 21-51.38 0-23.69-7.3-49.42-14.78-74z" fill="#cdf"/></svg>
