<svg viewBox="0 0 50 58" xmlns="http://www.w3.org/2000/svg"><g id="Page-1" fill="none" fill-rule="evenodd"><g id="039---Bouquet-Of-Flowers" fill-rule="nonzero"><path id="Shape" d="m13.27 4.82-2.55-2.87c-.3676255-.410713-.99827759-.44649467-1.41-.08l-1.5 1.32c-.15.14-.29.28-.41.41-.04922866.04826005-.09283932.10193472-.13.16-1.41583756-.8332236-3.05133851-1.21681658-4.69-1.1-.31660675.05034406-.57462161.28099371-.66.59-.31156018 1.67765715-.09493548 3.4106548.62 4.96-.53130808.24631732-1.02329114.56981303-1.46.96l-.74.66c-.41489878.3682852-.45508151 1.0022794-.09 1.42l3.32 3.73c1.48863416 1.682411 3.79425172 2.3891581 5.97 1.83.57 1.54 1.66 3.59 3.46 4.19h4.207c.518.7 1.05 1.412 1.632 2.13.2247201.277774.5805606.414561.93348.3588348.3529193-.0557263.6493007-.2954998.7775-.629.1281993-.3335003.0687401-.7100608-.15598-.9878348-.772-.952-1.477-1.915-2.16-2.847l-.018-.025h4.284c1.4 1.3333333 3.6 1.3333333 5 0h4.284l-.018.025c-.683.932-1.388 1.9-2.16 2.847-.3473871.4294014-.2809014 1.0591129.1485 1.4065s1.0591129.2809014 1.4065-.1485c.582-.718 1.114-1.428 1.632-2.13h4.207c1.8-.6 2.89-2.65 3.46-4.19 2.1757483.5591581 4.4813658-.147589 5.97-1.83l3.32-3.73c.3650815-.4177206.3248988-1.0517148-.09-1.42l-.74-.66c-.4367089-.39018697-.9286919-.71368268-1.46-.96.7149355-1.5493452.9315602-3.28234285.62-4.96-.0853784-.30900629-.3433932-.53965594-.66-.59-1.6386615-.11681658-3.2741624.2667764-4.69 1.1-.0371607-.05806528-.0807713-.11173995-.13-.16-.12-.13-.26-.27-.41-.41l-1.5-1.32c-.4117224-.36649467-1.0423745-.330713-1.41.08l-2.55 2.87z" fill="#802f34"/><path id="Shape" d="m39.61 44.55-1.59 1.24c-.3853787.3026757-.9343802.2771407-1.29-.06-1.3422962-1.1569203-2.9231474-2.003683-4.63-2.48l-.1-2.25 1.51-1.5c2.3131406.6885284 4.4352982 1.9036348 6.2 3.55.1996382.2056348.3027222.486276.2836577.7722438-.0190645.2859679-.1584896.5504418-.3836577.7277562z" fill="#e57e25"/><path id="Shape" d="m19.617 23.5c-.3020553.0001796-.5880072-.1361805-.778-.371-.8-.988-1.522-1.972-2.218-2.923-1.1545341-1.7888309-2.5655992-3.3983481-4.188-4.777-.3001693-.2053652-.4651727-.5575097-.4308892-.9195885.0342835-.3620789.2624478-.6769962.5958272-.8223737.3333795-.1453775.7194037-.0982907 1.008062.1229622 1.795308 1.4961855 3.355418 3.2538375 4.628 5.214.683.932 1.388 1.9 2.16 2.847.2423724.2995573.2910684.711722.1251786 1.0595143-.1658899.3477922-.516849.5693296-.9021786.5694857z" fill="#4c8056"/><path id="Shape" d="m30.383 23.5c-.3853296-.0001561-.7362887-.2216935-.9021786-.5694857-.1658898-.3477923-.1171938-.759957.1251786-1.0595143.772-.952 1.477-1.915 2.16-2.847 1.272582-1.9601625 2.832692-3.7178145 4.628-5.214.2886583-.2212529.6746825-.2683397 1.008062-.1229622.3333794.1453775.5615437.4602948.5958272.8223737.0342835.3620788-.1307199.7142233-.4308892.9195885-1.6224008 1.3786519-3.0334659 2.9881691-4.188 4.777-.7.951-1.417 1.935-2.218 2.923-.1899928.2348195-.4759447.3711796-.778.371z" fill="#4c8056"/><path id="Shape" d="m33 55h-2.88l.77 1.55c.1559692.3095182.1405453.6777279-.0407631.9731178-.1813083.29539-.5026437.4758333-.8492369.4768822h-10c-.3465932-.0010489-.6679286-.1814922-.8492369-.4768822-.1813084-.2953899-.1967323-.6635996-.0407631-.9731178l.77-1.55h-2.88c-.3465932-.0010489-.6679286-.1814922-.8492369-.4768822-.1813084-.2953899-.1967323-.6635996-.0407631-.9731178l4.27-8.55 4.62-2 4.62 2 4.27 8.55c.1559692.3095182.1405453.6777279-.0407631.9731178-.1813083.29539-.5026437.4758333-.8492369.4768822z" fill="#ff5364"/><path id="Shape" d="m39.89 22.45-7.27 14.55-7.62 2-7.62-2-7.27-14.55c-.15596925-.3095182-.14054526-.6777279.0407631-.9731178.1813083-.29539.5026437-.4758333.8492369-.4768822h6.22l-.1-.4-.09-.36c-.0737619-.2983583-.0062304-.6140635.1831338-.8561373s.4795252-.3836252.7868662-.3838627h14c.3059456.0040723.593552.1466162.7820731.3876122.188521.240996.2576309.5544606.1879269.8523878l-.09.36-.1.4h6.22c.3465932.0010489.6679286.1814922.8492369.4768822.1813084.2953899.1967323.6635996.0407631.9731178z" fill="#ff5364"/><path id="Shape" d="m29 15.5c.0227697 1.3273438-.5231168 2.6010789-1.5 3.5-1.4 1.3333333-3.6 1.3333333-5 0-.9768832-.8989211-1.5227697-2.1726562-1.5-3.5-.0029258-.6418011.1228882-1.2776716.37-1.87.2669625-.6903288.7120647-1.2976001 1.29-1.76.566828.7138345 1.4284882 1.1298977 2.34 1.1298977s1.773172-.4160632 2.34-1.1298977c.5822601.4582376 1.0283087 1.0668001 1.29 1.76.2471118.5923284.3729258 1.2281989.37 1.87z" fill="#f9eab0"/><path id="Shape" d="m28 10c.0054775 1.4688872-1.0497424 2.7273522-2.4970882 2.9780506-1.4473458.2506985-2.8643562-.5795453-3.3532348-1.9647013-.4888786-1.38515605.0930719-2.92091542 1.3771364-3.63424415 1.2840645-.71332872 2.8954414-.39601547 3.8131866.75089485.4273163.52954883.6602556 1.18954346.66 1.87z" fill="#f3d55b"/><path id="Shape" d="m29 4.5c.0029258.64180108-.1228882 1.2776716-.37 1.87-.2616913.69319994-.7077399 1.30176242-1.29 1.76-.566828-.71383452-1.4284882-1.12989774-2.34-1.12989774s-1.773172.41606322-2.34 1.12989774c-.5779353-.46239992-1.0230375-1.06967115-1.29-1.76-.2471118-.5923284-.3729258-1.22819892-.37-1.87.0003085-.69601454.1468043-1.38420403.43-2.02v-.01c.559934-1.48609575 1.9819173-2.46988848 3.57-2.46988848s3.010066.98379273 3.57 2.46988848c.2832034.63931675.4296678 1.33076472.43 2.03z" fill="#f9eab0"/><path id="Shape" d="m35 10c.0014456.4817259-.0973122.9584875-.29 1.4-.7567117 1.6309523-2.4128554 2.6537488-4.21 2.6-.6418011.0029258-1.2776716-.1228882-1.87-.37-.2616913-.6931999-.7077399-1.3017624-1.29-1.76.8800632-1.0913502.8800632-2.64864977 0-3.74.5822601-.45823758 1.0283087-1.06680006 1.29-1.76.5923284-.24711182 1.2281989-.37292578 1.87-.37 1.7007519-.04308978 3.2830391.86769021 4.1 2.36.2632955.50653869.4005101 1.06911848.4 1.64z" fill="#f5efca"/><path id="Shape" d="m22 10c-.0002556.6804565.2326837 1.3404512.66 1.87-.5779353.4623999-1.0230375 1.0696712-1.29 1.76-.5923284.2471118-1.2281989.3729258-1.87.37-1.7971446.0537488-3.4532883-.9690477-4.21-2.6-.1926878-.4415125-.2914456-.9182741-.29-1.4-.0005101-.57088152.1367045-1.13346131.4-1.64.8169609-1.49230979 2.3992481-2.40308978 4.1-2.36.6418011-.00292578 1.2776716.12288818 1.87.37.2669625.69032885.7120647 1.29760008 1.29 1.76-.4273163.52954883-.6602556 1.18954346-.66 1.87z" fill="#f5efca"/><path id="Shape" d="m15 10c-.0014456.4817259.0973122.9584875.29 1.4-.3132087 1.0657962-.9195869 2.0221414-1.75 2.76l-3.99-4.49c-.8038012-.91666649-1.87345327-1.55985597-3.06-1.84l.08-.28c-.21-1.5-.24-2.66.7-3.79.03716068-.05806528.08077134-.11173995.13-.16.12-.13.26-.27.41-.41l1.5-1.32c.41172241-.36649467 1.0423745-.330713 1.41.08l2.55 2.87.77.87c.6747965.75864814 1.1431316 1.67810012 1.36 2.67-.2632955.50653869-.4005101 1.06911848-.4 1.64z" fill="#c03a2b"/><path id="Shape" d="m13.54 14.16-1.5 1.33c-.7124142.6384462-1.5709896 1.091774-2.5 1.32-2.17574828.5591581-4.48136584-.147589-5.97-1.83l-3.32-3.73c-.36508151-.4177206-.32489878-1.0517148.09-1.42l.74-.66c1.4712956-1.31285057 3.49603205-1.81435646 5.41-1.34 1.18654673.28014403 2.2561988.92333351 3.06 1.84z" fill="#e64c3c"/><path id="Shape" d="m43.43 7.55.08.28c-1.1865467.28014403-2.2561988.92333351-3.06 1.84l-3.99 4.49c-.8304131-.7378586-1.4367913-1.6942038-1.75-2.76.1926878-.4415125.2914456-.9182741.29-1.4.0005101-.57088152-.1367045-1.13346131-.4-1.64.2168684-.99189988.6852035-1.91135186 1.36-2.67l.77-.87 2.55-2.87c.3676255-.410713.9982776-.44649467 1.41-.08l1.5 1.32c.15.14.29.28.41.41.0492287.04826005.0928393.10193472.13.16.94 1.13.91 2.29.7 3.79z" fill="#c03a2b"/><path id="Shape" d="m49.75 11.25-3.32 3.73c-1.4886342 1.682411-3.7942517 2.3891581-5.97 1.83-.9290104-.228226-1.7875858-.6815538-2.5-1.32l-.98-.87-.52-.46 3.99-4.49c.8038012-.91666649 1.8734533-1.55985597 3.06-1.84 1.913968-.47435646 3.9387044.02714943 5.41 1.34l.74.66c.4148988.3682852.4550815 1.0022794.09 1.42z" fill="#e64c3c"/><path id="Shape" d="m21.43 2.48c-.2831957.63579597-.4296915 1.32398546-.43 2.02-.0029258.64180108.1228882 1.2776716.37 1.87-.5923284-.24711182-1.2281989-.37292578-1.87-.37-1.7007519-.04308978-3.2830391.86769021-4.1 2.36-.2168684-.99189988-.6852035-1.91135186-1.36-2.67l-.77-.87c.3682675-1.90023526 1.4761356-3.57642532 3.08-4.66.2058496-.12800151.4495875-.18098801.69-.15 1.7109647.26708524 3.2689739 1.14013822 4.39 2.46z" fill="#4fba6f"/><path id="Shape" d="m36.73 4.82-.77.87c-.6747965.75864814-1.1431316 1.67810012-1.36 2.67-.8169609-1.49230979-2.3992481-2.40308978-4.1-2.36-.6418011-.00292578-1.2776716.12288818-1.87.37.2471118-.5923284.3729258-1.22819892.37-1.87-.0003085-.69601454-.1468043-1.38420403-.43-2.02v-.01c1.1210261-1.31986178 2.6790353-2.19291476 4.39-2.46.2404125-.03098801.4841504.02199849.69.15 1.6038644 1.08357468 2.7117325 2.75976474 3.08 4.66z" fill="#4fba6f"/><path id="Shape" d="m28.57 2.47-.01.01" fill="#e64c3c"/><g fill="#df4d60"><path id="Shape" d="m19.62 30.76c.0631387.2586349.0205381.5317704-.1183635.7588934-.1389017.227123-.3626366.389482-.6216365.4511066-.0750689.0197914-.1523661.0298736-.23.03-.4595536-.0003552-.8597072-.3138776-.97-.76l-2.45-10c-.0198114-.0784657-.0298872-.159072-.03-.24h2.02z"/><path id="Shape" d="m34.8 21c-.0001128.080928-.0101886.1615343-.03.24l-2.45 10c-.1102928.4461224-.5104464.7596448-.97.76-.0776339-.0001264-.1549311-.0102086-.23-.03-.2589999-.0616246-.4827348-.2239836-.6216365-.4511066-.1389016-.227123-.1815022-.5002585-.1183635-.7588934l2.4-9.76z"/><path id="Shape" d="m21.16 52.46-1.3 2.54h-2.12c-.0017672-.1600515.0360181-.3180625.11-.46l1.53-3c.254051-.4915334.8584666-.6840509 1.35-.4299999.4915334.2540509.6840509.8584665.43 1.3499999z"/><path id="Shape" d="m32.26 55h-2.12l-1.3-2.54c-.1643422-.3179664-.1465676-.6994549.0466283-1.0007626.1931958-.3013077.5324619-.4766588.89-.4600001s.6790295.2227963.8433717.5407627l1.53 3c.0739819.1419375.1117672.2999485.11.46z"/></g><path id="Shape" d="m33.94 38.35-.43 1.15-1.41 3.75-.41 1.1c-.1481326.3907041-.5221573.6493382-.94.65h-11.5c-.4178427-.0006618-.7918674-.2592959-.94-.65l-2.25-6c-.1149219-.3075748-.0715317-.6519686.1160904-.9214259s.4955681-.429642.8239096-.4285741h16c.3283415-.0010679.6362875.1591168.8239096.4285741s.2310123.6138511.1160904.9214259z" fill="#f29c1f"/><path id="Shape" d="m27 42h-4c-.5522847 0-1-.4477153-1-1s.4477153-1 1-1h4c.5522847 0 1 .4477153 1 1s-.4477153 1-1 1z" fill="#f9eab0"/></g></g></svg>