<svg xmlns="http://www.w3.org/2000/svg" id="svg-icon" viewBox="0 0 512 512"><path d="M374.473 91.226c-13.493-23.843-29.696-42.928-48.158-56.722C304.901 18.492 280.586 10.039 256 10.039s-48.901 8.453-70.315 24.466c-18.462 13.794-34.665 32.878-48.158 56.722C112.238 135.931 98.304 194.45 98.304 256s13.934 120.069 39.223 164.774c13.493 23.843 29.696 42.928 48.158 56.722 21.414 16.013 45.729 24.466 70.315 24.466s48.901-8.453 70.315-24.466c18.462-13.794 34.665-32.878 48.158-56.722C399.762 376.069 413.696 317.55 413.696 256s-13.934-120.069-39.223-164.774z" fill="#c73e3e"/><path d="M371.049 256c0 36.412-5.411 70.586-14.908 100.141l-42.616-42.616L371.049 256z" fill="#7d2727"/><path d="M313.525 313.525l42.616 42.616c-9.778 30.509-23.903 56.099-40.89 74.16L256 371.049l57.525-57.524zM256 371.049L196.749 430.3c-16.986-18.061-31.112-43.651-40.89-74.16l42.616-42.616L256 371.049z" fill="#ff4f4f"/><g fill="#7d2727"><path d="M198.475 313.525l-42.616 42.616c-9.487-29.555-14.908-63.739-14.908-100.141l57.524 57.525z"/><path d="M198.475 198.475L140.951 256c0-36.412 5.411-70.586 14.908-100.141l42.616 42.616z"/></g><g fill="#ff4f4f"><path d="M255.986 255.998l-57.52 57.52-57.52-57.52 57.52-57.52zM371.04 256.003l-57.521 57.52-57.52-57.52 57.52-57.52z"/></g><path d="M371.049 256l-57.525-57.525 42.616-42.616c9.498 29.555 14.909 63.729 14.909 100.141z" fill="#7d2727"/><path d="M313.525 313.525l42.616 42.616c-9.778 30.509-23.903 56.099-40.89 74.16L256 371.049l57.525-57.524zM256 371.049L196.749 430.3c-16.986-18.061-31.112-43.651-40.89-74.16l42.616-42.616L256 371.049z" fill="#ff4f4f"/><g fill="#ff4f4f"><path d="M196.749 81.699L256 140.951l-59.251-59.252zM315.255 81.695L256 140.951l57.525 57.525 42.616-42.616c-9.784-30.511-23.907-56.1-40.886-74.165zM256 140.951l-57.525 57.525-42.616-42.616c9.778-30.509 23.903-56.099 40.89-74.16L256 140.951z"/></g><path d="M374.473 91.226C399.762 135.931 413.696 194.45 413.696 256s-13.934 120.069-39.223 164.774c-13.493 23.843-29.696 42.928-48.158 56.722-21.414 16.013-45.729 24.466-70.315 24.466s-48.901-8.453-70.315-24.466c-18.462-13.794-34.665-32.878-48.158-56.722C112.238 376.069 98.304 317.55 98.304 256s13.934-120.069 39.223-164.774c13.493-23.843 29.696-42.928 48.158-56.722C207.099 18.492 231.414 10.039 256 10.039s48.901 8.453 70.315 24.466c18.462 13.794 34.665 32.878 48.158 56.721zM371.049 256c0-36.412-5.411-70.586-14.908-100.141C336.384 94.248 298.938 52.686 256 52.686c-21.675 0-41.954 10.591-59.251 29.013-16.986 18.061-31.112 43.651-40.89 74.16-9.497 29.555-14.908 63.729-14.908 100.141 0 36.402 5.421 70.586 14.908 100.141 9.778 30.509 23.903 56.099 40.89 74.16 17.298 18.422 37.577 29.013 59.251 29.013 21.675 0 41.954-10.591 59.251-29.013 16.986-18.061 31.112-43.651 40.89-74.16 9.497-29.555 14.908-63.729 14.908-100.141z" fill="#fbc640"/><path d="M111.406 59.729c2.847-4.758 1.298-10.923-3.459-13.771-4.761-2.845-10.923-1.297-13.771 3.459C60.547 105.614 42.024 178.979 42.024 256s18.522 150.386 52.153 206.582a10.036 10.036 0 0013.771 3.458c4.757-2.848 6.306-9.013 3.459-13.771-30.341-50.696-47.661-116.496-49.181-186.23h26.169c1.44 59.563 15.649 115.933 40.396 159.679 14.18 25.061 31.301 45.187 50.884 59.818C202.826 502.849 229.219 512 256 512s53.174-9.151 76.323-26.462c19.586-14.633 36.706-34.759 50.887-59.821 24.747-43.745 38.956-100.115 40.396-159.678h26.169c-1.521 69.734-18.841 135.534-49.181 186.231-2.847 4.758-1.298 10.923 3.458 13.771a10.04 10.04 0 0013.771-3.458c33.63-56.197 52.153-129.562 52.153-206.583s-18.522-150.386-52.153-206.582c-2.848-4.756-9.013-6.304-13.771-3.459-4.757 2.848-6.306 9.013-3.458 13.771 30.34 50.697 47.66 116.496 49.181 186.231h-26.169c-1.44-59.563-15.649-115.933-40.396-159.679-14.18-25.061-31.301-45.187-50.884-59.818C309.174 9.151 282.781 0 256 0s-53.174 9.151-76.323 26.462c-19.585 14.633-36.706 34.759-50.887 59.821-24.747 43.745-38.956 100.115-40.396 159.678H62.225c1.52-69.735 18.841-135.535 49.181-186.232zm34.858 36.442c12.802-22.624 28.088-40.666 45.432-53.625C211.352 27.847 233.588 20.078 256 20.078s44.648 7.768 64.306 22.469c17.342 12.958 32.627 30.999 45.428 53.622 24.455 43.229 37.922 99.992 37.922 159.83s-13.468 116.602-37.921 159.829c-12.802 22.624-28.088 40.666-45.432 53.625-19.655 14.698-41.892 22.467-64.303 22.467s-44.648-7.768-64.306-22.469c-17.342-12.958-32.627-30.999-45.428-53.622-24.455-43.229-37.922-99.992-37.922-159.83s13.467-116.6 37.92-159.828z"/><path d="M130.911 255.994v.013c.001 36.061 5.297 71.654 15.311 102.951l.034.109c.015.045.028.092.042.139 10.213 31.865 25.129 58.829 43.131 77.968 19.767 21.053 42.786 32.181 66.57 32.181s46.802-11.127 66.564-32.174c18.008-19.146 32.925-46.109 43.135-77.967l.049-.159c.009-.03.019-.059.027-.089 10.016-31.271 15.312-66.865 15.313-102.959v-.013c-.001-36.097-5.298-71.694-15.313-102.961l-.026-.083c-.017-.051-.032-.104-.048-.156-10.324-32.196-25.422-59.355-43.662-78.541-19.654-20.678-42.49-31.606-66.038-31.606-23.783 0-46.802 11.127-66.564 32.174-18.007 19.147-32.925 46.109-43.135 77.967l-.049.159c-.009.03-.019.059-.027.089-10.017 31.27-15.313 66.864-15.314 102.958zM197.29 96.438l44.513 44.513-43.327 43.327-31.128-31.128c7.756-22.37 17.974-41.694 29.942-56.712zm153.903 78.568c4.505 17.675 7.511 36.518 8.909 55.849l-32.378-32.38 23.469-23.469zm0 161.988l-23.47-23.47 32.378-32.379c-1.398 19.33-4.405 38.172-8.908 55.849zm-36.483 78.568l-44.512-44.513 43.326-43.327 31.128 31.128c-7.756 22.37-17.974 41.694-29.942 56.712zm-117.42 0c-11.965-15.015-22.184-34.338-29.941-56.713l31.127-31.127 43.326 43.327-44.512 44.513zm-45.391-134.415l32.377 32.378-23.467 23.467c-4.502-17.685-7.51-36.526-8.91-55.845zm3.25-25.147l43.326-43.326L241.802 256l-43.326 43.326L155.149 256zm57.525 57.525L256 270.198l43.326 43.326L256 356.852l-43.326-43.327zM356.851 256l-43.326 43.326L270.198 256l43.326-43.326L356.851 256zM256 241.802l-43.326-43.326L256 155.149l43.326 43.326L256 241.802zm-71.722-43.327l-32.378 32.38c1.398-19.33 4.404-38.172 8.909-55.849l23.469 23.469zm26.765 231.729L256 385.248l44.957 44.958c-14.072 12.497-29.46 19.069-44.957 19.069-15.495 0-30.882-6.572-44.957-19.071zm133.609-277.055l-31.128 31.128-43.326-43.326 10.922-10.922c3.92-3.92 3.92-10.277 0-14.198-3.921-3.919-10.276-3.919-14.198 0L256 126.752l-44.958-44.958C225.115 69.298 240.503 62.725 256 62.725c35.633 0 69.266 34.479 88.652 90.424z"/><path d="M294.149 112.105c12.919 0 12.941-20.078 0-20.078-12.919-.001-12.941 20.078 0 20.078z"/></svg>
