<svg viewBox="0 0 512 512" xmlns="http://www.w3.org/2000/svg"><g id="flat"><ellipse cx="256" cy="345.358" fill="#fbb540" rx="232" ry="94.642"/><path d="m184 136h8a0 0 0 0 1 0 0v32a0 0 0 0 1 0 0h-40a0 0 0 0 1 0 0 32 32 0 0 1 32-32z" fill="#b9b9b9"/><path d="m336 136h40a0 0 0 0 1 0 0v32a0 0 0 0 1 0 0h-8a32 32 0 0 1 -32-32 0 0 0 0 1 0 0z" fill="#b9b9b9" transform="matrix(-1 0 0 -1 712 304)"/><path d="m344 168h-160v-14a26 26 0 0 1 26-26h108a26 26 0 0 1 26 26z" fill="#cbcbcb"/><path d="m310.668 150.674 2.317-3.958a51.192 51.192 0 0 0 .2-51.387 51.19 51.19 0 0 0 -51.774-25.129l-66.948 9.78 24.237 63.168a51.191 51.191 0 0 0 47.253 32.852 51.189 51.189 0 0 0 44.715-25.326z" fill="#e82f3e"/><path d="m312.99 146.72-2.32 3.95a51.183 51.183 0 0 1 -44.19 25.33h-.53a50.915 50.915 0 0 1 -24.92-6.79l35.1-22.88-5.73-21.89 21.9-5.72 10.56-36.09a51.212 51.212 0 0 1 10.13 64.09z" fill="#e82f3e"/><circle cx="244.47" cy="137.07" fill="#961b20" r="8"/><circle cx="235.885" cy="104.232" fill="#961b20" r="8"/><circle cx="268.723" cy="95.647" fill="#961b20" r="8"/><path d="m312.99 146.72-2.32 3.95a51.183 51.183 0 0 1 -44.19 25.33h-.53a50.915 50.915 0 0 1 -24.92-6.79l35.1-22.88-5.73-21.89 21.9-5.72 10.56-36.09a51.212 51.212 0 0 1 10.13 64.09z" fill="#029532"/><ellipse cx="256" cy="349.895" fill="#ffc864" rx="144" ry="34.105"/><path d="m80 188.717h352v158h-352z" fill="#422608"/><path d="m80 256h352v32h-352z" fill="#331d06"/><path d="m80 253.283h8.356a23.644 23.644 0 0 0 23.644-23.644v-8.356a16 16 0 0 1 16-16 16 16 0 0 1 16 16v64a16 16 0 0 0 16 16 16 16 0 0 0 16-16v-27.589a20.411 20.411 0 0 1 20.411-20.411 19.589 19.589 0 0 0 19.589-19.589v-4.411a16 16 0 0 1 16-16 16 16 0 0 1 16 16v56a16 16 0 0 0 16 16 16 16 0 0 0 16-16v-45.283a12 12 0 0 1 12-12 12 12 0 0 1 12 12v21.283a16 16 0 0 0 16 16 16 16 0 0 0 16-16v-24a16 16 0 0 1 16-16 16 16 0 0 1 16 16v8a16 16 0 0 0 16 16 16 16 0 0 0 16-16 16 16 0 0 1 16-16 16 16 0 0 0 16-16v-9.283a20 20 0 0 0 -20-20h-312a20 20 0 0 0 -20 20z" fill="#683b0d"/><g fill="#331d06"><circle cx="256.001" cy="319.999" r="8"/><circle cx="303.999" cy="312.001" r="8"/><circle cx="351.999" cy="319.999" r="8"/><circle cx="391.999" cy="311.999" r="8"/><circle cx="120.001" cy="312.001" r="8"/><circle cx="160.001" cy="319.999" r="8"/><circle cx="208.001" cy="311.999" r="8"/></g></g></svg>