<svg xmlns="http://www.w3.org/2000/svg" viewBox="0 0 384.1 383.6">
  <path d="M169.7 151.4c-.7 4.8 3.9 64.4.7 67.5-38.8.2-85.5-4.8-95.3 44-1.3 8.8-.4 17.6-.7 26.4 0 1.8.4 3.8-1.3 5.2-61.6-66.8-46.1-182.1 29.2-232" fill="#1fb37f"/>
  <path fill="#01a86d" d="M72.5 341.1C30.5 309.3 6.6 258.8.7 207.6a192 192 0 0196-183c9.5-7.3 5.8 11.5 6.4 16.3 0 6.8.4 13.6-.3 20.4-61.2 45.6-87.2 130.4-51.3 200.2 5.5 12.6 14.5 23 22 34.1.8 8 .3 16.2.4 24.2-.6 7 1.7 15-1.4 21.3z"/>
  <path fill="#a34f3e" d="M254.5.3c3.4 2 7.3 3.5 9 7.3 14.3.8 17.9 3.7 20 15.7 2 13 0 26.5 1 39.7-.6 7.6 0 15.2-.3 22.9 1.4 6.1-4.2 10.1-10 9.1-.9-1.5-.8-3.1-.8-4.7-.6-14.8-3.6-30.9-13.5-42.2-10.2 3.6-21 2-31.6 2-22 .3-43.9.1-65.8 0-11.4.8-20-6.5-19.3-18.3.6-11.4-3.2-26.3 10.2-31.5z"/>
  <path fill="#883f2e" d="M153.4.3c-.1 1.6-1.7 2-2.7 2.8a13.5 13.5 0 00-6.3 11.6c.7 12.4-4 29.3 11.2 34.1-3.5 2.6-7.5 1-11.3 1.3-6.5-.2-13.2 1-19.2-2.1-10.2 10-13.2 29.3-14 43.3 0 5.1 1 10.2-.7 15.2-1.5 1.5-3.9 1.3-5.7 2-4.1 1.5-4.5-3.6-4.3-6.5V68.9c2.3-15 1-30.4 1.3-45.7 1-10.9 5.8-14.8 19.4-15.6 6.6-11.4 21.4-6.3 32.3-7.3z"/>
  <path fill="#fe5757" d="M134.1 346.5c-2.2.6-4.7-6.1-6.2-8.6a18 18 0 01-.5-6v-48.2c1.4-11.4-10.2-11.4-8.6.1v49c0 2.1.3 4.3-1.1 6.2-6.9 2-15 1.2-22.2.3-1.7-1.1-1.6-3-1.6-4.7 0-22-.4-43.9 0-65.8a52.8 52.8 0 0145.2-50.3c9.8-1.7 20-1.1 30-.4 3.7 2 .9 11.3 3.3 15.5 3.3 10.8 12.5 7.8 9 20.7-3.6 34.3 13 65.3 37.5 87.9-.8 4.8-13.4-1.5-10.5 8.7a8.3 8.3 0 01.9 3.3c-1.7 2.7-2.1 5.8.4 8.9-1.8 3.3-2.6 6.5 0 9.8-2.4 3.1-1.5 6.5-1 9.9a175.1 175.1 0 01-34.3 0"/>
  <path d="M218.6 342.5C163 299 167.5 207 230.6 172.9c4-2.5 5.3.9 3 4.1A95.9 95.9 0 00225 222c.3 5.1.6 6.5-4.5 8.9-1.7 4.4-.8 8.9 1.6 13.2-2.1 6.1-5 10.9 3.4 13.5 3.6.5 2.1 2.8 0 3.8-7.7 6.3-8.1 15-1.2 22 1 1 2.5 1.8 2 3.6-9 6.2-8 17.3-.2 23.7a20.9 20.9 0 0012.8 4.4c19 .4 38-.6 57 .2 24 7 47.4 5.7 70.3-4.2 1.9-.8 3.7-2.3 6-.8-27.7 54.2-107.7 74-153.5 32.3z" fill="#afe9f1"/>
  <path fill="#d4f2f5" d="M372 310.2c-23.8 10-50.6 14.7-75.6 6 1.4-1.4 3.2-1.1 4.9-1.1 10.2-.6 20.8 1.2 30.9-1.3 11.7-3.5 17-19.8 5.4-26.9-.8-1.9.8-2.6 1.8-3.6 7.2-7.3 6.7-15.6-1.3-22-.9-.8-2.2-1.2-2.2-2.7.9-1.1 2.2-1 3.4-1.4 4.6-1.5 6.2-5.6 3.8-9.8-.7-1.2-1.8-2.2-1.5-3.7 8.2-16-8.4-35.6-25.8-34.9-19.8.2-39.2-.3-59.1.3-3.8 6.5-9.2 10-16.6 9.2-4.2 5.3-4.5 10.2-12.5 11.6-1.4.3-3 .9-3.9-1-.3-13.1-.3-26.2 3.8-39 1.6-4.7 3.6-9.2 5.3-13.9.4-1.1 2-2.1.7-3.6 2.8-5.5 25-10.8 31.6-12.2a103.9 103.9 0 01115 71.1c5.9 26.6 5.3 54.6-8.1 79z"/>
  <path fill="#01a86d" d="M380 231.4c-7.5-16.5-15.7-32.7-29.8-45.2-1.8-3.4-1.4-7.2-1.8-10.9-1.2-9-2.6-18.1-5.3-26.9-.5-1.6.2-3.1.8-4.6 4.7-11.4-2.2-20-12.4-24.7-11-22.5-29-40.3-48-56-.6-13-.6-25.9 0-38.9.3-.5.7-.2 1 0a192.3 192.3 0 0195.6 207.2z"/>
  <path fill="#fdd1a3" d="M128.7 338.6c9.6 2.9 28.2-20 34.2-9.5 3.7 8-8.3 9.6-13.9 14h19.8a5.8 5.8 0 015 10.2c2.6 3.3 3.4 6.6-.2 10 3 3.2 3.3 6.4 0 9.8 3.3 3 2.7 6.3.7 9.7-37.7-4-72.6-17.2-101.8-41.6l.1-2.5c6.9-2.2 15-2 22.3 0h22.6a12.2 12.2 0 0111.2-.1zM218.6 342.5a103.8 103.8 0 0057.4 21.7 180.2 180.2 0 01-67.3 18.6c-2.9-4.3-3-5 0-9.9-2.8-3-3-6.2.1-9.5-2.4-3.2-3.7-6.4-.1-9.4-5.5-10.7 1-10.4 10-11.5z"/>
  <path fill="#21b380" d="M284.6 24.1l-1.1.1v-1z"/>
  <path fill="#fe4343" d="M72.4 294.5c.8-11.6-1.1-23.4 1.5-35 6.6-31.3 38-44.3 67.5-40.5a53 53 0 00-46.3 50.3c-.2 23 0 46.2-.1 69.2l-22.3.1-.3-44z"/>
  <path fill="#fdd1a3" d="M264.7 161.3c-24.4 5-47.3 17.5-62.7 37.4-2 3.2-5.5 4.9-9.2 3.4-56.1-14.8-67.7-71.8-60.5-122.3a61.5 61.5 0 0111.4-30.7c35.9-.6 71.7 0 107.6-.2a16 16 0 009.3-3.5 82.1 82.1 0 0114.1 49.8c.6 1.7-.7 2.5-1.4 3.6a11.7 11.7 0 00.5 13.8c6.4 7.9-1.7 41.9-9.1 48.7z"/>
  <path fill="#21b380" d="M264.7 161.3l4.8-10.5c1.1-1.1 2.6-.5 3.9-.5 18.3 1 21.9-19.6 17.2-33.6 0-1.6 1.1-2.7 2-4 5-7 2.6-15.3-5.5-18.6-1.3-.6-3-.5-4-1.9l.4-29a133 133 0 0148 55.4c-1.4 1.4-3.3 1-5 1.2-19.9 2.1-20.8 30.9-1 34a17 17 0 0013.7-3.7c1.2-1 2.2-2.5 4-2.4 3.7 5.2 3.7 11.3 4.8 17.2 1.3 7 2.5 14 2.1 21.3a106 106 0 00-85.4-24.9z"/>
  <path fill="#d4f2f5" d="M283.2 92.2c12.7 0 17.8 16.5 7.8 24-3.4 4.8-12.2 4.7-15.5 0-10-8.2-5-23 7.7-24z"/>
  <path fill="#fdbc86" d="M143.7 49c-13.5 24.2-12.2 52.5-11 79.2 2 35.6 30.7 68.7 66.6 73.5a116.8 116.8 0 00-18.3 43.6c-16.4-8.7-9.9-29.1-11.2-44.4-39.4-11.3-68.3-53.9-59.8-94.4-1-21.5 1.4-42.8 14.2-61.2 6 5.2 13 3.1 19.5 3.8z"/>
  <path fill="#fdbc86" d="M109.2 151.4c-24.7.6-24.2-44.1 0-44.7.2 1.8-1 3-2 4.3-5.2 7.6-5.1 28.5 0 36.1 1 1.3 2.4 2.4 2 4.3z"/>
  <path fill="#fdd1a3" d="M109.2 151.4c-9.6-11.3-10.3-34.7.8-44.9-.3 15-.3 30 5.2 44.3z"/>
  <path fill="#fe4343" d="M128.7 338.6h-11.2v-58.4c0-3.8 1.3-6.5 5.3-6.6 4.1 0 6 2.6 6 6.6l-.1 58.4z"/>
  <path d="M337.6 286.3c5.5 2.5 8.6 6.6 7.8 13-2.8 21.1-26 16.5-41.2 16.8-11 .3-22.2 0-33.3-.1a18.5 18.5 0 01-13.6-15.4c-3.3-15.3 15.7-18.1 27.1-16.2 16.5 1 33 .3 49.4.6a4.4 4.4 0 013.8 1.3z" fill="#fdc144"/>
  <path fill="#feb40a" d="M223.7 229c7.2.6 11.1-2.6 14.8-12.4 8.1 1.8 14-1.2 17.1-9h28c0 2-2 2-3.2 2.4-8.6 3.1-15 8.7-18.2 17.5-1.4 4.8-3.1 11.7 1.4 15.3 4.3 2.7-1.9 4-4.4 3.4-10.8.4-21.5.2-32.3.1-8-.6-10.6-9.6-7-17.8zM265.7 286.3c-10.6 7.2-9.9 20.2 1.4 27 1.3.7 3.2.7 3.8 2.6-11.3 0-22.6.3-34 0a18.1 18.1 0 01-16.7-10.5c-4-8.1-2-14.6 6-19.1 4.1-2.9 11.8-1 17-1.2a101.7 101.7 0 0112.7 0c3.4 0 6.8-1.1 9.8 1.2z"/>
  <path fill="#883f2e" d="M243.3 286l-17.2.3c-11.2-8.4-10.7-20 1.3-27.6 1-1.3 2.3-1.4 3.7-1.4 10.5.2 21.1-.8 31.6.5 4 2.5-6 2.6-8.3 14.4-5.3 2.9-9.5 7.4-11 13.8z"/>
  <path fill="#fe4343" d="M262.7 258.5l-35.3.2c-8.4 1.2-12.7-9.8-5.4-14.4 12.5 1.8 25.1.2 37.7.9a1.1 1.1 0 01.2 1c-2.3 4.5-1 8.1 2.6 11.2a1 1 0 01.2 1z"/>
  <path d="M265 245c-6.4-4-7-13.6-1.8-22.5 4.7-8 12-12.1 20.5-14.9 11.7 0 23.4-.4 35.1.2 15.6 0 35.3 23 22.9 36.5-1.5 2-3.7 2-5.8 2.1h-66.6c-1.6 0-3.3 0-4.4-1.5z" fill="#fec043"/>
  <path fill="#a34f3e" d="M253.8 272.2a16 16 0 0113.7-14.8c10.7 0 21.4-.2 32.1 0 14.8 0 5.5 17.2 15.9 18.3 3.3.1 5.7-2.5 6.4-7 2.5-28.2 39.6 2.1 15.7 17.5l-35-.2c-1.5-.8-1.3-2.4-1.6-3.6-3.7-13-11.6-6.3-19.6-10.4-12.6-8.6-17.6 6-27.6.2z"/>
  <path fill="#fe5757" d="M336.1 258.6c-21.3-3.1-5 17.8-21 18.5-4.7-.4-6.9-3.7-6.8-8.6.1-7.4-2.7-10-10.2-10l-34.6.1c-5.9-2.7-7.7-8-3.8-13.5 27.3-1.2 54.9 1.2 82-.8 7.4 4.8 2.9 15.3-5.6 14.3z"/>
  <path fill="#d4f2f5" d="M343.3 147.7c-12.6 14.8-34.2 5.7-33.4-12 3.4-29.3 49.2-16.6 33.4 12z"/>
  <path d="M189.3 145.6c5 .2 10 .2 14.8.8 15.5 3 13.1 27.2-2.9 27.5-3.4.2-7 0-10.4 0-15.6-2.7-15.7-23.3-1.5-28.3z" fill="#fea78e"/>
  <path fill="#fdbc86" d="M275.5 116.2a14 14 0 0015.6 0c7.5 15.9-.4 39.4-21.6 34.6a91.8 91.8 0 005.2-32.3 7.1 7.1 0 01.8-2.3z"/>
  <path fill="#052f5f" d="M239.2 96.2c-.8 8.5-6 13.2-13.2 12-15-3.2-10.7-25.4 5.9-21.7 0 4.3-2.9 8.7 3.8 9.2 1.2 0 2.5-.6 3.5.5zM168.1 96.2c-.9 8.5-6 13.2-13.2 12-15-3.2-10.8-25.4 5.9-21.7 0 4.3-2.9 8.7 3.8 9.2 1.2 0 2.5-.6 3.5.5z"/>
  <path d="M189.3 145.6c-2.6 3.2-7 4.5-8.5 9.2-2.6 8.7 0 14.1 10 19.1-26.8 4.8-28.5-31-1.5-28.3z" fill="#f79580"/>
  <path fill="#fdbc86" d="M185.3 117a4.6 4.6 0 013.7 1.5c5.4 5.1 9.3-6.2 14.5.6 6.7 11.5-16 15.3-21.7 8-3.8-3.3-1.5-10 3.5-10.1z"/>
  <path fill="#fefefe" d="M168.1 96.2c-7.2 3.3-12.3-3.7-7.3-9.7 7-1.5 11.9 3.2 7.3 9.7zM239.2 96.2c-7.2 3.3-12.3-3.7-7.3-9.7 7-1.5 12 3.2 7.3 9.7z"/>
  <path d="M260.5 273c10.3-6.4 15.6-6.4 23.8-.3 14.2 0 17.8 2.7 18.3 13.3-15.6-.7-31 .2-46.6 0-1.8-4 .2-10 4.5-13z" fill="#a3e42d"/>
  <path d="M260.5 273c-2.6 4-4.8 8-4.5 13h-12.7a13 13 0 0117.2-13z" fill="#82cb01"/>
</svg>
