<svg xmlns="http://www.w3.org/2000/svg" viewBox="0 0 383.7 383.7">
  <circle cx="191.8" cy="191.8" r="191.8" fill="#fef8ba"/>
  <path fill="#fef196" d="M.3 177c3.4-28 10.3-54.9 24.8-79.4L40 119.3c1.2 2.1-.5 3.2-1.7 4.3a18 18 0 00-4.7 7c-1 2.8-.6 3.5 2.4 3.6 4.3.2 8.6 0 13 .3 2.6 0 5.7-1.6 7.5 2a169 169 0 0051.9 37.6 2.8 2.8 0 01-1.2 2.6c-6.2 5-10 11.8-14.7 18.1-1.4 2-2.8 4.1-5.5 4.7a18 18 0 01-4.8-.4c-5 0-7.1 3.9-10 6.9-2.6 1.4-5.6 1.6-8.6 2.1-7.6 1.3-13.3 5.1-17 12-2.6 4.8-5.5 9.4-7.9 14.3-.8 1.6-1.6 3.1-3.3 4a7.2 7.2 0 01-5-.4c-7.5-2.8-15-5.2-22.5-7.8a7.4 7.4 0 01-3.9-2.6L.3 206.9zm358.4-79.4q44 81.1 10.4 167a1.6 1.6 0 01-1 .1c-4.3-2.2-6.6-6.4-9.7-9.6a120.1 120.1 0 01-10.3-11.7c-1-3.5-2-7-4.8-9.7a3.6 3.6 0 01-1.1-3c.2-1.7 1.4-2.8 2.3-4.2 2.1-3.5 2-7.1-.5-10a9 9 0 00-10.2-2.2 39.6 39.6 0 00-5.4 3.2c-1.8 1.2-3.7 2-6 1.4a13 13 0 01-3.8-2.3c-8-6-17.2-7-26.7-5.7a55.5 55.5 0 00-19.7 6.8c-5.3 3-8.3 2.5-12.5-2.1a37.4 37.4 0 01-6-9.4 108.2 108.2 0 01-6.1-16.4c-.4-1.6-1.1-3.1.2-4.6 23.2-7.9 45.2-18 63.8-34.5.3-2 1.9-2.2 3.4-2.2a116.3 116.3 0 0114.9.2c4.2-.5 8.4-.1 12.6-.3.8 0 2 .2 2.2-.9.3-.8-.4-1.6-1-2.2-2.1-2-4.9-2.8-7.6-3.6-4.2-1.3-5.9-5-4.3-9z"/>
  <path fill="#ec784a" d="M87.1 198.8l21.3-24.7c31.3 0 44.9-24.5 61.8-44.6a21.6 21.6 0 0121.7-7 4.9 4.9 0 011.5 4l-.1 44.6-.4 1.2a3.3 3.3 0 01-2.5 2.1c-7.1 2-12.2 7-17 12.3l-3.8 4.6a41.4 41.4 0 01-25.4 16.5c-9 1.8-16.3 6.5-22.5 13.2-4 4.3-8 8.6-13.6 11-1.6.6-3.2 1.4-5 1.3-3.6-1.7-6.8-1.6-9.2 2a2 2 0 01-1.7.7 2.6 2.6 0 01-2.5-2.2c-1-7 .5-14 .8-21 .1-4.2-.1-7.9-2.5-11.3a3.2 3.2 0 01-.9-2.7z"/>
  <path fill="#d75e39" d="M275.3 244.3a5.3 5.3 0 01-2.5.7c-9 0-18 .4-27.1-.2a54.8 54.8 0 01-19-21.1c-5.4-10.4-9.5-21.4-15-31.7-2.5-4.5-4.8-9-8.6-12.7-2.3-2.3-4.7-4.4-8.2-4.9a4.3 4.3 0 01-3-2v-50c32.1 9 48.3 32 56 62.8 1.3 4.1 2.4 8.4 4 12.4 5 14 9.5 26.1 29.2 15.1 13.5-7.5 29-5.9 41.8 5.3 1.1 2-.3 3-1.6 4-4.1 2.5-8 5.6-12.6 7.5-4.3-.2-7.5 2.3-10.8 4.5"/>
  <path fill="#feea97" d="M157.5 57.9l-17-1.1c1.1-3.3 1.6-7.1 3.6-9.9 4.3-6.1 10.7-8 18.1-6.6 1.2.2 3-.8 3.9-1.8 11.6-14 31.5-11.7 39.2 4.6 1.6 3.3 2.8 5.2 7 5.4s7.3 3.6 8.6 8l-17 1.4c-2.2-1.9-4.2-4-7-4.8-1.8-.5-2.5-2-3.3-3.5-4.4-7.7-12.8-9-19.2-3-1.5 1.4-3 2.6-5.2 2.4-4.6-.5-7.6 1.8-9.6 5.7a10 10 0 01-2 3.2zm174.3 74.9c.3 5.2 3 7.5 8.3 8.7 2.8.7 4.9 4.6 7.3 7L331 150c-2.6-1.5-4.9-3.4-7.8-4.4-1.7-.6-2.4-2.4-3.3-3.9-4-6.6-11.8-8-17.7-3-2 1.6-4 3-6.6 3a9.2 9.2 0 00-9.5 6.4 3.1 3.1 0 01-1.6 2c-5.5-2-16.2 3.8-16.2-3.2 0-11.3 10-14.3 21.2-14.3 4.6 0 8.8-6.9 13.8-8.9 11.6-4.7 20.7.4 28.4 9zm-283.6 3c-18 2-22.4-2.6-8.2-16.5 14.6 4.5 22.6-12.4 36.3-11.3 7.5.6 13.7 3.2 17.5 9.6 2.8 4.8 5.2 9 11.5 10.4 2.6.5 9.2 3.8 2.2 7.5-3.3 1.8-8.5.3-12.9.3"/>
  <path fill="#f8df73" d="M48.2 135.8c.5-5.2 3-9 8.2-9.6 10-1.2 21-15.1 30 2.4 1.4 3 5.4 4.8 8.2 7.2l-38.2.6zm109.3-78c.2-5.6 3.5-9.4 8.7-10 9.7-1.3 20.5-15 29 1.8 2 3.9 8.8 2.4 8.6 8.3zM284.6 150c.2-5.1 3-9.1 7.8-9.5 9.9-.7 20.6-15.4 29.8 1.7 1.7 3.2 5.8 5.2 8.9 7.8l-19.5.6z"/>
  <path fill="#f89468" d="M308.6 228.6l14.3-10.6c2.2-1 4.6-1.6 6.5-3 5.5-3.7 11-5 15.7.4 5.1 6 2 11.3-2.8 16-1.8 1-3.8.2-5.7.5-7 1.8-9 4.4-9.3 11.7a12 12 0 01-.7 4.4c-3.5 5-8.3 8.8-12.4 13.2-.6.6-1.8 1.3-1.5 2 .4 1 1.7.4 2.6.5h9c1.4.2 3 .4 3.8 1.8 1.5 3.6.3 7.4 1 11 1 4.8.9 4.8 5.8 5l2.2.3c7.3-.8 7.1-.8 8.5-8.1.6-3-.7-6.5 2-9.2 1.4-1 3.2-1 5-1 5.2.3 10.6-.7 15.8 1a4.5 4.5 0 01.6 0 164.2 164.2 0 01-27.3 46.3c-1.7 1.3-3.6 1.5-5.6 1.5-8 0-16-.5-23.9.1-8.7.7-14.8-3-19.9-9.4a7.5 7.5 0 00-1.4-1.7 18 18 0 00-12.4-4c-7.1 0-14.3.4-21.5-.4-3.4-.4-6.5 1.2-9.5 2.6-8 5.6-16.5 10.5-24.6 16-6.5 4.6-13 6.7-20.4 2.7l-5.4-3.3c-3-1.9-3.6-1.6-3.7 2V377.6c0 2 .3 4-1.5 5.5l-12-.1c-1.5-1-1.6-2.5-2-4L163.2 303a7.5 7.5 0 01.5-5.1c3.8-3.4 7.9-2.3 11.8-.5s7.4 4.5 11 6.9c1 .6 2 1.9 3.3 1 1-.5.6-2 .6-3v-31.7c0-1.9-.1-3.8 1-5.5a3.2 3.2 0 011-.8c1.5-1 3.3-.7 5-.7h19.8c2.7 0 3.9-1.2 3.9-3.8 0-3-.2-6 .8-9 2-5.7 5.8-8.8 12-8.8 3.4 0 7.2-1.2 10.4 1.3l31.3.1"/>
  <path fill="#fea779" d="M157.7 264.2c5.5-1.1 11-.5 16.6-.5s11-.8 16.6.7a2.2 2.2 0 011 1v40a23.5 23.5 0 01-.5 3.2 28.6 28.6 0 01-3.3-1.2c-7.7-4-13.5-12.7-24-9a8.9 8.9 0 01-3 2.7c-12.2 5.5-24 12-37.3 15a64.4 64.4 0 01-13.7 1.6H52a28.3 28.3 0 01-5.5-.8A187.5 187.5 0 014 227.5l31.5 10a7 7 0 013.7.4l31.3 10.9a10.4 10.4 0 014.6 2.9 8.7 8.7 0 01.9 4.3c.2 5.7.2 5.7 5.7 6.4l4.6-.4a2.5 2.5 0 001.2-.8c.9-1.5.4-3.5 2-4.7 3.2-1 5.9 1 8.8 1.7 1.5.3 2.7 1.2 4.2 1.4 4.2 1.2 8.6 1.6 12.7 3.4"/>
  <path fill="#ec784a" d="M46.6 316.9c10.2-.3 20.4-1.4 30.4-.7a148 148 0 0087-18l15.8 85q-80-6-133.1-66.3zM192 383.3v-61c0-3.9.4-7.8.6-11.7l11.4 7c2.5 2.1 3.5 5.3 4.8 8.2l14.7 33.6c.3.8.5 2.3 1.5 2.3s1-1.6 1.3-2.5l17.2-52a70.8 70.8 0 013-8.4c15.2-4.6 30.3-6 45 1.5 1.2 5.3-.2 10.6-1 15.8l-5 40.1a16 16 0 01-.7 3.3 181.7 181.7 0 01-92.8 23.8z"/>
  <path fill="#d75e39" d="M284.7 359.5l6.7-59.2c13.8 18 33.4 8 50.3 10.6a176.3 176.3 0 01-57 48.6z"/>
  <path fill="#ec784a" d="M74.2 251.8l-38.8-14.3c7.8-15.7 14.6-32.7 36.6-32.2 1.7 2.8 1.3 6 1.6 9 .3 3.6 0 7.2.7 10.8a9 9 0 01-.3 4.1 2.8 2.8 0 01-2.1 2.3 3 3 0 01-3.2-1.5c-.8-1.3-.9-2.8-1.2-4.3-.5-3.2-2.6-4.8-5.4-4.4-2.5.4-3.8 2.5-3.6 5.7.4 6.3 4 10 11.3 12 5.3 1.5 7.6 8.2 4.4 12.7z"/>
  <path fill="#b5e137" d="M74.2 251.8c0-5.9.5-11-8-12.5-6.8-1-9.8-7.5-9.2-14.3.1-2 3-4.2 5-5.3 1.2-.6 3.6.8 5.3 1.6 3.8 2-1 8.1 4.6 9.3l.2-14.2-.2-11c1.8-4.6 4.7-7.6 9.9-7.6 1.5 1.3 1.6 3 1.6 4.8V259c0 1.6 0 3.3-1.5 4.4-11.4 2-6-7.1-7.7-11.6z"/>
  <path fill="#6eda2d" d="M82 263.4l-.1-65.6 5.2 1c10.6 10.8 1.6 23.6 3.8 35.3-.9 1.2.1 2.1.8 2.8.3.2.8-1.1 1.4-1.6 2-5 5.2-6.4 9.8-3 2.4 1.3 2.8 3.3 2.4 5.7-1.1 5.4-4 9.6-9.3 11.3-3.3 1-5.6 2.3-5.6 6.2 0 .6-.6 1-1 1.5l-.8 6a2.3 2.3 0 01-.8.5zm265.6 1.8c-3.5 6 6.8 20-10.4 17.8-1.6-1-1.7-2.7-1.7-4.3v-43.5c0-1.7.2-3.3 1.6-4.4l5.2.6a13.8 13.8 0 016.8 12 8.5 8.5 0 011 6c-.5 3-.1 6-.3 9-.2 2.4-.4 4.8-2.2 6.8z"/>
  <path fill="#d75e39" d="M347.6 265.2l1.5-21.7 19.3 21zM89.4 257c-1.5-6.2 2.1-7.7 7.3-9.7 6.2-2.4 9-8 6.2-15 14.6-3.2 19.6-21 33.8-23.3 20.7-3.3 31-19.3 44.7-31.5 2.7-2.3 7-3 10.4-4.3 1.6 1 1.6 2.7 1.6 4.3v83.2c0 1.7 0 3.3-1.6 4.4v.3l-.7-.2c-2-.8-3-2.5-4-4.3l-14-23.3c-3.9-6.3-7.7-8-14.8-6.5-6 1.2-11.8 3-17.8 4a6 6 0 01-2.2 0c-2.1 0-3.9 1.4-5.8 2.2a6.2 6.2 0 01-1 .4 5.3 5.3 0 01-1 .2l-17 4.4c-7 2-9.7 5.7-10 13 0 2 .5 4-1.4 5.5z"/>
  <path fill="#c84d31" d="M191.8 265v-91.9l.1-.6c17.6 2.6 20.6 18.3 26.6 30.6 7 14.6 13.4 29.3 25.7 40.3-14.4-1.6-23.5 2.2-21.9 19.4.5 4.8-5.1 2.1-7.7 2.2-7.6.5-15.2.1-22.8 0z"/>
  <path fill="#d75e39" d="M93 235.3l-.8 4.5a6.6 6.6 0 01-1.5 0l.2-5.8z"/>
  <path fill="#03a13e" d="M308.6 228.6c10.4 11 4 21.3-5.9 24.2-12.2 3.5-11.5 10.7-11.3 19.2 0 5.1-2 6.7-6.6 5.5-1.7-1-1.7-2.7-1.7-4.3q-.1-26.5 0-53a5.8 5.8 0 011.5-4.5c11.4 1.4 8.8 10.2 9.1 17.4a4 4 0 011 3.7v1.4c0 .7-.5 1.6.4 1.8.7 0 .7-.9.8-1.4a12.2 12.2 0 00.4-2.9c0-1.2 1-1.9 1.8-2.6 2.4-4.1 6-5.4 10.4-4.5z"/>
  <path fill="#45ae3e" d="M284.6 215.7l.2 61.8c-12 1.7-6.7-7.7-7.5-12.5-1.3-7-1.2-14.3-1.7-21.5 1.3-8.6-4.9-18.3 3.1-26 1.4-1.2 3.9-1.2 5.9-1.8z"/>
  <path fill="#d75e39" d="M246.5 298.8c-2.1 7.4-4 14.9-6.3 22.2-3.7 11.7-7.7 23.4-11.6 35-1 3.2-2.4 6.3-3.7 9.5l-4.4-8.9-16.6-39c17 5.1 25.2-10.6 37.8-15.9a32.5 32.5 0 004.8-2.9z"/>
  <path fill="#b5e137" d="M337 230.8l.2 52.2c-17.1 2-6.5-12.1-10.3-17.9-.4-.5-1-.9-1.1-1.4-.8-5.2-2-10.4 0-15.6-.3-8.4-.2-16.6 11.3-17.3z"/>
  <path fill="#c84d31" d="M325.8 248l1 17-17.3-.1 11.7-12.6 4.5-4.2z"/>
  <path fill="#ec784a" d="M140 233.9c33.2-15.9 39.3 12.3 51 31.2l-34.4.2c-2 1.3-4.2 1-6.4 1-1.2 0-2.6.2-3.6-.8-2.2-4.4-1.1-9-.9-13.5.2-2.3.4-4.7.4-7 0-3.6-1-6.5-4.2-8.5-.9-.6-1.8-1.3-1.8-2.6z"/>
  <path fill="#45ae3e" d="M132 236l6-2c1.5 1.2 1.5 2.8 1.5 4.4V291c0 1.6 0 3.3-1.6 4.3-10.4 1.8-7.3-6.8-6.6-10.4 2.6-14-16-10.3-16.5-21-2.2-2.4-1.6-5-.4-7.3a6.3 6.3 0 016.5-3.4 6.6 6.6 0 016 4.4 13.4 13.4 0 01.5 2.2c0 .3 0 1 .4.9s.3-.6.2-1c-1-4.5-.3-9.1-.8-13.7-.4-3.7 0-7.3 4-9.1a6.7 6.7 0 00.8-.8z"/>
  <path fill="#03a13e" d="M138 295.2l.1-61.2 2-.1c14.6 7.8 4.2 20.8 6.4 31.2a4.3 4.3 0 01.4.6c.7 2 .7 1.9 2 .6a6.9 6.9 0 012-1h5.7c4.8 7.2 1.4 13-5 15-6.1 1.9-7.1 5.1-6.7 9.9.5 6-2.7 6-6.9 5z"/>
  <path fill="#ec784a" d="M131.3 236.8c-5.3 8-1.2 16.6-1.7 25a12.3 12.3 0 01-1 3.1c-.9-1-2.3-1.9-2.3-2.8 0-4.4-1.3-8.2-6.3-7.8-5.7.4-5.4 5.1-5.2 9.4l-12.7-3c-2.5-22.8 15.8-20.4 29.2-24z"/>
  <path fill="#b5e137" d="M87.8 263.5l.8-.5z"/>
  <path fill="#ec784a" d="M132 236l-.8.8z"/>
</svg>
