<svg xmlns="http://www.w3.org/2000/svg" id="svg-icon" viewBox="0 0 512 512">
	<path fill="#f8005c" d="M256,0C115.4,0,0,115.4,0,256s115.4,256,256,256s256-115.4,256-256S396.6,0,256,0z M75.2,389.4C47.6,352,30,306,30,256
		C30,131.9,131.9,30,256,30c58.2,0,111.1,23.4,151.1,59.8L75.2,389.4z M256,482c-63.3,0-120.5-27.4-161.4-69.6L428,111.3
		c33,39.2,54,89.6,54,144.7C482,380.1,380.1,482,256,482z"/>
	<path d="M107.8,127.7c15.3-3.7,37.2-5.7,58-5.7c32.3,0,53.1,7,67.7,22.5c11.8,12.3,18.4,31.1,18.4,52.4c0,36.5-19.5,60.6-44.1,70.4
		v1.2c18.1,7.4,28.8,27,34.4,55.7c7.6,38.5,13.2,65.1,18.1,75.8H229c-3.8-7.8-9-31.5-15.6-65.9c-6.9-38.1-19.5-52.4-46.9-53.7H138
		v119.6h-30.2V127.7z M138,253.5h30.9c32.3,0,52.8-20.9,52.8-52.4c0-35.6-21.9-51.2-53.8-51.6c-14.6,0-25,1.6-29.9,3.3V253.5z"/>
	<path d="M294.6,127.3c14.6-2.9,33.7-5.3,58-5.3c29.9,0,51.8,8.2,65.6,22.9c12.9,13.1,20.5,33.2,20.5,57.8c0,25-6.3,44.6-18.1,59
		c-16,20.1-42,30.3-71.6,30.3c-9,0-17.4-0.4-24.3-2.5v110.6h-30.2V127.3z M324.8,260.4c6.6,2,14.9,2.9,25,2.9
		c36.5,0,58.7-20.9,58.7-59c0-36.5-21.9-54.1-55.2-54.1c-13.2,0-23.3,1.2-28.5,2.9V260.4z"/>
</svg>
