<svg xmlns="http://www.w3.org/2000/svg" viewBox="0 0 410.6 410.8">
  <circle cx="204.3" cy="204.3" r="204.3" fill="#fed83b"/>
  <path fill="#f3c434" d="M336 48.5c216.2 202-86.7 503.5-287.6 287.8A205.6 205.6 0 00336 48.5z"/>
  <path fill="#fed83b" d="M189.7 408.2l5 .7H190a4 4 0 00-.3-.7zm29.2 0a3.3 3.3 0 00-.2.7h-4z"/>
  <path fill="#3e4347" d="M294.7 322.8a4.9 4.9 0 003.8 1.8c11.9-9.2 12-56.4.1-65.9a7.2 7.2 0 00-4.3 2.7h-180a7.3 7.3 0 00-4.3-2.7c-11.8 9.5-11.8 56.7 0 65.9 2 .1 3.3-1.1 4.5-2.4z"/>
  <path fill="#fefefe" d="M298.6 258.7c-16.2 19.6-39.1 21.3-61.6 21.7-36.6.6-73.8 5.4-109.2-8.3-6.6-2.6-11.9-8.8-17.8-13.4 14.1-8.9 30.1-5.6 45.1-5.8 43.8-.5 87.7.5 131.5 1.3 4 0 8 3 12 4.5zm-188.5 65.9c13.9-16.2 33.1-19.8 52.6-20.7 35.4-1.6 71-3.9 106 3.5a52 52 0 0129.9 17.2c-20.4 9.7-42.3 5.7-63.4 6.2-37.5.8-75.1-.8-112.7-1.8-4.1-.1-8.3-2.9-12.4-4.4z"/>
  <path fill="#3e4347" d="M281.3 160a73 73 0 0167.5 42.4c2.5 6 .7 11.2-5 14.2-6 3.1-11.3 1.3-14.8-4.4-20.4-33-47-38.8-79-17.3-5.5 3.8-11 3.2-15.2-2s-3.4-10.6 1.5-15.3a72.5 72.5 0 0145-17.6zM59 208.2c-.2-18.8 33.9-45.8 57.7-47.7 20.6-1.6 38.9 3.2 54.9 16.4 5.5 4.5 6.8 10.3 2.2 16s-10.4 5.7-16.2 1.3C130 173.4 97.4 180.6 80.5 211c-3 5.2-7 8-13 6.7-5.5-1.4-8.2-5.2-8.5-9.5zM161.5 140c-26.9-1.6-49.4-11.2-68.1-29.6-4.8-4.7-8.2-10.2-2.5-15.9s11.1-2.9 16.1 2.3a77.9 77.9 0 0055.7 23.5c7.8.3 18.6-3 18 9.6s-12.3 8.3-19.2 10.1zm138.7-3.9a99 99 0 01-68.8-21.8c-4.5-3.7-5.7-8.5-2.2-13.4s8.5-5.6 13.3-2a81.7 81.7 0 0069.6 16.2c5.8-1.2 10.1 1.5 11.2 7.4 1.1 6.1-2 10-8 11.2s-11.8 2-15.1 2.4z"/>
</svg>
