<svg xmlns="http://www.w3.org/2000/svg" id="svg-icon" viewBox="0 0 512 512"><path d="M483.199 301.788c0 9.253-3.747 17.622-9.805 23.68-6.068 6.058-14.437 9.805-23.68 9.805H62.285c-18.486 0-33.485-14.988-33.485-33.485 0-4.955 1.072-9.649 2.998-13.875a33.566 33.566 0 016.807-9.805c6.068-6.058 14.437-9.805 23.68-9.805h387.43c13.542 0 25.21 8.035 30.487 19.61a33.37 33.37 0 012.997 13.875z" fill="#884d00"/><path d="M480.202 287.913a33.711 33.711 0 01-6.807 9.795c-6.068 6.058-14.437 9.805-23.68 9.805H62.285c-13.531 0-25.199-8.035-30.487-19.599a33.547 33.547 0 016.807-9.805c6.068-6.058 14.437-9.805 23.68-9.805h387.43c13.541-.001 25.209 8.035 30.487 19.609z" fill="#aa6100"/><path d="M512 362.303c0 43.144-19.974 75.202-52.262 96.467-32.298 21.275-76.909 31.757-126.184 31.757H178.445C79.897 490.527 0 448.591 0 362.303c0-4.809 1.197-9.368 3.362-13.469 1.832-3.497 4.361-6.651 7.432-9.337 6.662-5.839 15.884-9.451 26.053-9.451h438.307c14.853 0 27.656 7.702 33.485 18.788 2.164 4.102 3.361 8.661 3.361 13.469z" fill="#ffa733"/><path d="M508.638 348.835c-6.953 28.728-24.377 51.106-48.9 67.26-32.298 21.275-76.909 31.757-126.184 31.757H178.445c-86.704 0-158.96-32.454-175.083-99.017 1.832-3.497 4.361-6.651 7.432-9.337 6.662-5.839 15.884-9.451 26.053-9.451h438.307c14.853 0 27.655 7.703 33.484 18.788z" fill="#ffb655"/><path d="M398.387 254.252l-86.621 86.621a47.423 47.423 0 01-6.953 5.735c-18.34 12.417-43.466 10.513-59.714-5.735l-86.621-86.621h239.909z" fill="#eebf00"/><path d="M398.387 254.252l-86.621 86.621a47.423 47.423 0 01-6.953 5.735 46.758 46.758 0 01-18.08-11.283l-81.073-81.073h192.727z" fill="#ffd422"/><path d="M502.278 266.336c0 4.538-.749 9.18-2.373 13.708-6.36 17.747-23.388 24.637-36.659 14.832l-15.915-11.751c-11.106-8.212-25.272-4.85-33.308 7.911l-.677 1.072c-7.713 12.261-21.161 15.904-32.142 8.722l-35.639-23.305c-8.223-5.371-18.08-4.788-25.865 1.551l-28.561 23.232c-8.202 6.672-18.652 6.953-27.073.718l-32.579-24.148c-8.327-6.172-18.652-5.975-26.823.52L175 302.954c-7.963 6.318-17.976 6.682-26.209.968l-38.408-26.688c-7.557-5.246-16.664-5.392-24.325-.385l-35.826 23.43c-23.857 3.071-35.462-14.447-35.462-14.447-5.714-9.93-6.287-21.702-3.195-31.58 3.674-11.803 12.574-20.9 24.148-20.9h440.566c11.345 0 20.411 8.962 24.138 20.848a40.307 40.307 0 011.851 12.136z" fill="#6dc82a"/><path d="M500.426 254.2c-.156.52-.333 1.03-.52 1.551-6.36 17.757-23.388 24.648-36.659 14.843l-15.915-11.762c-11.106-8.202-25.272-4.84-33.308 7.911l-.677 1.082c-7.713 12.261-21.161 15.904-32.142 8.722l-35.639-23.305c-8.223-5.381-18.08-4.788-25.865 1.551l-28.561 23.232c-8.202 6.672-18.652 6.943-27.073.708l-32.579-24.148c-8.327-6.172-18.652-5.964-26.823.52L175 278.67c-7.963 6.308-17.976 6.682-26.209.968l-38.408-26.688c-7.557-5.256-16.664-5.402-24.325-.385l-35.826 23.419c-23.857 3.081-35.462-14.447-35.462-14.447a37.237 37.237 0 01-3.195-7.286c3.674-11.803 12.574-20.901 24.148-20.901h440.566c11.344.001 20.41 8.963 24.137 20.85z" fill="#7ed63e"/><path d="M493.389 211.93a33.805 33.805 0 01-1.28 9.961c-4.028 14.031-16.956 24.294-32.277 24.294-60.162 0-220.403-1.353-244.571-.552-.541.021-1.082.042-1.613.052-30.518 1.155-37.471 6.047-37.471 22.316v59.527c0 3.06-1.239 5.839-3.247 7.848a11.044 11.044 0 01-7.838 3.247c-6.131 0-11.096 4.965-11.096 11.096v25.928c0 2.633-.312 5.184-.916 7.64-3.424 14.177-16.217 24.7-31.58 24.7h-.822c-17.466 0-31.601-14.187-31.549-31.653l.146-46.932a13.035 13.035 0 013.841-9.222 13.043 13.043 0 019.243-3.82c7.224 0 13.084-5.86 13.084-13.084v-35.275c0-12.053-9.763-21.816-21.816-21.816H52.803c-18.371 0-33.828-14.499-34.203-32.87-.375-18.85 14.801-34.255 33.568-34.255h406.998c18.381 0 33.859 14.499 34.223 32.87z" fill="#ff3501"/><path d="M493.389 211.93a33.805 33.805 0 01-1.28 9.961c-63.69-.062-215.875-1.322-239.377-.552-31.892 1.051-39.084 5.829-39.084 22.379v1.967c-30.518 1.155-37.471 6.047-37.471 22.316v59.527c0 3.06-1.239 5.839-3.247 7.848a11.044 11.044 0 01-7.838 3.247c-6.131 0-11.096 4.965-11.096 11.096v25.928c0 2.633-.312 5.184-.916 7.64-15.051-2.425-26.532-15.509-26.48-31.247l.146-46.922a13.016 13.016 0 013.841-9.222 13.043 13.043 0 019.243-3.82c7.224 0 13.084-5.86 13.084-13.084v-35.275c0-12.053-9.763-21.816-21.816-21.816H90.274c-18.371 0-33.828-14.499-34.203-32.87a33.557 33.557 0 011.291-9.971h401.804c18.381 0 33.859 14.499 34.223 32.87z" fill="#ff5023"/><path d="M301.371 144.94l-74.266 74.297c-7.442 7.442-16.217 12.74-25.564 15.873-23.045 7.786-49.524 2.488-67.864-15.873L59.381 144.94h241.99z" fill="#eebf00"/><path d="M301.371 144.94l-74.266 74.297c-7.442 7.442-16.217 12.74-25.564 15.873-9.337-3.133-18.111-8.431-25.543-15.873l-74.297-74.297h199.67z" fill="#ffd422"/><path d="M512 155.391c0 .552-.021 1.093-.052 1.634a27.576 27.576 0 01-8.046 17.924 27.562 27.562 0 01-19.558 8.098H27.656C12.386 183.046 0 170.66 0 155.391 0 122.25 15.363 97.3 38.564 78.533c18.829-15.238 42.831-26.407 67.958-34.598C176.822 21.047 256 21.473 256 21.473s256-1.384 256 133.918z" fill="#ffa733"/><path d="M512 155.391c0 .552-.021 1.093-.052 1.634H83.862c-15.269 0-27.656-12.386-27.656-27.656 0-33.141 15.363-58.091 38.564-76.857 3.726-3.019 7.65-5.87 11.751-8.577C176.822 21.047 256 21.473 256 21.473s256-1.384 256 133.918z" fill="#ffb655"/><g fill="#fff5cc"><path d="M393.6 69.855c4.439 4.698 4.229 12.105-.468 16.545-4.698 4.439-12.105 4.229-16.544-.468s-12.61-20.974-7.912-25.414 20.485 4.638 24.924 9.337zM331.565 127.694c2.317 6.034-.696 12.804-6.73 15.121-6.034 2.317-12.804-.696-15.121-6.73-2.317-6.034-3.678-24.195 2.355-26.512 6.034-2.316 17.179 12.087 19.496 18.121zM267.703 79.559c0 6.464-5.24 11.703-11.703 11.703-6.464 0-11.703-5.24-11.703-11.703 0-6.464 5.24-23.905 11.703-23.905 6.464-.001 11.703 17.441 11.703 23.905zM203.354 135.028c-1.616 6.258-8 10.021-14.258 8.405-6.258-1.616-10.021-8-8.405-14.258 1.616-6.258 11.051-21.835 17.31-20.219 6.258 1.616 6.969 19.815 5.353 26.072zM138.969 84.05c-2.818 5.816-9.817 8.248-15.635 5.43-5.816-2.818-8.248-9.817-5.43-15.635 2.818-5.816 15.137-19.23 20.955-16.411 5.817 2.819 2.928 20.8.11 26.616z"/></g></svg>
