<svg width="16" height="16" viewBox="0 0 16 16" fill="none" xmlns="http://www.w3.org/2000/svg" id="svg-icon">
<path opacity="0.3" d="M8.64365 0.0511511L8.67082 0.0705277L8.64365 0.0511511ZM8.64365 0.0511511L8.63074 0.0419477L8.64365 0.0511511ZM15.9581 7.36926L15.9295 7.32923L15.9581 7.36926Z" stroke="white" stroke-width="2" stroke-linecap="round"/>
<g opacity="0.3">
<mask id="path-2-inside-1" fill="white">
<path d="M11.0841 7.29142C11.1187 7.32599 11.1732 7.3305 11.213 7.30209L13.3683 5.76282C13.4186 5.72691 13.4246 5.65443 13.3809 5.61074L10.389 2.61888C10.3453 2.57518 10.2728 2.58118 10.2369 2.63147L8.69767 4.78678C8.66926 4.82656 8.67377 4.88105 8.70833 4.91561L11.0841 7.29142ZM10.3567 4.07702C10.3926 4.02674 10.4651 4.02073 10.5088 4.06443L11.9354 5.49098C11.9791 5.53468 11.9731 5.60716 11.9228 5.64307L11.3143 6.07761C11.2745 6.10601 11.22 6.1015 11.1855 6.06694L9.93282 4.81429C9.89826 4.77973 9.89375 4.72524 9.92215 4.68546L10.3567 4.07702Z"/>
</mask>
<path d="M9.93282 4.81429L8.51861 6.2285L9.93282 4.81429ZM9.92215 4.68546L11.5497 5.84782L9.92215 4.68546ZM11.3143 6.07761L10.1521 4.44997L11.3143 6.07761ZM11.9354 5.49098L13.3496 4.07671L11.9354 5.49098ZM11.9228 5.64307L10.7606 4.01543L11.9228 5.64307ZM10.3567 4.07702L8.72913 2.91467L10.3567 4.07702ZM8.70833 4.91561L7.29412 6.32982L8.70833 4.91561ZM13.3683 5.76282L14.5306 7.39038L13.3683 5.76282ZM13.3809 5.61074L11.9667 7.02495L13.3809 5.61074ZM11.213 7.30209L10.0506 5.67454L11.213 7.30209ZM11.0841 7.29142L9.66993 8.70564L11.0841 7.29142ZM12.3753 8.92964L14.5306 7.39038L12.2059 4.13527L10.0506 5.67454L12.3753 8.92964ZM14.7951 4.19652L11.8032 1.20466L8.97481 4.03309L11.9667 7.02495L14.7951 4.19652ZM8.60938 1.46912L7.07011 3.62443L10.3252 5.94914L11.8645 3.79383L8.60938 1.46912ZM7.29412 6.32982L9.66993 8.70564L12.4984 5.87721L10.1225 3.5014L7.29412 6.32982ZM9.09461 5.4787L10.5213 6.90525L13.3496 4.07671L11.9229 2.65016L9.09461 5.4787ZM10.7606 4.01543L10.1521 4.44997L12.4765 7.70525L13.0851 7.27071L10.7606 4.01543ZM12.5997 4.65273L11.347 3.40008L8.51861 6.2285L9.77126 7.48115L12.5997 4.65273ZM11.5497 5.84782L11.9842 5.23938L8.72913 2.91467L8.2946 3.52311L11.5497 5.84782ZM11.347 3.40008C12.0038 4.0568 12.0895 5.09203 11.5497 5.84782L8.2946 3.52311C7.69802 4.35845 7.79276 5.50266 8.51861 6.2285L11.347 3.40008ZM10.1521 4.44997C10.9078 3.91029 11.943 3.99605 12.5997 4.65273L9.77126 7.48115C10.4971 8.20696 11.6412 8.30174 12.4765 7.70525L10.1521 4.44997ZM10.5213 6.90525C9.69093 6.07497 9.80499 4.6978 10.7606 4.01543L13.0851 7.27071C14.1413 6.51653 14.2673 4.99439 13.3496 4.07671L10.5213 6.90525ZM11.9229 2.65016C11.0053 1.73258 9.48333 1.85863 8.72913 2.91467L11.9842 5.23938C11.3019 6.19485 9.92487 6.30889 9.09461 5.4787L11.9229 2.65016ZM7.07011 3.62443C6.47353 4.45977 6.56827 5.60398 7.29412 6.32982L10.1225 3.5014C10.7793 4.15812 10.865 5.19335 10.3252 5.94914L7.07011 3.62443ZM11.8032 1.20466C10.8856 0.287021 9.36359 0.413054 8.60938 1.46912L11.8645 3.79383C11.1821 4.74931 9.80505 4.86334 8.97481 4.03309L11.8032 1.20466ZM14.5306 7.39038C15.5867 6.63616 15.7127 5.11416 14.7951 4.19652L11.9667 7.02495C11.1364 6.19471 11.2504 4.81766 12.2059 4.13527L14.5306 7.39038ZM10.0506 5.67454C10.8064 5.13477 11.8416 5.22049 12.4984 5.87721L9.66993 8.70564C10.3958 9.43148 11.54 9.52622 12.3753 8.92964L10.0506 5.67454Z" fill="white" mask="url(#path-2-inside-1)"/>
</g>
</svg>
