<svg viewBox="0 0 16 16" xmlns="http://www.w3.org/2000/svg" id="svg-icon">
  <path
    d="M8.995 9.892a.932.932 0 00-.275-.663l-1.949-1.95a.932.932 0 00-.663-.274.932.932 0 00-.663.275L4.27 8.454l-1.2-.025a.468.468 0 00-.343.138l-1.86 1.86a.47.47 0 000 .666l.61.611-1.34 1.34a.47.47 0 000 .666l2.153 2.152a.47.47 0 00.666 0l1.34-1.34.611.612a.47.47 0 00.666 0l1.86-1.86a.47.47 0 00.138-.343l-.025-1.201 1.174-1.175a.932.932 0 00.275-.663zm-6.372 4.972l-1.487-1.487 2.007-2.007 1.487 1.487-2.007 2.007zm4.115-3.658a.47.47 0 00-.138.343l.025 1.2-1.385 1.386-.279-.278.667-.667a.47.47 0 000-.666l-2.152-2.152a.47.47 0 00-.666 0l-.667.667-.278-.279L3.25 9.374l1.201.026a.467.467 0 00.343-.138l1.314-1.314 1.944 1.944-1.314 1.314z" />
  <path d="M7.087 9.531l-.618-.617a.47.47 0 10-.665.665l.617.618a.47.47 0 00.666 0 .47.47 0 000-.666z" />
  <path
    d="M15.862 2.29L13.71.138a.47.47 0 00-.666 0l-1.417 1.417-.283-.284a.47.47 0 00-.666 0L8.72 3.231a.47.47 0 00-.099.145l-.939 2.172a.47.47 0 00.1.52l2.15 2.152a.47.47 0 00.52.099l2.171-.939a.47.47 0 00.146-.1l1.959-1.958a.47.47 0 000-.666l-.284-.283 1.417-1.417a.47.47 0 000-.666zm-3.694 4.262l-1.796.776-1.7-1.7.777-1.796L11.01 2.27l2.72 2.719-1.563 1.563zm1.612-2.845L12.293 2.22l1.084-1.084 1.487 1.487-1.084 1.084z" />
  </svg>
