<svg width="18" height="23" viewBox="0 0 18 23" fill="none" xmlns="http://www.w3.org/2000/svg" id="svg-icon">
<g filter="url(#filter0_dd)">
<path d="M14.0809 9.03662H13.4925H12.3204H5.58394H4.41175H3.92212C3.38353 9.03662 2.94531 9.47481 2.94531 10.0134V18.0232C2.94534 18.5618 3.38353 19 3.92212 19H14.0809C14.6195 19 15.0577 18.5618 15.0577 18.0232V10.0134C15.0577 9.47481 14.6195 9.03662 14.0809 9.03662ZM13.8855 17.8278H4.1175V10.2088H13.8855V17.8278Z" fill="white" fill-opacity="0.7"/>
<path d="M9.00103 12.4717C8.60995 12.4717 8.29297 12.7887 8.29297 13.1797V14.8319C8.29297 15.2229 8.60995 15.5399 9.00103 15.5399C9.39212 15.5399 9.70909 15.2232 9.70909 14.8319V13.1797C9.70909 12.7887 9.39212 12.4717 9.00103 12.4717Z" fill="white" fill-opacity="0.7"/>
<path d="M12.3204 9.03662H13.4925V7.59097C13.4925 5.62745 12.249 3.93933 10.5094 3.28726C10.0277 3.10668 9.50785 3.00555 8.96586 3.00005L8.95215 3.00001L8.93843 3.00005C8.39645 3.00555 7.87663 3.10668 7.39486 3.28726C5.6553 3.93933 4.41178 5.62745 4.41175 7.59097V9.03662H5.58394V7.59097C5.58394 6.21195 6.40619 5.01539 7.58294 4.47637C8.00041 4.284 8.45696 4.17681 8.92421 4.1723C8.9326 4.17222 8.94101 4.17217 8.94941 4.17216H8.95489L8.95684 4.17217L8.99833 4.17283L9.03709 4.17394L9.04573 4.1742C9.4899 4.18772 9.92366 4.2931 10.3214 4.47637C11.4981 5.01539 12.3204 6.21195 12.3204 7.59097V9.03662Z" fill="white" fill-opacity="0.7"/>
<path d="M7.58294 4.47637C6.40619 5.01539 5.58394 6.21195 5.58394 7.59097V9.01162H5.60894M7.58294 4.47637L5.60894 9.03662V9.01162M7.58294 4.47637C8.00041 4.284 8.45696 4.17681 8.92421 4.1723L8.94941 4.17216L7.58294 4.47637ZM5.60894 9.01162V7.59097C5.60894 6.22207 6.42517 5.0342 7.59335 4.4991L7.5934 4.49907C8.00779 4.30812 8.46087 4.20177 8.92445 4.1973L8.94941 4.19716H8.94946H8.95476H8.95489L8.95644 4.19717L8.9566 4.19717L8.99762 4.19782L8.99794 4.19783L9.03633 4.19893L9.03637 4.19893L9.04497 4.19919C9.48569 4.2126 9.91615 4.31717 10.3109 4.49907L10.311 4.49909C11.4791 5.03419 12.2954 6.22207 12.2954 7.59097V9.01162H5.60894ZM14.0809 9.01162H13.5175V7.59097C13.5175 5.61669 12.2672 3.91946 10.5182 3.26385C10.0338 3.08226 9.51107 2.98058 8.96612 2.97506V2.97505L8.96595 2.97505L8.95223 2.97501L8.95206 2.97501L8.93835 2.97505L8.93818 2.97506C8.39323 2.98058 7.87053 3.08226 7.38609 3.26385C5.63708 3.91946 4.38678 5.61669 4.38675 7.59097V9.01162H3.92212C3.36972 9.01162 2.92031 9.461 2.92031 10.0134V18.0232C2.92034 18.5756 3.36972 19.025 3.92212 19.025H14.0809C14.6333 19.025 15.0827 18.5756 15.0827 18.0232V10.0134C15.0827 9.461 14.6333 9.01162 14.0809 9.01162ZM13.8605 17.8028H4.1425V10.2338H13.8605V17.8028ZM9.00103 12.4467C8.59614 12.4467 8.26797 12.7748 8.26797 13.1797V14.8319C8.26797 15.2368 8.59614 15.5649 9.00103 15.5649C9.40592 15.5649 9.73409 15.237 9.73409 14.8319V13.1797C9.73409 12.7748 9.40592 12.4467 9.00103 12.4467Z" stroke="white" stroke-opacity="0.7" stroke-width="0.05"/>
</g>
<defs>
<filter id="filter0_dd" x="0.894531" y="0.949951" width="16.2124" height="21.1" filterUnits="userSpaceOnUse" color-interpolation-filters="sRGB">
<feFlood flood-opacity="0" result="BackgroundImageFix"/>
<feColorMatrix in="SourceAlpha" type="matrix" values="0 0 0 0 0 0 0 0 0 0 0 0 0 0 0 0 0 0 127 0"/>
<feOffset dy="1"/>
<feGaussianBlur stdDeviation="1"/>
<feColorMatrix type="matrix" values="0 0 0 0 0 0 0 0 0 0 0 0 0 0 0 0 0 0 0.35 0"/>
<feBlend mode="normal" in2="BackgroundImageFix" result="effect1_dropShadow"/>
<feColorMatrix in="SourceAlpha" type="matrix" values="0 0 0 0 0 0 0 0 0 0 0 0 0 0 0 0 0 0 127 0"/>
<feOffset/>
<feGaussianBlur stdDeviation="1"/>
<feColorMatrix type="matrix" values="0 0 0 0 0 0 0 0 0 0 0 0 0 0 0 0 0 0 0.25 0"/>
<feBlend mode="normal" in2="effect1_dropShadow" result="effect2_dropShadow"/>
<feBlend mode="normal" in="SourceGraphic" in2="effect2_dropShadow" result="shape"/>
</filter>
</defs>
</svg>
