<svg xmlns="http://www.w3.org/2000/svg" viewBox="0 0 485.838 485.839">
   <path
      d="M409.109 211.45c-5.282-.368-9.842-.683-12.11-1.326-15.926-4.521-72.646-7.222-78.714-7.506-9.75-2.737-18.262-8.791-28.088-15.77-19.841-14.106-44.539-31.67-94.121-32.704l-3.438-.032c-23.976 0-50.706 5.025-76 11.838-11.163-4.27-29.551-10.818-39.834-11.814-5.188-.495-7.843 2.038-8.938 3.603-3.791 5.432-1.132 15.629 1.701 23.167-30.046 10.888-51.814 21.164-53.726 22.077l-1.138.815c-5.482 5.667-3.086 13.784-1.146 20.308.585 2.018 1.184 4.003 1.537 5.881.706 3.791-7.544 6.217-7.632 6.233l-5.628 1.483 7.492 10.055-6.242 8.756 6.899 8.885c-4.364.825-8.574 2.673-9.694 6.632-1.533 5.383 2.997 10.9 15.164 18.451 6.053 3.759 12.451 6.019 19.588 7.076-.269-1.311-.449-2.652-.613-4.003-.165-1.362-.249-2.749-.315-4.14-.03-.726-.106-1.447-.106-2.185 0-28.885 23.5-52.387 52.383-52.387 28.883 0 52.385 23.51 52.385 52.387 0 4.28-.571 8.42-1.545 12.399-.322 1.303-.659 2.597-1.07 3.863a51.222 51.222 0 01-1.327 3.61c24.87 6.685 54.892 8.355 77.776 8.355 16.108 0 27.088-.789 27.272-.813h134.038a50.427 50.427 0 01-2.444-3.923 52.11 52.11 0 01-1.983-3.919c-2.954-6.457-4.641-13.605-4.641-21.16 0-28.18 22.931-51.114 51.11-51.114 28.185 0 51.115 22.935 51.115 51.114 0 6.465-1.259 12.628-3.451 18.322a54.502 54.502 0 01-2.172 4.869 50.47 50.47 0 01-2.765 4.785c18.306-3.595 23.664-15.741 24.093-16.896 5.767-25.659 3.366-45.833-7.142-59.941-16.301-21.858-47.747-24.036-66.53-25.331z" />
   <path
      d="M43.273 298.22c4.899 19.271 22.321 33.546 43.116 33.546 18.315 0 34.031-11.061 40.877-26.862a44.135 44.135 0 001.365-3.626 43.646 43.646 0 001.076-3.844c.771-3.278 1.216-6.685 1.216-10.203 0-24.593-19.941-44.534-44.534-44.534-24.594 0-44.533 19.941-44.533 44.534 0 1.034.084 2.048.156 3.074a45.59 45.59 0 001.261 7.915zM415.961 328.904c12.72 0 24.129-5.526 32.04-14.267a44.632 44.632 0 003.366-4.184 41.654 41.654 0 002.568-4.08 43.107 43.107 0 005.29-20.738c0-23.896-19.368-43.26-43.265-43.26s-43.26 19.363-43.26 43.26a42.997 42.997 0 005.542 21.159 43.394 43.394 0 005.675 7.843c7.919 8.749 19.33 14.267 32.044 14.267z" />
</svg>
