<svg xmlns="http://www.w3.org/2000/svg" viewBox="-45.898 264.104 2012.438 551.482">
  <path
    d="M953.03 309.02c89.91-6.58 180.37-3.16 269.89 6.98 15.15.79 29.76 5.12 44.19 9.45 45.58 3.89 91.14 8.07 136.69 12.34 48.54 4.84 96.89 11.39 145.17 18.29 46.44 6.7 92.81 13.86 139.13 21.33 53.29 8.5 106.4 18.07 159.75 26.18 10.65 1.83 21.42 3.06 32.01 5.25 2.91.29 5.52 2.91 5.1 5.95-1.4 1.94-3.67.19-5.25-.43-1.77-1.03-3.77-.23-5.57.08-16.91 4.07-33.86 7.98-50.75 12.1-3.59.93-7.92 2.53-8.93 6.54-10.61 35.71-21.3 71.4-32.05 107.06-.68 2.03 1.27 3.56 2.96 4.18 9.97 3.89 20.02 7.6 29.99 11.52 4.29 1.9 9.08.83 13.63 1.03 25.41 0 50.84-.69 76.25-.15-.73 8.64-2.73 18.02-9.7 23.88-4.2 3.46-8.71 7.53-8.72 13.45.2 10.33.3 20.67.05 31 .07 2.26-1.28 4.89-3.81 4.93-23.68 3.23-47.36 6.46-71 9.96-10.07 13.18-21.51 25.43-34.88 35.31-14.16 10.6-30.63 18.42-48.16 21.28-6.62 1.19-13.37 1.2-20.06 1.56-1.34.05-3.34-.37-3.39-2.01 1.05-3.31 3.7-6.47 2.73-10.12-2.65-2.31-6.3-.37-9.37-.5-2.07.48-4.68-1.02-3.86-3.38 1.5-4.26 4.25-8.03 5.31-12.49 5.87-20.3 5.49-41.77 4.03-62.66-1.13-13.06-2.2-26.34-6.8-38.74-10.02-27.94-30.09-51.39-53.7-68.94-30.23-22.28-68.12-35.43-105.89-32.27-21.22 1.62-41.51 9.13-60.37 18.66-25.75 13.11-48.21 33.17-62.57 58.39-10.19 17.55-16.44 37.13-20.12 57.02-4.57 22.68-1.68 46.26 4.87 68.25 1.29 5.33 4.16 10.18 5.17 15.56-1.82 1.88-5.79-.77-7.23 2 3.11 9.57 6.52 19.05 9.51 28.66.62 1.96.92 5.65-2.11 5.46-223.72 6.83-447.46 13.65-671.19 20.48-66.83 1.84-133.62 4.8-200.44 6.95 8.03-4.22 15.97-8.6 23.94-12.9 3.2-12.44 6.91-24.75 11.23-36.85 3.13-8.16 4.98-16.87 4.88-25.63.06-9.8-2.62-19.31-3.27-29.04a20.88 20.88 0 00-2.3-8.18c-1.66 1.25-2.57 3.12-2.71 5.17-3.84 36.19-21.19 70.75-47.61 95.73-22.05 21.01-51.39 33.88-81.67 36.63-23.48 2.29-47.32-1.13-69.68-8.39-27.28-8.92-51.77-26.49-68.15-50.15-15.32-21.98-24.47-48.13-26.91-74.76-.8-5.65.78-11.88-2.19-17.03-1.26 1.4-2.84 2.73-3.21 4.69-7.21 35.37-3.54 73.6 13.76 105.61 1.32 2.03 2.23 6.66-1.59 6.17-79.73-1.27-159.46-2.64-239.18-3.96-7.26-.75-14.74-3.19-20.26-8.09-4.67-4.06-4.17-12.25.94-15.7 5.4-3.63 12.33-3.18 18.47-2.29 4.77-7.69 9.5-15.4 14.51-22.93 1.42-2.21 3.28-4.19 4.2-6.67.58-1.84-.57-3.53-1.76-4.79-15.07-16.03-29.47-33.45-37.46-54.2-.77-2.86 1.26-5.35 2.97-7.39 22.26-26.6 50.97-46.92 80.85-64.1 38.51-21.99 79.68-38.91 121.46-53.54 63.06-21.79 127.9-38.18 193.41-50.65 8.64-2.34 13.45 8.43 21.86 7.97 3.48-.69 6.21-3.17 9.42-4.53 78.73-33.04 158.06-65.18 240.08-89.25 47.14-13.94 95.02-25.41 143.38-34.27 40.37-7.55 81.11-13.17 122.08-16.07m-104.1 42.01c-42.1 5.88-84.03 13.54-124.97 25.11-25.12 7.13-50.34 14.07-74.94 22.89-39.36 14.13-77.7 30.94-115.66 48.44-6.71 3-13.23 6.48-20.22 8.8-1.95.66-3.71 1.77-5.41 2.91 2.05 2.51 5.43 2.6 8.37 3.25 26.37 4.92 52.56 10.83 79.07 14.95 15.5 2.23 31.19 3.91 46.87 3.4 3.29.08 4.16-3.71 2.08-5.84-9.97-13.69-20.25-27.15-30.25-40.81-2.26-3.37 1.08-6.79 3.23-9.18 3.18-3.03 5.19-7.63 9.6-9.08 12.67-4.93 25.19-10.25 37.87-15.11 8.1-.82 16.29-.87 24.43-1.24-1.31 13.49-2.72 26.97-3.95 40.46-4.65 4.11-9.34 8.25-14.71 11.42-1.71 1.17-4.01 2.41-4.14 4.75-.07 2.55 2.22 4.17 3.8 5.85 4.87 4.44 8.15 10.23 11.99 15.51 14.01.05 27.95-1.57 41.85-3.18 42.97-5.3 85.58-13.04 128.34-19.68 35.64-5.51 71.3-10.81 106.97-16.04 28.92-4.11 57.79-8.59 86.8-11.99 3.46-.46 7.48-2.61 7.56-6.55 2.58-24.06 5.68-48.08 8.27-72.13.73-5.14-5.45-4.69-8.8-4.98-68.06-3.11-136.58-2.1-204.05 8.07m375.32-6.18c1.02 1.53 2.2 3.01 3.77 4.03 14.69 10.02 29.34 20.11 44.03 30.14-15.73 5.17-31.37 10.6-47.18 15.52-3.32 1.07-6.86 1.69-9.84 3.57-.69 2.56 2.54 3.03 4.37 2.61 32.49-4.85 64.96-9.84 97.5-14.31 1.99-.16 3.74-1.16 5.35-2.3-1.65-1.56-3.46-2.97-5.59-3.76a79199.73 79199.73 0 01-84.96-34.18c-2.35-1.02-4.94-1.28-7.45-1.32m-123.71 6.32c-.18 19.28.07 38.58-.53 57.87.01 2.57.01 5.75 2.31 7.45 1.72 1.21 3.86.26 5.77.14 29.65-4.8 59.4-9.05 88.93-14.57-9.69-14.75-21.03-28.31-32.04-42.06-4.81-5.34-12.53-5.4-19.09-6.51-13.28-2-26.55-4.16-39.9-5.59-2.29-.56-5.46.53-5.45 3.27m85.24-2.12c.37 2.6 2.49 4.24 4.23 5.98 7.73 7.59 15.3 15.34 23.21 22.74 1.09.93 2.05 2.36 1.4 3.85-1.89 4.03-4.75 7.54-6.44 11.67-.67 1.7-1.17 4.03.71 5.18 3.87-1.69 5.93-5.74 8.9-8.57 3.1-4.01 7.52-7.06 9.64-11.77-12.33-9.24-24.86-18.22-37.23-27.41-1.25-1.06-2.87-1.42-4.42-1.67m-556.91 168.3c-18.77 2.67-37.45 6.06-56.28 8.29 14.82-.62 29.49-3.19 44.24-4.78 163.71-19.84 327.43-39.59 491.12-59.52 11.71-1.86 23.29 1.23 34.83 2.78 25.47 3.88 50.94 7.85 76.42 11.74 2.26.32 5.39 1.19 5.47 4.01-1.12 7.05-3.07 13.96-4.17 21.03-2.07 10.34-2.29 21.2-6.66 30.96-13.09 24.15-26.7 48.03-39.9 72.13-.77 1.48-1.76 2.88-3.3 3.63-9.88 5.78-19.72 11.66-29.59 17.46-1.52.99-3.36 1.02-5.09 1.04-18.65.13-37.3.38-55.95.56-9.32.26-18.67-.18-27.96.66-154.82 18.01-309.64 35.97-464.45 53.99 27.79-1.04 55.58-2.63 83.37-3.84 126.03-5.95 252.06-11.91 378.09-17.85 3.78-.03 7.34-1.45 10.94-2.44 22.6-6.5 45.21-12.99 67.81-19.49 20.09-5.93 40.37-11.24 60.3-17.7 3.45-1.1 7.11-1.26 10.59-2.26 4.09-1.32 6.02-5.44 8.25-8.76 18.91-29.1 37.85-58.18 56.91-87.19 9.78-14.82 19.35-29.8 29.57-44.33.85-1.29 1.59-2.75 1.42-4.35-2.46-1.16-5.22-1.3-7.83-1.87-48.53-9.3-97.06-18.59-145.56-27.99-5.78-1.16-11.63-2.54-17.56-2-165 25.35-330.02 50.7-495.03 76.09m-227.35-13.51c-35.83 4.58-69.01 26.11-87.64 57.07-20.71 33.34-23.5 76.88-7.56 112.7 8.72 20.02 23.05 37.53 40.85 50.17 26.84 19.23 61.7 26.62 94.06 20.18 33.18-6.29 63.18-27.23 80.57-56.17 20.1-32.59 23.2-74.81 8.38-110.08-8.06-19.59-21.45-36.89-38.22-49.8-25.35-19.64-58.69-28.42-90.44-24.07m-229.25 18.3c-31.22 8.89-61.29 23.59-85.23 45.79-3.43 3.33-7.36 6.22-10.04 10.25 2.2 2.02 5.24 1.38 7.91 1.09 6.18-.85 12.4-1.25 18.6-1.8 5.85-5.89 12.26-11.2 18.92-16.16 27.53-20.13 58.53-34.94 90.04-47.7a301.209 301.209 0 00-40.2 8.53M74.5 621.99c9.39 23.45 18.94 46.83 28.28 70.3-11.31-22.67-22.13-45.57-33.3-68.31-4.76 1.65-9.45 3.49-14.07 5.5-1.89.93-3.99 1.91-5.11 3.81-.77 1.48.28 3.13 1.63 3.8 4.39 2.24 9.29 3.26 13.72 5.41 2.75 4.59 4.92 9.54 7.66 14.16 5.34 9.64 2.56 21.15-.54 31.05-1.67 5.84-5.32 12.09-2.7 18.21 1.65 3.91 6.29 4.15 9.93 4.37 10.36.45 20.78-.47 30.97-2.3 6.85-3.22 13.1-7.63 19.73-11.29 1.68-1.2 4.69-2.1 4.22-4.71-.52-2.68-2.51-4.74-3.9-7-12.62-19.01-25.3-37.98-37.84-57.04-2.67-3.73-3.55-10.43-9.05-10.86-3.5.94-6.42 3.29-9.63 4.9z" />
  <path
    d="M1864.95 424.77c4.13-.96 8.45-2.33 12.72-1.35 2.77.63 3.6 4.11 2.33 6.41-6.99 13.98-13.23 28.33-19.49 42.65-15.34.19-30.68.31-46.02.46 3.53-12.3 7.02-24.62 10.49-36.94 13.28-3.89 26.56-7.81 39.97-11.23zM1536.53 475.88c38.18-3.56 77.58 8.09 107.38 32.3 27.52 22 46.68 54.1 53.01 88.77 7.38 38.83-1.39 80.49-24.12 112.87-19.74 28.58-49.82 49.79-83.4 58.7-41.04 11.29-86.78 3.96-122.1-19.85-29.24-19.43-51.24-49.51-60.62-83.38-11.76-41.13-4.88-87.21 18.83-122.88 17.75-27.06 44.53-48.12 75.14-58.71 11.58-4.07 23.66-6.66 35.88-7.82m-3.01 27.93c-5.94.78-11.81 2.03-17.57 3.66-33.52 9.31-62.32 33.97-76.83 65.57-17.3 36.59-14.61 81.73 7.05 115.93 19.24 31.25 53.33 52.78 89.87 56.49 22.24 2.59 45.16-1.32 65.43-10.82 31.7-14.75 56.34-43.9 65.37-77.72 6.84-24.56 5.62-51.24-3.3-75.12-11.34-30.83-35.87-56.52-66.15-69.26-20-8.54-42.31-11.61-63.87-8.73zM1811.99 480.51c13.33.08 26.66.22 40 .36 2.01.16 4.29-.09 6.11 1.04.87 1.02.4 2.4.25 3.59-2.02 9.01-2.27 18.27-2.69 27.46-.36 11.99-.36 23.99-.16 35.99-8.17-.11-16.33-.28-24.49-.34-2.65-.05-5.39.13-7.83-1.01-9.22-3.77-18.51-7.35-27.71-11.17 5.59-18.61 11.02-37.28 16.52-55.92z" />
  <path
    d="M1541.4 512.54c21.75-1.46 43.9 3.45 62.85 14.28 27.02 15.17 47.04 42.13 53.71 72.4 5.64 24.97 2.54 51.88-8.99 74.78-13.81 28.01-39.98 49.57-70.14 57.69-25.61 7.08-53.74 4.74-77.74-6.7-26.9-12.59-48.23-36.44-57.76-64.57-8.59-24.96-7.99-52.96 1.72-77.52 10.63-27.25 32.46-49.87 59.36-61.39 11.68-5.1 24.27-8.1 36.99-8.97zM401.45 514.72c34.87-5.37 71.86 7.05 96.34 32.46 14.2 14.57 24.35 33.09 28.83 52.95 5.06 21.93 3.32 45.37-4.95 66.31-10.97 28.06-33.83 51.13-61.79 62.35-23.58 9.59-50.46 10.71-74.81 3.33-30.44-9.09-56.4-31.93-69.24-61.01-15.5-34.01-12.36-75.79 8.31-106.97 17.12-26.54 46.04-45.04 77.31-49.42z" />
</svg>
