<svg height="512" viewBox="0 0 510 510" width="512" xmlns="http://www.w3.org/2000/svg" id="svg-icon" xmlns:xlink="http://www.w3.org/1999/xlink"><linearGradient id="prefix__a"><stop offset="0" stop-color="#ffe548"/><stop offset=".176" stop-color="#ffde50"/><stop offset=".445" stop-color="#ffca65"/><stop offset=".771" stop-color="#ffaa87"/><stop offset="1" stop-color="#ff90a4"/></linearGradient><linearGradient id="prefix__c" gradientTransform="rotate(45 255.06 207.997)" gradientUnits="userSpaceOnUse" x1="190.369" x2="422.686" xlink:href="#prefix__a" y1="382.951" y2="446.094"/><linearGradient id="prefix__d" gradientTransform="rotate(45 255.06 207.997)" gradientUnits="userSpaceOnUse" x1="328.152" x2="212.619" xlink:href="#prefix__a" y1="416.924" y2="416.924"/><linearGradient id="prefix__e" gradientTransform="rotate(45 255.06 207.997)" gradientUnits="userSpaceOnUse" x1="269.673" x2="313.94" xlink:href="#prefix__a" y1="409.381" y2="409.381"/><linearGradient id="prefix__f" gradientTransform="rotate(45 255.06 207.997)" gradientUnits="userSpaceOnUse" x1="389.283" x2="264.473" y1="366.562" y2="241.751"><stop offset="0" stop-color="#fba5c2" stop-opacity="0"/><stop offset=".386" stop-color="#fca0ba" stop-opacity=".386"/><stop offset=".974" stop-color="#ff91a5" stop-opacity=".974"/><stop offset="1" stop-color="#ff90a4"/></linearGradient><linearGradient id="prefix__b"><stop offset="0" stop-color="#4f4a72"/><stop offset="1" stop-color="#3b395f"/></linearGradient><linearGradient id="prefix__g" gradientTransform="rotate(45 255.06 207.997)" gradientUnits="userSpaceOnUse" x1="189.782" x2="366.309" xlink:href="#prefix__b" y1="43.375" y2="193.155"/><linearGradient id="prefix__h" gradientTransform="rotate(-135 311.99 70.506)" gradientUnits="userSpaceOnUse" x1="168.697" x2="263.903" xlink:href="#prefix__b" y1="-1.123" y2="79.658"/><linearGradient id="prefix__i" gradientTransform="rotate(45 255.06 207.997)" gradientUnits="userSpaceOnUse" x1="370.612" x2="283.857" y1="179.458" y2="92.703"><stop offset="0" stop-color="#3b395f" stop-opacity="0"/><stop offset="1" stop-color="#3b395f"/></linearGradient><linearGradient id="prefix__j" gradientTransform="rotate(45 282.425 219.326)" gradientUnits="userSpaceOnUse" x1="251.796" x2="317.109" xlink:href="#prefix__b" y1="88.827" y2="144.245"/><linearGradient id="prefix__k" gradientTransform="rotate(-135 230.588 149.69)" gradientUnits="userSpaceOnUse" x1="169.455" x2="212.538" xlink:href="#prefix__b" y1="92.919" y2="136.002"/><linearGradient id="prefix__l" gradientTransform="rotate(45 255.06 207.997)" gradientUnits="userSpaceOnUse" x1="235.139" x2="268.834" y1="218.341" y2="252.036"><stop offset="0" stop-color="#ff4974"/><stop offset=".223" stop-color="#fb3f6c"/><stop offset=".608" stop-color="#f12357"/><stop offset="1" stop-color="#e4003d"/></linearGradient><linearGradient id="prefix__m" gradientTransform="rotate(-135 230.588 149.69)" gradientUnits="userSpaceOnUse" x1="83.005" x2="126.088" xlink:href="#prefix__b" y1="92.919" y2="136.002"/><linearGradient id="prefix__n" gradientTransform="rotate(45 255.06 207.997)" gradientUnits="userSpaceOnUse" x1="321.589" x2="355.284" y1="218.341" y2="252.036"><stop offset="0" stop-color="#c4f8b6"/><stop offset="1" stop-color="#3b8eac"/></linearGradient><linearGradient id="prefix__o" gradientTransform="rotate(45 255.06 207.997)" gradientUnits="userSpaceOnUse" x1="274.662" x2="318.364" y1="89.283" y2="132.985"><stop offset="0" stop-color="#d4f7ff"/><stop offset="1" stop-color="#a2e3e9"/></linearGradient><path d="M133.19 447.469a8.416 8.416 0 008.416-8.416 8.416 8.416 0 018.416-8.416 8.416 8.416 0 008.416-8.416 8.416 8.416 0 018.416-8.416h6.786a8.417 8.417 0 005.951-2.465l116.041-116.041-80.932-80.932-116.039 116.04a8.417 8.417 0 00-2.465 5.951v6.786a8.416 8.416 0 01-8.416 8.416 8.416 8.416 0 00-8.416 8.416 8.416 8.416 0 01-8.416 8.416 8.416 8.416 0 00-8.416 8.416 8.416 8.416 0 01-8.416 8.416H47.33a8.417 8.417 0 00-5.951 2.465l-27.138 27.138a36.705 36.705 0 00-10.655 23.295L.06 486.633c-.963 13.25 10.056 24.269 23.306 23.306l48.511-3.526a36.711 36.711 0 0023.295-10.654l27.139-27.139a8.417 8.417 0 002.465-5.951v-6.786c-.002-4.646 3.766-8.414 8.414-8.414z" fill="url(#prefix__c)"/><path d="M57.73 492.269l-39.193 12.845c-10.705 3.508-17.159-2.946-13.65-13.65l12.845-39.193c2.328-7.103 7.039-14.443 13.273-20.676l200.463-200.463 47.402 47.402L78.406 478.996c-6.234 6.233-13.573 10.945-20.676 13.273z" fill="url(#prefix__d)"/><path d="M53.939 470.528L24.56 490.377c-8.024 5.421-10.359 3.087-4.937-4.937l19.848-29.379c3.597-5.325 8.822-11.5 14.719-17.397l192.405-192.405 17.145 17.145L71.336 455.81c-5.897 5.896-12.072 11.121-17.397 14.718z" fill="url(#prefix__e)"/><path d="M180.071 248.997v161.864l115.563-115.563-80.932-80.932z" fill="url(#prefix__f)"/><path d="M482.24 89.888L420.112 27.76c-37.013-37.013-97.006-37.013-134.02 0l-96.619 96.619c-37.005 37.005-37.014 97.006 0 134.02l62.128 62.128c37.013 37.013 97.015 37.005 134.02 0l96.619-96.619c37.013-37.013 37.013-97.006 0-134.02zm-37.909 9.221a8.744 8.744 0 01-6.208-2.574l-24.659-24.659c-3.427-3.427-3.435-8.98-.009-12.407a8.744 8.744 0 016.199-2.566 8.74 8.74 0 016.207 2.574l24.659 24.659c3.427 3.427 3.435 8.98.009 12.407a8.734 8.734 0 01-6.198 2.566z" fill="url(#prefix__g)"/><path d="M395.918 76.714l37.369 37.369c22.258 22.258 22.258 58.346 0 80.605l-34.696 34.696c-22.258 22.258-58.346 22.258-80.605 0l-37.369-37.369c-22.258-22.258-22.258-58.346 0-80.605l34.696-34.696c22.258-22.259 58.346-22.259 80.605 0z" fill="url(#prefix__h)"/><path d="M293.242 344.813c31.832 8.816 67.363.737 92.387-24.287l35.033-35.033V156.74c.772-10.911-3.001-22.083-11.343-30.424l-25.636-25.636c-15.27-15.27-40.027-15.27-55.296 0l-23.802 23.802c-8.341 8.341-12.115 19.513-11.343 30.424z" fill="url(#prefix__i)"/><path d="M330.221 205.415l-25.636-25.636c-15.27-15.27-15.27-40.027 0-55.296l23.802-23.802c15.27-15.27 40.027-15.27 55.296 0l25.636 25.636c15.27 15.27 15.27 40.027 0 55.296l-23.802 23.802c-15.27 15.27-40.027 15.27-55.296 0z" fill="url(#prefix__j)"/><circle cx="233.664" cy="215.207" fill="url(#prefix__k)" r="30.847"/><circle cx="233.664" cy="215.207" fill="url(#prefix__l)" r="24.125"/><circle cx="294.793" cy="276.336" fill="url(#prefix__m)" r="30.847"/><circle cx="294.793" cy="276.336" fill="url(#prefix__n)" r="24.125"/><path d="M371.254 161.276l-18.769-18.769 6.926-6.926c4.138-4.138 10.871-4.138 15.009 0s4.138 10.871 0 15.009a2.767 2.767 0 103.914 3.914c6.296-6.296 6.296-16.54 0-22.836s-16.54-6.296-22.836 0l-6.93 6.93a5.54 5.54 0 00-7.678.15l-16.583 16.583a5.54 5.54 0 000 7.835l22.529 22.529a5.54 5.54 0 007.835 0l16.583-16.583a5.542 5.542 0 000-7.836zm-22.395 3.508c-.921-.133-1.848.206-2.506.864l-1.313 1.313a1.414 1.414 0 01-2.019-.019c-.541-.561-.499-1.464.052-2.015l1.246-1.246c.675-.675 1.022-1.624.893-2.57a4.299 4.299 0 011.451-3.846 4.32 4.32 0 015.633.006 4.306 4.306 0 01-3.437 7.513z" fill="url(#prefix__o)"/></svg>
