<svg viewBox="0 0 512 512" height="512" width="512" xmlns="http://www.w3.org/2000/svg" id="svg-icon"><path d="M329.89 317.964c-5.471 5.481-15.473 14.183-28.686 24.949a1082.944 1082.944 0 01-12.15 9.745c-13.842 10.983-30.111 23.422-47.752 36.418a1878.55 1878.55 0 01-12.666 9.228C141.69 461.199 29.103 531.299 4.897 507.103c-13.326-13.326 1.951-53.481 28.893-101.388a731.351 731.351 0 018-13.894c8.764-14.875 18.446-30.297 28.573-45.729 2.88-4.387 5.791-8.774 8.733-13.161 27.448-40.877 57.114-80.815 80.247-109.986 3.396-4.294 6.658-8.361 9.744-12.15 10.766-13.213 19.468-23.215 24.95-28.686 37.512-37.512 98.342-37.512 135.854 0 37.511 37.513 37.511 98.343-.001 135.855z" fill="#ffaa5c"/><path d="M329.888 182.112a97.234 97.234 0 00-6.887-6.252c31.127 37.736 29.046 93.667-6.252 128.965C281.452 340.122 58.078 509.647.556 498.305c.712 3.612 2.128 6.578 4.344 8.794 37.514 37.514 287.473-151.622 324.987-189.136 37.515-37.514 37.515-98.337.001-135.851z" fill="#ff9838"/><path d="M500.452 142.808c15.397-15.397 15.397-40.36 0-55.756a39.328 39.328 0 00-12.096-8.25c11.498-15.438 10.245-37.375-3.77-51.389-14.014-14.015-35.952-15.268-51.389-3.77a39.308 39.308 0 00-8.249-12.096c-15.397-15.397-40.36-15.397-55.756 0-.271.271-.526.551-.787.828-15.166-9.19-35.186-7.243-48.285 5.856-15.397 15.397-15.397 40.36 0 55.756a39.602 39.602 0 005.913 4.863c-5.762 14.233-2.872 31.15 8.669 42.692a39.467 39.467 0 007.227 5.703l-33.4 38.776c7.654 4.247 14.862 9.592 21.36 16.09s11.843 13.706 16.09 21.361l38.776-33.4c1.583 2.569 3.477 5 5.703 7.227 11.542 11.542 28.458 14.431 42.692 8.669a39.602 39.602 0 004.863 5.913c15.397 15.397 40.36 15.397 55.757 0 13.099-13.099 15.046-33.12 5.856-48.285.275-.262.555-.517.826-.788z" fill="#98db7c"/><path d="M499.624 143.596c.277-.261.557-.516.828-.787 15.397-15.397 15.397-40.36 0-55.756a39.323 39.323 0 00-7.355-5.784c13.163 25.424 1.049 41.64-4.335 47.118a5.135 5.135 0 00-1.277 5.067c2.419 8.125 7.283 31.035-8.583 46.92-13.06 13.074-34.683 13.197-49.551 2.222a39.354 39.354 0 01-7.262-6.948 5.05 5.05 0 00-5.382-1.648c-13.482 4.102-28.728.823-39.388-9.837a39.398 39.398 0 01-2.624-2.9 5.153 5.153 0 00-7.355-.645l-31.944 27.515a96.311 96.311 0 0110.581 15.341l38.776-33.4c1.583 2.569 3.477 5 5.703 7.227 11.542 11.542 28.458 14.431 42.692 8.669a39.461 39.461 0 009.34 9.765c14.867 10.975 35.741 10.058 49.551-2.222 14.643-13.023 17.166-34.108 7.585-49.917z" fill="#82d361"/><g fill="#e8834d"><path d="M222.165 274.816c-2.996 2.975-7.961 2.992-10.952 0l-51.871-51.871c3.396-4.294 6.658-8.361 9.744-12.15l53.078 53.068a7.745 7.745 0 01.001 10.953zM241.303 389.076a1878.55 1878.55 0 01-12.666 9.228l-86.471-86.471a7.745 7.745 0 010-10.952c3.025-3.024 7.928-3.024 10.942 0zM149.474 414.263c-2.975 2.975-7.967 2.975-10.942 0l-68.17-68.17c2.88-4.387 5.791-8.774 8.733-13.161l70.379 70.379a7.745 7.745 0 010 10.952zM67.998 428.983c-2.982 2.982-7.965 2.966-10.952 0l-23.257-23.267a731.351 731.351 0 018-13.894l26.209 26.209a7.745 7.745 0 010 10.952zM289.054 352.658l-33.889-33.889a7.745 7.745 0 010-10.952 7.763 7.763 0 0110.952 0l35.086 35.096z"/></g><path d="M241.303 389.076a1878.55 1878.55 0 01-12.666 9.228l-13.14-13.141a1499.75 1499.75 0 0012.655-9.239zM275.914 339.517l13.14 13.141 11.221-8.991.929-.753-13.141-13.151z" fill="#d66e41"/></svg>
