<svg height="512pt" viewBox="-66 0 512 512.001" width="512pt" xmlns="http://www.w3.org/2000/svg" id="svg-icon"><g fill="#ffd89e" fill-rule="evenodd"><path d="M241.938 69.23c15.117-56.418-163.88-113.378-204.211 37.137-18.22 67.996 78.859 104.094 98.824 29.582 20.672-77.152 97.726-38.14 105.387-66.719zm0 0M347.375 160.441c-38.758-67.125-142.453-19.648-99.98 53.91 43.976 76.169-46.399 105.79-30.106 134.004 32.156 55.696 215.875-39.32 130.086-187.914zm0 0M255.988 451.031c0-38.789-110.812-15.531-110.812-120.242C145.176 229.656 10 242.434 10 334.72 10 539 255.988 527.602 255.988 451.03zm0 0"/></g><path d="M223.832 413.965c-32.18-11.754-68.656-25.078-68.656-83.176 0-25.129-7.774-46.086-22.48-60.613-13.118-12.953-31.141-20.086-50.747-20.086-20.586 0-40.988 7.996-55.98 21.941C14.12 283.055 0 302.875 0 334.72 0 392.69 19.504 440.094 56.398 471.8 86.133 497.348 127.137 512 168.906 512c56.254 0 97.082-25.64 97.082-60.969 0-21.668-21.43-29.496-42.156-37.066zm1.512 65.36C210.793 487.5 190.75 492 168.906 492c-37.058 0-73.312-12.89-99.472-35.367C37.094 428.84 20 386.683 20 334.719c0-41.98 31.914-64.63 61.945-64.63 14.313 0 27.344 5.083 36.696 14.317 10.816 10.688 16.535 26.723 16.535 46.383 0 72.086 49.222 90.066 81.797 101.961 17.988 6.57 29.015 10.973 29.015 18.281 0 13.797-11.226 23-20.644 28.293zm0 0"/><path d="M61.215 355.86c-.656-5.485-5.633-9.403-11.117-8.739-5.485.66-9.395 5.637-8.739 11.121 2.68 22.309 9.286 41.942 19.637 58.352a9.994 9.994 0 0013.793 3.125c4.672-2.95 6.07-9.125 3.125-13.793-8.762-13.883-14.379-30.73-16.7-50.067zm0 0M377.246 210.113c-1.07-5.418-6.332-8.945-11.746-7.87-5.422 1.07-8.941 6.331-7.875 11.75 14.207 71.866-39.176 119.945-78.52 134.726-24.988 9.386-45.851 7.281-53.156-5.364-2.488-4.308 3.352-11.812 13.27-23.656 18.984-22.676 47.672-56.941 16.836-110.347-12.301-21.305-11.453-41.813 2.332-56.258 14.636-15.344 39.129-19.317 58.242-9.45 4.91 2.536 10.941.61 13.476-4.296 2.532-4.907.61-10.938-4.3-13.473-26.82-13.848-61.262-8.207-81.89 13.414-20.052 21.02-21.99 50.95-5.18 80.063 23.84 41.293 3.285 65.847-14.852 87.511-12.25 14.63-24.914 29.762-15.254 46.492 7.973 13.813 23.312 21.047 42.418 21.043 10.723 0 22.637-2.28 35.09-6.957 27.746-10.425 53.437-30.718 70.48-55.68 20.66-30.253 27.793-65.402 20.63-101.648zm0 0M89.379 187.297c4.89 0 9.754-.613 14.453-1.871 20.711-5.551 35.762-22.203 42.375-46.887 11.043-41.207 38.438-43.637 64.93-45.984 17.574-1.559 35.754-3.168 40.457-20.739 3.785-14.12-1.102-28.867-13.754-41.52C225.777 18.23 207.578 8.845 186.605 3.86c-22.515-5.351-45.785-5.132-67.292.63-21.051 5.644-39.383 16.273-54.477 31.593-16.98 17.234-29.348 40.008-36.77 67.695-6.503 24.278-.656 47.778 16.047 64.48 12.227 12.231 28.926 19.04 45.266 19.04zm-41.992-78.344C62.77 51.535 97.809 30.957 124.488 23.81c9.63-2.582 19.461-3.735 29.082-3.735 29.149 0 56.368 10.606 70.125 24.363 5.23 5.227 10.961 13.325 8.582 22.204-1.086 4.058-11.687 5-22.906 5.992-27.008 2.394-67.816 6.012-82.48 60.726-4.754 17.75-14.52 29.07-28.235 32.746-13.613 3.649-29.472-1.058-40.402-11.988-6.766-6.765-17.176-21.629-10.867-45.164zm0 0M107.738 435.438l-.004-.008c-4.242-3.535-10.546-2.957-14.082 1.285-3.535 4.242-2.957 10.55 1.285 14.086a9.943 9.943 0 006.395 2.316 9.974 9.974 0 007.688-3.597c3.535-4.243 2.964-10.547-1.282-14.083zm0 0"/><path d="M352.129 179.137c1.789 0 3.598-.48 5.23-1.485 4.704-2.898 6.172-9.054 3.278-13.757l-.004-.008c-2.899-4.703-9.055-6.164-13.758-3.27-4.703 2.895-6.168 9.055-3.273 13.758a9.996 9.996 0 008.527 4.762zm0 0"/></svg>
