<svg viewBox="0 0 512 512" xmlns="http://www.w3.org/2000/svg"><g><path d="m56.34 416.239c-35.316-43.948-56.42-99.801-56.34-160.586.187-140.969 115.422-255.864 256.392-255.653 141.205.212 255.608 114.746 255.608 256 0 79.208-35.972 150.013-92.471 196.971-3.03 2.518-7.223 3.126-10.844 1.572-62.625-26.883-137.764-42.543-218.557-42.543-40.017 0-78.647 3.842-115.056 10.987-7.019 1.377-14.252-1.173-18.732-6.748z" fill="#76b6fa"/><path d="m441.026 108.937-38.796-22.399v-43.924c0-1.786-.953-3.437-2.5-4.33l-40.89-23.607c-1.547-.893-3.453-.893-5 0l-40.889 23.607c-1.547.894-2.5 2.544-2.5 4.33v44.601l-37.987 21.932c-1.547.894-2.5 2.544-2.5 4.33v47.215c0 1.786.953 3.437 2.5 4.33l40.89 23.607c.773.446 1.637.67 2.5.67s1.727-.224 2.5-.67l38.573-22.271 38.21 22.061c.788.455 1.647.671 2.495.671 1.728 0 3.409-.897 4.335-2.501 1.381-2.392.562-5.449-1.83-6.83l-38.39-22.164v-41.441l35.89-20.721 35.889 20.721v44.328c0 2.762 2.239 5 5 5s5-2.238 5-5v-47.215c0-1.787-.953-3.437-2.5-4.33zm-84.686-84.157 35.89 20.721v41.442l-35.722 20.624-36.057-20.817v-41.249zm-40.486 153.745-35.89-20.721v-41.441l35.722-20.624 36.057 20.817v41.248z" fill="#1380e2"/><path d="m225.34 333.847v161.837c0 7.767-7.016 13.682-14.663 12.316-45.994-8.217-87.732-28.717-121.701-57.986-2.407-2.074-3.807-5.083-3.807-8.261v-47.347c0-10.121 5.366-19.482 14.099-24.598l.61-.357c-26.93-25.001-23.878-180.152-23.878-180.152l-19.903-9.299v-34.209c0-5.325 2.823-10.251 7.418-12.943l129.485-75.848 18.5 10.837v257.903z" fill="#3d4ec6"/><path d="m329.903 145.792v123.306c0 75.609-61.294 136.902-136.903 136.902-30.773 0-59.175-10.154-82.038-27.293-12.148-22.385-19.047-48.033-19.047-75.292v-142.385c0-6.149 3.26-11.838 8.566-14.946l122.3-71.64 99.704 58.404c4.594 2.692 7.418 7.618 7.418 12.944z" fill="#5766ce"/><path d="m457.526 173.042c-2.639 10.726-13.473 17.282-24.199 14.643s-17.282-13.473-14.643-24.199 13.473-17.282 24.199-14.643 17.282 13.473 14.643 24.199zm32.474 35.458c0 6.904-5.596 12.5-12.5 12.5s-12.5-5.596-12.5-12.5 5.596-12.5 12.5-12.5 12.5 5.596 12.5 12.5zm-23 51c0 6.904-5.596 12.5-12.5 12.5s-12.5-5.596-12.5-12.5 5.596-12.5 12.5-12.5 12.5 5.596 12.5 12.5z" fill="#3d4ec6"/><path d="m457.526 173.042c-.571 2.322-1.527 4.449-2.782 6.329-2.248.24-4.575.1-6.897-.472-10.726-2.639-17.282-13.473-14.643-24.199.571-2.322 1.527-4.449 2.782-6.329 2.248-.24 4.575-.1 6.897.472 10.726 2.638 17.282 13.473 14.643 24.199z" fill="#5766ce"/><path d="m168.936 90h-38.936c-3.866 0-7-3.134-7-7v-46c0-3.866 3.134-7 7-7h38.936c3.866 0 7 3.134 7 7v46c0 3.866-3.134 7-7 7z" fill="#453d83"/><path d="m256 90h-89c-3.866 0-7-3.134-7-7v-46c0-3.866 3.134-7 7-7h89c3.866 0 7 3.134 7 7v46c0 3.866-3.134 7-7 7z" fill="#51489a"/><path d="m420 249v203.579c-44.418 37.097-101.602 59.421-164 59.421-15.704 0-31.077-1.414-46-4.122v-258.878c0-4.971 4.029-9 9-9h192c4.971 0 9 4.029 9 9z" fill="#9bcf1b"/><path d="m335 440c-46.944 0-85-38.056-85-85v-106c0-4.971 4.029-9 9-9h152c4.971 0 9 4.029 9 9v106c0 46.944-38.056 85-85 85z" fill="#b9e746"/><path d="m331 260h-32c-4.971 0-9-4.029-9-9v-2c0-4.971 4.029-9 9-9h32c4.971 0 9 4.029 9 9v2c0 4.971-4.029 9-9 9z" fill="#84b017"/><path d="m290 250h-80v-35c0-8.284 6.716-15 15-15h50c8.284 0 15 6.716 15 15z" fill="#453d83"/><path d="m420 250h-170v-35c0-8.284 6.716-15 15-15h140c8.284 0 15 6.716 15 15z" fill="#51489a"/><path d="m375 450h-120c-2.761 0-5-2.239-5-5v-150c0-2.761 2.239-5 5-5h120c2.761 0 5 2.239 5 5v150c0 2.761-2.239 5-5 5z" fill="#dbf3a0"/><path d="m375 450h-90c-2.761 0-5-2.239-5-5v-150c0-2.761 2.239-5 5-5h90c2.761 0 5 2.239 5 5v150c0 2.761-2.239 5-5 5z" fill="#f2fbdc"/><path d="m284.729 346.529 27.126-34.525c1.602-2.039 4.689-2.039 6.291 0l27.126 34.525c2.062 2.625.192 6.471-3.145 6.471h-54.251c-3.339 0-5.209-3.847-3.147-6.471zm-14.729 43.471h90c2.761 0 5-2.239 5-5s-2.239-5-5-5h-90c-2.761 0-5 2.239-5 5s2.239 5 5 5zm90 10h-90c-2.761 0-5 2.239-5 5s2.239 5 5 5h90c2.761 0 5-2.239 5-5s-2.239-5-5-5zm-25 20h-40c-2.761 0-5 2.238-5 5 0 2.761 2.239 5 5 5h40c2.761 0 5-2.239 5-5 0-2.762-2.239-5-5-5z" fill="#eac23f"/><path d="m300.25 340.902 13.217-16.823c.78-.993 2.285-.993 3.065 0l13.217 16.823c1.005 1.279.094 3.153-1.533 3.153h-26.435c-1.625 0-2.536-1.874-1.531-3.153z" fill="#e1b91e"/><path d="m156.097 185v260c0 2.761-2.239 5-5 5h-62.136c-11.971-10.317-22.977-21.723-32.864-34.064v-235.936h95c2.762 0 5 2.239 5 5z" fill="#f1de96"/><path d="m156.097 185v260c0 2.761-2.239 5-5 5h-59.183v-270h59.183c2.762 0 5 2.239 5 5z" fill="#f5e8b4"/><path d="m102.174 283.776c.773.446 1.637.67 2.5.67s1.727-.224 2.5-.67l25.791-14.89c1.547-.893 2.5-2.544 2.5-4.33v-29.78c0-1.786-.953-3.437-2.5-4.33l-25.791-14.891c-1.547-.893-3.453-.893-5 0l-25.79 14.891c-1.547.894-2.5 2.544-2.5 4.33v29.78c0 1.786.953 3.437 2.5 4.33zm-18.29-46.113 20.79-12.004 20.791 12.004v24.007l-20.791 12.003-20.79-12.003zm52.116 117.337c0 2.761-2.239 5-5 5h-50c-2.761 0-5-2.239-5-5s2.239-5 5-5h50c2.761 0 5 2.239 5 5zm0 20c0 2.761-2.239 5-5 5h-50c-2.761 0-5-2.239-5-5s2.239-5 5-5h50c2.761 0 5 2.239 5 5zm-15 20c0 2.761-2.239 5-5 5h-20c-2.761 0-5-2.239-5-5 0-2.762 2.239-5 5-5h20c2.761 0 5 2.238 5 5z" fill="#e9cc5a"/></g></svg>