<svg viewBox="0 0 512 512" xmlns="http://www.w3.org/2000/svg"><path d="m160 88a39.863 39.863 0 0 0 -28 11.445 39.992 39.992 0 0 0 -68 28.555 40 40 0 0 0 -19.953 74.662 24 24 0 0 0 32.1 34.034 39.969 39.969 0 0 0 55.853-.141 39.992 39.992 0 0 0 68-28.555v-80a40 40 0 0 0 -40-40z" fill="#a0ab65"/><path d="m380 115.445a39.992 39.992 0 0 0 -68 28.555v80a39.992 39.992 0 0 0 68 28.555 39.992 39.992 0 0 0 68-28.555 40 40 0 0 0 0-80 39.992 39.992 0 0 0 -68-28.555z" fill="#a0ab65"/><path d="m344 160a40 40 0 0 0 -40-40 40 40 0 0 0 -80 0 39.992 39.992 0 0 0 -28.555 68 39.992 39.992 0 0 0 28.555 68h80a39.992 39.992 0 0 0 28.555-68 39.865 39.865 0 0 0 11.445-28z" fill="#cfdb8c"/><path d="m264 264a8 8 0 0 1 -8-8v-96a8 8 0 0 1 16 0v96a8 8 0 0 1 -8 8z" fill="#a0ab65"/><circle cx="440" cy="224" fill="#eb423f" r="48"/><circle cx="168" cy="208" fill="#eb423f" r="48"/><path d="m296 288v-32a32 32 0 0 0 0-64v-32a64 64 0 0 1 0 128z" fill="#ffb632"/><path d="m24 224h464a0 0 0 0 1 0 0v48a128 128 0 0 1 -128 128h-208a128 128 0 0 1 -128-128v-48a0 0 0 0 1 0 0z" fill="#e9eef2"/><path d="m24 224h464v32h-464z" fill="#dadcde"/><path d="m152 400h208v32h-208z" fill="#dadcde"/><path d="m152 224h-32a32 32 0 0 0 -64 0h-32a64 64 0 0 1 128 0z" fill="#ffb632"/></svg>