<svg viewBox="0 0 128 128" xmlns="http://www.w3.org/2000/svg"><path d="m70 115 12.8-7.5 4.8-6.8 9.1 1-2.7-9.2 6.4.4c-.5-24.8-3.8-49.5-9.9-73.6h-78.7c-6.6 26.1-10 53-10 79.9v3.8c0 8.3 6.7 15 15 15h56.2z" fill="#d3643d"/><path d="m11.8 1.8h78.6v17.6h-78.6z" fill="#ffaf10"/><g fill="#d3643d"><path d="m25.6 1.8v7.9c0 1-.8 1.8-1.8 1.8s-1.8-.8-1.8-1.8v-7.9z"/><path d="m36.5 1.8v7.9c0 1-.8 1.8-1.8 1.8s-1.7-.9-1.7-1.9v-7.8z"/><path d="m47.4 1.8v7.9c0 1-.8 1.8-1.8 1.8s-1.8-.8-1.8-1.8v-7.9z"/><path d="m58.3 1.8v7.9c0 1-.8 1.8-1.8 1.8s-1.8-.8-1.8-1.8v-7.9z"/><path d="m69.1 1.8v7.9c0 1-.8 1.8-1.8 1.8s-1.8-.8-1.8-1.8v-7.9z"/><path d="m80 1.8v7.9c0 1-.8 1.8-1.8 1.8s-1.8-.8-1.8-1.8v-7.9z"/></g><path d="m68.5 79.5c0 10.7-7.8 19.4-17.4 19.4s-17.4-8.7-17.4-19.4 10.3-27 10.3-27 1.6 13.5 7.9 14.5c4.4-.8 8.1-7.1 8.1-7.1s8.5 10.1 8.5 19.6z" fill="#ffd00d"/><path d="m120.3 102.8-10.4-9.3-16-1 2.7 9.2-1.9 8.1 9.3 8.6 10.4 1.8 11.9-1.6v-14.2z" fill="#4a1539"/><path d="m60 89.9c0 4.9-4 8.9-8.9 8.9s-8.9-4-8.9-8.9 8.9-11.8 8.9-11.8 8.9 6.9 8.9 11.8z" fill="#f43d58"/><path d="m81.3 126.3-11.3-11.3 12.8-7.5 4.7-6.7 19 2 .8 10.7 8.2 7.8-1.2 5z" fill="#632855"/><path d="m99.9 110.8c-.1 0-.1 0-.2 0l-9.1-1c-1-.1-1.6-1-1.5-2 .1-.9.9-1.6 1.9-1.5l9.1 1c1 .1 1.7 1 1.6 1.9-.1 1-.9 1.6-1.8 1.6z" fill="#4a1539"/></svg>