<svg viewBox="0 0 512 512" xmlns="http://www.w3.org/2000/svg"><g id="flat"><ellipse cx="256" cy="377.358" fill="#eaeae8" rx="232" ry="94.642"/><ellipse cx="256" cy="381.895" fill="#cbcbcb" rx="144" ry="34.105"/><path d="m76 208h380a0 0 0 0 1 0 0v156a20 20 0 0 1 -20 20h-360a20 20 0 0 1 -20-20v-136a20 20 0 0 1 20-20z" fill="#f6bb92"/><path d="m456 208h-380a19.994 19.994 0 0 0 -20 20v-4.87a20.014 20.014 0 0 1 14.56-19.25l353.44-99.88.94 1.41a185.086 185.086 0 0 1 31.06 102.59z" fill="#fdc9a6"/><path d="m344 199.36v28.49a21.8 21.8 0 0 1 -3.67 12.15 21.283 21.283 0 0 1 -2.11 2.7 21.867 21.867 0 0 1 -14.29 7.02 13.058 13.058 0 0 0 -11.95 13.04l.02 14.88a15.98 15.98 0 0 1 -16.129 16 16.269 16.269 0 0 1 -15.871-16.41v-12.87a11.984 11.984 0 0 0 -11.975-12 12.332 12.332 0 0 0 -12.025 12.35v26.93a15.98 15.98 0 0 1 -16.129 16 16.269 16.269 0 0 1 -15.871-16.41v-37.59a15.987 15.987 0 0 0 -4.68-11.32 16 16 0 0 0 -27.32 11.32v4.41a19.6 19.6 0 0 1 -19.59 19.59 20.413 20.413 0 0 0 -20.41 20.41v-.41a15.98 15.98 0 0 1 -16.129 16 16.269 16.269 0 0 1 -15.871-16.41v-35.59a15.978 15.978 0 0 0 -16.129-16 16.268 16.268 0 0 0 -15.871 16.41v15.59a15.98 15.98 0 0 1 -16.129 16 16.269 16.269 0 0 1 -15.871-16.41v-49.21a67.443 67.443 0 0 1 .72-10.19 20.013 20.013 0 0 1 13.84-13.95 172.254 172.254 0 0 1 48.347-6.485z" fill="#e82f3e"/><path d="m379.96 116.45-3.96 43.55v17.98a30.045 30.045 0 0 1 -30.38 30.04h-282.72a20.06 20.06 0 0 1 7.66-4.14z" fill="#fbb540"/><path d="m379.96 116.45-3.96 43.55v17.98a30.045 30.045 0 0 1 -30.38 30.04l-1.62-.02-267.98.02z" fill="#fbb540"/><path d="m56 344h320a40 40 0 0 0 40-40 24 24 0 0 1 24-24h16v84a20 20 0 0 1 -20 20h-360a20 20 0 0 1 -20-20z" fill="#8f6934"/><path d="m328 144a25.887 25.887 0 0 1 -14.311 23.155l-17.689 8.845" fill="#fff" stroke="#000" stroke-linecap="round" stroke-linejoin="round" stroke-width="16"/><g fill="#e6af89"><path d="m368 280a7.976 7.976 0 0 1 -5.657-2.343l-8-8a8 8 0 0 1 11.314-11.314l8 8a8 8 0 0 1 -5.657 13.657z"/><path d="m368 320a7.976 7.976 0 0 1 -5.657-2.343c-3.124-3.125-.9-8.189 2.227-11.314l5.773-8a8 8 0 0 1 11.314 11.314l-8 8a7.976 7.976 0 0 1 -5.657 2.343z"/><path d="m186.227 320a8 8 0 0 1 -5.657-13.657l8-8a8 8 0 0 1 11.314 11.314l-8 8a7.976 7.976 0 0 1 -5.657 2.343z"/><path d="m392 256a8 8 0 0 1 -5.657-13.657l8-8a8 8 0 0 1 11.314 11.314l-8 8a7.976 7.976 0 0 1 -5.657 2.343z"/></g><path d="m379.96 116.45-3.96 43.55v17.98a30.045 30.045 0 0 1 -30.38 30.04h-282.72a20.06 20.06 0 0 1 7.66-4.14z" fill="#ff3444"/><path d="m272 176v-14a18 18 0 0 1 18-18h30.076a124.239 124.239 0 0 0 46.137-8.885l17.787-7.115v7.781a40.219 40.219 0 0 1 -40.219 40.219z" fill="#eaeae8"/><path d="m364.205 129.014 2.317-3.958a51.189 51.189 0 0 0 .2-51.387 51.191 51.191 0 0 0 -51.773-25.13l-66.949 9.781 24.237 63.168a51.191 51.191 0 0 0 47.253 32.849 51.193 51.193 0 0 0 44.715-25.323z" fill="#e82f3e"/><path d="m366.52 125.06-2.32 3.95a51.167 51.167 0 0 1 -44.18 25.33h-.53a51 51 0 0 1 -24.93-6.79l35.1-22.88-5.72-21.89 21.89-5.72 10.57-36.09a51.2 51.2 0 0 1 10.12 64.09z" fill="#029532"/><circle cx="298.007" cy="115.409" fill="#961b20" r="8"/><circle cx="289.422" cy="82.572" fill="#961b20" r="8"/><circle cx="322.26" cy="73.987" fill="#961b20" r="8"/></g></svg>