<svg xmlns="http://www.w3.org/2000/svg" id="svg-icon" viewBox="0 0 512 512"><path d="M512 173.419L252.982 50.725c-15.809-7.44-33.341-10.499-50.757-9.108C51.299 53.667 0 159.775 0 206.452h512v-33.033z" fill="#fff082"/><path d="M505.152 314.517c3.926-.828 6.848-4.09 6.848-8.102V173.419H33.032C14.789 173.419 0 188.208 0 206.452v231.226c0 18.243 14.789 33.032 33.032 33.032h168.04a8.166 8.166 0 007.716-5.451c5.653-16.065 20.956-27.581 38.954-27.581s33.301 11.516 38.954 27.581a8.167 8.167 0 007.716 5.451h209.33a8.258 8.258 0 008.258-8.258v-75.19c0-4.013-2.922-7.274-6.848-8.102-14.957-3.153-26.184-16.426-26.184-32.321 0-15.896 11.227-29.169 26.184-32.322z" fill="#ffdc64"/><g fill="#e1a546"><circle cx="421.16" cy="256" r="16.516"/><circle cx="206.45" cy="371.61" r="16.516"/></g><circle cx="82.58" cy="396.39" r="24.774" fill="#ffc850"/><path d="M82.581 371.613c-10.052 0-18.662 6.012-22.547 14.614 3.107-1.403 6.529-2.227 10.16-2.227 13.682 0 24.774 11.092 24.774 24.774 0 3.631-.824 7.053-2.227 10.16 8.602-3.885 14.614-12.495 14.614-22.547 0-13.682-11.092-24.774-24.774-24.774z" fill="#e1a546"/><circle cx="297.29" cy="239.48" r="24.774" fill="#ffc850"/><path d="M297.29 214.71c-10.052 0-18.662 6.012-22.547 14.614 3.107-1.403 6.529-2.227 10.16-2.227 13.682 0 24.774 11.092 24.774 24.774 0 3.631-.824 7.053-2.227 10.16 8.602-3.885 14.614-12.495 14.614-22.547.001-13.683-11.091-24.774-24.774-24.774z" fill="#e1a546"/><circle cx="132.13" cy="272.52" r="41.29" fill="#ffc850"/><path d="M132.129 231.226c-15.665 0-29.129 8.827-36.126 21.681 5.858-3.189 12.471-5.165 19.609-5.165 22.804 0 41.29 18.486 41.29 41.29 0 7.139-1.976 13.752-5.165 19.609 12.854-6.997 21.681-20.46 21.681-36.125.001-22.804-18.485-41.29-41.289-41.29z" fill="#e1a546"/><circle cx="355.1" cy="371.61" r="41.29" fill="#ffc850"/><path d="M355.097 330.323c-15.665 0-29.129 8.827-36.125 21.681 5.858-3.189 12.471-5.165 19.609-5.165 22.804 0 41.29 18.486 41.29 41.29 0 7.139-1.976 13.752-5.165 19.609 12.854-6.997 21.681-20.46 21.681-36.125 0-22.804-18.486-41.29-41.29-41.29z" fill="#e1a546"/><path d="M0 214.71c18.243 0 33.032 14.789 33.032 33.032v148.645c0 27.365 22.184 49.548 49.548 49.548h111.484c6.841 0 12.387 5.546 12.387 12.387s-5.546 12.387-12.387 12.387H33.032C14.789 470.71 0 455.921 0 437.677V214.71z" fill="#ffc850"/></svg>
