<svg xmlns="http://www.w3.org/2000/svg" id="svg-icon" viewBox="0 0 512.001 512.001"><path d="M481.734 21.648s-13.755 95.884-86.2 123.792c-69.254 26.684-130.985-45.459-156.308-39.778-1.141.234-2.2.646-3.191 1.237-.041.014-.055.027-.055.027l.014-.055c.853-2.585 28.624-85.306 99.942-90.725 72.446-5.501 111.866 27.509 145.798 5.502z" fill="#2fcc6e"/><g fill="#23b75f"><path d="M315.86 297.526c-.96-1.635-95.845-164.883-70.745-286.423A9.233 9.233 0 00237.94.192c-4.995-1.029-9.879 2.182-10.91 7.175-6.158 29.821-6.216 63.511-.241 100.747-.625 93.187-68.698 191.858-69.39 192.848-2.919 4.181-1.897 9.936 2.283 12.855a9.191 9.191 0 005.279 1.665 9.222 9.222 0 007.578-3.947c2.417-3.46 49.081-71.028 66.362-149.68 4.113 14.415 8.98 29.255 14.623 44.522 21.265 57.537 45.402 98.788 46.418 100.517a9.228 9.228 0 0012.641 3.273c4.395-2.586 5.863-8.246 3.277-12.641z"/><path d="M423.073 64.153a5.537 5.537 0 00-7.371-2.654c-12.722 5.987-22.153 4.717-37.778 2.615-7.655-1.031-16.697-2.243-27.97-2.813l10.128-10.128a5.54 5.54 0 10-7.834-7.835l-17.671 17.671c-44.845 1.312-99.41 39.712-101.748 41.374a5.54 5.54 0 106.417 9.033c.362-.256 24.05-16.919 52.055-28.481l26.629 13.292a5.541 5.541 0 004.949-9.913l-17.298-8.634c10.602-3.396 21.356-5.627 31.33-5.627 14.646 0 26.01 1.264 35.338 2.485l22.965 19.575a5.52 5.52 0 003.591 1.324 5.54 5.54 0 003.596-9.758l-10.415-8.877c9.42.54 18.102-.412 28.437-5.276a5.541 5.541 0 002.65-7.373z"/></g><path d="M222.029 463.779c-28.087 37.302-72.954 56.174-115.567 44.18-57.77-16.258-89.488-83.105-70.863-149.306 18.638-66.201 71.607-74.825 129.376-58.568 21.223 5.97 40.135 14.47 54.647 26.12" fill="#f94848"/><path d="M149.107 507.959c-57.77-16.258-89.488-83.105-70.863-149.306 11.028-39.174 34.079-58.183 63.032-63.81-48.112-7.509-89.625 6.799-105.675 63.81-18.624 66.201 13.095 133.048 70.863 149.306 15.84 4.459 31.991 4.645 47.476 1.213a96.703 96.703 0 01-4.833-1.213z" fill="#e23d3d"/><path d="M416.563 387.477c0-68.773-48.649-91.423-108.662-91.423s-108.662 22.65-108.662 91.423 48.649 124.525 108.662 124.525 108.662-55.753 108.662-124.525z" fill="#f94848"/><path d="M242.005 387.477c0-60.384 37.508-85.204 87.279-90.363-6.914-.717-14.063-1.06-21.383-1.06-60.012 0-108.662 22.65-108.662 91.423s48.649 124.525 108.662 124.525c7.319 0 14.469-.835 21.383-2.417-49.771-11.384-87.279-61.724-87.279-122.108z" fill="#e23d3d"/></svg>
