<svg height="512" viewBox="0 0 110 110" width="512" xmlns="http://www.w3.org/2000/svg" id="svg-icon"><path d="M62.22 85.654c1.061-.192 20.898-25.175 26.614-41.525L62.22 63.036z" fill="#c12525"/><path d="M60.1 74.807c1.381 3.916 5.082 6.18 8.266 5.058 3.184-1.123-.052-3.065-1.432-6.981s-.384-8.322-3.568-7.2c-3.184 1.123-4.646 5.208-3.266 9.123z" fill="#f9b623"/><path d="M63.365 65.684c.311-.11.583-.166.819-.174 2.195-.093 1.504 3.841 2.75 7.375 1.262 3.578 4.071 5.504 2.117 6.666-.004.002-.008.003-.01.008a3.776 3.776 0 01-.676.305c.185-.079.368-.16.521-.277.163-.102.286-.282.195-.44-.082-.156-.252-.273-.41-.381a5.424 5.424 0 00-.507-.299c-.69-.38-1.407-.732-2.1-1.133-.699-.4-1.363-.868-1.957-1.423-.595-.56-1.106-1.232-1.398-2.022-.268-.798-.293-1.647-.18-2.452.113-.809.337-1.59.632-2.335.283-.75.624-1.476.924-2.204.077-.182.15-.363.208-.551.055-.183.114-.38.079-.554-.028-.18-.235-.24-.427-.22-.192.005-.385.06-.58.11z" fill="#fdc443"/><path d="M63.941 65.512a.682.682 0 01.31.014c.115.026.194.135.226.239.06.222.009.426-.033.621-.044.202-.105.391-.165.585-.27.753-.572 1.487-.816 2.237-.243.753-.467 1.508-.558 2.278-.096.768-.055 1.549.197 2.264.251.712.71 1.346 1.267 1.887.554.543 1.202.99 1.858 1.423.666.432 1.36.81 2.044 1.233.167.109.333.218.494.347.156.13.324.257.415.464.041.104.044.236-.026.327a.652.652 0 01-.231.21 2.635 2.635 0 01-.558.223c.185-.079.368-.16.521-.277.163-.102.286-.282.195-.44-.082-.156-.252-.273-.41-.381a5.424 5.424 0 00-.507-.299c-.69-.38-1.407-.732-2.1-1.133-.699-.4-1.363-.868-1.957-1.423-.595-.56-1.106-1.232-1.398-2.022-.268-.798-.293-1.647-.18-2.452.113-.809.337-1.59.632-2.335.283-.75.624-1.476.924-2.204.077-.182.15-.363.208-.551.055-.183.114-.38.079-.554-.028-.18-.235-.24-.427-.22-.192.005-.385.06-.58.11.188-.07.374-.144.576-.171z" fill="#f7c663"/><path d="M80.165 51.275c-2.253-5.167-7.485-7.87-11.687-6.038s.37 4.145 2.623 9.311c2.253 5.167 1.334 11.23 5.535 9.399 4.202-1.832 5.782-7.505 3.529-12.672z" fill="#f9b623"/><path d="M76.637 63.948c-.41.178-.772.281-1.09.315-2.963.341-2.414-5.053-4.447-9.716-2.058-4.72-6.051-7.054-3.518-8.82.005-.001.01-.004.013-.011.237-.165.527-.322.885-.478-.243.124-.483.253-.68.425-.21.154-.358.41-.219.615.126.204.367.346.59.477.224.13.472.245.717.354.972.447 1.977.854 2.956 1.329.984.472 1.93 1.041 2.788 1.735.86.7 1.618 1.56 2.09 2.601.442 1.055.559 2.201.483 3.302a13.828 13.828 0 01-.625 3.224c-.31 1.043-.701 2.059-1.036 3.075a7.54 7.54 0 00-.228.766c-.056.253-.116.526-.052.757.056.242.341.302.6.257.26-.026.515-.12.773-.207z" fill="#fdc443"/><path d="M75.875 64.237a.926.926 0 01-.422.01c-.158-.023-.275-.163-.329-.3-.103-.294-.053-.576-.016-.845.04-.277.104-.54.167-.807.29-1.047.628-2.07.885-3.109.255-1.043.485-2.088.533-3.14.055-1.048-.078-2.102-.49-3.046-.409-.939-1.09-1.753-1.899-2.431-.803-.68-1.725-1.223-2.655-1.744-.943-.52-1.921-.965-2.888-1.47a8.317 8.317 0 01-.703-.421c-.224-.162-.464-.316-.607-.587-.067-.138-.083-.316.003-.446a.884.884 0 01.128-.173 1.145 1.145 0 01.164-.133c.229-.156.48-.26.734-.357-.243.124-.483.253-.68.425-.21.154-.358.41-.219.615.126.204.367.346.59.477.224.13.472.245.717.354.972.447 1.977.854 2.956 1.329.984.472 1.93 1.041 2.788 1.735.86.7 1.618 1.56 2.09 2.601.442 1.055.559 2.201.483 3.302a13.828 13.828 0 01-.625 3.224c-.31 1.043-.701 2.059-1.036 3.075a7.54 7.54 0 00-.228.766c-.056.253-.116.526-.052.757.056.242.341.302.6.257.26-.026.515-.12.773-.207-.246.114-.49.232-.762.29z" fill="#f7c663"/><path d="M84.874 42.883a54.66 54.66 0 00-.132-.078c-.991-.595-3.544-1.314-6.11-1.934-3.288-.791-6.576-1.422-6.593-1.425-.001 0 0 0 0 0-.015-.012-5.72-4.564-9.544-6.916a76.178 76.178 0 00-1.871-1.116v-.012c-3.633-2.152-9.165-5.33-11.16-6.474a3.815 3.815 0 00-1.62-.495H46.17l-5.364-7.341a.018.018 0 00-.028-.003L4.992 52.32c-.009.008-.015.018-.004.024.458.244 12.623 6.747 20.077 11.854 7.585 5.218 34.74 21.194 36.897 21.355.112.012.171.09.258.102.558-1.45 7.439-21.296 15.036-27.778 4.12-3.522 6.982-6.992 8.74-9.432.763-1.06 2.838-4.315 2.838-4.315-.278-.83-3.14-.758-3.96-1.246z" fill="#ef3e3e"/><g fill="#e33636"><path d="M72.039 39.446s-5.714-4.561-9.544-6.916a76.178 76.178 0 00-1.871-1.116c.024.657.186 1.277.582 1.81.298.409.719.719 1.128 1.016l2.194 1.636c2.355 1.735 4.821 3.632 5.837 6.37 0-.235 4.933-1.09 5.392-1.14.818-.061 1.846.1 2.627-.123.087-.025.174-.075.248-.112-3.297-.793-6.593-1.425-6.593-1.425zM74.407 43.38c.572.392 1.149.79 1.613 1.304.465.515.813 1.165.834 1.858.02.693-.338 1.418-.968 1.706-.479.218-1.06.177-1.5.463-.412.269-.613.778-.646 1.269-.033.49.076.978.155 1.464.271 1.676.18 3.41-.266 5.049-.419 1.54-1.15 3.148-.641 4.66.566-.169.917-.732 1.128-1.284.21-.552.34-1.15.7-1.62.464-.608 1.241-.904 1.74-1.484.956-1.109.628-2.878 1.427-4.105.414-.637 1.084-1.052 1.695-1.502 2.134-1.57 3.73-3.746 5.292-5.886.14-.19.286-.406.257-.64-.042-.359-.46-.541-.82-.559-1.116-.054-2.21.77-3.28.453-.642-.19-1.11-.766-1.342-1.393-.232-.627-.265-1.307-.295-1.975-.772.285-1.566.455-2.33.713-.948.32-1.879 1.022-2.753 1.509zM48.713 24.499h-7.274l-.897-.556-5.018 1.101 5.507-1.754 1.265.449 3.435.094zM30.637 30.241l-4.174 4.343c-2.382 2.477-4.764 4.955-7.154 7.425-1.043 1.078-2.088 2.155-3.133 3.231-2.971 3.062-5.566 5.48-8.537 8.542 2.43-.118 4.208-.947 6-2.593 1.792-1.646 3.395-3.537 5.457-4.828 1.563-.978 3.329-1.572 5.006-2.336 1.678-.764 3.33-1.754 4.365-3.28 1.45-2.139 1.42-4.874 1.173-7.489l.997-3.015zM61.845 67.483c-1.846.71-3.738 1.266-5.687 1.609a29.034 29.034 0 01-3.046.372c-.402.028-2.602.352-2.848.054 3.977 4.804 7.17 9.78 9.962 15.358.277-1.945.992-3.58 1.664-5.426 1.099-3.023 2.7-5.837 4.395-8.571 1.385-2.236 2.986-4.354 4.342-6.598-2.925.968-5.9 2.091-8.782 3.202zM48.65 71.747c-1.1-1.535-2.286-3.14-4.02-3.89-1.422-.615-3.081-.589-4.432-1.347-1.384-.777-2.24-2.266-3.582-3.113-2.206-1.394-5.109-.746-7.623-1.442-3.146-.872-5.345-3.73-8.324-5.064-1.972-.883-4.178-1.05-6.333-1.206-1.278-.093-2.609-.834-3.787-.287 2.335 1.215 4.722 1.253 7.267 1.875a20.34 20.34 0 017.718 3.76c.79.62 1.535 1.302 2.38 1.846 1.206.777 2.578 1.251 3.935 1.718l5.694 1.959c2.506.862 5.053 1.745 7.194 3.307 1.325.967 2.458 2.17 3.583 3.364l5.836 6.2-5.506-7.68zM71.868 46.435c-.231-.614-.726-1.085-1.205-1.533l-3.107-2.907c-1.5-1.404-3.001-2.808-4.531-4.18-.85-.76-1.713-1.518-2.421-2.413-1.265-1.598-2.238-3.773-4.23-4.204l.417.635c-.447-.338-1.031-.548-1.592-.619-1.027-.13-2.096.02-3.085-.29-1.816-.568-2.809-2.466-4.217-3.747-.818-.744-1.896-1.313-2.993-1.17-1.097.141-2.095 1.22-1.84 2.297.403 1.69 2.986 1.696 3.996 3.11.677.948.457 2.244.696 3.385.446 2.134 2.459 3.558 4.443 4.463 1.984.904 3.786 2.081 5.723 3.083 5.944 3.073 3.718 8.373 4.32 9.017 1.39 1.491 1.198 3.956.117 5.684s-2.848 2.891-4.559 4l-5.53 3.583c-.729.472-1.482.969-1.927 1.713-.445.745-.478 1.812.163 2.396l14.867-5.873c1.486-.587 3.064-1.246 3.95-2.576.592-.89.797-1.976.989-3.029l1.555-8.53c.14-.763.275-1.57.001-2.295z"/></g><g opacity=".15"><path d="M35.594 33.737l-.148 1.154a.648.648 0 00.163-.194c.011-.276.02-.552.028-.828-.013-.044-.028-.088-.043-.132z" fill="#fff"/><path d="M32.977 52.655c-.428-.36-.88-.763-.995-1.31-.18-.865.542-1.628 1.187-2.23 1.808-1.69 3.552-3.577 4.353-5.919 1.166-3.408.148-7.135-.872-10.59-.16-.542-.528-1.215-1.077-1.083-.617.148-.53 1.063-.237 1.627.094.18.187.382.258.587l.064-.503-.02.635c.086.301.104.598-.029.828-.072 1.81-.217 3.618-.71 5.355-.625 2.207-1.877 4.323-3.833 5.52-2.455 1.505-5.623 1.368-8.16 2.732-.748.402-1.445.95-1.863 1.69-.419.74-.518 1.693-.108 2.437.763 1.384 2.683 1.417 4.258 1.53 3.845.28 7.393 2.075 10.822 3.835l7.786 3.997-10.824-9.138z" fill="#e33636"/></g><path d="M71.651 43.099c.272-.155.526-.342.809-.475.485-.23 1.03-.287 1.564-.342l6.27-.645-6.488.089c-.463.006-.938.015-1.37.183-.413.16-.758.457-1.156.652-.701.343-1.485.343-2.267.214a54.29 54.29 0 00-2.654-2.746c-2.567-2.459-4.819-5.258-7.37-7.733-.753-.729-1.528-1.465-2.476-1.91-.987-.461-2.094-.576-3.164-.783-1.07-.206-2.173-.541-2.931-1.324-.826-.854-1.166-2.167-2.183-2.78-.843-.509-1.906-.386-2.88-.247l-6.489.927c1.817.507 3.959.583 5.62-.31.957-.516 2.183-.184 3.047.476.863.66 1.464 1.595 2.13 2.454.666.859 1.467 1.69 2.511 1.992 1.16.334 2.432-.04 3.595.281 1.138.314 1.99 1.234 2.777 2.113L72.272 48.5a1.973 1.973 0 00-.203 1.562c-.716 1.618-1.193 3.442-1.228 5.21-.028 1.418.17 2.834.12 4.251-.05 1.417-.38 2.89-1.31 3.96 1.116-.129 1.915-1.21 2.159-2.306.244-1.098.076-2.238.05-3.362-.057-2.392.535-4.753 1.25-7.037.228-.726.471-1.498.279-2.235-.12-.462-.401-.862-.682-1.248a54.32 54.32 0 00-2.961-3.713 3.894 3.894 0 001.905-.484zM50.442 66.237c.212-.655.907-1.008 1.543-1.272a34.925 34.925 0 0112.261-2.639 11.233 11.233 0 00-7.358-.709c-2.047.506-3.902 1.578-5.853 2.377-1.951.8-4.149 1.326-6.157.684-.562-1.258-.307-2.76.338-3.978.646-1.217 1.64-2.207 2.62-3.177l4.566-4.522c-1.8.656-3.636 1.334-5.241 2.354-.48-1.806-.427-3.754.188-5.52.353-1.012.878-2.136.396-3.092-.264-.522-.775-.86-1.235-1.22-2.292-1.793-3.69-4.676-3.676-7.586-.6 1.52-.966 3.246-.377 4.77.439 1.137 1.35 2.012 2.159 2.923.809.912 1.571 1.985 1.594 3.204.021 1.13.05 2.464-.349 3.522-.617 1.639.139 3.104.56 4.802-1.476 1.694-4.084 5.493-3.397 7.603-3.645-6.232-7.447-9.563-19.01-10.604-1.226-.11-1.26-.48-2.448-.8-1.188-.319-2.314-1.286-2.343-2.516-.021-.935.598-1.787 1.368-2.318.77-.53 1.682-.804 2.566-1.108 2.78-.958 5.553-2.412 7.143-4.885 2.017-3.14 1.821-7.443 1.072-10.955-.732.942-.18 3.227-.297 4.452-.16 1.676-.598 3.339-1.575 4.733-1.253 1.787-3.213 2.923-5.11 4.002l-9.312 5.298a16.298 16.298 0 005.608 3.987c3.054 1.308 6.42 1.647 9.65 2.422 3.23.775 6.538 2.137 8.455 4.85 1.098 1.555 1.753 3.551 3.393 4.517 1.457.858 3.352.669 4.815 1.516 1.272.737 2 2.121 2.662 3.434l4.4 8.725-3.49-11.818c-.14-.475-.281-.985-.129-1.456z" fill="#fff" opacity=".1"/><path d="M79.807 65.628c-5.637 0-10.206 3.716-10.206 8.3s3.947 1.317 9.584 1.317c5.636 0 10.828 3.266 10.828-1.317s-4.57-8.3-10.206-8.3z" fill="#f9b623"/><path d="M90.014 73.927c0 .447-.051.82-.148 1.126-.87 2.852-5.596.193-10.683.193-5.15 0-8.885 2.727-9.49-.3 0-.006 0-.012-.006-.017a5.125 5.125 0 01-.085-1.002c.017.272.04.543.12.792.056.255.231.493.475.447.237-.034.464-.198.673-.35.21-.153.413-.334.611-.516.798-.713 1.573-1.47 2.4-2.178a14.174 14.174 0 012.704-1.862c.985-.51 2.077-.86 3.22-.877 1.143.017 2.241.368 3.22.877.985.51 1.884 1.149 2.705 1.862.832.702 1.607 1.465 2.405 2.178.198.182.396.357.611.515.21.153.436.317.673.351.244.046.414-.192.476-.447.079-.249.096-.52.119-.792z" fill="#fdc443"/><path d="M89.974 74.742a.926.926 0 01-.158.39c-.085.136-.26.187-.408.181-.311-.022-.549-.18-.78-.322-.238-.147-.453-.311-.674-.475-.843-.685-1.647-1.404-2.496-2.055-.854-.65-1.72-1.278-2.665-1.743-.94-.47-1.958-.77-2.988-.77-1.024 0-2.043.3-2.988.77-.945.465-1.81 1.093-2.66 1.738-.854.656-1.652 1.375-2.5 2.06-.215.164-.43.328-.668.475-.238.141-.475.3-.781.322-.153.006-.323-.05-.407-.18a.884.884 0 01-.108-.187c0-.006 0-.012-.006-.017a1.145 1.145 0 01-.05-.187 3.577 3.577 0 01-.035-.815c.017.272.04.543.12.792.056.255.231.493.475.447.237-.034.464-.198.673-.35.21-.153.413-.334.611-.516.798-.713 1.573-1.47 2.4-2.178a14.174 14.174 0 012.704-1.862c.985-.51 2.077-.86 3.22-.877 1.143.017 2.241.368 3.22.877.985.51 1.884 1.149 2.705 1.862.832.702 1.607 1.465 2.405 2.178.198.182.396.357.611.515.21.153.436.317.673.351.244.046.414-.192.476-.447.079-.249.096-.52.119-.792.005.272.017.543-.04.815z" fill="#f7c663"/><path d="M95.396 61.004c1.38 3.916 5.08 6.18 8.265 5.057 3.184-1.122-.051-3.065-1.432-6.98-1.38-3.916-.383-8.323-3.568-7.2s-4.646 5.207-3.265 9.123z" fill="#f9b623"/><path d="M98.66 51.88c.311-.109.583-.165.819-.173 2.195-.093 1.505 3.84 2.75 7.375 1.262 3.577 4.072 5.504 2.117 6.666-.004.001-.008.003-.01.008a3.775 3.775 0 01-.676.304c.185-.078.368-.16.522-.276.163-.102.285-.282.194-.44-.082-.157-.251-.274-.409-.382a5.425 5.425 0 00-.507-.298c-.691-.38-1.408-.733-2.102-1.133a10.44 10.44 0 01-1.955-1.423c-.595-.56-1.107-1.233-1.399-2.022-.268-.799-.293-1.647-.179-2.452.113-.809.337-1.59.63-2.335.285-.75.625-1.476.925-2.205.078-.182.151-.362.208-.55.055-.183.114-.38.08-.554-.029-.18-.236-.24-.428-.22-.192.005-.385.06-.58.11z" fill="#fdc443"/><path d="M99.236 51.708a.682.682 0 01.31.015c.116.026.194.135.226.239.06.221.009.425-.033.621-.044.201-.105.39-.165.584-.27.754-.572 1.488-.816 2.237-.242.753-.467 1.509-.558 2.279-.096.767-.055 1.548.198 2.264.25.711.708 1.346 1.266 1.887.554.543 1.202.99 1.858 1.422.666.433 1.36.811 2.044 1.233.167.11.333.219.494.348.156.13.325.256.415.463.042.105.044.237-.026.328a.652.652 0 01-.103.12.842.842 0 01-.128.09 2.635 2.635 0 01-.558.222c.185-.078.368-.16.522-.276.163-.102.285-.282.194-.44-.082-.157-.251-.274-.409-.382a5.425 5.425 0 00-.507-.298c-.691-.38-1.408-.733-2.102-1.133a10.44 10.44 0 01-1.955-1.423c-.595-.56-1.107-1.233-1.399-2.022-.268-.799-.293-1.647-.179-2.452.113-.809.337-1.59.63-2.335.285-.75.625-1.476.925-2.205.078-.182.151-.362.208-.55.055-.183.114-.38.08-.554-.029-.18-.236-.24-.428-.22-.192.005-.385.06-.58.11.188-.07.374-.144.576-.172z" fill="#f7c663"/><path d="M75.957 78.393c-4.645 0-8.411 2.929-8.411 6.542 0 1.806 2.73 1.719 4.523 3.076 1.794 1.356 2.716 4.445 4.997 4.88.47.09 7.302-4.343 7.302-7.956 0-3.613-3.766-6.542-8.411-6.542z" fill="#ffc94f"/><path d="M75.957 78.393c-4.645 0-8.411 2.929-8.411 6.542s6.345-5.939 8.41 6.542c.76 4.583 8.412-2.929 8.412-6.542s-3.766-6.542-8.411-6.542z" fill="#f9b623"/><path d="M92.839 63.245c-3.065 0-5.55 1.932-5.55 4.316 0 1.192 1.802 1.134 2.985 2.029 1.183.895 1.792 2.933 3.297 3.22.31.06 4.817-2.865 4.817-5.25 0-2.383-2.484-4.315-5.549-4.315z" fill="#ffc94f"/><path d="M92.839 63.245c-3.065 0-5.55 1.932-5.55 4.316s4.187-3.918 5.55 4.316c.5 3.023 5.549-1.932 5.549-4.316s-2.484-4.316-5.549-4.316z" fill="#f9b623"/><path d="M97.062 75.202c-.334-.298-.429-.648-.374-.976a24.941 24.941 0 00-3.343-.559c-4.58.426-9.617 3.46-9.617 6.95 0 3.685 3.862 6.672 8.627 6.672 2.63 0 1.094-3.217 2.677-4.652 1.283-1.165 6.91-.585 6.91-2.235 0-.043-.005-.085-.007-.128-1.21-2.041-3.11-3.5-4.873-5.072z" fill="#ffc94f"/><path d="M91.541 73.765c-4.508 1.54-7.813 3.167-7.813 6.852 0 3.685 3.862 6.672 8.627 6.672 3.258 0-7.036-7.354-1.35-9.526 3.901-1.49 5.796.031 9.976 2.854 3.054 2.063-1.39-9.603-9.44-6.852z" fill="#f9b623"/><path d="M85.516 65.94c6.069.286 11.135-2.578 11.315-6.396.18-3.819-4.593-7.147-10.663-7.433-6.069-.287-2.2 2.002-2.38 5.82-.18 3.82-4.341 7.722 1.728 8.008z" fill="#ffc94f"/><path d="M85.517 65.94c-.987-.046-1.705-.187-2.212-.413-2.607-1.143.332-4.397.48-7.596.154-3.18-2.506-5.3.11-5.752.525-.089 1.263-.116 2.274-.067-.42.014-.838.017-1.25.059a3.137 3.137 0 00-.608.094c-.187.046-.402.12-.448.243-.054.109.03.292.146.449.105.16.246.313.386.465l.872.9c.583.602 1.14 1.262 1.547 2.037.403.765.61 1.718.381 2.596-.21.867-.675 1.621-1.174 2.308-.513.68-1.074 1.31-1.625 1.927-.279.312-.55.624-.779.956-.225.322-.444.718-.302 1.024.058.151.22.274.397.358.174.094.373.155.574.206.396.101.815.148 1.23.206z" fill="#f9b623"/><path d="M85.517 65.94c-.421 0-.842-.001-1.262-.077a2.646 2.646 0 01-.623-.161 1.173 1.173 0 01-.327-.175.797.797 0 01-.211-.247c-.126-.228-.102-.496-.034-.709.075-.213.172-.412.287-.594.228-.368.488-.705.748-1.035.518-.662 1.068-1.287 1.539-1.959.474-.668.893-1.381 1.068-2.144.208-.76.039-1.553-.316-2.266-.345-.724-.876-1.36-1.41-1.992l-.824-.951a4.23 4.23 0 01-.384-.52 1.425 1.425 0 01-.15-.312c-.028-.117-.058-.276.027-.404a.63.63 0 01.25-.215c.123-.058.261-.073.378-.102.213-.035.427-.042.641-.042.421-.007.84.033 1.255.077-.42.014-.838.017-1.25.059a3.137 3.137 0 00-.608.094c-.187.046-.402.12-.448.243-.054.109.03.292.146.449.105.16.246.313.386.465l.872.9c.583.602 1.14 1.262 1.547 2.037.403.765.61 1.718.381 2.596-.21.867-.675 1.621-1.174 2.308-.513.68-1.074 1.31-1.625 1.927-.279.312-.55.624-.779.956-.225.322-.444.718-.302 1.024.058.151.22.274.397.358.174.094.373.155.574.206.396.101.815.148 1.23.206z" fill="#f7c663"/></svg>
