<svg height="511pt" viewBox="-4 0 511 511.893" width="511pt" xmlns="http://www.w3.org/2000/svg" id="svg-icon"><path d="M503.77 320.977a73.414 73.414 0 00-23.258-57.274 98.65 98.65 0 00-63.61-21.172h-.867a9.33 9.33 0 00.953-3.992c0-21.61-81.57-39.05-182.238-39.05-100.664 0-182.234 17.44-182.234 39.05a214.955 214.955 0 0059.097 150.3C44.88 397.259.445 412.27.445 429.454c0 45.559 104.918 82.442 234.305 82.442 129.39 0 234.309-36.883 234.309-82.442 0-12.582-23.954-24.039-63.004-32.543 52.156-13.797 97.715-36.969 97.715-75.933zm-38.098 6.336c-6.336 13.015-21.172 19.785-33.93 24.82a333.423 333.423 0 01-56.148 15.879 214.219 214.219 0 0038.011-90.684 64.788 64.788 0 0147.293 16.14 29.993 29.993 0 014.774 33.844zm0 0" fill="#e4c05c"/><path d="M416.902 242.531a217.94 217.94 0 01-3.297 34.797 214.219 214.219 0 01-38.011 90.684 189.337 189.337 0 01-42.867 42.437 172.029 172.029 0 01-33.239 18.742 164.456 164.456 0 01-129.472 0 178.102 178.102 0 01-58.403-40.351 214.955 214.955 0 01-59.097-150.3c0 8.589 12.93 16.573 34.882 22.995 33.067 9.719 86.782 16.055 147.352 16.055 60.574 0 114.29-6.336 147.355-16.055 18.48-5.383 30.633-11.976 33.93-19.004zm0 0" fill="#f5efca"/><path d="M503.77 320.977c0 38.964-45.56 62.136-97.715 75.933h-.172a575.479 575.479 0 01-73.156 13.54 189.337 189.337 0 0042.867-42.438 333.423 333.423 0 0056.148-15.88c12.758-5.034 27.594-11.804 33.93-24.82a29.993 29.993 0 00-4.774-33.843 64.788 64.788 0 00-47.293-16.14 217.94 217.94 0 003.297-34.798 98.65 98.65 0 0163.61 21.172 73.414 73.414 0 0123.258 57.274zm0 0" fill="#f9eab0"/><path d="M382.277 260.23a6.982 6.982 0 01-.172 1.305c-33.066 9.719-86.78 16.055-147.355 16.055-60.57 0-114.285-6.336-147.352-16.055a6.982 6.982 0 01-.171-1.305c0-14.402 66.039-26.03 147.523-26.03 81.488 0 147.527 11.628 147.527 26.03zm0 0" fill="#af8066"/><path d="M469.059 429.453c0 45.559-104.918 82.442-234.309 82.442-129.387 0-234.305-36.883-234.305-82.442 0 25.078 94.938 45.645 215.649 47.469 2.082 0 4.164.086 6.25.086 2.082 0 4.078.086 6.16.086s4.164.086 6.246.086c2.086 0 4.168 0 6.25-.086s4.078 0 6.16-.086 4.168-.086 6.25-.086c120.711-1.824 215.649-22.39 215.649-47.469zm0 0" fill="#b19046"/><path d="M356.242 451.148c0 13.016-44.605 23.778-102.832 25.774-2.082 0-4.168.086-6.25.086s-4.078.086-6.16.086-4.164.086-6.25.086c-2.082 0-4.164 0-6.246-.086-2.082-.086-4.078 0-6.16-.086-2.086-.086-4.168-.086-6.25-.086-58.23-1.996-102.832-12.758-102.832-25.774 0-9.285 22.648-17.445 56.754-21.957a164.456 164.456 0 00129.472 0c34.106 4.512 56.754 12.672 56.754 21.957zm0 0" fill="#7f6e5d"/><path d="M104.582 303.621a8.596 8.596 0 01-6.16 8.246 8.123 8.123 0 01-2.516.434 8.68 8.68 0 01-8.68-8.68c0-4.793 3.887-8.676 8.68-8.676a8.676 8.676 0 018.676 8.676zm0 0M156.648 390.402a8.654 8.654 0 01-4.804-1.457A167.12 167.12 0 01101.91 338.5a8.685 8.685 0 1114.75-9.172 149.932 149.932 0 0044.832 45.176 8.681 8.681 0 013.488 9.75 8.683 8.683 0 01-8.332 6.148zm0 0" fill="#fff"/><g fill="#95a5a5"><path d="M191.363 173.453a8.684 8.684 0 01-8.023-5.305 8.682 8.682 0 011.8-9.449 30.12 30.12 0 006.223-19.957 30.109 30.109 0 00-6.23-19.96 46.049 46.049 0 01-11.125-32.11 46.078 46.078 0 0111.219-32.168 8.676 8.676 0 0114.636 3.832 8.676 8.676 0 01-2.367 8.437 30.175 30.175 0 00-6.133 19.899 30.109 30.109 0 006.23 19.96 46.067 46.067 0 0111.126 32.11 46.081 46.081 0 01-11.223 32.168 8.662 8.662 0 01-6.133 2.543zm0 0M243.43 121.387a8.676 8.676 0 01-8.02-5.309 8.676 8.676 0 011.797-9.445 30.13 30.13 0 006.223-19.961 30.098 30.098 0 00-6.23-19.957 46.067 46.067 0 01-11.126-32.11 46.078 46.078 0 0111.219-32.167 8.681 8.681 0 0112.168.105 8.676 8.676 0 01.105 12.164 30.171 30.171 0 00-6.136 19.898 30.109 30.109 0 006.23 19.961 46.058 46.058 0 0111.125 32.106 46.088 46.088 0 01-11.219 32.172 8.71 8.71 0 01-6.136 2.543zm0 0M295.496 173.453a8.683 8.683 0 01-8.02-5.305 8.682 8.682 0 011.801-9.449 30.137 30.137 0 006.22-19.957 30.109 30.109 0 00-6.231-19.96 46.067 46.067 0 01-11.125-32.11 46.1 46.1 0 0111.222-32.168 8.673 8.673 0 018.438-2.367 8.676 8.676 0 013.832 14.637 30.2 30.2 0 00-6.137 19.898 30.109 30.109 0 006.23 19.96 46.049 46.049 0 0111.126 32.11 46.078 46.078 0 01-11.22 32.168 8.671 8.671 0 01-6.136 2.543zm0 0"/></g></svg>
