<svg viewBox="0 0 12 12" xmlns="http://www.w3.org/2000/svg" id="svg-icon">
  <path d="M2.19691 3.14768C1.93436 2.88514 1.93436 2.45946 2.19691 2.19691C2.45946 1.93436 2.88513 1.93436 3.14768 2.19691L9.80309 8.85232C10.0656 9.11486 10.0656 9.54054 9.80309 9.80309C9.54054 10.0656 9.11486 10.0656 8.85232 9.80309L2.19691 3.14768Z" />
  <path d="M8.85232 2.19691C9.11486 1.93436 9.54054 1.93436 9.80309 2.19691C10.0656 2.45946 10.0656 2.88513 9.80309 3.14768L3.14768 9.80309C2.88513 10.0656 2.45946 10.0656 2.19691 9.80309C1.93436 9.54054 1.93436 9.11486 2.19691 8.85232L8.85232 2.19691Z" />
</svg>
