<svg viewBox="0 0 512 512" height="512" width="512" xmlns="http://www.w3.org/2000/svg" id="svg-icon"><path d="M422.504 114.472H89.496c-5.747 0-10.407-4.659-10.407-10.407V74.927c0-5.747 4.659-10.407 10.407-10.407h333.008c5.747 0 10.407 4.659 10.407 10.407v29.138c0 5.747-4.66 10.407-10.407 10.407z" fill="#665e66"/><path d="M401.691 64.52v49.951h20.813c5.747 0 10.407-4.659 10.407-10.407V74.927c0-5.747-4.659-10.407-10.407-10.407z" fill="#544f57"/><path d="M99.902 114.472l20.302 387.765A10.302 10.302 0 00130.492 512h251.016c5.48 0 10.001-4.29 10.288-9.763l20.302-387.765z" fill="#f6f9f9"/><path d="M382.959 114.472L362.146 512h19.362c5.48 0 10.001-4.29 10.288-9.763l20.302-387.765z" fill="#f1f4f6"/><path d="M310.519 3.432L256 27.057H120.715c-5.747 0-10.407 4.659-10.407 10.407V64.52H401.69V10.407C401.691 4.659 397.032 0 391.285 0H327.07a41.629 41.629 0 00-16.551 3.432z" fill="#665e66"/><path d="M110.309 43.707h291.382V64.52H110.309z" fill="#544f57"/><path d="M88.186 202.501l13.127 187.526a10.302 10.302 0 0010.277 9.582h288.82c5.41 0 9.899-4.185 10.277-9.582l13.127-187.526c.417-5.958-4.304-11.021-10.277-11.021H98.463c-5.973 0-10.694 5.063-10.277 11.021z" fill="#f1d0a5"/><path d="M387.122 191.48l-9.366 208.13h22.654c5.41 0 9.899-4.185 10.277-9.582l13.127-187.526c.417-5.958-4.304-11.021-10.277-11.021h-26.415z" fill="#f1b986"/><path d="M300.151 310.262c16.256-16.256 16.256-42.612 0-58.868s-42.612-16.256-58.868 0l-29.434 29.434c-16.256 16.256-16.256 42.612 0 58.868s42.612 16.256 58.868 0l29.434-29.434z" fill="#b78b7a"/><path d="M287.705 280.284c3.835-6.624 7.476-12.895 17.398-22.907a41.766 41.766 0 00-4.953-5.983 41.836 41.836 0 00-5.973-4.946c-11.36 11.454-15.681 18.899-19.846 26.093-3.902 6.739-7.588 13.106-17.91 23.428-10.322 10.323-16.689 14.009-23.428 17.91-7.194 4.165-14.639 8.486-26.091 19.844a41.769 41.769 0 004.946 5.973 41.77 41.77 0 005.983 4.952c10.011-9.92 16.282-13.561 22.905-17.396 7.305-4.229 14.858-8.602 26.612-20.356 11.755-11.754 16.128-19.307 20.357-26.612z" fill="#aa7a63"/><path d="M381.919 345.938h-12.487a7.726 7.726 0 110-15.452h12.487a7.726 7.726 0 110 15.452zM381.919 379.238h-22.894a7.726 7.726 0 110-15.452h22.894a7.726 7.726 0 110 15.452zM142.569 345.938h-12.487a7.726 7.726 0 110-15.452h12.487a7.726 7.726 0 110 15.452zM152.976 379.238h-22.894a7.726 7.726 0 110-15.452h22.894a7.726 7.726 0 110 15.452z" fill="#b78b7a"/></svg>
