<?xml version="1.0" encoding="iso-8859-1"?>
<svg version="1.1" xmlns="http://www.w3.org/2000/svg"
	 viewBox="0 0 479.352 479.352">
<path style="fill:#BFE1ED;" d="M295.662,279.352h160L440.886,456.68c-0.691,8.293-7.623,14.672-15.944,14.672h-98.56
	c-8.321,0-15.253-6.379-15.944-14.672L295.662,279.352z"/>
<path style="fill:#D1EEF6;" d="M95.662,87.352v-40h96v40c45.799,40.709,72.002,99.06,72,160.336v175.664c0,26.51-21.49,48-48,48l0,0
	h-144c-26.51,0-48-21.49-48-48l0,0V247.688C23.66,186.412,49.863,128.061,95.662,87.352z"/>
<path style="fill:#F2F2F2;" d="M143.342,175.168c-31.866-18.136-70.259-20.76-104.296-7.128
	c-10.15,25.328-15.371,52.362-15.384,79.648v175.664c0,26.51,21.49,48,48,48l0,0h144c26.51,0,48-21.49,48-48l0,0V247.688
	c-0.007-22.952-3.696-45.753-10.928-67.536C217.582,196.136,176.895,194.283,143.342,175.168z"/>
<path style="fill:#BFE1ED;" d="M95.662,8h96c13.255,0,24,10.745,24,24l0,0c0,13.255-10.745,24-24,24h-96c-13.255,0-24-10.745-24-24
	l0,0C71.662,18.745,82.407,8,95.662,8z"/>
<path style="fill:#F2F2F2;" d="M310.438,456.68c0.691,8.293,7.623,14.672,15.944,14.672h98.56c8.321,0,15.253-6.379,15.944-14.672
	l10.776-129.328h-152L310.438,456.68z"/>
<path d="M326.382,479.352h98.56c12.457-0.063,22.818-9.599,23.912-22.008l14.808-177.328c0.367-4.403-2.905-8.27-7.308-8.636
	c-0.23-0.019-0.461-0.028-0.692-0.028h-160c-4.418-0.015-8.012,3.554-8.028,7.972c-0.001,0.231,0.008,0.462,0.028,0.692
	l14.784,177.328C303.541,469.762,313.916,479.301,326.382,479.352z M432.91,456.016c-0.368,4.146-3.837,7.327-8,7.336h-98.528
	c-4.163-0.009-7.632-3.19-8-7.336l-10.024-120.664h134.608L432.91,456.016z M446.966,287.352l-2.664,32h-137.28l-2.664-32H446.966z"
	/>
<path d="M71.662,479.352h144c30.913-0.035,55.965-25.087,56-56V247.688c-0.021-62.295-26.134-121.734-72-163.888V62.864
	c17.081-4.396,27.364-21.807,22.968-38.888C218.994,9.849,206.249-0.018,191.662,0h-96C78.024-0.022,63.708,14.258,63.686,31.896
	c-0.018,14.587,9.849,27.332,23.976,30.968V83.8c-45.866,42.154-71.979,101.593-72,163.888v175.664
	C15.697,454.265,40.749,479.317,71.662,479.352z M79.662,32c0-8.837,7.163-16,16-16h96c8.833,0.25,15.791,7.614,15.54,16.447
	c-0.217,7.666-5.844,14.1-13.412,15.337c-0.685-0.245-1.402-0.39-2.128-0.432h-96c-0.726,0.042-1.443,0.187-2.128,0.432
	C85.619,46.722,79.699,39.986,79.662,32z M100.982,93.336c1.707-1.52,2.683-3.698,2.68-5.984V64h80v23.352
	c-0.003,2.286,0.973,4.464,2.68,5.984c25.223,22.45,44.556,50.743,56.304,82.4c-31.306,11.826-66.255,9.078-95.328-7.496
	c-28.351-16.242-61.847-21.003-93.6-13.304C65.431,131.596,81.47,110.692,100.982,93.336z M31.662,247.688
	c0.017-25.138,4.626-50.062,13.6-73.544c31.019-11.358,65.471-8.43,94.128,8c32.98,18.901,72.663,22.141,108.272,8.84
	c5.294,18.437,7.987,37.522,8,56.704v175.664c-0.026,22.08-17.92,39.974-40,40h-144c-22.08-0.026-39.974-17.92-40-40V247.688z"/>
<path d="M231.662,295.352c-4.418,0-8-3.582-8-8v-8c0-4.418,3.582-8,8-8s8,3.582,8,8v8
	C239.662,291.77,236.08,295.352,231.662,295.352z"/>
<path d="M231.662,383.352c-4.418,0-8-3.582-8-8v-56c0-4.418,3.582-8,8-8s8,3.582,8,8v56
	C239.662,379.77,236.08,383.352,231.662,383.352z"/>
</svg>
