<svg viewBox="0 0 64 64" xmlns="http://www.w3.org/2000/svg"><path d="m60.005 53.005v4c0 3.3-2.7 6-6 6h-44.01c-3.3 0-6-2.7-6-6v-4c0 3.3 2.7 6 6 6h44.01c3.3 0 6-2.7 6-6z" fill="#656d78"/><path d="m55.995 41.005c0 6.08-4.92 11-11 11-6.07 0-11-4.92-11-11s4.93-11 11-11c6.08 0 11 4.92 11 11z" fill="#965353"/><path d="m44.995 27.005c6.08 0 11-4.93 11-11v3c0 6.07-4.92 11-11 11-6.07 0-11-4.93-11-11v-3c0 6.07 4.93 11 11 11z" fill="#844747"/><path d="m44.995 52.005c6.08 0 11-4.92 11-11v3c0 6.07-4.92 11-11 11-6.07 0-11-4.93-11-11v-3c0 6.08 4.93 11 11 11z" fill="#844747"/><path d="m7.985 44.005c0 6.07 4.93 11 11 11 6.08 0 11-4.93 11-11v-3c0-6.08-4.92-11-11-11 6.08 0 11-4.93 11-11v-3c0-6.08-4.92-11-11-11-6.07 0-11 4.92-11 11v3c0 6.07 4.93 11 11 11-6.07 0-11 4.92-11 11zm26.01 0c0 6.07 4.93 11 11 11 6.08 0 11-4.93 11-11v-3c0-6.08-4.92-11-11-11 6.08 0 11-4.93 11-11v-3c0-6.08-4.92-11-11-11-6.07 0-11 4.92-11 11v3c0 6.07 4.93 11 11 11-6.07 0-11 4.92-11 11zm26.01-33v42c0 3.3-2.7 6-6 6h-44.01c-3.3 0-6-2.7-6-6v-42-4.01c0-3.29 2.7-6 6-6h44.01c3.3 0 6 2.71 6 6z" fill="#545c66"/><path d="m29.985 41.005c0 6.08-4.92 11-11 11-6.07 0-11-4.92-11-11s4.93-11 11-11c6.08 0 11 4.92 11 11z" fill="#965353"/><path d="m18.985 52.005c6.08 0 11-4.92 11-11v3c0 6.07-4.92 11-11 11-6.07 0-11-4.93-11-11v-3c0 6.08 4.93 11 11 11z" fill="#844747"/><path d="m29.985 19.005c0 6.07-4.92 11-11 11-6.07 0-11-4.93-11-11v-3c0 6.07 4.93 11 11 11 6.08 0 11-4.93 11-11z" fill="#844747"/><path d="m55.995 16.005c0 6.07-4.92 11-11 11-6.07 0-11-4.93-11-11 0-6.08 4.93-11 11-11 6.08 0 11 4.92 11 11z" fill="#965353"/><path d="m29.985 16.005c0 6.07-4.92 11-11 11-6.07 0-11-4.93-11-11 0-6.08 4.93-11 11-11 6.08 0 11 4.92 11 11z" fill="#965353"/><path d="m54.002 59.999h-44.004c-3.859 0-7-3.141-7-7v-46.004c0-3.86 3.141-7 7-7h44.004c3.859 0 7 3.14 7 7v46.004c0 3.859-3.141 7-7 7zm-44.004-58.004c-2.757 0-5 2.243-5 5v46.004c0 2.757 2.243 5 5 5h44.004c2.757 0 5-2.243 5-5v-46.004c0-2.757-2.243-5-5-5z"/><path d="m54.002 64.005h-44.004c-3.859 0-7-3.141-7-7v-46.004c0-.552.447-1 1-1s1 .448 1 1v46.004c0 2.757 2.243 5 5 5h44.004c2.757 0 5-2.243 5-5v-46.004c0-.552.447-1 1-1s1 .448 1 1v46.004c0 3.859-3.141 7-7 7z"/><path d="m18.987 28c-6.617 0-12-5.383-12-12s5.383-12 12-12 12 5.383 12 12-5.383 12-12 12zm0-22c-5.514 0-10 4.486-10 10s4.486 10 10 10 10-4.486 10-10-4.486-10-10-10z"/><path d="m18.987 31c-6.617 0-12-5.384-12-12.001 0-.552.447-1 1-1s1 .448 1 1c0 5.515 4.486 10.001 10 10.001s10-4.486 10-10.001c0-.552.447-1 1-1s1 .448 1 1c0 6.617-5.383 12.001-12 12.001z"/><path d="m7.987 19.999c-.553 0-1-.448-1-1v-2.999c0-.552.447-1 1-1s1 .448 1 1v2.999c0 .552-.447 1-1 1z"/><path d="m29.987 19.999c-.553 0-1-.448-1-1v-2.999c0-.552.447-1 1-1s1 .448 1 1v2.999c0 .552-.447 1-1 1z"/><path d="m19.018 17c-.553 0-1.005-.448-1.005-1s.442-1 .994-1h.011c.552 0 1 .448 1 1s-.449 1-1 1z"/><path d="m15.014 21.004c-.553 0-1.005-.448-1.005-1s.442-1 .994-1h.011c.552 0 1 .448 1 1s-.449 1-1 1z"/><path d="m23.021 21.004c-.553 0-1.005-.448-1.005-1s.442-1 .994-1h.011c.552 0 1 .448 1 1s-.448 1-1 1z"/><path d="m23.021 12.996c-.553 0-1.005-.448-1.005-1s.442-1 .994-1h.011c.552 0 1 .448 1 1s-.448 1-1 1z"/><path d="m15.014 12.996c-.553 0-1.005-.448-1.005-1s.442-1 .994-1h.011c.552 0 1 .448 1 1s-.449 1-1 1z"/><path d="m18.987 53c-6.617 0-12-5.383-12-12s5.383-12 12-12 12 5.383 12 12-5.383 12-12 12zm0-22c-5.514 0-10 4.486-10 10s4.486 10 10 10 10-4.486 10-10-4.486-10-10-10z"/><path d="m18.987 56c-6.617 0-12-5.383-12-12 0-.553.447-1 1-1s1 .447 1 1c0 5.514 4.486 10 10 10s10-4.486 10-10c0-.553.447-1 1-1s1 .447 1 1c0 6.617-5.383 12-12 12z"/><path d="m7.987 45c-.553 0-1-.447-1-1v-3c0-.553.447-1 1-1s1 .447 1 1v3c0 .553-.447 1-1 1z"/><path d="m29.987 45c-.553 0-1-.447-1-1v-3c0-.553.447-1 1-1s1 .447 1 1v3c0 .553-.447 1-1 1z"/><path d="m19.018 42c-.553 0-1.005-.447-1.005-1s.442-1 .994-1h.011c.552 0 1 .447 1 1s-.449 1-1 1z"/><path d="m15.014 46.004c-.553 0-1.005-.447-1.005-1s.442-1 .994-1h.011c.552 0 1 .447 1 1s-.449 1-1 1z"/><path d="m23.021 46.004c-.553 0-1.005-.447-1.005-1s.442-1 .994-1h.011c.552 0 1 .447 1 1s-.448 1-1 1z"/><path d="m23.021 37.997c-.553 0-1.005-.447-1.005-1s.442-1 .994-1h.011c.552 0 1 .447 1 1s-.448 1-1 1z"/><path d="m15.014 37.997c-.553 0-1.005-.447-1.005-1s.442-1 .994-1h.011c.552 0 1 .447 1 1s-.449 1-1 1z"/><path d="m44.999 28c-6.617 0-12-5.383-12-12s5.383-12 12-12 12 5.383 12 12-5.383 12-12 12zm0-22c-5.514 0-10 4.486-10 10s4.486 10 10 10 10-4.486 10-10-4.486-10-10-10z"/><path d="m44.999 31c-6.617 0-12-5.384-12-12.001 0-.552.447-1 1-1s1 .448 1 1c0 5.515 4.486 10.001 10 10.001s10-4.486 10-10.001c0-.552.447-1 1-1s1 .448 1 1c0 6.617-5.383 12.001-12 12.001z"/><path d="m33.999 19.999c-.553 0-1-.448-1-1v-2.999c0-.552.447-1 1-1s1 .448 1 1v2.999c0 .552-.447 1-1 1z"/><path d="m55.999 19.999c-.553 0-1-.448-1-1v-2.999c0-.552.447-1 1-1s1 .448 1 1v2.999c0 .552-.447 1-1 1z"/><path d="m45.029 17c-.553 0-1.005-.448-1.005-1s.442-1 .994-1h.011c.552 0 1 .448 1 1s-.448 1-1 1z"/><path d="m41.025 21.004c-.553 0-1.005-.448-1.005-1s.442-1 .994-1h.011c.552 0 1 .448 1 1s-.448 1-1 1z"/><path d="m49.033 21.004c-.553 0-1.005-.448-1.005-1s.442-1 .994-1h.011c.552 0 1 .448 1 1s-.448 1-1 1z"/><path d="m49.033 12.996c-.553 0-1.005-.448-1.005-1s.442-1 .994-1h.011c.552 0 1 .448 1 1s-.448 1-1 1z"/><path d="m41.025 12.996c-.553 0-1.005-.448-1.005-1s.442-1 .994-1h.011c.552 0 1 .448 1 1s-.448 1-1 1z"/><path d="m44.999 53c-6.617 0-12-5.383-12-12s5.383-12 12-12 12 5.383 12 12-5.383 12-12 12zm0-22c-5.514 0-10 4.486-10 10s4.486 10 10 10 10-4.486 10-10-4.486-10-10-10z"/><path d="m44.999 56c-6.617 0-12-5.383-12-12 0-.553.447-1 1-1s1 .447 1 1c0 5.514 4.486 10 10 10s10-4.486 10-10c0-.553.447-1 1-1s1 .447 1 1c0 6.617-5.383 12-12 12z"/><path d="m33.999 45c-.553 0-1-.447-1-1v-3c0-.553.447-1 1-1s1 .447 1 1v3c0 .553-.447 1-1 1z"/><path d="m55.999 45c-.553 0-1-.447-1-1v-3c0-.553.447-1 1-1s1 .447 1 1v3c0 .553-.447 1-1 1z"/><path d="m45.029 42c-.553 0-1.005-.447-1.005-1s.442-1 .994-1h.011c.552 0 1 .447 1 1s-.448 1-1 1z"/><path d="m41.025 46.004c-.553 0-1.005-.447-1.005-1s.442-1 .994-1h.011c.552 0 1 .447 1 1s-.448 1-1 1z"/><path d="m49.033 46.004c-.553 0-1.005-.447-1.005-1s.442-1 .994-1h.011c.552 0 1 .447 1 1s-.448 1-1 1z"/><path d="m49.033 37.997c-.553 0-1.005-.447-1.005-1s.442-1 .994-1h.011c.552 0 1 .447 1 1s-.448 1-1 1z"/><path d="m41.025 37.997c-.553 0-1.005-.447-1.005-1s.442-1 .994-1h.011c.552 0 1 .447 1 1s-.448 1-1 1z"/></svg>