<svg xmlns="http://www.w3.org/2000/svg" viewBox="0 0 512 512" id="svg-icon"><path d="M425.337 316.903H86.665c-26.392 0-47.787-21.395-47.787-47.787V47.787C38.878 21.395 60.273 0 86.665 0h338.671c26.392 0 47.787 21.395 47.787 47.787v221.329c.001 26.392-21.394 47.787-47.786 47.787z" fill="#ddeff5"/><g fill="#7397da"><circle cx="395.411" cy="93.84" r="50.01"/><path d="M38.878 181.195v87.921c0 26.392 21.395 47.787 47.787 47.787h338.671c26.392 0 47.787-21.395 47.787-47.787v-87.921H38.878z"/></g><path d="M421.152 316.903C231.318 300.239 176.872 130.58 222.202 0H86.665C60.273 0 38.878 21.395 38.878 47.787v221.329c0 26.392 21.395 47.787 47.787 47.787h334.487z" opacity=".15" fill="#003a63"/><path d="M289.803 253.331H104.899c-13.614 0-24.65-11.036-24.65-24.65V88.222c0-13.614 11.036-24.65 24.65-24.65h184.903c13.614 0 24.65 11.036 24.65 24.65v140.459c0 13.614-11.036 24.65-24.649 24.65z" fill="#495059"/><path d="M422.466 249.244h-54.11c-6.325 0-11.453-5.128-11.453-11.453V221.6c0-6.325 5.128-11.453 11.453-11.453h54.11c6.325 0 11.453 5.128 11.453 11.453v16.191c0 6.326-5.128 11.453-11.453 11.453z" fill="#8edbd6"/><path d="M393.752 132.48a7.5 7.5 0 01-7.058-10.036l7.576-21.099h-8.381a7.498 7.498 0 01-7.058-10.035l11.18-31.134a7.5 7.5 0 0114.117 5.069l-7.576 21.099h8.381a7.498 7.498 0 017.058 10.035l-11.18 31.134a7.502 7.502 0 01-7.059 4.967z" fill="#f9e78d"/><path d="M183.02 220.782a7.5 7.5 0 01-7.117-5.129l-26.096-78.29-11.18 24.23a7.5 7.5 0 01-6.81 4.358H80.25v-15h46.767l17.105-37.071a7.502 7.502 0 0113.926.77l25.807 77.423 27.209-64.245a7.5 7.5 0 0112.88-1.61l18.778 24.733h71.732v15h-75.455a7.499 7.499 0 01-5.973-2.965l-13.2-17.384-29.901 70.604a7.503 7.503 0 01-6.905 4.576z" fill="#fff"/><path d="M171.206 470.672h-5.925a7.5 7.5 0 010-15h5.925a4.264 4.264 0 004.259-4.259v-50.026a4.264 4.264 0 00-4.259-4.259h-35.503a7.5 7.5 0 010-15h35.503c10.62 0 19.259 8.64 19.259 19.259v50.026c0 10.62-8.638 19.259-19.259 19.259z" fill="#8edbd6"/><g fill="#495059"><path d="M184.144 507.472h-53.518a7.5 7.5 0 010-15h53.518c15.644 0 28.371-12.727 28.371-28.371V290.526a7.5 7.5 0 0115 0v173.575c0 23.915-19.456 43.371-43.371 43.371zM381.376 507.472h-53.518c-23.915 0-43.371-19.456-43.371-43.371V290.526a7.5 7.5 0 0115 0v173.575c0 15.644 12.727 28.371 28.371 28.371h53.518a7.5 7.5 0 010 15z"/></g><path d="M94.956 512h22.447c15.678 0 28.388-12.71 28.388-28.388V369.188c0-15.678-12.71-28.388-28.388-28.388H94.956c-6.539 0-11.84 5.301-11.84 11.84v147.52c0 6.539 5.301 11.84 11.84 11.84z" fill="#7397da"/><path d="M94.956 340.8h15.601V512H94.956c-6.539 0-11.84-5.301-11.84-11.84V352.64c0-6.539 5.301-11.84 11.84-11.84z" fill="#c7c9cc"/><path d="M340.795 470.672c-10.62 0-19.259-8.64-19.259-19.259v-50.026c0-10.62 8.64-19.259 19.259-19.259h35.503a7.5 7.5 0 010 15h-35.503a4.264 4.264 0 00-4.259 4.259v50.026a4.264 4.264 0 004.259 4.259 7.5 7.5 0 010 15z" fill="#8edbd6"/><path d="M417.046 512h-22.447c-15.678 0-28.388-12.71-28.388-28.388V369.188c0-15.678 12.71-28.388 28.388-28.388h22.447c6.539 0 11.84 5.301 11.84 11.84v147.52c0 6.539-5.301 11.84-11.84 11.84z" fill="#7397da"/><path d="M417.046 340.8h-15.601V512h15.601c6.539 0 11.84-5.301 11.84-11.84V352.64c0-6.539-5.301-11.84-11.84-11.84z" fill="#c7c9cc"/><g fill="#003a63"><path d="M145.79 449.78c-40.596-7.669-57.118-72.447-58.545-106.114a11.804 11.804 0 00-4.13 8.974v147.52c0 6.539 5.301 11.839 11.839 11.839h22.447c15.678 0 28.388-12.71 28.388-28.388l.001-33.831zM428.886 500.16v-32.316c-31.848-9.639-56.132-81.732-56.702-116.065a28.254 28.254 0 00-5.973 17.409v114.424c0 15.678 12.71 28.388 28.388 28.388h22.447c6.539 0 11.84-5.301 11.84-11.84z" opacity=".15"/></g><path d="M104.899 253.331h167.083c-50.46-49.522-70.179-120.758-63.604-189.758H104.899c-13.613 0-24.65 11.036-24.65 24.65v140.459c.001 13.613 11.037 24.649 24.65 24.649z" opacity=".1"/></svg>