<svg height="512pt" viewBox="0 -33 512 512" width="512pt" xmlns="http://www.w3.org/2000/svg" id="svg-icon"><path d="M512 123.922c-.04 9.879-3.121 19.707-9.152 27.816l-.149.203-211.972 275.387c-4.2 5.613-9.461 10.031-15.383 13.05a42.712 42.712 0 01-7.512 2.962A42.86 42.86 0 01256 445c-4.031 0-7.969-.559-11.742-1.64-9.02-2.57-17.063-8.11-22.985-16.032L9.153 151.738C3.12 143.628.05 133.801 0 123.922c-.059-8.262 2.012-16.55 6.254-23.883l40.195-77.89.223-.38C54.742 8.142 68.746 0 84.129 0h343.746c15.383 0 29.383 8.14 37.457 21.77l.418.761 39.988 77.508c4.242 7.332 6.313 15.621 6.262 23.883zm0 0" fill="#cef8ff"/><path d="M512 123.922c-.04 9.879-3.121 19.707-9.152 27.816l-.149.203-211.972 275.387c-4.2 5.613-9.461 10.031-15.383 13.05a42.712 42.712 0 01-7.512 2.962A42.86 42.86 0 01256 445V0h171.875c15.383 0 29.387 8.14 37.457 21.77l.418.761 39.988 77.508c4.242 7.332 6.313 15.621 6.262 23.883zm0 0" fill="#50e6ff"/><path d="M512 123.922H0c-.059-8.262 2.012-16.55 6.254-23.883l40.195-77.89.223-.38C54.742 8.142 68.746 0 84.129 0h343.746c15.383 0 29.383 8.14 37.457 21.77l.418.761 39.988 77.508c4.242 7.332 6.313 15.621 6.262 23.883zm0 0" fill="#62ebff"/><path d="M512 123.922H256V0h171.875c15.383 0 29.383 8.14 37.457 21.77l.418.761 39.988 77.508c4.242 7.332 6.313 15.621 6.262 23.883zm0 0" fill="#31caff"/><path d="M370.023 123.922L267.832 443.34A42.86 42.86 0 01256 445c-4.031 0-7.973-.559-11.742-1.64L142.98 123.921 256 0zm0 0" fill="#50e6ff"/><path d="M370.023 123.922L267.832 443.34A42.86 42.86 0 01256 445V0zm0 0" fill="#31caff"/><path d="M370.023 123.922H142.98L256 0zm0 0" fill="#cef8ff"/><path d="M370.023 123.922H256V0zm0 0" fill="#50e6ff"/></svg>
