<svg viewBox="0 0 512 512" height="512" width="512" xmlns="http://www.w3.org/2000/svg" id="svg-icon"><path d="M253.675 20.041c-68.38 0-208.559 88.41-219.955 108.749C12.585 166.514 0 211.574 0 256c0 68.38 26.629 132.667 74.981 181.019S187.62 512 256 512s132.667-26.629 181.019-74.981S512 324.38 512 256c0-47.632-12.921-93.278-37.105-132.936-10.534-17.274-152.84-103.023-221.22-103.023zM256 317.39c-33.851 0-61.39-27.54-61.39-61.39s27.539-61.39 61.39-61.39 61.39 27.54 61.39 61.39-27.539 61.39-61.39 61.39z" fill="#b1fff6"/><path d="M256 10c-.776 0-1.55.021-2.325.028v184.641c.773-.029 1.545-.059 2.325-.059 33.851 0 61.39 27.54 61.39 61.39s-27.539 61.39-61.39 61.39c-.78 0-1.552-.03-2.325-.059v194.641c.775.007 1.549.028 2.325.028 68.38 0 132.667-26.629 181.019-74.981S512 324.38 512 256c0-46.41-12.267-90.935-35.266-129.872a252.253 252.253 0 00-3.104-5.116C463.352 104.511 324.38 10 256 10z" fill="#75e2f8"/><path d="M473.63 121.02l-.005.005c-9.279 10.189-22.014 16.745-35.754 17.808-9.016.698-19.006-.407-30.061-3.303-19.39-5.07-39.33-14.82-58.62-24.24-17.27-8.44-33.58-16.42-45.93-19.14-27.57-6.1-38.81.79-59.2 13.28-14.34 8.78-32.18 19.71-59.9 28.53-21.24 6.76-42.88 9.13-62.81 9.13-45.71 0-82.41-12.49-84.59-13.25l-3.04-1.05c11.366-19.799 25.491-38.198 42.165-54.71C123.876 26.551 188.456 0 256 0c68.38 0 132.67 26.63 181.02 74.98 14.09 14.09 26.34 29.54 36.61 46.04z" fill="#ffd0f2"/><path d="M128 367c7.846 0 15.363-6.899 15-15-.364-8.127-6.591-15-15-15-7.846 0-15.363 6.899-15 15 .364 8.127 6.591 15 15 15z" fill="#ffa2e5"/><path d="M355 389c7.846 0 15.363-6.899 15-15-.364-8.127-6.591-15-15-15-7.846 0-15.363 6.899-15 15 .364 8.127 6.591 15 15 15zM391 190.875c7.846 0 15.363-6.899 15-15-.364-8.127-6.591-15-15-15-7.846 0-15.363 6.899-15 15 .364 8.127 6.591 15 15 15z" fill="#f979f3"/><path d="M437.02 74.98C388.67 26.63 324.38 0 256 0c-.776 0-1.55.021-2.325.028v99.623c15.007-8.654 26.645-12.577 49.585-7.501 12.35 2.72 28.66 10.7 45.93 19.14 19.29 9.42 39.23 19.17 58.62 24.24 11.056 2.896 21.045 4.001 30.061 3.303 13.74-1.063 26.475-7.619 35.754-17.808l.005-.005c-10.27-16.5-22.52-31.95-36.61-46.04z" fill="#ffa2e5"/><path d="M79.123 281.555l12.366-84.427 29.699 4.35-12.366 84.427zM210.77 392.527l22.35-20.04 56.967 63.533-22.35 20.04z" fill="#ffd0f2"/><g fill="#f979f3"><path d="M391.758 244.715l29.64-4.74 13.474 84.257-29.64 4.74zM253.675 395.597v44.934l13.782 15.367 22.334-20.03z"/></g></svg>
