<svg height="512pt" viewBox="-1 0 512 512" width="512pt" xmlns="http://www.w3.org/2000/svg" id="svg-icon"><path d="M435.371 75.746C387.082 26.902 323.023 0 255 0S122.918 26.902 74.629 75.746C26.504 124.426 0 188.796 0 257c0 68.113 26.523 132.148 74.688 180.313S186.887 512 255 512s132.148-26.523 180.313-74.688S510 325.113 510 257c0-68.203-26.504-132.574-74.629-181.254zM255 336c-44.184 0-80-35.816-80-80s35.816-80 80-80 80 35.816 80 80-35.816 80-80 80zm0 0" fill="#fbd898"/><path d="M510 257c0-68.203-26.504-132.574-74.629-181.254C387.082 26.902 323.023 0 255 0v176c44.184 0 80 35.816 80 80s-35.816 80-80 80v176c68.113 0 132.148-26.523 180.313-74.688S510 325.113 510 257zm0 0" fill="#fac86f"/><path d="M255 0C114.395 0 0 114.84 0 256c0 8.285 6.715 15 15 15h85v65c0 24.813 20.188 45 45 45s45-20.188 45-45v-33.39c-9.43-13.13-15-29.215-15-46.61 0-44.184 35.816-80 80-80s80 35.816 80 80c0 5.105-.496 10.09-1.41 14.93.465.043.933.07 1.41.07 13.785 0 25 11.215 25 25v48.305c0 24.898 18.715 45.382 42.602 46.632 6.027.317 11.91-.539 17.398-2.476V446c0 24.813 20.188 45 45 45s45-20.188 45-45V256C510 114.84 395.605 0 255 0zm0 0" fill="#ff82be"/><path d="M335 256c0 5.105-.496 10.09-1.41 14.93.465.043.933.07 1.41.07 13.785 0 25 11.215 25 25v48.305c0 24.898 18.715 45.382 42.602 46.632 6.027.317 11.91-.539 17.398-2.476V446c0 24.813 20.188 45 45 45s45-20.188 45-45V256C510 114.84 395.605 0 255 0v176c44.184 0 80 35.816 80 80zm0 0" fill="#f064b4"/><path d="M242 81c0 8.285-6.715 15-15 15s-15-6.715-15-15 6.715-15 15-15 15 6.715 15 15zm0 0" fill="#8ee4ed"/><path d="M312 116c0 8.285-6.715 15-15 15s-15-6.715-15-15 6.715-15 15-15 15 6.715 15 15zm0 0M457 276c0 8.285-6.715 15-15 15s-15-6.715-15-15 6.715-15 15-15 15 6.715 15 15zm0 0" fill="#fac814"/><path d="M407 206c0 8.285-6.715 15-15 15s-15-6.715-15-15 6.715-15 15-15 15 6.715 15 15zm0 0" fill="#825014"/><path d="M412 131c0 8.285-6.715 15-15 15s-15-6.715-15-15 6.715-15 15-15 15 6.715 15 15zm0 0" fill="#32d2e6"/><path d="M162 131c0 8.285-6.715 15-15 15s-15-6.715-15-15 6.715-15 15-15 15 6.715 15 15zm0 0" fill="#a06414"/><path d="M122 196c0 8.285-6.715 15-15 15s-15-6.715-15-15 6.715-15 15-15 15 6.715 15 15zm0 0" fill="#ffdc32"/></svg>
