<svg height="512pt" viewBox="0 0 512 512" width="512pt" xmlns="http://www.w3.org/2000/svg" id="svg-icon"><path d="M496.469 193.09c-1.14-4.34-6.418-5.88-9.801-2.93-15.438 13.488-37.277 18.969-58.34 12.57-19.988-6.07-34.598-21.39-40.598-39.84a5.952 5.952 0 00-5.69-4.1 61.342 61.342 0 01-18.032-2.65c-32.469-9.859-50.797-44.171-40.938-76.64a60.63 60.63 0 014.57-11.05 6.032 6.032 0 00-1.562-7.571c-12.707-10.238-19.918-26.18-18.93-42.75.18-3.04-1.878-5.758-4.867-6.32a250.012 250.012 0 00-46.16-4.309C168.59 7.46 91.328 53.129 47 121.86a241.924 241.924 0 00-12 20.761C17.43 176.648 7.5 215.211 7.5 256c0 137.238 111.262 248.5 248.5 248.5 98.781 0 183.86-57.102 223.937-140.34a241.061 241.061 0 004.954-10.93c12.379-29.23 19.328-61.37 19.597-95.18.18-22.46-2.62-44.241-8.02-64.96zM163.679 256c0-30.371 14.673-57.32 37.321-74.14 3.79-2.81 7.8-5.34 12-7.56 12.84-6.78 27.469-10.62 43-10.62 50.98 0 92.32 41.34 92.32 92.32 0 46.531-34.43 85.02-79.199 91.39-4.293.61-8.672.93-13.121.93-7.8 0-15.371-.972-22.602-2.789C193.34 335.45 163.68 299.18 163.68 256zm0 0" fill="#ffc843"/><path d="M504.488 258.05c-.238 30.079-5.77 58.84-15.71 85.41a237.45 237.45 0 01-3.887 9.77c-17-7.39-28.891-24.332-28.891-44.05v-50.422c0-8.418-3.422-16.04-8.941-21.559-5.52-5.52-13.141-8.941-21.559-8.941-16.84 0-30.5 13.66-30.5 30.5v4.562c0 25.13-10.18 47.88-26.652 64.348-16.47 16.473-39.22 26.652-64.348 26.652-12.36 0-24.14-2.46-34.879-6.93 44.77-6.37 79.2-44.859 79.2-91.39 0-50.98-41.34-92.32-92.321-92.32-15.531 0-30.16 3.84-43 10.62v-19.698c0-12.704-5.152-24.204-13.469-32.532-8.332-8.32-19.832-13.468-32.531-13.468-25.41 0-46 20.59-46 46v17.91c0 10.218-4.14 19.468-10.84 26.168-6.7 6.691-15.941 10.832-26.16 10.832-20.43 0-37-16.563-37-37v-50.653c3.77-5.84 7.77-11.507 12-17C104.531 45.7 176.031 7.461 256.121 7.5c15.77.012 31.2 1.488 46.16 4.309 2.989.562 5.047 3.28 4.867 6.32-.988 16.57 6.223 32.512 18.93 42.75a6.032 6.032 0 011.563 7.57 60.63 60.63 0 00-4.57 11.051c-9.86 32.469 8.468 66.781 40.937 76.64 6 1.82 12.07 2.669 18.031 2.65a5.952 5.952 0 015.691 4.1c6 18.45 20.61 33.77 40.598 39.84 21.063 6.399 42.902.918 58.34-12.57 3.383-2.95 8.66-1.41 9.8 2.93 5.4 20.719 8.2 42.5 8.02 64.96zm0 0" fill="#fff"/><path d="M504.488 258.05c-.238 30.079-5.77 58.84-15.71 85.41a586.928 586.928 0 00-9.739-8.32A36.014 36.014 0 01468 309.18v-50.422c0-11.34-4.422-22.008-12.45-30.047-8.042-8.031-18.71-12.45-30.05-12.45-23.43 0-42.5 19.067-42.5 42.497v4.562c0 21.11-8.223 40.95-23.14 55.86-12.079 12.09-27.4 19.78-44.012 22.261a104.913 104.913 0 0018.691-16.78A104.244 104.244 0 00360.32 256c0-57.52-46.8-104.32-104.32-104.32-10.52 0-21 1.61-31 4.71v-1.788c0-15.48-6.031-30.051-16.98-41.012-10.97-10.961-25.54-16.988-41.02-16.988-31.98 0-58 26.02-58 58v17.91c0 6.68-2.602 12.957-7.332 17.687A24.861 24.861 0 0184 197.512c-13.79 0-25-11.223-25-25v-67.653C104.531 45.7 176.031 7.461 256.121 7.5c15.77.012 31.2 1.488 46.16 4.309 2.989.562 5.047 3.28 4.867 6.32-.988 16.57 6.223 32.512 18.93 42.75a6.032 6.032 0 011.563 7.57 60.63 60.63 0 00-4.57 11.051c-9.86 32.469 8.468 66.781 40.937 76.64 6 1.82 12.07 2.669 18.031 2.65a5.952 5.952 0 015.691 4.1c6 18.45 20.61 33.77 40.598 39.84 21.063 6.399 42.902.918 58.34-12.57 3.383-2.95 8.66-1.41 9.8 2.93 5.4 20.719 8.2 42.5 8.02 64.96zm0 0" fill="#fff"/><path d="M335.828 196.07a7.505 7.505 0 00-10.504-1.488 7.498 7.498 0 00-1.484 10.504c11.11 14.773 16.98 32.379 16.98 50.914 0 46.77-38.05 84.82-84.82 84.82s-84.82-38.05-84.82-84.82 38.05-84.82 84.82-84.82c15.703 0 31.04 4.328 44.352 12.515a7.503 7.503 0 0010.32-2.46 7.502 7.502 0 00-2.461-10.317c-15.68-9.64-33.734-14.734-52.211-14.734-12.5 0-24.465 2.312-35.5 6.527l-14.969 7.2C176.027 187.272 156.18 219.358 156.18 256c0 55.04 44.777 99.82 99.82 99.82 4.797 0 9.516-.347 14.137-1.007l27.754-8.223c34.171-15.863 57.93-50.5 57.93-90.59 0-21.813-6.915-42.535-19.993-59.93zm0 0" fill="#474d54"/><path d="M418.363 190.172c-11.117-6.68-19.465-17.192-23.5-29.602-1.804-5.558-6.945-9.285-12.8-9.285-.07.004-.153 0-.231 0-5.3 0-10.566-.781-15.645-2.32-28.46-8.645-44.585-38.828-35.94-67.293a53.7 53.7 0 014.01-9.692c3.055-5.738 1.598-12.863-3.472-16.945-10.953-8.824-16.988-22.453-16.148-36.45.41-6.812-4.305-12.894-10.969-14.148A257.673 257.673 0 00256.125 0H256C187.855 0 123.64 26.672 75.187 75.098 26.703 123.563 0 187.805 0 256c0 29.77 5.07 58.941 15.07 86.707 9.66 26.824 23.684 51.723 41.68 74.008a7.484 7.484 0 005.84 2.789 7.47 7.47 0 004.707-1.668 7.497 7.497 0 001.121-10.547C33.973 364.637 15 310.906 15 256c0-37.242 8.48-73.223 24.5-105.793l14.96-26.117a244.914 244.914 0 0131.333-38.383C131.414 40.109 191.855 15 256 15h.117a243.017 243.017 0 0143.485 3.938c-.692 18.007 7.035 35.425 20.87 47.035a68.897 68.897 0 00-4.581 11.347c-11.043 36.371 9.566 74.95 45.941 85.996a68.766 68.766 0 0019.125 2.965c5.281 15.383 15.79 28.407 29.688 36.75a7.503 7.503 0 0010.289-2.57 7.495 7.495 0 00-2.57-10.29zm0 0M503.723 191.191c-1.188-4.539-4.567-8.074-9.047-9.453-4.524-1.39-9.364-.355-12.942 2.774-9.449 8.261-21.535 13.008-34.027 13.36-4.14.116-7.402 3.57-7.285 7.71s3.535 7.387 7.71 7.285c15.184-.43 29.891-5.93 41.677-15.543 4.933 19.723 7.347 40.117 7.183 60.664-.238 29.715-5.933 58.172-16.101 84.438l-5.942 14.047C436.676 439.273 352.723 497 256 497c-61.437 0-119.957-23.14-164.777-65.156a7.5 7.5 0 10-10.258 10.945C128.575 487.422 190.738 512 256 512c68.18 0 132.262-26.313 180.434-74.082 48.175-47.777 75.007-111.633 75.558-179.809.184-22.68-2.601-45.195-8.27-66.918zm0 0" fill="#474d54"/><g fill="#f7a500"><path d="M159.191 383.375h.036a7.5 7.5 0 00.035-15H159.12a7.5 7.5 0 00-.035 15zm0 0M203.016 381.512h.035a7.5 7.5 0 00.035-15h-.141a7.496 7.496 0 00-7.496 7.465c-.023 4.14 3.32 7.515 7.465 7.535zm0 0M385.07 400.5h.035a7.502 7.502 0 007.5-7.465 7.502 7.502 0 00-7.464-7.535H385a7.502 7.502 0 00-7.5 7.465 7.502 7.502 0 007.465 7.535zm0 0M281.766 467.594h.035a7.5 7.5 0 00.035-15H281.695a7.502 7.502 0 00-7.5 7.465c-.02 4.144 3.325 7.52 7.465 7.535zm0 0M125 250.492c4.14 0 7.5-3.36 7.5-7.5 0-4.14-3.36-7.5-7.5-7.5h-.105c-4.141 0-7.5 3.36-7.5 7.5 0 4.14 3.359 7.5 7.5 7.5zm0 0"/></g></svg>
