<svg height="512pt" viewBox="0 0 512 512" width="512pt" xmlns="http://www.w3.org/2000/svg" id="svg-icon"><path d="M256 0C114.613 0 0 114.613 0 256s114.613 256 256 256 256-114.613 256-256S397.387 0 256 0zm0 333.46c-42.781 0-77.46-34.679-77.46-77.46s34.679-77.46 77.46-77.46 77.46 34.679 77.46 77.46-34.679 77.46-77.46 77.46zm0 0" fill="#fef1da"/><path d="M256 0c-5.277 0-10.52.16-15.723.477C374.344 8.597 480.56 119.895 480.56 256S374.344 503.402 240.277 511.523c5.203.317 10.446.477 15.723.477 141.387 0 256-114.613 256-256S397.387 0 256 0zm0 0" fill="#fde6bf"/><path d="M256.496 0C117.106-.266 2.438 112.125.04 251.496c-.793 46.012 10.57 89.3 31.07 126.887 2.664 4.879 10.082 2.98 10.082-2.578 0-16.946 13.739-30.688 30.688-30.688 16.95 0 30.687 13.742 30.687 30.688v23.41c0 16.945 13.739 30.683 30.688 30.683 16.945 0 30.687-13.738 30.687-30.683v-4.852c0-16.949 13.739-30.687 30.688-30.687 16.945 0 30.684 13.738 30.684 30.687v45.614c0 16.949 13.742 30.687 30.687 30.687 16.95 0 30.688-13.738 30.688-30.687v-45.614c0-16.949 13.738-30.687 30.687-30.687s30.688 13.738 30.688 30.687v4.852c0 16.945 13.738 30.683 30.687 30.683 16.945 0 30.688-13.738 30.688-30.683v-23.41c0-16.946 13.738-30.688 30.683-30.688 16.95 0 30.688 13.742 30.688 30.688 0 5.543 7.414 7.472 10.07 2.605C500.715 342.047 512 300.344 512 256 512 114.781 397.652.27 256.496 0zM256 333.46c-42.781 0-77.46-34.679-77.46-77.46s34.679-77.46 77.46-77.46 77.46 34.679 77.46 77.46-34.679 77.46-77.46 77.46zm0 0" fill="#ff646f"/><path d="M256.496 0c-5.43-.008-10.824.152-16.176.477C374.363 8.62 480.56 119.91 480.56 256c0 34.559-6.848 67.52-19.262 97.598 5.86 5.59 9.512 13.472 9.512 22.21 0 5.544 7.41 7.47 10.066 2.602C500.715 342.047 512 300.344 512 256 512 114.781 397.652.27 256.496 0zm0 0" fill="#ff4755"/><g fill="#fdd79b"><path d="M279.71 48.797c0 13.094-10.616 23.707-23.71 23.707s-23.71-10.613-23.71-23.707c0-13.098 10.616-23.711 23.71-23.711s23.71 10.613 23.71 23.71zm0 0M389.969 167.379c0 11.016-8.93 19.945-19.946 19.945-11.015 0-19.945-8.93-19.945-19.945s8.93-19.945 19.945-19.945c11.016 0 19.946 8.93 19.946 19.945zm0 0M135.328 295.074c0 11.594-9.398 20.992-20.992 20.992-11.598 0-20.996-9.398-20.996-20.992 0-11.597 9.398-20.996 20.996-20.996 11.594 0 20.992 9.399 20.992 20.996zm0 0M170.234 156.016c0 25.367-20.562 45.93-45.93 45.93-25.363 0-45.925-20.563-45.925-45.93 0-25.364 20.562-45.926 45.926-45.926 25.367 0 45.93 20.562 45.93 45.926zm0 0M465.352 244.363c3.64 22.735 22.93 39.055 45.117 39.758A259.132 259.132 0 00512 256c0-22.672-2.96-44.652-8.496-65.586-25.2 4.61-42.227 28.527-38.152 53.95zm0 0"/></g><path d="M503.504 190.414c-11.254 2.059-20.875 7.965-27.719 16.14A257.1 257.1 0 01480.56 256c0 5.277-.16 10.523-.473 15.723 8.164 7.472 18.887 12.035 30.383 12.398h.004A259.135 259.135 0 00512 256c0-22.45-2.89-44.223-8.316-64.969-.067-.207-.125-.41-.18-.617zm0 0" fill="#ffba7e"/></svg>
