<svg height="512" viewBox="0 0 58 58" width="512" xmlns="http://www.w3.org/2000/svg" id="svg-icon"><g fill="none"><path d="M57.62 33.68C55.327 47.704 43.21 58 29 58S2.673 47.705.38 33.68A4 4 0 008 32v-2.5a3.5 3.5 0 017 0V39a4 4 0 004 4c2.21 0 4-3.07 4-5.28V33a8 8 0 0012 0v14a4 4 0 108 0V29.5a3.5 3.5 0 017 0V32a4 4 0 007.62 1.68z" fill="#fac176"/><path d="M57.62 33.68A4 4 0 0150 32v-2.5a3.5 3.5 0 00-7 0V47a4 4 0 11-8 0V29a6 6 0 10-12 0v10a4 4 0 11-8 0v-9.5a3.5 3.5 0 00-7 0V32a4 4 0 01-7.62 1.68 29 29 0 1157.24 0z" fill="#cc66a1"/><path d="M11 20a1 1 0 01-.71-1.71l1-1a1.004 1.004 0 111.42 1.42C11.65 19.77 11.52 20 11 20z" fill="#7ed09e"/><path d="M22 8a1 1 0 01-.71-1.71l1-1a1.004 1.004 0 011.42 1.42C22.65 7.77 22.52 8 22 8z" fill="#f29c1f"/><g fill="#f5efca"><path d="M10 14a1 1 0 01-.71-1.71l1-1a1.004 1.004 0 111.42 1.42C10.65 13.77 10.52 14 10 14zM21 20a1 1 0 01-.71-1.71l1-1a1.004 1.004 0 111.42 1.42C21.65 19.77 21.52 20 21 20zM28.5 6a1 1 0 01-.7-1.71l1-1a1 1 0 111.41 1.42C29.15 5.77 29 6 28.5 6z"/></g><path d="M19 25c-.53 0-.67-.26-1.71-1.29a1.004 1.004 0 111.42-1.42l1 1A1 1 0 0119 25z" fill="#f29c1f"/><path d="M19 13c-.53 0-.67-.26-1.71-1.29a1.004 1.004 0 111.42-1.42l1 1A1 1 0 0119 13z" fill="#7ed09e"/><path d="M6 25c-.53 0-.67-.26-1.71-1.29a1.004 1.004 0 011.42-1.42l1 1A1 1 0 016 25z" fill="#f5efca"/><path d="M47 20c-.53 0-.67-.26-1.71-1.29a1.004 1.004 0 111.42-1.42l1 1A1 1 0 0147 20zM36 8c-.53 0-.67-.26-1.71-1.29a1.004 1.004 0 011.42-1.42l1 1A1 1 0 0136 8z" fill="#7ed09e"/><path d="M48 14c-.53 0-.67-.26-1.71-1.29a1.004 1.004 0 011.42-1.42l1 1A1 1 0 0148 14zM37 20c-.53 0-.67-.26-1.71-1.29a1.004 1.004 0 111.42-1.42l1 1A1 1 0 0137 20z" fill="#f5efca"/><path d="M29 19c-.53 0-.67-.26-1.71-1.29a1.004 1.004 0 111.42-1.42l1 1A1 1 0 0129 19z" fill="#7ed09e"/><path d="M39 25a1 1 0 01-.71-1.71l1-1a1.004 1.004 0 011.42 1.42C39.65 24.77 39.52 25 39 25zM39 13a1 1 0 01-.71-1.71l1-1a1.004 1.004 0 011.42 1.42C39.65 12.77 39.52 13 39 13z" fill="#f29c1f"/><path d="M29 13a1 1 0 01-.71-1.71l1-1a1.004 1.004 0 111.42 1.42C29.65 12.77 29.52 13 29 13zM52 25a1 1 0 01-.71-1.71l1-1a1.004 1.004 0 011.42 1.42C52.65 24.77 52.52 25 52 25z" fill="#f5efca"/><path d="M29 21a8 8 0 00-6 13.28V29a6 6 0 0012 0v5.28A8 8 0 0029 21zm0 14a6 6 0 110-12 6 6 0 010 12z" fill="#804169"/><path d="M35 29v5.28a8 8 0 01-12 0V29a6 6 0 1012 0z" fill="#f18d46"/></g></svg>
