<svg xmlns="http://www.w3.org/2000/svg" id="svg-icon" width="512" height="512" viewBox="0 0 58 46"><g fill-rule="nonzero" fill="none"><path d="M47.65 10H56a2.015 2.015 0 002-2 2.006 2.006 0 00-2-2h-8.35" fill="#2C2F38"/><path d="M48 8a5.8 5.8 0 01-.35 2A5.981 5.981 0 0142 14l-2-6 2-6a5.981 5.981 0 015.65 4A5.8 5.8 0 0148 8z" fill="#95A5A5"/><path fill="#2C3E50" d="M32 2h10v12H32z"/><path d="M22 15v5a2.006 2.006 0 01-2 2h-2l-2-7h6z" fill="#802F34"/><path d="M18 15v14l-1 3c-2.21 0-6-1.79-6-4V15h7z" fill="#C03A2B"/><path d="M29 37v6a3 3 0 01-3 3H6a3 3 0 01-3-3v-5.29a2.94 2.94 0 01.32-1.34L6 31l7 1c.38.38 4.47-1 5-1l11 6z" fill="#35495E"/><path d="M29 37H12.83a2.006 2.006 0 01-1.42-.59L6 31V15h7v10a4 4 0 004 4h1a2.006 2.006 0 002 2h2.17c.533 0 1.044.213 1.42.59L29 37z" fill="#E64C3C"/><path d="M36 2v12a2.006 2.006 0 01-2 2H4a4 4 0 01-4-4V4a4 4 0 014-4h30a2.006 2.006 0 012 2z" fill="#35495E"/><path d="M36 3v2h-3a1 1 0 010-2h3zM36 7v2h-3a1 1 0 010-2h3zM36 13h-3a1 1 0 010-2h3v2z" fill="#95A5A5"/><path d="M9 5H5a1 1 0 110-2h4a1 1 0 110 2zM9 9H5a1 1 0 110-2h4a1 1 0 110 2z" fill="#2C2F38"/></g></svg>
