<svg viewBox="0 0 512 512" xmlns="http://www.w3.org/2000/svg"><g><path d="m439.558 49.191c0 27.168-22.024 49.191-49.191 49.191h-24.333c-8.534 0-15.453-6.918-15.453-15.453 0-8.534 6.918-15.453 15.453-15.453h24.333c10.099 0 18.286-8.187 18.286-18.286 0-10.099-8.187-18.286-18.286-18.286h-201.504v-30.904h201.503c27.168 0 49.192 22.024 49.192 49.191z" fill="#5297ba"/><path d="m0 4v22.905c0 2.209 1.791 4 4 4h102.449v-30.905h-102.449c-2.209 0-4 1.791-4 4z" fill="#5297ba"/><path d="m188.863 0v30.905h-25.754v52.025h-30.906v-52.025h-25.754v-30.905z" fill="#f3f3f3"/><path d="m132.203 82.93v425.07c0 2.209 1.791 4 4 4h22.905c2.209 0 4-1.791 4-4v-425.07z" fill="#5297ba"/><path d="m388.378 48.645c-4.142 0-7.5 3.358-7.5 7.5v101.007c0 4.142 3.358 7.5 7.5 7.5s7.5-3.358 7.5-7.5v-101.007c0-4.142-3.357-7.5-7.5-7.5z" fill="#e4e4e4"/><path d="m388.378 431.19c-4.142 0-7.5 3.358-7.5 7.5v65.81c0 4.142 3.358 7.5 7.5 7.5s7.5-3.358 7.5-7.5v-65.81c0-4.142-3.357-7.5-7.5-7.5z" fill="#5297ba"/><path d="m401.656 459.976h-26.556c-9.735 0-17.627-7.892-17.627-17.627v-38.682h61.811v38.682c0 9.735-7.892 17.627-17.628 17.627z" fill="#f3f3f3"/><path d="m388.378 403.667v38.682c0 8.997-6.746 16.406-15.453 17.48.714.088 1.437.148 2.175.148h26.556c9.735 0 17.627-7.892 17.627-17.627v-38.682h-30.905z" fill="#e4e4e4"/><path d="m495.244 424.95h-213.731c-9.254 0-16.756-7.502-16.756-16.756v-64.16l22.096-78.865-22.096-73.32v-46.835c0-9.254 7.502-16.756 16.756-16.756h213.731c9.254 0 16.756 7.502 16.756 16.756v263.18c0 9.254-7.502 16.756-16.756 16.756z" fill="#f75632"/><path d="m495.244 128.258h-30.905c9.254 0 16.756 7.502 16.756 16.756v263.18c0 9.254-7.502 16.756-16.756 16.756h30.905c9.254 0 16.756-7.502 16.756-16.756v-263.18c0-9.254-7.502-16.756-16.756-16.756z" fill="#e33629"/><path d="m438.381 344.034h-173.624v-152.185h173.625c7.37 0 13.345 5.975 13.345 13.345v125.494c0 7.371-5.975 13.346-13.346 13.346z" fill="#f3f3f3"/><path d="m438.381 191.849h-30.905c7.37 0 13.345 5.975 13.345 13.345v125.494c0 7.37-5.975 13.345-13.345 13.345h30.905c7.37 0 13.345-5.975 13.345-13.345v-125.494c.001-7.37-5.974-13.345-13.345-13.345z" fill="#e4e4e4"/><path d="m387.954 276.315c0 22.413-13.303 32.209-29.712 32.209-16.41 0-29.712-9.796-29.712-32.209s21.97-48.956 29.712-48.956 29.712 26.542 29.712 48.956z" fill="#f75632"/></g></svg>