<svg viewBox="0 0 512 512" xmlns="http://www.w3.org/2000/svg"><g><path d="m372.352 282-27.161 220h-178.382l-27.161-220z" fill="#ffe6b4"/><path d="m381 212-8.648 70h-232.704l-8.648-70z" fill="#faf7f5"/><path d="m360.125 381.1-14.933 120.9h-178.384l-14.933-120.9c4.394 34.83 32.942 60.9 66.74 60.9h74.769c33.799 0 62.347-26.07 66.741-60.9z" fill="#faf7f5"/><path d="m155.835 212s-26.303-71.004 35.059-102.333c53.209-27.167 37.769-99.667 37.769-99.667 31.912 0 50.143 71.667 71.436 81.667 43.503 20.431 74.428 55.333 56.471 120.333z" fill="#ffcd69"/><path d="m207.653 212s-10.358-32.212 30.508-46c17.783-6 21.307-41 21.307-41s61.984 29.5 42.13 87z" fill="#ff7b79"/><g><path d="m388.492 205.376c-1.898-2.147-4.626-3.376-7.492-3.376h-11.82c1.707-8.775 2.59-17.231 2.59-25.24 0-.61-.01-1.28-.02-2.04-.05-2.64-1.11-5.11-2.99-6.95-1.93-1.89-4.5-2.93-7.19-2.86-5.51.1-9.92 4.66-9.82 10.18.01.59.02 1.14.02 1.67 0 7.87-1.01 16.36-3 25.24h-34.304c3.79-22.287-2.662-43.409-19.032-61.726-14.192-15.881-30.962-23.967-31.669-24.303-2.932-1.397-6.361-1.273-9.194.317s-4.716 4.465-5.051 7.696c-1.197 11.546-6.65 29.874-14.556 32.541-25.354 8.555-34.15 23.837-37.065 35.151-.955 3.706-1.337 7.206-1.402 10.324h-33.187c-1.42-5.7-3.1-14.57-3.08-24.5 0-11.87 2.31-22.5 6.88-31.58 5.9-11.64 15.16-20.58 28.33-27.35 21.47-10.9 32.11-28.18 37.25-40.76 5.32-12.94 8.03-27.85 8.05-44.31 0-2.56-.06-5.15-.2-7.71 2.84 2.59 5.88 6.08 8.79 10.1 5.54 7.55 10.97 17.14 16.22 26.41 1.75 3.09 12.24 20.9 16.35 26.2 3.65 4.61 7.86 9.28 13.95 12.22 5.92 2.78 11.44 5.78 16.38 8.9 1.61 1.02 3.45 1.55 5.34 1.55 3.45 0 6.62-1.74 8.46-4.66 2.94-4.66 1.55-10.85-3.11-13.79-5.67-3.58-11.91-6.98-18.57-10.1-.93-.41-2.73-1.79-4.66-3.99-3.21-3.56-15.41-23.84-16.96-26.57-5.69-10.07-11.58-20.47-18.51-29.66-5.15-6.78-9.94-11.66-15.07-15.34-6.41-4.62-13.48-7.06-20.43-7.06h-.06c-2.98 0-5.89 1.39-7.77 3.71s-2.63 5.45-2.01 8.37l.01.03c.02.09 1.86 8.98 1.85 21.39.02 9.5-1.11 23.58-6.54 36.68-5.82 13.93-14.93 23.93-27.85 30.58-8.74 4.44-16.42 9.95-22.83 16.39-5.87 5.9-10.67 12.56-14.29 19.8-5.96 11.91-8.99 25.55-9 40.55.015 9.469 1.204 17.915 2.567 24.5h-11.797c-2.866 0-5.594 1.229-7.492 3.376s-2.784 5.005-2.432 7.85l35.809 289.999c.619 5.011 4.876 8.775 9.925 8.775h178.382c5.049 0 9.306-3.764 9.925-8.775l35.809-289.999c.35-2.844-.536-5.703-2.434-7.85zm-147.135-29.901c14.65-4.943 21.813-21.655 25.213-34.382 4.314 3.136 9.306 7.31 13.951 12.508 13.026 14.576 17.571 30.829 13.559 48.399h-77.69c.299-7.589 4.359-19.571 24.967-26.525zm128.331 46.525-6.177 50h-215.022l-6.177-50zm-19.53 158.157c-3.882 29.577-28.232 51.843-56.773 51.843h-74.77c-28.541 0-52.891-22.266-56.773-51.843l-10.884-88.157h210.083zm-13.808 111.843h-160.7l-7.325-59.33c13.613 12.087 31.257 19.33 50.29 19.33h74.77c19.033 0 36.676-7.243 50.29-19.33z"/><circle cx="349.635" cy="132.17" r="10"/></g></g></svg>