<?xml version="1.0" encoding="iso-8859-1"?>
<svg version="1.1" xmlns="http://www.w3.org/2000/svg"
	 viewBox="0 0 448 448">
<path style="fill:#B6C1CC;" d="M256,64c-38.448,0-74.16,11.408-104.192,30.864c-28-33.12-67.264-79.616-68.16-80.512
	c-19.136-19.136-50.16-19.136-69.296,0s-19.136,50.16,0,69.296c1.392,1.392,62.048,52.864,80.368,68.416
	C75.36,182.032,64,217.664,64,256c0,106.032,85.968,192,192,192s192-85.968,192-192S362.032,64,256,64z M63.856,63.856
	c-8.208,8.208-21.504,8.208-29.696,0c-8.208-8.208-8.208-21.504,0-29.696c8.208-8.208,21.504-8.208,29.696,0
	C72.048,42.352,72.048,55.648,63.856,63.856z"/>
<path style="fill:#92A2B3;" d="M256,80.048c-97.184,0-175.952,78.768-175.952,175.952S158.816,431.968,256,431.968
	s175.952-78.784,175.952-175.952S353.184,80.048,256,80.048z"/>
<path style="fill:#869AAD;" d="M278.928,430.304c86.32-11.264,153.04-84.912,153.04-174.304c0-2.016-0.24-3.968-0.304-5.968
	l-34.112-34.112l-18.832,8.336l-25.904-25.904l-18.08,2.304l-8.56,15.264l-54.864-54.864l-1.152,38.832l-44.592,88.416
	l-73.712,9.328l70.752,70.752l-3.248,2.336L278.928,430.304z"/>
<path style="fill:#FFFFFF;" d="M293.376,211.76c-2.112-14.32-8.304-30.064-20.384-47.184c-15.296-21.648-45.248-26.816-66.896-11.52
	c-8.08,5.696-13.84,13.456-17.12,22.048c-5.568,15.12-12.848,18.88-25.92,27.952c-28.88,20.384-35.744,60.32-15.36,89.2
	c18.32,25.936,52.336,33.936,80.016,20.56C227.696,312.784,306.992,284.496,293.376,211.76z"/>
<circle style="fill:#F9C566;" cx="200.704" cy="255.062" r="32"/>
<path style="fill:#9F5332;" d="M249.312,382.048L219.36,370.72c22.144-58.592,43.312-85.84,60.336-107.76
	c13.904-17.888,29.84-44.208,43.344-76.272l29.792,11.696c-13.472,31.904-29.344,58.08-43.184,75.904
	C292.624,296.208,271.456,323.456,249.312,382.048z"/>
<path style="fill:#E7B479;" d="M238.064,377.792l-7.472-2.816c21.52-56.976,42.08-83.408,58.592-104.656
	c16.416-21.152,32.368-49.2,44.928-78.976l7.376,3.088c-12.816,30.4-29.136,59.088-45.984,80.784
	C279.312,296.064,259.152,321.984,238.064,377.792z"/>
<path style="fill:#9F5332;" d="M294.032,399.6l-29.952-11.312c22.144-58.592,43.312-85.84,60.336-107.76
	c13.904-17.888,29.84-44.208,43.344-76.272l29.792,11.696c-13.472,31.904-29.344,58.08-43.184,75.904
	C337.344,313.76,316.176,341.008,294.032,399.6z"/>
<path style="fill:#E7B479;" d="M282.8,395.36l-7.472-2.832c21.52-56.96,42.08-83.392,58.592-104.64
	c16.432-21.184,32.384-49.232,44.928-78.976l7.376,3.088c-12.8,30.352-29.12,59.04-45.984,80.784
	C324.048,313.632,303.888,339.552,282.8,395.36z"/>
</svg>
