<svg xmlns="http://www.w3.org/2000/svg" id="svg-icon" viewBox="0 0 511.999 511.999"><path d="M353.333 35.637V5.38c0-3.885-3.994-6.486-7.548-4.916l-79.569 35.173v21.735h80.396l6.721-21.735z" fill="#717171"/><path d="M130.851 490.501V57.136c0-11.874 9.625-21.498 21.498-21.498h212.354c11.874 0 21.498 9.625 21.498 21.498v433.366c0 11.874-9.625 21.498-21.498 21.498H152.35c-11.873-.001-21.499-9.625-21.499-21.499z" fill="#e3e3e3"/><path fill="#65cdef" d="M130.849 124.034h255.346v299.558H130.849z"/><circle cx="258.528" cy="267.858" r="88.086" fill="#fff"/><path d="M313.596 257.27l-65.051 77.332c-2.344 2.787-6.79.158-5.476-3.24l16.032-41.434-55.644-.001 65.86-88.058c2.183-2.919 6.774-.542 5.65 2.926l-17.018 52.474 55.647.001z" fill="#ffc433"/><path d="M130.851 490.501c0 11.874 9.625 21.498 21.498 21.498h212.354c11.874 0 21.498-9.625 21.498-21.498v-7.357h-255.35v7.357z" fill="#e3e3e3"/><path d="M286.42 394.156h-55.785a8.063 8.063 0 010-16.124h55.785a8.063 8.063 0 010 16.124z" fill="#3a9cb4"/><g fill="#f23466"><path d="M96.421 269.326H42.05a8.063 8.063 0 010-16.124h54.37a8.063 8.063 0 01.001 16.124zM94.569 233.807a8.028 8.028 0 01-4.526-1.396l-17.618-11.983a8.062 8.062 0 119.068-13.332l17.618 11.983a8.062 8.062 0 01-4.542 14.728zM76.966 316.832a8.05 8.05 0 01-6.673-3.528 8.06 8.06 0 012.132-11.2l17.618-11.983a8.06 8.06 0 0111.2 2.132 8.06 8.06 0 01-2.132 11.2l-17.618 11.983a8.028 8.028 0 01-4.527 1.396zM469.949 269.326h-54.37a8.063 8.063 0 010-16.124h54.37a8.063 8.063 0 010 16.124zM435.035 316.832a8.028 8.028 0 01-4.526-1.396l-17.618-11.983a8.062 8.062 0 119.068-13.332l17.618 11.983a8.062 8.062 0 01-4.542 14.728zM417.431 233.807a8.05 8.05 0 01-6.673-3.528 8.06 8.06 0 012.132-11.2l17.618-11.983a8.06 8.06 0 0111.2 2.132 8.06 8.06 0 01-2.132 11.2l-17.618 11.983a8.036 8.036 0 01-4.527 1.396z"/></g><g fill="#3a9cb4"><path d="M130.849 67.354h255.346v56.689H130.849zM130.849 423.592h255.346v56.689H130.849z"/></g><path d="M384.513 48.767a21.398 21.398 0 00-1.982-3.651c-3.863-5.719-10.406-9.479-17.826-9.479h-9.747v423.151c0 11.874-9.625 21.498-21.498 21.498H130.851v10.215c0 11.874 9.625 21.498 21.498 21.498h212.354c11.874 0 21.498-9.625 21.498-21.498V57.136a21.4 21.4 0 00-1.688-8.369z" opacity=".1"/></svg>
