<svg xmlns="http://www.w3.org/2000/svg" id="svg-icon" viewBox="0 0 512 512"><path d="M356.174 166.957H155.826c-9.217 0-16.696-7.473-16.696-16.696V16.696C139.13 7.473 146.609 0 155.826 0h200.348c9.217 0 16.696 7.473 16.696 16.696v133.565c0 9.223-7.479 16.696-16.696 16.696zm-183.652-33.392h166.957V33.391H172.522v100.174z" fill="#b8c9d9"/><path d="M356.174 0H256v33.391h83.478v100.174H256v33.391h100.174c9.217 0 16.696-7.473 16.696-16.696V16.696C372.87 7.473 365.391 0 356.174 0z" fill="#9eacba"/><path d="M256 166.957c-9.217 0-16.696-7.473-16.696-16.696V83.478c0-9.223 7.479-16.696 16.696-16.696s16.696 7.473 16.696 16.696v66.783c0 9.223-7.479 16.696-16.696 16.696z" fill="#f9b54c"/><path d="M272.696 150.261V83.478c0-9.223-7.479-16.696-16.696-16.696v100.174c9.217.001 16.696-7.472 16.696-16.695z" fill="#e69e2e"/><path d="M289.391 100.174h-66.783c-9.217 0-16.696-7.473-16.696-16.696s7.479-16.696 16.696-16.696h66.783c9.217 0 16.696 7.473 16.696 16.696s-7.479 16.696-16.696 16.696z" fill="#ffd15d"/><path d="M289.391 66.783H256v33.391h33.391c9.217 0 16.696-7.473 16.696-16.696s-7.479-16.695-16.696-16.695z" fill="#f9b54c"/><path d="M411.652 456.521H100.348l-28-28V217.043c0-46.032 37.446-83.478 83.478-83.478h200.348c46.032 0 83.478 37.446 83.478 83.478v211.478l-28 28z" fill="#576573"/><path d="M356.174 133.565H256v322.956h155.652l28-28V217.043c0-46.032-37.446-83.478-83.478-83.478z" fill="#485566"/><path d="M155.826 512h200.348c46.032 0 83.478-37.446 83.478-83.478H72.348c0 46.032 37.446 83.478 83.478 83.478z" fill="#ffd15d"/><path d="M256 512h100.174c46.032 0 83.478-37.446 83.478-83.478H256V512z" fill="#f9b54c"/><path d="M256 389.565c-39.891 0-72.348-32.456-72.348-72.348 0-14.358 4.206-28.245 12.163-40.152l46.305-69.299c6.195-9.272 21.565-9.272 27.76 0l46.305 69.294c7.956 11.913 12.162 25.799 12.162 40.158.001 39.891-32.456 72.347-72.347 72.347z" fill="#d7ebff"/><path d="M328.348 317.217c0-14.358-4.206-28.245-12.163-40.158l-46.305-69.294c-3.098-4.636-8.489-6.954-13.881-6.954v188.753c39.892.001 72.349-32.455 72.349-72.347z" fill="#bddeff"/><path d="M256 356.174c-21.478 0-38.957-17.478-38.957-38.957a38.793 38.793 0 016.532-21.603L256 247.092l32.424 48.522c4.272 6.397 6.532 13.87 6.532 21.603.001 21.479-17.478 38.957-38.956 38.957z" fill="#b8c9d9"/><path d="M294.957 317.217c0-7.733-2.261-15.206-6.532-21.603L256 247.092v109.082c21.478 0 38.957-17.478 38.957-38.957z" fill="#9eacba"/><path d="M389.565 33.391h-267.13c-9.217 0-16.696-7.473-16.696-16.696S113.218 0 122.435 0h267.13c9.217 0 16.696 7.473 16.696 16.696s-7.479 16.695-16.696 16.695z" fill="#b8c9d9"/><path d="M389.565 0H256v33.391h133.565c9.217 0 16.696-7.473 16.696-16.696S398.782 0 389.565 0z" fill="#9eacba"/></svg>
