<svg viewBox="0 0 512 512" height="512" width="512" xmlns="http://www.w3.org/2000/svg" id="svg-icon"><path d="M280 184h120v160H280z" fill="#2ea5c5"/><path d="M280 104h120v80H280z" fill="#057998"/><g fill="#fdc01e"><path d="M88 456h16v32H88zM120 456h16v32h-16zM152 456h16v32h-16zM184 456h16v32h-16zM216 456h16v32h-16zM248 456h16v32h-16zM280 456h16v32h-16zM312 456h16v32h-16z"/></g><path d="M104 288H40c-8.837 0-16-10.745-16-24s7.163-24 16-24h64zM104 128H40c-8.837 0-16-10.745-16-24s7.163-24 16-24h64z" fill="#ebae48"/><path d="M344 104v360H72V104c0-44.183 25.072-80 56-80h272z" fill="#0093b9"/><path d="M453.43 288c-7.13 32.46-28.36 56-53.43 56-30.93 0-56-35.82-56-80s25.07-80 56-80c25.07 0 46.3 23.54 53.43 56z" fill="#5db9d3"/><path d="M472 288h-56c-8.837 0-16-10.745-16-24s7.163-24 16-24h56z" fill="#ebae48"/><path d="M72 392h272v32H72z" fill="#fdc01e"/><path d="M72 424h272v40H72z" fill="#f79726"/><ellipse cx="472" cy="264" fill="#cf8a29" rx="16" ry="24"/><path d="M453.43 128c-7.13 32.46-28.36 56-53.43 56-30.93 0-56-35.82-56-80s25.07-80 56-80c25.07 0 46.3 23.54 53.43 56z" fill="#0085aa"/><path d="M472 128h-56c-8.837 0-16-10.745-16-24s7.163-24 16-24h56z" fill="#ebae48"/><ellipse cx="472" cy="104" fill="#cf8a29" rx="16" ry="24"/></svg>
