<svg viewBox="0 0 20 20" xmlns="http://www.w3.org/2000/svg" id="svg-icon"><path d="M14.23 17.5H8.792a.625.625 0 01-.625-.625v-1.55l-1.043.313a1.529 1.529 0 01-1.978-1.453v-1.468h-.885a.926.926 0 01-.783-1.418l1.413-2.22c.168-.261.256-.563.255-.87 0-3.149 2.585-5.709 5.76-5.709 3.176 0 5.761 2.56 5.761 5.707a5.64 5.64 0 01-1.049 3.281 4.093 4.093 0 00-.763 2.383v3.004c0 .345-.28.625-.625.625zm-4.813-1.25h4.188v-2.38c0-1.117.344-2.19.994-3.107a4.393 4.393 0 00.817-2.556c0-2.457-2.023-4.457-4.51-4.457-2.488 0-4.51 2-4.51 4.457a2.88 2.88 0 01-.45 1.545l-1.094 1.716h.919c.345 0 .625.28.625.625v2.093c0 .15.125.271.281.271l.086-.014 1.848-.556a.625.625 0 01.805.598v1.765h.001z"/><path d="M19.583 9.583H.416a.625.625 0 010-1.25h19.167a.625.625 0 010 1.25zM.625 5.417A.625.625 0 010 4.792v-2.5A2.294 2.294 0 012.292 0h2.5a.625.625 0 010 1.25h-2.5c-.574 0-1.042.468-1.042 1.042v2.5c0 .345-.28.625-.625.625zM4.792 20h-2.5A2.294 2.294 0 010 17.708v-2.5a.625.625 0 011.25 0v2.5c0 .574.468 1.042 1.042 1.042h2.5a.625.625 0 010 1.25zM19.376 5.417a.625.625 0 01-.625-.625v-2.5c0-.574-.468-1.042-1.042-1.042h-2.5a.625.625 0 010-1.25h2.5a2.294 2.294 0 012.292 2.292v2.5c0 .345-.28.625-.625.625zM17.709 20h-2.5a.625.625 0 010-1.25h2.5c.574 0 1.042-.468 1.042-1.042v-2.5a.625.625 0 011.25 0v2.5A2.294 2.294 0 0117.709 20z"/></svg>
