<svg viewBox="0 0 26 26" xmlns="http://www.w3.org/2000/svg" id="svg-icon">
  <g>
    <path
      d="M25.792 6.355a.761.761 0 00-.43-.23c-.18-1.438-.623-2.656-1.322-3.627C22.893.908 21.132.068 18.804.003c-1.548-.044-2.765.398-3.618 1.311-1.314 1.406-1.39 3.572-1.322 4.866a.76.76 0 00-.448.747l.457 6.63c.027.399.36.709.76.709h.096c.078 1.11.125 2.213.142 3.349l.06 4.131.002.04C15.091 24.149 17.088 26 19.48 26a4.6 4.6 0 002.84-.985 4.524 4.524 0 001.602-2.53c.195-.85.281-2.12.391-3.727.093-1.36.197-2.88.388-4.492h.078c.4 0 .732-.31.76-.71l.457-6.629a.761.761 0 00-.203-.572zm-1.725 6.387h-8.723l-.124-1.79h8.97l-.123 1.79zm.228-3.314h-9.18l-.123-1.791h9.427l-.124 1.79z" />
    <path
      d="M12.381 6.355a.762.762 0 00-.245-.175c.069-1.294-.007-3.46-1.321-4.866C9.96.401 8.745-.04 7.197.003 4.869.068 3.107.907 1.96 2.499c-.7.97-1.143 2.188-1.323 3.626a.761.761 0 00-.632.802l.456 6.63c.028.399.36.709.76.709H1.3c.192 1.611.295 3.132.388 4.492.11 1.608.197 2.877.391 3.727a4.523 4.523 0 001.602 2.53 4.6 4.6 0 002.84.985c2.391 0 4.388-1.851 4.546-4.214l.002-.04.06-4.131c.017-1.136.064-2.238.143-3.35h.096c.4 0 .732-.31.76-.709l.457-6.628a.762.762 0 00-.204-.573zm-1.724 6.387H1.933l-.123-1.79h8.97l-.123 1.79zm.228-3.314h-9.18l-.123-1.791h9.426l-.123 1.79z" />
  </g>
</svg>
