<svg xmlns="http://www.w3.org/2000/svg" viewBox="0 0 512 512"><path d="M102.377 512.002l-23.624-23.624L185.23 381.901c16.081-16.081 23.782-34.881 24.235-59.164.116-6.237-.253-12.666-.97-19.224-6.558-.718-12.988-1.087-19.224-.97-24.282.451-43.081 8.152-59.164 24.235L23.63 433.255.004 409.629l106.477-106.477c29.066-29.066 62.41-35.753 96.014-33.655-1.56-6.974-3.251-13.959-4.926-20.878-12.52-51.735-26.71-110.373 18.38-155.464 29.697-29.697 66.137-40.969 105.38-32.596 28.744 6.133 58.94 23.361 82.846 47.267 23.908 23.908 41.138 54.105 47.271 82.849 8.374 39.243-2.898 75.683-32.595 105.381-45.09 45.09-103.728 30.9-155.464 18.38-6.919-1.675-13.904-3.366-20.878-4.926 2.098 33.604-4.589 66.948-33.655 96.014L102.377 512.002zm278.172-380.549c-19.466-19.466-43.591-33.394-66.192-38.217-28.022-5.978-53.182 1.943-74.784 23.545-31.832 31.832-21.497 74.534-9.531 123.979 2.651 10.953 5.372 22.199 7.623 33.582 11.383 2.251 22.629 4.971 33.582 7.623 49.446 11.966 92.147 22.301 123.979-9.531 21.602-21.602 29.523-46.764 23.545-74.784-4.824-22.602-18.755-46.729-38.222-66.197z" fill="#804d00"/><path d="M107.831 404.171c-23.907-23.907-41.136-54.102-47.267-82.846-8.373-39.242 2.899-75.683 32.597-105.381 45.09-45.09 103.728-30.9 155.462-18.379 6.919 1.675 13.904 3.366 20.878 4.926-2.099-33.604 4.588-66.947 33.653-96.012L409.631.002l23.624 23.624-106.477 106.478c-16.081 16.081-23.782 34.881-24.232 59.161-.116 6.237.252 12.667.97 19.224 6.557.719 12.988 1.087 19.224.97 24.281-.451 43.08-8.151 59.161-24.232L488.379 78.75l23.624 23.624-106.478 106.478c-29.066 29.066-62.409 35.753-96.012 33.653 1.56 6.974 3.251 13.959 4.925 20.878 12.521 51.735 26.712 110.373-18.379 155.464-29.697 29.697-66.137 40.97-105.381 32.595-28.742-6.133-58.939-23.363-82.847-47.271zm166.513-166.509c-11.383-2.25-22.628-4.971-33.582-7.623-49.445-11.966-92.147-22.301-123.978 9.531-21.603 21.603-29.526 46.764-23.546 74.785 4.822 22.6 18.751 46.727 38.217 66.192 19.468 19.468 43.596 33.398 66.196 38.221 28.02 5.978 53.181-1.942 74.784-23.545 31.832-31.832 21.497-74.534 9.531-123.98-2.65-10.953-5.371-22.197-7.622-33.581z" fill="#ba7400"/><g fill="#804d00"><path d="M208.848 405.524L102.375 511.997 78.75 488.373 185.224 381.9zM106.476 303.163l23.624 23.624L23.626 433.26.002 409.636z"/></g><path d="M418.849 296.059c29.697-29.697 40.969-66.137 32.595-105.381-6.133-28.743-23.361-58.94-47.269-82.847l-23.624 23.624c19.466 19.467 33.396 43.593 38.219 66.194 5.978 28.02-1.943 53.182-23.545 74.784-31.832 31.832-74.534 21.497-123.979 9.531-10.953-2.651-22.199-5.372-33.582-7.623l-29.171 29.171c.718 6.558 1.087 12.988.97 19.224-.451 24.282-8.152 43.081-24.235 59.164L78.752 488.377l23.624 23.624 106.477-106.477c29.066-29.066 35.753-62.41 33.655-96.014 6.974 1.56 13.959 3.251 20.878 4.926 51.736 12.522 110.373 26.713 155.463-18.377z" fill="#4c3011"/><path d="M321.328 60.561c28.744 6.133 58.94 23.361 82.846 47.267 23.908 23.908 41.138 54.105 47.271 82.849l-32.674 6.972c-4.823-22.602-18.754-46.73-38.221-66.196-19.466-19.466-43.591-33.394-66.192-38.217l6.97-32.675z" fill="#804d00"/><path d="M404.173 107.829c23.908 23.908 41.138 54.105 47.271 82.849l-32.674 6.972c-4.823-22.602-18.754-46.73-38.221-66.196l23.624-23.625z" fill="#4c3011"/><path d="M314.44 263.384c-1.674-6.919-3.364-13.903-4.925-20.878 33.604 2.099 66.947-4.588 96.012-33.653l106.478-106.478-23.625-23.624-106.478 106.478c-16.081 16.081-34.881 23.782-59.161 24.232-6.237.116-12.667-.252-19.224-.97l-29.173 29.173c2.25 11.383 4.971 22.628 7.623 33.58 11.966 49.446 22.301 92.148-9.531 123.98-21.603 21.603-46.764 29.523-74.784 23.545-22.601-4.823-46.727-18.752-66.194-38.219l-23.624 23.624c23.908 23.907 54.104 41.137 82.847 47.269 39.242 8.374 75.683-2.898 105.381-32.595 45.09-45.092 30.899-103.729 18.378-155.464z" fill="#804d00"/></svg>