<svg height="512pt" viewBox="0 0 512 512.002" width="512pt" xmlns="http://www.w3.org/2000/svg" id="svg-icon"><path d="M409.75 154.426c5.281-8.492 3.316-19.598-4.555-25.77-8.515-6.676-10.011-18.992-3.336-27.508l3.97-5.066c1.866-2.383 2.007-5.664.417-8.242a12.82 12.82 0 01-.23-.39c-1.414-2.481-1.098-5.595.664-7.845l30.015-38.296c1.762-2.25 4.711-3.301 7.461-2.52.145.04.29.086.43.129 2.883.93 6.039.008 7.906-2.375l15.563-19.855a5.437 5.437 0 00-.926-7.633l-8.95-7.012a9.588 9.588 0 00-9.847-1.2l-35.937 16.15a116.058 116.058 0 00-43.786 34.28l-26.367 33.641a91.586 91.586 0 00-18.027 40.121l-22.77 125.207 32.77 25.68zm0 0" fill="#d8d8d8"/><path d="M357.574 102.254c8.492-5.281 19.602-3.32 25.77 4.55 6.676 8.52 18.992 10.016 27.511 3.337l5.063-3.965c2.387-1.871 5.668-2.012 8.246-.422.125.082.258.156.387.234 2.484 1.414 5.594 1.098 7.844-.668l38.296-30.015c2.25-1.762 3.305-4.707 2.524-7.457-.043-.145-.086-.29-.133-.43-.926-2.883-.008-6.04 2.379-7.906l19.851-15.559a5.433 5.433 0 017.633.922l7.016 8.95a9.588 9.588 0 011.2 9.847l-16.15 35.937a116.14 116.14 0 01-34.28 43.79l-33.641 26.363a91.632 91.632 0 01-40.125 18.031l-125.203 22.766-25.684-32.77zm0 0" fill="#efefef"/><path d="M14.797 373.164a30.487 30.487 0 01-2.371-2.68l-6.434-8.21c-7.012-8.946-7.972-20.958-2.34-29.212 65.422-95.859 140.286-130.875 179.09-143.218 1.953-.621 3.442-2.051 4.192-4.028l8.152-21.48c1.937-5.106 6.976-7.844 12.543-6.816l38.125 7.476a6.136 6.136 0 013.66 2.242l27.559 35.164c1.101 1.403 1.535 3.211 1.199 4.961s-1.414 3.27-2.957 4.164L225.03 240.47c-.27.035-27.449 3.836-64.195 24.808-28.914 16.504-71.719 48.504-111.434 107.239-3.289 4.867-8.39 7.863-14.37 8.433-7.114.68-14.677-2.23-20.235-7.785zm0 0" fill="#fc7371"/><path d="M379.39 149.59c0 9.363-7.585 16.95-16.949 16.95-9.363 0-16.949-7.587-16.949-16.95s7.586-16.953 16.95-16.953c9.363 0 16.949 7.59 16.949 16.953zm0 0" fill="#45748c"/><path d="M138.84 497.203c-5.559-5.555-8.469-13.121-7.79-20.234.575-5.977 3.571-11.078 8.434-14.371 58.735-39.711 90.739-82.516 107.239-111.43 20.976-36.746 24.773-63.93 24.808-64.2l28.946-50.179a6.13 6.13 0 014.16-2.957 6.134 6.134 0 014.96 1.2l35.165 27.558a6.142 6.142 0 012.246 3.66l7.469 38.105c1.03 5.586-1.707 10.625-6.809 12.563l-21.48 8.152c-1.977.75-3.41 2.239-4.032 4.192-12.34 38.804-47.355 113.668-143.219 179.09-8.253 5.632-20.265 4.671-29.21-2.34l-8.207-6.434a30.528 30.528 0 01-2.68-2.375zm0 0" fill="#d84444"/></svg>
