<svg xmlns="http://www.w3.org/2000/svg" id="svg-icon" viewBox="0 0 512 512"><path d="M272.554 76.587c-10.688 6.521-14.049 46.386-20.453 56.419-9.962-7.328-32.576-34.092-45.875-34.092-3.559 0-2.074-8.419-5.469-7.822 1.112-10.852 4.472-21.645 10.243-31.725l12.327-21.482L244.809 50.2c11.636 6.673 20.978 15.816 27.745 26.387z" fill="#93cc52"/><path d="M511.995 218.118c0 141.384-114.614 255.997-255.997 255.997S0 359.501 0 218.118" fill="#e6e6e6"/><path d="M87.964 218.118H0c0 141.384 114.614 255.997 255.997 255.997 14.998 0 29.691-1.303 43.982-3.778C179.555 449.484 87.964 344.503 87.964 218.118z" fill="#ccc"/><g fill="#b3b3b3"><path d="M447.626 150.397l-7.562 10.911a76.448 76.448 0 00-7.001-16.951 278.874 278.874 0 0114.563 6.04zM512 218.12c0 .375 0 .738-.012 1.112-.316 11.519-5.397 22.582-14.516 32.884l-255.907-73.064 235.151-12.698C499.134 181.525 512 199.225 512 218.12z"/><path d="M473.355 215.342c-9.892 6.509-199.69 57.499-199.69 70.236 0 .983-236.578-15.399-236.496-14.439C13.581 255.686.001 237.541.001 218.12c0-19.843 14.188-38.362 38.737-54.038-2.353 7.422 254.336-33.039 254.336-24.833 0 19.117 168.821 62.572 180.281 76.093z"/></g><path d="M440.063 161.308l7.148 38.035-35.51 43.314-67.831 6.86a24.782 24.782 0 00-3.652-4.624c-9.529-9.517-24.771-9.81-34.651-.89l-.632-.901a26.25 26.25 0 003.933-3.231c9.833-9.822 9.833-25.766 0-35.588-9.834-9.834-25.766-9.834-35.6 0a25.072 25.072 0 007.235-15.183c25.696-14.867 40.423-42.202 40.154-70.497 12.62-8.862 27.99-14.06 44.567-14.06 29.149 0 54.553 16.061 67.84 39.814a76.518 76.518 0 016.999 16.951z" fill="#ffd41d"/><path d="M476.716 166.353l20.756 85.762c-3.114 3.524-6.708 6.954-10.735 10.29l-49.672-20.529-12.525-58.198 15.523-22.371 7.562-10.911h.012l18.695-26.949 10.384 42.906z" fill="#f94848"/><path d="M424.54 183.679l62.197 78.727c-23.881 19.772-63.274 35.998-111.88 46.182l27.194-153.368 22.489 28.459z" fill="#f97d7d"/><path d="M327.131 182.238c0-36.066 24.577-66.383 57.894-75.14a77.788 77.788 0 00-19.802-2.556c-42.91 0-77.695 34.785-77.695 77.695s34.785 77.695 77.695 77.695c6.845 0 13.479-.893 19.802-2.556-33.317-8.755-57.894-39.072-57.894-75.138z" fill="#efc71d"/><path d="M402.052 155.22l-27.194 153.368c-15.851 3.325-32.696 5.994-50.291 7.937 3.032-8.803-30.832-19.592-33.442-20.798l-27.238-15.835c9.377 4.554 85.954-20.67 79.984-30.375l58.181-94.297z" fill="#f94848"/><g fill="#4ca1e0"><path d="M343.87 249.517c5.97 9.705 4.753 22.57-3.652 30.976-7.785 7.785-19.398 9.412-28.775 4.858a24.826 24.826 0 01-6.813-4.858c-9.833-9.834-9.833-25.766 0-35.6.304-.304.62-.609.937-.89 9.88-8.92 25.122-8.628 34.651.89a24.782 24.782 0 013.652 4.624zM318.561 290.548c7.024 7.024 9.037 17.174 6.005 25.977-14.902 1.651-30.343 2.774-46.194 3.325-4.87-9.471-3.336-21.365 4.589-29.302a26.317 26.317 0 012.529-2.213c7.516-5.748 17.536-6.684 25.872-2.821a25.2 25.2 0 017.199 5.034z"/></g><path d="M320.656 118.602c.269 28.295-14.458 55.63-40.154 70.497.761-7.281-20.866 7.243-26.45 1.659-1.206-1.206-26.348-17.037-27.706-17.95 1.264-4.847 3.512-27.156 3.512-32.389 0-19.901 31.808-27.636 16.905-38.581a79.85 79.85 0 0125.79-25.251 78.082 78.082 0 016.965-3.805L301.819 62l10.782 22.289c5.351 11.076 7.961 22.771 8.055 34.313z" fill="#a3e261"/><path d="M311.443 285.351l-.082.164c-8.335-3.863-18.356-2.927-25.872 2.821l-.199-.258a26.564 26.564 0 001.908-1.733c9.834-9.834 9.834-25.766 0-35.6a25.191 25.191 0 00-7.2-5.034l.41-.831c7.843 3.664 17.174 3.067 24.525-1.779l.632.901c-.316.281-.632.585-.937.89-9.833 9.834-9.833 25.766 0 35.6a24.848 24.848 0 006.815 4.859z" fill="#368cc1"/><g fill="#4ca1e0"><path d="M308.867 204.283c9.833 9.822 9.833 25.766 0 35.588a26.25 26.25 0 01-3.933 3.231c-7.352 4.847-16.682 5.444-24.525 1.779a25.095 25.095 0 01-7.141-5.01c-9.822-9.822-9.822-25.766 0-35.588 9.833-9.834 25.766-9.834 35.599 0zM287.199 250.746c9.833 9.834 9.833 25.766 0 35.6a26.78 26.78 0 01-1.908 1.733c-9.88 8.066-24.455 7.492-33.68-1.733-9.834-9.834-9.834-25.766 0-35.6 7.68-7.668 19.082-9.354 28.388-5.034a25.191 25.191 0 017.2 5.034z"/></g><g fill="#368cc1"><path d="M285.29 288.078l.199.258a26.317 26.317 0 00-2.529 2.213c-7.925 7.937-9.459 19.831-4.589 29.302-7.375.258-14.832.386-22.371.386-4.741 0-9.447-.047-14.118-.152v-63.297a24.946 24.946 0 009.728-6.041c-9.834 9.834-9.834 25.766 0 35.6 9.225 9.224 23.8 9.797 33.68 1.731z"/><path d="M299.912 290.548c-7.715 7.715-9.377 19.175-4.987 28.505a627.55 627.55 0 01-16.553.796h-.012c-4.87-9.471-3.336-21.365 4.601-29.302 7.106-7.106 17.384-9.061 26.258-5.9a25.18 25.18 0 00-9.307 5.901zM328.705 285.499a24.897 24.897 0 01-7.129-4.999c-9.834-9.834-9.834-25.766 0-35.6a25.063 25.063 0 019.309-5.9c-8.869-3.16-19.152-1.203-26.257 5.9-9.834 9.834-9.834 25.766 0 35.6a24.91 24.91 0 007.129 4.999c6.029 2.821 12.932 3.105 19.141.889a25.473 25.473 0 01-2.193-.889zM275.686 291.344a24.897 24.897 0 01-7.129-4.999c-9.834-9.833-9.834-25.766 0-35.6a25.063 25.063 0 019.309-5.9c-8.869-3.16-19.152-1.203-26.257 5.9-9.834 9.834-9.834 25.766 0 35.6a24.91 24.91 0 007.129 4.999c6.029 2.821 12.932 3.105 19.141.889a24.846 24.846 0 01-2.193-.889zM297.344 244.881a24.897 24.897 0 01-7.129-4.999c-9.834-9.834-9.834-25.766 0-35.6a25.063 25.063 0 019.309-5.9c-8.869-3.16-19.152-1.203-26.257 5.9-9.834 9.834-9.834 25.766 0 35.6a24.91 24.91 0 007.129 4.999c6.029 2.821 12.932 3.105 19.141.889a24.904 24.904 0 01-2.193-.889z"/></g><path d="M271.336 150.339a60.05 60.05 0 01-1.932 15.172c-9.775-6.509-13.445 10.426-22.073 19.054-9.834 9.834-9.356 4.555.478 14.389 2.131 2.131-5.576 9.135-3 10.329l-.398.831c-9.318-4.32-20.721 7.696-28.4 15.375 9.834-9.834-17.682-14.75-27.515-24.584-7.223-7.223-17.958-9.26-26.925-5.853-3.699-20.639 12.168-59.673-4.374-71.204 8.312-16.939 24.373-29.395 43.56-32.755a60.246 60.246 0 0110.442-.901c13.299 0 25.602 4.32 35.565 11.648 14.903 10.944 24.572 28.598 24.572 48.499z" fill="#ffd41d"/><path d="M273.268 168.683c5.584 5.584 7.996 13.135 7.235 20.416a25.066 25.066 0 01-7.235 15.183c-7.691 7.691-19.129 9.365-28.459 4.999a24.897 24.897 0 01-7.129-4.999c-9.834-9.834-9.834-25.766 0-35.6 8.628-8.628 21.95-9.681 31.725-3.172a25.919 25.919 0 013.863 3.173z" fill="#4ca1e0"/><g fill="#368cc1"><path d="M280.409 244.881l-.41.831c-9.307-4.32-20.709-2.634-28.388 5.034 9.822-9.822 9.822-25.754 0-35.588a25.235 25.235 0 00-7.2-5.046l.398-.831c9.33 4.367 20.767 2.693 28.459-4.999-9.822 9.822-9.822 25.766 0 35.588a25.065 25.065 0 007.141 5.011z"/><path d="M248.13 196.911c9.833 9.834 9.833 25.766 0 35.6a25.07 25.07 0 01-7.445 5.163h-.012c-4.975-.819-10.302-1.253-15.839-1.253-2.318 0-4.601.082-6.837.234h-.012a20.585 20.585 0 01-1.662-1.03 24.844 24.844 0 01-3.781-3.114c-5.795-5.795-8.171-13.697-7.141-21.236a25.058 25.058 0 017.141-14.364 24.8 24.8 0 018.862-5.725c8.967-3.406 19.503-1.498 26.726 5.725z"/><path d="M261.756 209.281a24.897 24.897 0 01-7.129-4.999c-9.834-9.834-9.834-25.766 0-35.6a25.063 25.063 0 019.309-5.9c-8.869-3.16-19.152-1.203-26.257 5.9-9.834 9.834-9.834 25.766 0 35.6a24.91 24.91 0 007.129 4.999c6.029 2.821 12.932 3.105 19.141.889a24.722 24.722 0 01-2.193-.889zM251.611 215.158c9.822 9.834 9.822 25.766 0 35.588a24.946 24.946 0 01-9.728 6.041v-14.305c0-9.716-12.444-18.052-30.156-21.599a24.866 24.866 0 014.285-5.725c7.68-7.68 19.082-9.365 28.4-5.046a25.244 25.244 0 017.199 5.046z"/></g><path d="M241.882 242.481v77.603c-22.91-.492-45.023-2.189-65.943-4.952a516.14 516.14 0 01-32.392-5.256v-67.395c0 10.126 13.498 18.754 32.392 22.02 5.233.901 10.887 1.393 16.776 1.393 27.159 0 49.167-10.477 49.167-23.413z" fill="#fce275"/><path d="M216.011 179.558c9.834 9.834 9.834 25.766 0 35.6a25.07 25.07 0 01-7.445 5.163h-.012c-4.975-.819-10.302-1.253-15.839-1.253-2.318 0-4.601.082-6.837.234h-.012a20.585 20.585 0 01-1.662-1.03 24.844 24.844 0 01-3.781-3.114c-5.795-5.795-8.171-13.697-7.141-21.236a25.058 25.058 0 017.141-14.364 24.8 24.8 0 018.862-5.725c8.967-3.406 19.503-1.498 26.726 5.725z" fill="#4ca1e0"/><path d="M173.282 193.922c-1.03 7.539 1.346 15.441 7.141 21.236a24.893 24.893 0 003.781 3.114c-.164.398-.339.796-.515 1.194-22.84 2.014-40.142 11.554-40.142 23.015v16.483c-9.424 4.074-19.819 6.333-30.741 6.333-1.007 0-2.014-.023-3.009-.07-1.522-18.731-17.197-33.446-36.314-33.446a36.278 36.278 0 00-20.007 5.982c-11.461-13.521-18.368-31.034-18.368-50.151a77.723 77.723 0 013.629-23.53c9.962-31.409 39.358-54.166 74.068-54.166 16.495 0 31.807 5.151 44.391 13.931 16.541 11.531 28.388 29.348 32.088 49.987a24.8 24.8 0 00-8.862 5.725 25.06 25.06 0 00-7.14 14.363z" fill="#ffa91f"/><g fill="#368cc1"><path d="M204.499 220.157a24.897 24.897 0 01-7.129-4.999c-9.834-9.834-9.834-25.766 0-35.6a25.063 25.063 0 019.309-5.9c-8.869-3.16-19.152-1.203-26.257 5.9-9.834 9.834-9.834 25.766 0 35.6a24.91 24.91 0 007.129 4.999c6.029 2.821 12.932 3.105 19.141.889a25.03 25.03 0 01-2.193-.889zM143.547 258.964v50.912c-17.349-3.383-33.586-7.527-48.454-12.327 8.991-6.638 14.821-17.302 14.821-29.337 0-1.007-.035-2.002-.117-2.985.995.047 2.002.07 3.009.07 10.922 0 21.317-2.259 30.741-6.333z"/></g><path d="M74.714 187.611c0-36.066 24.577-66.383 57.894-75.14a77.788 77.788 0 00-19.802-2.556c-42.91 0-77.695 34.785-77.695 77.695s34.785 77.695 77.695 77.695c6.845 0 13.479-.893 19.802-2.556-33.318-8.754-57.894-39.072-57.894-75.138z" fill="#e2901a"/><path d="M109.797 265.227c.082.983.117 1.978.117 2.985 0 12.034-5.83 22.699-14.821 29.337-22.898-7.387-42.542-16.331-57.924-26.41a34.52 34.52 0 01-.117-2.927c0-12.737 6.532-23.94 16.424-30.449a36.278 36.278 0 0120.007-5.982c19.117 0 34.792 14.716 36.314 33.446z" fill="#f94848"/><path d="M56.275 265.227a35.907 35.907 0 00-.117 2.985 36.354 36.354 0 003.407 15.394c-8.218-3.91-15.71-8.078-22.395-12.467a34.52 34.52 0 01-.117-2.927c0-12.737 6.532-23.94 16.424-30.449a36.278 36.278 0 0120.007-5.982c3.301 0 6.509.445 9.553 1.276-14.564 3.934-25.498 16.682-26.762 32.17z" fill="#e23d3d"/><path d="M175.939 264.501v50.631a516.14 516.14 0 01-32.392-5.256v-67.395c0 10.126 13.498 18.754 32.392 22.02z" fill="#ddc55e"/><path d="M189.285 173.834c-3.699-20.639-15.546-38.456-32.088-49.987 8.312-16.939 24.373-29.395 43.56-32.755a60.246 60.246 0 0110.442-.901c.001-.001-25.344 38.409-21.914 83.643z" fill="#efc71d"/><path d="M211.726 220.883c17.712 3.547 30.156 11.882 30.156 21.599 0 12.936-22.008 23.413-49.168 23.413-27.148 0-49.168-10.477-49.168-23.413 0-11.461 17.302-21.002 40.142-23.015.714-.07 1.44-.129 2.177-.164h.012a100.85 100.85 0 016.837-.234c5.537 0 10.864.433 15.839 1.253h.012c1.078.163 2.131.35 3.161.561z" fill="#fce275"/><path d="M192.715 245.993c-9.98 0-17.616-1.664-22.775-3.506 3.829-1.363 9.018-2.626 15.496-3.197l.201-.019c.263-.026.529-.049.797-.069h.108l.686-.046a81.73 81.73 0 015.487-.188c4.385 0 8.627.332 12.604.988l1.579.26c.284.052.563.105.836.162 3.087.618 5.659 1.356 7.764 2.107-5.159 1.845-12.797 3.508-22.783 3.508z" fill="#ddc55e"/></svg>
