<svg viewBox="0 0 495.798 495.798" xmlns="http://www.w3.org/2000/svg"><g><path d="m483.459 142.776-24.329 27.317-85.789 31.491-30.945 6.553-24.414 13.768-39.719 14.58c-3.804 1.396-7.602-2.075-6.552-5.99l51.83-193.169 13.876-28.594c.735-2.739 148.579 133.113 146.042 134.044z" fill="#ffe07d"/><path d="m490.826 158.459-31.694 11.639c-21.26-63.15-71.86-112.81-135.59-132.77l9.019-33.618c.735-2.74 3.602-4.322 6.313-3.487 72.773 22.434 131.001 79.166 154.978 151.96.845 2.567-.49 5.345-3.026 6.276z" fill="#ffc736"/><path d="m474.902 164.308-15.77 5.79c-21.26-63.15-71.86-112.81-135.59-132.77l4.29-15.99 17.26 5.42c58.55 18.39 105.2 64.21 124.78 122.56z" fill="#faaa0a"/><path d="m247.322 495.618c-130.52 5.04-240.41-96.68-245.45-227.2-5.04-130.52 96.69-240.41 227.2-245.45 20.77-.8 41.016 1.095 60.397 5.389 2.787.618 4.502 3.431 3.762 6.188l-65.49 244.05c-1.05 3.914 2.748 7.386 6.552 5.99l227.446-83.496c2.812-1.032 5.904.62 6.594 3.536 3.477 14.686 5.584 29.91 6.189 45.553 5.04 130.51-96.69 240.4-227.2 245.44z" fill="#ffc736"/><path d="m402.882 429.028c-40.4 39.22-94.87 64.25-155.56 66.59-130.52 5.04-240.41-96.68-245.45-227.2-3.01-77.94 32.06-148.53 88.59-193.82-46.45 45.12-74.29 109.02-71.59 178.82 5.04 130.52 114.93 232.24 245.45 227.2 52.55-2.03 100.43-21.06 138.56-51.59z" fill="#faaa0a"/><path d="m435.002 259.308c0 108.35-88.15 196.5-196.5 196.5s-196.5-88.15-196.5-196.5 88.15-196.5 196.5-196.5c15.73 0 31.03 1.86 45.7 5.37l-56.46 210.42c-1.05 3.91 2.75 7.38 6.55 5.99l90.832-33.344 28.652-5.957 26.718-14.369 48.978-17.98c3.62 14.87 5.53 30.4 5.53 46.37z" fill="#ffe07d"/><path d="m373.342 201.588-29.542 7.699-25.818 12.621c-5.81-15.04 1.56-32 16.57-37.99 15.13-6.05 32.3 1.31 38.34 16.44.16.41.32.82.45 1.23z" fill="#df646e"/><path d="m373.342 201.588-55.36 20.32c-5.5-14.23.8-30.18 14.21-36.92-3.351 6.601-4.199 14.425-1.9 21.923.336 1.098 1.533 1.688 2.611 1.293l36.94-13.555c1.21 1.75 2.23 3.66 3.05 5.71.159.409.319.819.449 1.229z" fill="#dc4955"/><path d="m363.622 268.878c-15.18 5.92-32.29-1.6-38.19-16.78-.1-.29-.21-.58-.31-.86l6.805.559 5.734-5.162 42.851-15.728.03.14c5.67 15.091-1.85 31.981-16.92 37.831z" fill="#df646e"/><path d="m378.172 256.638c-3.24 5.39-8.23 9.79-14.55 12.24-15.18 5.92-32.29-1.6-38.19-16.78-.1-.29-.21-.58-.31-.86l12.54-4.6c7.26 12.08 22.38 17.54 35.96 12.24 1.61-.62 3.13-1.37 4.55-2.24z" fill="#dc4955"/><g fill="#df646e"><circle cx="202.502" cy="126.308" r="25.5"/><circle cx="238.502" cy="399.308" r="25.5"/><circle cx="115.502" cy="222.308" r="25.5"/><circle cx="135.502" cy="352.308" r="25.5"/><circle cx="359.502" cy="331.308" r="25.5"/></g><g fill="#dc4955"><path d="m227.502 131.308c-2.31 11.69-12.63 20.5-25 20.5-14.08 0-25.5-11.42-25.5-25.5 0-12.37 8.81-22.69 20.5-25-.33 1.62-.5 3.29-.5 5 0 14.08 11.42 25.5 25.5 25.5 1.71 0 3.38-.17 5-.5z"/><path d="m263.502 404.308c-2.31 11.69-12.63 20.5-25 20.5-14.08 0-25.5-11.42-25.5-25.5 0-12.37 8.81-22.69 20.5-25-.33 1.62-.5 3.29-.5 5 0 14.08 11.42 25.5 25.5 25.5 1.71 0 3.38-.17 5-.5z"/><path d="m140.502 227.308c-2.31 11.69-12.63 20.5-25 20.5-14.08 0-25.5-11.42-25.5-25.5 0-12.37 8.81-22.69 20.5-25-.33 1.62-.5 3.29-.5 5 0 14.08 11.42 25.5 25.5 25.5 1.71 0 3.38-.17 5-.5z"/><path d="m160.502 357.308c-2.31 11.69-12.63 20.5-25 20.5-14.08 0-25.5-11.42-25.5-25.5 0-12.37 8.81-22.69 20.5-25-.33 1.62-.5 3.29-.5 5 0 14.08 11.42 25.5 25.5 25.5 1.71 0 3.38-.17 5-.5z"/><path d="m384.502 336.308c-2.31 11.69-12.63 20.5-25 20.5-14.08 0-25.5-11.42-25.5-25.5 0-12.37 8.81-22.69 20.5-25-.33 1.62-.5 3.29-.5 5 0 14.08 11.42 25.5 25.5 25.5 1.71 0 3.38-.17 5-.5z"/></g><path d="m175.496 213.609c-8.242-11.743-4.249-29.012-2.761-34.237.264-.925 1.138-1.525 2.096-1.44 5.469.487 23.371 2.957 31.627 14.719 8.242 11.743 4.249 29.012 2.761 34.237-.264.925-1.138 1.525-2.096 1.44-5.47-.487-23.371-2.957-31.627-14.719z" fill="#b7e546"/><path d="m211.222 216.318c-.46 4.66-1.42 8.53-2 10.57-.27.93-1.14 1.53-2.1 1.44-5.47-.49-23.37-2.96-31.63-14.72-8.24-11.74-4.25-29.01-2.76-34.24.27-.92 1.14-1.52 2.1-1.44 1.51.13 3.96.42 6.9 1.01-.74 7.29-.27 16.51 4.76 23.67 5.98 8.52 17.02 12.16 24.73 13.71z" fill="#abd641"/><path d="m280.204 307.89c13.324 5.321 19.428 21.962 21.04 27.149.285.919-.118 1.899-.967 2.352-4.845 2.584-21.181 10.309-34.527 4.979-13.324-5.321-19.428-21.962-21.04-27.149-.285-.919.118-1.899.967-2.352 4.845-2.583 21.181-10.309 34.527-4.979z" fill="#b7e546"/><path d="m300.272 337.388c-4.84 2.59-21.18 10.31-34.52 4.98-13.33-5.32-19.43-21.96-21.04-27.15-.29-.92.12-1.9.96-2.35 1.23-.65 3.21-1.64 5.69-2.66 3.4 6.24 8.69 13.09 16.39 16.16 9.95 3.98 21.58.69 28.85-2.31 2.48 4.56 3.96 8.79 4.64 10.98.29.92-.12 1.9-.97 2.35z" fill="#abd641"/><path d="m173.344 263.742c14.154 2.344 23.681 17.291 26.367 22.013.476.836.291 1.88-.441 2.504-4.179 3.562-18.482 14.607-32.659 12.259-14.154-2.344-23.681-17.291-26.367-22.013-.476-.836-.291-1.88.441-2.504 4.179-3.561 18.481-14.606 32.659-12.259z" fill="#b7e546"/><path d="m199.272 288.258c-4.18 3.56-18.48 14.61-32.66 12.26-14.16-2.34-23.68-17.29-26.37-22.01-.47-.84-.29-1.88.44-2.51 1.27-1.08 3.47-2.84 6.31-4.72 4.55 6.25 12.37 14.55 22.62 16.24 9.88 1.64 19.82-3.23 26.35-7.54 1.74 2.39 3 4.47 3.75 5.78.47.83.29 1.88-.44 2.5z" fill="#abd641"/><path d="m367.368 117.48c-2.331 14.156-17.269 23.698-21.988 26.388-.836.476-1.88.293-2.505-.438-3.566-4.176-14.624-18.468-12.29-32.648 2.331-14.156 17.269-23.698 21.988-26.388.836-.476 1.88-.293 2.505.438 3.566 4.176 14.625 18.468 12.29 32.648z" fill="#b7e546"/><path d="m367.372 117.478c-2.33 14.16-17.27 23.7-21.99 26.39-.84.48-1.88.29-2.51-.44-3.56-4.18-14.62-18.47-12.29-32.65.48-2.91 1.49-5.62 2.84-8.12 1.23 11.67 9.46 22.27 12.45 25.77.63.73 1.67.92 2.51.44 3.75-2.14 13.95-8.6 19.15-18.27.24 2.27.22 4.58-.16 6.88z" fill="#abd641"/><g><g><path d="m96.002 315.308c-12.406 0-22.5-10.094-22.5-22.5s10.094-22.5 22.5-22.5 22.5 10.094 22.5 22.5-10.094 22.5-22.5 22.5z" fill="#61aab8"/></g><g><path d="m136.002 174.308c-12.406 0-22.5-10.093-22.5-22.5s10.094-22.5 22.5-22.5 22.5 10.093 22.5 22.5-10.094 22.5-22.5 22.5z" fill="#61aab8"/></g><g><path d="m401.002 168.308c-12.406 0-22.5-10.093-22.5-22.5s10.094-22.5 22.5-22.5 22.5 10.093 22.5 22.5-10.094 22.5-22.5 22.5z" fill="#61aab8"/></g><g><path d="m309.002 411.308c-12.406 0-22.5-10.094-22.5-22.5s10.094-22.5 22.5-22.5 22.5 10.094 22.5 22.5-10.094 22.5-22.5 22.5z" fill="#61aab8"/></g><g><path d="m202.002 362.308c-12.406 0-22.5-10.094-22.5-22.5s10.094-22.5 22.5-22.5 22.5 10.094 22.5 22.5-10.094 22.5-22.5 22.5z" fill="#61aab8"/></g></g><g><g><path d="m113.002 299.308c-12.41 0-22.5-10.09-22.5-22.5 0-2.08.28-4.1.82-6.01-10.17 2.16-17.82 11.2-17.82 22.01 0 12.41 10.09 22.5 22.5 22.5 10.33 0 19.05-6.99 21.68-16.49-1.51.32-3.08.49-4.68.49z" fill="#5595a2"/></g><g><path d="m153.002 158.308c-12.41 0-22.5-10.09-22.5-22.5 0-2.08.28-4.1.82-6.01-10.17 2.16-17.82 11.2-17.82 22.01 0 12.41 10.09 22.5 22.5 22.5 10.33 0 19.05-6.99 21.68-16.49-1.51.32-3.08.49-4.68.49z" fill="#5595a2"/></g><g><path d="m418.002 152.308c-12.41 0-22.5-10.09-22.5-22.5 0-2.08.28-4.1.82-6.01-10.17 2.16-17.82 11.2-17.82 22.01 0 12.41 10.09 22.5 22.5 22.5 10.33 0 19.05-6.99 21.68-16.49-1.51.32-3.08.49-4.68.49z" fill="#5595a2"/></g><g><path d="m326.002 395.308c-12.41 0-22.5-10.09-22.5-22.5 0-2.08.28-4.1.82-6.01-10.17 2.16-17.82 11.2-17.82 22.01 0 12.41 10.09 22.5 22.5 22.5 10.33 0 19.05-6.99 21.68-16.49-1.51.32-3.08.49-4.68.49z" fill="#5595a2"/></g><g><path d="m219.002 346.308c-12.41 0-22.5-10.09-22.5-22.5 0-2.08.28-4.1.82-6.01-10.17 2.16-17.82 11.2-17.82 22.01 0 12.41 10.09 22.5 22.5 22.5 10.33 0 19.05-6.99 21.68-16.49-1.51.32-3.08.49-4.68.49z" fill="#5595a2"/></g></g></g></svg>