<svg height="512pt" viewBox="-110 0 512 512.001" width="512pt" xmlns="http://www.w3.org/2000/svg" id="svg-icon"><path d="M28.922.535L13.395 6.383a8.298 8.298 0 00-4.84 10.687l105.304 279.586a8.298 8.298 0 0010.692 4.84l15.527-5.848c4.285-1.617 6.453-6.402 4.84-10.687L39.609 5.375A8.292 8.292 0 0028.922.535zm0 0" fill="#c38c66"/><path d="M237.938 300.438c-29.739 0-53.93-24.196-53.93-53.93v-33.184c0-29.738 24.191-53.93 53.93-53.93 29.734 0 53.925 24.192 53.925 53.93v33.184c0 29.734-24.195 53.93-53.925 53.93zm0-116.153c-16.012 0-29.04 13.028-29.04 29.035v33.188c0 16.012 13.028 29.039 29.04 29.039 16.007 0 29.035-13.027 29.035-29.04V213.32c0-16.007-13.028-29.035-29.035-29.035zm0 0" fill="#f9eac7"/><path d="M208.898 246.508v-33.184c0-14.496 10.72-26.554 24.625-28.703a920.161 920.161 0 012.118-25.176c-28.664 1.22-51.633 24.918-51.633 53.875v33.188c0 26.812 19.691 49.12 45.36 53.242.1-1.473.273-3 .273-4.492 0-.317.011-8.184.218-20.856-12.066-3.523-20.96-14.707-20.96-27.894zm0 0" fill="#f4dbb3"/><path d="M8.273 97.168c-5.421 0-9.293 5.094-8.035 10.367 13.688 57.281 13.688 187.727 13.688 187.727a49.77 49.77 0 0021.234 40.777l47.578 33.305a33.191 33.191 0 0114.157 27.187v57.39l-3.317 9.95a14.69 14.69 0 01-8.777 9.106l-28.16 10.558a14.69 14.69 0 00-9.528 13.754v6.414A8.297 8.297 0 0055.41 512h116.153a8.297 8.297 0 008.296-8.297v-6.414a14.69 14.69 0 00-9.527-13.754l-28.176-10.562a14.692 14.692 0 01-8.781-9.121l-3.297-9.93v-57.39a33.191 33.191 0 0114.156-27.188l47.578-33.305a49.77 49.77 0 0021.235-40.777s0-130.446 13.687-187.727c1.258-5.273-2.613-10.367-8.035-10.367zm0 0" fill="#f9eac7"/><path d="M113.86 296.656a8.3 8.3 0 0010.69 4.84l15.528-5.848a8.304 8.304 0 004.84-10.691L74.188 97.168H38.722zm0 0" fill="#e2a975"/><path d="M70.824 154.066c-32.398 32.399-32.398 84.93 0 117.332l112.922-112.921c2.461-2.461 2.332-6.52-.316-8.786-32.594-27.953-81.739-26.492-112.606 4.375zm0 0" fill="#ffc269"/><path d="M88.266 253.96c-11.02-11.007-17.082-25.655-17.082-41.23 0-15.57 6.062-30.21 17.082-41.222 11.007-11.02 25.648-17.078 41.222-17.078s30.219 6.058 41.23 17.078l-11.73 11.73c-7.883-7.883-18.36-12.218-29.5-12.218s-21.617 4.335-29.492 12.218c-7.883 7.875-12.219 18.352-12.219 29.492s4.336 21.618 12.22 29.5zm0 0" fill="#ffa95f"/><path d="M8.273 97.168c-5.421 0-9.293 5.094-8.035 10.367 13.688 57.278 13.688 187.723 13.688 187.723a49.772 49.772 0 0021.234 40.781l47.578 33.305a33.191 33.191 0 0114.157 27.187v57.39l-3.317 9.95a14.68 14.68 0 01-8.777 9.106l-28.156 10.558a14.683 14.683 0 00-9.532 13.75v6.418A8.297 8.297 0 0055.41 512h58.078V375.848c0-13.864-4.96-27.27-13.98-37.797l-21.82-25.45a58.075 58.075 0 01-13.981-37.796V97.168zm0 0" fill="#f4dbb3"/><path d="M63.707 263.164V162.188c-22.805 29.683-22.809 71.292 0 100.976zm0 0" fill="#ffa95f"/><path d="M163.238 205.027c-24.906 0-24.906-16.593-49.808-16.593-24.887 0-24.887 16.593-49.774 16.593-14.914 0-20.91-5.957-28.676-10.726-3.328-2.047-7.582.488-7.355 4.387 2.84 48.476 2.895 93.414 2.895 96.574a33.21 33.21 0 0014.156 27.183l47.578 33.305.398.281c12.485 8.832 29.184 8.832 41.672 0l.395-.281 47.578-33.305a33.21 33.21 0 0014.156-27.183c0-3.164.059-48.11 2.895-96.594.23-3.898-4.02-6.43-7.352-4.39-7.797 4.773-13.793 10.75-28.758 10.75zm0 0" fill="#e5646e"/><path d="M99.504 338.055l-21.817-25.453a58.075 58.075 0 01-13.98-37.797v-69.782h-.05c-14.915 0-20.91-5.953-28.677-10.726-3.328-2.043-7.582.488-7.355 4.39 2.84 48.477 2.895 93.41 2.895 96.57a33.212 33.212 0 0014.156 27.188l47.578 33.305.398.281c5.743 4.063 12.602 6.266 19.309 6.59-2.121-8.95-6.387-17.488-12.457-24.566zm0 0" fill="#db4655"/><path d="M113.254 188.41c-24.887 0-24.887 16.613-49.774 16.613-7.078 0-12.113-1.265-16.316-3.183-3.023 22.734 3.297 46.469 19.098 64.918 2.27 2.648 6.332 2.789 8.797.32l67.625-67.543c-8.055-4.832-14.125-11.125-29.43-11.125zm0 0" fill="#db4655"/><path d="M121.781 453.922h-16.59c-9.164 0-16.593-7.426-16.593-16.59s7.43-16.594 16.593-16.594h16.59c9.164 0 16.594 7.43 16.594 16.594 0 9.164-7.43 16.59-16.594 16.59zm0 0" fill="#f9eac7"/><path d="M144.914 284.957l-36.266-96.285c-14.8 1.453-19.64 9.547-30.27 13.781l35.481 94.203a8.3 8.3 0 0010.692 4.84l15.527-5.848a8.299 8.299 0 004.836-10.691zm0 0" fill="#db4655"/><path d="M63.707 162.188v-65.02H38.723l24.656 65.457zm0 0" fill="#d19a6e"/></svg>
