<svg viewBox="0 0 512 512" height="512" width="512" xmlns="http://www.w3.org/2000/svg" id="svg-icon"><path d="M504.267 92.249a7.71 7.71 0 01-5.468-2.265l-76.784-76.783a7.734 7.734 0 0110.937-10.936l76.784 76.783a7.732 7.732 0 010 10.935 7.711 7.711 0 01-5.469 2.266zM483.276 105.901a7.709 7.709 0 01-5.468-2.265l-69.445-69.445a7.733 7.733 0 0110.936-10.935l69.445 69.445a7.733 7.733 0 01-5.468 13.2zM461.368 118.502a7.709 7.709 0 01-5.468-2.265l-60.138-60.138a7.733 7.733 0 010-10.936 7.733 7.733 0 0110.937 0l60.138 60.138a7.733 7.733 0 01-5.469 13.201z" fill="#563e2f"/><path d="M439.816 108.304l60.54-38.652c10.029-6.403 13.847-19.239 8.833-30.03l-.221-.47c-7.509-15.729 8.688-21.779-2.827-33.294-11.385-11.385-17.565 4.682-33.294-2.827a39.275 39.275 0 00-.47-.221c-10.791-5.014-23.627-1.196-30.03 8.833l-38.652 60.541z" fill="#99573d"/><path d="M509.19 39.621l-.221-.47c-7.509-15.729 8.688-21.778-2.827-33.294-3.64-3.64-6.747-4.468-9.805-4.164-1.122 8.754-11.741 18.099-6.165 29.781.075.157 0 0 .072.156 5.014 10.791 1.196 23.627-8.833 30.03l-54.718 33.52 13.123 13.123 60.54-38.652c10.03-6.402 13.848-19.239 8.834-30.03z" fill="#894c37"/><path d="M57.719 454.28c41.546 41.546 112.796 86.871 179.9 33.301 44.947-35.882 33.94-72.835 46.172-102.405 12.232-29.569 32.635-27.065 62.496-55.681 37.366-35.808 37.851-94.732-15.6-148.183s-112.376-52.966-148.183-15.6c-28.616 29.861-26.112 50.263-55.681 62.496C97.254 240.44 60.3 229.433 24.419 274.38c-53.571 67.104-8.246 138.354 33.3 179.9z" fill="#fcc472"/><path d="M283.792 385.176c12.232-29.569 32.635-27.065 62.496-55.681 37.366-35.808 37.851-94.732-15.6-148.183a195.23 195.23 0 00-6.72-6.403c46.934 51.61 45.003 107.151 9.197 141.464-29.861 28.616-50.263 26.112-62.496 55.681-12.232 29.569-1.225 66.523-46.172 102.405-63.64 50.805-131.004 12.662-173.228-26.85a279.464 279.464 0 006.451 6.672c41.546 41.546 112.796 86.871 179.9 33.301 44.947-35.883 33.94-72.837 46.172-102.406z" fill="#f4b158"/><circle cx="213.62" cy="298.38" fill="#563e2f" transform="rotate(-45 213.581 298.44)" r="53.042"/><path d="M251.126 260.873a53.273 53.273 0 00-7.145-5.977c14.48 20.688 12.497 49.393-5.978 67.868s-47.179 20.457-67.868 5.977a53.286 53.286 0 005.977 7.145c20.714 20.714 54.299 20.714 75.013 0 20.716-20.714 20.716-54.299.001-75.013z" fill="#4c362a"/><path d="M170.492 419.71L92.29 341.508c-4.117-4.117-4.117-10.791 0-14.908l8.77-8.77c4.117-4.117 10.791-4.117 14.908 0l78.202 78.202c4.117 4.117 4.117 10.791 0 14.907l-8.77 8.77c-4.117 4.117-10.791 4.117-14.908.001z" fill="#563e2f"/><path d="M194.17 396.032l-13.123-13.123c4.117 4.117 4.117 10.791 0 14.907l-8.77 8.77c-4.117 4.117-10.791 4.117-14.908 0l13.123 13.123c4.117 4.117 10.791 4.117 14.907 0l8.77-8.77c4.117-4.116 4.117-10.79.001-14.907z" fill="#4c362a"/><path d="M439.815 108.301l-25.002 25.013-10.939 10.939-25.219 25.219-10.939 10.929-36.158 36.158-25.219 25.219-10.929 10.939-30.859 30.848c-2.402-8.31-6.877-16.146-13.424-22.693s-14.383-11.022-22.693-13.424l30.859-30.848 10.929-10.939 25.219-25.219 36.158-36.158 10.939-10.929 36.158-36.158 25.002-25.013z" fill="#725539"/><path d="M264.555 283.565l175.262-175.261-13.123-13.123-170.956 170.955a52.701 52.701 0 018.817 17.429z" fill="#6b4c32"/><g fill="#563e2f"><path d="M367.705 108.168l10.938-10.938 36.112 36.112-10.938 10.938zM331.484 144.138l10.932-10.932 36.111 36.111-10.932 10.933zM295.39 180.457l10.937-10.937 36.111 36.111-10.937 10.937zM259.257 216.777l10.932-10.932 36.111 36.111-10.932 10.932z"/></g></svg>
