<svg xmlns="http://www.w3.org/2000/svg" viewBox="0 0 512 512" id="svg-icon"><path d="M117.5 334C58.129 334 10 318.778 10 300v168c0 18.778 48.129 34 107.5 34 19.893 0 38.519-1.711 54.5-4.69v-168c-15.981 2.979-34.607 4.69-54.5 4.69z" fill="#994c14"/><path d="M172 329.31v168c31.715-5.912 53-16.824 53-29.31V300c0 12.486-21.285 23.398-53 29.31z" fill="#aaaaa0"/><path d="M117.5 10C58.129 10 10 28.129 10 87.5c0 42.403 24.551 129.768 60.213 181.96C34.552 274.994 10 286.589 10 300c0 18.778 48.129 34 107.5 34S225 318.778 225 300c0-13.411-24.552-25.006-60.213-30.54C200.449 217.268 225 129.903 225 87.5 225 28.129 176.871 10 117.5 10zm40.5 95c-11.046 0-20-8.954-20-20 0 11.046-8.954 20-20 20s-20-8.954-20-20c0 11.046-8.954 20-20 20s-20-8.954-20-20 8.954-20 20-20 20 8.954 20 20c0-11.046 8.954-20 20-20s20 8.954 20 20c0-11.046 8.954-20 20-20s20 8.954 20 20-8.954 20-20 20z" fill="#f5a889"/><path d="M394.5 334c-59.371 0-107.5-15.222-107.5-34v168c0 18.778 48.129 34 107.5 34 19.893 0 38.519-1.711 54.5-4.69v-168c-15.981 2.979-34.607 4.69-54.5 4.69z" fill="#994c14"/><path d="M449 329.31v168c31.715-5.912 53-16.824 53-29.31V300c0 12.486-21.285 23.398-53 29.31z" fill="#aaaaa0"/><path d="M441.787 269.46C477.449 217.268 502 129.903 502 87.5 502 28.129 453.871 10 394.5 10S287 28.129 287 87.5c0 42.403 24.551 129.768 60.213 181.96C311.552 274.994 287 286.589 287 300c0 18.778 48.129 34 107.5 34S502 318.778 502 300c0-13.411-24.552-25.006-60.213-30.54zM415 85c0 11.046-8.954 20-20 20s-20-8.954-20-20c0 11.046-8.954 20-20 20s-20-8.954-20-20 8.954-20 20-20 20 8.954 20 20c0-11.046 8.954-20 20-20s20 8.954 20 20c0-11.046 8.954-20 20-20s20 8.954 20 20-8.954 20-20 20-20-8.954-20-20z" fill="#f5a889"/><path d="M158 55c-7.676 0-14.688 2.898-20 7.657C132.688 57.898 125.676 55 118 55s-14.688 2.898-20 7.657C92.688 57.898 85.676 55 78 55c-16.542 0-30 13.458-30 30s13.458 30 30 30c7.676 0 14.688-2.898 20-7.657 5.312 4.759 12.324 7.657 20 7.657s14.688-2.898 20-7.657c5.312 4.759 12.324 7.657 20 7.657 16.542 0 30-13.458 30-30s-13.458-30-30-30zM78 95c-5.514 0-10-4.486-10-10s4.486-10 10-10 10 4.486 10 10-4.486 10-10 10zm40 0c-5.514 0-10-4.486-10-10s4.486-10 10-10 10 4.486 10 10-4.486 10-10 10zm40 0c-5.514 0-10-4.486-10-10s4.486-10 10-10 10 4.486 10 10-4.486 10-10 10zM465 85c0-16.542-13.458-30-30-30-7.676 0-14.688 2.898-20 7.657C409.688 57.898 402.676 55 395 55s-14.688 2.898-20 7.657C369.688 57.898 362.676 55 355 55c-16.542 0-30 13.458-30 30s13.458 30 30 30c7.676 0 14.688-2.898 20-7.657 5.312 4.759 12.324 7.657 20 7.657s14.688-2.898 20-7.657c5.312 4.759 12.324 7.657 20 7.657 16.542 0 30-13.458 30-30zM355 95c-5.514 0-10-4.486-10-10s4.486-10 10-10 10 4.486 10 10-4.486 10-10 10zm40 0c-5.514 0-10-4.486-10-10s4.486-10 10-10 10 4.486 10 10-4.486 10-10 10zm30-10c0-5.514 4.486-10 10-10s10 4.486 10 10-4.486 10-10 10-10-4.486-10-10z"/><path d="M235 87.5C235 47.583 214.615 0 117.5 0S0 47.583 0 87.5c0 22.34 6.428 56.102 17.195 90.311 10.024 31.85 22.813 61.277 36.648 84.539-12.435 2.751-23.176 6.304-31.56 10.472C3.866 281.976 0 292.654 0 300v168c0 30.23 60.909 44 117.5 44 19.798 0 39.277-1.68 56.33-4.858h.002C213.277 499.788 235 485.888 235 468V300c0-7.346-3.866-18.024-22.283-27.179-8.384-4.168-19.125-7.721-31.56-10.472 13.834-23.262 26.624-52.689 36.648-84.539C228.572 143.602 235 109.84 235 87.5zm-73 401.349c-10.973 1.643-22.833 2.653-35 3.003V422c0-5.51-4.49-10-10-10s-10 4.49-10 10v69.835c-23.719-.741-45.61-3.987-62.499-9.329C24.158 476.073 20 469.428 20 468V326.033C42.577 338.254 80.938 344 117.5 344c15.353 0 30.513-1.01 44.5-2.946v147.795zM215 468c0 2.596-8.115 10.663-33 16.912V337.469c13.463-3.019 24.526-6.885 33-11.474V468zm-58.47-204.182a9.999 9.999 0 006.724 15.523C202.261 285.396 215 296.764 215 300c0 1.428-4.158 8.073-24.501 14.507-19.355 6.122-45.28 9.493-72.999 9.493s-53.644-3.371-72.999-9.493C24.158 308.073 20 301.428 20 300c0-3.236 12.739-14.604 51.747-20.658a10 10 0 006.724-15.523C45.005 214.842 20 130.336 20 87.5 20 70.805 20 20 117.5 20S215 70.805 215 87.5c0 42.836-25.005 127.342-58.47 176.318zM489.717 272.821c-8.384-4.168-19.125-7.721-31.56-10.472 13.834-23.262 26.624-52.689 36.648-84.539C505.572 143.602 512 109.84 512 87.5 512 47.583 491.615 0 394.5 0S277 47.583 277 87.5c0 22.34 6.428 56.102 17.195 90.311 10.024 31.85 22.813 61.277 36.648 84.539-12.435 2.751-23.176 6.304-31.56 10.472C280.866 281.976 277 292.654 277 300v168c0 30.23 60.909 44 117.5 44 19.798 0 39.277-1.68 56.33-4.858h.002C490.277 499.788 512 485.888 512 468V300c0-7.346-3.866-18.024-22.283-27.179zM439 488.849c-10.673 1.598-22.183 2.6-34 2.977V422c0-5.51-4.49-10-10-10s-10 4.49-10 10v69.862c-24.103-.68-46.374-3.938-63.499-9.355C301.158 476.073 297 469.428 297 468V326.033C319.577 338.254 357.938 344 394.5 344c15.353 0 30.513-1.01 44.5-2.946v147.795zM492 468c0 2.596-8.115 10.663-33 16.912V337.469c13.463-3.019 24.526-6.885 33-11.474V468zm-24.501-153.493C448.144 320.629 422.219 324 394.5 324s-53.644-3.371-72.999-9.493C301.158 308.073 297 301.428 297 300c0-3.236 12.739-14.604 51.747-20.658a10 10 0 006.724-15.523C322.005 214.842 297 130.336 297 87.5c0-16.695 0-67.5 97.5-67.5S492 70.805 492 87.5c0 42.836-25.005 127.342-58.47 176.318a9.999 9.999 0 006.724 15.523C479.261 285.396 492 296.764 492 300c0 1.428-4.158 8.073-24.501 14.507z"/><path d="M107 382c0 5.51 4.49 10 10 10s10-4.49 10-10-4.49-10-10-10-10 4.49-10 10zM385 382c0 5.51 4.49 10 10 10s10-4.49 10-10-4.49-10-10-10-10 4.49-10 10z"/></svg>