<svg viewBox="0 0 71 36" xmlns="http://www.w3.org/2000/svg" id="svg-icon">
  <path
    d="M61.732 7.147c-.197-.735.24-1.49.974-1.687.735-.197 1.491.24 1.884 1.706 0 0 2.008 7.075 2.363 9.75.355 2.676.677 4.822.616 8.81-.062 3.989-.457 4.143-.783 4.234-.326.09-5.958 1.596-7.915 2.12-1.815.487-2.456.605-4.01-.694-.408-.34-.746-.684-1.945-1.733-2.049-1.793-8.013-6.928-8.013-6.928-.901-.72-1.103-2.134-.269-2.93.877-.838 2.01-.232 2.792.396.825.662 1.986 1.672 2.769 2.295.345.274.593.364.72.204.15-.192-.083-1.033-.188-1.426l-.03-.112-3.598-13.495a1.795 1.795 0 013.468-.929l2.407 8.984a.599.599 0 001.164-.275l-2.82-10.532a1.795 1.795 0 013.466-.931l2.813 10.499c.086.32.426.505.76.416a.613.613 0 00.449-.74v-.003c.003-.003-2.204-8.222-2.204-8.222a1.656 1.656 0 013.198-.859l2.205 8.227c.085.32.441.501.795.406.355-.095.572-.43.486-.75l-1.554-5.8zM8.72 7.147a1.378 1.378 0 00-.975-1.687c-.735-.197-1.49.24-1.884 1.706 0 0-2.008 7.075-2.363 9.75-.354 2.676-.677 4.822-.615 8.81.061 3.989.456 4.143.782 4.234.326.09 5.958 1.596 7.916 2.12 1.814.487 2.456.605 4.01-.694.407-.34.746-.684 1.945-1.733 2.048-1.793 8.013-6.928 8.013-6.928.9-.72 1.102-2.134.268-2.93-.877-.838-2.01-.232-2.792.396-.825.662-1.986 1.672-2.769 2.295-.345.274-.593.364-.719.204-.151-.192.082-1.033.188-1.426l.03-.112 3.597-13.495a1.795 1.795 0 10-3.467-.929l-2.407 8.984a.599.599 0 01-1.164-.275l2.82-10.532a1.795 1.795 0 00-3.467-.931l-2.813 10.499a.613.613 0 01-.76.416.613.613 0 01-.449-.74l.001-.003c-.004-.003 2.203-8.222 2.203-8.222a1.656 1.656 0 00-3.198-.859l-2.204 8.227c-.086.32-.442.501-.796.406-.354-.095-.572-.43-.486-.75l1.554-5.8z" />
</svg>
