<svg viewBox="0 0 26 26" xmlns="http://www.w3.org/2000/svg" id="svg-icon">
  <path
    d="M.103 11.318c-.138.321-.137.675.001.995l2.702 6.242h20.388l2.702-6.242c.138-.32.139-.674.001-.995a1.255 1.255 0 00-.726-.69A35.216 35.216 0 0013 8.46c-4.124 0-8.247.723-12.171 2.168-.33.122-.589.367-.727.69zM8.78 7.469v-.205A4.225 4.225 0 0113 3.044a4.225 4.225 0 014.22 4.22v.205c.592.068 1.181.152 1.77.25v-.455A5.996 5.996 0 0013 1.274a5.996 5.996 0 00-5.988 5.99v.455a36.5 36.5 0 011.768-.25zM3.342 19.793l1.805 4.173c.2.46.654.759 1.156.759h13.394a1.26 1.26 0 001.157-.76l1.805-4.172H3.342z" />
</svg>
