<svg height="512" viewBox="0 0 64 64" width="512" xmlns="http://www.w3.org/2000/svg" id="svg-icon"><path d="M61 22H3c-1.1 0-2 .899-2 2v4h62v-4c0-1.101-.9-2-2-2z" fill="#ccd1d9"/><path d="M51 37c1.66 0 3 1.351 3 3 0 1.66-1.34 3-3 3-1.649 0-3-1.34-3-3 0-1.649 1.351-3 3-3zM13 37c1.66 0 3 1.351 3 3 0 1.66-1.34 3-3 3-1.649 0-3-1.34-3-3 0-1.649 1.351-3 3-3z" fill="#545c66"/><path d="M29 51.96V52h-4v-4h4zM25 34h14v9H25z" fill="#ccd1d9"/><path d="M13 31a9 9 0 11-.001 18.001A9 9 0 0113 31zm3 9c0-1.649-1.34-3-3-3a3.01 3.01 0 00-3 3c0 1.66 1.351 3 3 3 1.66 0 3-1.34 3-3z" fill="#656d78"/><path d="M4 15h3v7H4zM57 15h3v7h-3zM39 43v5H25v-5z" fill="#aab2bd"/><path d="M51 31a9 9 0 11-.001 18.001A9 9 0 0151 31zm3 9c0-1.649-1.34-3-3-3a3.01 3.01 0 00-3 3c0 1.66 1.351 3 3 3 1.66 0 3-1.34 3-3z" fill="#656d78"/><path d="M39 48v4h-3.99v-4z" fill="#ccd1d9"/><path d="M39 28.011V34H25v-6h14z" fill="#aab2bd"/><path d="M59 12c.55 0 1 .45 1 1v2c0 .55-.45 1-1 1H5c-.55 0-1-.45-1-1v-2c0-.55.45-1 1-1z" fill="#656d78"/><path d="M35.01 51.96V52H29v-4h6.01z" fill="#ccd1d9"/><path d="M34.499 40.999h-4.998a1 1 0 110-2h4.998a1 1 0 110 2z" fill="#545c66"/><g fill="#aab2bd"><path d="M5.031 25.998a1.004 1.004 0 01-1.005-1c0-.553.442-1 .994-1h.011a1 1 0 110 2zM8.031 25.998a1.004 1.004 0 01-1.005-1c0-.553.442-1 .994-1h.011a1 1 0 110 2zM11.031 25.998a1.004 1.004 0 01-1.005-1c0-.553.442-1 .994-1h.011a1 1 0 110 2zM14.031 25.998a1.004 1.004 0 01-1.005-1c0-.553.442-1 .994-1h.011a1 1 0 110 2zM60 25.998h-2a1 1 0 110-2h2a1 1 0 110 2zM55 25.998h-2a1 1 0 110-2h2a1 1 0 110 2zM50 25.998h-2a1 1 0 110-2h2a1 1 0 110 2zM39 25.998H25a1 1 0 110-2h14a1 1 0 110 2z"/></g><path d="M32 26.998a1 1 0 01-1-1v-2a1 1 0 112 0v2a1 1 0 01-1 1z" fill="#e6e9ed"/><path d="M29 48h1v4h-1zM34 48h1v4h-1z" fill="#aab2bd"/><path d="M29.501 40.999c-1.379 0-2.5-1.121-2.5-2.5s1.121-2.5 2.5-2.5 2.5 1.121 2.5 2.5-1.121 2.5-2.5 2.5zm0-3c-.275 0-.5.225-.5.5s.225.5.5.5.5-.225.5-.5-.225-.5-.5-.5z" fill="#656d78"/><path d="M34.499 40.999c-1.379 0-2.5-1.121-2.5-2.5s1.121-2.5 2.5-2.5 2.5 1.121 2.5 2.5-1.121 2.5-2.5 2.5zm0-3c-.275 0-.5.225-.5.5s.225.5.5.5.5-.225.5-.5-.225-.5-.5-.5z" fill="#656d78"/><path d="M39 28.011V52h22c1.1 0 2-.9 2-2V28H39zM51 31a9 9 0 11-.001 18.001A9 9 0 0151 31zM25 43V28H1v22c0 1.1.9 2 2 2h22v-4zm-12 6a9 9 0 110-18 9 9 0 010 18z" fill="#e6e9ed"/></svg>
