<svg height="512pt" viewBox="0 0 512 512" width="512pt" xmlns="http://www.w3.org/2000/svg" id="svg-icon"><path d="M480.758 115.555L115.566 481.297C136.027 501.762 162.922 512 189.805 512c26.894 0 53.789-10.238 74.25-30.703l216.703-217.25c40.941-40.945 40.941-107.55 0-148.492zm0 0" fill="#ffb64c"/><path d="M395.902 30.695c-40.945-40.925-107.578-40.925-148.492 0L30.707 247.945c-40.941 40.946-40.941 107.551 0 148.493zm0 0" fill="#ffd396"/><path d="M492.91 46.86a73.627 73.627 0 00-11.23-14.93c-.36-.371-.711-.739-1.07-1.09-29.09-29.399-76.801-29.399-105.891 0L30.848 375.25c-29.61 29.621-29.578 76.922 0 105.898 28.953 29.563 76.261 29.641 105.902 0l343.86-344.41c24.48-24.218 28.581-61.34 12.3-89.879zm0 0" fill="#ff641a"/><path d="M480.61 136.738l-343.86 344.41c-29.64 29.641-76.95 29.563-105.902 0L480.609 30.84c.36.351.711.719 1.07 1.09 3.77 3.941 7.56 9.02 11.231 14.93 16.281 28.538 12.18 65.66-12.3 89.878zm0 0" fill="#f03800"/><path d="M406 93.5v30h-3c-14.402 0-25.8 11.7-25.8 25.8v3.302c0 30.597-25.2 55.796-56.102 55.796h-3c-14.399 0-25.797 11.704-25.797 25.801v3.301c0 30.602-25.203 55.8-55.801 55.8h-3.3c-14.102 0-25.802 11.4-25.802 25.802v3c0 30.898-25.199 56.097-55.8 56.097H148.3c-14.102 0-25.801 11.403-25.801 25.801h-30c0-30.898 25.2-55.8 55.8-55.8h3.298c14.101 0 25.8-11.7 25.8-26.098v-3c0-30.903 24.903-55.801 55.801-55.801h3.301c14.098 0 25.8-11.7 25.8-25.801v-3.3c0-30.9 24.9-55.802 55.798-55.802h3c14.402 0 26.101-11.699 26.101-25.796V149.3C347.2 118.699 372.098 93.5 403 93.5zm0 0" fill="#f2f6fc"/><path d="M406 105.54v17.96h-3c-14.402 0-25.8 11.7-25.8 25.8v3.302c0 30.597-25.2 55.796-56.102 55.796h-3c-14.399 0-25.797 11.704-25.797 25.801v3.301c0 30.602-25.203 55.8-55.801 55.8h-3.3c-14.102 0-25.802 11.4-25.802 25.802v3c0 30.898-25.199 56.097-55.8 56.097H148.3c-14.102 0-25.801 11.403-25.801 25.801h-14.59zm0 0" fill="#dce1eb"/></svg>
