<svg height="672" viewBox="-5 0 503 504" width="672" xmlns="http://www.w3.org/2000/svg" id="svg-icon"><path d="M341.547 136.441c-21.16-24.96-68.606-63.609-164-74.105v8.055c102.562 11.671 147.906 57.48 164 79.37zm0 0" fill="#545c66"/><path d="M192.766 328l-16 16 16 16-8 16 8 16-16 16 16 16v48l-72 32-32-40V270.023h104zm0 0" fill="#f6bb42"/><path d="M436.578 141.96l-96.215-35.198-55.457 86.148 56.051 166.832 151.672-50.941zm-78.484 25.368c-4.426 0-8-3.586-8-8.008 0-4.418 3.574-8 8-8 4.406 0 8 3.582 8 8 0 4.422-3.594 8.008-8 8.008zm0 0" fill="#ed5565"/><path d="M441.844 233.016L370.94 197.77l-35.265 70.91 5.105 15.168 35.254-70.918 70.906 35.254zm0 0" fill="#656d78"/><path d="M140.5 0C63.187 0 .5 62.68.5 140s62.688 140 140 140c77.328 0 140-62.68 140-140S217.828 0 140.5 0zm.266 88c-15.473 0-28-12.527-28-28s12.527-28 28-28c15.453 0 28 12.527 28 28s-12.547 28-28 28zm0 0M444.516 291.191l-75.84 25.48-17.625-53.503 24.984-50.238 50.762 25.238zm0 0" fill="#ffce54"/><path d="M120.766 476c-2.22 0-4-1.793-4-4V296c0-2.207 1.78-4 4-4 2.199 0 4 1.793 4 4v176c0 2.207-1.793 4-4 4zm0 0" fill="#edab37"/><g fill="#656d78"><path d="M405.3 287.496c-.702-2.098-2.968-3.238-5.066-2.512a3.994 3.994 0 00-2.511 5.063l5.097 15.168 7.575-2.543zm0 0M352.645 163.871c-.083 0-.145 0-.215-.008-161.754-8.496-202.176-94.328-203.817-97.976a3.997 3.997 0 012-5.278c2.016-.906 4.39-.015 5.293 1.993.395.847 40.442 85.054 196.938 93.277 2.199.121 3.902 1.992 3.785 4.2a4.003 4.003 0 01-3.984 3.792zm0 0"/></g></svg>
