<svg xmlns="http://www.w3.org/2000/svg" id="svg-icon" viewBox="0 0 512 512">
  <path
    d="M258.669 138.155L239.299 9.088C238.531 3.84 234.029 0 228.76 0h-.363c-5.419.171-9.835 4.373-10.261 9.771l-9.344 112.064c-.576 6.912-12.843 6.912-13.419 0L186.051 9.771C185.581 4.245 180.973 0 175.427 0c-5.547 0-10.176 4.245-10.624 9.771l-9.344 112.064c-.576 6.912-12.843 6.912-13.419 0L132.717 9.771C132.269 4.395 127.853.192 122.434 0h-.341c-5.269 0-9.771 3.84-10.539 9.088L92.205 138.155c-5.696 37.824 14.827 74.005 49.429 89.088L125.165 458.07c-.981 13.888 3.883 27.691 13.376 37.888C148.013 506.155 161.432 512 175.384 512h.085c13.931 0 27.371-5.845 36.864-16.043 9.493-10.197 14.357-24 13.376-37.888L209.24 227.243c34.603-15.083 55.125-51.264 49.429-89.088zM416.237 1.963c-2.816-2.005-6.443-2.475-9.707-1.344-.917.32-92.437 33.941-92.437 138.048 0 74.944 24.384 112.789 38.101 128.149l-13.653 13.653a10.593 10.593 0 00-3.072 6.485l-16.875 168.768a51.226 51.226 0 0012.949 39.445c9.686 10.71 23.574 16.833 37.996 16.833 28.224 0 51.2-22.976 51.2-51.2V10.667c.021-3.478-1.664-6.699-4.502-8.704z" />
  </svg>
