<svg viewBox="0 0 512 512" height="512" width="512" xmlns="http://www.w3.org/2000/svg" id="svg-icon"><path d="M2.184 112.6A16.29 16.29 0 000 120.75v161.933a16.301 16.301 0 008.15 14.116l140.238 80.966a16.29 16.29 0 008.15 2.184l21.858-190.852z" fill="#b9e4ef"/><path d="M156.537 168.359v211.59a16.29 16.29 0 008.15-2.184l79.028-45.627 69.36-113.847V120.75a16.29 16.29 0 00-2.184-8.15z" fill="#93d8e4"/><path d="M310.891 112.6a16.287 16.287 0 00-5.966-5.966L164.687 25.668a16.302 16.302 0 00-16.299 0L8.15 106.634a16.287 16.287 0 00-5.966 5.966l154.354 89.116z" fill="#daf1f4"/><path d="M245.586 259.416a13.958 13.958 0 00-1.871 6.984v138.766c0 4.99 2.662 9.601 6.984 12.096l120.175 69.383a13.964 13.964 0 006.984 1.871L389.37 324.27z" fill="#b9e4ef"/><path d="M278.78 131.139a7.725 7.725 0 00-10.554-2.828l-111.688 64.483L44.85 128.312a7.724 7.724 0 00-10.554 2.828 7.725 7.725 0 002.828 10.554l111.687 64.483v128.966a7.726 7.726 0 1015.452 0V206.177l111.688-64.483a7.727 7.727 0 002.829-10.555zM58.227 115.193a7.723 7.723 0 01-6.698-3.865 7.725 7.725 0 012.828-10.554l45.745-26.411a7.725 7.725 0 0110.554 2.828 7.725 7.725 0 01-2.828 10.554l-45.745 26.411a7.684 7.684 0 01-3.856 1.037z" fill="#ecf9f9"/><path d="M377.858 326.861v161.655c2.411 0 4.823-.624 6.984-1.871l120.175-69.383a13.967 13.967 0 006.984-12.096V266.4c0-2.495-.665-4.895-1.871-6.984z" fill="#93d8e4"/><path d="M510.129 259.416a13.958 13.958 0 00-5.113-5.112L384.841 184.92a13.969 13.969 0 00-13.968 0l-120.175 69.383a13.948 13.948 0 00-5.112 5.112l132.271 76.367z" fill="#daf1f4"/><g fill="#ecf9f9"><path d="M333.68 243.865a7.722 7.722 0 01-6.698-3.865 7.726 7.726 0 012.828-10.554l44.185-25.51a7.725 7.725 0 0110.554 2.828 7.726 7.726 0 01-2.828 10.554l-44.185 25.51a7.684 7.684 0 01-3.856 1.037zM483.568 274.75a7.726 7.726 0 00-10.554-2.828l-95.157 54.939-95.156-54.939a7.724 7.724 0 00-10.554 2.828 7.726 7.726 0 002.828 10.554l95.156 54.939V450.12a7.726 7.726 0 1015.452 0V340.243l95.157-54.939a7.725 7.725 0 002.828-10.554z"/></g></svg>
