<svg xmlns="http://www.w3.org/2000/svg" id="svg-icon" viewBox="0 0 512.002 512.002"><path d="M264.994 95.404c2.101 2.111 2.101 5.561 0 7.672l-68.393 68.651a5.403 5.403 0 01-7.641 0L95.494 77.904c-2.101-2.111-2.101-5.561 0-7.672l68.393-68.65a5.401 5.401 0 017.641 0l93.466 93.822z" fill="#d2873c"/><path d="M237.971 105.249l18.415-18.484-11.411-11.455-18.416 18.486-18.692-18.764 18.416-18.485-11.411-11.454-18.416 18.485-18.694-18.764 18.416-18.485-11.411-11.455-18.417 18.485-17.061-17.126-11.411 11.455 17.061 17.125-16.377 16.439L121.5 44.127 110.089 55.58l17.062 17.127-18.417 18.487 11.411 11.454 18.417-18.486 18.693 18.763-18.418 18.486 11.411 11.455 18.418-18.487 18.693 18.764-18.417 18.487 11.411 11.455 18.418-18.488 12.429 12.475 11.411-11.455-12.429-12.474 16.378-16.439 12.428 12.474 11.411-11.453-12.428-12.476zm-87.997-32.542l16.377-16.439 18.694 18.764-16.378 16.439-18.693-18.764zm48.797 48.983l-18.693-18.764 16.378-16.439 18.693 18.763-16.378 16.44z" fill="#965930"/><path d="M199.553 161.133L106.087 67.31c-2.101-2.111-2.101-5.561 0-7.672l2.333-2.341c-.001-.01-.005-.021-.006-.029L95.493 70.233c-2.101 2.111-2.101 5.561 0 7.672l93.466 93.822c2.102 2.11 5.541 2.11 7.641 0l10.38-10.42c-2.112 1.915-5.391 1.869-7.427-.174z" opacity=".1"/><ellipse cx="287.295" cy="82.526" rx="80.029" ry="78.451" fill="#a0c663"/><path d="M240.91 82.526c0-37.669 27.088-69.123 63.207-76.699a81.896 81.896 0 00-16.818-1.75c-44.196 0-80.025 35.123-80.025 78.449 0 43.329 35.829 78.449 80.025 78.449 5.77 0 11.394-.612 16.818-1.749-36.118-7.577-63.207-39.03-63.207-76.7z" opacity=".1"/><ellipse cx="236.534" cy="186.337" rx="80.029" ry="78.451" fill="#fff0c0"/><path d="M190.25 186.337c0-37.653 27.064-69.094 63.157-76.688a81.868 81.868 0 00-16.868-1.761c-44.196 0-80.023 35.12-80.023 78.448 0 43.326 35.827 78.449 80.023 78.449 5.789 0 11.428-.618 16.868-1.761-36.094-7.593-63.157-39.035-63.157-76.687z" opacity=".1"/><ellipse cx="182.701" cy="204.257" rx="10.582" ry="10.374" fill="#554141"/><ellipse cx="243.065" cy="221.508" rx="10.583" ry="10.374" fill="#d2873c"/><ellipse cx="225.824" cy="176.232" rx="10.582" ry="10.374" fill="#554141"/><ellipse cx="185.742" cy="155.345" rx="10.583" ry="10.375" fill="#d2873c"/><ellipse cx="220.631" cy="128.136" rx="10.583" ry="10.375" fill="#554141"/><ellipse cx="265.509" cy="144.572" rx="10.583" ry="10.375" fill="#d2873c"/><ellipse cx="338.057" cy="186.337" rx="80.029" ry="78.451" fill="#fca181"/><path d="M300.435 175.523h-8.234a8.084 8.084 0 010-16.167h8.234a8.083 8.083 0 018.084 8.083 8.085 8.085 0 01-8.084 8.084z" fill="#e86436"/><path d="M291.571 186.337c0-37.687 27.112-69.154 63.257-76.709a81.77 81.77 0 00-16.767-1.739c-44.198 0-80.025 35.12-80.025 78.448 0 43.326 35.827 78.449 80.025 78.449 5.752 0 11.359-.608 16.767-1.74-36.145-7.556-63.257-39.023-63.257-76.709z" opacity=".1"/><g fill="#e86436"><path d="M336.459 146.291h-8.234a8.084 8.084 0 010-16.167h8.234a8.083 8.083 0 110 16.167zM351.006 191.327h-8.234a8.084 8.084 0 010-16.167h8.234a8.084 8.084 0 010 16.167z"/></g><g ><path d="M379.687 233.364h-8.234a8.084 8.084 0 010-16.167h8.234a8.084 8.084 0 110 16.167zM383.731 160.068h-8.234a8.084 8.084 0 010-16.167h8.234a8.084 8.084 0 010 16.167zM303.474 216.118h-8.234a8.085 8.085 0 010-16.168h8.234a8.084 8.084 0 010 16.168z"/></g><path d="M377.909 268.449c2.978 0 4.53 2.271 3.449 5.045L289.264 509.92c-1.081 2.774-2.849 2.774-3.93 0L193.24 273.494c-1.081-2.774.472-5.045 3.449-5.045h181.22z" fill="#ffaa0e"/><path d="M364.892 315.769l6.298-16.169h-32.921v-31.093l-.002-.059h-16.164l-.002.059v31.094h-26.716v-30.839c0-.106-.011-.208-.016-.313h-16.136c-.004.104-.016.208-.016.313v30.839h-29.892v-31.094l-.002-.059h-16.164l-.002.059v31.094h-29.746l6.298 16.169h23.446v28.315h-12.417l6.298 16.169h6.119v15.708l16.169 41.508v-12.733h29.892v28.315h-23.824l6.298 16.169h17.526v44.991l6.119 15.711c1.081 2.774 2.849 2.774 3.93 0l6.119-15.709v-44.993h17.526l6.298-16.169h-23.824v-28.315H322.1v20.891l16.169-41.509v-23.865h9.296l6.298-16.169h-15.594V315.77l26.623-.001zm-85.677 72.797h-29.892v-28.315h29.892v28.315zm0-44.482h-29.892v-28.315h29.892v28.315zm42.885 44.482h-26.716v-28.315H322.1v28.315zm0-44.482h-26.716v-28.315H322.1v28.315z" fill="#fbd33b"/><path d="M227.069 273.494c-1.081-2.774.471-5.045 3.449-5.045H196.69c-2.978 0-4.531 2.271-3.449 5.045l92.094 236.426c1.081 2.774 2.849 2.774 3.93 0l14.949-38.377-77.145-198.049z" opacity=".1"/><path d="M371.536 288.757c-7.976 0-15.095-5.082-18.576-13.259-.458-1.074-1.432-1.767-2.482-1.767-1.05 0-2.025.693-2.481 1.767-3.485 8.179-10.603 13.259-18.578 13.259s-15.095-5.082-18.577-13.259c-.457-1.074-1.43-1.767-2.482-1.767-1.049 0-2.025.693-2.481 1.767-3.484 8.179-10.603 13.259-18.578 13.259s-15.095-5.079-18.577-13.259c-.458-1.074-1.431-1.767-2.482-1.767-1.052 0-2.024.693-2.481 1.765-3.485 8.178-10.603 13.261-18.579 13.261-7.975 0-15.094-5.079-18.578-13.259-.457-1.074-1.43-1.767-2.481-1.767s-2.025.693-2.481 1.765c-3.483 8.178-10.602 13.261-18.577 13.261-11.383 0-20.644-10.5-20.644-23.41V249.28c0-2.59 1.851-4.688 4.134-4.688h201.492c2.284 0 4.134 2.099 4.134 4.688v16.067c-.002 12.909-9.262 23.41-20.645 23.41z" fill="#965930"/><path d="M204.692 265.346v-16.067c0-2.59 1.851-4.688 4.134-4.688h-22.273c-2.283 0-4.134 2.099-4.134 4.688v16.067c0 12.911 9.261 23.41 20.644 23.41 4.065 0 7.903-1.325 11.153-3.701-5.722-4.167-9.524-11.441-9.524-19.709z" opacity=".1"/></svg>
