<svg height="464pt" viewBox="-64 0 464 464.08" width="464pt" xmlns="http://www.w3.org/2000/svg" id="svg-icon"><path d="M128.04 96.082h-48v112l24 24v200h208v-200l24-24v-112zm0 0" fill="#f1b355"/><path d="M324.473 96.082c-22.301 135.402-102.88 254.211-220.434 325.016v10.984h208v-200l24-24v-112zm0 0" fill="#f09c57"/><path d="M80.04 64.082h256v32h-256zm0 0" fill="#e6e6e6"/><path d="M104.04 432.082h208v32h-208zm0 0" fill="#afaab0"/><path d="M80.04 32.082c20.323.02 38.433 12.836 45.21 32h33.191C150.261 23.801 112.891-3.727 72 .406 31.11 4.536 0 38.98.04 80.082v16h32v-16c0-26.512 21.491-48 48-48zm0 0" fill="#e37c55"/><path d="M125.25 64.082c-7.84-21.973-30.34-35.125-53.332-31.18-22.988 3.95-39.813 23.852-39.879 47.18v16h48v-32zm0 0" fill="#f1b355"/><path d="M128.04 80.082v16h32v-16a80.307 80.307 0 00-1.599-16H125.25a47.706 47.706 0 012.79 16zm0 0" fill="#d36157"/><path d="M128.04 80.082a47.706 47.706 0 00-2.79-16H80.04v32h48zm0 0" fill="#f09c57"/><g fill="#f6c869"><path d="M240.04 160.078l16.003-48.004 48 16.004-16 48.004zm0 0M96.04 152.082l40-40 39.995 40-39.996 40zm0 0M176.04 144.082h64v64h-64zm0 0"/></g><path d="M256.04 208.082c30.929 0 56 25.07 56 56 0 30.926-25.071 56-56 56-30.927 0-56-25.074-56-56 0-30.93 25.073-56 56-56zm0 0" fill="#e37c55"/><path d="M256.04 240.082c13.257 0 24 10.742 24 24 0 13.254-10.743 24-24 24-13.255 0-24-10.746-24-24 0-13.258 10.745-24 24-24zm0 0" fill="#f1b355"/><path d="M120.04 304.078l16-64 64 16-16 64zm0 0" fill="#f6c869"/></svg>
