<svg height="512pt" viewBox="-118 0 512 512" width="512pt" xmlns="http://www.w3.org/2000/svg" id="svg-icon"><path d="M120.828 1.156a10.36 10.36 0 019.516 0c12.496 6.45 45.297 27.313 45.297 68.676 0 21.379-12.512 41.715-12.512 41.715H88.043S75.531 91.21 75.531 69.832c-.004-41.363 32.801-62.227 45.297-68.676zm0 0" fill="#ffe046"/><path d="M164.816 31.969c.254 2.16.399 4.351.399 6.578 0 31.101-25.215 56.316-56.317 56.316a56.073 56.073 0 01-31.437-9.586c3.512 14.782 10.582 26.27 10.582 26.27h75.082s12.516-20.336 12.516-41.715c0-15.336-4.512-27.852-10.825-37.863zm0 0" fill="#ffd508"/><path d="M120.05 64.465a10.25 10.25 0 0111.071 0c6.586 4.23 16.711 13.222 16.711 28.543 0 9.5-5.562 18.539-5.562 18.539h-33.372s-5.562-9.04-5.562-18.54c.004-15.32 10.125-24.312 16.715-28.542zm0 0" fill="#fcb54c"/><path d="M145.602 81.238c-9.856 8.485-22.676 13.625-36.704 13.625-1.855 0-3.691-.101-5.503-.277.55 8.898 5.503 16.96 5.503 16.96h33.375s5.563-9.038 5.563-18.538c-.004-4.445-.863-8.352-2.234-11.77zm0 0" fill="#fba72d"/><path d="M188.156 226.258H63.016V121.977c0-5.762 4.668-10.43 10.425-10.43h104.286c5.757 0 10.43 4.668 10.43 10.43zm0 0" fill="#dce6eb"/><path d="M175.64 111.547v90.726c0 5.762-4.667 10.43-10.425 10.43h-102.2v13.555h125.141V121.977c0-5.762-4.672-10.43-10.43-10.43zm0 0" fill="#c8d2dc"/><path d="M250.727 132.402c0 17.282-14.008 31.286-31.286 31.286s-31.285-14.004-31.285-31.286c0-17.277 14.008-31.285 31.285-31.285s31.286 14.008 31.286 31.285zm0 0" fill="#dce6eb"/><path d="M236.363 106.098a31.127 31.127 0 014.977 16.922c0 17.277-14.004 31.285-31.285 31.285a31.107 31.107 0 01-16.922-4.98c5.57 8.64 15.265 14.363 26.308 14.363 17.278 0 31.286-14.008 31.286-31.286 0-11.039-5.723-20.738-14.364-26.304zm0 0" fill="#c8d2dc"/><path d="M229.871 132.402c0 5.762-4.672 10.43-10.43 10.43-5.757 0-10.43-4.668-10.43-10.43 0-5.757 4.673-10.425 10.43-10.425 5.758 0 10.43 4.668 10.43 10.425zm0 0M188.156 163.691h77.274c5.703 0 10.324 4.621 10.324 10.32v10.641c0 5.7-4.621 10.325-10.324 10.325h-.207c-5.703 0-10.325 4.62-10.325 10.324v20.96h-66.742zm0 0" fill="#828282"/><path d="M263.242 163.691v12.512c0 3.457-2.8 6.258-6.258 6.258h-4.171c-5.758 0-10.426 4.668-10.426 10.426v14.601c0 3.457-2.801 6.258-6.258 6.258h-47.973v12.512h66.742v-20.961c0-5.703 4.622-10.324 10.325-10.324h.21c5.704 0 10.325-4.621 10.325-10.325v-10.636c0-5.703-4.621-10.325-10.324-10.325h-2.192zm0 0" fill="#5a5a5a"/><path d="M63.016 226.258h191.882v31.285H63.016zm0 0" fill="#828282"/><path d="M239.254 226.258h15.644v31.285h-15.644zm0 0" fill="#5a5a5a"/><path d="M63.016 257.547v244.129c0 5.703 4.62 10.324 10.324 10.324h171.234c5.703 0 10.324-4.621 10.324-10.324v-244.13zm0 0" fill="#f76c57"/><path d="M125.586 512V353.488c0-18.433 14.941-33.37 33.371-33.37s33.371 14.937 33.371 33.37V512zm0 0M239.254 257.547V512h5.32c5.703 0 10.324-4.621 10.324-10.324v-244.13zm0 0" fill="#e5554e"/><path d="M97.43 142.832a7.302 7.302 0 01-14.602 0 7.302 7.302 0 0114.602 0zm0 0M133.93 142.832a7.302 7.302 0 01-14.602 0 7.302 7.302 0 0114.602 0zm0 0M170.43 142.832a7.302 7.302 0 01-14.602 0 7.302 7.302 0 0114.602 0zm0 0M115.68 168.902a7.302 7.302 0 01-14.602 0 7.302 7.302 0 0114.602 0zm0 0M152.18 168.902a7.302 7.302 0 01-14.602 0 7.302 7.302 0 0114.602 0zm0 0M97.43 194.973c0 4.035-3.27 7.3-7.301 7.3a7.3 7.3 0 110-14.597c4.031 0 7.3 3.265 7.3 7.297zm0 0M133.93 194.973c0 4.035-3.27 7.3-7.301 7.3a7.3 7.3 0 110-14.597c4.031 0 7.3 3.265 7.3 7.297zm0 0M170.43 194.973c0 4.035-3.27 7.3-7.301 7.3a7.3 7.3 0 110-14.597c4.031 0 7.3 3.265 7.3 7.297zm0 0" fill="#828282"/><g fill="#ffe046"><path d="M215.27 33.777a7.745 7.745 0 01-7.743-7.742v-6.258a7.743 7.743 0 0115.485 0v6.258a7.743 7.743 0 01-7.742 7.742zm0 0M234.043 46.29h-6.258a7.743 7.743 0 010-15.484h6.258a7.743 7.743 0 010 15.484zm0 0M215.27 65.063a7.745 7.745 0 01-7.743-7.743v-6.257a7.743 7.743 0 0115.485 0v6.257a7.743 7.743 0 01-7.742 7.743zm0 0M202.758 46.29H196.5a7.743 7.743 0 010-15.484h6.258a7.743 7.743 0 010 15.484zm0 0M26.516 75.492a7.744 7.744 0 01-7.743-7.746v-6.254a7.743 7.743 0 1115.484 0v6.254a7.744 7.744 0 01-7.741 7.746zm0 0M45.285 88.004h-6.258a7.743 7.743 0 010-15.484h6.258a7.74 7.74 0 017.742 7.742 7.74 7.74 0 01-7.742 7.742zm0 0M26.516 106.777a7.744 7.744 0 01-7.743-7.746v-6.254a7.743 7.743 0 1115.484 0v6.254a7.744 7.744 0 01-7.741 7.746zm0 0M14 88.004H7.742a7.743 7.743 0 010-15.484H14a7.74 7.74 0 017.742 7.742A7.74 7.74 0 0114 88.004zm0 0"/></g></svg>
