<svg xmlns="http://www.w3.org/2000/svg" id="svg-icon" viewBox="0 0 511.998 511.998" >
  <path
    d="M511.825 430.965l-44.901-299.34c-1.749-11.654-11.57-20.112-23.354-20.112h-2.795v-32.79c0-8.579-6.979-15.558-15.558-15.558H70.666c-8.579 0-15.558 6.979-15.558 15.558v36.875c-5.267 3.582-9.018 9.258-10.034 16.028L.173 430.965a15.54 15.54 0 003.597 12.46 15.546 15.546 0 0011.789 5.406h179.064c11.062 0 20.774-7.851 23.092-18.668l20.079-93.702a.56.56 0 01.546-.441h35.319c.262 0 .491.186.546.441l20.079 93.703c2.318 10.817 12.029 18.668 23.092 18.668H496.44a15.54 15.54 0 0011.789-5.406 15.545 15.545 0 003.596-12.461zm-248.326-352.8h161.717c.308 0 .558.25.558.558v32.79h-.558a7.5 7.5 0 000 15h18.354a8.564 8.564 0 018.521 7.338l12.787 85.245-53.796-26.898a56.85 56.85 0 01-31.049-43.885l-2.725-21.8h15.674a7.5 7.5 0 000-15H263.499V78.165zm-16.115 48.348h25.289v103.178c0 8.637-4.601 16.763-12.007 21.207l-13.282 7.969V126.513zm-187.476 7.338a8.564 8.564 0 018.521-7.338h66.264l-2.725 21.8a56.853 56.853 0 01-31.049 43.885l-53.796 26.898 12.785-85.245zm172.476 188.384c-4.598 1.927-8.169 6.002-9.258 11.083l-12.905 60.223H62.607a7.5 7.5 0 000 15h144.4l-3.96 18.479c-.846 3.946-4.389 6.811-8.425 6.811H15.559c-.07 0-.256 0-.423-.194-.167-.194-.139-.377-.129-.447l3.697-24.649h11.672a7.5 7.5 0 000-15h-9.422l23.448-156.316 63.224-31.612c21.57-10.785 36.234-31.51 39.225-55.44l2.958-23.66h82.575v195.722zM70.107 111.513v-32.79a.56.56 0 01.559-.558h177.833v33.348H70.107zm218.765 221.804c-1.528-7.125-7.926-12.297-15.213-12.297h-26.275v-44.66l21-12.6c11.898-7.139 19.29-20.193 19.29-34.069V126.513h74.517l2.958 23.66c2.991 23.93 17.655 44.655 39.225 55.44l63.224 31.612 23.448 156.316H301.777l-12.905-60.224zm207.99 100.321c-.167.194-.353.194-.423.194H317.375c-4.036 0-7.579-2.864-8.425-6.811l-3.96-18.479h188.303l3.697 24.649a.517.517 0 01-.128.447z" />
  </svg>
