<svg xmlns="http://www.w3.org/2000/svg" id="svg-icon" viewBox="0 0 509.082 509.082" >
  <path
    d="M504.006 340.245l-64.717-61.341-40.865-133.839c-6.421-21.029-25.509-35.159-47.496-35.159H334.32c-4.143 0-7.5 3.358-7.5 7.5s3.357 7.5 7.5 7.5h16.607c15.347 0 28.668 9.862 33.15 24.539l38.969 127.63a938.543 938.543 0 01-31.256 5.218 7.502 7.502 0 001.097 14.919c.369 0 25.538-3.98 37.355-6.215l33.122 31.394a932.782 932.782 0 01-136.007 20.902 7.5 7.5 0 001.176 14.955c49.766-3.912 99.513-11.821 147.861-23.506l17.292 16.39c.135.127.543.515.351 1.239-.193.723-.74.855-.921.899l-20.146 4.872c-54.938 13.285-111.09 21.513-167.525 24.615v-39.038c0-11.192-9.105-20.297-20.297-20.297h-61.217c-11.191 0-20.297 9.105-20.297 20.297v39.038c-56.435-3.102-112.587-11.329-167.525-24.615l-20.146-4.872a1.167 1.167 0 01-.921-.899 1.17 1.17 0 01.351-1.239l17.292-16.39c48.348 11.685 98.095 19.594 147.861 23.506a7.5 7.5 0 001.176-14.955 932.516 932.516 0 01-136.006-20.901l33.124-31.396c58.01 10.986 116.719 16.505 175.544 16.505 35.889 0 71.827-2.05 107.648-6.155a7.501 7.501 0 006.598-8.305 7.492 7.492 0 00-8.305-6.598 928.222 928.222 0 01-274.291-9.366l7.097-23.243a7.499 7.499 0 00-4.982-9.363 7.497 7.497 0 00-9.363 4.982l-8.993 29.45-64.717 61.342c-4.328 4.102-6.063 10.23-4.525 15.992s6.093 10.211 11.889 11.613l20.146 4.872c72.594 17.554 147.271 26.455 221.956 26.455s149.362-8.901 221.956-26.455l20.146-4.872c5.796-1.401 10.352-5.851 11.889-11.613s-.199-11.89-4.527-15.992zm-213.56 3.472v39.738c-4.725.183-9.451.33-14.179.441V338.42h8.882a5.303 5.303 0 015.297 5.297zm-71.81 0a5.303 5.303 0 015.297-5.297h8.882v45.476a918.573 918.573 0 01-14.179-.441zm29.178 40.409V338.42h13.453v45.706c-2.242.016-11.21.016-13.453 0z" />
  <path
    d="M93.173 228.015c.73.223 1.468.329 2.193.329a7.502 7.502 0 007.17-5.312l22.468-73.586c4.482-14.678 17.804-24.54 33.15-24.54h144.203c4.143 0 7.5-3.358 7.5-7.5s-3.357-7.5-7.5-7.5H158.154c-21.988 0-41.075 14.129-47.496 35.159L88.19 218.652a7.5 7.5 0 004.983 9.363z" />
  </svg>
