<svg viewBox="0 0 31 36" xmlns="http://www.w3.org/2000/svg" id="svg-icon">
<path d="M21.7321 7.14747C21.5351 6.41237 21.9714 5.65681 22.7064 5.45986C23.4415 5.26289 24.197 5.69912 24.59 7.16589C24.59 7.16589 26.598 14.2411 26.9528 16.9164C27.3076 19.5917 27.6302 21.738 27.5686 25.7264C27.5069 29.7148 27.1121 29.8689 26.7862 29.9597C26.4603 30.0506 20.8282 31.5562 18.8706 32.0807C17.056 32.5669 16.4147 32.6852 14.8607 31.3863C14.4529 31.0453 14.1146 30.7017 12.9156 29.6527C10.8673 27.8604 4.90272 22.7251 4.90272 22.7251C4.0015 22.0049 3.80004 20.5909 4.634 19.7944C5.51099 18.9571 6.64356 19.5629 7.42607 20.1907C8.25148 20.8529 9.41205 21.8635 10.195 22.4858C10.54 22.7599 10.7884 22.8496 10.9141 22.6902C11.0656 22.4983 10.8319 21.6568 10.7267 21.2642L10.6969 21.1523C10.4446 20.2065 10.3252 19.759 7.09915 7.65742C6.84256 6.69981 7.41079 5.71571 8.3684 5.45912C9.32586 5.20257 10.3099 5.77073 10.5665 6.72834L12.9737 15.7119C13.0592 16.0311 13.3874 16.2207 13.7068 16.1351C14.0145 16.0527 14.2008 15.7449 14.1376 15.4369L11.3173 4.90455C11.0607 3.94686 11.6289 2.96278 12.5865 2.70617C13.5433 2.44979 14.5269 3.01732 14.784 3.97384L17.5972 14.4729C17.6828 14.7921 18.0228 14.9785 18.3565 14.8891C18.6905 14.7996 18.8915 14.4682 18.806 14.149L18.8052 14.1462C18.809 14.143 16.6021 5.92408 16.6021 5.92408C16.3654 5.04076 16.8895 4.13281 17.7731 3.89607C18.6555 3.65962 19.5628 4.183 19.8004 5.06537L22.0047 13.292C22.0902 13.6112 22.4465 13.7933 22.8005 13.6984C23.1545 13.6035 23.372 13.2677 23.2865 12.9486L21.7321 7.14747Z" />
</svg>
