<?xml version="1.0" encoding="iso-8859-1"?>
<svg version="1.1" xmlns="http://www.w3.org/2000/svg"
	 viewBox="0 0 512 512">
<g>
	<g>
		<path style="fill:#547580;" d="M256,379.586v123.586c0,4.875-3.952,8.828-8.828,8.828H117.76L256,379.586z"/>
		<path style="fill:#547580;" d="M388.414,256h114.759c4.875,0,8.828-3.952,8.828-8.828V35.31L388.414,256z"/>
	</g>
	<path style="fill:#84B5CB;" d="M476.69,0H52.966C23.713,0,0,23.713,0,52.966V476.69C0,496.191,15.809,512,35.31,512h82.477
		c9.365,0,18.346-3.72,24.968-10.342l358.902-358.902C508.28,136.134,512,127.153,512,117.788V35.31C512,15.809,496.191,0,476.69,0z
		 M88.276,459.034c-19.501,0-35.31-15.809-35.31-35.31c0-19.501,15.809-35.31,35.31-35.31s35.31,15.809,35.31,35.31
		C123.586,443.226,107.777,459.034,88.276,459.034z M88.276,123.586c-19.501,0-35.31-15.809-35.31-35.31s15.809-35.31,35.31-35.31
		s35.31,15.809,35.31,35.31c0,9.365-3.72,18.346-10.342,24.968C106.622,119.866,97.641,123.586,88.276,123.586z M423.724,123.586
		c-19.501,0-35.31-15.809-35.31-35.31s15.809-35.31,35.31-35.31c19.501,0,35.31,15.809,35.31,35.31
		c0,9.365-3.72,18.346-10.342,24.968C442.07,119.866,433.089,123.586,423.724,123.586z"/>
</g>
</svg>
