<?xml version="1.0" encoding="iso-8859-1"?>
<svg version="1.1" xmlns="http://www.w3.org/2000/svg"
	 viewBox="0 0 512.093 512.093">
<path style="fill:#C62828;" d="M0.074,330.76c0,74.112,49.365,181.333,138.667,181.333c50.667,0,103.125-61.973,153.856-121.899
	c38.144-44.949,77.397-91.435,102.144-91.435c66.901,0,117.333-41.28,117.333-96v-45.248l-512,130.581V330.76z"/>
<path style="fill:#EF5350;" d="M384.074,85.427c-16.917,0-31.851-0.256-45.333-0.491c-73.237-1.301-106.667-1.877-184.149,44.693
	c-13.376,8.021-26.112,15.317-38.08,22.187C48.906,190.557,0.074,218.547,0.074,288.093c0,74.112,49.365,181.333,138.667,181.333
	c50.667,0,103.125-61.973,153.856-121.899c38.144-44.949,77.397-91.435,102.144-91.435c66.901,0,117.333-41.28,117.333-96
	C512.074,125.341,497.524,85.427,384.074,85.427z"/>
<g>
	<path id="SVGCleanerId_0" d="M138.74,320.093c-30.4,0-53.333-13.76-53.333-32s22.933-32,53.333-32s53.333,13.76,53.333,32
		S169.14,320.093,138.74,320.093z M138.74,277.427c-20.651,0-32,8.021-32,10.667s11.349,10.667,32,10.667s32-8.021,32-10.667
		S159.391,277.427,138.74,277.427z"/>
</g>
<path style="fill:#CFD8DC;" d="M138.74,256.093c-30.4,0-53.333,13.76-53.333,32s22.933,32,53.333,32s53.333-13.76,53.333-32
	S169.14,256.093,138.74,256.093z"/>
<g>
	<path style="fill:#C62828;" d="M288.074,256.093c-2.831,0.005-5.548-1.115-7.552-3.115c-15.04-15.04-114.24-39.552-141.781-39.552
		c-5.891,0-10.667-4.776-10.667-10.667s4.776-10.667,10.667-10.667c27.051,0,135.424,24.341,156.885,45.781
		c4.171,4.16,4.179,10.914,0.019,15.085C293.639,254.97,290.914,256.098,288.074,256.093z"/>
	<path style="fill:#C62828;" d="M416.074,192.093c-2.831,0.005-5.548-1.115-7.552-3.115
		c-35.962-23.568-77.515-37.213-120.448-39.552c-5.891,0-10.667-4.776-10.667-10.667s4.776-10.667,10.667-10.667
		c48.607,2.121,95.613,17.997,135.552,45.781c4.171,4.16,4.179,10.914,0.019,15.085C421.639,190.97,418.914,192.098,416.074,192.093
		z"/>
</g>
<g>
	<path style="fill:#90A4AE;" d="M42.25,149.427c-5.891,0.011-10.675-4.757-10.686-10.648c-0.005-2.84,1.123-5.565,3.134-7.571
		c13.035-13.056,7.68-28.885-2.133-53.653c-9.152-23.061-20.523-51.733,2.133-74.347c4.171-4.165,10.928-4.16,15.093,0.011
		s4.16,10.928-0.011,15.093c-12.096,12.096-6.891,27.413,2.624,51.413c9.344,23.595,20.992,52.971-2.624,76.587
		C47.781,148.306,45.073,149.426,42.25,149.427z"/>
	<path style="fill:#90A4AE;" d="M106.25,106.76c-5.891-0.005-10.663-4.784-10.658-10.675c0.003-3.563,1.785-6.89,4.749-8.866
		c8.704-5.803,8.256-10.155-3.008-29.077c-8.661-14.528-23.104-38.848,3.008-56.256c4.901-3.27,11.525-1.947,14.795,2.955
		c3.27,4.901,1.947,11.525-2.955,14.795l0,0c-7.509,4.992-8.085,8.128,3.499,27.584c8.832,14.933,23.595,39.68-3.499,57.749
		C110.424,106.139,108.36,106.762,106.25,106.76z"/>
	<path style="fill:#90A4AE;" d="M170.25,64.093c-5.891-0.013-10.656-4.8-10.643-10.691c0.01-4.574,2.936-8.632,7.272-10.088
		l0.512-0.192c-1.28-1.152-2.688-2.325-3.776-3.243c-7.083-5.973-15.936-13.397-13.931-23.808
		c2.005-10.411,13.44-14.187,17.195-15.445c5.549-1.985,11.657,0.904,13.643,6.453c1.985,5.549-0.904,11.657-6.453,13.643
		c1.152,1.003,2.347,2.133,3.285,2.816c7.189,6.037,16.128,13.547,14.101,24.128c-2.027,10.581-13.909,14.571-17.835,15.872
		C172.534,63.903,171.396,64.091,170.25,64.093z"/>
</g>
<path d="M138.74,469.427c-89.301,0-138.667-107.221-138.667-181.333c0-69.547,48.832-97.536,116.416-136.299
	c11.989-6.848,24.725-14.165,38.101-22.187c77.568-46.549,110.933-45.973,184.149-44.693c13.483,0.235,28.416,0.512,45.333,0.512
	c113.451,0,128,39.893,128,74.667c0,54.72-50.432,96-117.333,96c-24.768,0-64,46.485-102.144,91.413
	C241.866,407.453,189.407,469.427,138.74,469.427z M307.402,105.885c-50.626-2.1-100.515,12.683-141.824,42.027
	c-13.504,8.107-26.368,15.488-38.4,22.421C61.194,208.115,21.407,230.92,21.407,288.093s39.211,160,117.333,160
	c40.789,0,92.203-60.757,137.579-114.347c44.949-53.12,83.776-98.987,118.421-98.987c55.616,0,96-31.403,96-74.667
	c0-18.645,0-53.333-106.667-53.333c-17.067,0-32.107-0.277-45.696-0.491C327.071,106.056,316.852,105.885,307.402,105.885z"/>
<path d="M138.74,512.093c-98.133,0-125.653-68.629-128-95.061L0.074,310.493c-0.589-5.891,3.709-11.144,9.6-11.733
	s11.144,3.709,11.733,9.6l10.667,106.667c1.856,21.163,24.619,75.733,106.667,75.733c41.131,0,98.859-60.992,149.781-114.795
	c50.048-52.864,93.269-98.539,127.552-98.539c49.536,0,74.667-25.131,74.667-74.667v-42.667c0-5.891,4.776-10.667,10.667-10.667
	c5.891,0,10.667,4.776,10.667,10.667v42.667c0,61.867-34.133,96-96,96c-25.109,0-69.312,46.699-112.043,91.861
	C247.54,450.333,189.066,512.093,138.74,512.093z"/>
<g>
	<path id="SVGCleanerId_0_1_" d="M138.74,320.093c-30.4,0-53.333-13.76-53.333-32s22.933-32,53.333-32s53.333,13.76,53.333,32
		S169.14,320.093,138.74,320.093z M138.74,277.427c-20.651,0-32,8.021-32,10.667s11.349,10.667,32,10.667s32-8.021,32-10.667
		S159.391,277.427,138.74,277.427z"/>
</g>
<g>
	<path id="SVGCleanerId_0_2_" d="M138.74,320.093c-30.4,0-53.333-13.76-53.333-32s22.933-32,53.333-32s53.333,13.76,53.333,32
		S169.14,320.093,138.74,320.093z M138.74,277.427c-20.651,0-32,8.021-32,10.667s11.349,10.667,32,10.667s32-8.021,32-10.667
		S159.391,277.427,138.74,277.427z"/>
</g>
<path d="M288.074,256.093c-2.831,0.005-5.548-1.115-7.552-3.115c-15.019-15.04-114.219-39.552-141.781-39.552
	c-5.891,0-10.667-4.776-10.667-10.667s4.776-10.667,10.667-10.667c27.051,0,135.445,24.341,156.885,45.781
	c4.171,4.16,4.179,10.914,0.019,15.085C293.639,254.97,290.914,256.098,288.074,256.093z"/>
<path d="M416.074,192.093c-2.831,0.005-5.548-1.115-7.552-3.115c-35.966-23.561-77.516-37.205-120.448-39.552
	c-5.891,0-10.667-4.776-10.667-10.667s4.776-10.667,10.667-10.667c48.605,2.133,95.607,18.007,135.552,45.781
	c4.171,4.16,4.179,10.914,0.019,15.085C421.639,190.97,418.914,192.098,416.074,192.093z"/>
<path d="M42.228,149.427c-5.891,0.011-10.675-4.757-10.686-10.648c-0.005-2.84,1.123-5.565,3.134-7.571
	c13.056-13.035,7.701-28.885-2.133-53.675c-9.131-23.04-20.501-51.712,2.133-74.325c4.171-4.171,10.933-4.171,15.104,0
	s4.171,10.933,0,15.104l0,0c-12.096,12.096-6.891,27.413,2.624,51.392c9.344,23.595,20.992,52.971-2.624,76.608
	C47.776,148.311,45.059,149.432,42.228,149.427z"/>
<path d="M106.25,106.76c-5.891-0.005-10.663-4.784-10.658-10.675c0.003-3.563,1.785-6.89,4.749-8.866
	c8.704-5.803,8.256-10.176-3.008-29.099c-8.661-14.528-23.125-38.827,3.008-56.235c4.901-3.27,11.525-1.947,14.795,2.955
	c3.27,4.901,1.947,11.525-2.955,14.795l0,0c-7.488,4.992-8.064,8.128,3.499,27.584c8.832,14.933,23.595,39.68-3.499,57.749
	C110.424,106.139,108.36,106.762,106.25,106.76z"/>
<path d="M170.228,64.093c-5.891,0.022-10.685-4.735-10.707-10.626c-0.017-4.623,2.945-8.73,7.336-10.174l0.533-0.171
	c-1.301-1.173-2.688-2.347-3.776-3.243c-7.104-5.952-15.936-13.397-13.931-23.808s13.419-14.187,17.173-15.445
	c5.623-1.756,11.605,1.379,13.361,7.002c1.657,5.305-1.038,10.994-6.193,13.072c1.152,1.024,2.368,2.133,3.307,2.837
	c7.168,6.037,16.107,13.568,14.101,24.128c-2.005,10.56-13.931,14.571-17.835,15.872C172.512,63.903,171.374,64.091,170.228,64.093z
	"/>
</svg>
