<svg height="512" viewBox="0 0 511.991 511.991" width="512" xmlns="http://www.w3.org/2000/svg" id="svg-icon"><path d="M238.85 494.183L127.267 300.914c-1.751-3.032-4.923-4.423-7.977-4.173l-5.507 7.63-11.292 173.125 135.74 26.017c1.95-2.545 2.449-6.162.619-9.33z" fill="#ffc269"/><path d="M454.194 19.414H323.391a16.803 16.803 0 00-11.467 4.52l-43.66 40.75a8.403 8.403 0 00-.989 11.185l114.795 153.06c3.361 4.482 10.084 4.482 13.445 0L510.31 75.868a8.403 8.403 0 00-.989-11.185l-43.66-40.75a16.807 16.807 0 00-11.467-4.519z" fill="#a4ccff"/><path d="M509.321 64.683l-43.66-40.749a16.805 16.805 0 00-11.467-4.52H439.21v50.418h72.678c-.229-1.908-1.066-3.749-2.567-5.149z" fill="#c3ddff"/><path d="M265.697 69.832c-.25 2.082.234 4.244 1.578 6.036l114.795 153.06a8.352 8.352 0 006.722 3.361V69.832z" fill="#739ad6"/><path d="M386.795 231.833a8.18 8.18 0 003.994 0l69.632-211.216a16.802 16.802 0 00-6.228-1.203H323.391c-2.153 0-4.263.419-6.228 1.203z" fill="#8bb3ea"/><path d="M388.792 19.414l-50.417 50.418H439.21z" fill="#a4ccff"/><path d="M449.058 506.787h-1.446l-56.122-17.292-61.519 17.292h-1.441a16.81 16.81 0 01-11.884-4.922l-32.171-32.171a16.805 16.805 0 01-4.922-11.884v-1.44l15.937-63.125-15.937-54.518v-1.446a16.81 16.81 0 014.922-11.884l32.167-32.167a16.805 16.805 0 0111.884-4.922h1.446l55.686 11.686 61.955-11.686h1.442c4.457 0 8.731 1.77 11.883 4.922l32.171 32.167a16.807 16.807 0 014.923 11.884v1.445l-13.541 54.268 13.541 63.374v1.441c0 4.457-1.77 8.731-4.922 11.883l-32.167 32.171a16.806 16.806 0 01-11.885 4.924z" fill="#b3e59f"/><path d="M220.728 60.78L128.295 7.453a16.8 16.8 0 00-8.399-2.249L36.491 75.337v106.632l83.406 70.132c2.9 0 5.799-.75 8.398-2.249l92.433-53.326a16.798 16.798 0 006.155-6.152l.004-123.436a16.795 16.795 0 00-6.159-6.158z" fill="#ff8086"/><path d="M19.066 196.526a16.799 16.799 0 01-6.129-6.119l41.466-23.941 65.495 29.41v56.225c-2.9 0-5.8-.749-8.398-2.249z" fill="#e5646e"/><path d="M10.739 74.726v107.853c.104 2.793.833 5.481 2.197 7.828l41.466-23.941V90.839L12.936 66.898c-1.363 2.347-2.093 5.035-2.197 7.828z" fill="#db4655"/><path d="M229.136 182.579V74.726a16.658 16.658 0 00-2.249-7.787l-41.414 23.9v75.627l41.406 23.906c1.363-2.347 2.153-5 2.257-7.793z" fill="#ff9a9f"/><path d="M19.066 60.779a16.799 16.799 0 00-6.129 6.119l41.466 23.941 65.495-29.41V5.204c-2.9 0-5.8.749-8.398 2.249z" fill="#e5646e"/><path d="M119.897 51.106L52.673 89.888v77.529l67.224 38.783 67.224-38.783V89.888z" fill="#ff8086"/><path d="M119.897 67.381L66.781 98.024v61.257l53.116 30.644 53.115-30.644V98.024z" fill="#ff9a9f"/><path d="M231.573 506.787a8.305 8.305 0 006.659-3.274l-72.995-44.063-85.78-8.858-78.399 51.826c1.392 2.534 4.044 4.369 7.348 4.369z" fill="#ffa95f"/><path d="M119.283 382.543l.006-85.802c-2.585.215-5.096 1.607-6.577 4.173L1.129 494.183c-1.582 2.741-1.404 5.808-.071 8.236l77.757-44.351z" fill="#ff8b5a"/><path d="M112.712 378.942l-44.01 76.227c-3.234 5.602.809 12.604 7.277 12.604h88.019c6.469 0 10.512-7.002 7.277-12.604l-44.009-76.227c-3.233-5.602-11.319-5.602-14.554 0z" fill="#ffe07d"/><path d="M498.032 456.369h-50.418V338.727h50.418z" fill="#ccf49f"/><path d="M329.971 456.369h-50.418V338.727h50.418z" fill="#95d6a4"/><path d="M329.972 288.309h117.642v50.418H329.972z" fill="#ccf49f"/><path d="M329.972 456.369h117.642v50.418H329.972z" fill="#95d6a4"/><path d="M414.001 439.563h-50.418c-9.282 0-16.806-7.524-16.806-16.806v-50.418c0-9.282 7.524-16.806 16.806-16.806h50.418c9.282 0 16.806 7.524 16.806 16.806v50.418c0 9.282-7.524 16.806-16.806 16.806z" fill="#ccf49f"/></svg>
