<svg xmlns="http://www.w3.org/2000/svg" id="svg-icon" viewBox="0 0 512 512"><path d="M176.724 120.299a101.2 101.2 0 00-11.835-6.71c-13.172-6.338-27.487-9.686-41.377-9.686-27.53 0-50.842 12.911-60.831 33.702-7.248 15.06-7.082 32.889.469 50.208 8.268 18.946 24.085 34.804 44.546 44.642 12.056 5.8 25.063 9.094 37.849 9.604l-14.647 30.395c-12.373-1.846-24.843-5.622-36.94-11.435-56.435-27.16-83.221-88.556-59.839-137.152 23.23-48.279 87.231-65.751 143.377-39.351" fill="#97f2e3"/><path d="M459.802 257.659c34.022 64.626 40.969 161.909-35.182 215.069-26.024 18.171-57.232 27.426-88.971 27.426h-73.554c-31.739 0-62.946-9.255-88.971-27.426-76.152-53.16-69.193-150.443-35.182-215.069 11.224-21.337 20.092-45.077 26.58-68.999 13.991-51.517 16.951-103.88 8.614-134.869-1.305-4.857-3.661-9.327-6.464-13.495-1.136-1.691-1.728-3.407-1.728-5.159 0-2.875 1.583-5.666 4.555-8.349C186.619 11.42 249.952.003 325.463.003c88.644 0 160.519 15.731 160.519 35.134 0 0 7.249 33.31-44.099 61.315-36.305 19.802-23.425 82.663 17.919 161.207z" fill="#76ddce"/><path d="M240.094 185.736l-75.572 2.924c13.991-51.517 16.951-103.88 8.614-134.869-1.305-4.857-3.661-9.327-6.464-13.495-1.136-1.691-1.728-3.407-1.728-5.159 0-2.875 1.583-5.666 4.555-8.349 25.589 11.84 53.281 26.181 64.287 37.188 22.691 22.689 6.308 121.76 6.308 121.76z" fill="#62c4b4"/><ellipse cx="325.46" cy="35.134" rx="160.519" ry="35.134" fill="#97f2e3"/><path d="M424.233 472.728c-26.024 18.171-57.232 27.426-88.971 27.426h-73.554c-31.739 0-62.946-9.255-88.971-27.426-76.152-53.16-69.193-150.443-35.182-215.069 19.065-36.233 31.352-79.426 36.717-118.656 3.48 8.675 30.748 16.069 69.144 19.693 16.214 1.522 34.421 2.38 53.655 2.38 67.658 0 122.582-10.608 123.174-23.753-.785 30.048 13.858 72.249 39.169 120.335 34.023 64.627 40.97 161.91-35.181 215.07z" fill="#ffd41d"/><path d="M301.131 500.154h-39.423c-31.739 0-62.946-9.255-88.971-27.426-76.152-53.16-69.193-150.443-35.182-215.069 19.065-36.233 31.352-79.426 36.717-118.656 3.48 8.675 30.748 16.069 69.144 19.693-1.365 16.395-3.709 32.573-7.527 46.273-14.498 51.953-59.201 253.285 65.242 295.185z" fill="#efc71d"/><path d="M420.644 137.107c0 13.242-55.154 23.97-123.186 23.97-19.343 0-37.635-.87-53.909-2.416-38.299-3.625-65.471-11.007-68.903-19.681a4.88 4.88 0 01-.375-1.873c0-1.051.35-2.078 1.027-3.093 5.509-8.3 32.863-15.271 70.485-18.654 15.706-1.426 33.213-2.211 51.674-2.211 68.034 0 123.187 10.728 123.187 23.958z" fill="#fce275"/><path d="M243.549 158.661c-38.299-3.625-65.471-11.007-68.903-19.681a383.7 383.7 0 00.652-4.966c5.509-8.3 32.863-15.271 70.485-18.654.17 15.042-.941 30.627-2.234 43.301z" fill="#e5cc61"/><path d="M195.741 471.085c-8.892 14.836-22.206 25.783-38.118 32.585-32.947 14.136-77.01 10.547-115.986-12.807l33.261-55.492 65.628-109.51c57.813 34.639 82.532 99.663 55.215 145.224z" fill="#ffa91f"/><path d="M157.623 503.67c-32.947 14.136-77.01 10.547-115.986-12.807l33.261-55.492 68.673-21.192c.001.001-17.675 57.752 14.052 89.491z" fill="#e2901a"/><g fill="#fce275"><ellipse transform="scale(-1) rotate(30.938 1475.685 -329.06)" cx="91.063" cy="408.376" rx="49.322" ry="96.181"/><ellipse cx="421.499" cy="352.258" rx="33.225" ry="63.43"/></g><g fill="#ffd41d"><path d="M92.705 397.429l37.648-62.818c-1.366-.333-2.839-.504-4.442-.504-8.822 0-20.043 4.974-31.596 14.006-3.89 3.041-7.705 6.455-11.414 10.186l9.804 39.13zM102.015 409.98l23.142 13.87c4.207-7.405 7.765-14.909 10.631-22.331l-33.773 8.461zM97.667 417.234l8.46 33.77c5.211-6.038 10.14-12.714 14.679-19.901l-23.139-13.869zM139.103 391.969c2.642-8.6 4.287-16.975 4.805-24.818.847-12.798-1.434-22.732-6.31-28.175L99.96 401.775l39.143-9.806zM43.067 424.747c-2.642 8.6-4.287 16.975-4.805 24.818-.847 12.798 1.434 22.732 6.31 28.175l37.637-62.799-39.142 9.806zM89.463 419.289l-37.648 62.818c1.366.333 2.838.504 4.441.504 8.822 0 20.044-4.974 31.596-14.006 3.89-3.041 7.705-6.455 11.414-10.186l-9.803-39.13zM80.154 406.738l-23.142-13.87c-4.207 7.405-7.765 14.909-10.631 22.331l33.773-8.461zM76.042 365.714c-5.211 6.038-10.141 12.714-14.679 19.901l23.14 13.869-8.461-33.77z"/></g></svg>
