<svg viewBox="0 0 20 20" xmlns="http://www.w3.org/2000/svg" id="svg-icon">
  <path
    d="M18.456 9.167h-5.247c-.85 0-1.543.708-1.543 1.58v4.987c0 2.353 1.87 4.266 4.167 4.266 2.297 0 4.166-1.913 4.166-4.266v-4.987c0-.872-.692-1.58-1.543-1.58zm-2.623 9.166c-1.423 0-2.5-1.148-2.5-2.604v-2.396h5v2.396c0 1.456-1.078 2.604-2.5 2.604z" />
  <path fill-rule="evenodd" clip-rule="evenodd"
    d="M5 6.667V1.654l-1.446 1.56c-.165.13-.221.294-.221.501v2.952h1.666zm-3.334.265V3.715c0-.688.278-1.303.828-1.742l2.04-1.62C4.822.126 5.184 0 5.556 0c.886 0 1.11.695 1.11 1.55v5.172c.624.22.835 1.058.835 1.82v2.321c0 .056-.006.11-.016.161.505.267.848.785.848 1.38v3.433C8.333 18.172 6.595 20 4.135 20 1.717 20 0 18.097 0 15.76v-3.356c0-.598.346-1.118.855-1.383a.833.833 0 01-.021-.188V8.542c0-.604.336-1.256.832-1.61zm4.997 5.472l-5.013.045.02 3.365c0 1.448.99 2.57 2.486 2.57 1.522 0 2.506-1.117 2.506-2.546v-3.434z" />
</svg>
