<svg xmlns="http://www.w3.org/2000/svg" id="svg-icon">
  <path
    d="M21.922.762A.762.762 0 0021.16 0H4.843a.762.762 0 00-.762.762v1.63h17.841V.762zM17.95 8.105a.762.762 0 011.524 0c0 .48.39.87.87.87h2.203l.124-3.226a2.405 2.405 0 00-.667-1.752l-.083-.082H4.081l-.084.082A2.405 2.405 0 003.33 5.75l.124 3.226h2.204c.48 0 .87-.39.87-.87a.762.762 0 011.523 0 2.396 2.396 0 01-2.393 2.393H3.513l.568 14.77a.762.762 0 00.76.732h5.712a.762.762 0 00.76-.702l1.127-14.281a.565.565 0 01.56-.519c.292 0 .538.228.561.519l1.128 14.281a.762.762 0 00.76.702h5.71c.41 0 .746-.323.762-.733l.568-14.769h-2.146a2.396 2.396 0 01-2.393-2.393z" />
</svg>
