<svg viewBox="0 0 20 20" xmlns="http://www.w3.org/2000/svg" id="svg-icon">
  <path
    d="M10.834 5a2.5 2.5 0 100-5 2.5 2.5 0 000 5zM17.5 5a2.5 2.5 0 100-5 2.5 2.5 0 000 5zm-6.666 7.5a2.5 2.5 0 100-5 2.5 2.5 0 000 5zm6.666 0a2.5 2.5 0 100-5 2.5 2.5 0 000 5zM10.834 20a2.5 2.5 0 100-5 2.5 2.5 0 000 5zm6.666 0a2.5 2.5 0 100-5 2.5 2.5 0 000 5zM1.425 8.592h3.817v9.35c0 1.133-.858 2.058-1.908 2.058-1.05 0-1.909-.925-1.909-2.058v-9.35zM6.54 3.367L5.524 6.69a2.973 2.973 0 00-.1.392H1.243a3.007 3.007 0 00-.1-.392L.127 3.358C-.131 2.523.01 1.611.502.93.919.341 1.542 0 2.218 0H4.45c.675 0 1.3.34 1.716.93.49.68.633 1.593.374 2.437z" />
  </svg>
