<svg viewBox="0 0 28 28" xmlns="http://www.w3.org/2000/svg" id="svg-icon">
  <path
    d="M27.985 1.016a1.152 1.152 0 00-.072-.288L27.911.72V.718a1.189 1.189 0 00-.159-.263 1.193 1.193 0 00-.27-.257l-.007-.004a1.15 1.15 0 00-.335-.148A1.164 1.164 0 0026.833 0h-8.166a1.167 1.167 0 000 2.333h5.35l-6.964 6.964A10.44 10.44 0 0010.5 7C4.71 7 0 11.71 0 17.5S4.71 28 10.5 28 21 23.29 21 17.5c0-2.41-.81-4.695-2.297-6.553l6.964-6.964v5.35a1.167 1.167 0 002.333 0V1.167c0-.025-.006-.048-.007-.072a1.19 1.19 0 00-.008-.079zM10.5 25.666c-4.503 0-8.167-3.663-8.167-8.166 0-4.504 3.664-8.167 8.167-8.167 2.18 0 4.233.85 5.777 2.387a8.137 8.137 0 012.39 5.78c0 4.503-3.664 8.167-8.167 8.167z"
    /></svg>
