<svg height="472pt" viewBox="-60 0 472 472.04" width="472pt" xmlns="http://www.w3.org/2000/svg" id="svg-icon"><path d="M176.02 256.04l-176-192h352zm0 0" fill="#aae1f9"/><path d="M249.941 144.04a79.996 79.996 0 01-118-.48l-72-79.439H.02l176 191.918 176-192H323.7zm0 0" fill="#57b7eb"/><path d="M176.02 104.04A607.547 607.547 0 0030.5 97.558l145.52 158.48L308.34 111.32a605.912 605.912 0 01-132.32-7.28zm0 0" fill="#f89c8d"/><path d="M249.941 144.04a79.996 79.996 0 01-118-.48l-43.203-47.52c-19.437-.4-38.879 0-58.238 1.6l145.52 158.4 132.32-144.72c-9.68.48-19.36.801-29.121.801zm0 0" fill="#f8664f"/><path d="M136.02 208.04a8.405 8.405 0 01-5.442-2.08 7.994 7.994 0 01-.477-11.36l176-191.998a8.04 8.04 0 0111.84 10.878l-176 192a8.007 8.007 0 01-5.921 2.56zm0 0" fill="#f9e109"/><path d="M208.02 160.04c0 17.675-14.329 32-32 32s-32-14.325-32-32c0-17.673 14.328-32 32-32s32 14.327 32 32zm0 0" fill="#c4f236"/><path d="M192.02 176.04c-17.672 0-32-14.325-32-32a31.248 31.248 0 012.878-13.122c-13.046 5.805-20.671 19.547-18.687 33.691 1.984 14.141 13.098 25.254 27.242 27.243 14.14 1.984 27.887-5.645 33.688-18.692a31.188 31.188 0 01-13.121 2.88zm0 0" fill="#a1d51c"/><path d="M184.02 160.04a8 8 0 11-16.001-.002 8 8 0 0116 .001zm0 0" fill="#7ab92d"/><path d="M272.02 472.04l-80-53.36V238.52h-32v180.16l-80 53.36zm0 0" fill="#aae1f9"/><path d="M200.82 461.8c-14.523-3.355-24.808-16.292-24.8-31.198v-120a54.724 54.724 0 0116-38.563v-33.52h-32v180.16l-80 53.36h165.359zm0 0" fill="#57b7eb"/></svg>
