<svg viewBox="0 0 512.238 512.238" xmlns="http://www.w3.org/2000/svg"><g><path d="m92.572 36.069v440.099c0 15.779 73.222 28.57 163.547 28.57s163.547-12.791 163.547-28.57v-440.099z" fill="#365e7d"/><path d="m92.572 36.069v33.552c44.042 6.558 101.143 10.518 163.547 10.518 39.703 0 77.256-1.604 110.666-4.46 15.105-1.291 28.069 10.636 28.069 25.797v374.692c0 15.05-66.612 27.381-151.141 28.488 4.095.054 8.232.082 12.406.082 90.324 0 163.547-12.791 163.547-28.57v-440.099z" fill="#2b4d66"/><ellipse cx="256.119" cy="36.069" fill="#c3d5ef" rx="163.547" ry="28.57"/><path d="m256.119 7.5c-7.192 0-14.275.082-21.222.239 80.298 1.818 142.325 13.808 142.325 28.331s-62.028 26.512-142.325 28.33c6.947.157 14.03.239 21.222.239 90.324 0 163.547-12.791 163.547-28.57s-73.223-28.569-163.547-28.569z" fill="#b7c8ea"/><circle cx="256.119" cy="277.572" fill="#df6b57" r="63.832"/><path d="m256.119 213.74c-3.823 0-7.562.355-11.2 1 29.91 5.297 52.632 31.403 52.632 62.833s-22.723 57.536-52.632 62.833c3.638.644 7.377 1 11.2 1 35.254 0 63.832-28.579 63.832-63.832s-28.578-63.834-63.832-63.834z" fill="#dd544f"/><g><path d="m427.166 327.886v-155.769c5.127-2.98 10.425-7.619 10.425-14.379 0-7.138-5.809-11.752-10.425-14.391v-107.276-.001-.001c0-33.301-137.79-36.069-171.047-36.069-20.202 0-39.957.633-58.714 1.882-4.133.275-7.261 3.849-6.985 7.981.274 4.134 3.88 7.262 7.981 6.985 18.428-1.226 37.847-1.848 57.718-1.848 40.457 0 79.144 2.61 108.931 7.352 34.172 5.438 43.948 11.52 46.48 13.718-2.532 2.198-12.309 8.279-46.48 13.718-29.787 4.741-68.474 7.352-108.931 7.352s-79.143-2.61-108.93-7.352c-34.373-5.471-44.062-11.592-46.524-13.756 3.87-3.515 20.934-11.278 68.003-16.562 4.116-.462 7.078-4.174 6.616-8.29-.461-4.116-4.166-7.077-8.29-6.616-23.094 2.592-42.46 6.202-56.007 10.44-11.125 3.48-25.914 9.45-25.914 21.065v.002.001 107.275c-4.615 2.639-10.425 7.253-10.425 14.391 0 6.76 5.297 11.4 10.425 14.379v155.768c-4.616 2.638-10.425 7.251-10.425 14.391 0 6.76 5.297 11.399 10.425 14.379v119.513c0 33.302 137.478 36.069 171.046 36.069 33.569 0 171.047-2.768 171.047-36.069v-119.512c5.127-2.98 10.425-7.619 10.425-14.379-.001-7.14-5.81-11.752-10.425-14.391zm-327.093-149.63c40.179 12.462 113.018 15.552 156.046 15.552 43.555 0 116.2-3.193 156.047-15.552v168.723c-36.259 13.227-115.406 16.368-156.047 16.368-40.582 0-119.773-3.136-156.046-16.368v-168.723zm156.046-106.117c39.767 0 122.524-3.553 156.047-19.066v109.367c-36.258 13.227-115.419 16.367-156.047 16.367-40.668 0-119.842-3.16-156.046-16.367v-109.367c33.816 15.649 116.452 19.066 156.046 19.066zm108.93 417.748c-29.787 4.74-68.474 7.352-108.931 7.352s-79.143-2.611-108.931-7.352c-38.361-6.105-45.979-13.021-47.115-14.343v-112.75c39.973 12.4 112.467 15.552 156.046 15.552 43.555 0 116.201-3.192 156.047-15.552v112.75c-1.136 1.322-8.753 8.237-47.116 14.343z"/><path d="m155.482 36.069c0 4.143 3.357 7.5 7.5 7.5h13.81c4.143 0 7.5-3.357 7.5-7.5s-3.357-7.5-7.5-7.5h-13.81c-4.143 0-7.5 3.358-7.5 7.5z"/><path d="m256.119 348.904c33.085 0 61.597-22.445 69.336-54.583.97-4.027-1.509-8.078-5.536-9.048-4.026-.969-8.078 1.51-9.048 5.536-6.109 25.374-28.624 43.095-54.752 43.095-31.062 0-56.332-25.271-56.332-56.332s25.271-56.332 56.332-56.332c26.128 0 48.643 17.721 54.752 43.095.97 4.027 5.02 6.5 9.048 5.536 4.027-.97 6.506-5.021 5.536-9.048-7.739-32.138-36.251-54.583-69.336-54.583-39.333 0-71.332 31.999-71.332 71.332s31.999 71.332 71.332 71.332z"/></g></g></svg>