<svg viewBox="0 0 512 512" height="512" width="512" xmlns="http://www.w3.org/2000/svg" id="svg-icon"><path d="M256 225.439l-21.333 115.895L256 454.355l139.356.683.586.001c30.893 0 59.944-11.989 81.859-33.796C499.854 399.297 512 370.077 512 338.964v-63.956c0-9.079-135.016-36.12-256-49.569z" fill="#dcd2cd"/><path d="M0 221.481v68.617c0 90.322 73.482 163.805 163.731 163.805l92.269.452V225.439C134.336 211.914 0 213.578 0 221.481z" fill="#efe2dd"/><path d="M396.775 168.56L320 167.827c-12.48-32.174-35.362-58.288-64-75.01l-10.667 152.516L256 370.022l139.43.683C451.445 370.98 497 325.647 497 269.631c0-55.49-44.736-100.605-100.225-101.071z" fill="#fc3636"/><path d="M188.58 72.645c-8.214-.433-16.531-.684-24.776-.684C81.622 71.961 15 138.583 15 220.765c0 82.183 66.622 148.805 148.805 148.805l92.195.452V92.817a149.133 149.133 0 00-67.42-20.172z" fill="#fc5b3f"/><g><path d="M478.347 187.899c-21.697-21.881-50.615-34.075-81.429-34.339l-66.958-.639C314.4 119.239 288.073 92.327 256 75.763l-10.667 9.571L256 110.567c22.224 15.047 39.929 36.684 50.015 62.685l3.677 9.478 86.94.83h.017c22.854.192 44.303 9.235 60.396 25.464C473.137 225.252 482 246.776 482 269.631c0 23.071-9.006 44.74-25.36 61.014s-38.087 25.203-61.136 25.06L256 355.022l-10.667 18.311L256 385.022l139.356.683.586.001c30.893 0 59.943-11.989 81.858-33.796 22.054-21.946 34.2-51.166 34.2-82.279 0-30.821-11.952-59.847-33.653-81.732z" fill="#efe2dd"/><path d="M163.805 354.57C90.024 354.57 30 294.545 30 220.765S90.024 86.961 163.805 86.961c7.569 0 15.639.223 23.986.663 24.879 1.312 48.348 9.496 68.209 22.943V75.763c-20.325-10.496-42.951-16.849-66.629-18.097-8.871-.468-17.473-.705-25.566-.705C73.482 56.961 0 130.443 0 220.765S73.482 384.57 163.731 384.57l92.269.452v-30z" fill="#faeee5"/></g><circle cx="165.374" cy="221.351" fill="#fffbf5" transform="rotate(-45 165.346 221.398)" r="41.667"/></svg>
