<svg viewBox="0 0 512 512" xmlns="http://www.w3.org/2000/svg"><g id="XMLID_87_"><g fill="#ffda8f"><circle id="XMLID_883_" cx="256" cy="89.194" r="79.194"/><g id="XMLID_877_"><circle id="XMLID_881_" cx="186.405" cy="194.48" r="79.194"/><circle id="XMLID_879_" cx="325.595" cy="194.48" r="79.194"/></g><g id="XMLID_863_"><circle id="XMLID_875_" cx="116.81" cy="304.806" r="79.194"/><circle id="XMLID_873_" cx="256" cy="304.806" r="79.194"/><circle id="XMLID_871_" cx="395.19" cy="304.806" r="79.194"/></g></g><path id="XMLID_237_" d="m308.304 502h-104.608c-99.243 0-179.696-80.453-179.696-179.696h464c0 99.243-80.453 179.696-179.696 179.696z" fill="#ccf5fc"/><g id="XMLID_113_"><path id="XMLID_143_" d="m488 312.304h-3.933c.208-2.491.317-4.994.317-7.499 0-43.483-31.279-79.791-72.516-87.624 1.935-7.362 2.921-14.956 2.921-22.702 0-43.088-30.712-79.136-71.395-87.408 1.192-5.855 1.8-11.834 1.8-17.878 0-6.286-.659-12.569-1.96-18.673-1.15-5.402-6.464-8.846-11.863-7.697-5.402 1.151-8.849 6.462-7.697 11.864 1.009 4.737 1.521 9.618 1.521 14.506 0 5.471-.644 10.868-1.897 16.121-27.169.69-51.354 13.594-67.267 33.41-16.3-20.33-40.878-32.717-67.322-33.4-1.255-5.255-1.902-10.654-1.902-16.131-.001-38.152 31.039-69.193 69.193-69.193 4.771 0 9.533.487 14.154 1.447 5.406 1.125 10.703-2.349 11.825-7.757 1.123-5.407-2.35-10.702-7.757-11.825-5.956-1.238-12.087-1.865-18.222-1.865-49.182 0-89.194 40.012-89.194 89.194 0 6.045.613 12.022 1.806 17.877-40.685 8.27-71.4 44.319-71.4 87.409 0 7.744.991 15.337 2.927 22.701-41.24 7.831-72.521 44.14-72.521 87.625 0 2.505.107 5.007.315 7.499h-3.933c-5.522 0-10 4.477-10 10 0 104.598 85.098 189.695 189.696 189.695h104.607c104.599 0 189.697-85.097 189.697-189.696 0-5.523-4.478-10-10-10zm-23.616-7.498c0 2.509-.138 5.014-.405 7.499h-137.581c-.267-2.484-.402-4.989-.402-7.499 0-38.154 31.04-69.194 69.193-69.194 38.155-.001 69.195 31.04 69.195 69.194zm-277.176 7.498c-.267-2.485-.402-4.99-.402-7.499 0-38.154 31.04-69.194 69.194-69.194 23.653 0 45.538 12.068 58.227 31.796-5.278 11.381-8.23 24.05-8.23 37.399 0 2.505.107 5.008.315 7.499h-119.104zm138.387-187.018c38.154 0 69.194 31.04 69.194 69.194 0 7.288-1.123 14.396-3.321 21.215-26.59 1.097-50.21 13.888-65.845 33.358-16.001-19.971-39.967-32.273-65.893-33.354-2.199-6.824-3.33-13.934-3.33-21.218 0-38.155 31.04-69.195 69.195-69.195zm-139.19 0c23.626 0 45.537 12.075 58.226 31.795-5.278 11.381-8.231 24.051-8.231 37.399 0 7.74.996 15.333 2.933 22.7-21.25 4.033-39.854 15.628-52.898 31.871-16.006-19.966-39.993-32.271-65.898-33.353-2.199-6.821-3.325-13.931-3.325-21.218-.001-38.154 31.039-69.194 69.193-69.194zm-138.789 179.52c0-38.154 31.04-69.194 69.194-69.194 23.63 0 45.538 12.073 58.226 31.795-5.278 11.381-8.231 24.051-8.231 37.399 0 2.505.107 5.007.315 7.499h-119.102c-.267-2.485-.402-4.991-.402-7.499zm260.688 187.194h-104.608c-90.213 0-164.21-70.764-169.405-159.696h443.418c-5.195 88.932-79.192 159.696-169.405 159.696z"/><path id="XMLID_149_" d="m256.069 57.07c1.861-1.86 2.931-4.44 2.931-7.07s-1.07-5.21-2.931-7.07c-1.859-1.86-4.439-2.93-7.069-2.93s-5.21 1.07-7.07 2.93-2.93 4.44-2.93 7.07 1.069 5.21 2.93 7.07 4.44 2.93 7.07 2.93 5.21-1.07 7.069-2.93z"/><path id="XMLID_150_" d="m273 75.17c0 2.63 1.069 5.21 2.93 7.07 1.86 1.86 4.44 2.93 7.07 2.93s5.21-1.07 7.069-2.93c1.86-1.86 2.931-4.44 2.931-7.07s-1.07-5.21-2.931-7.07c-1.859-1.86-4.43-2.93-7.069-2.93-2.63 0-5.21 1.07-7.07 2.93-1.861 1.86-2.93 4.43-2.93 7.07z"/><path id="XMLID_536_" d="m349 192.33c2.63 0 5.21-1.06 7.069-2.93 1.86-1.86 2.931-4.43 2.931-7.07 0-2.63-1.07-5.21-2.931-7.07-1.859-1.86-4.439-2.93-7.069-2.93s-5.21 1.07-7.07 2.93-2.93 4.44-2.93 7.07c0 2.64 1.069 5.21 2.93 7.07 1.86 1.87 4.44 2.93 7.07 2.93z"/><path id="XMLID_583_" d="m186.399 212.5c2.641 0 5.21-1.07 7.08-2.93 1.86-1.86 2.931-4.44 2.931-7.07s-1.07-5.21-2.931-7.07c-1.859-1.86-4.439-2.93-7.08-2.93-2.63 0-5.21 1.07-7.069 2.93-1.86 1.86-2.92 4.44-2.92 7.07s1.06 5.21 2.92 7.07c1.87 1.86 4.44 2.93 7.069 2.93z"/><path id="XMLID_615_" d="m82.33 276.33c-2.63 0-5.21 1.07-7.07 2.93s-2.93 4.44-2.93 7.07c0 2.64 1.069 5.21 2.93 7.07 1.86 1.87 4.44 2.93 7.07 2.93 2.64 0 5.21-1.06 7.069-2.93 1.86-1.86 2.931-4.43 2.931-7.07 0-2.63-1.07-5.21-2.931-7.07-1.859-1.86-4.429-2.93-7.069-2.93z"/><path id="XMLID_678_" d="m128 266.33c-2.63 0-5.21 1.07-7.07 2.93s-2.93 4.44-2.93 7.07c0 2.64 1.069 5.21 2.93 7.07 1.86 1.87 4.44 2.93 7.07 2.93s5.21-1.06 7.069-2.93c1.86-1.86 2.931-4.44 2.931-7.07s-1.07-5.2-2.931-7.07c-1.859-1.86-4.439-2.93-7.069-2.93z"/><path id="XMLID_681_" d="m227.67 276.33c-2.64 0-5.21 1.07-7.07 2.93-1.87 1.86-2.93 4.44-2.93 7.07 0 2.64 1.06 5.21 2.93 7.07 1.86 1.87 4.431 2.93 7.07 2.93 2.63 0 5.21-1.06 7.07-2.93 1.859-1.86 2.93-4.44 2.93-7.07s-1.07-5.21-2.93-7.07-4.44-2.93-7.07-2.93z"/><path id="XMLID_781_" d="m270 258.67c-2.63 0-5.21 1.06-7.07 2.92-1.86 1.87-2.93 4.44-2.93 7.08 0 2.63 1.069 5.21 2.93 7.07 1.86 1.86 4.44 2.93 7.07 2.93s5.21-1.07 7.069-2.93c1.86-1.86 2.931-4.44 2.931-7.07 0-2.64-1.07-5.21-2.931-7.08-1.859-1.86-4.439-2.92-7.069-2.92z"/><path id="XMLID_782_" d="m428.67 300.33c2.63 0 5.21-1.06 7.07-2.92 1.859-1.87 2.93-4.45 2.93-7.08s-1.07-5.21-2.93-7.07-4.44-2.93-7.07-2.93c-2.64 0-5.21 1.07-7.07 2.93-1.87 1.86-2.93 4.44-2.93 7.07s1.06 5.21 2.93 7.08c1.86 1.86 4.43 2.92 7.07 2.92z"/><path id="XMLID_783_" d="m373.33 263.68c-2.63 0-5.21 1.06-7.07 2.92s-2.93 4.44-2.93 7.07c0 2.64 1.069 5.21 2.93 7.08 1.86 1.86 4.44 2.92 7.07 2.92 2.64 0 5.21-1.06 7.069-2.92 1.86-1.87 2.931-4.44 2.931-7.08 0-2.63-1.07-5.21-2.931-7.07-1.859-1.86-4.429-2.92-7.069-2.92z"/><path id="XMLID_785_" d="m152.5 182.5c2.63 0 5.21-1.07 7.069-2.93 1.86-1.86 2.931-4.44 2.931-7.07s-1.07-5.21-2.931-7.07c-1.859-1.86-4.439-2.93-7.069-2.93s-5.21 1.07-7.07 2.93-2.93 4.44-2.93 7.07 1.069 5.21 2.93 7.07 4.44 2.93 7.07 2.93z"/><path id="XMLID_786_" d="m202 178.39c2.63 0 5.21-1.07 7.069-2.93 1.86-1.86 2.931-4.44 2.931-7.07s-1.07-5.21-2.931-7.07c-1.859-1.86-4.439-2.93-7.069-2.93s-5.21 1.07-7.07 2.93-2.93 4.44-2.93 7.07 1.069 5.21 2.93 7.07 4.44 2.93 7.07 2.93z"/><path id="XMLID_787_" d="m297.5 182.5c2.63 0 5.21-1.07 7.069-2.93 1.86-1.86 2.931-4.44 2.931-7.07s-1.07-5.21-2.931-7.07c-1.859-1.86-4.439-2.93-7.069-2.93s-5.21 1.07-7.07 2.93-2.93 4.44-2.93 7.07 1.069 5.21 2.93 7.07 4.44 2.93 7.07 2.93z"/><path id="XMLID_1018_" d="m228.43 79.43c-1.86 1.86-2.93 4.44-2.93 7.07s1.069 5.21 2.93 7.07 4.44 2.93 7.07 2.93 5.21-1.07 7.069-2.93c1.86-1.86 2.931-4.44 2.931-7.07s-1.07-5.21-2.931-7.07c-1.859-1.86-4.439-2.93-7.069-2.93s-5.21 1.07-7.07 2.93z"/><path id="XMLID_1060_" d="m311.899 43.09c2.631 0 5.21-1.06 7.07-2.92 1.86-1.87 2.93-4.44 2.93-7.07 0-2.64-1.069-5.21-2.93-7.08-1.86-1.86-4.439-2.93-7.07-2.93-2.64 0-5.21 1.07-7.08 2.93-1.859 1.87-2.92 4.44-2.92 7.08 0 2.63 1.061 5.2 2.92 7.07 1.87 1.86 4.441 2.92 7.08 2.92z"/></g></g></svg>