<svg id="svg-icon" xmlns="http://www.w3.org/2000/svg"><g fill="#a9aac9"><path d="M92.994 404.713l-42.687 42.671a33.421 33.421 0 00-14.379-2.662l-.016.001c-18.525.702-33.056 16.341-32.391 34.86.322 8.973 4.128 17.286 10.717 23.408 6.28 5.836 14.365 9.009 22.897 9.009.413 0 .827-.007 1.242-.021 8.987-.34 17.306-4.149 23.421-10.726 6.125-6.586 9.311-15.163 8.971-24.136-.286-7.962-3.34-15.185-8.197-20.784l41.026-41.01a7.501 7.501 0 00-10.604-10.61zm-42.179 86.325a18.591 18.591 0 01-12.989 5.95c-4.979.161-9.724-1.592-13.377-4.985-3.649-3.392-5.758-7.994-5.937-12.959-.369-10.268 7.688-18.938 17.962-19.332 10.287-.375 18.938 7.685 19.306 17.959a18.466 18.466 0 01-4.965 13.367zM506.302 2.196a7.496 7.496 0 00-10.606.003l-32.921 32.937a7.5 7.5 0 005.305 12.801c1.92 0 3.84-.732 5.305-2.198l32.921-32.937a7.502 7.502 0 00-.004-10.606z"/></g><path clip-rule="evenodd" d="M220.368 288.023c13.295 19.906 39.424 28.478 61.525 25.688 25.755-3.279 60.23-26.838 72.259-50.426 6.993-13.692 8.057-23.789 6.935-39.869-1.871-26.407-.201-44.213-24.547-67.513a56.848 56.848 0 00-2.791-2.531l-5.352.345-1.496-5.408c-14.619-9.32-30.906-10.96-46.906-12.398-24.604-2.215-48.575-.086-65.007 19.992-20.345 24.853-36.489 47.089-27.252 74.273 4.173 12.312 21.726 32.189 27.252 47.233.029.144.086.259.144.374l-.201 4.545 3.338 2.215c.286.747 1.581 2.703 2.099 3.48z" fill="#db885e" fill-rule="evenodd"/><path clip-rule="evenodd" d="M342.871 157.801c15.05 5.523 34.935 23.07 47.252 27.241 27.194 9.234 49.467-6.904 74.302-27.241 20.086-16.425 22.216-40.387 20-64.981-1.64-18.036-3.511-36.446-16.345-52.382a53.609 53.609 0 00-3.655-4.142c-23.28-24.336-41.122-22.667-67.539-24.537-17.036-1.208-27.367.086-42.388 8.227-22.072 12.024-44.834 46.571-47.942 70.936-2.532 19.992 4.259 43.292 20.345 57.387a49.522 49.522 0 006.849 5.063 48.642 48.642 0 009.121 4.429zM73.779 342.505c1.87 26.407.173 44.213 24.518 67.513 16.892 16.137 36.921 18.209 56.575 19.963 24.604 2.215 48.575.086 65.007-19.963 20.345-24.853 36.489-47.089 27.252-74.301-3.856-11.362-20.374-32.246-27.252-47.233a50.126 50.126 0 01-1.496-3.596l-.115-.316v-.029a47.88 47.88 0 01-3.137-6.731v-.029c-12.259-21.804-38.82-28.535-62.158-25.573-14.763 1.87-35.136 13.175-50.676 24.969-22.36 16.971-30.503 37.164-28.518 65.326z" fill="#db885e" fill-rule="evenodd"/><path clip-rule="evenodd" d="M324.138 218.237c1.122 16.08.058 26.177-6.935 39.869-11.942 23.415-45.957 46.773-71.654 50.34 11.54 5.005 24.518 6.76 36.345 5.264 25.755-3.279 60.23-26.838 72.259-50.426 6.993-13.692 8.057-23.789 6.935-39.869-1.871-26.407-.201-44.213-24.547-67.513a56.848 56.848 0 00-2.791-2.531 49.582 49.582 0 01-6.849-5.063c-14.619-9.32-30.906-10.96-46.906-12.398-2.504-.23-5.007-.403-7.482-.518 9.525 2.761 18.705 7.306 27.079 15.332 24.344 23.301 22.675 41.107 24.546 67.513zM451.705 90.605c2.216 24.566.086 48.556-20 64.953-15.482 12.657-29.928 23.703-45.208 27.989 1.266.604 2.475 1.122 3.626 1.496 27.194 9.234 49.467-6.904 74.302-27.241 20.086-16.425 22.216-40.387 20-64.981-1.64-18.036-3.511-36.446-16.345-52.382a53.609 53.609 0 00-3.655-4.142c-23.28-24.336-41.122-22.667-67.539-24.537-2.82-.201-5.468-.316-7.971-.374 14.561 1.927 27.511 6.702 42.791 22.667 8.115 8.457 12.662 17.72 15.424 27.327 2.733 9.549 3.683 19.416 4.575 29.225zM213.404 333.961c9.237 27.183-6.906 49.448-27.252 74.273-11.597 14.21-26.993 19.417-43.712 20.481 4.144.518 8.288.921 12.432 1.266 24.604 2.215 48.575.086 65.007-19.963 20.345-24.853 36.489-47.089 27.252-74.301-3.856-11.362-20.374-32.246-27.252-47.233a50.126 50.126 0 01-1.496-3.596l-.115-.316v-.029a47.88 47.88 0 01-3.137-6.731v-.029c-12.259-21.804-38.82-28.535-62.158-25.573-.835.115-1.698.23-2.561.403 12.777 3.711 24.144 11.19 31.021 23.444a51.257 51.257 0 003.108 6.731l.144.316c2.705 7.422 8.691 16.857 14.59 26.004 6.072 9.435 12.029 18.582 14.129 24.853z" fill="#c57142" fill-rule="evenodd"/><path d="M406.468 88.957a7.5 7.5 0 01-5.304-12.803l.115-.115a7.5 7.5 0 0110.607 10.607l-.115.115a7.483 7.483 0 01-5.303 2.196zM367.365 75.811a7.501 7.501 0 01-4.701-13.349l.144-.115a7.5 7.5 0 019.391 11.697l-.144.115a7.464 7.464 0 01-4.69 1.652zM398.348 55.963a7.501 7.501 0 01-5.863-12.171l.114-.144a7.5 7.5 0 0110.539-1.197 7.501 7.501 0 011.197 10.539l-.114.144a7.485 7.485 0 01-5.873 2.829z" fill="#c57142"/><path d="M167.048 123.821a7.5 7.5 0 01-4.904-13.178c-.002 0 2.567-2.349 3.939-5.908 1.617-4.194.858-8.365-2.32-12.749-5.998-8.273-7.979-16.279-5.89-23.797 1.741-6.266 5.877-10.327 8.099-12.509.291-.285.551-.535.756-.756a7.5 7.5 0 0110.993 10.205c-.338.364-.759.782-1.237 1.253-3.663 3.597-7.45 7.316-.575 16.799 12.486 17.223 2.867 32.923-3.963 38.817a7.47 7.47 0 01-4.898 1.823zM109.782 180.806a7.5 7.5 0 01-4.897-13.183c-.002 0 2.563-2.341 3.935-5.891 1.614-4.185.855-8.349-2.322-12.731-5.998-8.289-7.979-16.302-5.89-23.821 1.741-6.271 5.878-10.332 8.1-12.515.291-.285.55-.534.755-.755a7.499 7.499 0 0110.599-.394 7.5 7.5 0 01.394 10.599c-.337.364-.758.782-1.236 1.252-3.666 3.6-7.456 7.322-.572 16.835 12.486 17.223 2.861 32.903-3.974 38.788a7.478 7.478 0 01-4.892 1.816zM222.76 75.696a7.5 7.5 0 01-4.904-13.178c-.002 0 2.567-2.349 3.939-5.908 1.617-4.194.858-8.364-2.32-12.748-5.998-8.273-7.979-16.28-5.89-23.798 1.741-6.266 5.877-10.327 8.099-12.509.291-.285.551-.535.756-.756a7.5 7.5 0 1110.993 10.205c-.338.364-.759.782-1.237 1.253-3.663 3.597-7.45 7.316-.575 16.8 12.486 17.222 2.867 32.922-3.963 38.816a7.47 7.47 0 01-4.898 1.823z" fill="#d5cef7"/><path d="M287.706 213.943c-1.93 0-3.859-.74-5.326-2.22a7.5 7.5 0 01.046-10.606l.115-.114a7.5 7.5 0 0110.56 10.652l-.115.114a7.474 7.474 0 01-5.28 2.174zM248.603 200.798a7.501 7.501 0 01-4.701-13.349l.144-.115a7.5 7.5 0 019.391 11.697l-.144.115a7.464 7.464 0 01-4.69 1.652zM279.591 180.921a7.5 7.5 0 01-5.304-12.803l.115-.115a7.5 7.5 0 0110.607 10.607l-.115.115a7.481 7.481 0 01-5.303 2.196zM169.371 338.297a7.501 7.501 0 01-5.843-12.195l.115-.144a7.501 7.501 0 0111.697 9.391l-.115.144a7.491 7.491 0 01-5.854 2.804zM130.268 325.151a7.5 7.5 0 01-5.304-12.803l.144-.144a7.5 7.5 0 0110.607 10.607l-.144.144a7.477 7.477 0 01-5.303 2.196zM161.261 305.274a7.5 7.5 0 01-5.304-12.803l.115-.115a7.5 7.5 0 0110.607 10.607l-.115.115a7.48 7.48 0 01-5.303 2.196z" fill="#c57142"/></svg>