<svg height="512pt" viewBox="-9 0 512 512" width="512pt" xmlns="http://www.w3.org/2000/svg" id="svg-icon"><path d="M247.484 375.465a51.944 51.944 0 01-5.972 22.937 22.894 22.894 0 01-20.48 11.2 51.674 51.674 0 01-11.044 14.316 7.68 7.68 0 01-10-.57 8.898 8.898 0 00-10.87-1.211 125.436 125.436 0 01-25.259 11.57 7.617 7.617 0 01-7.742-1.707l-5.504-5.332a87.206 87.206 0 01-19.84 20.062 9.917 9.917 0 01-10.046.485 9.92 9.92 0 01-5.313-8.543 2.557 2.557 0 00-1.043-2.07 2.57 2.57 0 00-2.293-.38c-5.121 1.512-15.36 8.141-25.71 12.391a10.882 10.882 0 01-10.118-.996 10.88 10.88 0 01-4.883-8.918 2.293 2.293 0 00-1.043-1.902 2.285 2.285 0 00-2.16-.188 97.118 97.118 0 01-25.957 6.825 12.48 12.48 0 01-9.898-3.414 8.79 8.79 0 00-10.836-1.04l-10.524 6.829a7.029 7.029 0 01-7.332.289 7.02 7.02 0 01-3.597-6.391c.628-10.496.937-19.945 21.28-34.543a8.35 8.35 0 002.653-10.617l-1.152-2.234a8.532 8.532 0 01-.274-7.16 8.52 8.52 0 015.278-4.848 91.33 91.33 0 0119.777-4.516 6.775 6.775 0 006.164-6.672v-6.05a4.423 4.423 0 014.95-4.344c8-.442 15.812 2.543 21.476 8.21V355.84a5.648 5.648 0 012-4.223 5.65 5.65 0 014.492-1.281 44.7 44.7 0 0114.91 4.43 3.295 3.295 0 005.016-2.672v-12.7a5.697 5.697 0 017.195-5.382 90.319 90.319 0 0112.988 4.488c1.344.605 2.899.5 4.149-.281a4.408 4.408 0 002.078-3.602v-1.875a8.154 8.154 0 019.074-7.945c20.426 1.91 70.996 10.648 105.41 50.668zm0 0M247.484 59.238a51.944 51.944 0 01-5.972 22.938 22.883 22.883 0 01-20.48 11.195 51.7 51.7 0 01-11.009 14.32 7.676 7.676 0 01-10-.574 8.904 8.904 0 00-10.87-1.21 125.08 125.08 0 01-25.294 11.57 7.615 7.615 0 01-7.742-1.704l-5.512-5.335a87.128 87.128 0 01-19.84 20.062 9.927 9.927 0 01-10.046.488 9.92 9.92 0 01-5.313-8.543c.004-.82-.386-1.59-1.047-2.074s-1.511-.625-2.289-.375c-5.12 1.512-15.36 8.14-25.71 12.39a10.899 10.899 0 01-10.102-1.011 10.902 10.902 0 01-4.875-8.906 2.31 2.31 0 00-1.04-1.903 2.307 2.307 0 00-2.16-.187 97.299 97.299 0 01-25.96 6.828 12.499 12.499 0 01-9.899-3.414 8.784 8.784 0 00-10.836-1.04l-10.523 6.825a7.024 7.024 0 01-7.344.305 7.025 7.025 0 01-3.601-6.406c.628-10.497.937-19.942 21.28-34.543a8.344 8.344 0 002.653-10.614l-1.152-2.238a8.532 8.532 0 015.004-12.004 90.94 90.94 0 0119.785-4.516 6.775 6.775 0 006.187-6.656V46.84a4.42 4.42 0 014.95-4.344c8-.441 15.808 2.543 21.472 8.207V39.656a5.656 5.656 0 016.465-5.523 44.79 44.79 0 0114.91 4.43 3.29 3.29 0 005.016-2.665v-12.73a5.705 5.705 0 012.281-4.453 5.693 5.693 0 014.914-.93 90.319 90.319 0 0112.988 4.488 4.429 4.429 0 004.149-.28A4.413 4.413 0 00133 18.39v-1.88a8.148 8.148 0 012.77-6 8.14 8.14 0 016.304-1.976C162.5 10.48 213.07 19.22 247.484 59.238zm0 0" fill="#4c8056"/><path d="M247.484 59.223S83.304 49.922.7 126.719a5.878 5.878 0 01-.68-3.242c.598-10.497.938-19.97 21.333-34.559a8.43 8.43 0 002.644-10.582l-1.195-2.219a8.537 8.537 0 015.035-12.031 92.03 92.03 0 0119.797-4.523 6.749 6.749 0 006.144-6.657v-6.058a4.478 4.478 0 011.52-3.266 4.484 4.484 0 013.43-1.086 27.86 27.86 0 0121.418 8.191V39.68a5.698 5.698 0 016.488-5.547 44.75 44.75 0 0114.933 4.437c.993.606 2.235.64 3.262.102a3.333 3.333 0 001.774-2.746V23.125a5.724 5.724 0 017.168-5.375 92.52 92.52 0 0112.968 4.523c1.352.61 2.918.5 4.172-.289s2.028-2.156 2.059-3.636v-1.88a8.233 8.233 0 019.129-7.933c20.394 1.961 70.996 10.664 105.386 50.688zm0 0" fill="#71c285"/><path d="M247.484 290.133a8.532 8.532 0 01-8.53-8.531c0-47.473-56.81-102.403-93.868-102.403a8.533 8.533 0 110-17.066c45.824 0 110.934 61.789 110.934 119.469 0 4.71-3.82 8.53-8.536 8.53zm0 0" fill="#527f72"/><path d="M247.484 375.465s-164.18-9.3-246.785 67.5a5.878 5.878 0 01-.68-3.242c.598-10.496.938-19.97 21.333-34.559a8.43 8.43 0 002.644-10.582l-1.195-2.305a8.482 8.482 0 01-.262-7.144 8.468 8.468 0 015.297-4.801 86.998 86.998 0 0119.797-4.523 6.749 6.749 0 006.144-6.657v-6.058a4.382 4.382 0 011.489-3.301 4.386 4.386 0 013.46-1.05 27.847 27.847 0 0121.419 8.19v-11.007a5.713 5.713 0 011.992-4.238 5.71 5.71 0 014.496-1.31 44.75 44.75 0 0114.933 4.438 3.321 3.321 0 005.035-2.645v-12.8a5.636 5.636 0 012.258-4.453 5.644 5.644 0 014.91-.922 93.004 93.004 0 0112.97 4.52 4.447 4.447 0 006.23-3.922v-1.88a8.238 8.238 0 019.129-7.938c20.394 1.966 70.996 10.67 105.386 50.689zm0 0" fill="#71c285"/><path d="M247.484 512a8.533 8.533 0 01-8.53-8.535V8.535a8.533 8.533 0 1117.066 0v494.93a8.534 8.534 0 01-8.536 8.535zm0 0" fill="#4fba6f"/><path d="M247.484 59.238a51.996 51.996 0 005.973 22.938 22.883 22.883 0 0020.48 11.195 51.7 51.7 0 0011.008 14.32 7.681 7.681 0 0010.004-.574 8.903 8.903 0 0110.871-1.21 124.885 124.885 0 0025.293 11.57c2.696.925 5.68.27 7.739-1.704l5.511-5.335a87.206 87.206 0 0019.84 20.062 9.934 9.934 0 0010.05.488 9.916 9.916 0 005.31-8.543 2.558 2.558 0 013.34-2.45c5.117 1.513 15.359 8.142 25.71 12.392a10.883 10.883 0 0014.973-9.918 2.304 2.304 0 011.043-1.903 2.306 2.306 0 012.16-.187 97.272 97.272 0 0025.957 6.828c3.64.367 7.258-.883 9.899-3.414a8.784 8.784 0 0110.835-1.04l10.524 6.825a7.025 7.025 0 007.344.305 7.029 7.029 0 003.605-6.406c-.633-10.497-.941-19.942-21.285-34.543a8.344 8.344 0 01-2.652-10.614l1.152-2.238a8.546 8.546 0 00.277-7.16 8.544 8.544 0 00-5.277-4.844 90.907 90.907 0 00-19.781-4.516 6.777 6.777 0 01-6.196-6.656V46.84a4.42 4.42 0 00-4.95-4.344 28.162 28.162 0 00-21.468 8.207V39.656a5.667 5.667 0 00-1.984-4.226 5.652 5.652 0 00-4.484-1.297 44.818 44.818 0 00-14.91 4.43 3.29 3.29 0 01-5.016-2.665v-12.73a5.693 5.693 0 00-2.281-4.453 5.693 5.693 0 00-4.914-.93 90.27 90.27 0 00-12.985 4.488 4.437 4.437 0 01-4.152-.28 4.423 4.423 0 01-2.078-3.602v-1.88a8.159 8.159 0 00-2.766-6 8.15 8.15 0 00-6.305-1.976c-20.43 1.945-71 10.684-105.414 50.703zm0 0" fill="#4c8056"/><path d="M247.484 59.223s164.184-9.301 246.786 67.496c.535-.992.77-2.117.683-3.242-.598-10.497-.941-19.97-21.336-34.559a8.434 8.434 0 01-2.644-10.582l1.195-2.219a8.543 8.543 0 00.277-7.183 8.527 8.527 0 00-5.312-4.848 91.978 91.978 0 00-19.797-4.523 6.752 6.752 0 01-6.145-6.657v-6.058a4.478 4.478 0 00-1.52-3.266 4.479 4.479 0 00-3.429-1.086 27.86 27.86 0 00-21.418 8.191V39.68a5.694 5.694 0 00-6.484-5.547 44.75 44.75 0 00-14.934 4.437 3.322 3.322 0 01-3.265.102 3.32 3.32 0 01-1.77-2.746V23.125a5.73 5.73 0 00-7.168-5.375 92.395 92.395 0 00-12.973 4.523 4.414 4.414 0 01-6.226-3.925v-1.88a8.237 8.237 0 00-2.832-5.964 8.21 8.21 0 00-6.3-1.969c-20.395 1.961-70.997 10.664-105.388 50.688zm0 0" fill="#71c285"/><path d="M247.484 375.465a51.996 51.996 0 005.973 22.937 22.894 22.894 0 0020.48 11.2 51.748 51.748 0 0011.043 14.316 7.68 7.68 0 0010-.57 8.898 8.898 0 0110.872-1.211 125.37 125.37 0 0025.261 11.57 7.61 7.61 0 007.739-1.707l5.503-5.332a87.206 87.206 0 0019.84 20.062 9.918 9.918 0 0010.047.485 9.92 9.92 0 005.313-8.543 2.564 2.564 0 013.336-2.45c5.12 1.512 15.359 8.141 25.71 12.391a10.898 10.898 0 0010.102-1.011 10.89 10.89 0 004.875-8.903 2.3 2.3 0 011.04-1.902 2.287 2.287 0 012.16-.188 97.145 97.145 0 0025.96 6.825 12.48 12.48 0 009.899-3.414 8.79 8.79 0 0110.836-1.04l10.523 6.829a7.03 7.03 0 0010.957-6.102c-.633-10.496-.941-19.945-21.285-34.543a8.35 8.35 0 01-2.652-10.617l1.152-2.234a8.546 8.546 0 00.277-7.16 8.54 8.54 0 00-5.277-4.848 91.363 91.363 0 00-19.781-4.516 6.772 6.772 0 01-6.16-6.672v-6.05a4.437 4.437 0 00-1.504-3.278 4.435 4.435 0 00-3.446-1.066 28.177 28.177 0 00-21.48 8.21V355.84a5.658 5.658 0 00-6.492-5.504 44.727 44.727 0 00-14.91 4.43 3.295 3.295 0 01-5.016-2.672v-12.7a5.686 5.686 0 00-2.281-4.449 5.682 5.682 0 00-4.914-.933 90.27 90.27 0 00-12.985 4.488 4.415 4.415 0 01-4.152-.281 4.417 4.417 0 01-2.078-3.602v-1.875a8.15 8.15 0 00-2.778-5.98 8.15 8.15 0 00-6.293-1.965c-20.43 1.91-71 10.648-105.414 50.668zm0 0" fill="#4c8056"/><g fill="#71c285"><path d="M247.484 375.465s164.184-9.3 246.786 67.5c.535-.992.77-2.117.683-3.242-.598-10.496-.941-19.97-21.336-34.559a8.434 8.434 0 01-2.644-10.582l1.195-2.305a8.467 8.467 0 00.262-7.144 8.468 8.468 0 00-5.297-4.801 86.903 86.903 0 00-19.797-4.523 6.752 6.752 0 01-6.145-6.657v-6.058a4.377 4.377 0 00-4.95-4.352 27.847 27.847 0 00-21.417 8.192v-11.008a5.699 5.699 0 00-1.992-4.238 5.706 5.706 0 00-4.492-1.31 44.75 44.75 0 00-14.934 4.438 3.322 3.322 0 01-5.035-2.644v-12.8a5.64 5.64 0 00-2.262-4.454 5.635 5.635 0 00-4.906-.922 92.878 92.878 0 00-12.973 4.52 4.441 4.441 0 01-6.227-3.922v-1.88a8.23 8.23 0 00-2.831-5.964 8.229 8.229 0 00-6.3-1.973c-20.395 1.965-70.997 10.668-105.388 50.688zm0 0M247.484 349.867a8.533 8.533 0 01-8.53-8.535c0-57.676 65.108-119.465 110.933-119.465 4.71 0 8.531 3.82 8.531 8.531a8.533 8.533 0 01-8.531 8.536c-37.063 0-93.867 54.93-93.867 102.398a8.534 8.534 0 01-8.536 8.535zm0 0"/></g></svg>
