<svg viewBox="0 0 510 510" xmlns="http://www.w3.org/2000/svg" id="svg-icon">
  <path
    d="M295 388c-86.191 0-82.789.34-88.82-.87L16 349.09V416h478v-66.91C285.953 390.706 301.397 388 295 388zM16 495c0 8.28 6.72 15 15 15h448c8.28 0 15-6.72 15-15v-49H16z" />
  <path d="M230 294h50v58h-50z" />
  <path
    d="M0 303c0 7.15 5.05 13.31 12.06 14.71L200 355.3V279c0-8.28 6.72-15 15-15h80c8.28 0 15 6.72 15 15v76.3l187.94-37.59c7.01-1.4 12.06-7.56 12.06-14.71v-73H0zM495 128h-97.786C389.693 56.173 328.785 0 255 0S120.307 56.173 112.786 128H15c-8.28 0-15 6.72-15 15v57h510v-57c0-8.28-6.72-15-15-15zm-352.002 0c7.36-55.243 54.779-98 112.002-98s104.643 42.757 112.002 98z" />
  </svg>
