<svg viewBox="0 0 512 512" xmlns="http://www.w3.org/2000/svg"><g><path d="m503 504.5h-494c-.828 0-1.5-.672-1.5-1.5v-494c0-.828.672-1.5 1.5-1.5h494c.828 0 1.5.672 1.5 1.5v494c0 .828-.672 1.5-1.5 1.5z" fill="#93d8e4"/><path d="m503 7.5h-38.5v402.579c0 41.102-33.319 74.421-74.421 74.421h-382.579v18.5c0 .828.672 1.5 1.5 1.5h494c.828 0 1.5-.672 1.5-1.5v-494c0-.828-.672-1.5-1.5-1.5z" fill="#7ad0df"/><path d="m124.712 418.614 25.691-96.923c.56-2.114 1.937-3.92 3.828-5.019l99.971-58.127c3.947-2.295 9.007-.948 11.291 3.004l27.59 47.74c1.006 1.74 2.611 3.053 4.516 3.693l72.111 24.225c3.924 1.318 6.264 5.339 5.471 9.402l-22.804 116.868c-.804 4.122-4.577 6.983-8.764 6.644l-164.827-13.332c-1.256-.102-2.472-.49-3.555-1.134l-46.766-27.837c-3.164-1.885-4.697-5.642-3.753-9.204z" fill="#ecf9f9"/><path d="m447.836 293.541-27.495 31.494c-2.976 3.408-2.651 8.577.727 11.587l22.886 20.39c3.424 3.051 8.679 2.724 11.698-.727l21.806-24.921c2.414-2.759 2.718-6.78.747-9.87l-17.197-26.963c-2.961-4.642-9.551-5.137-13.172-.99z" fill="#ecf9f9"/><path d="m464.5 300.005v46.168l12.958-14.81c2.414-2.759 2.718-6.78.747-9.87z" fill="#daf1f4"/><path d="m411.277 395.271-9.844 18.985c-2.313 4.461-.135 9.937 4.611 11.59l41.793 14.557c3.617 1.26 7.625-.135 9.679-3.367l8.805-13.86c2.647-4.166 1.068-9.708-3.376-11.855l-40.754-19.682c-4.022-1.942-8.858-.332-10.914 3.632z" fill="#ecf9f9"/><path d="m464.468 412.271c-.183 6.309-1.15 12.422-2.809 18.243l4.662-7.338c2.317-3.647 1.395-8.35-1.853-10.905z" fill="#daf1f4"/><g fill="#ecf9f9"><path d="m36.118 326.215 5.001 94.525c.326 6.164 7.057 9.801 12.392 6.694l34.785-20.255c2.538-1.478 4.099-4.193 4.099-7.13v-58.176c0-3.362-2.04-6.388-5.157-7.649l-39.786-16.094c-5.599-2.265-11.653 2.054-11.334 8.085z"/><path d="m47.054 243.843 47.011 48.608c3.689 3.814 9.967 3.205 12.854-1.247l83.439-128.676c1.628-2.511 1.769-5.706.369-8.351l-13.454-25.403c-2.515-4.749-8.825-5.865-12.816-2.267l-116.997 105.472c-3.468 3.127-3.653 8.507-.406 11.864z"/><path d="m32.658 66.548 14.264 72.378c.762 3.867 4.154 6.656 8.095 6.656h26.808c3.305 0 6.292-1.972 7.589-5.013l35.081-82.204c2.505-5.869-2.316-12.239-8.645-11.422l-76.153 9.826c-4.733.611-7.962 5.097-7.039 9.779z"/><path d="m188.424 54.899 33.491 93.606c2.116 5.913 9.799 7.389 13.955 2.681l69.894-79.181c4.746-5.377.845-13.832-6.326-13.71l-35.433.601c-14.148.24-28.23-1.976-41.62-6.55l-23.525-8.035c-6.54-2.234-12.764 4.081-10.436 10.588z"/><path d="m302.629 157.455-34.825 49.066c-2.747 3.871-1.67 9.255 2.354 11.772l109.157 68.254c4.052 2.534 9.403 1.105 11.654-3.111l13.735-25.734c.847-1.586 1.152-3.406.869-5.182l-7.875-49.499c-.409-2.572-2.008-4.8-4.314-6.01l-80.192-42.087c-3.658-1.919-8.172-.837-10.563 2.531z"/></g><path d="m369.712 337.206-34.4-11.556c-.024.318-.067.638-.13.958l-14.972 76.732c-5.264 26.98-29.956 45.7-57.356 43.484l-118.569-9.59 30.948 18.421c1.083.645 2.299 1.032 3.555 1.134l164.827 13.332c4.187.339 7.959-2.522 8.764-6.644l22.804-116.868c.792-4.064-1.548-8.085-5.471-9.403z" fill="#daf1f4"/><path d="m190.727 154.178-13.454-25.403c-2.515-4.749-8.825-5.865-12.816-2.267l-12.771 11.513c.004 1.573-.442 3.142-1.328 4.508l-80.791 124.592 24.498 25.33c3.689 3.814 9.967 3.205 12.854-1.247l83.439-128.676c1.628-2.51 1.769-5.705.369-8.35z" fill="#daf1f4"/><path d="m299.438 58.294-35.433.601c-1.441.024-2.882.023-4.321-.003l-49.691 56.293 11.921 33.32c2.116 5.913 9.799 7.389 13.955 2.681l69.894-79.181c4.747-5.377.846-13.832-6.325-13.711z" fill="#daf1f4"/><path d="m405.573 252.52-7.875-49.499c-.409-2.572-2.008-4.799-4.314-6.01l-80.192-42.087c-1.175-.616-2.438-.923-3.691-.944l12.808 6.722c21.862 11.474 37.024 32.594 40.903 56.977l2.361 14.84c.283 1.776-.023 3.595-.869 5.182l-13.735 25.734c-.781 1.464-1.937 2.592-3.282 3.334l31.629 19.777c4.052 2.534 9.403 1.105 11.654-3.111l13.735-25.734c.845-1.586 1.151-3.405.868-5.181z" fill="#daf1f4"/><path d="m413.723 76.026-31.567 38.918c-2.721 3.355-2.043 8.311 1.48 10.811l42.344 30.05c2.955 2.097 6.989 1.774 9.573-.767l25.458-25.034c2.765-2.719 2.993-7.1.526-10.092l-36.235-43.935c-3.007-3.645-8.601-3.622-11.579.049z" fill="#ecf9f9"/><path d="m429.413 197.797 14.324 37.302c.803 2.091 3.404 2.802 5.159 1.41l28.474-22.591c1.239-.983 1.612-2.704.891-4.111l-13.626-26.595c-.785-1.531-2.61-2.209-4.204-1.559l-29.171 11.883c-1.674.681-2.494 2.575-1.847 4.261z" fill="#ecf9f9"/><path d="m464.633 183.212c-.041-.081-.086-.159-.134-.235v41.152l12.869-10.21c1.239-.983 1.612-2.704.891-4.111z" fill="#daf1f4"/><path d="m214.206 204.505-27.375 20.379c-1.022.761-1.518 2.04-1.276 3.291l4.836 24.978c.416 2.15 2.764 3.314 4.727 2.343l37.526-18.554c1.701-.841 2.351-2.936 1.425-4.593l-14.987-26.804c-.977-1.747-3.269-2.237-4.876-1.04z" fill="#ecf9f9"/><path d="m106.458 457.073-11.385-15.174c-1.052-1.402-3.019-1.734-4.473-.754l-20.355 13.724c-1.716 1.157-1.951 3.593-.487 5.056l16.594 16.594c1.285 1.285 3.369 1.285 4.655 0l15.145-15.145c1.159-1.157 1.289-2.991.306-4.301z" fill="#ecf9f9"/><path d="m367.622 86.05-11.385-15.174c-1.052-1.402-3.019-1.734-4.473-.754l-20.354 13.724c-1.716 1.157-1.951 3.593-.487 5.056l16.594 16.594c1.285 1.285 3.369 1.285 4.655 0l15.145-15.145c1.158-1.157 1.288-2.991.305-4.301z" fill="#ecf9f9"/><path d="m372.1 330.097c-77.394-26-72.303-24.181-72.522-24.562l-27.59-47.738c-4.363-7.552-14.013-10.122-21.555-5.736l-57.836 33.629c-3.581 2.082-4.796 6.673-2.713 10.253 2.083 3.583 6.674 4.794 10.253 2.714l57.836-33.629c.359-.207.817-.091 1.027.274l27.59 47.738c1.921 3.325 4.984 5.829 8.623 7.051l72.111 24.225c.356.12.57.487.498.856l-22.804 116.868c-.074.376-.419.644-.798.604l-164.827-13.331c-.258-.02 3.126 1.95-47.088-27.939-.288-.171-.429-.516-.343-.838l25.691-96.925c.05-.19.176-.356.348-.456l9.553-5.555c3.581-2.082 4.796-6.673 2.714-10.253-2.083-3.582-6.674-4.794-10.254-2.714l-9.551 5.553c-3.637 2.113-6.233 5.517-7.31 9.582l-25.691 96.925c-1.792 6.764 1.155 13.988 7.169 17.569l46.766 27.837c2.056 1.224 4.403 1.973 6.786 2.165 176.894 14.307 165.117 13.383 166.114 13.383 7.472 0 13.988-5.281 15.443-12.734l22.803-116.868c1.508-7.726-2.981-15.441-10.443-17.948z"/><path d="m467.332 290.498c-5.664-8.881-18.24-9.801-25.146-1.89l-27.496 31.495c-5.654 6.478-5.031 16.399 1.388 22.119l22.887 20.391c6.479 5.77 16.509 5.265 22.332-1.39l21.805-24.921c4.579-5.232 5.166-12.98 1.426-18.842zm4.482 35.928-21.805 24.92c-.285.328-.768.334-1.065.067l-22.886-20.39c-.306-.273-.336-.747-.066-1.056l27.495-31.494c.062-.071.244-.297.622-.255.375.028.527.267.578.346l17.198 26.964c.176.279.148.648-.071.898z"/><path d="m466.207 404.567-40.754-19.681c-7.731-3.738-16.883-.689-20.833 6.933l-9.844 18.984c-4.417 8.518-.249 18.972 8.802 22.126l41.793 14.557c6.94 2.415 14.536-.227 18.476-6.429l8.804-13.859c5.042-7.936 2.048-18.529-6.444-22.631zm-6.217 14.587-8.805 13.859c-.188.297-.549.426-.881.307l-41.793-14.556c-.441-.156-.63-.652-.42-1.057l9.844-18.984c.19-.367.629-.507.993-.33l40.754 19.682c.402.193.554.689.308 1.079z"/><path d="m99.896 400.049v-58.177c0-6.45-3.864-12.182-9.845-14.602l-39.787-16.094c-10.695-4.326-22.244 3.935-21.636 15.435l5.001 94.524c.623 11.773 13.485 18.702 23.655 12.779l34.785-20.255c4.827-2.808 7.827-8.024 7.827-13.61zm-15 0c0 .266-.143.515-.374.648l-34.786 20.255c-.109.064-.362.214-.734.012-.371-.2-.387-.495-.393-.621l-5.001-94.524c-.006-.112-.022-.411.313-.651.249-.176.472-.185.718-.084l39.787 16.094c.285.115.47.388.47.695z"/><path d="m122.015 154.671-79.577 71.737c-6.617 5.964-6.99 16.223-.775 22.649l47.011 48.609c7.043 7.281 19.027 6.117 24.538-2.382l83.439-128.677c3.104-4.789 3.374-10.897.703-15.94l-13.454-25.403c-4.799-9.062-16.839-11.2-24.466-4.327l-11.014 9.93c-3.077 2.773-3.322 7.516-.548 10.593s7.515 3.322 10.592.548l11.014-9.929c.366-.334.938-.227 1.167.205l13.454 25.403c.127.241.114.533-.034.762l-83.439 128.676c-.271.418-.843.451-1.17.113l-47.011-48.608c-.297-.308-.281-.795.037-1.081l79.577-71.737c3.076-2.773 3.322-7.516.549-10.592s-7.516-3.324-10.593-.549z"/><path d="m39.563 140.376c1.451 7.362 7.95 12.705 15.454 12.705h26.808c6.32 0 12.006-3.756 14.487-9.569l35.081-82.202c4.78-11.199-4.408-23.37-16.502-21.805l-76.152 9.826c-9.024 1.165-15.199 9.739-13.438 18.667zm1.094-76.168 76.152-9.826c.268-.038.498.031.695.292.263.347.143.628.092.748l-35.081 82.203c-.119.277-.39.456-.691.456h-26.807c-.358 0-.667-.255-.737-.605l-14.264-72.378c-.085-.428.208-.835.641-.89z"/><path d="m214.854 151.031c4.055 11.333 18.729 14.08 26.639 5.117l69.894-79.18c9.084-10.291 1.581-26.409-12.075-26.173l-35.433.601c-13.309.223-26.464-1.843-39.069-6.148l-23.526-8.035c-12.485-4.263-24.363 7.797-19.921 20.212zm-19.196-99.439c.269-.273.505-.277.777-.184l23.526 8.035c14.251 4.867 29.12 7.204 44.171 6.951l35.433-.601c.186-.001.49-.01.694.436.206.445.002.675-.119.813l-69.895 79.181c-.084.097-.282.317-.705.24-.421-.081-.522-.364-.565-.484l-33.491-93.606c-.054-.156-.157-.445.174-.781z"/><path d="m296.513 153.113c0 .1 1.451-2.044-34.826 49.067-5.237 7.38-3.181 17.672 4.494 22.472l109.157 68.254c7.663 4.791 17.92 2.168 22.247-5.939l13.735-25.734c1.605-3.009 2.195-6.521 1.659-9.891l-7.875-49.499c-.777-4.885-3.856-9.174-8.235-11.472l-80.192-42.087c-6.95-3.647-15.618-1.572-20.164 4.829zm13.194 8.452 80.193 42.087c.208.11.355.314.392.548 8.433 53.007 7.98 49.624 7.795 49.971l-13.735 25.733c-.203.38-.682.519-1.061.283l-109.157-68.254c-.365-.226-.469-.712-.214-1.071l34.825-49.066c.217-.306.631-.403.962-.231z"/><path d="m379.296 131.872 42.343 30.05c5.96 4.23 14.02 3.532 19.173-1.535l25.458-25.034c5.579-5.485 6.032-14.174 1.054-20.211l-3.869-4.691c-2.634-3.196-7.361-3.649-10.558-1.015-3.195 2.636-3.649 7.362-1.014 10.558l3.871 4.664-25.432 25.032-42.339-30.021 31.535-38.918 8.782 10.647c2.636 3.194 7.363 3.648 10.558 1.014 3.196-2.636 3.649-7.362 1.014-10.559l-8.782-10.646c-6.024-7.305-17.228-7.257-23.19.094l-31.567 38.919c-5.444 6.71-4.087 16.648 2.963 21.652z"/><path d="m503 0h-494c-4.962 0-9 4.037-9 9v494c0 4.963 4.038 9 9 9h494c4.962 0 9-4.037 9-9v-494c0-4.963-4.038-9-9-9zm-6 497h-482v-482h482z"/><path d="m457.6 174.707-29.169 11.883c-5.416 2.204-8.116 8.438-6.02 13.896 0-.1.149.388 14.324 37.302 2.615 6.811 11.118 9.124 16.822 4.596l28.472-22.59c4.027-3.193 5.249-8.831 2.905-13.407l-13.626-26.595c-2.579-5.034-8.473-7.219-13.708-5.085zm-8.904 52.386-10.812-28.157 21.823-8.891 10.313 20.129z"/><path d="m198.442 262.22 37.524-18.554c5.541-2.737 7.668-9.578 4.649-14.976l-14.987-26.803c-3.181-5.691-10.659-7.306-15.901-3.398l-27.375 20.378c-3.312 2.466-4.945 6.679-4.161 10.734l4.836 24.979c1.359 7.012 9.011 10.806 15.415 7.64zm16.42-48.853 10.514 18.803-28.665 14.172-3.293-17.012z"/><path d="m101.072 437.398c-3.454-4.604-9.896-5.688-14.665-2.472l-20.354 13.724c-5.633 3.798-6.392 11.784-1.598 16.578l16.594 16.596c4.207 4.207 11.054 4.207 15.261 0l15.145-15.146v.001c3.774-3.774 4.204-9.839 1.001-14.107zm-12.392 30.843-10.007-10.008 12.803-8.632 6.792 9.052z"/><path d="m342.214 110.802c4.209 4.207 11.053 4.205 15.26-.001l15.145-15.146v.001c3.774-3.774 4.204-9.839 1.001-14.106l-11.385-15.174c-3.452-4.601-9.893-5.687-14.665-2.472l-20.352 13.724c-5.634 3.794-6.396 11.785-1.6 16.578zm10.425-32.224 6.792 9.052-9.587 9.588-10.007-10.008z"/><path d="m166.308 338.568c2.082 3.581 6.673 4.796 10.254 2.714l79.459-46.201c3.581-2.082 4.796-6.673 2.714-10.253-2.083-3.583-6.675-4.796-10.254-2.714l-79.459 46.201c-3.581 2.082-4.796 6.673-2.714 10.253z"/><path d="m69.963 350.777c-.219-4.136-3.745-7.327-7.886-7.093-4.136.219-7.312 3.749-7.093 7.886l2.162 40.853c.212 4.001 3.523 7.104 7.483 7.104 4.313 0 7.723-3.611 7.496-7.896z"/><path d="m71.513 243.954c2.765 3.067 7.506 3.332 10.593.549l81.686-73.639c3.076-2.773 3.322-7.516.549-10.592s-7.516-3.323-10.593-.549l-81.686 73.639c-3.077 2.774-3.323 7.516-.549 10.592z"/><path d="m61.429 122.031c.807 4.094 4.779 6.704 8.809 5.908 4.064-.801 6.709-4.745 5.908-8.809l-8.141-41.308c-.801-4.064-4.75-6.708-8.809-5.908-4.064.801-6.709 4.745-5.908 8.809z"/><path d="m228.837 115.902c1.398 3.907 5.696 5.929 9.588 4.535 3.9-1.396 5.931-5.688 4.535-9.588l-12.362-34.552c-1.396-3.9-5.688-5.932-9.588-4.535-3.9 1.396-5.931 5.688-4.535 9.588z"/><path d="m292.353 202.17c-3.555 5.009.116 11.842 6.11 11.842 2.348 0 4.66-1.1 6.123-3.16l16.071-22.645c2.397-3.378 1.603-8.06-1.775-10.457-3.378-2.396-8.06-1.603-10.457 1.775z"/></g></svg>