<svg viewBox="-122 0 512 512" xmlns="http://www.w3.org/2000/svg"><path d="m121.90625 162.542969c-3.40625 0-6.570312-2.152344-7.707031-5.558594l-45.054688-135.171875c-1.113281-3.324219-4.214843-5.558594-7.714843-5.558594h-53.300782c-4.492187 0-8.128906-3.640625-8.128906-8.128906s3.636719-8.125 8.128906-8.125h53.300782c10.507812 0 19.800781 6.699219 23.125 16.671875l45.058593 135.171875c1.417969 4.257812-.882812 8.859375-5.136719 10.28125-.859374.285156-1.722656.417969-2.570312.417969zm0 0" fill="#6f6571"/><path d="m179.046875 97.523438h-65.523437c-8.835938 0-16-7.164063-16-16v-.507813c0-8.835937 7.164062-16 16-16h65.523437c8.835937 0 16 7.164063 16 16v.507813c0 8.835937-7.164063 16-16 16zm0 0" fill="#ff9a9f"/><path d="m121.90625 65.015625h-8.128906c-8.976563 0-16.253906 7.277344-16.253906 16.253906 0 8.976563 7.277343 16.253907 16.253906 16.253907h65.015625c8.976562 0 16.460937-7.117188 16.253906-16.253907h-56.886719c-8.976562 0-16.253906-7.277343-16.253906-16.253906zm0 0" fill="#ff8086"/><path d="m227.9375 186.921875h-163.300781c-13.257813 0-24-10.746094-24-24v-.761719c0-13.257812 10.742187-24 24-24h163.300781c13.253906 0 24 10.742188 24 24v.761719c0 13.253906-10.746094 24-24 24zm0 0" fill="#ff9a9f"/><path d="m97.523438 138.160156h-32.507813c-13.464844 0-24.378906 10.914063-24.378906 24.378906 0 13.464844 10.914062 24.382813 24.378906 24.382813h162.539063c13.464843 0 24.375-10.296875 24.382812-24.382813h-130.03125c-13.46875 0-24.382812-10.914062-24.382812-24.378906zm0 0" fill="#ff8086"/><path d="m170.664062 446.984375c0 13.464844-10.914062 24.378906-24.378906 24.378906s-24.382812-10.914062-24.382812-24.378906 10.917968-24.382813 24.382812-24.382813 24.378906 10.917969 24.378906 24.382813zm0 0" fill="#dbeaff"/><path d="m170.664062 40.636719c0 13.464843-10.914062 24.378906-24.378906 24.378906s-24.382812-10.914063-24.382812-24.378906c0-13.46875 10.917968-24.382813 24.382812-24.382813s24.378906 10.914063 24.378906 24.382813zm0 0" fill="#6f6571"/><path d="m260.191406 195.046875h-227.8125c-4.417968 0-8-3.582031-8-8v-.253906c0-4.417969 3.582032-8 8-8h227.8125c4.417969 0 8 3.582031 8 8v.253906c0 4.417969-3.582031 8-8 8zm0 0" fill="#dbeaff"/><path d="m146.285156 422.601562c-37.621094 0-69.832031-26.964843-76.445312-64l-29.203125-163.554687h211.300781l-29.207031 163.554687c-6.613281 37.035157-38.824219 64-76.445313 64zm0 0" fill="#edf4ff"/><path d="m40.636719 195.046875 29.203125 163.554687c6.613281 37.035157 38.824218 64 76.445312 64v-227.554687zm0 0" fill="#c3ddff"/><path d="m146.285156 422.601562c-17.363281 0-32.230468-26.964843-35.28125-64l-13.480468-163.554687h97.523437l-13.480469 163.554687c-3.050781 37.035157-17.917968 64-35.28125 64zm0 0" fill="#dbeaff"/><path d="m158.476562 459.175781c-13.464843 0-24.382812-10.917969-24.382812-24.382812 0-3.570313.777344-6.976563 2.160156-10.03125-8.46875 3.824219-14.351562 12.332031-14.351562 22.222656 0 13.464844 10.917968 24.382813 24.382812 24.382813 9.890625 0 18.402344-5.882813 22.222656-14.347657-3.054687 1.378907-6.457031 2.15625-10.03125 2.15625zm0 0" fill="#c3ddff"/><path d="m162.539062 471.363281h-32.507812c-18.929688 0-34.835938 12.945313-39.351562 30.464844-1.324219 5.144531 2.605468 10.171875 7.917968 10.171875h95.375c5.308594 0 9.242188-5.027344 7.917969-10.171875-4.511719-17.519531-20.421875-30.464844-39.351563-30.464844zm0 0" fill="#dbeaff"/><path d="m199.792969 495.746094h-58.085938c-12.382812 0-20.136719-14.160156-12.757812-24.097656l.152343-.203126c-18.421874.421876-33.832031 13.035157-38.355468 30.132813-1.386719 5.238281 2.433594 10.421875 7.851562 10.421875h95.375c5.171875 0 9.246094-4.792969 8.007813-9.8125-.550781-2.230469-1.285157-4.375-2.1875-6.441406zm0 0" fill="#c3ddff"/><path d="m81.269531 186.921875c0-4.488281 3.636719-8.128906 8.128907-8.128906h-56.890626c-4.488281 0-8.125 3.640625-8.125 8.128906s3.636719 8.125 8.125 8.125h56.890626c-4.492188 0-8.128907-3.636719-8.128907-8.125zm0 0" fill="#c3ddff"/><path d="m199.429688 138.160156h-106.285157c-11.046875 0-20-8.957031-20-20v-.636718c0-11.046876 8.953125-20 20-20h106.285157c11.046874 0 20 8.953124 20 20v.636718c0 11.042969-8.957032 20-20 20zm0 0" fill="#ff9a9f"/><path d="m134.09375 121.90625c-11.21875 0-20.316406-9.097656-20.316406-20.316406 0-1.394532.144531-2.75.410156-4.066406h-20.726562c-11.222657 0-20.316407 9.097656-20.316407 20.320312 0 11.21875 9.09375 20.316406 20.316407 20.316406h105.652343c9.828125 0 18.171875-6.660156 19.964844-16.253906zm0 0" fill="#ff8086"/><path d="m158.476562 52.824219c-13.464843 0-24.382812-10.914063-24.382812-24.378907 0-3.574218.8125-6.996093 2.191406-10.050781-8.464844 3.824219-14.378906 12.347657-14.378906 22.242188 0 13.464843 10.914062 24.378906 24.378906 24.378906 9.894532 0 18.402344-5.878906 22.226563-14.347656-3.058594 1.382812-6.460938 2.15625-10.035157 2.15625zm0 0" fill="#5d5360"/><path d="m146.285156 195.046875h-89.140625l28.695313 160.695313c5.238281 29.324218 30.65625 50.605468 60.445312 50.605468zm0 0" fill="#e5646e"/><path d="m146.285156 195.046875h89.140625l-28.695312 160.695313c-5.238281 29.324218-30.660157 50.605468-60.445313 50.605468zm0 0" fill="#ff9a9f"/><path d="m121.566406 401.175781c7.597656 3.339844 15.964844 5.175781 24.71875 5.175781s17.121094-1.832031 24.71875-5.175781c5.367188-11.074219 9.179688-25.796875 10.5625-42.574219l13.480469-163.554687h-97.523437l13.480468 163.554687c1.382813 16.777344 5.195313 31.496094 10.5625 42.574219zm0 0" fill="#ff8086"/></svg>