<svg viewBox="0 0 512 512" height="512" width="512" xmlns="http://www.w3.org/2000/svg" id="svg-icon"><path d="M420.45 0c-40.33 0-75.42 22.86-93 56.3 0 .01-.01.01-.01.02C313.67 40.23 293.24 30 270.45 30h-45v15c0 41.35 33.64 75 75 75h60c57.9 0 105-47.1 105-105V0z" fill="#54e360"/><path d="M465.45 0v15c0 57.9-47.1 105-105 105h-33V56.3c17.58-33.44 52.67-56.3 93-56.3z" fill="#00cc71"/><path d="M105.45 90v44c0 8.82 7.18 16 16 16l119 5 119-5c8.82 0 16-7.18 16-16V90z" fill="#d9f2ff"/><path d="M375.45 90v44c0 8.82-7.18 16-16 16l-119 5V90z" fill="#cdf"/><path d="M375.45 195v30h-270v-30c0-24.81 20.19-45 45-45h180c24.81 0 45 20.19 45 45z" fill="#e6ffff"/><path d="M375.45 195v30h-135v-75h90c24.81 0 45 20.19 45 45z" fill="#d9f2ff"/><path d="M405.45 226v89l-57.57 10c-29.7 0-59.21-4.53-87.53-13.42-6.59-2.07-13.23-4.01-19.9-5.77-24.88-6.59-50.27-10.81-76.06-10.81l-88.94-10v-59c0-8.82 7.18-16 16-16h298c8.82 0 16 7.18 16 16z" fill="#d9f2ff"/><path d="M405.45 226v89l-57.57 10c-29.7 0-59.21-4.53-87.53-13.42-6.59-2.07-13.23-4.01-19.9-5.77V210h149c8.82 0 16 7.18 16 16z" fill="#cdf"/><path d="M190.51 150l-14.06 6-18.25-6-24-60 13.75-8 18.56 8 24 60zM255.46 312.38l-32.47-.4c-7.05-17.66-40.05-100.11-40.79-101.98l15.75-7 16.57 7c.04.1 40.88 102.28 40.94 102.38z" fill="#4bb9ec"/><path d="M255.46 312.38l-15.01-.18v-37.36c8.13 20.34 14.98 37.49 15.01 37.54z" fill="#0095ff"/><path d="M166.51 90H134.2l-24-60H46.55V0h83.96z" fill="#76e2f8"/><path d="M405.45 315v197h-330V285h88.94c25.79 0 51.18 4.22 76.06 10.81 6.67 1.76 13.31 3.7 19.9 5.77A292.23 292.23 0 00347.88 315z" fill="#54e360"/><path d="M405.45 315v197h-165V295.81c6.67 1.76 13.31 3.7 19.9 5.77A292.23 292.23 0 00347.88 315z" fill="#00cc71"/><path d="M214.52 210H182.2c-8.19-20.47-16.55-41.39-24-60h32.31c7.41 18.53 15.79 39.47 24.01 60z" fill="#76e2f8"/></svg>
