<svg viewBox="0 0 512 512" xmlns="http://www.w3.org/2000/svg"><g><path d="m196 60h218.5v90h-218.5z" fill="#3bcbff"/><path d="m97.5 60h158.5v90h-158.5z" fill="#80dfff"/><path d="m112.5 392 143.5 120h143.5c33.084 0 60-26.916 60-60v-60z" fill="#3bcbff"/><path d="m52.5 392v60c0 33.084 26.916 60 60 60h143.5v-120z" fill="#80dfff"/><path d="m399.5 120h-143.5l-60 166 60 166h143.5c33.084 0 60-26.916 60-60v-212c0-33.084-26.916-60-60-60z" fill="#80dfff"/><path d="m112.5 452h143.5v-332h-143.5c-33.084 0-60 26.916-60 60v212c0 33.084 26.916 60 60 60z" fill="#b5f1ff"/><path d="m444.5 0h-188.5l-60 45 60 45h188.5z" fill="#ff8742"/><path d="m67.5 0h188.5v90h-188.5z" fill="#ffa845"/><path d="m256 165-60.5 121 60.5 121c25.666 0 49.46-7.998 69.04-21.627v-198.746c-19.58-13.629-43.374-21.627-69.04-21.627z" fill="#fff4e3"/><path d="m377 286c0-41.161-20.557-77.515-51.96-99.373-40.317 15.002-69.04 53.831-69.04 99.373s28.723 84.372 69.04 99.373c31.403-21.858 51.96-58.212 51.96-99.373z" fill="#4c7be5"/><path d="m135 286c0 66.826 54.174 121 121 121v-242c-66.826 0-121 54.174-121 121z" fill="#fff"/></g></svg>