<svg viewBox="0 0 511.924 511.924" xmlns="http://www.w3.org/2000/svg"><g><path d="m65.317 301.839-.044 92.617h80.028l28.406-48.826-28.406-70.407z" fill="#e1f4ff"/><path d="m224.543 301.839-79.242-16.867v109.484h79.199z" fill="#bcddfe"/><path d="m130.795 79.441-65.399 53.972-.079 168.426h79.984l14.506-98.321-14.506-138.393z" fill="#c2f973"/><path d="m224.623 133.486-64.816-54.045-13.3-15.595-1.206 1.279v236.714h79.242z" fill="#8df730"/><g><g><path d="m166.45 230.035h57.89v30.053h-57.89z" fill="#5be167"/></g></g><g><g><path d="m166.732 169.898h57.891v30.053h-57.891z" fill="#5be167"/></g></g><path d="m129.923 301.839v180.032h-44.872v30.053h60.25l6.753-124.403-6.753-85.682z" fill="#bcddfe"/><path d="m203.112 481.871h-43.136v-180.032h-14.675v210.085h57.811z" fill="#9bbada"/><path d="m130.795 0v79.441h14.506l6.753-36.978-6.753-42.463z" fill="#bcddfe"/><path d="m145.301 0h14.506v79.441h-14.506z" fill="#9bbada"/><g><path d="m315.458 309.999v71.85h44.082l16.37-33.185-16.37-38.665z" fill="#f0ebee"/><path d="m359.54 309.999h46.08v71.85h-46.08z" fill="#e3dbda"/></g><g><path d="m298.255 234.863-23.828 23.828v66.335h85.113l23.04-45.082-23.04-45.081z" fill="#bcddfe"/><path d="m274.427 511.924h85.113l33.182-70.21-33.182-74.891h-85.113z" fill="#faf9ff"/></g><path d="m446.651 258.692-23.83-23.829h-63.281v90.163h87.111z" fill="#9bbada"/><path d="m359.54 366.823h87.11v145.101h-87.11z" fill="#f0ebee"/></g></svg>