<svg viewBox="0 0 64 64" xmlns="http://www.w3.org/2000/svg"><g><path d="m56 62h-48c-3.314 0-6-2.686-6-6v-48c0-3.314 2.686-6 6-6h48c3.314 0 6 2.686 6 6v48c0 3.314-2.686 6-6 6z" fill="#758190"/><path d="m2 8v34.949c18.342-.231 33.143-15.163 33.143-33.56 0-2.54-.291-5.01-.826-7.388h-26.317c-3.314-.001-6 2.685-6 5.999z" fill="#8892a0"/><path d="m56 50-6 6h-39c-1.657 0-3-1.343-3-3v-42c0-1.657 1.343-3 3-3h42c1.657 0 3 1.343 3 3z" fill="#c7e2fc"/><path d="m8 11v31.338c15.465-3 27.143-16.608 27.143-32.95 0-.466-.016-.927-.035-1.388h-24.108c-1.657 0-3 1.343-3 3z" fill="#ebf7fe"/><path d="m50 56v-4c0-1.105.895-2 2-2h4z" fill="#ebf7fe"/><circle cx="32" cy="32" fill="#c66b60" r="20"/><path d="m19.286 22.286 22.428 22.428v.001c-2.693 2.06-6.061 3.285-9.714 3.285-8.837 0-16-7.163-16-16 0-3.653 1.225-7.021 3.286-9.714z" fill="#fff"/><path d="m22.286 19.286 22.428 22.428.001.001c2.061-2.694 3.285-6.062 3.285-9.715 0-8.837-7.163-16-16-16-3.653 0-7.021 1.225-9.714 3.286z" fill="#fff"/><path d="m39 36h5v-6h-11z" fill="#e7e4dd"/><path d="m27 30v6h6z" fill="#e7e4dd"/><path d="m20 30h7v6h-7z" fill="#c18e59"/><g><path d="m44.998 27.999h-2c0-.551-.447-.999-.998-.999h-3.001c-1.654 0-3-1.346-3-3 0-1.655 1.346-3 3-3h1v2h-1c-.552 0-1 .448-1 1 0 .551.448 1 1 1h3.001c1.653 0 2.998 1.345 2.998 2.999z" fill="#cbc3b6"/></g></g></svg>