<svg viewBox="0 0 64 64" xmlns="http://www.w3.org/2000/svg"><g><path d="m38 19 4-13-4-4h-12l-4 4 4 13" fill="#4c506e"/><path d="m37 6-2-4h-6l-2 4" fill="#c8cded"/><path d="m37 6-3 13h4l4-13" fill="#787faa"/><path d="m27 6 3 13h-4l-4-13" fill="#787faa"/><path d="m24 24v-5h16v5" fill="#363a4f"/><path d="m46 62h-28c-1.105 0-2-.895-2-2v-34c0-1.105.895-2 2-2h28c1.105 0 2 .895 2 2v34c0 1.105-.895 2-2 2z" fill="#363a4f"/><path d="m16 26v33h28c1.105 0 2-.895 2-2v-33h-28c-1.105 0-2 .895-2 2z" fill="#4c506e"/><path d="m46 24c-1.331 7.318-2 14.742-2 22.18v7.82c0 1.105-.895 2-2 2h-20c-1.105 0-2-.895-2-2v-7.82c0-7.438-.669-14.862-2-22.18" fill="#e2e7f6"/><path d="m18 24c1.331 7.318 2 14.742 2 22.18v3.82h17c1.105 0 2-.895 2-2v-24z" fill="#fff"/><path d="m43.727 30c-4.282 0-8.362 1.817-11.227 5-2.864 3.183-6.945 5-11.227 5h-1.433c.103 2.058.16 4.118.16 6.18v7.82c0 1.105.895 2 2 2h20c1.105 0 2-.895 2-2v-7.82c0-5.413.359-10.818 1.065-16.18z" fill="#fad85d"/><path d="m32.5 35c-2.864 3.183-6.945 5-11.227 5h-1.433c.103 2.058.16 4.118.16 6.18v3.82h17c1.105 0 2-.895 2-2v-17.239c-2.473.816-4.721 2.263-6.5 4.239z" fill="#fce797"/><g><path d="m22.141 53.99-.282-1.98 5.663-.809c4.263-.609 7.478-4.315 7.478-8.622 0-1.514-.397-3.008-1.147-4.322l-.24-.42c-1.71-2.991-2.613-6.392-2.613-9.837h2c0 3.097.812 6.155 2.349 8.845l.24.42c.923 1.616 1.411 3.453 1.411 5.313 0 5.296-3.953 9.854-9.195 10.604z" fill="#e2e7f6"/></g><path d="m32.5 35c-.049.054-.104.101-.154.154.356.922.774 1.821 1.266 2.683l.24.42c.751 1.314 1.148 2.808 1.148 4.322 0 3.095-1.665 5.873-4.182 7.421h3.157c1.874-1.944 3.025-4.573 3.025-7.422 0-1.86-.488-3.697-1.411-5.313l-.24-.42c-.586-1.026-1.065-2.106-1.436-3.221-.498.424-.97.884-1.413 1.376z" fill="#fff"/><path d="m30 24v4h4v-4" fill="#e2e7f6"/><path d="m24 19v3h12c1.105 0 2-.895 2-2v-1z" fill="#4c506e"/></g></svg>