<svg viewBox="0 0 512 511" xmlns="http://www.w3.org/2000/svg"><path d="m512 230.027344c0-57.894532-34.480469-107.734375-84.027344-130.101563-21.925781-9.898437-41.027344-24.925781-55.835937-43.878906-26.417969-33.808594-67.574219-55.546875-113.808594-55.546875-60.457031 0-112.226563 37.167969-133.71875 89.902344-9.71875 23.84375-25.171875 44.945312-45.609375 60.601562-47.617188 36.480469-78.46875 93.742188-78.9921875 158.234375-.9062505 110.894531 89.0273435 202.253907 199.9218755 203.011719 74.902343.515625 140.414062-39.878906 175.519531-100.15625 13.707031-23.535156 34.101562-42.449219 58.386719-54.78125 46.382812-23.550781 78.164062-71.703125 78.164062-127.285156zm0 0" fill="#e4eaf8"/><path d="m30.914062 309.238281c.527344-64.492187 31.375-121.753906 78.992188-158.234375 20.4375-15.65625 35.894531-36.757812 45.609375-60.601562 19.636719-48.183594 64.5625-83.355469 118.292969-89.066406-5.085938-.542969-10.25-.835938-15.476563-.835938-60.460937 0-112.230469 37.167969-133.722656 89.902344-9.714844 23.84375-25.171875 44.945312-45.609375 60.601562-47.617188 36.480469-78.46875 93.742188-78.9921875 158.234375-.9062505 110.894531 89.0273435 202.253907 199.9218755 203.011719 5.714843.039062 11.371093-.164062 16.964843-.589844-104.390625-7.941406-186.847656-96.214844-185.980469-202.421875zm0 0" fill="#d8dce5"/><path d="m339.296875 260.050781c0 62.21875-50.4375 112.65625-112.660156 112.65625-62.21875 0-112.65625-50.4375-112.65625-112.65625 0-62.222656 50.4375-112.660156 112.65625-112.660156 62.222656 0 112.660156 50.4375 112.660156 112.660156zm0 0" fill="#feb644"/><path d="m145.828125 260.050781c0-56.8125 42.058594-103.796875 96.734375-111.535156-5.203125-.734375-10.519531-1.125-15.925781-1.125-62.21875 0-112.660157 50.4375-112.660157 112.660156 0 62.21875 50.441407 112.65625 112.660157 112.65625 5.40625 0 10.722656-.386719 15.925781-1.125-54.675781-7.734375-96.734375-54.71875-96.734375-111.53125zm0 0" fill="#f9972d"/><g fill="#ffc850"><path d="m300.058594 268.878906c-4.265625 0-7.726563-3.460937-7.726563-7.726562 0-13.292969-3.890625-26.125-11.253906-37.117188-2.375-3.546875-1.425781-8.34375 2.121094-10.71875 3.542969-2.375 8.34375-1.425781 10.71875 2.121094 9.074219 13.542969 13.867187 29.351562 13.867187 45.714844 0 4.265625-3.460937 7.726562-7.726562 7.726562zm0 0"/><path d="m258.6875 203.148438c-2.332031-1.335938-4.769531-2.542969-7.242188-3.582032-3.929687-1.660156-5.777343-6.191406-4.117187-10.121094 1.65625-3.933593 6.1875-5.78125 10.121094-4.121093 3.042969 1.28125 6.046875 2.769531 8.917969 4.414062 3.703124 2.121094 4.988281 6.84375 2.867187 10.546875-2.121094 3.699219-6.839844 4.984375-10.546875 2.863282zm0 0"/></g></svg>