<svg viewBox="0 -48 512 511" xmlns="http://www.w3.org/2000/svg"><path d="m503.917969 166.960938c2.195312-9.382813-1.902344-19.296876-9.625-24.320313-1.492188-.972656-2.992188-1.917969-4.496094-2.84375-2.519531-1.546875-3.570313-4.652344-2.511719-7.410156 2.015625-5.246094 5.367188-12.59375.910156-22.214844-4.398437-9.539063-12.03125-11.761719-17.425781-13.703125-9.847656-3.542969 3.070313-14.039062-7.359375-28.660156-5.972656-8.371094-13.640625-9.265625-19.574218-10.257813-2.9375-.492187-5.085938-3.019531-5.097657-5.996093-.007812-1.75-.03125-3.503907-.082031-5.257813-.21875-10.390625-8.179688-20.476563-19.316406-22.265625-1.972656-.238281-4.347656-.46875-10.492188.839844-2.605468.550781-5.277344-.691406-6.53125-3.035156-2.84375-5.3125-7.5-13.242188-19.679687-13.828126-9.371094-.417968-15.640625 4.1875-20.453125 11.753907-4.628906 7.273437-11.007813-1.425781-22.105469 2.128906-8.152344 2.324219-15.441406 10.382813-15.90625 21.011719-.292969 4.65625.042969 5.554687-.578125 7.132812-2.738281 6.953125-11.976562 1.148438-21.796875 10.617188-14.753906 14.265625-.367187 28.148437-10.605469 31.609375-4.296875 1.449219-12.917968 3.542969-17.683594 13.335937-7.785156 16.003906 6.589844 24.382813-2.296874 29.613282-3.628907 2.136718-8.46875 4.6875-11.980469 10.3125-1.683594-.324219-3.3125-.578126-4.855469-.835938-3.863281-.648438-6.6875-3.96875-6.703125-7.886719-.011719-2.296875-.039063-4.605469-.105469-6.90625-.296875-14.234375-11.335937-27.003906-25.386718-29.261719-2.589844-.316406-5.710938-.617187-13.792969 1.101563-3.417969.726563-6.933594-.90625-8.582031-3.988281-1.214844-2.269532-2.566407-4.523438-4.070313-6.699219-8.644531-12.855469-28.476563-15.015625-40.105469-5.972656-5.515625 4.203125-8.125 9.957031-10.082031 11.730469-8.414063 7.628906-22.015625-10.121094-40.132813 8.871093-8.773437 9.191407-8.371093 18.9375-8.519531 26.347657-.078125 3.917968-2.957031 7.195312-6.832031 7.777343-6.386719.964844-17.71875 1.671875-26.050781 13.183594-8.109375 11.0625-5.941407 20.941406-4.832031 28.511719.566406 3.859375-1.722657 7.558594-5.429688 8.808594-6.890625 2.328124-17.117188 4.941406-23.238281 17.527343-3.523438 7.207031-4.21875 15.003907-1.46875 23.328125.628906 2.039063 2.152343 6.214844 2.050781 5.925782 1.234375 3.492187-.042969 7.574218-3.601562 9.667968-12.804688 7.535156-19.789063 14.550782-19.992188 29.546875-.050781 20.023438 16.9375 21.664063 10.914062 31.601563-4.144531 6.84375-6.234374 11.664062-6.015624 18.484375.363281 11.53125 7.878906 22.144531 17.820312 26.085937 9.535156 3.839844 16.234375-.273437 19.9375 6.230469 2.09375 3.671875 2.335938 18.167969 18.292969 24.730469 14.449219 6.117187 24.476562.164062 31.625-3.585938l133.9375 1.375c2.019531 1.117188 4.0625 2.210938 6.132812 3.296875 9.101563 4.765625 21.523438 4.679688 31.808594-2.578125 6.574219-4.613281 9.070313-9.335937 11.953125-17.71875 1.136719-3.300781 4.328125-5.476562 7.816406-5.320312 7.148438.320312 13.433594-.019532 19.449219-3.824219 3.324219-1.964844 6.960937-5.375 9.371094-9.179687 7.296875-11.371094 5.25-21.40625.140625-31.476563-1.605469-3.164063-.96875-7.027344 1.628906-9.441406 5.847656-5.421875 9.234375-9.410157 11.027344-16.5.96875-4.144531 1.035156-8.683594.105468-13.101563-2.941406-13.582031-12.210937-18.632812-18.667968-22.597656-3.308594-2.035156-4.691406-6.113281-3.296875-9.738281.230469-.601563.472656-1.222657.71875-1.863281 5.984375-.128907 10.539062-2.761719 14.238281-4.703126 2.625-1.375 5.839844-.6875 7.671875 1.640626 1.085937 1.378906 2.195313 2.753906 3.320313 4.125 7.667968 9.355468 22.289062 10.988281 31.84375 3.515624 1.398437-1.09375 2.777343-2.191406 4.136718-3.300781 2.300782-1.871093 5.589844-1.839843 7.851563.082031 4.164062 3.539063 9.949219 9.226563 20.582031 8.28125 10.6875-.960937 15.308594-7.605468 18.796875-11.824218 1.890625-2.277344 5.109375-2.902344 7.703125-1.472656 1.539062.847656 3.09375 1.679687 4.667969 2.507812 7.355469 3.851562 17.207031 3.457031 25.191406-2.6875 9.480469-7.070312 5.933594-17.164062 14.050781-16.804688 7.644532.339844 12.882813-.460937 18.714844-5.941406 6.746094-6.816406 8.230469-15.804687 5.644531-22.539062-1.765625-4.867188-5.089843-8.828125-1.082031-12.546875 4.449219-4.125 7.023438-7.15625 8.386719-12.550781zm0 0" fill="#fff9eb"/><path d="m503.917969 166.960938c2.195312-9.382813-1.902344-19.296876-9.625-24.320313-1.492188-.96875-2.992188-1.917969-4.492188-2.839844-2.515625-1.546875-3.574219-4.652343-2.519531-7.40625 2.015625-5.25 5.375-12.597656.914062-22.222656-4.398437-9.539063-12.03125-11.761719-17.425781-13.703125-9.847656-3.542969 3.070313-14.039062-7.359375-28.660156-5.972656-8.371094-13.640625-9.265625-19.574218-10.257813-2.941407-.492187-5.085938-3.039062-5.097657-6.019531-.007812-1.742188-.03125-3.488281-.082031-5.234375-.21875-10.390625-8.179688-20.476563-19.316406-22.265625-1.972656-.238281-4.347656-.46875-10.492188.839844-.269531.054687-.539062.082031-.808594.101562l.628907 22.179688c.042969 1.503906.0625 3.015625.066406 4.527344.074219 16.996093 11.851563 31.460937 28.273437 35.09375-.332031 3.546874-.394531 8.078124.820313 13.085937 2.636719 10.875 10.113281 19.519531 20.675781 24.011719-4.429687 14.238281.394532 29.703125 11.929688 38.917968-5.078125 6.949219-7.460938 15.433594-6.636719 24.105469.144531 1.539063.382813 2.996094.679687 4.359375-7.449218 1.5-14.070312 5.300782-19.1875 11.117188-2.269531 2.582031-3.90625 5.195312-5.132812 7.550781-14.054688-6.300781-30.6875-2.960937-41.226562 8.355469-12.605469-9.4375-29.917969-9.609375-42.707032-.425782-8.070312-9.84375-22.59375-11.28125-32.4375-3.210937l-8.617187 7.0625c-.425781-2.476563-1.214844-5.097656-2.492188-7.855469-5.785156-12.539062-15.816406-15.460937-22.902343-18.007812-7.019532-2.527344-5.039063-10.25-5.25-8.964844 1.171874-7.121094 3.699218-17.320312-4.421876-28.703125-7.851562-11.003906-17.929687-12.179687-25.730468-13.484375-3.871094-.648438-6.683594-4.007812-6.699219-7.933594-.011719-2.28125-.042969-4.570312-.105469-6.855468-.113281-5.242188-1.664062-10.214844-4.226562-14.53125-7.265625-12.238282-26.039063-7.074219-26.039063 7.15625v7.84375c.109375.117187.21875.253906.273438.371093l.003906.023438c.054687 1.875.082031 3.886719.09375 6.167969.074219 17.527343 12.039063 34.085937 32.957031 37.546874 1.589844.261719 3.914063.640626 4.945313.976563.066406.089844.175781.238281.265625.375-.023438 1.058594-.480469 3.621094-.675782 4.746094-3.707031 16.898437 4.519532 36.390625 25.828126 43.980469 1.410156.5 3.464843 1.230468 4.371093 1.710937.054688.113281.105469.21875.15625.332031-.253906 1.140625-1.230469 3.582032-2.050781 5.699219-6.199219 16.152344-1.179688 35.792969 16.652344 46.6875 1.109375.675781 2.65625 1.621094 3.578125 2.296875-.429688.425781-1.007813.984375-1.789063 1.707031-12.335937 11.441407-15.621094 29.949219-7.984375 45.003907.183594.363281.34375.695312.484375.992187-.394531-.011719-.84375-.023437-1.355468-.046875-16.691407-.757812-32.09375 9.753906-37.519532 25.535156-.546875 1.582032-.925781 2.558594-1.171875 3.140625-.273437.148438-.46875.183594-.582031.1875-1.925781-1.015625-3.660156-1.949219-5.289062-2.84375-15.113282-8.335937-35.269532-6.21875-48.921876 10.550781-.875 1.078126-2.148437 2.640626-2.851562 3.292969-.144531.015625-.296875.03125-.429688.035157-1.03125-.640626-3.1875-2.5625-4.738281-3.882813-13.019531-11.058594-33.222656-13.183594-49.753906.371094-1.179687.96875-2.894531 2.378906-3.789063 2.917969-.140624-.019532-.269531-.035157-.410156-.054688-.898437-.859375-2.828125-3.40625-3.867187-4.730469-11.339844-14.410156-31.351563-18.6875-47.589844-10.175781-11.585937 6.074219-17.542969 18.65625-15.753906 30.90625 13.425781 4.828125 22.882812-.769531 29.707031-4.347656l133.964844 1.414062c2.003906 1.105469 4.03125 2.191406 6.082031 3.269532 9.101563 4.765624 21.527344 4.679687 31.8125-2.578126 6.570313-4.613281 9.066406-9.335937 11.949219-17.71875 1.140625-3.3125 4.339844-5.472656 7.839844-5.320312 7.136718.320312 13.417968-.027344 19.425781-3.824219 3.324219-1.964843 6.960937-5.375 9.371093-9.179687 7.296876-11.371094 5.25-21.40625.140626-31.480469-1.609376-3.171875-.976563-7.019531 1.632812-9.4375 5.847656-5.425781 9.234375-9.410156 11.023438-16.5.96875-4.144531 1.035156-8.683594.105468-13.105469-2.945312-13.601562-12.238281-18.644531-18.695312-22.613281-3.292969-2.027344-4.65625-6.109375-3.269532-9.71875.226563-.597656.472657-1.222656.722657-1.863281 5.984375-.128906 10.539062-2.765625 14.238281-4.707032 2.617188-1.371093 5.832031-.691406 7.660156 1.632813 1.089844 1.382813 2.199219 2.757813 3.328125 4.136719 7.667969 9.355468 22.289063 10.988281 31.84375 3.515625 1.402344-1.097657 2.785157-2.199219 4.148438-3.308594 2.292969-1.867187 5.585937-1.828125 7.835937.085937 4.167969 3.539063 9.949219 9.230469 20.585938 8.285157 10.691406-.960938 15.3125-7.609375 18.804687-11.828125 1.882813-2.273438 5.109375-2.894532 7.695313-1.46875 1.539062.847656 3.09375 1.679687 4.667968 2.507812 7.355469 3.851563 17.210938 3.457032 25.195313-2.691406 9.476563-7.066406 5.929687-17.160156 14.050781-16.800781 7.644532.339843 12.878906-.460938 18.714844-5.941407 6.746094-6.816406 8.230469-15.804687 5.640625-22.539062-1.761719-4.867188-5.089844-8.828125-1.082031-12.546875 4.453125-4.128906 7.027344-7.160156 8.390625-12.554687zm0 0" fill="#d3cdbf"/><path d="m319.703125 247.269531c-2.402344-.734375-4.042969-2.949219-4.042969-5.457031v-84.339844c0-3.152344 2.554688-5.703125 5.707032-5.703125h106.519531c3.152343 0 5.707031 2.554688 5.707031 5.703125v91.203125c0 2.789063-2.019531 5.171875-4.769531 5.628907-36.363281 6.046874-73.941407 3.695312-109.121094-7.035157zm0 0" fill="#4d5967"/><path d="m427.886719 151.765625h-24.292969v59.851563c0 1.519531-.667969 2.957031-1.824219 3.941406-.015625.015625-.03125.027344-.046875.042968-1.675781 1.4375-4.085937 1.671876-5.984375.539063-12.222656-7.265625-27.777343-6.71875-39.515625 1.710937-8.070312-9.84375-22.589844-11.28125-32.4375-3.210937l-8.125 6.660156v19.527344c.308594-.054687.367188-.066406 0 0v.984375c0 2.507812 1.640625 4.722656 4.042969 5.457031 35.230469 10.746094 72.890625 13.054688 109.097656 7.039063 2.757813-.457032 4.792969-2.832032 4.792969-5.632813v-91.199219c0-3.15625-2.554688-5.710937-5.707031-5.710937zm0 0" fill="#35404a"/><path d="m91.222656 394.03125c-3.15625-.960938-5.3125-3.875-5.3125-7.171875v-110.84375c0-4.144531 3.359375-7.5 7.5-7.5h140c4.144532 0 7.5 3.355469 7.5 7.5v119.867187c0 3.664063-2.652344 6.796876-6.269531 7.394532-47.789063 7.949218-97.179687 4.859375-143.417969-9.246094zm0 0" fill="#4d5967"/><path d="m233.410156 268.515625h-22.5v87.066406c-4.066406 2.429688-7.910156 5.710938-11.339844 9.925781-.875 1.074219-2.148437 2.640626-2.851562 3.289063-.144531.019531-.296875.03125-.429688.039063-1.03125-.640626-3.1875-2.5625-4.738281-3.882813-13.019531-11.0625-33.222656-13.1875-49.753906.371094-1.179687.96875-2.894531 2.378906-3.789063 2.917969-.140624-.019532-.269531-.035157-.410156-.054688-.898437-.859375-2.828125-3.40625-3.867187-4.734375-11.339844-14.40625-31.351563-18.6875-47.589844-10.171875-.082031.042969-.152344.089844-.230469.132812v33.441407c0 3.300781 2.15625 6.210937 5.3125 7.175781 38.621094 11.78125 79.4375 15.871094 119.6875 12.269531 7.9375-.707031 15.855469-1.710937 23.730469-3.019531 3.617187-.601562 6.269531-3.730469 6.269531-7.398438 0-12.480468 0-107.648437 0-119.867187 0-4.144531-3.355468-7.5-7.5-7.5zm0 0" fill="#35404a"/><path d="m163.75 130.570312c0-4.140624-3.355469-7.5-7.5-7.5h-15c-4.144531 0-7.5 3.359376-7.5 7.5 0 4.144532 3.355469 7.5 7.5 7.5h15c4.144531 0 7.5-3.355468 7.5-7.5zm0 0"/><path d="m511.222656 168.667969c.996094-4.265625 1.039063-8.839844.105469-13.265625-2.566406-11.871094-9.871094-17.1875-16.632813-21.394532.515626-1.367187 1.019532-2.742187 1.496094-4.085937 5.445313-15.246094-2.636718-32.824219-17.828125-38.640625-1.34375-.507812-2.675781-1.003906-4.007812-1.488281.230469-1.40625.464843-2.839844.652343-4.226563 2.347657-15.796875-8.710937-31.503906-24.570312-34.453125-1.324219-.253906-2.710938-.507812-4.207031-.765625-.011719-1.503906-.035157-2.902344-.074219-4.207031-.367188-17.535156-16.429688-31.519531-32.234375-29.65625-1.820313.1875-3.675781.464844-5.53125.824219-3.308594-5.925782-6.566406-10.109375-12.558594-13.320313-8.03125-4.335937-18.199219-4.578125-26.105469-1.019531-6.414062 2.914062-9.503906 6.375-13.511718 12.230469-2.214844-.613281-4.535156-1.109375-5.535156-1.292969-9.320313-1.691406-18.648438 2.011719-24.40625 7.585938-7.84375 7.4375-9.492188 15.125-9.726563 25.105468-1.402344.214844-2.796875.445313-4.160156.683594-16.210938 2.734375-27.234375 18.433594-25.230469 33.917969.167969 1.4375.375 2.882812.582031 4.316406-4.359375 1.492187-14.957031 4.4375-20.972656 16.796875-1.8125 3.726562-.261719 8.214844 3.464844 10.027344 3.726562 1.8125 8.210937.261718 10.023437-3.464844 3.164063-6.5 8.207032-7.773438 13.335938-9.507812 5.8125-1.964844 10.054687-7.691407 9.152344-14.925782-.292969-1.996094-.515626-3.535156-.699219-5.082031-1.007813-7.804687 4.722656-15.917969 12.886719-17.296875 1.664062-.292969 3.339843-.5625 5.007812-.8125 6.578125-.992188 11.445312-6.535156 11.578125-13.1875.109375-5.59375-.164063-10.722656 5.105469-15.710938 6.035156-5.683593 12.253906-3.660156 16.082031-2.558593 5.957031 1.710937 12.445313-.746094 15.792969-5.980469.84375-1.246094 2.585937-3.675781 3.671875-4.75 3.933593-3.820312 11.164062-4.777344 16.5625-1.867188 2.273437 1.222657 3.996093 2.613282 6.976562 8.175782 2.816407 5.265625 8.863281 8.074218 14.703125 6.832031 2.601563-.550781 4.246094-.703125 5.246094-.820313 6.628906-.8125 15.316406 5.988282 15.507812 15.125.046876 1.691407.070313 3.382813.074219 5.074219.03125 6.644531 4.808594 12.265625 11.363281 13.363281 1.824219.304688 3.457032.597657 5.042969.90625 7.949219 1.476563 13.703125 9.585938 12.515625 17.59375-.207031 1.511719-.5 3.285157-.789062 5.039063-1.0625 6.484375 2.664062 12.808594 8.863281 15.042969 5.128906 1.84375 10.117187 3.195312 13.160156 9.792968 3.023438 6.527344.886719 11.179688-1.109375 16.378907-2.347656 6.121093 0 13.054687 5.589844 16.488281 1.421875.875 2.882812 1.796875 4.332031 2.742188 5.066407 3.292968 7.867188 9.957031 6.425781 16.257812-.691406 2.679688-1.589843 4.554688-6.199218 8.828125-4.171875 3.867187-5.746094 10.269531-2.679688 16.371094 1.761719 3.777343 5.632813 11.03125-2.019531 18.839843-4.046875 3.765626-7.339844 4.082032-13.144531 3.824219-5.9375-.261719-11.441406 3.476563-13.375 9.097657-1.808594 5.257812-2.933594 7.621093-6.972656 10.230468-3.484376 2.238282-7.40625 3.015625-11.144532 2.472656v-77.378906c0-7.28125-5.925781-13.207031-13.207031-13.207031h-106.523437c-7.28125 0-13.207032 5.921875-13.207032 13.207031v16.292969c0 4.140625 3.359375 7.5 7.5 7.5 4.144532 0 7.5-3.359375 7.5-7.5v-14.5h102.9375v87.882813c-58.871094 9.394531-101.738281-6.832032-105.4375-7.3125 7.375-20.59375-3.617187-41.675782-21.742187-48.613282-7.722657-2.925781-7.144531-2.199218-6.894531-3.734375 1.078124-6.507812 4.167968-19.679687-5.816407-33.675781-5.691406-7.976562-14.3125-13.546875-23.605469-15.269531-7.300781-1.417969-7.425781-1.121094-7.429687-1.769531-.027344-7.5625.683594-20.792969-11.203125-32.761719-5.5-5.59375-12.421875-9.472657-20.601562-10.785157-5.203126-.851562-11.363282.070313-16.539063 1.167969-.152344.03125-.335937-.050781-.410156-.191406-1.410157-2.632813-2.929688-5.128906-4.460938-7.339844-11.410156-16.96875-40.660156-22.109375-57.636719-.902343-5.960937 7.425781-1.007812 6-12.695312 3.703124-20.800781-3.933593-41.210938 13.3125-42.011719 35.128907-.097656 2.207031-.167969 4.523437-.21875 7.082031-.015625.65625-.117187.359375-7.398437 1.636719-19.8125 3.347656-33.714844 22.59375-31.210938 41.980469.269532 2.285156.609375 4.578124.976563 7.09375.097656.675781-.242188.5-7.105469 2.945312-19.011719 6.910156-29.210938 28.492188-22.984375 47.230469 2.335937 7.195312 2.742187 7.101562 2.070313 7.496093-7.53125 4.347657-18.726563 10.617188-22.617188 26.730469-.765625 2.992188-1.0820312 6.144531-1.125 9.296875-.0195312 11.914063 4.421875 19.019532 11.953125 27.265625.113281.121094.132813.324219.046875.46875-2.667969 4.398438-5.691406 10.1875-6.539062 15.25-3.578126 20.820313 11.292968 39.652344 29.253906 42.128907 2.835937.417968 5.734375.6875 8.613281.796874.164063.007813.324219.136719.363281.292969 2.246094 8.820313 4.304688 12.5 6.105469 15.144531 2.332031 3.425782 6.996094 4.3125 10.421875 1.980469 3.421875-2.332031 4.308594-6.996093 1.976562-10.421875-1.851562-2.714844-3.160156-7.230468-3.964843-10.398437-1.667969-6.558594-7.558594-11.320313-14.324219-11.582031-8.863281-.34375-11.832031-1.703126-15.011719-4.003907-5.835937-4.167969-10.167969-12.335937-8.679687-21.234375.753906-3.398437 2.507812-6.707031 4.613281-10.179687 3.515625-5.804688 2.773437-13.355469-1.800781-18.363281-5.109375-5.585938-8.027344-9.460938-8.027344-17.03125.3125-12.125 6.246094-17.773438 16.355469-23.214844 6.425781-3.757813 9.289062-11.582032 6.820312-18.5625-2.390625-6.765625-5.632812-13.875-.921875-23.507813 4.625-9.511719 12.191406-11.433593 18.894532-13.703125 6.660156-2.25 11.644531-8.777344 10.324218-17.875-.277344-1.921875-.570312-3.90625-.800781-5.882812-1.484375-11.480469 6.882813-23.332032 18.863281-25.355469 2.058594-.359375 4.230469-.710937 6.640625-1.078125 7.507813-1.128906 13.0625-7.457031 13.214844-15.046875.140625-7.3125-.566406-17.808594 11.417969-25.269531 7.210937-3.90625 11.75-3.171875 19.4375-.960938 6.816406 1.957032 14.238281-.84375 18.117187-6.863281 4.746094-7.023437 6.726563-8.472656 10.6875-10.28125 6.648438-2.785156 13.835938-2.007813 19.003907.777344 3.386718 1.8125 5.96875 3.929687 10.132812 11.710937 3.210938 5.996094 10.09375 9.199219 16.757812 7.785156 3.679688-.78125 6.097657-.996093 7.097657-1.113281 10.273437-1.238281 22.75 8.914063 23.023437 22.152344.0625 2.074219.09375 4.273437.105469 6.726563.03125 7.582031 5.480469 13.996093 12.964844 15.25 2.4375.40625 4.601562.792968 6.667969 1.195312 11.726562 2.179688 20.09375 14.054688 18.355468 25.761719-.304687 2.203125-.6875 4.484375-1.050781 6.683593-1.214844 7.402344 3.042969 14.621094 10.125 17.167969 6.691406 2.40625 14.175781 4.445313 18.636719 14.101563 8.15625 17.617187-9.515625 24.941406.789062 38.390625 4.777344 6.226562 16.363282 7.3125 19.441406 21.539062 2.4375 11.578125-3.59375 17.648438-8.890624 22.5625-4.738282 4.394531-6.574219 11.703125-3 18.757813 1.582031 3.394531 1.960937 4.433594 2.519531 5.917968 3.355469 8.730469-1.515625 19.824219-9.375 24.457032-3.457031 2.039062-6.265625 3.195312-15.300781 2.792968-6.777344-.296874-13.042969 3.964844-15.242188 10.371094-2.515625 7.320313-4.3125 10.945313-10.125 14.667969-5.636719 3.628906-12.261719 4.664063-18.277344 3.207031v-103.644531c0-8.273437-6.730468-15-15-15h-140c-8.273437 0-15 6.726563-15 15v110.84375c0 6.640625 4.269532 12.40625 10.621094 14.347656 47.246094 14.410157 97.804688 17.625 146.839844 9.472657 7.265625-1.207032 12.539062-7.433594 12.539062-14.796876v-.96875c9.253906 1.316407 18.566406-.816406 26.386719-5.84375 9.105469-5.859374 12.695313-12.210937 16.199219-22.410156.054687-.15625.238281-.28125.390625-.261718 8.691406.382812 16.164062-.203126 23.695312-4.917969 8.925781-5.316407 16.109375-15.683594 17.441407-26.980469 1.023437-8.46875-.855469-14.980469-5.152344-23.472656-.101563-.195313-.082032-.429688.039062-.542969 6.433594-5.96875 11.277344-11.714844 13.230469-20.292969 2.515625-10.757812.085937-22.339844-6.71875-31.375 31.609375 7.269532 64.410156 8.160156 96.132813 2.886719 5.980468-.992187 10.425781-5.851563 10.976562-11.78125 6.078125.453125 12.089844-.925781 16.828125-3.472656 9.511719-5.007813 12.6875-11.542969 15.167969-18.375 4.074218.109375 8.355468-.066407 12.128906-1.347657 11.1875-3.828124 18.65625-13.800781 19.921875-24.539062.882813-7.269531-.894531-12.03125-3.640625-17.941406 4.804688-4.609375 8.3125-9.027344 9.785156-15.578125zm-277.8125 227.214843c-46.558594 7.738282-94.785156 4.765626-140-9.023437v-110.84375h140zm0 0"/><path d="m86.351562 239.183594c2.929688-2.929688 2.929688-7.679688 0-10.605469l-10.605468-10.605469c-2.929688-2.929687-7.675782-2.929687-10.605469 0-2.929687 2.925782-2.929687 7.675782 0 10.605469l10.605469 10.605469c1.464844 1.464844 3.386718 2.195312 5.304687 2.195312s3.835938-.730468 5.300781-2.195312zm0 0"/><path d="m51.742188 305.976562-10.605469 10.605469c-2.929688 2.929688-2.929688 7.679688 0 10.605469 1.464843 1.464844 3.386719 2.199219 5.304687 2.199219 1.917969 0 3.839844-.734375 5.304688-2.199219l10.605468-10.605469c2.929688-2.929687 2.929688-7.679687 0-10.605469-2.929687-2.929687-7.679687-2.929687-10.609374 0zm0 0"/><path d="m140.25 207.074219v15c0 4.144531 3.355469 7.5 7.5 7.5s7.5-3.355469 7.5-7.5v-15c0-4.140625-3.355469-7.5-7.5-7.5s-7.5 3.359375-7.5 7.5zm0 0"/><path d="m318.761719 125.175781 10.605469-10.605469c2.929687-2.929687 2.929687-7.679687 0-10.605468-2.929688-2.929688-7.675782-2.933594-10.605469 0l-10.609375 10.605468c-2.925782 2.929688-2.925782 7.675782.003906 10.605469 1.460938 1.464844 3.382812 2.195313 5.300781 2.195313 1.921875 0 3.839844-.730469 5.304688-2.195313zm0 0"/><path d="m378.066406 73.371094c1.917969 0 3.839844-.734375 5.304688-2.199219 2.929687-2.929687 2.929687-7.675781 0-10.605469l-10.605469-10.605468c-2.929687-2.929688-7.679687-2.929688-10.605469 0-2.929687 2.929687-2.929687 7.675781-.003906 10.605468l10.609375 10.605469c1.464844 1.464844 3.382813 2.199219 5.300781 2.199219zm0 0"/><path d="m232.253906 197.074219c4.144532 0 7.5-3.359375 7.5-7.5s-3.355468-7.5-7.5-7.5h-16c-4.140625 0-7.5 3.359375-7.5 7.5s3.359375 7.5 7.5 7.5zm0 0"/><path d="m279.0625 273.382812c1.917969 0 3.839844-.734374 5.304688-2.199218 2.929687-2.925782 2.929687-7.675782-.003907-10.605469l-10.605469-10.605469c-2.929687-2.929687-7.675781-2.929687-10.605468 0-2.929688 2.929688-2.929688 7.675782 0 10.605469l10.609375 10.605469c1.460937 1.46875 3.382812 2.199218 5.300781 2.199218zm0 0"/><path d="m440.269531 127.070312c4.140625 0 7.5-3.359374 7.5-7.5 0-4.140624-3.359375-7.5-7.5-7.5h-15c-4.144531 0-7.5 3.359376-7.5 7.5 0 4.140626 3.355469 7.5 7.5 7.5zm0 0"/></svg>