<svg height="512pt" viewBox="-31 0 512 512" width="512pt" xmlns="http://www.w3.org/2000/svg" id="svg-icon"><path d="M285 370.3V406c0 19.5-12.598 36.3-30 42.3V497c0 8.398-6.598 15-15 15h-30c-8.402 0-15-6.602-15-15v-48.7c-17.402-6-30-22.8-30-42.3v-35.7c0-8.1 6.598-15 15-15h90c8.402 0 15 6.9 15 15zm0 0" fill="#5bc980"/><path d="M285 370.3V406c0 19.5-12.598 36.3-30 42.3V497c0 8.398-6.598 15-15 15h-15V355.3h45c8.402 0 15 6.9 15 15zm0 0" fill="#00ab5e"/><path d="M337.8 82.2C342 72 348.3 63 355.5 55.5c4.5-4.2 5.7-10.5 3.3-16.2-2.402-5.698-7.8-9.3-13.8-9.3h-30c-19.5 0-37.8 7.5-51.3 20.7C258 33 248.401 17.101 235.5 4.5c-2.7-3-6.602-4.5-10.5-4.5s-7.8 1.5-10.5 4.5C201.598 17.102 192 33 186.3 50.7 172.8 37.5 154.5 30 135 30h-30c-6 0-11.398 3.602-13.8 9.3-2.4 5.7-1.2 12 3.3 16.2C101.7 63 108 72 112.2 82.2 42.597 111.597 0 166.3 0 226c0 90.898 100.8 165 225 165s225-74.102 225-165c0-59.7-42.598-114.402-112.2-143.8zm0 0" fill="#7fe881"/><g fill="#5bc980"><path d="M450 226c0 90.898-100.8 165-225 165V0c3.898 0 7.8 1.5 10.5 4.5C248.402 17.102 258 33 263.7 50.7 277.2 37.5 295.5 30 315 30h30c6 0 11.398 3.602 13.8 9.3 2.4 5.7 1.2 12-3.3 16.2C348.3 63 342 72 337.8 82.2 407.403 111.597 450 166.3 450 226zm0 0"/><path d="M360 256c0 74.398-60.602 135-135 135S90 330.398 90 256c0-38.7 16.8-75.602 45.602-101.398 6.296-5.403 15.898-4.801 21.296 1.5 5.403 6.3 4.801 15.597-1.199 21.296C132.9 197.2 120 226 120 256c0 57.898 47.102 105 105 105s105-47.102 105-105c0-30-12.898-58.8-35.7-78.602-6-5.699-6.6-15-1.198-21.3 5.699-6.301 15-6.899 21.296-1.5C343.2 180.398 360 217.3 360 256zm0 0"/><path d="M240 166v210c0 8.398-6.598 15-15 15s-15-6.602-15-15V166c0-8.402 6.598-15 15-15s15 6.598 15 15zm0 0"/></g><path d="M360 256c0 74.398-60.602 135-135 135v-30c57.898 0 105-47.102 105-105 0-30-12.898-58.8-35.7-78.602-6-5.699-6.6-15-1.198-21.3 5.699-6.301 15-6.899 21.296-1.5C343.2 180.398 360 217.3 360 256zm0 0" fill="#00ab5e"/><path d="M240 166v210c0 8.398-6.598 15-15 15V151c8.402 0 15 6.598 15 15zm0 0" fill="#00ab5e"/></svg>
