<svg viewBox="0 0 512 512" xmlns="http://www.w3.org/2000/svg"><g><circle cx="180.224" cy="105.937" fill="#fdb441" r="104.234"/><circle cx="180.224" cy="105.937" fill="#fe9901" r="72.893"/><path d="m198.808 98.239 38.083-38.083c-3.238-4-6.887-7.649-10.887-10.887l-38.083 38.083v-53.899c-2.531-.267-5.098-.409-7.698-.409s-5.167.143-7.697.409v53.9l-38.083-38.083c-4 3.237-7.649 6.887-10.887 10.887l38.083 38.082h-53.899c-.267 2.531-.41 5.098-.41 7.698s.143 5.167.41 7.698h53.899l-38.083 38.083c3.238 4 6.887 7.649 10.887 10.887l38.083-38.083z" fill="#fece85"/><path d="m402.895 486.186.648-19.858h-214.23l.648 19.858c.47 14.391 12.272 25.814 26.671 25.814h159.592c14.399 0 26.201-11.423 26.671-25.814z" fill="#99e6fc"/><path d="m403.543 466.328 11.644-356.794c.113-3.478-2.675-6.359-6.155-6.359h-225.208c-3.48 0-6.268 2.881-6.155 6.359l11.644 356.794z" fill="#dff6fd"/><path d="m218.122 466.328-9.909-333.39h176.43l-9.909 333.39z" fill="#fe9901"/><path d="m402.895 486.186.648-19.858h-214.23l.648 19.858c.47 14.391 12.272 25.814 26.671 25.814h159.592c14.399 0 26.201-11.423 26.671-25.814z" fill="#99e6fc"/><path d="m403.543 466.328 11.644-356.794c.113-3.478-2.675-6.359-6.155-6.359h-225.208c-3.48 0-6.268 2.881-6.155 6.359l11.644 356.794z" fill="#dff6fd"/><path d="m218.122 466.328-9.909-333.39h176.43l-9.909 333.39z" fill="#fe9901"/><path d="m409.032 103.174h-40.73c3.48 0 6.268 2.881 6.155 6.359l-11.644 356.794h40.73l11.644-356.794c.114-3.478-2.675-6.359-6.155-6.359z" fill="#c8effe"/><path d="m343.913 132.938-9.91 333.39h40.731l9.909-333.39z" fill="#fb8801"/><path d="m362.812 466.328-.648 19.858c-.469 14.391-12.272 25.814-26.67 25.814h40.73c14.399 0 26.201-11.423 26.671-25.814l.648-19.858z" fill="#62dbfb"/><path d="m343.991 132.938 2.479-29.764h-26.778l-2.478 29.764z" fill="#bfbfbf"/><path d="m430.878 0h-88.429c-8.007 0-14.678 6.138-15.342 14.118l-7.415 89.057h26.778l6.134-73.666c.133-1.596 1.467-2.823 3.068-2.823h75.207c2.834 0 5.132-2.298 5.132-5.132v-16.422c-.001-2.834-2.298-5.132-5.133-5.132z" fill="#e2e2e2"/><path d="m320.799 411.487 23.193-278.549h-26.778l-22.994 276.157c-.233 2.803 1.833 5.271 4.633 5.535l16.35 1.54c2.844.268 5.359-1.837 5.596-4.683z" fill="#fec165"/></g></svg>