<svg viewBox="-89 0 511 512" xmlns="http://www.w3.org/2000/svg"><path d="m334.40625 130.578125-33.550781 381.421875h-99.949219l-33.457031-328.402344-33.449219 328.402344h-99.949219l-33.550781-381.421875 13.101562-55.667969 6.90625-29.339844 172.414063-18.171874 121.46875 18.171874zm0 0" fill="#515a5e"/><g fill="#343c3f"><path d="m185.164062 138.28125h-35.410156c-4.265625 0-7.71875-3.453125-7.71875-7.71875 0-4.261719 3.453125-7.71875 7.71875-7.71875h27.691406v-77.269531c0-4.265625 3.457032-7.71875 7.71875-7.71875 4.265626 0 7.71875 3.453125 7.71875 7.71875v84.988281c0 4.265625-3.453124 7.71875-7.71875 7.71875zm0 0"/><path d="m227.117188 512h-26.210938l-33.457031-328.402344c30.164062 0 50.253906 165.128906 59.667969 328.402344zm0 0"/><path d="m63.554688 512h-29.503907l-33.550781-381.421875 13.101562-55.667969 49.316407 10.496094c-24.132813 24.136719-31.542969 200.203125.636719 426.59375zm0 0"/></g><path d="m20.507812 45.574219h57.152344c0 37.851562-41.652344 72.585937-77.15625 85.007812zm0 0" fill="#1e2628"/><path d="m334.410156 130.578125c-35.515625-12.421875-77.164062-47.15625-77.164062-85.007813h57.148437zm0 0" fill="#1e2628"/><path d="m20.507812 7.71875h293.898438v37.851562h-293.898438zm0 0" fill="#f0c398"/><path d="m20.507812 7.71875h68.53125v37.851562h-68.53125zm0 0" fill="#d89d6c"/><path d="m82.859375 492.300781c-4.234375 0-7.683594-3.414062-7.714844-7.65625l-2.796875-358.101562c-.035156-4.261719 3.394532-7.746094 7.65625-7.777344h.0625c4.234375 0 7.683594 3.414063 7.71875 7.65625l2.796875 358.101563c.03125 4.261718-3.398437 7.742187-7.660156 7.777343-.019531 0-.042969 0-.0625 0zm0 0" fill="#343c3f"/><path d="m252.042969 492.300781c-.019531 0-.039063 0-.0625 0-4.261719-.035156-7.691407-3.515625-7.65625-7.777343l2.796875-358.101563c.03125-4.242187 3.480468-7.65625 7.71875-7.65625h.058594c4.265624.03125 7.695312 3.515625 7.660156 7.777344l-2.796875 358.101562c-.035157 4.242188-3.484375 7.65625-7.71875 7.65625zm0 0" fill="#343c3f"/><path d="m207.058594 53.292969c-4.261719 0-7.71875-3.457031-7.71875-7.71875v-37.855469c0-4.261719 3.457031-7.71875 7.71875-7.71875 4.265625 0 7.71875 3.457031 7.71875 7.71875v37.855469c0 4.261719-3.453125 7.71875-7.71875 7.71875zm0 0" fill="#515a5e"/><path d="m125.921875 53.292969c-4.265625 0-7.71875-3.457031-7.71875-7.71875v-37.855469c0-4.261719 3.453125-7.71875 7.71875-7.71875 4.261719 0 7.71875 3.457031 7.71875 7.71875v37.855469c0 4.261719-3.457031 7.71875-7.71875 7.71875zm0 0" fill="#515a5e"/><path d="m47.992188 53.292969c-4.265626 0-7.71875-3.457031-7.71875-7.71875v-37.855469c0-4.261719 3.453124-7.71875 7.71875-7.71875 4.261718 0 7.71875 3.457031 7.71875 7.71875v37.855469c0 4.261719-3.457032 7.71875-7.71875 7.71875zm0 0" fill="#1e2628"/><path d="m286.925781 53.292969c-4.261719 0-7.71875-3.457031-7.71875-7.71875v-37.855469c0-4.261719 3.457031-7.71875 7.71875-7.71875 4.265625 0 7.71875 3.457031 7.71875 7.71875v37.855469c0 4.261719-3.457031 7.71875-7.71875 7.71875zm0 0" fill="#1e2628"/><path d="m185.242188 34.363281c-3.097657 0-5.9375-1.914062-7.125-4.765625-1.25-3.007812-.433594-6.578125 2.015624-8.730468 5.144532-4.523438 13.453126-.292969 12.789063 6.53125-.378906 3.90625-3.757813 6.964843-7.679687 6.964843zm0 0" fill="#515a5e"/></svg>