<svg height="512pt" viewBox="0 -98 512 512" width="512pt" xmlns="http://www.w3.org/2000/svg" id="svg-icon"><path d="M261.602 48.129H0v90.25l212.586 176.879h86.824l212.586-176.88v-90.25zm0 0" fill="#f79341"/><path d="M512 138.375L299.406 315.258l8.465-37.117L472.008 140.34zm0 0" fill="#ef7e29"/><path d="M511.996 58.441H0V9.863A9.86 9.86 0 019.863 0h492.27c5.445 0 9.863 4.414 9.863 9.863zm0 0" fill="#e8dacd"/><path d="M511.996 58.441H485.07V0h17.063c5.445 0 9.863 4.414 9.863 9.863zm0 0" fill="#e5ccb7"/><path d="M0 138.379l212.586 176.879-10.524-46.18c-16.457-72.234-78.996-124.68-152.996-128.297zm0 0M511.996 138.379L299.41 315.258l10.524-46.18c16.46-72.234 79-124.68 153-128.3zm0 0" fill="#e8dacd"/><path d="M512 138.375L299.406 315.258l8.465-37.117L472.008 140.34zm0 0" fill="#e5ccb7"/><g fill="#e8dacd"><path d="M174.84 208.95c-3.25-4.5-6.719-8.821-10.399-12.942 8.73-15.598 32.38-66.02 19.668-136.18a7.255 7.255 0 01-.129-1.39h15.68c14.969 85.292-19.308 142.07-24.82 150.511zm0 0M347.379 196.2a160.27 160.27 0 00-10.367 12.94c-5.07-7.71-40.032-64.722-24.942-150.702h15.68c0 .472-.04.921-.129 1.39-8.02 44.262-1.43 80.262 5.5 102.672 4.969 16.04 10.82 27.617 14.258 33.7zm0 0"/></g></svg>
