<svg viewBox="0 0 512 512" xmlns="http://www.w3.org/2000/svg" id="svg-icon"><path d="M494.847 280.769H384.489l23.535 71.649h6.827c40.79 0 75.024-29.428 82.562-68.099z" fill="#ffc365"/><path d="M408.024 352.418h6.827a83.295 83.295 0 0036.567-8.436c.138-1.41.227-2.834.227-4.279v-9.535c0-10.412-3.667-19.984-9.778-27.492-1.611-1.979-2.835-4.26-3.474-6.731a52.747 52.747 0 00-6.62-15.176H384.49z" fill="#ffa90f"/><path d="M24.442 275.746l-9.855 8.573c7.538 38.67 41.772 68.099 82.562 68.099h6.827l33.099-76.671H24.442z" fill="#ffc365"/><path d="M83.855 275.746a52.723 52.723 0 00-10.247 20.197c-.639 2.471-1.863 4.753-3.475 6.733-6.11 7.508-9.777 17.08-9.777 27.491v9.535c0 1.445.089 2.869.227 4.279a83.295 83.295 0 0036.567 8.436h6.827l33.099-76.671z" fill="#ffa90f"/><path d="M500.917 240.95c-1.027-8.351-6.999-15.114-14.817-17.386-3.964-1.152-6.655-4.775-7.013-8.888-.729-8.391-6.608-15.625-14.665-18.076a10.275 10.275 0 01-7.27-8.964c-.736-8.378-6.602-15.618-14.663-18.068a10.264 10.264 0 01-7.265-8.96c-.732-8.388-6.61-15.619-14.664-18.068a10.275 10.275 0 01-7.27-8.964c-.733-8.347-6.559-15.563-14.572-18.04a10.317 10.317 0 01-7.274-9.081c-1.132-14.263-17.48-23.465-30.388-16.572a10.085 10.085 0 01-9.52-.001c-12.94-6.944-29.211 2.371-30.382 16.57-.351 4.248-3.194 7.82-7.269 9.072-8.036 2.468-13.848 9.702-14.588 18.037-.374 4.208-3.217 7.744-7.261 8.968-3.416 1.034-6.426 2.934-8.827 5.408v7.792l66.597 91.514 19.745 9.443h127.861l2.195-5.417c1.256-3.118 1.764-6.623 1.31-10.319z" fill="#ff94d5"/><path d="M395.044 237.885a18.683 18.683 0 01-5.998-7.391 53.861 53.861 0 00-17.203-21.204 18.69 18.69 0 01-5.993-7.387 53.832 53.832 0 00-17.218-21.215 18.72 18.72 0 01-5.998-7.393 53.931 53.931 0 00-16.995-21.047c-2.578-1.909-4.633-4.43-5.937-7.36-3.674-8.256-9.495-15.499-16.965-21.005-1.904 2.849-3.127 6.164-3.439 9.68-.374 4.208-3.217 7.744-7.261 8.968-3.416 1.034-6.426 2.934-8.827 5.408v7.792l66.597 91.514 19.745 9.443h41.519c-3.806-7.402-9.3-13.878-16.027-18.803z" fill="#ff72c7"/><path d="M219.976 142.541a10.275 10.275 0 01-7.27-8.964c-.733-8.347-6.559-15.563-14.572-18.04a10.317 10.317 0 01-7.274-9.081c-1.133-14.263-17.48-23.465-30.388-16.572a10.085 10.085 0 01-9.52-.001c-12.94-6.944-29.211 2.371-30.383 16.57-.351 4.248-3.194 7.82-7.269 9.072-8.036 2.468-13.848 9.702-14.588 18.037-.374 4.208-3.217 7.744-7.261 8.968-8.078 2.445-13.926 9.699-14.669 18.062-.374 4.208-3.217 7.744-7.261 8.968-8.078 2.445-13.927 9.698-14.669 18.062-.374 4.209-3.217 7.744-7.261 8.968-8.082 2.446-13.933 9.705-14.671 18.074-.363 4.116-3.047 7.746-7.014 8.898-7.82 2.27-13.795 9.035-14.822 17.387-.455 3.696.053 7.201 1.309 10.321l7.243 2.069H165.32l63.481-98.897v-6.491c-2.405-2.474-5.417-4.374-8.825-5.41z" fill="#8479c2"/><path d="M116.964 237.874a53.855 53.855 0 00-14.163 15.466h62.518l63.481-98.897v-6.491c-2.404-2.475-5.415-4.374-8.824-5.411a10.275 10.275 0 01-7.27-8.964c-.309-3.519-1.531-6.831-3.433-9.677-7.448 5.501-13.259 12.73-16.935 20.969-1.305 2.925-3.361 5.44-5.936 7.343a53.917 53.917 0 00-17.03 21.073 18.704 18.704 0 01-5.997 7.391 53.848 53.848 0 00-17.214 21.215 18.687 18.687 0 01-5.994 7.388 53.857 53.857 0 00-17.207 21.208 18.704 18.704 0 01-5.996 7.387z" fill="#6e60b8"/><path d="M499.983 251.271h-93.259c1.452 2.268 2.767 4.626 3.884 7.087a20.148 20.148 0 006.516 7.984c6.581 4.774 12.025 10.922 16.021 17.978h66.838c6.61 0 12.017-5.408 12.017-12.018v-9.013c0-6.61-5.408-12.018-12.017-12.018z" fill="#ffd086"/><path d="M357.705 254.757l24.467 27.686 5.814 1.876h45.862a52.808 52.808 0 00-15.564-17.877 18.738 18.738 0 01-6.065-7.431c-1.228-2.705-2.702-5.284-4.354-7.74H362.88z" fill="#ffc365"/><path d="M94.57 266.364a19.766 19.766 0 006.398-7.837c1.146-2.524 2.504-4.938 4.005-7.255H12.017C5.408 251.271 0 256.679 0 263.289v9.013c0 6.61 5.408 12.018 12.017 12.018h66.647c3.938-7.057 9.347-13.2 15.906-17.956z" fill="#ffd086"/><path d="M124.016 284.319l6.534-3.551 21.891-24.08-3.319-5.417H104.14c-1.65 2.454-3.121 5.03-4.349 7.733a18.745 18.745 0 01-6.068 7.434 52.812 52.812 0 00-15.572 17.881zM398.397 349.576H167.811l-2.218 1.938c7.354 37.726 38.117 67.333 76.412 72.952h75.949c43.156 0 79.376-31.135 87.351-72.048z" fill="#ffc365"/><path d="M167.875 352.418l3.252-2.842h-61.18l-3.252 2.842c7.975 40.913 44.195 72.048 87.351 72.048h61.18c-43.156 0-79.376-31.135-87.351-72.048z" fill="#ffa90f"/><path d="M409.012 306.533c-1.087-8.835-7.405-15.991-15.676-18.394-4.194-1.219-7.042-5.052-7.42-9.403-.772-8.877-6.992-16.532-15.515-19.124a10.868 10.868 0 01-7.691-9.484c-.778-8.864-6.985-16.524-15.513-19.116a10.86 10.86 0 01-7.686-9.48c-.775-8.874-6.994-16.524-15.514-19.116a10.867 10.867 0 01-7.691-9.483c-.775-8.831-6.939-16.466-15.417-19.086a10.916 10.916 0 01-7.696-9.607c-.415-5.234-2.77-9.821-6.235-13.279-2.02 2.964-3.355 6.43-3.669 10.233-.378 4.581-3.444 8.432-7.838 9.782-8.665 2.661-14.931 10.461-15.729 19.448-.403 4.538-3.469 8.35-7.829 9.669-8.71 2.636-15.016 10.457-15.817 19.475-.403 4.537-3.469 8.35-7.829 9.669-8.71 2.636-15.016 10.457-15.817 19.475-.403 4.538-3.469 8.35-7.829 9.669-8.714 2.637-15.022 10.465-15.818 19.488-.392 4.438-3.285 8.352-7.563 9.594-8.432 2.448-14.874 9.742-15.982 18.748-.49 3.985.057 7.765 1.411 11.129l6.69 6.14h228.148l6.14-6.025c1.329-3.303 1.866-7.012 1.385-10.922z" fill="#60b9fe"/><path d="M167.546 306.533c1.087-8.837 7.408-15.994 15.682-18.396 4.198-1.219 7.037-5.06 7.421-9.414.781-8.854 6.971-16.534 15.522-19.122 4.279-1.295 7.287-5.035 7.682-9.488.786-8.848 6.973-16.523 15.52-19.109 4.279-1.295 7.287-5.036 7.682-9.488.786-8.849 6.973-16.523 15.52-19.11 4.278-1.295 7.287-5.035 7.682-9.488.783-8.819 6.932-16.472 15.434-19.083 4.311-1.324 7.32-5.103 7.691-9.598.372-4.511 2.192-8.55 4.917-11.803-6.355-7.584-17.695-10.833-27.258-5.727a10.672 10.672 0 01-10.072-.001c-13.69-7.347-30.905 2.509-32.145 17.531-.371 4.495-3.38 8.274-7.691 9.598-8.502 2.612-14.651 10.265-15.434 19.083-.396 4.453-3.404 8.193-7.682 9.488-8.547 2.586-14.734 10.261-15.52 19.11-.396 4.452-3.404 8.193-7.682 9.488-8.547 2.586-14.734 10.261-15.52 19.109-.395 4.453-3.403 8.193-7.682 9.488-8.551 2.588-14.74 10.269-15.522 19.122-.384 4.355-3.223 8.195-7.421 9.414-8.273 2.402-14.595 9.559-15.682 18.396-.481 3.91.056 7.619 1.385 10.92l6.564 6.025h64.558l-6.564-6.025c-1.329-3.301-1.866-7.01-1.385-10.92z" fill="#1ca8ff"/><path d="M408.024 317.453h-247.87c-4.925 1.995-8.426 6.828-8.426 12.447v10.071c0 5.618 3.501 10.452 8.426 12.447h247.87c6.993 0 12.714-5.722 12.714-12.714v-9.536c0-6.994-5.721-12.715-12.714-12.715z" fill="#ffd086"/><path d="M152.442 339.703v-9.536c0-6.993 5.722-12.714 12.714-12.714h-61.18c-6.993 0-12.714 5.721-12.714 12.714v9.536c0 6.993 5.722 12.714 12.714 12.714h61.18c-6.993.001-12.714-5.721-12.714-12.714z" fill="#ffc365"/></svg>