<?xml version="1.0" encoding="iso-8859-1"?>
<svg version="1.1" xmlns="http://www.w3.org/2000/svg"
	 viewBox="0 0 512 512">
<rect x="269.008" y="184.897" transform="matrix(0.7071 -0.7071 0.7071 0.7071 -45.4981 295.6657)" style="fill:#E0D9E3;" width="130.286" height="35.714"/>
<path style="fill:#FC7176;" d="M498.936,35.08c-16.475-14.846-42.354-12.704-56.882,4.052l-96.69,111.515
	c-3.81,4.394-3.576,10.986,0.537,15.098l25.254,25.254c4.112,4.112,10.704,4.346,15.098,0.537l112.105-97.201
	c1.334-1.172,2.777-2.594,3.972-3.972C516.472,74.053,514.901,49.468,498.936,35.08z M480.225,79.689
	c-6.357,6.357-16.664,6.357-23.021,0c-6.357-6.357-6.357-16.664,0-23.021s16.664-6.357,23.021,0
	C486.582,63.025,486.582,73.332,480.225,79.689z"/>
<path style="fill:#FFB641;" d="M38.205,328.724L38.205,328.724L38.205,328.724c-14.594-26.331,1.732-59.116,31.539-63.338l0,0l0,0
	c-4.096-29.825,22.97-54.499,52.289-47.667l0,0l0,0c6.955-29.29,41.105-42.521,65.978-25.56l0,0l0,0
	c17.066-24.801,53.69-24.801,70.756,0l0,0l0,0c24.873-16.961,59.023-3.73,65.978,25.56l0,0l0,0
	c29.32-6.83,56.385,17.843,52.289,47.667l0,0l0,0c29.807,4.223,46.132,37.007,31.539,63.338l0,0l0,0H38.205z"/>
<path style="fill:#FA9E25;" d="M73.231,328.724c-14.594-26.331,1.732-59.116,31.539-63.338l0,0l0,0
	c-4.096-29.825,22.97-54.499,52.289-47.667l0,0l0,0c3.291-13.862,12.677-24.119,24.285-29.289
	c-23.933-10.799-52.961,2.54-59.312,29.289l0,0l0,0c-29.32-6.83-56.385,17.843-52.289,47.667l0,0l0,0
	c-29.807,4.223-46.132,37.006-31.539,63.338l0,0l0,0H73.231L73.231,328.724L73.231,328.724z"/>
<path style="fill:#FC7176;" d="M223.389,321.655L21.205,342.86c0,0,5.92,74.685,86.03,111.149c6.152,2.8,10.132,8.905,10.132,15.665
	c0,9.49,7.693,17.183,17.183,17.183h177.676c9.49,0,17.183-7.693,17.183-17.183c0-6.76,3.98-12.865,10.132-15.665
	c80.11-36.463,86.03-111.149,86.03-111.149L223.389,321.655z"/>
<path style="fill:#E6676C;" d="M148.273,469.674c0-6.76-3.98-12.865-10.132-15.665c-80.11-36.464-86.03-111.149-86.03-111.149
	l186.731-19.585l-15.453-1.62L21.205,342.859c0,0,5.92,74.685,86.03,111.149c6.152,2.8,10.132,8.905,10.132,15.665
	c0,9.49,7.693,17.183,17.183,17.183h30.905C155.966,486.857,148.273,479.164,148.273,469.674z"/>
<g>
	<path style="fill:#38484A;" d="M141.469,414.646c-4.267,0-7.726-3.459-7.726-7.726v-14.826c0-4.267,3.459-7.726,7.726-7.726
		c4.267,0,7.726,3.459,7.726,7.726v14.826C149.195,411.187,145.736,414.646,141.469,414.646z"/>
	<path style="fill:#38484A;" d="M305.309,414.646c-4.267,0-7.726-3.459-7.726-7.726v-14.826c0-4.267,3.459-7.726,7.726-7.726
		s7.726,3.459,7.726,7.726v14.826C313.035,411.187,309.576,414.646,305.309,414.646z"/>
	<path style="fill:#38484A;" d="M223.389,422.56c-10.109,0-19.599-4.224-26.036-11.586c-2.809-3.213-2.481-8.094,0.731-10.902
		c3.213-2.808,8.095-2.481,10.902,0.732c3.503,4.006,8.751,6.305,14.402,6.305s10.9-2.297,14.401-6.304
		c2.808-3.213,7.69-3.541,10.902-0.732c3.213,2.808,3.541,7.689,0.732,10.902C242.988,418.337,233.499,422.56,223.389,422.56z"/>
</g>
<path style="fill:#F5F5F5;" d="M425.572,300.45H21.205C9.494,300.45,0,309.943,0,321.655l0,0c0,11.711,9.494,21.205,21.205,21.205
	h404.368c11.711,0,21.205-9.494,21.205-21.205l0,0C446.777,309.943,437.284,300.45,425.572,300.45z"/>
<path style="fill:#D9D9D9;" d="M30.905,321.655L30.905,321.655c0-11.711,9.494-21.205,21.205-21.205H21.205
	C9.494,300.45,0,309.943,0,321.655l0,0c0,11.711,9.494,21.205,21.205,21.205h30.905C40.4,342.86,30.905,333.366,30.905,321.655z"/>
</svg>
