<svg height="512pt" viewBox="-60 0 511 512" width="512pt" xmlns="http://www.w3.org/2000/svg" id="svg-icon"><path d="M223.863 314.523h-55.027l-10-174.09 10-112.218V9.53A9.53 9.53 0 01178.367 0h35.965a9.53 9.53 0 019.531 9.531v45.207l10 94.5zm0 0M68.219 215.031l-54.672 6.254L.559 107.746c-.555-4.84 2.921-9.215 7.761-9.766l37.14-4.25a8.822 8.822 0 019.77 7.762zm0 0" fill="#ffcd70"/><path d="M126.605 323.469l-54.957 2.765L58.531 65.887a8.824 8.824 0 018.367-9.258l37.336-1.879c4.868-.246 9.008 3.5 9.254 8.367zm0 0M323.57 226.605l54.672 6.254 14.313-125.113c.554-4.84-2.922-9.215-7.762-9.766l-37.14-4.25a8.822 8.822 0 00-9.77 7.762zm0 0" fill="#ffe170"/><path d="M266.508 334.113l54.957 2.77L334.582 76.53c.246-4.867-3.5-9.011-8.367-9.254l-37.336-1.882a8.824 8.824 0 00-9.258 8.367zm0 0M168.836 322.875h-55.027V28.215a9.37 9.37 0 019.37-9.371h36.286a9.37 9.37 0 019.37 9.37zm0 0" fill="#ffb65c"/><path d="M278.895 306.957h-55.032V46.277c0-4.87 3.953-8.824 8.824-8.824h37.383c4.871 0 8.825 3.953 8.825 8.824zm0 0M196.117 415.355h-52.133V110.11c0-5.12 4.157-9.273 9.278-9.273h33.582a9.274 9.274 0 019.273 9.273zm0 0" fill="#ffe170"/><path d="M248.254 444.79h-52.137V139.546c0-5.125 4.156-9.277 9.278-9.277h33.582c5.12 0 9.273 4.152 9.273 9.277v305.242zm0 0" fill="#ffb65c"/><path d="M150.836 463.313l-52.11 1.656-9.703-305.09c-.16-5.121 3.86-9.406 8.98-9.57l33.563-1.067c5.121-.164 9.403 3.856 9.567 8.977zm0 0M300.387 471.781h-52.133V166.535a9.274 9.274 0 019.273-9.273h33.582a9.274 9.274 0 019.274 9.273v305.246zm0 0" fill="#ffcd70"/><path d="M306.543 512H86.57c-14.734 0-27.312-10.66-29.722-25.2L7.676 190.489H42.77a43.01 43.01 0 0138.757 24.356c20.743 43.101 64.114 72.066 112.594 73.21 50.777 1.2 97.195-28.355 118.824-73.53 7.082-14.794 22.211-24.036 38.606-24.036h33.887l-49.172 296.313C333.852 501.34 321.277 512 306.543 512zm0 0" fill="#e55045"/><path d="M119.93 288.055c13.816.328 27.304-1.64 40.062-5.563-34.058-10.48-62.754-35.004-78.465-67.648a43.01 43.01 0 00-38.757-24.356H7.676l5.957 35.899c22.48 36.66 62.281 60.629 106.297 61.668zm0 0M351.55 190.488c-16.398 0-31.523 9.242-38.605 24.035a129.565 129.565 0 01-8.078 14.387L262.07 486.8c-2.41 14.54-14.984 25.2-29.722 25.2h74.191c14.738 0 27.313-10.66 29.727-25.2l49.171-296.312zm0 0" fill="#c43730"/><path d="M243.441 390.336c0 26.46-21.453 47.914-47.914 47.914-26.46 0-47.914-21.453-47.914-47.914 0-26.461 21.453-47.914 47.914-47.914 26.461 0 47.914 21.453 47.914 47.914zm0 0" fill="#fff"/></svg>
