<svg viewBox="0 0 512 512" height="512" width="512" xmlns="http://www.w3.org/2000/svg" id="svg-icon"><path d="M333.807 68.086l-10.723-13.022a6.473 6.473 0 00-5.015-2.366h-32.762a7.726 7.726 0 110-15.452h32.762a21.877 21.877 0 0116.944 7.996l10.723 13.022a7.726 7.726 0 11-11.929 9.822z" fill="#60b8fe"/><path d="M276.295 26.748a24.99 24.99 0 00.21-3.067C276.504 10.602 266.437 0 254.018 0s-22.486 10.602-22.486 23.681c0 1.042.086 2.061.21 3.067z" fill="#b1dbfc"/><path d="M263.244 2.086A21.45 21.45 0 00254.018 0c-12.419 0-22.486 10.602-22.486 23.68 0 1.042.086 2.061.21 3.067h18.451a24.99 24.99 0 01-.21-3.067c.001-9.614 5.445-17.884 13.261-21.594z" fill="#8bcaff"/><path d="M240.068 63.19h27.901v30.519h-27.901z" fill="#b1dbfc"/><path d="M240.068 63.19h18.451v30.519h-18.451z" fill="#8bcaff"/><path d="M280.811 25.398h-53.585c-5.872 0-10.676 4.804-10.676 10.676v17.794c0 5.872 4.804 10.676 10.676 10.676h53.585c5.872 0 10.676-4.804 10.676-10.676V36.075c0-5.872-4.804-10.677-10.676-10.677z" fill="#dfebfa"/><path d="M235.001 53.869V36.075c0-5.872 4.805-10.677 10.677-10.677h-18.451c-5.872 0-10.677 4.804-10.677 10.677v17.794c0 5.872 4.805 10.676 10.677 10.676h18.451c-5.873 0-10.677-4.804-10.677-10.676z" fill="#b1dbfc"/><path d="M230.424 123.314h47.188a65.33 65.33 0 0120.212 3.203v-17.353c0-9.348-7.648-16.997-16.997-16.997h-53.619c-9.348 0-16.997 7.649-16.997 16.997v17.353a65.37 65.37 0 0120.213-3.203z" fill="#dfebfa"/><path d="M228.664 109.164c0-9.348 7.648-16.997 16.996-16.997h-18.451c-9.348 0-16.997 7.649-16.997 16.997v17.354a65.385 65.385 0 0118.451-3.168v-14.186z" fill="#b1dbfc"/><path d="M343.534 287.984V187.176c0-36.257-29.665-65.922-65.922-65.922h-47.188c-36.257 0-65.922 29.665-65.922 65.922v100.808z" fill="#ffd301"/><path d="M205.062 168.652c0-19.267 9.288-36.464 23.602-47.354-35.449.944-64.161 30.21-64.161 65.877v100.808h40.559z" fill="#ffc20c"/><path d="M164.502 349.795v149.748c0 6.851 5.605 12.457 12.456 12.457h154.119c6.851 0 12.456-5.606 12.456-12.457V349.795z" fill="#ffd301"/><path d="M205.062 506.039V349.795h-40.559v149.748c0 6.851 5.605 12.457 12.456 12.457h29.65a12.246 12.246 0 01-1.547-5.961z" fill="#ffc20c"/><path d="M343.534 287.984v-79.426c-22.158-24.342-54.083-39.645-89.516-39.645h-.001c-35.433 0-67.358 15.302-89.516 39.645v79.426z" fill="#fee55a"/><path d="M205.062 179.268a121.648 121.648 0 00-40.559 29.291v79.426h40.559z" fill="#ffd301"/><path d="M164.502 349.795v82.259c22.158 24.342 54.084 39.645 89.516 39.645s67.357-15.302 89.516-39.644v-82.259H164.502z" fill="#fee55a"/><path d="M205.062 349.795h-40.559v82.259a121.648 121.648 0 0040.559 29.291z" fill="#ffd301"/><path d="M254.018 200.454c-49.438 0-89.516 40.078-89.516 89.516v60.673c0 49.438 40.078 89.516 89.516 89.516s89.516-40.077 89.516-89.516V289.97c0-49.438-40.077-89.516-89.516-89.516z" fill="#60b8fe"/><path d="M205.062 215.023c-24.422 15.985-40.559 43.58-40.559 74.947v60.673c0 31.367 16.137 58.962 40.559 74.947z" fill="#23a8fe"/><path d="M312.558 354.199c-1.389-7.608-8.319-12.954-16.052-12.954-.802 0-1.143-.998-.522-1.506 4.086-3.341 6.498-8.66 5.716-14.465-1.071-7.954-8.151-13.73-16.178-13.73h-3.041c-1.617 0-2.411-1.91-1.32-3.103 3.005-3.284 4.659-7.819 4.047-12.712-.827-6.61-5.798-11.753-12.046-13.358a3.769 3.769 0 01-2.802-3.158c-.529-4.055-1.819-8.487-4.309-13.14-4.476-8.361-11.223-12.527-17.451-14.562-3.352-1.095-6.348 2.525-4.487 5.52 1.401 2.256 2.357 5.202 2.357 9.042 0 5.281-1.809 10.022-4.096 13.911a3.81 3.81 0 01-3.29 1.859c-7.762 0-15.327 6.242-16.261 13.947-.594 4.898 1.082 9.435 4.11 12.709 1.071 1.159.203 3.043-1.375 3.043h-3.048c-7.996 0-15.055 5.733-16.16 13.652-.814 5.839 1.604 11.193 5.713 14.549.616.503.263 1.499-.532 1.499-8.112.001-15.236 5.908-16.203 13.962-1.153 9.602 6.401 17.84 15.785 17.84h85.816c9.709.005 17.46-8.819 15.629-18.845z" fill="#dfebfa"/><path d="M222.797 355.208c.967-8.055 8.091-13.961 16.203-13.962.795 0 1.148-.996.532-1.499-4.109-3.356-6.527-8.71-5.713-14.549 1.105-7.919 8.164-13.652 16.16-13.652h3.048c1.578 0 2.446-1.885 1.375-3.044-3.027-3.274-4.703-7.811-4.11-12.709.934-7.705 8.499-13.947 16.261-13.947a3.809 3.809 0 003.29-1.859c.171-.29.332-.594.497-.893-.538-4.022-1.825-8.411-4.291-13.018-4.476-8.361-11.223-12.527-17.451-14.562-3.353-1.095-6.348 2.525-4.487 5.52 1.401 2.256 2.357 5.201 2.357 9.042 0 5.281-1.809 10.022-4.097 13.911a3.81 3.81 0 01-3.29 1.859c-7.762 0-15.327 6.242-16.261 13.947-.594 4.898 1.082 9.435 4.109 12.709 1.071 1.159.203 3.044-1.375 3.044h-3.048c-7.995 0-15.056 5.733-16.16 13.652-.815 5.839 1.604 11.193 5.713 14.549.616.503.263 1.499-.532 1.499-8.112.001-15.236 5.908-16.203 13.962-1.153 9.602 6.401 17.84 15.785 17.84h27.472c-9.383.001-16.937-8.238-15.784-17.84z" fill="#b1dbfc"/><path d="M261.758 412.14H247.39a7.726 7.726 0 110-15.452h14.368a7.726 7.726 0 110 15.452z" fill="#23a8fe"/></svg>
