<svg xmlns="http://www.w3.org/2000/svg" id="svg-icon" viewBox="0 0 232.44 599.79"><path d="M232.1 316.56c-.95-1.61-1.84-3.25-2.81-4.86a22 22 0 01-2.5-6.9c-.66-3-1.38-6-2.09-9.06a14.54 14.54 0 00-3.48-6.52c-2.42-2.72-4.51-5.72-6.67-8.66a4.34 4.34 0 01-.74-2c-.19-1.44-.2-2.91-.34-4.36-.4-3.85-.92-7.7-1.2-11.56-.45-6.5-.74-13-1.14-19.53-.33-5.27-.62-10.55-1.08-15.82a79.64 79.64 0 00-5.6-24 4.21 4.21 0 01-.21-1.84c.12-1.54.44-3.07.51-4.61a73.87 73.87 0 00-.6-14.34 194 194 0 00-7.44-30.81 8.91 8.91 0 01-.44-2.8c0-1.49.38-3 .49-4.46s0-3.28.24-4.89a35.5 35.5 0 00-.27-10.89 56 56 0 00-7.13-18.15c-3.33-5.64-7.62-8.83-12.38-11.92a25.09 25.09 0 00-7.12-3.15c-2.61-.71-5.35-.73-7.9-1.87-1.09-.5-2.28-.77-3.35-1.33-4.47-2.36-8.87-4.86-13.36-7.16-3.28-1.68-6.65-3.12-10-4.56-1.19-.51-1.29-.39-1.41-1.59a59 59 0 01.78-14.27v-.12c0-.04.11-.15.17-.23a12.55 12.55 0 001.91-4.88c.19-1.25.37-2.49.56-3.74 1.4.2 2.8.08 3.49-.92a20.81 20.81 0 001.13-2.44 13.23 13.23 0 011.82-2.27c1.29-1.54 1.59-3.73 1.61-5.78 0-1.85.35-6.25-2.1-6.73a2.76 2.76 0 00-1.85.83v-.1a51.37 51.37 0 01.64-5.51 26.07 26.07 0 00-2.27-18.38A27 27 0 00120.82.57c-20.41-3.68-37.47 10.81-35 31.88a31.36 31.36 0 001.38 5.37l.27.67c-.67-.55-1.43-1.06-2-.95-2.45.48-2.12 4.88-2.1 6.73 0 2 .32 4.24 1.61 5.78a13.23 13.23 0 011.82 2.27 24.66 24.66 0 001.13 2.44c.84 1.22 2.71 1.14 4.39.75a13.18 13.18 0 01.22 1.89 12.6 12.6 0 001.8 6.13c.5.78 1 1.55 1.58 2.32.3 3.45 1 10.46 1.12 11.89.21 1.89-.6 2.49-2.43 3.35l-.51.23c-3 1.47-6 2.89-9 4.49-4 2.19-8 4.53-12 6.84a19.84 19.84 0 01-6.28 2.62 23.28 23.28 0 00-2.84.54c-2 .62-4.21 1-6 2-6.09 3.56-11.46 7-15.52 14.34-4.8 8.62-8.34 18.57-6.92 28.56a3.66 3.66 0 010 .81 19.14 19.14 0 00.47 5.28 10.57 10.57 0 01-.05 5.27 202.85 202.85 0 00-7 27.67 69 69 0 00-.67 22.31 4.56 4.56 0 01-.35 2.51 69.1 69.1 0 00-3.8 12.4 166.09 166.09 0 00-2.7 24.86c-.19 3.82-.27 7.65-.52 11.47-.3 4.73-.71 9.46-1.11 14.18-.25 3.09-.71 6.16-.82 9.25a10 10 0 01-2.17 6.44c-2.13 2.55-4.09 5.25-6.22 7.79a9 9 0 00-2.09 3.48c-.94 3.66-1.86 7.32-2.72 11a23.19 23.19 0 01-1.92 6c-1.11 2-2.28 4.05-3.45 6.05-.71 1.2-.36 2.13 1 2.44 2.12.45 4.21.47 5.94-1.1 1.07-1 2.07-2 3.08-3.07.32-.35.59-.76.88-1.14l.26.12c0 .48-.06 1-.11 1.44-.42 3.71-.88 7.42-1.26 11.13-.32 3.22-.56 6.45-.79 9.68-.1 1.26-.07 2.55-.05 3.82a1.31 1.31 0 001 1.21c.52.18.81-.2 1.15-.52a13.61 13.61 0 003.65-6.9c1.19-4.68 2.29-9.38 3.44-14.08a5.5 5.5 0 01.41-.85 1.07 1.07 0 01.34.81c0 1.19-.1 2.38-.16 3.56-.15 3-.31 5.92-.44 8.88a57.76 57.76 0 00.27 10.76 6.76 6.76 0 01.92.37 1.36 1.36 0 001.94-.29 4.18 4.18 0 00.77-1.38c1.29-3.87 1.75-7.91 2.46-11.91.38-2.23.64-4.51 1-6.76a3.11 3.11 0 01.23 1.07c0 4 0 7.92.1 11.9a33.21 33.21 0 00.43 4.2 1.65 1.65 0 001.54 1.47 1.88 1.88 0 001.69-1.16 4.83 4.83 0 00.28-1.18c.29-1.91.57-3.82.9-6 .56 1.39 1 2.48 1.44 3.56.64 1.51.65 1.5 2.3 1.26a6.14 6.14 0 01.63-.06 12.07 12.07 0 00.42-2.14c0-2-.06-3.92-.07-5.88 0-4.71-.55-9.42.6-14.13.67-2.67.53-5.52.73-8.29.07-.91 0-1.83.06-2.73a78 78 0 00.31-10.92 38.42 38.42 0 00-1.48-10.25 4.71 4.71 0 01.08-3.39c1.56-4.24 3.26-8.43 4.62-12.73 3.2-10.17 6.28-20.39 9.36-30.59a60.42 60.42 0 002.91-19.67c-.06-1.71.2-3.44.25-5.17.06-2.1.1-4.19 0-6.28a6.32 6.32 0 01.78-3.53 67.41 67.41 0 004.58-10.36 97.63 97.63 0 003.39-11.54 2.2 2.2 0 01.68-1.48c.66 1.5 1.29 2.9 1.9 4.32a4.18 4.18 0 01.14.94q.89 8.16 1.79 16.33c.32 3 .84 6 1 9.09.19 3.46.07 6.93.14 10.4.09 4.28.17 8.57.38 12.85a34.17 34.17 0 00.84 5 6.52 6.52 0 010 3.61 28.44 28.44 0 00-1 3.82c-1.16 5.47-2.06 10.94-.72 16.52a4.35 4.35 0 010 1.76c-.64 3.32-1.35 6.62-2 9.93-2 10.78-4.09 21.58-6 32.4-.93 5.32-1.53 10.73-2.06 16.12a183.94 183.94 0 00-.87 22.14c.1 4.55.28 9.11.58 13.66.17 2.44.77 4.86 1 7.3.72 7.07 2 14.07 2.65 21.15a54.21 54.21 0 01-.21 14.17 92.59 92.59 0 00-1.27 19.46 9.92 9.92 0 01-.6 4 72.29 72.29 0 00-3.86 17.84c-2.13 22.87-1.55 45.68 0 68.78 0 0 .73 18 .73 22a35.83 35.83 0 01-3.14 13.8c-5.3 10.92-14.41 20.92-22.25 30.59-4.08 5-4.67 4.25-6.67 5.84a11.32 11.32 0 00-3.17 3.92 2.9 2.9 0 00-.42 2.74c-1.19 3.24 1.06 3.65 1.06 3.65a3.2 3.2 0 003.83 1.8c3.35 3.36 5.36.68 5.36.68 3.83 4.43 7.79 3.47 12.34-.48s4.12-2.27 6.59-3.24c10.6-4.15 11.1-14.61 20.25-19.77 10.1-5.68 12.69-11.85 11.5-15.8a71.67 71.67 0 01-1.92-9.59c1.08-.72 1.43-3 .84-5.27-1.92-7.28-1.2-8.15.27-23.19 2.21-13.69 4.08-29.24 10.57-41.09a38.65 38.65 0 004.41-14.14 82.12 82.12 0 00.27-11.2 117.2 117.2 0 00-1.31-13.74q-.73-5.07-1.48-10.14a2.67 2.67 0 01.44-2.06 20.35 20.35 0 002.67-6.12 49.72 49.72 0 001.86-12.95c0-2.37.09-4.75.29-7.1a13.39 13.39 0 011.09-5.31 130.18 130.18 0 009.25-22.9c2.29-7.65 4-15.44 5.74-23.22 1.47-6.53 3-13.05 4.43-19.55.11.62.18 1.28.33 1.93.47 1.95 1 3.89 1.45 5.83 1.62 6.55 3.3 13.1 4.84 19.66 3.12 13.19 7.5 26.2 14 38.17h-.05a9.44 9.44 0 01.54 1.22c0 .22.12.44.15.66.48 4.34.89 7.29 1 8.57v2a50 50 0 001.86 12.95 20.38 20.38 0 002.68 6.12c.34.5 1.63 2.7-.22 13.54a79.18 79.18 0 00-.84 13.77 80.5 80.5 0 00.65 11.19 39.14 39.14 0 004.89 14c6.68 11.36 8.07 26.84 10.57 40.15 2 15 2.4 15.23.73 22.56-.52 2.29.34 5.12 1.44 5.8 0 0-.51 3.74-1.09 7.84-1 7.25.16 11.3 10.76 17.54 9.18 5.4 9.47 16 20.44 19.82 2.5.87 2.34-.42 6.69 3.75 4.57 4.37 8.34 4.31 12-.25 0 0 2.21 2.31 5.26-.61 0 0 2.85.65 3.88-1.89 0 0 2.62-1 .78-3.57 0 0 1.82-1.05-2.25-5.8-1.15-1.35-3.15-.8-7.37-6.32-6-7.9-12-15.93-17.69-24-2.68-3.78-5.48-6.89-6.59-11.17s-1.65-4.81-1.72-8.81c-.17-10.39.29-21.13.56-31.7-.13-20.13.12-40-1.93-59.93-.43-4.17-3.51-15.46-4-16.85a25.8 25.8 0 01-1.28-5.05 92.58 92.58 0 00-1.26-19.46 61 61 0 01-.75-14.34c.16-2.26.28-4.54.48-6.81.23-2.62.65-5.24.95-7.86.38-3 .75-6.07 1.07-9.1.31-2.85.73-5.71.82-8.57.15-4.5.07-9 0-13.52a162.59 162.59 0 00-1.65-22.49c-.89-6.27-1.81-12.55-3-18.77-1.19-6.44-2.64-12.85-4-19.27-1.28-5.92-2.61-11.84-3.87-17.76a3.74 3.74 0 010-1.49 29.19 29.19 0 00-.06-11.14c-.52-2.87-1.25-5.7-2-8.52a8.32 8.32 0 01-.14-3.51 33.07 33.07 0 00.65-4.6c.08-3.23 0-6.48 0-9.71 0-2.69-.22-5.38-.13-8.07.14-4.14.39-8.29.72-12.42.48-6.27 1.07-12.54 1.63-18.8a13.85 13.85 0 012-4.4c.13.43.25.81.34 1.2a85.72 85.72 0 008 21.47 4.13 4.13 0 01.52 2.23c-.06 1.17-.15 2.36-.11 3.53.09 3 .44 6 .37 9a60.32 60.32 0 002.6 18.21c1.27 4.37 2.68 8.71 4 13.07 2.36 7.86 4.46 15.8 7.4 23.47 1.09 2.86 2.09 5.75 3.15 8.6a2.65 2.65 0 010 2.22 11.7 11.7 0 00-.69 2.5 51.79 51.79 0 00-.88 13.33c.17 2.23.38 4.45.42 6.69.11 4.37.1 8.74 1.42 13a2 2 0 01.06.54v10.13c0 2.09-.18 4.18-.16 6.28a11.86 11.86 0 00.41 2.32c.48.07.79.1 1.1.16 1.11.19 1.17.16 1.65-.88.34-.75.66-1.5 1-2.26.18-.47.34-.94.51-1.4.5 2 .78 3.85 1.07 5.74a4.67 4.67 0 00.24 1.06 2.1 2.1 0 001.65 1.25 1.87 1.87 0 001.62-1.57 26.83 26.83 0 00.44-3.79c.07-4.05 0-8.12.07-12.17 0-.36.09-.72.16-1.25.57 3.68 1 7.15 1.67 10.6.51 2.77 1.17 5.52 1.83 8.26.43 1.75 1.43 2.17 3 1.43a6.59 6.59 0 01.64-.25c1-8-.43-15.91-.28-24a1.59 1.59 0 01.74 1.27c.45 1.95.87 3.92 1.36 5.86.59 2.3 1.33 4.56 1.82 6.87.64 2.95 1.61 5.68 3.81 7.85.33.33.58.75 1.12.58a1.42 1.42 0 001-1.19 3.1 3.1 0 000-.68c-.23-3.63-.36-7.28-.68-10.91-.46-5-1.05-9.95-1.59-15 .39.51.73 1 1.1 1.42.65.77 1.28 1.55 2 2.26a7.13 7.13 0 007 2.07c1.41-.31 1.86-1.3 1.13-2.5z" fill="#231f20" fill-rule="evenodd"/></svg>
