<svg xmlns="http://www.w3.org/2000/svg" id="svg-icon" viewBox="0 0 468.293 468.293"><g fill="#d5d6db"><path d="M359.024 468.293H109.268c-10.345 0-18.732-8.386-18.732-18.732V386.72h287.219v62.841c.001 10.345-8.385 18.732-18.731 18.732zM377.756 81.573H90.537V18.732C90.537 8.386 98.923 0 109.268 0h249.756c10.345 0 18.732 8.386 18.732 18.732v62.841z"/></g><g fill="#3a556a"><path d="M90.537 81.57h287.22v305.146H90.537zM268.488 65.762h-68.683a9.366 9.366 0 01-9.366-9.366 9.366 9.366 0 019.366-9.366h68.683a9.366 9.366 0 010 18.732z"/><circle cx="234.146" cy="25.175" r="9.366"/><circle cx="234.146" cy="427.508" r="28.098"/></g><path d="M243.512 439.994H224.78a3.122 3.122 0 01-3.122-3.122V418.14a3.122 3.122 0 013.122-3.122h18.732a3.122 3.122 0 013.122 3.122v18.732a3.122 3.122 0 01-3.122 3.122z" fill="#d5d6db"/></svg>
