<svg height="512pt" viewBox="0 0 512 512" width="512pt" xmlns="http://www.w3.org/2000/svg" id="svg-icon"><path d="M168.352 142.918c-38.454-38.45-101.016-38.45-139.47.004C10.259 161.547 0 186.312 0 212.652c0 26.344 10.258 51.11 28.883 69.735 19.226 19.226 44.48 28.84 69.734 28.84 25.254 0 50.508-9.614 69.735-28.84 38.449-38.45 38.449-101.016 0-139.469zm0 0" fill="#ffd039"/><path d="M168.352 247.305c-19.227 19.226-44.48 28.84-69.735 28.84-25.254 0-50.508-9.614-69.734-28.84C14.46 232.883 5.059 214.777 1.55 195.113A99.713 99.713 0 000 212.653c0 26.343 10.258 51.109 28.883 69.734 19.226 19.226 44.48 28.84 69.734 28.84 25.254 0 50.508-9.614 69.735-28.84 23.695-23.696 32.765-56.547 27.253-87.274-3.43 19.13-12.5 37.438-27.253 52.192zm0 0" fill="#ffae47"/><path d="M354.766 16.61C333.176 6.405 304.516.52 274.062.03c-30.44-.48-59.285 4.485-81.19 13.992-23.806 10.336-37.06 25.086-37.321 41.532-.262 16.445 12.515 31.61 35.976 42.699 21.59 10.203 50.25 16.09 80.703 16.574 1.364.024 2.723.035 4.079.035 28.941 0 56.187-4.941 77.109-14.027 23.809-10.332 37.062-25.082 37.324-41.527.262-16.446-12.515-31.61-35.976-42.7zm0 0" fill="#ff9522"/><path d="M353.418 66.723c-20.922 9.082-48.168 14.023-77.11 14.023-1.355 0-2.714-.012-4.078-.035-30.453-.484-59.113-6.371-80.703-16.574-14.777-6.985-25.312-15.59-31.023-25.11-3.172 5.223-4.86 10.77-4.953 16.528-.262 16.445 12.515 31.61 35.976 42.699 21.59 10.203 50.25 16.09 80.703 16.578 1.364.02 2.723.031 4.079.031 28.941 0 56.187-4.941 77.109-14.023 23.809-10.336 37.062-25.086 37.324-41.531.098-6.086-1.594-11.996-4.949-17.59-5.89 9.699-16.898 18.285-32.375 25.004zm0 0" fill="#dd7917"/><path d="M388.762 388.762l95.37-95.246c17.954-17.93 27.852-41.782 27.868-67.157s-9.852-49.238-27.781-67.191c-17.93-17.957-41.781-27.856-67.156-27.871h-.067c-25.351 0-49.187 9.867-67.129 27.781l-95.37 95.246c-.028.028-.056.063-.083.09zm0 0" fill="#e93234"/><path d="M254.414 254.414c.027-.031.05-.062.082-.09l-95.375 95.246c-17.953 17.934-27.851 41.782-27.867 67.157-.02 25.378 9.848 49.242 27.781 67.195 17.93 17.957 41.781 27.851 67.156 27.871h.063c25.351 0 49.191-9.867 67.133-27.781l95.37-95.246c0-.004 0-.004.005-.004zm0 0" fill="#f9f1ef"/><path d="M512 226.36c.016-25.376-9.852-49.239-27.781-67.192a96.511 96.511 0 00-13.008-10.91c11.035 15.812 16.973 34.586 16.96 54.273-.019 25.375-9.913 49.227-27.87 67.156l-95.367 95.243 23.828 23.832 95.37-95.246c17.954-17.93 27.852-41.782 27.868-67.157zm0 0" fill="#bf161c"/><path d="M388.762 388.762L364.93 364.93v.004l-95.375 95.25c-17.942 17.914-41.778 27.777-67.13 27.777h-.062c-19.644-.012-38.375-5.95-54.152-16.961a96.21 96.21 0 0010.82 12.922c17.934 17.957 41.782 27.855 67.16 27.871h.063c25.351 0 49.191-9.863 67.129-27.781l95.375-95.246c0-.004 0-.004.004-.004zm0 0" fill="#ccc"/><path d="M168.352 142.918c-1.786-1.785-3.641-3.461-5.528-5.078L23.777 276.887a100.924 100.924 0 005.106 5.5c1.789 1.789 3.64 3.46 5.527 5.082l139.024-139.024c-1.621-1.883-3.297-3.738-5.082-5.527zm0 0" fill="#ff9522"/><path d="M266.133.047l-.89 114.566c2.316.102 4.644.18 6.987.219 1.364.02 2.72.031 4.075.031 1.32 0 2.625-.023 3.937-.043l.89-114.566a263.39 263.39 0 00-7.07-.223c-2.656-.039-5.3-.027-7.93.016zm0 0" fill="#dd7917"/></svg>
