<svg xmlns="http://www.w3.org/2000/svg" id="svg-icon" viewBox="0 0 512 512"><circle cx="256" cy="255.999" r="255.999" fill="#41b787"/><circle cx="256" cy="213.295" r="213.295" fill="#4bc999"/><path d="M450.599 285.257l-10.596 44.532c-5.936.61-11.98.858-18.095.736-44.136-.901-83.363-21.045-109.832-52.272a52.938 52.938 0 0116.386-20.417c5.604-4.228 9.054-10.729 9.201-17.749l.024-1.116c.094-4.674-1.284-9.17-3.83-12.968a23.213 23.213 0 00-4.642-5.136c-12.113-9.919-19.721-25.09-19.379-41.953l.537-26.696c.457-22.263 14.607-41.008 34.261-48.381 6.185-2.328 10.389-8.129 10.53-14.738l.394-19.411 58.569 1.188-.394 19.411c-.131 6.611 3.822 12.576 9.922 15.156 19.324 8.163 32.712 27.471 32.266 49.725l-.548 26.694c-.343 16.864-8.557 31.715-21.064 41.131-5.199 3.916-8.536 9.769-9.114 16.189-.054.52-.075 1.034-.088 1.56l-.024 1.116c-.147 7.021 3.033 13.656 8.473 18.104 7.952 6.51 13.961 15.274 17.043 25.295z" fill="#e8e8e8"/><path d="M414.126 70.883l-.266 13.111-36.776-.747a6.293 6.293 0 00-4.49 1.75 6.302 6.302 0 00-1.931 4.416c-.135 6.619-2.179 12.451-5.113 14.848-9.329 7.58-16.19 26.479-16.642 48.743l-.542 26.688c-.343 16.865 3.069 31.958 8.665 41.735 2.507 4.397 3.942 10.982 3.799 18.011l-.023 1.116c-.143 7.024-1.844 13.556-4.528 17.835-5.989 9.555-10.01 24.485-10.353 41.35l-.16 7.874a148.652 148.652 0 01-33.696-29.363 52.903 52.903 0 0116.387-20.426c5.609-4.22 9.055-10.717 9.197-17.741l.023-1.116c.143-7.029-3.036-13.649-8.469-18.106-12.125-9.91-19.718-25.089-19.375-41.954l.542-26.688c.452-22.265 14.601-41.015 34.249-48.385 6.192-2.331 10.397-8.119 10.53-14.738l.394-19.405 58.578 1.192z" fill="#d6d6d6"/><path d="M418.824 47.791l-.497 24.485-67.022-1.361.497-24.485c.147-7.238 6.131-12.985 13.369-12.838l40.806.829c7.239.148 12.994 6.132 12.847 13.37z" fill="#edbb4c"/><path d="M418.824 47.791l-.497 24.485-47.642-.968.497-24.485c.147-7.238 6.131-12.985 13.369-12.838l21.426.435c7.239.149 12.994 6.133 12.847 13.371z" fill="#ffd15c"/><g fill="#fcfcfc"><path d="M424.112 192.2c-7.662-.156-13.748-6.493-13.592-14.156l.68-33.498c.156-7.662 6.493-13.748 14.156-13.592 7.662.156 13.748 6.493 13.592 14.156l-.68 33.498c-.155 7.662-6.494 13.748-14.156 13.592zM435.534 313.251l-.345 16.954c-4.382.298-8.81.406-13.281.316a147.29 147.29 0 01-14.467-1l.342-16.834c.156-7.663 6.491-13.746 14.153-13.59a13.828 13.828 0 019.728 4.26 13.804 13.804 0 013.87 9.894z"/></g><path d="M170.914 219.126l-.368 1.054c-2.312 6.633-1.339 13.926 2.453 19.843 8.444 13.181 10.976 29.958 5.422 45.892l-8.586 24.637a148.336 148.336 0 01-29.777-7.055c-41.687-14.528-72.744-45.842-88.234-83.733a52.988 52.988 0 0121.907-14.337c6.642-2.28 11.938-7.388 14.249-14.021l.368-1.054c2.312-6.633 1.339-13.926-2.448-19.84-8.444-13.181-10.973-29.963-5.422-45.892l8.787-25.211c7.327-21.023 26.596-34.465 47.559-35.384 6.608-.292 12.403-4.504 14.579-10.75l6.39-18.333 55.319 19.279-6.39 18.333c-2.177 6.246-.261 13.145 4.74 17.482 15.846 13.748 22.592 36.256 15.265 57.279l-8.787 25.211c-5.552 15.928-17.964 27.503-32.771 32.581-6.648 2.278-11.944 7.385-14.255 14.019z" fill="#e8e8e8"/><path d="M213.11 54.225l-4.315 12.383-34.735-12.105a6.302 6.302 0 00-4.812.273 6.299 6.299 0 00-3.204 3.6c-2.179 6.252-5.929 11.163-9.462 12.534-11.218 4.315-23.598 20.158-30.927 41.188l-8.784 25.206c-5.552 15.928-6.984 31.336-4.694 42.366 1.021 4.957.345 11.662-1.969 18.301l-.368 1.054c-2.312 6.633-5.955 12.317-9.831 15.555-8.655 7.229-17.105 20.178-22.655 36.106l-2.592 7.437a148.633 148.633 0 01-22.939-38.358 52.89 52.89 0 0121.909-14.343c6.64-2.275 11.93-7.384 14.242-14.018l.368-1.054c2.313-6.639 1.342-13.918-2.442-19.839-8.457-13.179-10.973-29.963-5.422-45.892l8.784-25.206c7.329-21.029 26.593-34.472 47.555-35.392 6.61-.298 12.401-4.498 14.579-10.75l6.387-18.327 55.327 19.281z" fill="#d6d6d6"/><path d="M224.731 33.726l-8.06 23.126L153.37 34.79l8.06-23.126c2.382-6.837 9.853-10.446 16.69-8.063l38.541 13.432c6.835 2.383 10.453 9.856 8.07 16.693z" fill="#279fc9"/><path d="M224.731 33.726l-8.06 23.126-44.997-15.682 8.06-23.126c2.382-6.837 9.853-10.446 16.69-8.063l20.236 7.053c6.836 2.382 10.454 9.855 8.071 16.692z" fill="#34abe0"/><g fill="#fcfcfc"><path d="M185.013 172.666c-7.237-2.522-11.059-10.434-8.537-17.671l11.027-31.638c2.522-7.237 10.434-11.059 17.671-8.537 7.237 2.522 11.059 10.434 8.537 17.671l-11.027 31.638c-2.522 7.237-10.434 11.059-17.671 8.537zM158.364 291.297l-5.581 16.014a150.78 150.78 0 01-12.725-3.815 147.537 147.537 0 01-13.445-5.433l5.541-15.9c2.522-7.238 10.43-11.058 17.668-8.536a13.837 13.837 0 017.93 7.065 13.815 13.815 0 01.612 10.605z"/></g><path d="M331.148 260.947l.137 1.108c.862 6.972 4.962 13.081 10.981 16.709 13.405 8.084 23.098 22.01 25.168 38.756l3.202 25.893a148.32 148.32 0 01-29.826 6.849c-43.812 5.417-85.52-8.922-116.177-36.048a52.988 52.988 0 0113.303-22.551c4.948-4.984 7.437-11.908 6.574-18.879l-.137-1.108c-.862-6.972-4.962-13.081-10.975-16.71-13.405-8.084-23.1-22.015-25.168-38.756l-3.276-26.497c-2.731-22.095 8.601-42.676 26.994-52.776 5.797-3.186 9.129-9.526 8.317-16.091l-2.382-19.268 58.139-7.188 2.382 19.268c.812 6.564 5.583 11.903 11.986 13.581 20.293 5.317 36.302 22.518 39.034 44.613l3.276 26.497c2.07 16.74-3.94 32.613-14.972 43.718-4.954 4.985-7.442 11.909-6.58 18.88z" fill="#e8e8e8"/><path d="M296.023 94.397l1.609 13.015-36.506 4.513a6.3 6.3 0 00-4.194 2.373 6.304 6.304 0 00-1.28 4.646c.812 6.57-.378 12.634-2.939 15.426-8.151 8.834-12.242 28.519-9.51 50.62l3.276 26.491c2.07 16.74 7.603 31.192 14.538 40.07 3.109 3.994 5.47 10.306 6.333 17.284l.137 1.108c.862 6.972.111 13.681-1.933 18.299-4.563 10.312-6.41 25.664-4.341 42.404l.967 7.816a148.684 148.684 0 01-37.544-24.249 52.902 52.902 0 0113.302-22.557c4.949-4.978 7.431-11.901 6.569-18.873l-.137-1.108c-.863-6.978-4.955-13.076-10.968-16.71-13.415-8.077-23.1-22.015-25.168-38.756l-3.276-26.491c-2.732-22.101 8.594-42.681 26.987-52.781 5.796-3.191 9.13-9.52 8.317-16.091l-2.381-19.262 58.142-7.187z" fill="#d6d6d6"/><path d="M297.374 70.871l3.005 24.305-66.53 8.225-3.005-24.305c-.888-7.185 4.214-13.727 11.399-14.616l40.505-5.008c7.187-.887 13.738 4.214 14.626 11.399z" fill="#ef4152"/><path d="M297.374 70.871l3.005 24.305-47.292 5.847-3.005-24.305c-.888-7.185 4.214-13.727 11.399-14.616l21.268-2.63c7.186-.887 13.737 4.214 14.625 11.399z" fill="#ff525d"/><g fill="#fcfcfc"><path d="M323.233 213.045c-7.606.94-14.534-4.464-15.475-12.07l-4.111-33.252c-.94-7.606 4.464-14.535 12.07-15.475 7.606-.94 14.534 4.464 15.475 12.07l4.111 33.252c.94 7.606-4.463 14.534-12.07 15.475zM351.827 331.223l2.08 16.83c-4.295.921-8.661 1.66-13.099 2.209-4.851.6-9.678.959-14.461 1.076l-2.066-16.71c-.94-7.607 4.461-14.531 12.068-15.472a13.84 13.84 0 0110.237 2.826 13.81 13.81 0 015.241 9.241z"/></g><path d="M472.65 191.708l-1.149 12.737-2.581 28.526-17 187.81C404.961 476.557 334.619 512 256.001 512c-42.224 0-82.066-10.219-117.175-28.327-30.26-15.611-57.01-37.073-78.743-62.892L40.491 204.456l-1.149-12.748H472.65z" fill="#ef4152"/><g fill="#ff525d"><path d="M468.923 232.97l-3.803 41.973-4.127 45.589-9.07 100.247c-46.958 55.777-117.3 91.219-195.918 91.219-42.224 0-82.066-10.219-117.175-28.327l-17.868-197.517c-2.591-28.567 19.905-53.185 48.588-53.185l299.373.001zM491.584 211.134H20.409c-5.58 0-10.104-4.523-10.104-10.104v-31.179c0-5.58 4.523-10.104 10.104-10.104h471.175c5.58 0 10.104 4.523 10.104 10.104v31.179c0 5.579-4.523 10.104-10.104 10.104z"/></g><path d="M249.681 437.535v44.099c-20.666 0-34.07-.112-42.711-2.598-4.982-1.433-9.2-4.769-11.833-9.234 0-.002 0-.004-.002-.006-1.649-4.563-4.26-15.054-.267-22.934 2.644-5.222 9.411-5.375 11.453-9.328h43.361v.001z" fill="#fcfcfc"/><path d="M213.409 384.021l22.001 44.001-18.731-10.106s-3.452 6.243-10.36 19.621a1849.126 1849.126 0 00-7.028 13.752c-3.992 7.881-5.805 13.948-4.157 18.51l-23.217-39.367a13.337 13.337 0 01-.42-12.775l9.605-19.065-17.341-10.108 49.648-4.463z" fill="#494b5b"/><path d="M290.335 401.797l38.191-22.049c10.333 17.897 16.938 29.561 19.106 38.287 1.25 5.031.47 10.352-2.079 14.865a.008.008 0 00-.004.004c-3.127 3.709-10.908 11.216-19.729 11.7-5.845.322-9.36-5.463-13.804-5.255l-21.681-37.552z" fill="#fcfcfc"/><path d="M262.127 459.966l27.105-41.054.612 21.274s7.134-.132 22.172-.838c4.444-.208 9.579-.467 15.424-.789 8.821-.484 14.982-1.947 18.109-5.656l-22.486 39.79a13.336 13.336 0 01-10.853 6.751l-21.314 1.214-.084 20.072-28.685-40.764z" fill="#494b5b"/><path d="M238.042 385.285l-38.191-22.049c10.333-17.897 17.132-29.449 23.605-35.69 3.731-3.598 8.73-5.583 13.914-5.631.002.001.003.002.006.001 4.776.854 15.167 3.838 19.996 11.236 3.201 4.902-.05 10.838 2.351 14.582l-21.681 37.551z" fill="#fcfcfc"/><path d="M302.522 380.63l-49.106-2.947 18.117-11.168s-3.681-6.112-11.811-18.783a1921.54 1921.54 0 00-8.395-12.963c-4.828-7.398-9.176-12.002-13.952-12.855l45.702-.422a13.332 13.332 0 0111.273 6.024l11.709 17.851 17.425-9.963-20.962 45.226z" fill="#494b5b"/><g fill="#fcfcfc"><path d="M120.586 239.251c0-1.95 1.794-3.667 4.523-3.667h16.146c10.295 0 18.407 4.836 18.407 17.94v.39c0 13.104-8.424 18.095-19.187 18.095h-7.722v16.848c0 2.496-3.042 3.744-6.083 3.744s-6.083-1.248-6.083-3.744l-.001-49.606zm12.167 6.941v16.457h7.722c4.369 0 7.021-2.496 7.021-7.8v-.858c0-5.304-2.652-7.8-7.021-7.8h-7.722v.001zM170.273 292.601c-2.652 0-5.303-1.248-5.303-3.744v-49.606c0-2.574 3.042-3.667 6.083-3.667s6.083 1.092 6.083 3.667v42.743h17.784c2.34 0 3.509 2.652 3.509 5.304s-1.169 5.304-3.509 5.304l-24.647-.001zM199.447 287.609c0-.234.077-.545.156-.858l14.507-47.578c.858-2.73 4.368-4.056 7.956-4.056s7.097 1.326 7.955 4.056l14.586 47.578c.078.312.156.624.156.858 0 2.886-4.446 4.991-7.8 4.991-1.95 0-3.51-.624-3.978-2.262l-2.652-9.75h-16.457l-2.652 9.75c-.468 1.637-2.028 2.262-3.978 2.262-3.353.001-7.799-2.105-7.799-4.991zm28.313-16.379l-5.694-20.903-5.694 20.903h11.388zM272.689 277.313c0-9.438-24.725-7.799-24.725-26.051 0-11.7 10.217-16.146 19.967-16.146 4.134 0 15.521.781 15.521 6.864 0 2.107-1.404 6.396-4.836 6.396-2.809 0-4.289-2.963-10.686-2.963-5.538 0-7.8 2.262-7.8 4.68 0 7.8 24.725 6.317 24.725 25.973 0 11.232-8.19 17.316-19.499 17.316-10.218 0-18.798-4.991-18.798-10.14 0-2.652 2.34-6.551 5.304-6.551 3.667 0 6.006 5.771 13.259 5.771 3.591-.001 7.568-1.405 7.568-5.149zM324.638 235.584c2.574 0 3.667 2.809 3.667 5.382 0 2.963-1.327 5.538-3.667 5.538h-10.763v42.353c0 2.496-3.042 3.744-6.083 3.744-3.043 0-6.084-1.248-6.084-3.744v-42.353h-10.763c-2.34 0-3.667-2.574-3.667-5.538 0-2.574 1.093-5.382 3.667-5.382h33.693zM333.145 239.251c0-2.574 3.042-3.667 6.083-3.667 3.042 0 6.083 1.092 6.083 3.667v49.606c0 2.496-3.042 3.744-6.083 3.744-3.042 0-6.083-1.248-6.083-3.744v-49.606zM372.299 246.192c-4.446 0-7.021 2.496-7.021 7.8v20.669c0 5.304 2.575 7.799 7.098 7.799 6.24 0 6.63-4.757 6.864-7.799.234-2.886 2.886-3.665 6.005-3.665 4.212 0 6.162 1.092 6.162 5.771 0 10.374-8.424 16.301-19.577 16.301-10.217 0-18.719-4.991-18.719-18.407v-20.669c0-13.415 8.502-18.408 18.719-18.408 11.154 0 19.577 5.616 19.577 15.521 0 4.68-1.95 5.772-6.083 5.772-3.277 0-5.928-.858-6.083-3.665-.078-2.027-.312-7.02-6.942-7.02z"/></g></svg>
