<svg xmlns="http://www.w3.org/2000/svg" id="svg-icon" viewBox="0 0 64 64" width="512" height="512"><path d="M48 61H16a4 4 0 01-4-4V19a8 8 0 018-8h24a8 8 0 018 8v38a4 4 0 01-4 4z" fill="#666"/><path d="M22 3h20a2 2 0 012 2v6H20V5a2 2 0 012-2zM12 21h40v32H12z" fill="#e8594a"/><path fill="#fdb62f" d="M35 25L25 38h4l-2 11 10-13h-4l2-11z"/><path fill="#fc6962" d="M15 24h2v2h-2zM15 28h2v10h-2z"/><path fill="#bf3f3b" d="M23 6h2v5h-2zM27 6h2v5h-2zM31 6h2v5h-2zM35 6h2v5h-2zM39 6h2v5h-2z"/><path d="M44 11h-8a8 8 0 018 8v2h8v-2a8 8 0 00-8-8zM44 57a4 4 0 01-4 4h8a4 4 0 004-4v-4h-8z" fill="#545454"/><path fill="#d65551" d="M44 21h8v32h-8z"/></svg>
