<svg height="512pt" viewBox="0 0 512.001 512" width="512pt" xmlns="http://www.w3.org/2000/svg" id="svg-icon"><path d="M127.063 384.984l-.012-.242v-1.8l-60.899-.903-53.101 53.102c-17.403 17.699-17.403 46.199 0 63.601.047.047.105.055.152.102 17.703 17.566 46.094 17.554 63.746-.102l52.801-52.8zm0 0" fill="#64e1dc"/><path d="M76.953 498.742l52.797-52.8-2.688-60.958-113.859 113.86c17.703 17.566 46.094 17.554 63.75-.102zm0 0" fill="#00c8c8"/><path d="M168.75 343.344l-.004-.043-.297-3.559H108.75l-42.598 42.301 31.801 31.797.125.129 31.672 31.972 42.602-42.597zm0 0" fill="#00c8c8"/><path d="M172.352 403.344l-3.602-60-.004-.043-70.668 70.668 31.672 31.972zm0 0" fill="#1cadb5"/><path d="M269.527 242.477l-.023-.024-32.078-31.777L108.75 339.742l63.602 63.602 128.976-129.067zm0 0" fill="#64e1dc"/><path d="M301.328 274.277l-31.824-31.824L140.527 371.52l31.825 31.824zm0 0" fill="#00c8c8"/><path d="M306.125 205.875l-.02-.02-53.082-53.078c-29.09 29.09-29.093 76.778-.015 106.176.008.008.012.016.015.024 29.403 29.097 76.801 29.097 106.204 0zm0 0" fill="#895d3c"/><path d="M359.227 258.977l-53.122-53.122-53.097 53.098c.008.008.012.016.015.024 29.403 29.101 76.801 29.101 106.204 0zm0 0" fill="#523522"/><path d="M507.727 216.375l-106.2-105.898-.023-.02L295.625 4.277a15.398 15.398 0 00-21.3 0c-2.997 3-84.9 84.899-84.9 84.899-5.698 5.699-5.698 15.3 0 21.3l105.9 105.899.128.129c51.555 51.559 103.074 103.074 106.07 106.07 6 5.703 15.301 5.703 21.301 0 3-3.297 84.903-84.898 84.903-84.898 5.699-6 5.699-15.301 0-21.301zm0 0" fill="#64e1dc"/><path d="M401.527 322.574a15.398 15.398 0 0021.301 0c2.996-3.297 84.899-84.898 84.899-84.898 5.699-6 5.699-15.301 0-21.301l-106.2-105.898-.023-.02-106.05 106.047a974612.055 974612.055 0 00106.073 106.07zm0 0" fill="#00c8c8"/><path d="M337.906 174.055l-95.379-95.38-21.3 21 95.527 95.532 95.57 95.57 21-21.3-95.398-95.399zm0 0M380.527 131.477l-.023-.02-95.68-95.383-20.996 21.301 95.379 95.379 95.418 95.422 21.3-21.301zm0 0" fill="#e0f4ff"/><g fill="#bbdcff"><path d="M433.324 269.477l-95.398-95.399-.02-.023-21.152 21.152 95.57 95.57zm0 0M475.926 226.875l-95.399-95.398-.023-.02-21.297 21.297 95.418 95.422zm0 0"/></g></svg>
