<svg viewBox="0 0 512 512" height="512" width="512" xmlns="http://www.w3.org/2000/svg" id="svg-icon"><path d="M256 168a160 160 0 10160 160 160 160 0 00-160-160zm0 280a120 120 0 11120-120 120 120 0 01-120 120z" fill="#ffc431"/><path d="M290.107 114.107L320 144v32l-40 40h-48l-40-40v-32l29.893-29.893z" fill="#ffd873"/><path d="M112 80a32 32 0 00-32-32 32 32 0 0032-32 32 32 0 0032 32 32 32 0 00-32 32zM384 144a32 32 0 00-32-32 32 32 0 0032-32 32 32 0 0032 32 32 32 0 00-32 32z" fill="#ffc431"/><path d="M344 64l-88 104-88-104 40-40h96z" fill="#fb6a83"/><path d="M296 64l-24-40h32l40 40z" fill="#f75b74"/><path d="M216 64l24-40h-32l-40 40z" fill="#ffa3b9"/><path d="M256 168l40-104h-80z" fill="#f75b74"/><path d="M296 64l-40 104 88-104z" fill="#f24962"/></svg>
