<svg viewBox="0 0 58 58" xmlns="http://www.w3.org/2000/svg"><g id="010---Sushi" fill="none"><path id="Shape" d="m29 19v25c0 2.209139-1.790861 4-4 4h-21c-2.209139 0-4-1.790861-4-4v-25z" fill="#3f5c6c"/><path id="Shape" d="m27 19v25c0 2.209139-1.790861 4-4 4h-19c-2.209139 0-4-1.790861-4-4v-25z" fill="#41767f"/><rect id="Rectangle-path" fill="#d1d4d1" height="26" rx="4" width="29"/><rect id="Rectangle-path" fill="#ecf0f1" height="26" rx="4" width="27"/><path id="Shape" d="m24 6v4.33l-10 10.67h-7l15-16h1c.5522847 0 1 .44771525 1 1z" fill="#ff5364"/><path id="Shape" d="m22 5-15 16h-1c-.55228475 0-1-.4477153-1-1v-4.33l10-10.67z" fill="#df4d60"/><path id="Shape" d="m15 5-10 10.67v-9.67c0-.55228475.44771525-1 1-1z" fill="#ff5364"/><g fill="#3f5c6c"><path id="Shape" d="m9 34c0 .5522847-.44771525 1-1 1h-5c-1.08254636.0043118-2.13654996-.3470228-3-1v-4c.0049422 1.6548028 1.3451972 2.9950578 3 3h5c.55228475 0 1 .4477153 1 1z"/><path id="Shape" d="m9 42c0 .5522847-.44771525 1-1 1h-5c-1.08254636.0043118-2.13654996-.3470228-3-1v-4c.0049422 1.6548028 1.3451972 2.9950578 3 3h5c.55228475 0 1 .4477153 1 1z"/><path id="Shape" d="m29 28v4c-.86345.6529772-1.9174536 1.0043118-3 1h-5c-.5522847 0-1-.4477153-1-1s.4477153-1 1-1h5c1.6548028-.0049422 2.9950578-1.3451972 3-3z"/><path id="Shape" d="m29 36v4c-.86345.6529772-1.9174536 1.0043118-3 1h-5c-.5522847 0-1-.4477153-1-1s.4477153-1 1-1h5c1.6548028-.0049422 2.9950578-1.3451972 3-3z"/></g><path id="Shape" d="m24 10.33v9.67c0 .5522847-.4477153 1-1 1h-9z" fill="#df4d60"/><path id="Shape" d="m58 29v25c0 2.209139-1.790861 4-4 4h-21c-2.209139 0-4-1.790861-4-4v-25z" fill="#41767f"/><path id="Shape" d="m38 44c0 .5522847-.4477153 1-1 1h-5c-1.0825464.0043118-2.13655-.3470228-3-1v-4c.0049422 1.6548028 1.3451972 2.9950578 3 3h5c.5522847 0 1 .4477153 1 1z" fill="#3f5c6c"/><path id="Shape" d="m38 52c0 .5522847-.4477153 1-1 1h-5c-1.0825464.0043118-2.13655-.3470228-3-1v-4c.0049422 1.6548028 1.3451972 2.9950578 3 3h5c.5522847 0 1 .4477153 1 1z" fill="#3f5c6c"/><path id="Shape" d="m58 38v4c-.86345.6529772-1.9174536 1.0043118-3 1h-5c-.5522847 0-1-.4477153-1-1s.4477153-1 1-1h5c1.6548028-.0049422 2.9950578-1.3451972 3-3z" fill="#3f5c6c"/><path id="Shape" d="m58 46v4c-.86345.6529772-1.9174536 1.0043118-3 1h-5c-.5522847 0-1-.4477153-1-1s.4477153-1 1-1h5c1.6548028-.0049422 2.9950578-1.3451972 3-3z" fill="#3f5c6c"/><rect id="Rectangle-path" fill="#ecf0f1" height="26" rx="4" width="29" x="29" y="10"/><path id="Shape" d="m53 16v4.33l-10 10.67h-7l15-16h1c.5522847 0 1 .4477153 1 1z" fill="#ff5364"/><path id="Shape" d="m51 15-15 16h-1c-.5522847 0-1-.4477153-1-1v-4.33l10-10.67z" fill="#df4d60"/><path id="Shape" d="m44 15-10 10.67v-9.67c0-.5522847.4477153-1 1-1z" fill="#ff5364"/><path id="Shape" d="m53 20.33v9.67c0 .5522847-.4477153 1-1 1h-9z" fill="#df4d60"/></g></svg>