<?xml version="1.0" encoding="iso-8859-1"?>
<svg version="1.1" xmlns="http://www.w3.org/2000/svg"
	 viewBox="0 0 512 512">
<ellipse style="fill:#FFFFFF;" cx="131.697" cy="108.035" rx="124.205" ry="73.954"/>
<path style="fill:#E0E0E2;" d="M43.513,108.031c0-37.203,46.134-67.984,106.193-73.18c-5.881-0.508-11.893-0.777-18.011-0.777
	C63.1,34.075,7.491,67.186,7.491,108.031c0,40.845,55.608,73.957,124.204,73.957c6.118,0,12.13-0.268,18.011-0.777
	C89.648,176.016,43.513,145.233,43.513,108.031z"/>
<ellipse style="fill:#C3FB3A;" cx="131.697" cy="108.035" rx="80.696" ry="37.007"/>
<path style="fill:#65C27C;" d="M82.468,108.031c0-17.967,27.928-32.938,64.96-36.295c-5.089-0.461-10.347-0.708-15.732-0.708
	c-44.565,0-80.692,16.567-80.692,37.003s36.127,37.003,80.692,37.003c5.385,0,10.643-0.247,15.732-0.708
	C110.395,140.969,82.468,125.998,82.468,108.031z"/>
<path style="fill:#FF5023;" d="M7.491,108.031c0,40.845,55.608,73.957,124.204,73.957S255.9,148.876,255.9,108.031v219.479
	c0,40.845-55.608,73.957-124.204,73.957S7.491,368.355,7.491,327.509V108.031z"/>
<path style="fill:#D80029;" d="M43.513,327.509v-167.4c-22.265-13.366-36.022-31.765-36.022-52.078v219.479
	c0,40.845,55.608,73.957,124.204,73.957c6.118,0,12.13-0.268,18.011-0.777C89.648,395.493,43.513,364.711,43.513,327.509z"/>
<ellipse style="fill:#FFFFFF;" cx="380.307" cy="184.496" rx="124.205" ry="73.954"/>
<ellipse style="fill:#C3FB3A;" cx="380.307" cy="184.496" rx="80.696" ry="37.007"/>
<path style="fill:#FF5023;" d="M256.099,184.492c0,40.845,55.608,73.957,124.204,73.957s124.204-33.111,124.204-73.957v219.478
	c0,40.845-55.608,73.957-124.204,73.957s-124.204-33.111-124.204-73.957V184.492z"/>
<path style="fill:#E0E0E2;" d="M292.121,184.492c0-37.203,46.134-67.984,106.193-73.18c-5.881-0.508-11.893-0.777-18.011-0.777
	c-68.596,0-124.204,33.111-124.204,73.957s55.608,73.957,124.204,73.957c6.118,0,12.13-0.268,18.011-0.777
	C338.255,252.476,292.121,221.693,292.121,184.492z"/>
<path style="fill:#65C27C;" d="M331.076,184.492c0-17.967,27.928-32.938,64.96-36.295c-5.089-0.461-10.347-0.708-15.732-0.708
	c-44.565,0-80.692,16.567-80.692,37.003s36.127,37.003,80.692,37.003c5.385,0,10.643-0.247,15.732-0.708
	C359.003,217.429,331.076,202.458,331.076,184.492z"/>
<path style="fill:#D80029;" d="M292.121,403.969v-167.4c-22.265-13.366-36.022-31.765-36.022-52.077v219.478
	c0,40.845,55.608,73.957,124.204,73.957c6.118,0,12.13-0.268,18.011-0.777C338.255,471.954,292.121,441.172,292.121,403.969z"/>
<path d="M71.516,141.005c16.199,7.428,37.572,11.52,60.18,11.52c22.609,0,43.981-4.091,60.18-11.52
	c18.058-8.281,28.002-19.992,28.002-32.975s-9.945-24.693-28.002-32.975c-16.2-7.429-37.572-11.52-60.18-11.52
	s-43.981,4.091-60.18,11.52c-18.058,8.281-28.002,19.992-28.002,32.975S53.459,132.725,71.516,141.005z M131.696,78.519
	c15.003,0,28.634,2.005,39.969,5.209v24.303h14.983V89.253c11.467,5.461,18.249,12.297,18.249,18.778
	c0,13.931-31.305,29.512-73.201,29.512s-73.2-15.581-73.2-29.512S89.8,78.519,131.696,78.519z"/>
<g>
	<rect x="129.08" y="100.543" style="fill:#FFFFFF;" width="18.478" height="14.983"/>
	<rect x="76.97" y="100.543" style="fill:#FFFFFF;" width="43.949" height="14.983"/>
	<rect x="217.647" y="229.004" style="fill:#FFFFFF;" width="14.983" height="100.024"/>
	<rect x="217.647" y="185.714" style="fill:#FFFFFF;" width="14.983" height="30.631"/>
</g>
<path d="M471.963,125.759c-24.601-14.649-57.153-22.716-91.659-22.716s-67.057,8.068-91.658,22.716
	c-10.334,6.154-18.804,13.188-25.254,20.852v-38.58c0-22.5-14.218-43.359-40.036-58.732c-24.601-14.649-57.153-22.716-91.659-22.716
	S64.639,34.65,40.037,49.299C14.218,64.673,0,85.531,0,108.031v219.479c0,22.5,14.218,43.359,40.037,58.732
	c24.601,14.649,57.152,22.716,91.658,22.716s67.057-8.068,91.659-22.716c10.334-6.153,18.804-13.187,25.253-20.851v38.579
	c0,22.5,14.219,43.359,40.037,58.732c24.601,14.649,57.152,22.716,91.658,22.716s67.058-8.068,91.659-22.716
	C497.782,447.327,512,426.469,512,403.969V184.492C512,161.991,497.781,141.133,471.963,125.759z M296.31,138.633
	c22.317-13.289,52.146-20.607,83.993-20.607s61.677,7.318,83.994,20.607c21.099,12.563,32.72,28.849,32.72,45.859
	c0,7.984-2.56,15.808-7.459,23.162v-20.182h-14.983v35.883c-3.124,2.436-6.55,4.774-10.278,6.994
	c-22.317,13.289-52.146,20.607-83.994,20.607c-31.847,0-61.676-7.318-83.993-20.607c-21.1-12.563-32.72-28.849-32.72-45.859
	c0-5.838,1.369-11.592,4.021-17.138h20.847V152.37h-10.044C283.268,147.451,289.256,142.833,296.31,138.633z M19.004,90.894h20.847
	V75.911H29.806c4.855-4.92,10.843-9.538,17.897-13.738C70.02,48.885,99.85,41.566,131.697,41.566s61.676,7.318,83.993,20.607
	c21.1,12.563,32.72,28.849,32.72,45.859c0,7.984-2.561,15.808-7.459,23.163v-20.182h-14.983v35.884
	c-3.124,2.435-6.55,4.773-10.278,6.994c-22.317,13.289-52.146,20.607-83.993,20.607s-61.676-7.318-83.993-20.607
	c-21.1-12.565-32.721-28.851-32.721-45.861C14.983,102.193,16.352,96.44,19.004,90.894z M215.689,373.368
	c-17.481,10.409-39.579,17.134-63.636,19.569v-37.576H137.07v38.537c-1.785,0.047-3.576,0.077-5.375,0.077
	c-31.847,0-61.676-7.318-83.993-20.607c-21.099-12.563-32.72-28.85-32.72-45.859v-41.19c9.941,12.112,23.49,21.401,36.46,27.3
	l6.204-13.637c-19.157-8.714-41.809-27.423-42.663-51.486v-41.171c20.295,24.77,55.875,35.158,74.077,39.008l3.1-14.658
	c-22.198-4.696-74.094-20.208-77.177-62.798v-22.734c6.425,7.574,14.826,14.528,25.055,20.62
	c24.601,14.649,57.152,22.717,91.658,22.717s67.057-8.068,91.659-22.717c10.23-6.091,18.63-13.046,25.055-20.62v181.366
	C248.41,344.517,236.789,360.804,215.689,373.368z M497.017,403.969c0,17.008-11.62,33.294-32.72,45.859
	c-17.48,10.409-39.578,17.134-63.636,19.569v-37.576h-14.983v38.537c-1.786,0.047-3.576,0.077-5.376,0.077
	c-31.847,0-61.676-7.318-83.993-20.607c-21.1-12.563-32.72-28.849-32.72-45.859v-41.19c9.941,12.112,23.49,21.401,36.46,27.3
	l6.204-13.637c-19.155-8.713-41.804-27.419-42.663-51.479v-41.178c20.295,24.77,55.875,35.157,74.077,39.008l3.1-14.658
	c-22.196-4.695-74.084-20.205-77.177-62.786v-22.745c6.425,7.574,14.826,14.528,25.055,20.619
	c24.601,14.649,57.152,22.717,91.658,22.717s67.058-8.068,91.659-22.717c10.229-6.091,18.63-13.046,25.055-20.62V403.969z"/>
<path d="M320.123,217.466c16.2,7.428,37.571,11.52,60.18,11.52c22.609,0,43.981-4.091,60.181-11.52
	c18.058-8.281,28.002-19.992,28.002-32.975c0-12.983-9.944-24.693-28.002-32.975c-16.2-7.429-37.572-11.52-60.181-11.52
	c-22.609,0-43.98,4.091-60.18,11.52c-18.058,8.281-28.002,19.992-28.002,32.975C292.121,197.475,302.065,209.185,320.123,217.466z
	 M380.303,154.98c41.895,0,73.201,15.581,73.201,29.512s-31.306,29.512-73.201,29.512c-13.206,0-25.354-1.55-35.807-4.106V189.63
	h-14.983v15.47c-13.966-5.71-22.411-13.378-22.411-20.608C307.104,170.56,338.408,154.98,380.303,154.98z"/>
<g>
	<rect x="415.896" y="177.004" style="fill:#FFFFFF;" width="18.478" height="14.983"/>
	<rect x="363.787" y="177.004" style="fill:#FFFFFF;" width="43.949" height="14.983"/>
	<rect x="466.247" y="305.455" style="fill:#FFFFFF;" width="14.983" height="100.024"/>
	<rect x="466.247" y="262.175" style="fill:#FFFFFF;" width="14.983" height="30.631"/>
</g>
</svg>
