<svg viewBox="0 0 64 64" xmlns="http://www.w3.org/2000/svg"><path d="m60.01 42.995c1.1 0 2 .9 2 2s-.9 2-2 2h-56.01-.01c-1.101 0-2-.9-2-2s.899-2 2-2h.01z" fill="#656d78"/><path d="m60.01 46.995v4.01c0 .55-.45 1-1.01 1h-8-38-8c-.561 0-1-.45-1-1v-4.01z" fill="#545c66"/><path d="m4 24.995h56.01v7h-56.01z" fill="#545c66"/><path d="m60.01 31.995c1.1 0 2 .9 2 2 0 1.11-.9 2-2 2h-56.01-.01c-1.101 0-2-.89-2-2 0-1.1.899-2 2-2h.01z" fill="#656d78"/><path d="m60.01 20.995c1.1 0 2 .9 2 2 0 1.11-.9 2-2 2h-56.01-.01c-1.101 0-2-.89-2-2 0-1.1.899-2 2-2h.01z" fill="#656d78"/><path d="m51 52.005v1c0 1.66-1.34 3-3 3h-.01-31.98c-1.67 0-3.01-1.35-3.01-3.01v-.99z" fill="#434a54"/><path d="m4 13.995h56.01v7h-56.01z" fill="#545c66"/><path d="m4 35.995h56.01v7h-56.01z" fill="#545c66"/><path d="m62.99 9.995h.02v2c0 1.1-.9 2-2 2h-1-56.01-1.01c-1.101 0-2-.9-2-2v-1.99-.01c.01-1.1.899-1.99 2-1.99l.01-.01h57.99v.01c1.11 0 1.989.891 2 1.99z" fill="#656d78"/><path d="m63.006 12.993c-.553 0-1-.447-1-1v-1.996c0-.553.447-1 1-1s1 .447 1 1v1.996c0 .553-.447 1-1 1z"/><path d="m61.006 14.991c-.553 0-1-.447-1-1s.447-1 1-1c.552 0 1-.448 1-1 0-.553.447-1 1-1s1 .447 1 1c0 1.655-1.346 3-3 3z"/><path d="m.994 12.993c-.553 0-1-.447-1-1v-1.996c0-.553.447-1 1-1s1 .447 1 1v1.996c0 .553-.447 1-1 1z"/><path d="m2.994 14.991c-1.654 0-3-1.346-3-3 0-.553.447-1 1-1s1 .447 1 1c0 .552.448 1 1 1 .553 0 1 .447 1 1s-.447 1-1 1z"/><path d="m.994 11.006c-.552 0-.999-.446-1-.998-.001-.802.31-1.556.876-2.123.567-.566 1.32-.879 2.122-.879h.003c.552.001.999.448.999 1.001 0 .552-.448.999-1 .999h-.001-.001c-.268 0-.519.104-.707.293-.188.188-.291.438-.291.705.001.553-.446 1.001-.998 1.002-.001 0-.001 0-.002 0z"/><path d="m62.994 11.006c-.553 0-1-.447-1-1 0-.268-.104-.52-.293-.708-.188-.188-.438-.292-.705-.292h-.001-.001c-.552 0-.999-.447-1-.999-.001-.553.447-1 .999-1.001h.003c.801 0 1.554.312 2.12.878s.878 1.32.878 2.122c0 .553-.447 1-1 1z"/><path d="m61.006 14.991h-58.012c-.553 0-1-.447-1-1s.447-1 1-1h58.012c.553 0 1 .447 1 1s-.447 1-1 1z"/><path d="m61.004 8.995h-58.008c-.553 0-1-.447-1-1s.447-1 1-1h58.008c.553 0 1 .447 1 1s-.447 1-1 1z"/><path d="m60.006 25.996c-.553 0-1-.447-1-1s.447-1 1-1c.552 0 1-.448 1-1s-.448-1-1-1c-.553 0-1-.447-1-1s.447-1 1-1c1.654 0 3 1.346 3 3s-1.346 3-3 3z"/><path d="m3.994 25.996c-1.654 0-3-1.346-3-3s1.346-3 3-3c.553 0 1 .447 1 1s-.447 1-1 1c-.552 0-1 .448-1 1s.448 1 1 1c.553 0 1 .447 1 1s-.447 1-1 1z"/><path d="m60.006 25.996h-56.012c-.553 0-1-.447-1-1s.447-1 1-1h56.012c.553 0 1 .447 1 1s-.447 1-1 1z"/><path d="m60.006 21.996h-56.012c-.553 0-1-.447-1-1s.447-1 1-1h56.012c.553 0 1 .447 1 1s-.447 1-1 1z"/><path d="m60.006 36.995c-.553 0-1-.447-1-1s.447-1 1-1c.552 0 1-.448 1-1s-.448-1-1-1c-.553 0-1-.447-1-1s.447-1 1-1c1.654 0 3 1.346 3 3s-1.346 3-3 3z"/><path d="m3.994 36.995c-1.654 0-3-1.346-3-3s1.346-3 3-3c.553 0 1 .447 1 1s-.447 1-1 1c-.552 0-1 .448-1 1s.448 1 1 1c.553 0 1 .447 1 1s-.447 1-1 1z"/><path d="m60.006 36.995h-56.012c-.553 0-1-.447-1-1s.447-1 1-1h56.012c.553 0 1 .447 1 1s-.447 1-1 1z"/><path d="m60.006 32.995h-56.012c-.553 0-1-.447-1-1s.447-1 1-1h56.012c.553 0 1 .447 1 1s-.447 1-1 1z"/><path d="m60.006 47.994c-.553 0-1-.447-1-1s.447-1 1-1c.552 0 1-.448 1-1s-.448-1-1-1c-.553 0-1-.447-1-1s.447-1 1-1c1.654 0 3 1.346 3 3s-1.346 3-3 3z"/><path d="m3.994 47.994c-1.654 0-3-1.346-3-3s1.346-3 3-3c.553 0 1 .447 1 1s-.447 1-1 1c-.552 0-1 .448-1 1s.448 1 1 1c.553 0 1 .447 1 1s-.447 1-1 1z"/><path d="m60.006 47.994h-56.012c-.553 0-1-.447-1-1s.447-1 1-1h56.012c.553 0 1 .447 1 1s-.447 1-1 1z"/><path d="m60.006 43.994h-56.012c-.553 0-1-.447-1-1s.447-1 1-1h56.012c.553 0 1 .447 1 1s-.447 1-1 1z"/><path d="m60.006 21.996c-.553 0-1-.447-1-1v-7.005c0-.553.447-1 1-1s1 .447 1 1v7.005c0 .553-.447 1-1 1z"/><path d="m3.996 21.996c-.553 0-1-.447-1-1v-7.005c0-.553.447-1 1-1s1 .447 1 1v7.005c0 .553-.447 1-1 1z"/><path d="m60.006 32.994c-.553 0-1-.447-1-1v-7.005c0-.553.447-1 1-1s1 .447 1 1v7.005c0 .553-.447 1-1 1z"/><path d="m3.996 32.994c-.553 0-1-.447-1-1v-7.005c0-.553.447-1 1-1s1 .447 1 1v7.005c0 .553-.447 1-1 1z"/><path d="m60.006 43.992c-.553 0-1-.447-1-1v-7.005c0-.553.447-1 1-1s1 .447 1 1v7.005c0 .553-.447 1-1 1z"/><path d="m3.996 43.992c-.553 0-1-.447-1-1v-7.005c0-.553.447-1 1-1s1 .447 1 1v7.005c0 .553-.447 1-1 1z"/><path d="m60.006 52c-.553 0-1-.447-1-1v-4.002c0-.553.447-1 1-1s1 .447 1 1v4.002c0 .553-.447 1-1 1z"/><path d="m3.996 52c-.553 0-1-.447-1-1v-4.002c0-.553.447-1 1-1s1 .447 1 1v4.002c0 .553-.447 1-1 1z"/><path d="m59.004 53.001h-54.006c-.553 0-1-.447-1-1s.447-1 1-1h54.006c.553 0 1 .447 1 1s-.447 1-1 1z"/><path d="m47.994 57.005h-31.986c-.553 0-1-.447-1-1s.447-1 1-1h31.986c.553 0 1 .447 1 1s-.447 1-1 1z"/><path d="m48.004 57.005c-.553 0-1-.447-1-1s.447-1 1-1c1.103 0 2-.897 2-2.001 0-.553.447-1 1-1s1 .447 1 1c0 2.206-1.794 4.001-4 4.001z"/><path d="m16.008 57.005c-2.212 0-4.012-1.8-4.012-4.013 0-.553.447-1 1-1s1 .447 1 1c0 1.109.902 2.013 2.012 2.013.553 0 1 .447 1 1s-.447 1-1 1z"/><path d="m4.998 53.001c-1.104 0-2.002-.897-2.002-2.001 0-.553.447-1 1-1s1 .447 1 1v.002c.553 0 1.001.447 1.001 1 0 .552-.446.999-.999.999z"/><path d="m59.004 53.001c-.553 0-1-.447-1-1s.447-1 1-1c0-.553.448-1 1.001-1s1.001.446 1.001.999c0 1.104-.899 2.001-2.002 2.001z"/><path d="m12.996 53.992c-.553 0-1-.447-1-1v-.991c0-.553.447-1 1-1s1 .447 1 1v.991c0 .553-.447 1-1 1z"/><path d="m51.004 54.004c-.553 0-1-.447-1-1v-.996c0-.553.447-1 1-1s1 .447 1 1v.996c0 .553-.447 1-1 1z"/></svg>