<?xml version="1.0" encoding="iso-8859-1"?>
<svg version="1.1" xmlns="http://www.w3.org/2000/svg"
	 viewBox="0 0 512 512">
<path style="fill:#C9F3FF;" d="M121.984,391l14.482,95.158c1.386,9.111,9.22,15.842,18.435,15.842h202.198
	c9.215,0,17.049-6.731,18.435-15.842L390.016,391H121.984z"/>
<path style="fill:#A52700;" d="M393.156,370.371l46.571-306.006H72.274l46.571,306.006C124.851,409.839,158.786,439,198.708,439
	h114.584C353.214,439,387.149,409.839,393.156,370.371z"/>
<g>
	<path style="fill:#FF8392;" d="M205.414,360.5v-60.967c0-14.636,11.864-26.5,26.5-26.5h60.967c14.636,0,26.5,11.864,26.5,26.5
		V360.5c0,14.636-11.864,26.5-26.5,26.5h-60.967C217.278,387,205.414,375.136,205.414,360.5z"/>
	<path style="fill:#FF8392;" d="M281,213.133l43.023-43.023c10.349-10.349,27.128-10.349,37.477,0l43.023,43.023
		c10.349,10.349,10.349,27.128,0,37.477L361.5,293.633c-10.349,10.349-27.128,10.349-37.477,0L281,250.61
		C270.651,240.261,270.651,223.482,281,213.133z"/>
	<path style="fill:#FF8392;" d="M141.762,239.567l18.795-18.795c10.349-10.349,27.128-10.349,37.477,0l18.795,18.795
		c10.349,10.349,10.349,27.128,0,37.477l-18.795,18.795c-10.349,10.349-27.128,10.349-37.477,0l-18.795-18.795
		C131.413,266.694,131.413,249.916,141.762,239.567z"/>
	<path style="fill:#FF8392;" d="M158.464,119.429l47.389-47.389c10.349-10.349,27.128-10.349,37.477,0l47.389,47.389
		c10.349,10.349,10.349,27.128,0,37.477l-47.389,47.389c-10.349,10.349-27.128,10.349-37.477,0l-47.389-47.389
		C148.115,146.557,148.115,129.778,158.464,119.429z"/>
</g>
<path d="M400,74.37c2.63,0,5.21-1.07,7.069-2.931C408.93,69.569,410,67,410,64.359c0-2.63-1.07-5.199-2.931-7.069
	c-1.859-1.86-4.439-2.931-7.069-2.931s-5.21,1.07-7.07,2.931c-1.86,1.87-2.93,4.439-2.93,7.069c0,2.641,1.069,5.221,2.93,7.08
	C394.79,73.3,397.37,74.37,400,74.37z"/>
<path d="M455.584,3.482C453.685,1.271,450.915,0,448,0H64c-2.915,0-5.685,1.271-7.584,3.482c-1.9,2.211-2.741,5.141-2.302,8.022
	l72.466,476.158C128.727,501.765,140.637,512,154.901,512h202.197c14.265,0,26.175-10.235,28.321-24.337l72.466-476.158
	C458.325,8.623,457.484,5.693,455.584,3.482z M226.199,74.365c3.674,0.357,7.25,1.938,10.059,4.746l47.389,47.389
	c3.117,3.116,4.833,7.26,4.833,11.667s-1.716,8.551-4.833,11.667l-47.389,47.39c-6.433,6.433-16.901,6.435-23.334,0l-47.389-47.39
	c-6.434-6.433-6.433-16.9,0-23.335v0.001l47.389-47.389c2.808-2.808,6.385-4.389,10.059-4.746L226.199,74.365L226.199,74.365z
	 M331.095,177.181c6.434-6.434,16.9-6.434,23.334,0l43.023,43.022c6.434,6.435,6.434,16.902,0,23.335l-43.023,43.024
	c-3.116,3.116-7.26,4.832-11.667,4.832s-8.551-1.716-11.667-4.833l-9.422-9.422c-1.861-2.387-4.01-4.537-6.397-6.397l-27.204-27.204
	c-6.434-6.433-6.434-16.9,0-23.335v0.001L331.095,177.181z M302.116,285.868l4.43,4.43c1.788,2.637,2.835,5.816,2.835,9.236V360.5
	c0,9.098-7.402,16.5-16.5,16.5h-60.967c-9.098,0-16.5-7.402-16.5-16.5v-60.967c0-9.098,7.402-16.5,16.5-16.5h60.967
	C296.3,283.033,299.479,284.08,302.116,285.868z M209.758,269.972l-18.794,18.796c-6.436,6.434-16.903,6.434-23.335,0
	l-18.796-18.796c-6.434-6.433-6.433-16.9,0-23.335v0.001l18.796-18.796c3.116-3.116,7.26-4.832,11.667-4.832
	s8.551,1.716,11.667,4.833l18.795,18.794C216.19,253.071,216.191,263.539,209.758,269.972z M151.393,112.357L151.393,112.357
	c-14.23,14.232-14.23,37.389,0,51.619l41.738,41.739c-4.333-1.773-9.012-2.706-13.834-2.706c-9.75,0-18.916,3.797-25.81,10.69
	l-18.796,18.795c0,0,0,0,0,0.001c-14.23,14.231-14.23,37.388,0,51.618l18.796,18.796c7.115,7.115,16.462,10.673,25.809,10.673
	c5.528,0,11.053-1.255,16.119-3.744V360.5c0,20.126,16.374,36.5,36.5,36.5h60.967c20.126,0,36.5-16.374,36.5-36.5v-51.636
	c4.206,1.656,8.725,2.531,13.381,2.531c9.75,0,18.916-3.797,25.81-10.69l29.573-29.573l-14.874,97.732
	c0,0.001-0.001,0.003-0.001,0.004C377.967,403.71,348.537,429,313.292,429H198.708c-35.245,0-64.675-25.29-69.978-60.133
	c0-0.001-0.001-0.003-0.001-0.004L83.91,74.365h105.474L151.393,112.357z M357.099,492H154.901c-4.306,0-7.901-3.09-8.55-7.347
	l-9.073-59.616c0.745,0.686,1.491,1.371,2.261,2.033c16.457,14.142,37.47,21.93,59.168,21.93h114.584
	c21.698,0,42.711-7.788,59.168-21.93c0.77-0.662,1.516-1.348,2.261-2.033l-9.073,59.616C365,488.91,361.404,492,357.099,492z
	 M408.516,202.982l-39.944-39.944c-6.894-6.894-16.06-10.69-25.81-10.69s-18.916,3.797-25.81,10.69l-43.023,43.023c0,0,0,0,0,0.001
	c-14.23,14.231-14.23,37.388,0,51.618l5.353,5.353H234.26c1.406-10.852-2.042-22.219-10.359-30.538l-13.181-13.181
	c4.433,1.814,9.151,2.725,13.871,2.725c9.347,0,18.693-3.558,25.81-10.673l47.388-47.39c6.895-6.894,10.691-16.06,10.691-25.81
	c0-9.749-3.796-18.915-10.69-25.81l-37.992-37.992H359.5c5.522,0,10-4.478,10-10s-4.478-10-10-10H226.729
	c-1.425-0.083-2.853-0.083-4.277,0H80.867L75.637,20h360.727L408.516,202.982z"/>
<path d="M362,359c2.63,0,5.21-1.07,7.069-2.931C370.93,354.21,372,351.63,372,349s-1.07-5.21-2.931-7.07
	C367.21,340.07,364.63,339,362,339s-5.21,1.069-7.07,2.93S352,346.37,352,349s1.069,5.21,2.93,7.069
	C356.79,357.93,359.37,359,362,359z"/>
<path d="M107.93,116.069c1.86,1.86,4.44,2.931,7.07,2.931s5.21-1.07,7.069-2.931C123.93,114.21,125,111.63,125,109
	s-1.07-5.21-2.931-7.07C120.21,100.069,117.63,99,115,99s-5.21,1.069-7.07,2.93S105,106.37,105,109S106.069,114.21,107.93,116.069z"
	/>
<path d="M334,100c-2.63,0-5.21,1.069-7.07,2.93S324,107.37,324,110s1.069,5.21,2.93,7.069c1.86,1.86,4.44,2.931,7.07,2.931
	s5.21-1.07,7.069-2.931C342.93,115.21,344,112.63,344,110s-1.07-5.21-2.931-7.07C339.21,101.069,336.63,100,334,100z"/>
<path d="M160,355c2.63,0,5.21-1.07,7.069-2.931C168.93,350.21,170,347.63,170,345s-1.07-5.21-2.931-7.07
	C165.21,336.07,162.63,335,160,335s-5.21,1.069-7.07,2.93S150,342.37,150,345s1.069,5.21,2.93,7.069
	C154.79,353.93,157.37,355,160,355z"/>
<path d="M400,151c2.63,0,5.21-1.07,7.069-2.931C408.93,146.21,410,143.63,410,141s-1.07-5.21-2.931-7.07
	C405.21,132.07,402.63,131,400,131s-5.21,1.069-7.07,2.93S390,138.37,390,141s1.069,5.21,2.93,7.069
	C394.79,149.93,397.37,151,400,151z"/>
<path d="M127.93,182.069c1.86,1.86,4.44,2.931,7.07,2.931s5.21-1.07,7.069-2.931C143.93,180.21,145,177.63,145,175
	s-1.07-5.21-2.931-7.07C140.21,166.07,137.63,165,135,165s-5.21,1.069-7.07,2.93S125,172.37,125,175S126.069,180.21,127.93,182.069z
	"/>
<path d="M164,388c0,2.63,1.069,5.21,2.93,7.069c1.86,1.86,4.44,2.931,7.07,2.931s5.21-1.07,7.069-2.931
	C182.93,393.21,184,390.63,184,388s-1.07-5.21-2.931-7.07C179.21,379.07,176.63,378,174,378s-5.21,1.069-7.07,2.93
	S164,385.37,164,388z"/>
</svg>
