<svg viewBox="0 0 512 512" xmlns="http://www.w3.org/2000/svg"><g><g><g><path d="m375.894 147.085-24.291 10.703-25.582 14.659-34.723-8.657-7.553-10.567c-28.39-46.299-34.274-110.558-13.231-153.223 47.568.593 105.416 45.439 133.806 91.738v22.545z" fill="#80b405"/><g><path d="m351.603 157.788-3.492 4.174-3.792-2.196-.309-5.177c-8.093-14.754-17.337-31.513-40.592-73.625l26.34-14.359c28.719 52.134 29.709 54.069 34.849 63.643l.903 12.668-5.548 11.414z" fill="#5a781e"/></g></g><path d="m219.469 234.94-10.724 19.975h-162.128l-15.341-19.975v-57.152c0-50.022 75.02-50.019 75.02 0v-26.74c0-50.02 75-50.016 75 0v26.74c0-21.52 16.79-38.96 37.5-38.96 17.818 0 33.098 12.42 37.204 28.801l-4.617 18.519-19.66 41.617z" fill="#9bdc05"/><g><path d="m503.22 115.98c-1.57 3.21-3.44 6.18-5.55 8.89-8.55 11-12.77 24.89-10.81 38.68 1.96 13.76-.22 28.27-7.18 41.6-6.97 13.36-17.86 23.54-30.6 29.79l-8.33 19.975h-38.05l-10.67-19.975-10.18-7.34-32.01-43.38v-15.546c1.125-13.286 6.193-27.455 14.394-37.959 7.799-9.99 18.167-14.658 27.486-22.685 8.09-6.96 13.85-16.35 16.52-26.89 7.404-29.278 40.056-46.035 68.12-34.78 27.79 11.13 39.79 43.23 26.86 69.62z" fill="#00959a"/><g><g><path d="m451.44 140.19-46.85 94.75-.27 8.25h-5.48l-6.81-8.25-7.08-5.1-3.35-12.97 4.28-11.77 38.67-78.209z" fill="#006468"/></g></g></g><g><path d="m404.32 234.94-5.448 19.975h-131.234l-11.638-19.975-14.234-25.897 14.234-41.413c15.54-11.78 34.9-18.76 55.89-18.76 48.96 0 89.05 37.97 92.43 86.07z" fill="#cf3b00"/><path d="m256 167.63v67.31l-6.234 19.975h-25.021l-5.275-19.975c1.93-27.47 15.84-51.64 36.53-67.31z" fill="#ff4c04"/></g></g><g><g><g><path d="m512 298.79v4.08c0 84.45-70.04 152.91-154.49 152.91l-13.957 28.11h-75.574l-11.979-28.11-59.851-71.589 59.851-85.401 32.06-25.577h199.66z" fill="#dceaec"/><path d="m256 298.79v156.99l-14.064 28.11h-78.638l-8.808-28.11c-84.45 0-154.49-68.46-154.49-152.9v-4.09l12.66-25.577h216z" fill="#f1f6f7"/></g><g><path d="m357.51 455.78v56.22h-101.51l-16.362-20.489 16.362-35.731z" fill="#d1d9e1"/><path d="m154.49 455.78h101.51v56.22h-101.51z" fill="#dceaec"/></g></g><g><path d="m512 234.6v64.19h-256l-27.34-28.641 27.34-35.549z" fill="#edbe00"/><g><path d="m0 234.6h256v64.19h-256z" fill="#ffd944"/></g></g></g></g></svg>