<?xml version="1.0" encoding="iso-8859-1"?>
<svg version="1.1" xmlns="http://www.w3.org/2000/svg"
	 viewBox="0 0 512 512">
<path style="fill:#303C42;" d="M501.333,192.019h-23.23c-2.961-3.849-6.203-7.437-10.04-10.437c0.01-0.385,0.021-0.771,0.021-1.156
	c0-22.009-11.865-42.278-30.458-52.33c-6.792-25.269-28.552-42.737-53.625-42.737c-4.035,0-7.932,0.603-11.747,1.467
	c-1.832-10.969-6.549-21.055-14.273-28.778c-18.281-18.27-47.729-20.457-72.198-5.531c-21.094-5.739-45.271,1.333-62.208,18.27
	c-0.469,0.479-0.917,0.948-1.344,1.427c-18.792-1.771-38.385,5.51-52.708,19.832c-3.777,3.777-6.99,8.016-9.785,12.563
	c-15.471-10.165-34.046-13.981-50.85-9.428c-24.458-14.936-53.917-12.739-72.198,5.531c-18.281,18.28-20.458,47.726-5.531,72.193
	c-1.673,6.149-1.953,12.601-1.516,19.113H10.667C4.771,192.019,0,196.789,0,202.685v10.666C0,318.954,64.303,409.8,155.798,448.871
	c-3.801,1.63-6.465,5.395-6.465,9.796c0,5.895,4.771,10.666,10.667,10.666h192c5.896,0,10.667-4.771,10.667-10.666
	c0-4.401-2.664-8.166-6.465-9.796C447.697,409.8,512,318.954,512,213.351v-10.666C512,196.789,507.229,192.019,501.333,192.019z"/>
<path style="fill:#8BC249;" d="M417.385,135.042c1.146,4.948,4.375,9.021,8.823,11.146c12.479,6.052,20.542,19.49,20.438,35.885
	c-0.342,3.602,0.764,6.936,2.503,9.927h-54.482v-4.958l27.25-18.167c4.906-3.271,6.229-9.885,2.958-14.792
	c-3.26-4.906-9.885-6.229-14.792-2.958l-15.417,10.276v-22.734c0-5.896-4.771-10.667-10.667-10.667
	c-5.896,0-10.667,4.771-10.667,10.667v22.734l-15.417-10.276c-4.938-3.271-11.531-1.948-14.792,2.958
	c-3.271,4.906-1.948,11.521,2.958,14.792l27.25,18.167V192h-54.313c1.73-3.156,2.634-7,2.229-11.594
	c0-14.729,8.063-28.167,20.5-34.198c4.49-2.146,7.719-6.219,8.875-11.177c3.865-16.698,17.583-28.365,33.375-28.365
	C399.792,106.667,413.51,118.333,417.385,135.042z"/>
<path style="opacity:0.2;fill:#FFFFFF;enable-background:new    ;" d="M322.229,191.073c0-14.275,7.668-27.195,19.456-33.479
	c0.284-1.212,0.708-2.413,1.44-3.51c1.595-2.401,3.997-3.913,6.604-4.479c0.677-1.279,1.535-2.448,1.875-3.906
	c3.865-16.698,17.583-28.365,33.375-28.365c15.792,0,29.51,11.667,33.385,28.375c0.423,1.829,1.397,3.368,2.346,4.904
	c1.609,0.802,3.098,1.866,4.164,3.471c0.286,0.43,0.348,0.922,0.564,1.374c0.628,0.418,1.06,1.068,1.749,1.397
	c12.281,5.956,20.198,19.103,20.349,35.146h1.612c-1.738-2.991-2.845-6.326-2.503-9.927c0.104-16.396-7.958-29.833-20.438-35.885
	c-4.448-2.125-7.677-6.198-8.823-11.146c-3.875-16.708-17.594-28.375-33.385-28.375c-15.792,0-29.51,11.667-33.375,28.365
	c-1.156,4.958-4.385,9.031-8.875,11.177c-12.438,6.031-20.5,19.469-20.5,34.198c0.405,4.594-0.499,8.438-2.229,11.594h3.163
	C322.168,191.672,322.259,191.409,322.229,191.073z"/>
<path style="fill:#8BC249;" d="M221.615,93.583c5.698,0.813,11.844-1.604,17.094-7.792c11.917-11.927,28.729-16.771,42.792-12.333
	c4.75,1.479,10,0.729,14.323-2.083c16.229-10.469,35.594-9.729,47.073,1.729c5.954,5.954,8.911,14.086,8.901,23.135
	c-10.116,7.568-17.859,18.579-21.422,31.833c-18.583,10.031-30.458,30.302-30.458,52.333c0,0.385,0.01,0.771,0.021,1.156
	c-3.828,2.983-7.076,6.578-10.04,10.438h-23.23c5.896,0,10.667-4.771,10.667-10.667c0-5.896-4.771-10.667-10.667-10.667H249.75
	l21.333-21.333h27.583c5.896,0,10.667-4.771,10.667-10.667S304.563,128,298.667,128h-6.25l24.458-24.458
	c4.167-4.167,4.167-10.917,0-15.083c-4.167-4.167-10.917-4.167-15.083,0l-24.458,24.458v-6.25c0-5.896-4.771-10.667-10.667-10.667
	C260.771,96,256,100.771,256,106.667v27.583l-18.275,18.275c-1.03-2.001-1.82-4.077-3.059-5.993v-29.198
	c0-5.896-4.771-10.667-10.667-10.667c-5.896,0-10.667,4.771-10.667,10.667v7.865c-10.677-6.841-22.889-10.18-35.033-10.214
	c1.826-2.853,3.918-5.495,6.303-7.88C194.823,96.906,208.615,91.906,221.615,93.583z"/>
<path style="opacity:0.2;fill:#FFFFFF;enable-background:new    ;" d="M213.826,114.893c1.129-4.681,5.145-8.227,10.174-8.227
	c3.953,0,7.26,2.243,9.103,5.435c2.001-1.266,3.969-2.809,5.809-4.977c11.917-11.927,28.729-16.771,42.792-12.333
	c4.75,1.479,10,0.729,14.323-2.083c0.901-0.581,1.875-0.766,2.793-1.277l2.973-2.973c3.215-3.215,7.941-3.887,11.859-2.141
	c11.117-1.762,21.974,0.66,29.448,8.12c1.733,1.733,2.667,3.988,3.893,6.06c1.564-1.469,3.096-2.98,4.805-4.258
	c0.01-9.049-2.947-17.181-8.901-23.135c-11.479-11.458-30.844-12.198-47.073-1.729c-4.323,2.813-9.573,3.563-14.323,2.083
	c-14.063-4.438-30.875,0.406-42.792,12.333c-5.25,6.188-11.396,8.604-17.094,7.792c-13-1.677-26.792,3.323-37.01,13.521
	c-2.385,2.385-4.478,5.027-6.303,7.88c7.13,0.02,14.245,1.324,21.099,3.663C204.068,116.569,208.9,115.26,213.826,114.893z"/>
<path style="fill:#8BC249;" d="M52.125,177.167c1.49-4.76,0.729-9.979-2.083-14.323c-10.479-16.219-9.76-35.573,1.729-47.073
	c11.5-11.479,30.844-12.198,47.063-1.74c4.344,2.813,9.552,3.573,14.344,2.094c14.083-4.406,30.875,0.427,44.135,13.854
	c0.07,0.083,0.188,0.104,0.259,0.186c1.824,2.104,4.079,3.652,6.556,4.707c0.712,0.302,1.447,0.293,2.188,0.5
	c1.499,0.422,2.964,1.034,4.518,1.034c0.72,0,1.451-0.053,2.16-0.152c0.016-0.001,0.033,0.009,0.033,0.009
	c13.057-1.773,26.839,3.31,37.036,13.508c10.688,10.688,15.802,25.552,13.344,38.802c-0.212,1.147-0.083,2.284-0.06,3.427h-52.68
	v-32c0-5.896-4.771-10.667-10.667-10.667c-5.896,0-10.667,4.771-10.667,10.667v32h-6.25L128,176.917v-38.25
	c0-5.896-4.771-10.667-10.667-10.667s-10.667,4.771-10.667,10.667v16.917l-24.458-24.458c-4.167-4.167-10.917-4.167-15.083,0
	c-4.167,4.167-4.167,10.917,0,15.083l42.654,42.654l0.026,0.026l3.112,3.112H51.087C50.563,186.885,50.66,181.839,52.125,177.167z"
	/>
<path style="opacity:0.2;fill:#FFFFFF;enable-background:new    ;" d="M51.796,126.456c11.5-11.479,30.844-12.198,47.063-1.74
	c4.344,2.813,9.552,3.573,14.344,2.094c14.083-4.406,30.875,0.427,44.135,13.854c0.07,0.083,0.188,0.104,0.259,0.186
	c1.824,2.104,4.079,3.652,6.556,4.707c0.712,0.302,1.447,0.293,2.188,0.5c1.499,0.422,2.964,1.034,4.518,1.034
	c0.72,0,1.451-0.053,2.16-0.152c0.016-0.001,0.033,0.009,0.033,0.009c13.057-1.773,26.839,3.31,37.036,13.508
	c7.508,7.508,12.068,17.09,13.382,26.714c1.871-12.893-3.089-27.081-13.406-37.398c-10.198-10.198-23.979-15.281-37.036-13.508
	c0,0-0.017-0.01-0.033-0.009c-0.71,0.099-1.44,0.152-2.16,0.152c-1.555,0-3.02-0.612-4.518-1.034
	c-0.741-0.207-1.475-0.198-2.188-0.5c-2.477-1.055-4.732-2.603-6.556-4.707c-0.072-0.082-0.189-0.103-0.259-0.186
	c-13.26-13.427-30.052-18.26-44.135-13.854c-4.792,1.479-10,0.719-14.344-2.094c-16.219-10.458-35.563-9.74-47.063,1.74
	c-7.273,7.28-9.715,17.751-8.247,28.538C44.535,137.572,47,131.255,51.796,126.456z"/>
<path style="fill:#FCB316;" d="M256,448C126.604,448,21.333,342.729,21.333,213.333h469.333C490.667,342.729,385.396,448,256,448z"
	/>
<path style="opacity:0.1;fill:#010101;enable-background:new    ;" d="M438.902,213.333C410.949,311.681,320.521,384,213.333,384
	c-67.607,0-128.448-28.906-171.309-74.807C78.773,390.884,160.768,448,256,448c129.396,0,234.667-105.271,234.667-234.667H438.902z"
	/>
<linearGradient id="SVGID_1_" gradientUnits="userSpaceOnUse" x1="-46.1599" y1="639.5855" x2="-24.6863" y2="629.5731" gradientTransform="matrix(21.3333 0 0 -21.3333 996.3334 13791.667)">
	<stop  offset="0" style="stop-color:#FFFFFF;stop-opacity:0.2"/>
	<stop  offset="1" style="stop-color:#FFFFFF;stop-opacity:0"/>
</linearGradient>
<path style="fill:url(#SVGID_1_);" d="M501.333,192.019h-23.23c-2.961-3.849-6.203-7.437-10.04-10.437
	c0.01-0.385,0.021-0.771,0.021-1.156c0-22.009-11.865-42.278-30.458-52.33c-6.792-25.269-28.552-42.737-53.625-42.737
	c-4.035,0-7.932,0.603-11.747,1.467c-1.832-10.969-6.549-21.055-14.273-28.778c-18.281-18.27-47.729-20.457-72.198-5.531
	c-21.094-5.739-45.271,1.333-62.208,18.27c-0.469,0.479-0.917,0.948-1.344,1.427c-18.792-1.771-38.385,5.51-52.708,19.832
	c-3.777,3.777-6.99,8.016-9.785,12.563c-15.471-10.165-34.046-13.981-50.85-9.428c-24.458-14.936-53.917-12.739-72.198,5.531
	c-18.281,18.28-20.458,47.726-5.531,72.193c-1.673,6.149-1.953,12.601-1.516,19.113H10.667C4.771,192.019,0,196.789,0,202.685
	v10.666C0,318.954,64.303,409.8,155.798,448.871c-3.801,1.63-6.465,5.395-6.465,9.796c0,5.895,4.771,10.666,10.667,10.666h192
	c5.896,0,10.667-4.771,10.667-10.666c0-4.401-2.664-8.166-6.465-9.796C447.697,409.8,512,318.954,512,213.351v-10.666
	C512,196.789,507.229,192.019,501.333,192.019z"/>
</svg>
