<svg viewBox="0 0 512.228 512.228" xmlns="http://www.w3.org/2000/svg"><g><g><g><path d="m256.114 512.114h-256.114l128.057-208.494c58.66-95.506 197.454-95.506 256.114 0l128.057 208.494z" fill="#f4da90"/><path d="m384.171 303.62c-29.334-47.759-78.705-71.635-128.075-71.63v280.123h.018 256.114z" fill="#e7aa60"/></g><g fill="#e7aa60"><path d="m221.98 451.784c-6.293 0-12.036-4.072-14.135-9.995-2.094-5.907-.189-12.721 4.7-16.661 4.646-3.744 11.229-4.364 16.496-1.563 5.726 3.045 8.913 9.713 7.66 16.082-1.369 6.951-7.618 12.137-14.721 12.137z"/><path d="m161.98 381.794c-6.153 0-11.758-3.891-13.988-9.609-2.209-5.665-.642-12.332 3.837-16.44 4.467-4.096 11.076-5.064 16.555-2.51 5.535 2.581 9.034 8.573 8.551 14.661-.614 7.714-7.182 13.898-14.955 13.898z"/><path d="m111.979 451.784c-6.293 0-12.036-4.072-14.135-9.995-2.094-5.907-.189-12.721 4.7-16.661 4.646-3.744 11.229-4.364 16.496-1.563 5.726 3.045 8.913 9.713 7.66 16.082-1.368 6.951-7.617 12.137-14.721 12.137z"/></g></g><g><g><path d="m113.671 190.103c-8.284 0-15-6.716-15-15v-174.316h30v174.316c0 8.284-6.716 15-15 15z" fill="#f4da90"/><path d="m113.664 250.103c-6.293 0-12.04-4.078-14.136-10.001-2.125-6.008-.122-12.899 4.908-16.823 4.814-3.755 11.587-4.165 16.84-1.088 5.398 3.161 8.312 9.626 7.109 15.766-1.362 6.953-7.617 12.146-14.721 12.146z" fill="#e7aa60"/></g><g><g><path d="m204.223 100.223h307.777v-100.109h-307.777z" fill="#633a1e"/><path d="m474.392 70.39h-107.059c-8.284 0-15-6.716-15-15s6.716-15 15-15h107.059c8.284 0 15 6.716 15 15s-6.716 15-15 15z" fill="#a56032"/></g><g><path d="m97.455.114h207.845c0 55.289-46.528 100.109-103.922 100.109s-103.923-44.821-103.923-100.109" fill="#b9803f"/><path d="m159.697.114h83.361c0 22.139-18.698 40.151-41.68 40.151s-41.681-18.012-41.681-40.151" fill="#eee3ca"/></g></g></g></g></svg>