<svg viewBox="0 0 512 512" xmlns="http://www.w3.org/2000/svg"><path d="m472 96h-32v16h-160v-16h-32v-32a16 16 0 0 1 16-16h192a16 16 0 0 1 16 16z" fill="#04957c"/><path d="m459.51 168a59.149 59.149 0 0 0 -11.77-5.42l-7.74-2.58v-32a16 16 0 0 0 16-16 16 16 0 0 0 -16-16h-160a16 16 0 0 0 -16 16 16 16 0 0 0 16 16v32l-7.74 2.58a58.834 58.834 0 0 0 -40.26 55.86v227.56a18 18 0 0 0 18 18h220a18 18 0 0 0 18-18v-227.56a58.913 58.913 0 0 0 -28.49-50.44z" fill="#834b10"/><path d="m232 240h256v160h-256z" fill="#04957c"/><path d="m459.51 168h-123.51v-16h104v8l7.74 2.58a59.149 59.149 0 0 1 11.77 5.42z" fill="#935412"/><path d="m448 312h16v48h-16z" fill="#05b093"/><path d="m448 280h16v16h-16z" fill="#05b093"/><path d="m24 296h128v160h-128z" fill="#cbcbcb"/><path d="m152 288h240v176h-240z" fill="#428dc5"/><g fill="#ebebeb"><circle cx="72" cy="344" r="16"/><circle cx="72" cy="408" r="16"/><circle cx="136" cy="344" r="16"/><circle cx="136" cy="408" r="16"/></g><path d="m295.5 344a29.925 29.925 0 0 1 10.542-22.824 48 48 0 1 0 37.458 46.824 30 30 0 0 1 -48-24z" fill="#f3af3e"/><path d="m262.461 397.93a22.712 22.712 0 0 0 -43.875-8.247 17.056 17.056 0 0 0 -6.5 8.979 17.04 17.04 0 0 0 -12.086 16.303 17.035 17.035 0 0 0 17.035 17.035h45.426a17.035 17.035 0 0 0 17.039-17.035 17.035 17.035 0 0 0 -17.039-17.035z" fill="#ebebeb"/><path d="m216 320h16v16h-16z" fill="#ea9d2d"/><path d="m192 344h16v16h-16z" fill="#d18d28"/><path d="m392 288h32v176h-32z" fill="#3775a4"/><path d="m320 152v16h-59.51a59.149 59.149 0 0 1 11.77-5.42l7.74-2.58v-8z" fill="#935412"/><path d="m280 128h160v16h-160z" fill="#6e3f0d"/><path d="m424 288h16v112h-16z" fill="#03816b"/><path d="m424 400h16v64h-16z" fill="#6e3f0d"/></svg>