<svg xmlns="http://www.w3.org/2000/svg" id="svg-icon" viewBox="0 0 512 512"><path d="M351.934 344.288v122.123c0 .578-.01 1.145-.031 1.713-.897 24.384-20.957 43.876-45.557 43.876H205.654c-24.6 0-44.66-19.492-45.558-43.876a46.205 46.205 0 01-.031-1.713V344.288c0-19.234 3.632-38.345 10.742-56.65l26.86-69.136 12.145-31.245c7.11-18.326 10.742-37.437 10.742-56.661V90.888h70.89v39.707c0 19.224 3.632 38.334 10.742 56.661l12.145 31.245 26.86 69.136c7.111 18.306 10.743 37.417 10.743 56.651z" fill="#2c733f"/><path d="M351.934 344.288v122.123c0 .578-.01 1.145-.031 1.713-.897 24.384-20.957 43.876-45.557 43.876h-70.663c-24.6 0-44.66-19.492-45.558-43.876a46.205 46.205 0 01-.031-1.713V344.288c0-19.234 3.632-38.345 10.742-56.65l20.514-52.801 6.346-16.335 12.145-31.245c7.11-18.326 10.742-37.437 10.742-56.661V90.888h40.863v39.707c0 19.224 3.632 38.334 10.742 56.661l12.145 31.245 26.86 69.136c7.109 18.306 10.741 37.417 10.741 56.651z" fill="#368b4c"/><path d="M314.332 218.501c-15.014 14.777-35.621 23.878-58.332 23.878-12.362 0-24.105-2.693-34.651-7.543a83.097 83.097 0 01-23.682-16.335l12.145-31.245c7.11-18.326 10.742-37.437 10.742-56.661V90.888l71.138.155v39.707c0 19.224 3.632 38.334 10.742 56.661l11.898 31.09z" fill="#ffe477"/><path d="M351.934 353.946v112.465c0 .578-.01 1.145-.031 1.713H160.097a46.205 46.205 0 01-.031-1.713V353.946h191.868z" fill="#ffcd00"/><path d="M250.583 90.888v39.707c0 19.224-3.632 38.334-10.742 56.661l-12.145 31.245-6.346 16.335a83.097 83.097 0 01-23.682-16.335l12.145-31.245c7.11-18.326 10.742-37.437 10.742-56.661V90.888h30.028z" fill="#ffda44"/><path d="M301.661 32.453v58.539c0 11.082-8.977 20.06-20.049 20.06h-51.223c-11.072 0-20.05-8.977-20.05-20.06V32.453C210.339 14.529 224.868 0 242.792 0h26.416c17.924 0 32.453 14.529 32.453 32.453z" fill="#ddb200"/><path d="M301.661 32.453v58.539c0 11.082-8.977 20.06-20.049 20.06h-29.553c-11.072 0-20.05-8.977-20.05-20.06V32.453C232.009 14.529 246.538 0 264.461 0h4.747c17.924 0 32.453 14.529 32.453 32.453z" fill="#ffcd00"/><path d="M190.094 466.411V353.946h-30.028v112.465c0 .578.01 1.145.031 1.713h30.028a46.166 46.166 0 01-.031-1.713z" fill="#cca400"/></svg>
