<svg xmlns="http://www.w3.org/2000/svg" id="svg-icon" viewBox="0 0 512.081 512.081"><path d="M443.955 45.03C409.63 18.044 336.179 1.062 333.064.358 327.32-.95 321.603 2.646 320.296 8.39a10.68 10.68 0 00-.266 2.357c0 14.4-29.547 32-64 32s-64-17.6-64-32a10.663 10.663 0 00-4.011-8.341 10.411 10.411 0 00-9.024-2.133C175.88.977 102.451 17.98 68.062 44.945 32.542 72.977 22.43 208.06 21.363 223.356a10.666 10.666 0 006.016 10.325 252.934 252.934 0 0079.317 21.973v224.427a10.666 10.666 0 005.675 9.408c1.728.939 43.605 22.592 143.659 22.592s141.931-21.653 143.659-22.592a10.668 10.668 0 005.675-9.408V255.654a252.952 252.952 0 0079.296-21.973 10.667 10.667 0 006.037-10.325C489.63 208.06 479.518 72.977 443.955 45.03z" fill="#03a9f4"/><g fill="#0288d1"><path d="M117.363 256.081c-5.891 0-10.667-4.776-10.667-10.667v-64a85.333 85.333 0 00-18.219-56.448c-4.092-4.237-3.975-10.99.262-15.083 4.134-3.992 10.687-3.992 14.82 0a104.298 104.298 0 0124.469 71.531v64c.002 5.891-4.774 10.667-10.665 10.667zM394.696 256.081c-5.891 0-10.667-4.776-10.667-10.667v-64a104.302 104.302 0 0124.448-71.552c4.093-4.237 10.845-4.355 15.083-.262 4.237 4.093 4.354 10.845.262 15.083-.086.089-.173.176-.262.262a85.33 85.33 0 00-18.197 56.469v64c0 5.891-4.776 10.667-10.667 10.667z"/></g><path d="M337.48 2.534a10.517 10.517 0 00-8.789-2.261 645.695 645.695 0 01-72.661 10.475A645.204 645.204 0 01183.369.273a10.538 10.538 0 00-8.789 2.261 10.668 10.668 0 00-3.883 8.213c0 32 44.117 53.333 85.333 53.333s85.333-21.333 85.333-53.333a10.665 10.665 0 00-3.883-8.213z" fill="#1976d2"/><path d="M394.696 256.081c-5.891 0-10.667-4.776-10.667-10.667s4.776-10.667 10.667-10.667a211.946 211.946 0 0074.155-17.387c-4.267-54.784-17.771-139.648-38.059-155.541a302.457 302.457 0 00-91.989-38.016C328.776 48.358 291.336 64.08 256.03 64.08s-72.747-15.723-82.752-40.299a303.622 303.622 0 00-91.989 38.037C61 77.713 47.582 162.577 43.23 217.361a211.96 211.96 0 0074.133 17.387c5.891 0 10.667 4.776 10.667 10.667s-4.776 10.667-10.667 10.667A241.817 241.817 0 0127.4 233.703a10.667 10.667 0 01-6.037-10.325c1.045-15.339 11.115-150.464 46.72-178.347A357.002 357.002 0 01178.995.358a10.518 10.518 0 019.024 2.133 10.668 10.668 0 014.011 8.256c0 14.4 29.547 32 64 32s64-17.6 64-32c.006-5.891 4.787-10.662 10.678-10.655.793.001 1.584.09 2.357.266A357.009 357.009 0 01443.998 45.03c35.605 27.904 45.696 163.029 46.72 178.347a10.666 10.666 0 01-6.016 10.325 241.811 241.811 0 01-90.006 22.379z"/><path d="M256.03 512.081c-100.267 0-141.952-21.675-143.68-22.592a10.665 10.665 0 01-5.653-9.408V181.414a85.333 85.333 0 00-18.219-56.448c-4.092-4.237-3.975-10.99.262-15.083 4.134-3.992 10.687-3.992 14.82 0a104.298 104.298 0 0124.469 71.531v291.669a367.818 367.818 0 00128 17.664 366.944 366.944 0 00128-17.685V181.414a104.302 104.302 0 0124.448-71.552c4.093-4.237 10.845-4.355 15.083-.262 4.237 4.093 4.354 10.845.262 15.083-.086.089-.173.176-.262.262a85.33 85.33 0 00-18.197 56.469v298.667a10.667 10.667 0 01-5.653 9.408c-1.728.917-43.414 22.592-143.68 22.592zM256.03 32.081a686.791 686.791 0 01-76.672-10.859c-5.805-1.002-9.699-6.52-8.697-12.326 1.002-5.805 6.52-9.699 12.326-8.697.128.022.255.046.382.073a648.986 648.986 0 0072.661 10.475A648.952 648.952 0 00328.691.272c5.765-1.213 11.421 2.477 12.634 8.242 1.213 5.765-2.477 11.421-8.242 12.634a9.889 9.889 0 01-.382.073 686.51 686.51 0 01-76.671 10.86z"/></svg>
