<svg viewBox="0 0 512 512" height="512" width="512" xmlns="http://www.w3.org/2000/svg" id="svg-icon"><path d="M358.54 324.29a57.6 57.6 0 01-21.9 23.65l-5.01 3.01a475.671 475.671 0 00-108 88.75l-26.38 29.17c-.53.58-1.06 1.15-1.61 1.7a58.135 58.135 0 01-80 2.86q-1.86-1.635-3.6-3.47a58.138 58.138 0 01-5.34-73.7l108.34-152.95V24h128v227.31l8.96 11.2a57.632 57.632 0 016.54 61.78z" fill="#c7463b"/><path d="M195.64 470.57a58.135 58.135 0 01-80 2.86l3.14-3.47a53.508 53.508 0 0166.87-6.05z" fill="#a83b32"/><path d="M215.04 80H272v128h-56.96z" fill="#ea9d2d"/><path d="M247.076 119.962l28.28 28.28-28.28 28.28-28.28-28.28z" fill="#da922a"/><path d="M407.51 324.29a57.664 57.664 0 01-21.9 23.65l-5.02 3.01a476.105 476.105 0 00-108 88.75l-26.38 29.17a57.18 57.18 0 01-5.48 5.32 58.141 58.141 0 01-85.07-77.93L264 243.31V208l8-8V96l-8-8V24h128v227.31l8.96 11.2a57.634 57.634 0 016.55 61.78z" fill="#dc4d41"/><path d="M264 88h128v120H264z" fill="#fbb540"/><path d="M215.04 24H264v32h-48.96z" fill="#a83b32"/><path d="M215.04 56H264v32h-48.96z" fill="#5e8569"/><path d="M407.51 324.29a57.664 57.664 0 01-21.9 23.65l-3.26-2.81c-30.27-26.13-25.3-74.4 9.65-93.82l8.96 11.2a57.634 57.634 0 016.55 61.78z" fill="#c7463b"/><path d="M264 24h128v32H264z" fill="#dc4d41"/><path d="M299.7 119.956l28.28 28.28-28.28 28.28-28.28-28.28z" fill="#ea9d2d"/><path d="M355.694 119.95l28.28 28.28-28.28 28.28-28.28-28.28z" fill="#ea9d2d"/><path d="M264 56h128v32H264z" fill="#6b9777"/><g fill="#c7463b"><path d="M288 288h16v16h-16zM288 320h16v16h-16zM272 304h16v16h-16zM304 304h16v16h-16zM224 360h16v16h-16zM224 392h16v16h-16zM208 376h16v16h-16zM240 376h16v16h-16zM240.73 474.19a58.158 58.158 0 01-79.73-4.23 52.922 52.922 0 0170.57-3.09z"/></g></svg>
