<svg xmlns="http://www.w3.org/2000/svg" id="svg-icon" viewBox="0 0 511.999 511.999"><path d="M376.251 511.998H135.746a5 5 0 01-5-5v-20.069a5 5 0 015-5H376.25a5 5 0 015 5v20.069a4.999 4.999 0 01-4.999 5z" fill="#e2e8ed"/><path d="M225.654 69.098h-61.063V23.987C164.592 10.739 175.331 0 188.579 0h13.089c13.248 0 23.987 10.739 23.987 23.987v45.111h-.001z" fill="#6c7782"/><g fill="#e2e8ed"><circle cx="195.049" cy="31.34" r="10.484"/><path d="M376.251 99.167H135.746a5 5 0 01-5-5V74.098a5 5 0 015-5H376.25a5 5 0 015 5v20.069a4.998 4.998 0 01-4.999 5z"/></g><g fill="#cfdde8"><path d="M381.249 74.256V94.01a5.16 5.16 0 01-5.16 5.16h-67.59V69.096h67.59a5.16 5.16 0 015.16 5.16zM381.249 487.086v19.753a5.16 5.16 0 01-5.16 5.16h-67.59v-30.074h67.59a5.162 5.162 0 015.16 5.161z"/></g><path d="M361.659 99.168H150.338l-31.647 45.316a5.515 5.515 0 00-.994 3.158v285.812c0 1.13.347 2.232.994 3.158l31.647 45.317H361.659l31.647-45.317a5.515 5.515 0 00.994-3.158V147.643c0-1.13-.347-2.232-.994-3.158l-31.647-45.317z" fill="#dd4733"/><path d="M394.303 147.645v285.814a5.516 5.516 0 01-1.001 3.158l-31.642 45.307h-53.161l31.653-45.307c.65-.929.991-2.033.991-3.158V147.645c0-1.135-.341-2.24-.991-3.158L308.499 99.17h53.161l31.642 45.317a5.465 5.465 0 011.001 3.158z" fill="#d13d2a"/><g fill="#e2e8ed"><path d="M168.924 145.567s-25.801 58.734-11.352 162.1c0 0 16.513 92.138 11.352 126.824h63.983s13.42-37.814-7.935-126.789c-12.437-51.82-10.967-113.738 6.565-158.688a289.87 289.87 0 011.37-3.447h-63.983z"/><path d="M390.006 156.497H121.992a7.5 7.5 0 010-15h268.014c4.143 0 7.5 3.358 7.5 7.5s-3.357 7.5-7.5 7.5zM390.006 436.45H325.5c-4.143 0-7.5-3.358-7.5-7.5s3.357-7.5 7.5-7.5h64.506c4.143 0 7.5 3.358 7.5 7.5s-3.357 7.5-7.5 7.5zM274 436.45H121.992a7.5 7.5 0 010-15H274c4.143 0 7.5 3.358 7.5 7.5s-3.357 7.5-7.5 7.5z"/></g></svg>
