<svg viewBox="0 0 512 512" xmlns="http://www.w3.org/2000/svg"><g><g><g><path d="m452.07 181.668c-4.303-7.107-10.822-12.959-19.087-16.382-8.264-3.423-17.012-3.895-25.08-1.913-6.695-4.919-14.958-7.831-23.903-7.831s-17.208 2.912-23.903 7.831c-8.068-1.983-16.816-1.511-25.08 1.912s-14.784 9.275-19.087 16.382c-8.213 1.255-16.114 5.039-22.439 11.365-3.832 3.832-6.726 8.245-8.697 12.953-4.708 1.971-9.121 4.865-12.953 8.697-5.207 5.207-8.685 11.485-10.457 18.123-6.638 1.771-12.915 5.249-18.122 10.457-5.207 5.207-8.685 11.485-10.457 18.122-6.638 1.771-12.915 5.249-18.123 10.457-3.832 3.832-6.726 8.245-8.697 12.953-4.708 1.971-9.121 4.865-12.953 8.697-6.325 6.325-10.109 14.226-11.365 22.439-7.107 4.303-12.959 10.822-16.382 19.087-3.423 8.264-3.895 17.012-1.913 25.08-4.92 6.695-7.831 14.958-7.831 23.903s2.911 17.208 7.831 23.903c-1.983 8.068-1.511 16.816 1.912 25.08s9.275 14.784 16.382 19.087c1.256 8.213 5.039 16.114 11.365 22.439l154.881-126.597 126.597-154.881c-6.325-6.324-14.226-10.108-22.439-11.363z" fill="#9d542c"/><path d="m461.557 382.749c4.708-1.971 9.12-4.865 12.953-8.697 6.325-6.325 10.109-14.226 11.365-22.439 7.107-4.303 12.959-10.822 16.382-19.087s3.895-17.012 1.912-25.081c4.92-6.695 7.831-14.958 7.831-23.903s-2.912-17.208-7.831-23.903c1.983-8.068 1.511-16.816-1.912-25.08-3.423-8.265-9.275-14.784-16.382-19.087-1.256-8.213-5.04-16.114-11.365-22.439l-281.478 281.477c6.325 6.325 14.227 10.109 22.439 11.365 4.303 7.107 10.822 12.959 19.087 16.382 8.264 3.423 17.012 3.896 25.08 1.913 6.695 4.92 14.958 7.831 23.903 7.831s17.208-2.911 23.903-7.831c8.068 1.983 16.816 1.511 25.08-1.912s14.784-9.275 19.087-16.382c8.213-1.256 16.114-5.039 22.439-11.365 3.832-3.832 6.726-8.245 8.697-12.953 4.708-1.971 9.121-4.865 12.953-8.697 5.207-5.207 8.685-11.485 10.457-18.123 6.638-1.771 12.915-5.249 18.123-10.457 5.207-5.207 8.685-11.485 10.457-18.122 6.638-1.771 12.915-5.249 18.123-10.457 3.832-3.833 6.725-8.246 8.697-12.953z" fill="#713e21"/></g><g fill="#713e21"><path d="m351.724 224.977h30v30h-30z" transform="matrix(.707 .707 -.707 .707 277.101 -189.025)"/><path d="m308.965 298.661h30v30h-30z" transform="matrix(.707 .707 -.707 .707 316.679 -137.209)"/></g></g><g><path d="m104.097 7.831c-8.068-1.983-16.816-1.511-25.08 1.912s-14.784 9.275-19.087 16.382c-8.213 1.256-16.114 5.039-22.439 11.365-6.325 6.325-10.109 14.227-11.365 22.439-7.107 4.303-12.959 10.822-16.382 19.087s-3.895 17.012-1.912 25.081c-4.921 6.695-7.832 14.958-7.832 23.903 0 5.42 1.074 10.586 3.009 15.309-1.935 4.722-3.009 9.889-3.009 15.308 0 7.365 1.979 14.262 5.421 20.209-3.442 5.946-5.421 12.844-5.421 20.208 0 7.365 1.979 14.262 5.421 20.208-3.442 5.947-5.421 12.845-5.421 20.21 0 5.419 1.074 10.586 3.009 15.309-1.935 4.722-3.009 9.889-3.009 15.308 0 8.945 2.911 17.208 7.831 23.903-1.983 8.068-1.511 16.816 1.912 25.08s9.275 14.784 16.382 19.087c1.256 8.213 5.039 16.114 11.365 22.439s14.226 10.109 22.439 11.365c4.303 7.107 10.822 12.959 19.087 16.382s17.012 3.895 25.08 1.913c6.695 4.919 14.958 7.831 23.903 7.831l20-199.035-19.999-199.034c-8.945 0-17.208 2.911-23.903 7.831z" fill="#9d542c"/><path d="m252.991 143.309c1.935-4.723 3.009-9.89 3.009-15.309 0-8.945-2.911-17.208-7.831-23.903 1.983-8.068 1.511-16.816-1.912-25.08-3.423-8.265-9.275-14.784-16.382-19.087-1.256-8.213-5.039-16.114-11.365-22.44-6.325-6.325-14.226-10.109-22.439-11.365-4.303-7.107-10.822-12.959-19.087-16.382s-17.012-3.896-25.081-1.913c-6.695-4.919-14.958-7.83-23.903-7.83v398.069c8.945 0 17.208-2.911 23.903-7.831 8.068 1.983 16.816 1.511 25.08-1.913 8.265-3.423 14.784-9.275 19.087-16.382 8.213-1.256 16.114-5.04 22.439-11.365s10.109-14.226 11.365-22.439c7.107-4.303 12.959-10.822 16.382-19.087s3.895-17.012 1.912-25.08c4.92-6.695 7.831-14.958 7.831-23.903 0-5.419-1.074-10.586-3.009-15.309 1.935-4.723 3.009-9.889 3.009-15.309 0-7.364-1.979-14.262-5.421-20.209 3.441-5.946 5.421-12.844 5.421-20.208s-1.979-14.262-5.421-20.208c3.441-5.946 5.421-12.844 5.421-20.209.001-5.419-1.073-10.586-3.008-15.308z" fill="#713e21"/></g><g fill="#713e21"><path d="m69.979 94.411h30v30h-30z"/><path d="m91.846 176.749h30v30h-30z"/></g></g></svg>