<svg xmlns="http://www.w3.org/2000/svg" id="svg-icon" viewBox="0 0 512 512"><path d="M499.642 152.269a19.557 19.557 0 01-5.75 13.888 19.595 19.595 0 01-13.899 5.76H297.996V132.62h181.997a19.57 19.57 0 0113.826 5.688 19.569 19.569 0 015.823 13.961z" fill="#898890"/><path d="M493.82 138.308c-.6.838-1.272 1.624-1.996 2.347a19.587 19.587 0 01-13.899 5.75H297.996V132.62h181.997a19.574 19.574 0 0113.827 5.688z" fill="#acabb1"/><path d="M345.97 136.571v31.396c0 23.899-23.744 43.465-52.751 43.465l-123.093-11.841c-6.453 0-11.727-3.475-11.727-7.725 0-2.823 1.386-5.378 3.63-7.229 2.244-1.851 5.346-2.989 8.78-2.989h79.546c5.843 0 11.055-3.392 11.955-8.139 1.117-5.977-4.53-11.179-11.582-11.179h-80.114c-6.743 0-12.213-4.509-12.213-10.062 0-2.782 1.365-5.295 3.578-7.115 2.213-1.82 5.264-2.947 8.635-2.947h79.742c5.843 0 11.055-3.392 11.955-8.139 1.117-5.977-4.53-11.179-11.582-11.179h-80.114c-6.743 0-12.213-4.509-12.213-10.062v-.155c0-4.25 5.274-7.735 11.727-7.735l123.093-11.83c11.81 0 22.741 3.237 31.551 8.697 12.841 7.942 21.197 20.59 21.197 34.768z" fill="#c6c5ca"/><path d="M327.355 115.195v31.396c0 23.909-23.744 43.465-52.751 43.465l-87.477-8.408h63.227c5.843 0 11.055-3.392 11.955-8.139 1.117-5.977-4.53-11.179-11.582-11.179h-80.114c-6.743 0-12.213-4.509-12.213-10.062 0-2.782 1.365-5.295 3.578-7.115 2.213-1.82 5.264-2.947 8.635-2.947h79.742c5.843 0 11.055-3.392 11.955-8.139 1.117-5.977-4.53-11.179-11.582-11.179h-80.114c-6.743 0-12.213-4.509-12.213-10.062v-.155c0-4.25 5.274-7.735 11.727-7.735l123.093-11.83c11.81 0 22.741 3.237 31.551 8.697 1.673 4.221 2.583 8.718 2.583 13.392z" fill="#d8d7da"/><path d="M186.023 275.239a7.756 7.756 0 01-7.756-7.756V97.195a7.756 7.756 0 0115.512 0v170.288a7.755 7.755 0 01-7.756 7.756z" fill="#ffc477"/><path d="M200.844 226.635a7.756 7.756 0 01-7.756-7.756V97.195a7.756 7.756 0 0115.512 0v121.683a7.756 7.756 0 01-7.756 7.757z" fill="#ffa733"/><path d="M215.667 215.948a7.756 7.756 0 01-7.756-7.756V97.195a7.756 7.756 0 0115.512 0v110.997a7.756 7.756 0 01-7.756 7.756z" fill="#ff9811"/><path d="M460.479 338.806l-28.035 56.805c-7.89 15.977-32.358 26.95-60.145 26.95H139.701c-27.787 0-52.255-10.972-60.145-26.95l-28.035-56.805h408.958z" fill="#b39a7c"/><path d="M512 338.838c0 7.466-3.051 14.25-7.973 19.173-4.922 4.922-11.706 7.973-19.173 7.973H27.146C12.213 365.984 0 353.771 0 338.838c0-7.466 3.051-14.25 7.973-19.173 4.922-4.923 11.706-7.973 19.173-7.973h457.708c14.933 0 27.146 12.224 27.146 27.146z" fill="#d9ccbc"/><path d="M460.479 338.806l-28.035 56.805c-7.89 15.977-32.358 26.95-60.145 26.95h-200.54c-27.787 0-52.255-10.972-60.145-26.95l-28.035-56.805h376.9z" fill="#c0ab91"/><path d="M512 338.838c0 7.466-3.051 14.25-7.973 19.173-4.922 4.922-11.706 7.973-19.173 7.973H59.204c-14.933 0-27.146-12.213-27.146-27.146 0-7.466 3.051-14.25 7.973-19.173 4.922-4.923 11.706-7.973 19.173-7.973h425.65c14.933 0 27.146 12.224 27.146 27.146z" fill="#ebe5dd"/><path d="M383.136 282.55a97.99 97.99 0 00-19.731-1.138 71.84 71.84 0 00-2.151.124 95.23 95.23 0 00-17.291 2.699 3.265 3.265 0 00-.3.072 96.092 96.092 0 00-17.105 6.101 97.854 97.854 0 00-29.576 21.282h23.64a81.688 81.688 0 0119.473-10.093 80.78 80.78 0 0117.136-4.106c.103-.021.207-.031.31-.041 3.32-.414 6.691-.62 10.114-.62 2.43 0 4.84.103 7.208.321a81.23 81.23 0 0121.944 5.036 81.732 81.732 0 0117.87 9.504h23.64c-14.405-15.149-33.629-25.698-55.181-29.141z" fill="#ffa733"/><g fill="#ee8700"><path d="M368.566 267.058c-.3-.01-.61-.01-.91-.01-6.401 0-12.668.538-18.78 1.582-.724.114-1.448.248-2.161.393a110.622 110.622 0 00-17.249 4.736c-.103.041-.207.083-.31.114a110.906 110.906 0 00-17.053 7.984 112.315 112.315 0 00-33.785 29.835h20.393c8.273-8.49 18.097-15.471 29.007-20.455a94.074 94.074 0 0117.115-5.936c.093-.031.197-.062.3-.072a94.405 94.405 0 0117.291-2.523 101.514 101.514 0 015.232-.145c5.677 0 11.251.496 16.66 1.448 20.321 3.557 38.459 13.495 52.276 27.684h20.393c-20.249-26.878-52.328-44.356-88.419-44.635z"/><path d="M396.373 301.454a81.706 81.706 0 00-19.773-4.674 48.305 48.305 0 00-2.172-.207 82.834 82.834 0 00-17.333.393c-.103.01-.197.021-.3.041a80.927 80.927 0 00-17.125 4.178 81.596 81.596 0 00-19.99 10.507h48.408a.3.3 0 01.083.124c.103-.01.207-.01.3 0a.38.38 0 00-.072-.124h47.219a82.145 82.145 0 00-19.245-10.238z"/></g><path d="M186.765 302.88a96.308 96.308 0 00-12.772-8.728 5.27 5.27 0 00-.228-.134 96.946 96.946 0 00-12.896-6.132 69.09 69.09 0 00-1.603-.61 95.601 95.601 0 00-14.736-4.116 96.874 96.874 0 00-18.852-1.841c-27.787 0-52.886 11.675-70.662 30.373h23.63c13.32-9.359 29.545-14.861 47.032-14.861 2.927 0 5.822.155 8.666.455 5.067.538 10 1.531 14.747 2.958.548.155 1.075.321 1.613.496a81.189 81.189 0 0112.916 5.409c.083.041.155.083.228.124a78.807 78.807 0 018.852 5.419h23.64a96.38 96.38 0 00-9.575-8.812z" fill="#ffa733"/><g fill="#ee8700"><path d="M197.623 293.336a111.913 111.913 0 00-12.772-9.307 1.7 1.7 0 00-.228-.145 109.973 109.973 0 00-12.885-6.898 45.133 45.133 0 00-1.603-.714 109.645 109.645 0 00-14.705-5.202c-9.473-2.627-19.452-4.023-29.752-4.023-36.474 0-68.915 17.549-89.339 44.644h20.393c17.498-17.963 41.944-29.132 68.946-29.132 6.143 0 12.151.579 17.984 1.686a94.838 94.838 0 0114.726 4.033c.538.197 1.075.393 1.603.6a93.576 93.576 0 0112.906 6.081.971.971 0 01.228.124 95.455 95.455 0 0112.782 8.687 97.46 97.46 0 018.718 7.921h20.393a112.117 112.117 0 00-17.395-18.355z"/><path d="M164.169 305.838a1.19 1.19 0 00-.228-.124 80.82 80.82 0 00-12.916-5.44 40.262 40.262 0 00-1.603-.496 80.914 80.914 0 00-14.747-2.999 83.334 83.334 0 00-8.997-.486c-17.87 0-34.437 5.708-47.963 15.398h95.926a79.449 79.449 0 00-9.472-5.853z"/></g><path d="M263.911 285.632c-25.585 0-48.894 9.897-66.309 26.06h26.112c11.882-6.712 25.605-10.548 40.197-10.548 14.592 0 28.304 3.826 40.186 10.548h26.112c-17.414-16.163-40.724-26.06-66.298-26.06z" fill="#ffa733"/><path d="M263.911 270.491c-34.902 0-66.112 16.07-86.629 41.2h21.22c17.187-15.936 40.186-25.688 65.409-25.688 25.212 0 48.211 9.752 65.399 25.688h21.22c-20.507-25.129-51.727-41.2-86.619-41.2z" fill="#ff9811"/><path d="M263.911 300.729a82.199 82.199 0 00-41.107 10.962h82.203c-12.109-6.969-26.153-10.962-41.096-10.962z" fill="#ffc477"/><path d="M396.808 302.189a13.41 13.41 0 00-.434-.734 153.821 153.821 0 00-12.058-17.446l-1.179-1.458a156.378 156.378 0 00-14.571-15.491c-27.456-25.45-64.189-41.024-104.479-41.024-42.379 0-80.818 17.229-108.657 45.037a156.9 156.9 0 00-10.9 12.089l-.869 1.086a156.38 156.38 0 00-8.987 12.534c-.114.176-.217.341-.331.507a154.966 154.966 0 00-8.139 14.405h17.57a136.586 136.586 0 016.929-10.951c.103-.155.217-.31.321-.465a140.408 140.408 0 018.966-11.396c.3-.331.589-.662.879-.993a138.522 138.522 0 0110.869-10.9c24.499-22.027 56.888-35.44 92.348-35.44 30.952 0 59.556 10.217 82.627 27.477 5.14 3.826 9.99 8.015 14.54 12.513.393.383.786.776 1.169 1.169a139.28 139.28 0 0112.006 13.868c.145.197.29.383.434.579a139.034 139.034 0 019.524 14.54h17.57a145.904 145.904 0 00-5.148-9.506z" fill="#ff9811"/><path d="M368.4 311.692a123.414 123.414 0 00-10.858-14.24c-.145-.165-.29-.331-.445-.486a122.076 122.076 0 00-11.965-11.737c-.383-.352-.776-.672-1.169-.993a123.535 123.535 0 00-14.499-10.476c-19.018-11.768-41.417-18.563-65.378-18.563-30.176 0-57.87 10.776-79.463 28.687a124.124 124.124 0 00-10.858 10.134c-.3.31-.6.62-.869.941a120.289 120.289 0 00-8.956 10.755c-.124.145-.228.29-.321.434a107.845 107.845 0 00-3.857 5.543h19.142a103.533 103.533 0 017.001-7.921c.279-.3.569-.6.858-.889a110.67 110.67 0 0110.858-9.545c18.418-14.178 41.469-22.627 66.464-22.627 17.218 0 33.516 4.012 48.015 11.148a108.191 108.191 0 0114.457 8.552c.393.269.776.538 1.158.827 4.219 3.02 8.211 6.36 11.955 9.948.145.134.29.279.424.414a111.508 111.508 0 019.173 10.093h18.821a.3.3 0 01.083.124c.103-.01.207-.01.3 0-.009-.04-.04-.081-.071-.123z" fill="#ffc477"/><path d="M386.249 311.692a143.591 143.591 0 00-9.204-14.323c-.155-.196-.3-.393-.445-.589a140.183 140.183 0 00-12.017-14.168c-.393-.403-.776-.807-1.179-1.2-4.54-4.581-9.4-8.852-14.53-12.782-23.537-17.994-52.937-28.687-84.789-28.687-36.133 0-69.101 13.764-93.951 36.329a141.778 141.778 0 00-10.869 11.003l-.879 1.003a139.813 139.813 0 00-8.966 11.5c-.114.155-.228.31-.331.465a141.788 141.788 0 00-7.167 11.448h18.159c1.2-1.841 2.451-3.651 3.764-5.419.103-.145.207-.29.321-.434a123.606 123.606 0 018.956-10.755l.869-.931a125.596 125.596 0 0110.858-10.124c21.531-17.839 49.152-28.573 79.235-28.573 23.837 0 46.122 6.743 65.068 18.418a124.478 124.478 0 0114.509 10.434c.393.331.786.662 1.169.993 4.25 3.63 8.252 7.539 11.965 11.706.155.165.3.321.434.486a121.453 121.453 0 0110.858 14.199.3.3 0 01.083.124c.103-.01.207-.01.3 0a.38.38 0 00-.072-.124h17.851z" fill="#ffa733"/><path d="M368.472 311.816a1.503 1.503 0 00-.3 0 .282.282 0 00-.083-.124h.31a.376.376 0 01.073.124z" fill="#d9ccbc"/><path d="M366.394 265.083c-4.064 3.547-8.532 6.887-13.95 7.942-9.235 1.81-21.014-6.867-31.975-5.646-9.679 1.076-19.111 12.213-29.824 12.761-9.907.507-20.466-9.555-31.024-9.555s-21.107 10.062-31.024 9.555c-10.714-.548-20.145-11.686-29.824-12.761-10.962-1.22-22.741 7.446-31.986 5.646-3.371-.662-6.37-2.203-9.131-4.126a153.964 153.964 0 0117.156-14.24c25.181-18.015 56.019-28.625 89.277-28.625 33.361 0 64.282 10.672 89.515 28.801a153.153 153.153 0 0112.79 10.248z" fill="#781900"/><path d="M353.602 254.836c-.383.103-.765.196-1.158.269-9.235 1.81-21.014-6.867-31.975-5.646-9.679 1.075-19.111 12.213-29.824 12.761-9.907.507-20.466-9.555-31.024-9.555s-21.107 10.062-31.024 9.555c-10.714-.548-20.145-11.686-29.824-12.761-7.984-.889-16.401 3.464-23.961 5.202 25.181-18.015 56.019-28.625 89.277-28.625 33.359-.002 64.28 10.67 89.513 28.8z" fill="#ab2300"/><g fill="#781900"><circle cx="297.603" cy="239.506" r="6.146"/><circle cx="238.14" cy="239.506" r="6.146"/><circle cx="278.689" cy="243.756" r="6.146"/></g></svg>
