<svg height="512" viewBox="0 0 58 58" width="512" xmlns="http://www.w3.org/2000/svg" id="svg-icon"><g fill="none" transform="translate(0 -1)"><path d="M34 30l20-3 1.47.62-.22 1.08A14 14 0 0141.52 40H40z" fill="#805333"/><path d="M18 17v5.22L39.68 33.9c6.81-.34 12.64-2.79 15.79-6.28a8.92 8.92 0 002.53-6V17z" fill="#a56a43"/><path d="M19.38 21.46A7.91 7.91 0 0118 17c0-5.63 6.48-10.35 15.17-11.64l16.44 1.88c5.68 2.45 10.13 7.27 7.76 12.82-2.22 5.21-10 9.05-19.37 9.05-1.26 0-1.61-.05-1.72-.05z" fill="#cb8252"/><path d="M53.5 19c-1.78 3.45-8 6-15.5 6a29 29 0 01-7.74-1l-7-3.9a5.27 5.27 0 01-1.05-1.82c2.78-1.74 7.09-5 7.8-8.2C31 5.62 38.86.51 43 1c4.84.63 7.38 7.86 9.91 13.06.15.31.88 1.79 1 1.86A4.18 4.18 0 0153.5 19z" fill="#c03a2b"/><path d="M30 10.08c-.72 3.2-5 6.47-7.8 8.2-1.27-4.11 3.6-7 7.8-8.2z" fill="#805333"/><g fill="#e64c3c"><circle cx="37" cy="9" r="1"/><circle cx="43" cy="12" r="1"/><circle cx="42" cy="18" r="1"/><circle cx="35" cy="15" r="1"/><circle cx="43" cy="7" r="1"/></g><path d="M37.47 46.62l-.22 1.08A14 14 0 0123.52 59h-7A14 14 0 012.75 47.7l-.22-1.08z" fill="#805333"/><path d="M0 36v4.62C0 47.43 9 53 20 53s20-5.52 20-12.33V36z" fill="#cb8252"/><path d="M15.17 24.36C6.48 25.65 0 30.37 0 36c0 6.66 9 12.06 20 12.06 9.32 0 17.15-3.84 19.37-9 2.36-5.53-2-10.36-7.76-12.82z" fill="#cf976a"/><path d="M35.5 38c-1.78 3.45-8 6-15.5 6S6.28 41.45 4.5 38a5.5 5.5 0 01-.3-.72c2.78-1.74 7.09-5 7.8-8.2 1-4.46 8.86-9.57 13-9 4.84.63 7.38 7.86 9.91 13.06.15.31.88 1.79 1 1.86a4.18 4.18 0 01-.41 3z" fill="#f0c419"/><path d="M12 29.08c-.72 3.2-5 6.47-7.8 8.2-1.27-4.11 3.6-7 7.8-8.2z" fill="#805333"/><circle cx="19" cy="29" fill="#f29c1f" r="1"/><circle cx="27" cy="34" fill="#f29c1f" r="1"/><circle cx="21" cy="39" fill="#f29c1f" r="1"/><circle cx="13" cy="38" fill="#f29c1f" r="1"/><circle cx="25" cy="26" fill="#f29c1f" r="1"/></g></svg>
