<svg viewBox="0 0 512 512" xmlns="http://www.w3.org/2000/svg"><g id="Flat"><path d="m24 384h464a0 0 0 0 1 0 0v40a32 32 0 0 1 -32 32h-400a32 32 0 0 1 -32-32v-40a0 0 0 0 1 0 0z" fill="#f9a40f"/><rect fill="#ffb431" height="312" rx="32" width="464" x="24" y="104"/><path d="m469.56 317.824-10.969-11.648a201.542 201.542 0 0 1 -29.015 22.859l-30.323-14.229-6.8 14.485 20.049 9.407q-6.987 3.437-14.138 6.13l-29.391-19.682-8.9 13.295 18.411 12.329a147.473 147.473 0 0 1 -14.874 2.552l-26.01-20.483-9.9 12.57 11.035 8.691c-14.849-.885-24.021-3.92-24.148-3.964l-2.587 7.57-2.61 7.563c.6.206 10.953 3.7 27.651 4.771l-11.7 8.708 9.553 12.836 29.963-22.3q4.011-.469 8.349-1.2l-9.3 10.226 11.838 10.765 25.974-28.561q5.352-1.935 10.915-4.364l-7.411 15.21 14.383 7.009 17.037-34.969a213.035 213.035 0 0 0 32.918-25.576z" fill="#5f9448"/><path d="m170.031 360.2-16.381-29.22-13.957 7.825 10.83 19.317q-7.68-1.272-15.063-3.243l-12.449-33.108-14.977 5.63 7.8 20.741a147.444 147.444 0 0 1 -13.583-6.581l-9.231-31.791-15.366 4.46 3.917 13.49c-11.562-9.361-17.255-17.166-17.334-17.276l-13.037 9.282c.366.515 6.757 9.387 19.714 19.971l-14.586.273.3 16 37.342-.7q3.535 1.953 7.49 3.879l-13.51 2.9 3.361 15.642 37.734-8.11q5.479 1.542 11.425 2.8l-14.87 8.059 7.619 14.07 34.2-18.518c3.974.243 8.056.379 12.259.379a219.4 219.4 0 0 0 29.4-2.023l-2.142-15.856a201.5 201.5 0 0 1 -36.905 1.708z" fill="#5f9448"/><path d="m384 296h-256a48 48 0 0 1 -48-48v-61.4c0-20.66 13.221-23 32.821-29.536l173.326-57.78a64.01 64.01 0 0 1 20.239-3.284h77.614a48 48 0 0 1 48 48v104a48 48 0 0 1 -48 48z" fill="#804a32"/><path d="m384 256h-256a48 48 0 0 1 -48-48v-45.4a48 48 0 0 1 32.821-45.536l166.141-55.385a110.688 110.688 0 0 1 35-5.679h70.038a48 48 0 0 1 48 48v104a48 48 0 0 1 -48 48z" fill="#91563a"/><path d="m88.781 156h85.393v16h-85.393z" fill="#78462f" transform="matrix(.538 -.843 .843 .538 -77.491 186.679)"/><path d="m121.803 162.666h124.394v16.001h-124.394z" fill="#78462f" transform="matrix(.514 -.858 .858 .514 -57.011 240.644)"/><path d="m171.355 152h148.421v16h-148.421z" fill="#78462f" transform="matrix(.506 -.862 .862 .506 -16.729 290.783)"/><path d="m224.532 147.333h158.935v16.001h-158.935z" fill="#78462f" transform="matrix(.503 -.864 .864 .503 16.765 339.833)"/><path d="m283.355 152h148.421v16h-148.421z" fill="#78462f" transform="matrix(.506 -.862 .862 .506 38.575 387.373)"/><path d="m360.096 188h65.2v16h-65.2z" fill="#78462f" transform="matrix(.512 -.859 .859 .512 23.233 432.903)"/><g fill="#34507b"><path d="m104 144h16v16h-16z"/><path d="m176 216h16v16h-16z"/><path d="m280 136h16v16h-16z"/><path d="m352 104h16v16h-16z"/><path d="m352 192h16v16h-16z"/><path d="m176 320h16v16h-16z"/><path d="m224 336h16v16h-16z"/><path d="m280 376h16v16h-16z"/><path d="m448 280h16v16h-16z"/><path d="m48 272h16v16h-16z"/></g></g></svg>