<?xml version="1.0" encoding="UTF-8"?>
<svg xmlns="http://www.w3.org/2000/svg" viewBox="0 0 58 58" version="1.1"><g id="Page-1" stroke="none" stroke-width="1" fill="none" fill-rule="evenodd"><g id="009---Molten-Metal-Mould" fill-rule="nonzero"><polygon id="Shape" fill="#95A5A5" points="0 51 23.75 47.75 46 51 46 58 0 58"/><path d="M42.406,32.157 C41.676,32.717 38.96,32.94 38.206,32.94 C38.1657403,32.9416438 38.1254323,32.9382848 38.086,32.93 C37.310789,32.8409459 36.6604807,32.3042456 36.426,31.56 L40.026,30.031 L42.406,32.157 Z" id="Shape" fill="#2C2F38"/><path d="M52.3,7.2 L48.8,6.914 L46.76,4.38 C47.380396,3.98187326 48.1709324,3.96259189 48.81,4.33 C48.8332364,4.3314659 48.8548855,4.34229045 48.87,4.36 C49.33,4.68 52.1,6.523 52.3,7.2 Z" id="Shape" fill="#2C2F38"/><path d="M26.42,7.63 C26.4145695,7.63539389 26.4110568,7.64241924 26.41,7.65 C25.54,9.19 27.749,8.63 27.219,10.5 C27.179,10.64 24.21,13.05 24.18,13.19 L0,3.19 L0,0 L7.96,0 L26.42,7.63 Z" id="Shape" fill="#95A5A5"/><path d="M40.32,1.16 L46.76,4.38 L48.47,5.23 L49.84,5.92 L49.85,5.92 C50.31,7.4 52.28,9.39 52.19,10.44 C51.7849333,14.3000758 50.7865135,18.0745071 49.23,21.63 C47.9950379,24.8662561 46.2347461,27.8766591 44.02,30.54 C43.63,30.98 41.11,31.5 40.52,31.95 L40.51,31.95 L38.53,31.76 L36.43,31.56 L31.32,31.06 L40.32,1.16 Z" id="Shape" fill="#95A5A5"/><path d="M57.13,22.14 C55.44,28.1 51.34,32.32 47.36,32.62 L47.31,32.62 L45.63,32.45 C45.64,32.45 45.64,32.45 45.65,32.44 L45.66,32.44 C46.81,31.64 45.74,30.19 46.38,29.32 C48.137465,26.8676428 49.5506086,24.1860346 50.58,21.35 C51.7522209,18.4236555 52.4867791,15.3405325 52.76,12.2 C52.83,11.18 54.91,9.6 54.57,8.29 C57.62,10.75 58.77,16.35 57.13,22.14 Z" id="Shape" fill="#95A5A5"/><path d="M38.09,32.93 C38.1294323,32.9382848 38.1697403,32.9416438 38.21,32.94 L38.09,32.94 L38.09,32.93 Z" id="Shape" fill="#5E5F62"/><path d="M25.8,38 L34.072,38 C34.6603619,37.9999043 35.2189182,38.2588814 35.599,38.708 L46,51 L0,51 L10.4,38.708 C10.7803075,38.2586144 11.3392886,37.99961 11.928,38 L25.8,38 Z" id="Shape" fill="#BDC3C7"/><path d="M21.1,42.06 C17.6,42.27 15,43.06 15,44 C15,44.94 17.55,45.71 21,45.93 C21.64,45.98 22.31,46 23,46 C23.34,46 23.67,45.99 24,45.98 C27.95,45.86 31,45.02 31,44 C31,43.02 28.18,42.21 24.46,42.03" id="Shape" fill="#E57E25"/><circle id="Oval" fill="#F3D55B" cx="15" cy="28" r="2"/><circle id="Oval" fill="#F29C1F" cx="9" cy="23" r="1"/><circle id="Oval" fill="#F29C1F" cx="12" cy="18" r="1"/><path d="M44.8,15.04 C44.8,15.05 44.8,15.05 44.79,15.06 C44.6436567,16.1857031 44.4130086,17.2988312 44.1,18.39 C43.4482963,20.7215004 42.4324482,22.9354419 41.09,24.95 C41.09,24.96 41.08,24.96 41.08,24.97 C40.0839572,26.4685833 38.8551768,27.7986368 37.44,28.91 C35.730261,30.3486817 33.5538701,31.1132635 31.32,31.06 L31.29,31.06 C30.9083924,31.0433393 30.5296181,30.9863555 30.16,30.89 L24.43,25.25 C23.1164228,21.349966 23.0291748,17.1411203 24.18,13.19 C24.21,13.05 24.25,12.92 24.29,12.78 C24.790628,10.9919443 25.5023005,9.2698312 26.41,7.65 C26.4110568,7.64241924 26.4145695,7.63539389 26.42,7.63 C29.46,2.24 34.26,-0.85 38.51,0.35 C39.1374649,0.528500907 39.7366777,0.794443634 40.29,1.14 C40.3,1.15 40.31,1.16 40.32,1.16 C42.74,2.69 44.32,5.72 44.83,9.44 L44.83,9.45 C45.0646662,11.3066175 45.0545801,13.1860082 44.8,15.04 Z" id="Shape" fill="#BDC3C7"/><path d="M40.95,17.19 C40.63178,18.319761 40.209992,19.4177489 39.69,20.47 C38.1410246,19.853441 36.5545073,19.3357354 34.94,18.92 C29.34,17.51 28,19 28,19 C27.6149255,19.4261951 27.266992,19.8845306 26.96,20.37 C26.7164329,18.0271635 26.9338547,15.6593048 27.6,13.4 C29.39,7.09 33.83,2.82 37.52,3.86 C38.1400897,4.03910521 38.7112137,4.35715629 39.19,4.79 C41.62,6.92 42.44,11.93 40.95,17.19 Z" id="Shape" fill="#F3D55B"/><path d="M39.69,20.47 C38.7480913,22.5588163 37.2887141,24.3727121 35.45,25.74 C34.4284938,26.4127323 33.4800187,27.1902808 32.62,28.06 C32.41,28.28 32.2,28.5 31.99,28.73 L31.99,28.74 C31.39,29.4 30.77,30.12 30.16,30.89 C27.03,34.84 24,40.17 24,46 L21,46 C21,36.25 22.71,29.55 24.43,25.26 L24.43,25.25 C25.1035468,23.5407829 25.9513538,21.9054873 26.96,20.37 C27.266992,19.8845306 27.6149255,19.4261951 28,19 C28,19 29.34,17.51 34.94,18.92 C36.5545073,19.3357354 38.1410246,19.853441 39.69,20.47 Z" id="Shape" fill="#F29C1F"/><path d="M54.76,12.2 C54.4867791,15.3405325 53.7522209,18.4236555 52.58,21.35 C51.5506086,24.1860346 50.137465,26.8676428 48.38,29.32 C47.6415152,30.495429 46.7237619,31.5481459 45.66,32.44 L45.65,32.44 C45.64,32.45 45.64,32.45 45.63,32.45 C45.1592019,32.8024292 44.5880761,32.9951404 44,33 L38.21,32.94 C39.0613818,32.8588391 39.8658353,32.5125744 40.51,31.95 L40.52,31.95 C41.06343,31.5284529 41.5656765,31.0563412 42.02,30.54 C44.2347461,27.8766591 45.9950379,24.8662561 47.23,21.63 C48.7865135,18.0745071 49.7849333,14.3000758 50.19,10.44 C50.3364346,8.92498099 50.2214276,7.39606478 49.85,5.92 L49.84,5.92 C49.7012972,5.30571434 49.3595636,4.75612219 48.87,4.36 L52.99,6.19 C53.8249326,6.59153414 54.4110977,7.37557656 54.56,8.29 L54.57,8.29 C54.831142,9.57617013 54.8952074,10.8945699 54.76,12.2 Z" id="Shape" fill="#5E5F62"/></g></g></svg>
