<svg viewBox="0 0 512 512" xmlns="http://www.w3.org/2000/svg"><path d="m312 88v288h-112v-288l40-16v-48h32v48z" fill="#e9eef2"/><path d="m312 88v128h-112v-128l40-16v-48h32v48z" fill="#3397e8"/><path d="m232 248h48v208h-48z" fill="#9aa3a8"/><path d="m184 376h144v32h-144z" fill="#c3c6c7"/><path d="m184 456h144v32h-144z" fill="#c3c6c7"/><path d="m200 216h112v32h-112z" fill="#6a7073"/><g fill="#c3c6c7"><path d="m312 176v16h-48a8 8 0 0 1 0-16z"/><path d="m312 208v16h-32a8 8 0 0 1 0-16z"/><path d="m312 112v16h-48a8 8 0 0 1 0-16z"/><path d="m312 144v16h-32a8 8 0 0 1 0-16z"/><path d="m312 240v16h-48a8 8 0 0 1 0-16z"/><path d="m312 272v16h-32a8 8 0 0 1 0-16z"/><path d="m312 304v16h-48a8 8 0 0 1 0-16z"/><path d="m312 336v16h-32a8 8 0 0 1 0-16z"/></g></svg>