<svg viewBox="0 0 512 512" height="512" width="512" xmlns="http://www.w3.org/2000/svg" id="svg-icon"><path d="M256 0C114.841 0 0 114.841 0 256s114.841 256 256 256 256-114.841 256-256S397.159 0 256 0zm0 432.734c-97.451 0-176.734-79.282-176.734-176.734S158.549 79.266 256 79.266 432.734 158.548 432.734 256 353.451 432.734 256 432.734z" fill="#00465f"/><path d="M512 256C512 115.991 399.018 1.894 259.44.044V79.31c95.869 1.841 173.293 80.389 173.293 176.69S355.309 430.849 259.44 432.69v79.266C399.018 510.106 512 396.009 512 256z" fill="#002c3c"/><path d="M202.225 86.982c-3.169-7.654-11.943-11.289-19.598-8.118-7.654 3.17-11.288 11.945-8.118 19.598l49.188 118.749c2.274 5.49 10.064 12.069 19.598 8.118 7.654-3.17 11.288-11.945 8.118-19.598z" fill="#d7e3f0"/><path d="M288.303 294.789c-3.172-7.654-11.946-11.29-19.599-8.118-7.653 3.17-11.288 11.945-8.118 19.598l49.188 118.749c2.275 5.49 10.065 12.069 19.599 8.118 7.653-3.17 11.288-11.945 8.118-19.598zM286.67 243.295c2.289 5.526 10.09 12.056 19.599 8.118l118.749-49.188c7.653-3.17 11.288-11.945 8.118-19.599s-11.945-11.29-19.599-8.118l-118.749 49.188c-7.653 3.171-11.288 11.946-8.118 19.599z" fill="#bed2e6"/><path d="M225.33 268.705c-3.17-7.654-11.944-11.287-19.599-8.118L86.982 309.774c-7.654 3.17-11.288 11.945-8.118 19.599 2.274 5.49 10.065 12.069 19.599 8.118l118.749-49.188c7.653-3.17 11.288-11.945 8.118-19.598z" fill="#d7e3f0"/><path d="M268.704 225.329c9.626 3.989 17.334-2.651 19.599-8.118l49.188-118.749c3.17-7.653-.465-16.428-8.118-19.598-7.652-3.17-16.429.463-19.599 8.118l-49.188 118.749c-3.17 7.653.465 16.428 8.118 19.598z" fill="#bed2e6"/><path d="M243.296 286.671c-7.655-3.171-16.428.464-19.598 8.118L174.51 413.538c-3.17 7.653.464 16.428 8.118 19.598 9.626 3.988 17.328-2.636 19.598-8.118l49.188-118.749c3.17-7.653-.464-16.428-8.118-19.598z" fill="#d7e3f0"/><path d="M425.018 309.774l-118.749-49.188c-7.651-3.17-16.429.464-19.599 8.118s.465 16.428 8.118 19.599l118.749 49.188c9.626 3.989 17.334-2.651 19.599-8.118 3.17-7.653-.465-16.428-8.118-19.599z" fill="#bed2e6"/><path d="M86.982 202.226l118.749 49.188c9.652 3.996 17.34-2.666 19.599-8.118 3.17-7.654-.464-16.428-8.118-19.599L98.463 174.509c-7.653-3.171-16.428.464-19.599 8.118-3.17 7.653.465 16.428 8.118 19.599z" fill="#d7e3f0"/><path d="M256 64.267C150.278 64.267 64.267 150.278 64.267 256S150.278 447.733 256 447.733 447.733 361.722 447.733 256 361.722 64.267 256 64.267zm0 353.466c-89.18 0-161.733-72.553-161.733-161.733S166.82 94.267 256 94.267 417.733 166.82 417.733 256 345.18 417.733 256 417.733z" fill="#f0f5fa"/><path d="M447.733 256c0-104.572-84.153-189.846-188.293-191.69v30c87.597 1.838 158.293 73.66 158.293 161.69S347.037 415.852 259.44 417.69v30c104.14-1.844 188.293-87.118 188.293-191.69z" fill="#d7e3f0"/><circle cx="256" cy="256" fill="#f0f5fa" r="63.2"/><path d="M319.2 256c0-33.694-26.505-61.31-59.76-63.103v126.206c33.255-1.793 59.76-29.409 59.76-63.103z" fill="#d7e3f0"/></svg>
