<svg xmlns="http://www.w3.org/2000/svg" id="svg-icon" viewBox="0 0 511.989 511.989"><path d="M125.23 38.685l109.973-1.809c13.257-.218 24.181 10.352 24.4 23.61l1.925 117.062-157.982 2.599-1.926-117.064c-.218-13.257 10.353-24.181 23.61-24.398z" fill="#d2d6d8"/><path d="M222.774 103.982l108.798 16.129c13.116 1.944 22.173 14.153 20.228 27.269l-17.168 115.812-156.296-23.17 17.168-115.812c1.945-13.117 14.154-22.173 27.27-20.228z" fill="#dfe2e5"/><circle cx="482.65" cy="275.822" r="29.339" fill="#96d7e8"/><path d="M371.73 118.956c52.891-13.267 98.539 159.973 98.539 159.973s41.52 174.275-11.37 187.541l-60.764-169.447-26.405-178.067z" fill="#5fbdff"/><path d="M159.611 117.969L50.813 134.098c-13.116 1.944-22.173 14.153-20.228 27.269l17.168 115.812 156.296-23.17-17.168-115.812c-1.945-13.115-14.153-22.172-27.27-20.228z" fill="#eceff1"/><g fill="#3b484a"><path d="M70.895 178.074a7.73 7.73 0 01-7.634-6.594l-1.073-7.239a7.727 7.727 0 0115.286-2.266l1.073 7.239a7.727 7.727 0 01-7.652 8.86zM150.89 166.216a7.73 7.73 0 01-7.634-6.594l-1.073-7.239a7.727 7.727 0 0115.286-2.266l1.073 7.239a7.727 7.727 0 01-7.652 8.86zM109.184 177.68c-5.675 0-11.149-1.958-15.423-5.598a7.726 7.726 0 1110.016-11.766c1.788 1.524 4.261 2.181 6.784 1.809 2.522-.374 4.697-1.721 5.967-3.698a7.726 7.726 0 0110.677-2.323 7.725 7.725 0 012.323 10.677c-3.681 5.729-9.767 9.603-16.7 10.63-1.217.18-2.436.269-3.644.269zM311.49 164.086a7.726 7.726 0 01-7.652-8.86l1.073-7.239a7.721 7.721 0 018.776-6.51 7.726 7.726 0 016.51 8.776l-1.073 7.239a7.729 7.729 0 01-7.634 6.594zM231.494 152.228a7.727 7.727 0 01-7.652-8.86l1.073-7.239a7.727 7.727 0 0115.286 2.266l-1.073 7.239a7.729 7.729 0 01-7.634 6.594zM273.201 163.692c-1.208 0-2.426-.089-3.644-.269-6.933-1.029-13.02-4.904-16.7-10.63a7.727 7.727 0 0113-8.354c1.27 1.976 3.445 3.324 5.967 3.698 2.523.376 4.994-.285 6.783-1.809a7.725 7.725 0 0110.891.875 7.724 7.724 0 01-.875 10.891c-4.273 3.638-9.746 5.598-15.422 5.598zM221.282 83.64a7.727 7.727 0 01-7.723-7.6l-.121-7.317a7.726 7.726 0 017.599-7.852c4.248-.036 7.782 3.332 7.852 7.599l.121 7.317a7.726 7.726 0 01-7.599 7.852l-.129.001zM140.423 84.97a7.727 7.727 0 01-7.723-7.6l-.121-7.317a7.726 7.726 0 017.599-7.852l.129-.001a7.727 7.727 0 017.723 7.6l.121 7.317a7.726 7.726 0 01-7.599 7.852l-.129.001zM180.659 89.714c-6.855 0-13.321-2.819-17.796-7.771a7.727 7.727 0 0111.466-10.36c1.575 1.743 3.952 2.731 6.489 2.677 2.55-.042 4.881-1.095 6.398-2.889a7.727 7.727 0 0111.8 9.976c-4.396 5.199-10.936 8.248-17.944 8.363-.138.003-.276.004-.413.004z"/></g><path d="M348.237 202.698H24.589c-13.833 0-24.942 11.407-24.58 25.229 2.958 112.823 25.452 164.431 43.51 205.377.202.457.405.904.627 1.352l142.266 20.217 142.267-20.217c.224-.447.425-.894.627-1.352 18.057-40.946 40.552-92.552 43.51-205.376.374-13.823-10.746-25.23-24.579-25.23z" fill="#fdd974"/><g fill="#e6c468"><path d="M85.354 434.655a30.117 30.117 0 01-.627-1.352c-18.057-40.946-40.552-92.552-43.51-205.376-.362-13.822 10.747-25.229 24.58-25.229H24.59c-13.833 0-24.942 11.407-24.58 25.229 2.958 112.823 25.452 164.43 43.51 205.376.202.457.405.904.627 1.352l142.266 20.217 20.604-2.928-121.663-17.289z"/><path d="M328.68 434.655c-11.503 24.676-36.401 40.435-63.717 40.435h-157.1c-27.315 0-52.214-15.759-63.717-40.435H328.68z"/></g><path d="M85.354 434.655H44.147c11.503 24.676 36.401 40.435 63.717 40.435h41.207c-27.316 0-52.214-15.759-63.717-40.435z" fill="#caac5c"/><path fill="#96d7e8" d="M424.534 475.103L337.36 127.56l34.363-8.62 87.173 347.545z"/></svg>
