<svg xmlns="http://www.w3.org/2000/svg" id="svg-icon" viewBox="0 0 512 512"><g fill="#807a72"><path d="M322.487 117.791a8.376 8.376 0 01-8.376-8.376v-67.01a8.376 8.376 0 1116.752 0v67.01a8.377 8.377 0 01-8.376 8.376zM188.466 117.791a8.376 8.376 0 01-8.376-8.376v-67.01a8.376 8.376 0 1116.752 0v67.01a8.375 8.375 0 01-8.376 8.376z"/></g><path d="M314.11 25.652H196.843c-9.253 0-16.753 7.5-16.753 16.753V75.91h150.773V42.405c0-9.253-7.5-16.753-16.753-16.753z" fill="#ff4a36"/><path d="M486.871 101.039H25.129C11.273 101.039 0 112.312 0 126.168v335.051c0 13.855 11.273 25.129 25.129 25.129h461.742c13.855 0 25.129-11.273 25.129-25.129V126.168c0-13.856-11.273-25.129-25.129-25.129z" fill="#ff9a8f"/><path d="M25.129 461.219V126.168c0-13.855 11.273-25.129 25.129-25.129H25.129C11.273 101.039 0 112.312 0 126.168v335.051c0 13.855 11.273 25.129 25.129 25.129h25.129c-13.856 0-25.129-11.274-25.129-25.129z" fill="#ff7161"/><g fill="#ff6c5c"><path d="M512 126.168c0-13.855-11.273-25.129-25.129-25.129H437.66L512 175.378v-49.21zM0 126.168c0-13.855 11.273-25.129 25.129-25.129H74.34L0 175.378v-49.21zM512 461.219c0 13.855-11.273 25.129-25.129 25.129H437.66l74.34-74.34v49.211zM0 461.219c0 13.855 11.273 25.129 25.129 25.129H74.34L0 412.008v49.211z"/></g><path fill="#928d86" d="M339.239 101.039h67.01v385.309h-67.01z"/><path d="M397.873 302.07h-50.258a8.376 8.376 0 00-8.376 8.376v67.01a8.376 8.376 0 008.376 8.376h50.258a8.376 8.376 0 008.376-8.376v-67.01a8.376 8.376 0 00-8.376-8.376z" fill="#dbd9d7"/><path fill="#928d86" d="M104.703 101.039h67.01v385.309h-67.01z"/><path d="M163.337 302.07H113.08a8.376 8.376 0 00-8.376 8.376v67.01a8.376 8.376 0 008.376 8.376h50.258a8.376 8.376 0 008.376-8.376v-67.01a8.377 8.377 0 00-8.377-8.376z" fill="#dbd9d7"/><circle cx="238.724" cy="176.425" r="41.881" fill="#ffdc73"/><g fill="#ffd042"><path d="M512 235.059c-18.504 0-33.505 15.001-33.505 33.505S493.496 302.07 512 302.07v-67.011zM19.66 254.547l42.134-21.067c5.9-2.951 12.737 1.761 12.081 8.325l-5.267 52.667c-.673 6.737-8.645 9.932-13.786 5.526l-36.867-31.601c-4.549-3.897-3.654-11.172 1.705-13.85z"/></g><path d="M246.495 422.926l47.803 10.623c5.607 1.246 10.776-3.393 10.143-9.102l-5.312-47.803c-.748-6.725-8.748-9.835-13.841-5.379l-42.492 37.18c-5.165 4.519-3.001 12.992 3.699 14.481z" fill="#ffdc73"/></svg>
