<svg viewBox="0 -5 512 512" xmlns="http://www.w3.org/2000/svg"><path d="m430.066406 324.65625c-2.988281 4.78125-7.359375 13.84375-3.046875 20.8125 2.726563 4.398438 8.203125 6.726562 15.839844 6.726562 1.339844 0 2.738281-.070312 4.164063-.214843 19.167968-1.933594 37.652343-11.132813 50.742187-25.25l1.425781-1.355469-.636718-1.828125c-.730469-2.082031-1.648438-4.234375-2.730469-6.398437l-1.542969-3.089844-2.84375 1.960937c-8.820312 6.089844-18.515625 10.589844-28.820312 13.371094-1.371094.371094-2.964844.769531-4.527344.769531-.371094 0-.742188-.023437-1.109375-.074218-2.113281-.277344-3.832031-1.46875-4.480469-3.109376-.855469-2.164062.121094-4.757812 2.898438-7.707031 6.945312-7.339843 15.660156-12.996093 25.195312-16.351562l4.476562-1.570313-3.339843-3.371094c-1.148438-1.15625-2.3125-2.289062-3.46875-3.363281-1.035157-.960937-2.148438-1.945312-3.503907-3.105469l-1.679687-1.355468-1.789063 1.050781c-16.996093 6.230469-31.632812 18.109375-41.222656 33.453125zm0 0" fill="#fff"/><path d="m332.039062 332.007812c-2.832031 0-4.921874-.871093-6.214843-2.585937-3.199219-4.242187.761719-10.078125 5.535156-14.125l14.882813-12.621094-2.550782-5.226562c-3.316406.6875-6.707031 1.136719-10.078125 1.332031l-.636719.039062-.5625.292969c-13.101562 6.769531-24.703124 16.578125-33.554687 28.367188-5.703125 7.625-7.6875 14.277343-5.890625 19.777343 1.882812 5.769532 7.488281 9.046876 12.101562 10.1875 2.058594.515626 4.253907.765626 6.71875.765626 3.546876 0 7.035157-.539063 9.675782-1.011719 29.421875-5.238281 56.46875-20.5 76.164062-42.976563 3.109375-3.554687 6.148438-7.425781 8.828125-10.839844 3.691407-4.6875 7.507813-9.535156 11.695313-13.976562 6.058594-6.421875 12.34375-11.167969 18.679687-14.109375l6.71875-3.117187-6.992187-2.4375c-3.925782-1.367188-8.054688-2.5625-12.269532-3.554688l-.976562-.230469-.917969.402344c-15.320312 6.734375-27.410156 19.246094-39.113281 31.355469-13.554688 14.011718-27.566406 28.5-46.351562 33.5625-1.753907.476562-3.40625.722656-4.890626.730468zm0 0" fill="#fff"/><path d="m266.832031 267.371094 8.433594-5.863282-10.261719.402344c-4.652344.183594-9.355468.632813-13.988281 1.34375l-.578125.085938-.503906.300781c-19.363282 11.546875-36.9375 26.96875-50.816406 44.601563-6.511719 8.257812-8.453126 15.171874-5.78125 20.542968 1.789062 3.605469 5.894531 6.277344 10.714843 6.964844.964844.136719 1.984375.207031 3.035157.207031 3.511718 0 7.078124-.773437 10.105468-1.527343 28.144532-7.042969 53.882813-23.238282 72.476563-45.601563l1.832031-2.199219-2.113281-1.933594c-1.84375-1.6875-3.527344-3.519531-5-5.449218l-1.90625-2.492188-2.40625 2.015625c-14.769531 12.394531-31.1875 22.558594-48.796875 30.21875-1.421875.617188-2.691406.933594-3.765625.933594-1.121094 0-1.980469-.363281-2.5625-1.085937-1.84375-2.261719.949219-5.625 1.847656-6.601563 12.015625-13.015625 25.484375-24.746094 40.035156-34.863281zm0 0" fill="#fff"/><path d="m330.363281 148.996094c3.121094 0 6.175781-.386719 9.082031-1.148438 10.046876-2.644531 18.949219-8.910156 26.335938-14.6875l1.265625-.988281-.125-1.605469c-.25-3.238281-.84375-6.480468-1.773437-9.636718l-1.363282-4.628907-3.546875 3.273438c-3.644531 3.359375-7.691406 6.714843-12.574219 8.484375-1.949218.710937-4.128906 1.089844-6.300781 1.089844-2.582031 0-7.390625-.574219-10.585937-4.402344-4.386719-5.257813-2.964844-13.199219.703125-18.324219 3.253906-4.546875 8.035156-7.667969 12.71875-10.363281l3.636719-2.097656-3.160157-2.761719c-2.128906-1.863281-4.34375-3.648438-6.570312-5.292969-.726563-.546875-1.460938-1.082031-2.199219-1.605469l-1.738281-1.230469-1.734375 1.234376c-8.253906 5.871093-17.609375 12.523437-23.679688 21.902343-5.539062 8.5625-8.367187 21.578125-2.199218 31.351563 4.527343 7.164062 13.425781 11.4375 23.808593 11.4375zm0 0" fill="#fff"/><path d="m209.6875 157.9375c2.644531 0 5.316406-.335938 7.957031-1 12.167969-3.070312 21.882813-11.726562 30.574219-20.625 19.285156-19.738281 35.738281-42.078125 48.902344-66.386719l1.828125-3.378906-3.722657-.957031c-4.949218-1.265625-10.015624-2.246094-15.066406-2.90625l-1.941406-.253906-1.011719 1.675781c-12.585937 20.777343-28.070312 39.609375-46.023437 55.972656-2.902344 2.640625-6.042969 5.335937-9.746094 6.746094-1.632812.617187-3.300781.933593-4.957031.933593-2.496094 0-4.707031-.707031-6.394531-2.050781-4.113282-3.257812-5.398438-11.171875.304687-19.410156.261719-.375.53125-.746094.8125-1.117187l-3.667969-4.519532c-2.613281 1.214844-5.351562 2.289063-8.132812 3.183594l-.867188.277344-.566406.714844c-4.695312 5.933593-8.796875 11.363281-11.472656 17.730468-3.207032 7.628906-3.492188 15.511719-.777344 21.628906 3.644531 8.21875 13.277344 13.742188 23.96875 13.742188zm0 0" fill="#fff"/><path d="m67.625 156.855469c1.699219.210937 3.382812.316406 5.160156.316406 5.097656 0 10.703125-.875 17.636719-2.746094 26.976563-7.296875 51.621094-23.246093 69.386719-44.914062l2.863281-3.488281-4.324219-1.289063c-5.304687-1.582031-10.1875-3.839844-14.519531-6.707031l-2.082031-1.378906-1.734375 1.792968c-12.5625 13.003906-27.980469 23.523438-44.589844 30.414063-3.445313 1.433593-8.609375 3.332031-13.691406 3.332031-2.699219 0-5.0625-.515625-7.222657-1.578125-6.445312-3.1875-11.050781-12.777344-7.597656-23.316406 1.292969-3.941407 3.527344-7.835938 6.835938-11.902344l-3.769532-4.523437c-5.234374 2.875-10.292968 6.109374-15.039062 9.617187l-.449219.332031-.296875.46875c-3.699218 5.796875-7.402344 12.144532-9.425781 19.28125-2.710937 9.511719-1.523437 19.074219 3.167969 25.585938 4.164062 5.769531 11.339844 9.671875 19.691406 10.703125zm0 0" fill="#fff"/><path d="m499.632812 367.808594-1.8125-4.082032-3.09375 3.226563c-8.742187 9.105469-22.617187 14.359375-38.054687 14.40625h-.25c-12.375 0-24.546875-2.902344-36.359375-5.71875l-1.363281-.324219c-2.296875-.546875-4.59375-1.09375-6.878907-1.605468-7.496093-1.6875-17.363281-3.628907-27.199218-3.628907-6.039063 0-11.425782.695313-16.457032 2.128907-8.101562 2.292968-15.308593 6.460937-23.023437 10.917968l-.25.144532c-2.527344 1.460937-5.140625 2.972656-7.753906 4.382812-6.835938 3.6875-17.203125 8.59375-28.234375 8.601562-2.246094 0-4.492188-.214843-6.675782-.632812-11.496093-2.242188-20.3125-10.148438-28.839843-17.796875-7.363281-6.613281-14.320313-12.855469-22.949219-15.953125-4.40625-1.582031-9.25-2.351562-14.816406-2.351562-6.785156 0-13.945313 1.15625-20.886719 2.273437-3.28125.527344-6.671875 1.070313-10 1.484375-3.273437.410156-6.503906.621094-9.589844.621094-15.410156 0-27.273437-5.011719-33.40625-14.113282l-2.578125-3.824218-2.453125 3.910156c-10.355469 16.523438-10.34375 40.011719.035157 59.84375 9.335937 17.859375 25.527343 33.011719 50.949218 47.675781 43.285156 24.960938 92.722656 38.152344 142.960938 38.152344 13.734375 0 27.5625-1.007813 41.09375-2.992187 38.476562-5.636719 68.128906-18.828126 88.125-39.207032 10.4375-10.636718 18.371094-24.5625 22.339844-39.214844 4.457031-16.46875 3.566406-32.484374-2.578126-46.324218zm0 0" fill="#f7b36f"/><path d="m166.992188 307.925781 1.023437-1.324219c1.390625-1.804687 2.972656-3.6875 4.695313-5.605468 24.34375-27.027344 60.695312-43.164063 97.246093-43.164063 1.136719 0 2.269531.015625 3.402344.046875l3.078125.082032.003906-3.082032c.007813-11.558594 4.457032-23.34375 12.203125-32.332031 10.046875-11.667969 29.625-23.476563 47.605469-23.476563 1.625 0 3.226562.101563 4.761719.296876 10.386719 1.316406 21.355469 5.628906 30.09375 11.828124l3.832031 2.71875.851562-4.621093c3.386719-18.335938.695313-36.246094-7.578124-50.425781l-2.277344-3.898438-2.710938 3.605469c-3.671875 4.878906-8.570312 8.996093-14.5625 12.246093-6.796875 3.679688-14.832031 6.117188-23.234375 7.058594-3.304687.367188-6.699219.542969-10.375.542969-9.390625 0-18.839843-1.199219-28.019531-2.367187-2.914062-.375-5.839844-.746094-8.742188-1.078126-4.578124-.519531-11.484374-1.21875-18.515624-1.21875-10.460938 0-19.21875 1.488282-26.777344 4.550782-8.109375 3.277344-15.097656 8.390625-22.570313 13.859375l-.214843.15625c-2.453126 1.800781-4.992188 3.660156-7.539063 5.414062-7.636719 5.25-19.28125 12.230469-32.152344 12.230469-.953125 0-1.925781-.042969-2.96875-.128906-12.085937-1.023438-22.058593-8.195313-31.71875-15.148438-8.335937-6-16.210937-11.667968-25.507812-13.917968-3.074219-.742188-6.242188-1.105469-9.683594-1.105469-8.882813 0-17.761719 2.425781-27.21875 5.007812-3.332031.914063-6.773437 1.855469-10.164063 2.652344-5.894531 1.398437-11.589843 2.105469-16.933593 2.105469-12.667969 0-22.992188-4.054688-29.070313-11.414063l-2.953125-3.578125-2.050781 4.160156c-9.03125 18.289063-6.445312 42.6875 6.585938 62.164063 11.660156 17.425781 30.082031 31.269531 57.96875 43.566406 27.84375 12.28125 57.625 20.160157 88.519531 23.417969zm0 0" fill="#f7b36f"/><g fill="#935252"><path d="m499.460938 325.183594-4.035157 3.976562c-12.882812 12.699219-30.523437 21.019532-48.40625 22.824219-1.375.140625-2.773437.214844-4.160156.214844-5.328125 0-12.40625-1.167969-15.847656-6.730469-3.195313-5.164062-2.113281-12.558594 3.050781-20.820312 9.027344-14.4375 22.703125-25.941407 38.5-32.390626l4.898438-2-4.230469-3.175781c-7.363281-5.535156-15.460938-10.234375-24.0625-13.976562l-.96875-.417969-1.015625.273438c-8.472656 2.304687-16.894532 7.835937-25.035156 16.445312-4.15625 4.398438-7.960938 9.238281-11.6875 13.976562-2.679688 3.414063-5.71875 7.28125-8.839844 10.839844-19.6875 22.476563-46.734375 37.738282-76.15625 42.980469-2.664063.472656-6.171875 1.015625-9.683594 1.015625-2.414062 0-4.675781-.257812-6.714844-.761719-5.894531-1.476562-10.53125-5.378906-12.09375-10.199219-1.828125-5.59375.101563-12.066406 5.882813-19.777343 6.902343-9.1875 15.316406-17.054688 25.011719-23.378907l7.152343-4.667968-8.5-.832032c-10.824219-1.058593-20.753906-4.632812-28.722656-10.34375l-2.273437-1.625-1.78125 2.148438c-18.605469 22.386719-44.375 38.597656-72.5625 45.644531-3.1875.796875-6.613282 1.53125-10.074219 1.53125-1.015625 0-2.050781-.070312-3.0625-.210937-4.886719-.699219-8.890625-3.304688-10.710938-6.96875-2.675781-5.359375-.734375-12.269532 5.773438-20.535156 10.683593-13.5625 23.304687-25.632813 37.515625-35.871094l-2.605469-5.308594c-22.648437 6.726562-42.816406 19.382812-58.328125 36.605469-6.539062 7.261719-10.59375 13.644531-12.761719 20.082031-2.667969 7.910156-2.203125 16.277344 1.242188 22.390625 6.40625 11.34375 20.464843 13.726563 31.128906 13.726563 3.769531 0 6.945313-.300782 8.941406-.554688 3.175781-.394531 6.445313-.921875 9.609375-1.429688l.269532-.042968c7.0625-1.140625 14.363281-2.316406 21.507812-2.316406 6.039062 0 11.328125.847656 16.171875 2.585937 9.335937 3.351563 16.890625 10.125 24.269531 16.742187 8.488282 7.617188 16.511719 14.8125 26.917969 16.839844 1.921875.375 3.925781.5625 5.949219.5625 7.566406 0 16.167968-2.652344 26.300781-8.117187 2.730469-1.476563 5.59375-3.132813 7.898437-4.464844 7.507813-4.355469 15.269532-8.855469 23.925782-11.308594 5.417968-1.539062 11.167968-2.289062 17.582031-2.289062 10.222656 0 20.363281 1.992187 28.054687 3.726562 2.753907.625 5.515626 1.28125 8.367188 1.960938 12.070312 2.875 23.46875 5.59375 35.347656 5.59375h.238282c16.445312-.050781 30.707031-6.304688 38.144531-16.726563 5.644531-7.910156 7.71875-18.796875 5.6875-29.875zm0 0"/><path d="m455.390625 319.277344c-2.765625 2.953125-3.742187 5.542968-2.894531 7.691406.628906 1.609375 2.386718 2.832031 4.480468 3.113281.359376.046875.738282.070313 1.128907.070313 1.570312 0 3.15625-.390625 4.519531-.761719 10.492188-2.835937 20.339844-7.4375 29.273438-13.683594l2.347656-1.644531-1.53125-2.417969c-1.808594-2.863281-3.957032-5.769531-6.382813-8.636719l-1.28125-1.507812-1.890625.578125c-10.433594 3.199219-20.292968 9.304687-27.769531 17.199219zm0 0"/><path d="m357.734375 292.933594-26.375 22.367187c-4.769531 4.050781-8.726563 9.886719-5.535156 14.125.886719 1.171875 2.675781 2.566407 6.1875 2.566407 2.023437 0 3.957031-.445313 4.917969-.707032 18.800781-5.070312 32.1875-18.921875 46.359374-33.582031 9.839844-10.1875 20.019532-20.71875 32.230469-27.832031l7.394531-4.308594-8.464843-1.253906c-5.742188-.847656-11.53125-1.277344-17.214844-1.277344-2.839844 0-5.699219.105469-8.5.320312l-2.242187-.140624-.828126 1.957031c-2.488281 5.890625-5.953124 11.144531-10.300781 15.613281-4.765625 4.878906-10.574219 8.910156-17.257812 11.976562zm0 0"/><path d="m167.894531 205.855469c.882813.078125 1.777344.113281 2.667969.113281 8.917969 0 18.402344-3.667969 29.847656-11.539062 2.484375-1.707032 4.9375-3.5 7.652344-5.492188 7.285156-5.335938 14.816406-10.855469 23.433594-14.339844 8.054687-3.257812 17.300781-4.84375 28.261718-4.84375 7.234376 0 14.296876.710938 18.976563 1.246094 2.929687.335938 5.863281.703125 8.796875 1.082031 9.449219 1.207031 18.378906 2.34375 27.386719 2.34375 3.554687 0 6.847656-.175781 10.0625-.535156 17-1.886719 31.050781-9.945313 37.585937-21.5625 2.234375-3.984375 3.65625-8.542969 4.226563-13.550781l.777343-6.859375-5.546874 4.109375c-5.734376 4.253906-13.484376 9.4375-22.585938 11.820312-3.160156.828125-6.3125 1.25-9.375 1.25-11.964844 0-20.140625-6.21875-23.503906-11.542968-5.429688-8.585938-4.566406-20.890626 2.191406-31.347657 5.511719-8.519531 13.804688-14.839843 21.828125-20.578125l3.632813-2.601562-3.78125-2.378906c-8.988282-5.648438-18.792969-10.140626-29.148438-13.347657l-2.367188-.730469-1.167968 2.179688c-13.257813 24.753906-29.921875 47.488281-49.53125 67.570312-8.683594 8.894532-18.394532 17.546876-30.582032 20.617188-2.371093.605469-4.910156.910156-7.550781.910156-8.441406 0-19.890625-3.578125-24.367187-13.65625-2.710938-6.121094-2.425782-14 .785156-21.625 1.535156-3.667968 3.71875-7.394531 6.878906-11.734375l4.4375-6.101562-7.417968 1.386719c-3.382813.632812-6.757813 1.035156-10.035157 1.195312-1.152343.054688-2.308593.085938-3.433593.085938-4.164063 0-8.34375-.398438-12.425782-1.179688l-1.792968-.34375-1.128907 1.4375c-17.914062 22.824219-43.1875 39.554688-71.164062 47.109375-6.945313 1.878906-12.550781 2.753906-17.644531 2.753906-1.71875 0-3.402344-.101562-5.140626-.316406-8.351562-1.035156-15.53125-4.9375-19.699218-10.707031-4.753906-6.597656-5.914063-15.925782-3.175782-25.582032.550782-1.933593 1.242188-3.859374 2.113282-5.890624l-4.832032-3.351563c-5.742187 5.492187-10.949218 11.453125-15.480468 17.722656-5.945313 8.230469-9.425782 15.28125-10.945313 22.1875-1.902343 8.609375-.515625 17.011719 3.800781 23.046875 5.214844 7.273438 14.421876 11.121094 26.621094 11.121094 6.957032-.003906 13.203125-1.234375 16.304688-1.96875 3.160156-.746094 6.410156-1.632812 9.550781-2.484375l.484375-.132813c9.242188-2.535156 18.792969-5.15625 28.285156-5.15625 3.753906 0 7.230469.398438 10.613282 1.21875 10.015624 2.425782 18.574218 8.578126 26.917968 14.574219 9.621094 6.929688 18.707032 13.46875 29.703125 14.398438zm0 0"/><path d="m330.773438 124.738281c2.382812 2.863281 6.113281 4.4375 10.5 4.4375 2.167968 0 4.378906-.386719 6.386718-1.117187 5.839844-2.113282 10.585938-6.589844 14.398438-10.1875l1.5625-1.476563-.894532-1.953125c-2.992187-6.539062-7.476562-12.859375-13.332031-18.792968l-1.613281-1.632813-1.996094 1.128906c-5.292968 2.992188-10.761718 6.328125-14.304687 11.277344-3.667969 5.121094-5.089844 13.058594-.707031 18.316406zm0 0"/><path d="m277.605469 264.996094-.996094-4.128906-3.554687 2.316406c-16.996094 11.070312-32.558594 24.207031-46.261719 39.050781-1.355469 1.472656-2.242188 3.03125-2.429688 4.277344l-.496093 3.308593 3.339843.136719.183594.003907c.75 0 2.035156-.171876 3.886719-.980469 17.847656-7.765625 34.449218-18.085938 49.339844-30.679688l1.800781-1.523437-1.054688-2.109375c-.066406-.128907-.136719-.253907-.234375-.425781-1.542968-2.855469-2.730468-5.964844-3.523437-9.246094zm0 0"/><path d="m210.082031 125.707031c1.667969 1.324219 3.9375 2.050781 6.394531 2.050781 1.636719 0 3.351563-.324218 4.953126-.933593 3.660156-1.386719 6.699218-3.980469 9.75-6.75 17.246093-15.707031 32.226562-33.714844 44.527343-53.523438l2.609375-4.199219-4.929687-.375c-3.148438-.238281-6.335938-.363281-9.46875-.363281-7.367188 0-14.6875.667969-21.757813 1.984375 0 0-.351562.023438-.476562.035156l-1.996094.203126-.574219 1.921874c-1.910156 6.402344-4.914062 12.242188-8.929687 17.363282-2.660156 3.398437-5.84375 6.585937-9.464844 9.46875l-.464844.371094-.285156.519531c-1.507812 2.710937-3.578125 5.234375-5.585938 7.683593l-.074218.089844c-1.398438 1.699219-2.714844 3.304688-3.914063 5.035156-4.328125 6.242188-5.625 15.210938-.3125 19.417969zm0 0"/><path d="m74.511719 130.605469c2.113281 1.046875 4.546875 1.578125 7.234375 1.578125 5.074218 0 10.234375-1.898438 13.675781-3.324219 16.375-6.804687 31.613281-17.136719 44.074219-29.886719l2.238281-2.289062-2.429687-2.082032c-2.75-2.359374-5.113282-4.957031-7.027344-7.71875-2.054688-2.972656-3.714844-6.335937-4.941406-10l-.738282-2.195312-2.308594.15625c-13.609374.921875-27.042968 4.023438-39.933593 9.222656l-1.3125.519532-.417969 1.375c-6.03125 5.9375-12.867188 12.667968-15.714844 21.335937-3.449218 10.535156 1.15625 20.125 7.601563 23.308594zm0 0"/></g><path d="m325.335938 294.8125c1.328124.078125 2.675781.117188 4.007812.117188 16.929688 0 32.65625-6.175782 43.144531-16.949219 12.351563-12.660157 16.628907-32.003907 10.402344-47.039063-6.3125-15.246094-26.546875-25.601562-42.382813-27.609375-1.335937-.167969-2.730468-.253906-4.152343-.253906-16.671875 0-35.464844 11.378906-44.679688 22.082031-11.589843 13.457032-14.542969 33.296875-7.023437 47.179688 8.289062 15.292968 26.449218 21.636718 40.683594 22.472656zm0 0" fill="#ed6d66"/><path d="m177.101562 103.390625c1.027344 0 2.058594-.027344 3.0625-.078125 18.949219-.917969 36.472657-9.394531 46.878907-22.664062 11.355469-14.484376 13.613281-34.976563 5.492187-49.828126-8.230468-15.058593-30.3125-23.507812-46.914062-23.8125l-.527344-.003906c-17.65625 0-38.035156 14.246094-47.535156 28.019532-10.652344 15.46875-11.46875 35.855468-1.988282 49.589843 8.117188 11.757813 23.644532 18.777344 41.53125 18.777344zm0 0" fill="#ed6d66"/><path d="m504.242188 361.234375c-.242188-.460937-.558594-.851563-.910157-1.203125 5.519531-10.589844 6.503907-23.925781 2.515625-36.738281-3.671875-11.792969-11.351562-23.171875-22.824218-33.816407-24.324219-22.566406-58.273438-34.875-91.421876-33.308593 1.964844-9.480469 1.332032-19.285157-2.242187-27.90625-1.820313-4.398438-4.550781-8.421875-7.898437-12.023438 5.773437-23.339843 2.425781-46.65625-9.300782-64.273437-.3125-.476563-.707031-.859375-1.136718-1.1875 2.644531-6.703125 3.589843-14.199219 2.832031-21.816406-.003907-.105469-.019531-.210938-.035157-.316407-.566406-5.382812-1.972656-10.816406-4.253906-16.070312-5.09375-11.738281-14.269531-22.601563-27.277344-32.292969-27.667968-20.605469-64.144531-29.515625-98.226562-24.117188 1.019531-10.050781-.714844-20.164062-5.382812-28.703124-9.605469-17.566407-33.898438-27.105469-52.929688-27.4531255-20.894531-.4257815-43.386719 15.7148435-53.953125 31.0468755-7.65625 11.113281-10.847656 24.507812-9.46875 36.917968-40.09375 3.171875-77.878906 24.34375-101.441406 56.980469-6.527344 9.039063-10.375 16.914063-12.113281 24.777344-1.527344 6.921875-1.265626 13.789062.628906 19.851562-13.746094 20.554688-12.316406 51.269531 3.613281 75.074219 12.261719 18.320312 32.203125 33.394531 60.964844 46.082031 27.027343 11.921875 55.765625 19.769531 85.519531 23.394531-1.3125 2.464844-2.378906 4.914063-3.210938 7.382813-2.179687 6.46875-2.648437 13.066406-1.476562 19.074219-15.28125 18.316406-17.078125 47.90625-4.277344 72.375 9.859375 18.839844 27.410156 35.359375 53.660156 50.496094 44.527344 25.679687 95.332032 39.085937 146.464844 39.085937 14.046875 0 28.125-1.011719 42.09375-3.058594 40.03125-5.871093 71.023438-19.742187 92.117188-41.234375 12.296875-12.53125 21.179687-28.816406 25.007812-45.851562 4.140625-18.414063 2.191406-36.109375-5.636718-51.167969zm-11.894532-2.34375c-6.875 9.636719-20.222656 15.417969-35.707031 15.46875h-.230469c-11.550781 0-22.808594-2.6875-34.722656-5.53125-2.777344-.664063-5.550781-1.324219-8.328125-1.949219-14.355469-3.238281-31.179687-5.929687-47.117187-1.40625-8.957032 2.546875-16.917969 7.148438-24.613282 11.601563-2.5625 1.484375-5.210937 3.015625-7.816406 4.421875-12.21875 6.585937-21.832031 8.894531-30.253906 7.253906-9.597656-1.867188-17.324219-8.800781-25.5-16.136719-7.539063-6.765625-15.332032-13.761719-25.253906-17.324219-12.882813-4.632812-26.242188-2.484374-39.164063-.410156-3.226563.519532-6.5625 1.054688-9.769531 1.457032-6.683594.839843-29.101563 2.472656-37.085938-11.667969-3.035156-5.375-3.417968-12.835938-1.019531-19.957031 2.035156-6.035157 5.894531-12.082032 12.152344-19.03125 11.207031-12.441407 25.191406-22.769532 40.613281-29.6875-11.5 9.675781-21.871094 21.113281-27.25 34.453124-2.09375 5.199219-3.027344 9.582032-2.933594 13.789063.128906 5.785156 2.382813 11.078125 6.191406 14.523437 3.582032 3.242188 8.339844 4.871094 14.203126 4.871094 3.042968 0 6.390624-.441406 10.023437-1.320312 15.476563-3.742188 30.917969-11.277344 48.601563-23.707032 9.035156-6.347656 20.085937-14.957031 27.914062-26.410156 6.453125 4.09375 13.589844 6.902344 20.992188 8.449219-10.277344 7.167969-21.15625 16.5625-26.980469 28.027344-4.386719 8.636719-4.957031 16.996093-1.601563 23.539062 3.214844 6.265625 9.921875 10.621094 18.882813 12.257813 2.984375.546875 5.972656.78125 8.921875.78125 10.710937 0 20.847656-3.113282 28.121094-5.726563 14.574218-5.246093 26.332031-11.644531 35.9375-19.570312 8.371093-6.902344 15.351562-15.210938 22.101562-23.246094 7.628906-9.074219 14.832031-17.644531 23.820312-24.300781 6.871094-5.082032 14.851563-9.019532 22.566407-12.824219.488281-.238281.894531-.5625 1.261719-.917969 4.644531 2.421875 9.136718 5.109375 13.476562 8.0625-6.660156 3.574219-12.175781 8.039063-17.929688 12.707032-1.9375 1.570312-3.9375 3.195312-6 4.789062-10.324218 8-16.566406 16.769531-18.554687 26.054688-1.46875 6.851562.238281 13.246093 4.933594 18.496093 6.765625 7.570313 17.820312 10.734375 26.457031 10.734375 1.097656 0 2.15625-.050781 3.164062-.152344 16.332032-1.617187 31.945313-11.707031 43.136719-22.476562 1.421875 7.257812-1.519531 16.238281-5.640625 22.015625zm-221.078125-90.027344c1.066407-.597656 1.8125-1.535156 2.214844-2.59375.4375-.148437.84375-.332031 1.207031-.570312.667969 2.777343 1.347656 5.199219 2.285156 7.464843-13.976562 12.539063-29.625 23.03125-46.542968 31.191407 1.09375-1.789063 2.5-3.5625 4.183594-5.527344 10.378906-12.121094 22.710937-22.203125 36.652343-29.964844zm-44.246093 23.457031c-2.65625 3.101563-5.351563 6.535157-7.105469 10.644532-.605469 1.414062-1.339844 3.578125-.78125 6.015625.839843 3.664062 4.40625 6.363281 8.484375 6.414062h.125c2.796875 0 5.121094-1.113281 6.664062-1.855469 17.46875-8.382812 33.65625-19.132812 48.160156-31.960937 1.488282 1.613281 3.050782 3.15625 4.699219 4.605469-6.9375 10.324218-17.234375 18.316406-25.652343 24.234375-16.625 11.6875-30.988282 18.730469-45.203126 22.171875-7.21875 1.746094-12.324218 1.328125-15.167968-1.246094-1.75-1.585938-2.835938-4.328125-2.902344-7.332031-.0625-2.808594.640625-5.929688 2.210938-9.828125 7.980468-19.796875 30.429687-36.148438 46.628906-46.726563.222656-.035156.441406-.078125.664062-.109375 2.730469-.410156 5.480469-.695312 8.234375-.890625-10.800781 7.253907-20.542969 15.917969-29.058593 25.863281zm248.84375 4.507813c-9.964844 2.71875-19.019532 8.582031-25.503907 16.671875-4.625 5.777344-5.464843 11.863281-2.242187 16.285156 2.046875 2.8125 5.433594 4.417969 9.800781 4.648438.433594.019531.863281.03125 1.292969.03125 4.625 0 8.949218-1.265625 12.617187-2.539063 5.546875-1.921875 10.964844-4.332031 16.109375-7.167969 1.976563-1.089843 4.0625-2.363281 5.976563-3.945312.464843 1.527344.875 3.066406 1.261719 4.613281-9.628907 10.554688-25.429688 22.398438-41.3125 23.972657-7.679688.761718-16.785157-2.375-21.183594-7.296876-2.546875-2.851562-3.402344-6.035156-2.609375-9.734374 1.480469-6.917969 6.496093-13.730469 14.902343-20.246094 2.148438-1.660156 4.195313-3.320313 6.175782-4.929688 6.882812-5.582031 12.890625-10.417968 20.710937-13.722656 1.351563 1.09375 2.6875 2.210938 4.003907 3.359375zm13.648437 14.207031c-1.402344 2.011719-3.886719 3.578125-6.402344 4.964844-4.648437 2.5625-9.542969 4.742188-14.554687 6.476562-3.097656 1.074219-6.722656 2.140626-10.113282 1.96875-1.5-.078124-2.15625-.457031-2.230468-.523437-.125-.425781.332031-2.136719 1.957031-4.167969 6.292969-7.855468 15.632813-13.082031 25.625-14.335937.175781-.019531.339844-.074219.507813-.117188 1.578124 1.785157 3.707031 3.75 5.210937 5.734375zm-51.503906-37.636718c-6.308594 3.1875-12.632813 6.636718-18.484375 10.964843-9.9375 7.351563-17.863282 16.785157-25.527344 25.902344-6.757812 8.046875-13.144531 15.644531-20.808594 21.964844-8.707031 7.183593-19.488281 13.027343-32.960937 17.875-13.183594 4.742187-23.011719 6.140625-31.859375 4.519531-2.722656-.496094-9.3125-2.171875-11.78125-6.984375-2.59375-5.058594.265625-11.785156 1.617187-14.445313 6.804688-13.390624 22.683594-24.097656 34.035157-30.984374.078124-.046876.136718-.109376.210937-.15625 1.433594-.046876 2.863281-.136719 4.292969-.265626-4.015625 3.554688-7.546875 7.167969-10.554688 10.820313-5.128906 6.226563-5.917968 12.875-2.050781 17.351563 1.816406 2.101562 4.480469 3.398437 7.917969 3.847656 1.011718.132812 2.011718.195312 3 .195312 7.097656 0 13.492187-3.164062 17.882812-5.691406 13-7.484375 23.726563-18.066406 34.097656-28.300781 11.578126-11.429688 22.519532-22.222657 36.253907-28.929688.972656-.476562 1.710937-1.230469 2.191406-2.113281.566406.148438 1.128906.292969 1.703125.476562 3.679688 1.175782 7.285156 2.496094 10.824219 3.953126zm-49.097657-7.046876c6.46875-.484374 12.675782-.132812 19.054688.527344.71875.074219 1.433594.136719 2.140625.195313-11.226563 7.207031-20.789063 16.632812-30.097656 25.816406-10.378907 10.238281-20.179688 19.910156-32.0625 26.757813-5.945313 3.421874-10.582031 4.769531-14.589844 4.246093-1.195313-.15625-1.601563-.441406-1.625-.417969-.113281-.5.410156-2.367187 2.175781-4.511718 5.925782-7.191406 14.191406-14.308594 24.574219-21.148438 1-.65625 1.664063-1.617187 1.996094-2.675781 6.273437-3.085937 12.0625-7.171875 17.027343-12.265625 4.691407-4.8125 8.359376-10.476562 10.917969-16.535156.164063.003906.320313.023437.488281.011718zm-18.570312 9.539063c-10.71875 10.996094-27.480469 16.945313-44.835938 15.925781-13.429687-.789062-30.523437-6.699218-38.222656-20.914062-6.949218-12.824219-4.148437-31.238282 6.660156-43.785156 9.953126-11.558594 30.449219-22.800782 46.1875-20.804688 14.996094 1.898438 34.105469 11.574219 39.988282 25.777344 5.78125 13.957031 1.761718 31.96875-9.777344 43.800781zm-36.972656-188.304687c1.417968 1.039062 2.839844 2.074218 4.246094 3.136718-3.992188 2.40625-6.820313 6.085938-8.769532 8.992188-1.878906 2.804687-4.15625 6.601562-5.097656 11.105468-1.066406 5.121094-.101562 10.191407 2.65625 13.910157 3.378906 4.558593 8.671875 6.351562 13.875 6.351562 2.890625 0 5.753906-.550781 8.242188-1.492187 4.308593-1.625 7.902343-4.128906 11.378906-6.550782.617187-.433593 1.21875-.84375 1.820312-1.253906.679688 2.660156 1.242188 5.285156 1.609375 7.882813-3.117187 4.339843-8.058593 6.769531-11.707031 8.035156-5.191406 1.800781-10.992188 2.507813-16.605469 3.191406-8.683593 1.058594-17.617187 1.695313-23.09375-3.027343-6.398437-5.519532-5.488281-16.527344-4.800781-21 .765625-4.988282 1.957031-8.742188 3.753906-11.8125 3.992188-6.835938 11.40625-11.089844 19.257813-15.597657 1.066406-.609375 2.148437-1.238281 3.234375-1.871093zm19.816406 16.933593c1.941406 2.472657 3.582031 4.996094 4.953125 7.652344-1.355469.875-2.679687 1.773437-3.953125 2.660156-3.109375 2.167969-6.050781 4.214844-9.195312 5.402344-3.585938 1.355469-8.503907 1.304687-10.550782-1.457031-1.042968-1.40625-1.378906-3.617188-.898437-5.914063.585937-2.8125 2.238281-5.53125 3.613281-7.582031 2.769531-4.132812 5.246094-6.324219 7.789062-6.898438.585938-.132812 1.109376-.375 1.585938-.679687 2.40625 2.046875 4.746094 4.382813 6.65625 6.816406zm-60.289062-35.808593c-5.0625 13.640624-14.328126 25.875-23.308594 37.722656-1.578125 2.082031-3.15625 4.160156-4.707032 6.246094l-.230468.3125c-12.4375 16.6875-24.183594 32.445312-42.550782 38.824218-8.265624 2.867188-15.601562 3.558594-21.800781 2.054688-7.019531-1.703125-12.609375-6.558594-14.242187-12.363282-1.894532-6.734374 1.25-14.390624 4.199218-20.304687 2.347657-4.703125 5.003907-9.304687 7.890626-13.695313 1.953124-.519531 3.878906-1.09375 5.761718-1.730468.613282-.203125 1.230469-.433594 1.847656-.671875-.425781.960937-.828124 1.929687-1.183593 2.917969-1.605469 4.4375-2.097657 8.140624-1.542969 11.660156.808594 5.15625 4.039062 9.410156 8.433594 11.109375 1.53125.589843 3.050781.835937 4.527344.835937 5.773437 0 10.832031-3.78125 13.007812-5.414062 23.484375-17.582032 40.863281-37.699219 51.726562-59.800782 2.691407.40625 5.371094.886719 8.03125 1.433594 1.382813.285156 2.761719.570313 4.140626.863282zm-50.910157-2.09375c.203125-.015626.410157-.015626.613281-.054688 9.082032-1.695312 18.328126-2.015625 27.519532-1.34375-10.246094 19.421875-26.0625 37.230469-47.113282 52.992188-3.695312 2.765624-6.367187 3.859374-7.941406 3.253906-1.007812-.390625-1.917968-1.792969-2.160156-3.332032-.28125-1.789062.058594-3.917968 1.066406-6.707031 1.957032-5.398437 5.230469-10.296875 9.472656-14.167969 1.253907-1.144531 1.785157-2.78125 1.582032-4.34375 2.839844-2.542968 5.402344-5.242187 7.523437-7.945312 4.320313-5.507812 7.480469-11.789062 9.4375-18.351562zm-101.953125-29.886719c9.015625-13.085938 28.996094-26.988281 45.53125-26.722657 15.75.285157 36.644532 8.183594 44.339844 22.253907 7.5625 13.832031 5.417969 32.96875-5.222656 46.53125-9.878906 12.59375-26.574219 20.640625-44.667969 21.527343-14.007813.691407-32.386719-3.527343-41.972656-17.414062-8.789063-12.730469-7.96875-31.71875 1.992187-46.175781zm-88.722656 71.667969c.226562-.589844.320312-1.195313.320312-1.792969 5.640626-4.65625 11.644532-8.796875 17.964844-12.390625-2.839844 4.675781-5.679687 10.109375-6.394531 16.378906-.9375 8.230469 2.613281 16.207031 8.835937 19.84375 3.699219 2.164062 7.796876 2.636719 11.328126 2.636719.765624 0 1.507812-.023438 2.210937-.054688 15.285156-.703125 30.058594-6.628906 41.59375-16.679687 5.703125-4.96875 10.378906-10.71875 14.28125-15.992188 4.726563 3.324219 9.980469 5.738282 15.550781 7.363282-13.894531 23.015624-38.582031 39.949218-66.769531 45.601562-7.390625 1.484375-13.332031 1.863281-18.699219 1.191406-4.425781-.554687-10.742187-2.164062-15.707031-6.703125-4.621094-4.222656-7.609375-10.8125-8.199219-18.078125-.523437-6.449218.714844-13.621094 3.683594-21.324218zm73.175781-30.5625c1.277344 3.824218 3.046875 7.453124 5.324219 10.753906 1.273438 1.84375 2.644531 3.550781 4.097656 5.132812-3.675781 5.011719-8.0625 10.507813-13.304687 15.078125-9.84375 8.574219-22.445313 13.628907-35.488281 14.230469-2.5625.117188-5.789063.082031-8.03125-1.226562-3.28125-1.917969-4.34375-6.570313-3.945313-10.082032.550781-4.863281 3.304687-9.609375 5.839844-13.679687 2.410156-3.867188 4.992187-7.695313 7.679687-11.378907.15625-.21875.277344-.449218.394532-.683593 11.78125-4.480469 24.351562-7.253907 37.433593-8.144531zm-105.949219 74.050781c1.433594-6.488281 4.753907-13.183594 10.453126-21.078125 2.839843-3.933594 5.867187-7.675782 9.0625-11.214844-.53125 3.769531-.679688 7.425781-.390626 10.941406.792969 9.753906 4.953126 18.738282 11.417969 24.644532 5.46875 5 12.804688 8.195312 21.214844 9.246093 2.117187.265625 4.289063.398438 6.550781.398438 4.640625 0 9.65625-.566407 15.355469-1.707031 32.136719-6.445313 60.1875-26.355469 75.140625-53.300782 3.15625.390625 6.363281.578125 9.589844.578125 1.183594 0 2.375-.027343 3.574218-.085937 1.46875-.070313 2.953126-.203125 4.433594-.359375-1.269531 2.234375-2.488281 4.496093-3.632812 6.789062-3.753906 7.523438-7.699219 17.445313-4.878906 27.476563 2.597656 9.226562 11.039062 16.832031 21.511718 19.371094 2.898438.703124 5.945313 1.054687 9.125 1.054687 5.695313 0 11.824219-1.128906 18.3125-3.378906 21.269532-7.382813 34.496094-25.132813 47.289063-42.296875l.230469-.3125c1.539062-2.0625 3.097656-4.117188 4.65625-6.179688 9.660156-12.742187 19.625-25.910156 25.105468-41.390625 2.308594.664063 4.589844 1.40625 6.824219 2.296875 4.992187 1.988282 10.070313 4.832032 14.824219 7.890625-8.375 4.8125-16.902344 9.902344-22.066406 18.738281-2.449219 4.195313-4.039063 9.066407-5.003907 15.335938-1.167969 7.605469-1.664062 21.625 8.15625 30.09375 5.613281 4.84375 12.628907 6.195312 19.734375 6.195312 3.742188 0 7.503906-.375 11.101563-.8125 6.128906-.75 12.472656-1.523437 18.667969-3.671874 2.933593-1.019532 5.609374-2.300782 8.019531-3.804688-.613281 2.515625-1.574219 5.019531-2.976563 7.511719-6.050781 10.773437-19.242187 18.269531-35.289062 20.054687-12.023438 1.339844-24.03125-.1875-36.742188-1.804687-2.945312-.375-5.890625-.75-8.832031-1.085938-15.15625-1.734375-32.800781-2.640625-48.710937 3.796875-8.945313 3.617188-16.640626 9.253906-24.082032 14.703125-2.480468 1.816407-5.046875 3.695313-7.582031 5.441407-11.917969 8.191406-21.628906 11.660156-30.558594 10.902343-10.175781-.863281-18.941406-7.171875-28.230469-13.851562-8.523437-6.136719-17.335937-12.476563-27.941406-15.042969-13.773437-3.332031-27.308594.371094-40.394531 3.953125-3.277344.894531-6.664063 1.824219-9.933594 2.597656-6.835937 1.617188-29.902343 5.824219-39.796875-7.988281-3.820312-5.328125-5.027344-12.855469-3.308594-20.644531zm59.476563 129.703125c-27.34375-12.0625-45.359375-25.566406-56.6875-42.496094-12.511719-18.695312-14.820313-42.089844-6.386719-59.160156 9.511719 11.515625 27.632813 15.382812 49.011719 10.320312 3.4375-.816406 6.910156-1.765625 10.269531-2.683594 12.410156-3.394531 24.132813-6.605468 35.402344-3.878906 8.703125 2.105469 16.351562 7.609375 24.453125 13.4375 9.976563 7.179688 20.296875 14.605469 33.226563 15.703125 1.078124.089844 2.152343.132813 3.214843.132813 13.617188 0 25.722657-7.171875 33.851563-12.761719 2.660156-1.828125 5.289062-3.75 7.828125-5.613281 7.265625-5.320313 14.128906-10.347656 21.921875-13.5 13.832031-5.597656 29.914062-4.722656 43.824218-3.132813 2.898438.332031 5.800782.703125 8.703126 1.074219 12.738281 1.617188 25.902343 3.292969 39.113281 1.824219 8.789062-.980469 17.203125-3.539063 24.332031-7.398438 6.410156-3.472656 11.605469-7.867187 15.527344-13.078125 7.9375 13.609375 10.464844 30.769532 7.214844 48.367188-9.496094-6.734375-21.125-11.046875-31.445313-12.355469-20.019531-2.542969-43.289063 10.578125-55.023437 24.199219-8.460938 9.828125-12.914063 22.28125-12.925782 34.285156-38.695312-1.039062-77.027344 15.320312-102.957031 44.113281-1.773437 1.972657-3.386719 3.890625-4.84375 5.777344-30.539063-3.214844-60.007813-10.996094-87.625-23.175781zm399.714844 169.660156c-19.527344 19.898438-48.605469 32.796875-86.425781 38.339844-13.5 1.980468-27.085938 2.957031-40.65625 2.957031-49.378907 0-98.453126-12.953125-141.457032-37.75-24.894531-14.359375-40.71875-29.121094-49.792968-46.46875-9.960938-19.03125-9.804688-41.457031-.148438-56.859375 8.019531 11.902344 24.941406 17.417969 45.863281 14.789062 3.378907-.421874 6.804688-.972656 10.113281-1.503906 12.207032-1.964844 23.738282-3.816406 34.199219-.058594 8.078125 2.90625 14.816407 8.953126 21.953125 15.359376 8.828125 7.921874 17.957032 16.113281 30.269532 18.511718 2.441406.476563 4.867187.6875 7.253906.6875 11.511718 0 22.171875-4.921875 29.660156-8.957031 2.734375-1.476563 5.449219-3.046875 8.074219-4.566406 7.496093-4.335938 14.578125-8.429688 22.339843-10.636719 13.777344-3.914062 29.054688-1.417969 42.183594 1.539062 2.734375.617188 5.46875 1.269532 8.207032 1.921876 11.957031 2.855468 24.316406 5.804687 37.046874 5.804687h.257813c16.375-.050781 30.972656-5.695313 40.214844-15.328125 12.597656 28.347656.269531 62.429688-19.15625 82.21875zm0 0"/></svg>