<svg xmlns="http://www.w3.org/2000/svg" id="svg-icon" viewBox="0 0 512 512"><g fill="#cdd6e0"><path d="M150.4 66.133c6.4-19.2 0-39.467-17.067-51.2C144 32 138.667 48 133.333 65.067c-6.4 19.2 0 39.467 17.067 51.2-10.667-17.067-5.333-34.134 0-50.134zM284.8 66.133c6.4-19.2 0-39.467-17.067-51.2C278.4 32 273.067 48 267.733 65.067c-6.4 19.2 0 39.467 17.067 51.2-11.733-17.067-6.4-34.134 0-50.134zM217.6 51.2C224 32 216.533 11.733 200.533 0c10.667 17.067 5.333 33.067 0 50.133-6.4 19.2 0 39.467 17.067 51.2-11.733-17.066-6.4-34.133 0-50.133z"/></g><path d="M445.867 174.933h-124.8v222.933h124.8c23.467 0 42.667-19.2 42.667-42.667V217.6c-.001-23.467-19.201-42.667-42.667-42.667zm-82.134 181.334V217.6h82.133v137.6h-82.133v1.067z" fill="#f8b64c"/><g fill="#231f20"><path opacity=".15" d="M394.667 174.933H406.4V217.6h-11.733zM394.667 356.267H406.4v42.667h-11.733z"/></g><path fill="#ffd15c" d="M23.467 124.8v330.667L66.133 512H352l42.667-56.533V124.8z"/><path fill="#f8b64c" d="M352 512H66.133l-42.666-56.533h371.2z"/><path fill="#ff7058" d="M156.8 256h-18.133V124.8h-22.4V256H98.133l-19.2 28.8v60.8H176v-60.8z"/></svg>
