<svg viewBox="0 0 501.27 501.27" xmlns="http://www.w3.org/2000/svg"><g><path d="m85.745 348.123c10.932-10.933 50.683-39.757 68.934-44.953l15.818-5.395-13.553-27.695-24.867-10.725-15.895 5.318c-22.884 6.29-64.646 36.568-77.678 49.6-46.86 46.86-51.609 118.097-10.607 159.099l28.52-14.377 13.906-28.049c-18.612-18.61-11.71-55.692 15.422-82.823z" fill="#b06a53"/><path d="m236.596 385.089 5.318-15.896-10.725-24.867-27.695-13.553-5.395 15.818c-5.196 18.251-34.021 58.002-44.953 68.934-27.131 27.132-64.213 34.032-82.824 15.422l-42.426 42.426c41.002 41.003 112.238 36.254 159.099-10.606 13.033-13.032 43.311-54.794 49.601-77.678z" fill="#964c4c"/><path d="m191.42 121.952c-30.626-9.047-65.152-1.508-89.277 22.617l-21.214-21.213c39.782-39.782 100.777-45.739 146.912-17.87l-11.808 15.606z" fill="#b06a53"/><path d="m309.85 379.319c30.626 9.047 65.152 1.508 89.277-22.617l21.213 21.213c-39.646 39.646-100.361 45.697-146.439 18.154l14.709-17.22z" fill="#964c4c"/><path d="m314.275 38.503c-13.032 13.032-43.311 54.793-49.6 77.678l-5.318 15.896 13.288 27.429 25.132 10.99 5.395-15.818c5.196-18.252 34.021-58.003 44.953-68.934 27.131-27.132 64.213-34.032 82.824-15.421l27.931-13.789 14.495-28.638c-41.004-41.002-112.24-36.253-159.1 10.607z" fill="#b06a53"/><path d="m473.373 27.896-42.426 42.427c18.61 18.611 11.71 55.692-15.422 82.824-10.932 10.932-50.683 39.756-68.934 44.953l-15.818 5.395 13.553 27.695 24.867 10.724 15.895-5.317c22.885-6.29 64.646-36.569 77.679-49.601 46.86-46.86 51.609-118.097 10.606-159.1z" fill="#964c4c"/><path d="m240.029 112.749c-11.716-11.716-30.711-11.716-42.427 0-11.716 11.716-11.716 30.71 0 42.426l33.588 47.73 40.658 26.516 25.928-11.785 16.499-30.641z" fill="#964c4c"/><path d="m388.521 261.242-74.246-74.246-42.427 42.426 32.527 46.669 41.719 27.577c11.716 11.716 30.711 11.716 42.427 0 11.716-11.715 11.716-30.711 0-42.426z" fill="#743534"/><path d="m197.602 155.176c-11.716-11.716-30.711-11.716-42.426 0-11.716 11.716-11.716 30.711 0 42.426l30.052 44.194 44.194 30.052 25.455-11.314 16.971-31.113z" fill="#b06a53"/><path d="m346.094 303.668-74.246-74.247-42.426 42.426 30.052 44.194 44.194 30.052c11.716 11.716 30.711 11.716 42.426 0 11.716-11.714 11.716-30.709 0-42.425z" fill="#964c4c"/><path d="m155.176 197.602c-11.716-11.715-30.711-11.715-42.427 0-11.716 11.716-11.716 30.711 0 42.427l74.246 74.246 28.284-14.142 14.143-28.284z" fill="#964c4c"/><path d="m303.668 346.094-74.246-74.246-42.427 42.427 74.246 74.246c11.716 11.716 30.711 11.716 42.427 0 11.716-11.716 11.716-30.711 0-42.427z" fill="#743534"/></g></svg>