<svg viewBox="0 0 512 512" height="512" width="512" xmlns="http://www.w3.org/2000/svg" id="svg-icon"><path d="M504.5 110.817H173.167a7.5 7.5 0 010-15H504.5a7.5 7.5 0 010 15zM504.5 140.817H247.045a7.5 7.5 0 010-15H504.5a7.5 7.5 0 010 15zM504.5 80.817H173.167a7.5 7.5 0 010-15H504.5a7.5 7.5 0 010 15z"/><path d="M165.667 68.304c0-22.788 18.539-41.328 41.327-41.328h263.679c22.788 0 41.327 18.54 41.327 41.328v70.027c0 22.788-18.539 41.328-41.327 41.328H206.994c-22.788 0-41.327-18.54-41.327-41.328z" fill="#808b95"/><path d="M512 103.317a7.5 7.5 0 01-7.5 7.5H173.167a7.5 7.5 0 010-15H504.5a7.5 7.5 0 017.5 7.5zm-338.833-22.5H504.5a7.5 7.5 0 000-15h-57.604l26.038-26.038a7.5 7.5 0 000-10.606 7.5 7.5 0 00-10.606 0l-36.645 36.644h-22.62l26.038-26.038a7.5 7.5 0 000-10.606 7.5 7.5 0 00-10.606 0l-36.644 36.644h-22.62l26.038-26.038a7.5 7.5 0 000-10.606 7.5 7.5 0 00-10.606 0l-36.644 36.644h-22.62l26.038-26.038a7.5 7.5 0 000-10.606 7.5 7.5 0 00-10.606 0l-36.644 36.644h-22.62l26.038-26.038a7.5 7.5 0 000-10.606 7.5 7.5 0 00-10.606 0l-36.645 36.644h-22.62L253.77 39.78a7.5 7.5 0 000-10.606 7.5 7.5 0 00-10.606 0l-36.645 36.644h-33.352a7.5 7.5 0 000 14.999zm331.333 45H173.167a7.5 7.5 0 000 15h33.352l36.645 36.644a7.5 7.5 0 0010.606 0 7.5 7.5 0 000-10.606l-26.038-26.038h22.62l36.645 36.644a7.5 7.5 0 0010.606 0 7.5 7.5 0 000-10.606l-26.038-26.038h22.62l36.644 36.644a7.5 7.5 0 0010.606 0 7.5 7.5 0 000-10.606l-26.038-26.038h22.62l36.644 36.644a7.5 7.5 0 0010.606 0 7.5 7.5 0 000-10.606l-26.038-26.038h22.62l36.644 36.644a7.5 7.5 0 0010.606 0 7.5 7.5 0 000-10.606l-26.038-26.038h22.62l36.645 36.644a7.5 7.5 0 0010.606 0 7.5 7.5 0 000-10.606l-26.038-26.038H504.5a7.5 7.5 0 000-15z" fill="#5e6b75"/><path d="M470.673 26.976h-4.613A41.077 41.077 0 01472 48.304v70.027c0 22.788-18.539 41.328-41.327 41.328H171.606c7.245 11.977 20.397 20 35.387 20h263.679c22.788 0 41.327-18.54 41.327-41.328V68.304c.001-22.788-18.538-41.328-41.326-41.328z" fill="#5e6b75"/><g fill="#4d5961"><path d="M330.829 177.461a7.5 7.5 0 0010.606 0 7.5 7.5 0 000-10.606l-7.196-7.196h-21.213zM374.662 177.461a7.5 7.5 0 0010.606 0 7.5 7.5 0 000-10.606l-7.196-7.196h-21.213zM418.495 177.461a7.5 7.5 0 0010.606 0 7.5 7.5 0 000-10.606l-7.196-7.196h-21.213zM472.934 29.173a7.49 7.49 0 00-6.785-2.049 41.054 41.054 0 015.258 14.183l1.527-1.527a7.5 7.5 0 000-10.607zM456.584 150.505a41.272 41.272 0 01-13.854 7.359l19.597 19.597a7.5 7.5 0 0010.606 0 7.5 7.5 0 000-10.606zM504.5 95.817H472v15h32.5a7.5 7.5 0 000-15zM504.5 125.817h-33.18a41.102 41.102 0 01-5.987 15H504.5a7.5 7.5 0 000-15zM504.5 65.817H472v15h32.5a7.5 7.5 0 000-15zM243.163 177.461a7.5 7.5 0 0010.606 0 7.5 7.5 0 000-10.606l-7.196-7.196H225.36zM286.996 177.461a7.5 7.5 0 0010.606 0 7.5 7.5 0 000-10.606l-7.196-7.196h-21.213z"/></g><path d="M504.5 263.5H173.167a7.5 7.5 0 010-15H504.5a7.5 7.5 0 010 15zM504.5 293.5H247.045a7.5 7.5 0 010-15H504.5a7.5 7.5 0 010 15zM504.5 233.5H173.167a7.5 7.5 0 010-15H504.5a7.5 7.5 0 010 15z"/><path d="M165.667 220.986c0-22.788 18.539-41.328 41.327-41.328h263.679c22.788 0 41.327 18.54 41.327 41.328v70.027c0 22.788-18.539 41.328-41.327 41.328H206.994c-22.788 0-41.327-18.54-41.327-41.328z" fill="#808b95"/><path d="M512 256a7.5 7.5 0 01-7.5 7.5H173.167a7.5 7.5 0 010-15H504.5a7.5 7.5 0 017.5 7.5zm-338.833-22.5H504.5a7.5 7.5 0 000-15h-57.604l26.038-26.038a7.5 7.5 0 000-10.606 7.5 7.5 0 00-10.606 0L425.683 218.5h-22.62l26.038-26.038a7.5 7.5 0 000-10.606 7.5 7.5 0 00-10.606 0L381.851 218.5h-22.62l26.038-26.038a7.5 7.5 0 000-10.606 7.5 7.5 0 00-10.606 0L338.018 218.5h-22.62l26.038-26.038a7.5 7.5 0 000-10.606 7.5 7.5 0 00-10.606 0L294.185 218.5h-22.62l26.038-26.038a7.5 7.5 0 000-10.606 7.5 7.5 0 00-10.606 0L250.352 218.5h-22.62l26.038-26.038a7.5 7.5 0 000-10.606 7.5 7.5 0 00-10.606 0L206.519 218.5h-33.352a7.5 7.5 0 000 15zm331.333 45H173.167a7.5 7.5 0 000 15h33.352l36.645 36.644a7.5 7.5 0 0010.606 0 7.5 7.5 0 000-10.606L227.732 293.5h22.62l36.645 36.644a7.5 7.5 0 0010.606 0 7.5 7.5 0 000-10.606L271.565 293.5h22.62l36.644 36.644a7.5 7.5 0 0010.606 0 7.5 7.5 0 000-10.606L315.397 293.5h22.62l36.644 36.644a7.5 7.5 0 0010.606 0 7.5 7.5 0 000-10.606L359.23 293.5h22.62l36.644 36.644a7.5 7.5 0 0010.606 0 7.5 7.5 0 000-10.606L403.063 293.5h22.62l36.645 36.644a7.5 7.5 0 0010.606 0 7.5 7.5 0 000-10.606L446.896 293.5H504.5a7.5 7.5 0 000-15z" fill="#5e6b75"/><path d="M470.673 179.659h-4.613a41.077 41.077 0 015.94 21.328v70.027c0 22.788-18.539 41.328-41.327 41.328H171.606c7.245 11.977 20.397 20 35.387 20h263.679c22.788 0 41.327-18.54 41.327-41.328v-70.027c.001-22.789-18.538-41.328-41.326-41.328z" fill="#5e6b75"/><path d="M330.829 330.144a7.5 7.5 0 0010.606 0 7.5 7.5 0 000-10.606l-7.196-7.196h-21.213zM374.662 330.144a7.5 7.5 0 0010.606 0 7.5 7.5 0 000-10.606l-7.196-7.196h-21.213zM418.495 330.144a7.5 7.5 0 0010.606 0 7.5 7.5 0 000-10.606l-7.196-7.196h-21.213zM472.934 181.856a7.49 7.49 0 00-6.785-2.049 41.054 41.054 0 015.258 14.183l1.527-1.527a7.5 7.5 0 000-10.607zM456.584 303.188a41.272 41.272 0 01-13.854 7.359l19.597 19.597a7.5 7.5 0 0010.606 0 7.5 7.5 0 000-10.606zM504.5 248.5H472v15h32.5a7.5 7.5 0 000-15zM504.5 278.5h-33.18a41.102 41.102 0 01-5.987 15H504.5a7.5 7.5 0 000-15zM504.5 218.5H472v15h32.5a7.5 7.5 0 000-15zM243.163 330.144a7.5 7.5 0 0010.606 0 7.5 7.5 0 000-10.606l-7.196-7.196H225.36zM286.996 330.144a7.5 7.5 0 0010.606 0 7.5 7.5 0 000-10.606l-7.196-7.196h-21.213z" fill="#4d5961"/><path d="M504.5 416.183H173.167a7.5 7.5 0 010-15H504.5a7.5 7.5 0 010 15zM504.5 446.183H247.045a7.5 7.5 0 010-15H504.5a7.5 7.5 0 010 15zM504.5 386.183H173.167a7.5 7.5 0 010-15H504.5a7.5 7.5 0 010 15z"/><path d="M165.667 373.669c0-22.788 18.539-41.328 41.327-41.328h263.679c22.788 0 41.327 18.54 41.327 41.328v70.027c0 22.788-18.539 41.328-41.327 41.328H206.994c-22.788 0-41.327-18.54-41.327-41.328z" fill="#808b95"/><path d="M512 408.683a7.5 7.5 0 01-7.5 7.5H173.167a7.5 7.5 0 010-15H504.5a7.5 7.5 0 017.5 7.5zm-338.833-22.5H504.5a7.5 7.5 0 000-15h-57.604l26.038-26.038a7.5 7.5 0 000-10.606 7.5 7.5 0 00-10.606 0l-36.645 36.644h-22.62l26.038-26.038a7.5 7.5 0 000-10.606 7.5 7.5 0 00-10.606 0l-36.644 36.644h-22.62l26.038-26.038a7.5 7.5 0 000-10.606 7.5 7.5 0 00-10.606 0l-36.644 36.644h-22.62l26.038-26.038a7.5 7.5 0 000-10.606 7.5 7.5 0 00-10.606 0l-36.644 36.644h-22.62l26.038-26.038a7.5 7.5 0 000-10.606 7.5 7.5 0 00-10.606 0l-36.645 36.644h-22.62l26.038-26.038a7.5 7.5 0 000-10.606 7.5 7.5 0 00-10.606 0l-36.645 36.644h-33.352a7.5 7.5 0 00-.002 15zm331.333 45H173.167a7.5 7.5 0 000 15h33.352l36.645 36.644a7.5 7.5 0 0010.606 0 7.5 7.5 0 000-10.606l-26.038-26.038h22.62l36.645 36.644a7.5 7.5 0 0010.606 0 7.5 7.5 0 000-10.606l-26.038-26.038h22.62l36.644 36.644a7.5 7.5 0 0010.606 0 7.5 7.5 0 000-10.606l-26.038-26.038h22.62l36.644 36.644a7.5 7.5 0 0010.606 0 7.5 7.5 0 000-10.606l-26.038-26.038h22.62l36.644 36.644a7.5 7.5 0 0010.606 0 7.5 7.5 0 000-10.606l-26.038-26.038h22.62l36.645 36.644a7.5 7.5 0 0010.606 0 7.5 7.5 0 000-10.606l-26.038-26.038H504.5a7.5 7.5 0 000-15z" fill="#5e6b75"/><path d="M470.673 332.341h-4.613a41.077 41.077 0 015.94 21.328v70.027c0 22.788-18.539 41.328-41.327 41.328H171.606c7.245 11.977 20.397 20 35.387 20h263.679c22.788 0 41.327-18.54 41.327-41.328v-70.027c.001-22.788-18.538-41.328-41.326-41.328z" fill="#5e6b75"/><path d="M330.829 482.827a7.5 7.5 0 0010.606 0 7.5 7.5 0 000-10.606l-7.196-7.196h-21.213zM374.662 482.827a7.5 7.5 0 0010.606 0 7.5 7.5 0 000-10.606l-7.196-7.196h-21.213zM418.495 482.827a7.5 7.5 0 0010.606 0 7.5 7.5 0 000-10.606l-7.196-7.196h-21.213zM472.934 334.539a7.49 7.49 0 00-6.785-2.049 41.054 41.054 0 015.258 14.183l1.527-1.527a7.5 7.5 0 000-10.607zM456.584 455.87a41.272 41.272 0 01-13.854 7.359l19.597 19.597a7.5 7.5 0 0010.606 0 7.5 7.5 0 000-10.606zM504.5 401.183H472v15h32.5a7.5 7.5 0 000-15zM504.5 431.183h-33.18a41.102 41.102 0 01-5.987 15H504.5a7.5 7.5 0 000-15zM504.5 371.183H472v15h32.5a7.5 7.5 0 000-15zM243.163 482.827a7.5 7.5 0 0010.606 0 7.5 7.5 0 000-10.606l-7.196-7.196H225.36zM286.996 482.827a7.5 7.5 0 0010.606 0 7.5 7.5 0 000-10.606l-7.196-7.196h-21.213z" fill="#4d5961"/><path d="M173.167 427.375c-63.697 0-115.518-51.821-115.518-115.518s51.821-115.518 115.518-115.518 115.518 51.821 115.518 115.518-51.822 115.518-115.518 115.518zm0-216.036c-55.426 0-100.518 45.092-100.518 100.518s45.092 100.518 100.518 100.518 100.518-45.092 100.518-100.518-45.093-100.518-100.518-100.518z"/><path d="M173.167 332.772c-11.532 0-20.915-9.382-20.915-20.915 0-11.532 9.382-20.915 20.915-20.915s20.915 9.382 20.915 20.915-9.383 20.915-20.915 20.915zm0-26.83c-3.261 0-5.915 2.653-5.915 5.915s2.653 5.915 5.915 5.915 5.915-2.653 5.915-5.915a5.922 5.922 0 00-5.915-5.915zM147.776 287.836c-3.351 0-6.707-.866-9.71-2.601l-33.112-19.117a7.5 7.5 0 01-2.072-11.222c14.157-17.438 34.084-28.958 56.111-32.439a7.5 7.5 0 018.67 7.408v38.281c0 6.958-3.727 13.399-9.725 16.808l-.408.236a19.233 19.233 0 01-9.754 2.646zm-27.257-30.051l25.047 14.46c1.365.788 3.037.792 4.363.013l.597-.345c1.319-.75 2.137-2.192 2.137-3.767v-28.971c-12.072 3.408-23.109 9.797-32.144 18.61zM198.56 287.836c-3.383 0-6.76-.884-9.762-2.65l-.402-.232c-5.998-3.408-9.725-9.849-9.725-16.807v-38.281a7.5 7.5 0 018.67-7.408c22.028 3.481 41.956 15.001 56.112 32.439a7.503 7.503 0 01-2.072 11.222l-33.112 19.117a19.427 19.427 0 01-9.709 2.6zm-4.889-48.661v28.971c0 1.574.819 3.018 2.137 3.767l.591.341c1.332.783 3.004.78 4.37-.009l25.046-14.46c-9.036-8.812-20.072-15.202-32.144-18.61zM95.672 349.082a7.502 7.502 0 01-6.999-4.806 89.914 89.914 0 01-6.024-32.419 89.918 89.918 0 016.024-32.419 7.5 7.5 0 0110.749-3.801l33.134 19.13c5.994 3.46 9.709 9.988 9.696 17.035l-7.5.055h7.5v.07c.014 7.033-3.702 13.561-9.696 17.021l-33.134 19.129a7.496 7.496 0 01-3.75 1.005zm4.304-55.806c-1.546 6.057-2.327 12.276-2.327 18.581s.78 12.524 2.327 18.581l25.081-14.48c1.378-.796 2.199-2.297 2.196-4.017V311.788c.003-1.733-.817-3.235-2.196-4.031zM250.661 349.082a7.493 7.493 0 01-3.75-1.005l-33.133-19.129c-5.994-3.46-9.709-9.988-9.696-17.035v-.104c-.013-7.055 3.702-13.583 9.696-17.043l33.134-19.13a7.498 7.498 0 0110.749 3.801 89.918 89.918 0 016.024 32.419 89.91 89.91 0 01-6.024 32.419 7.498 7.498 0 01-4.5 4.376 7.454 7.454 0 01-2.5.431zm-4.303-55.806l-25.081 14.48c-1.378.796-2.199 2.297-2.196 4.017v.197c-.003 1.689.818 3.191 2.196 3.987l25.081 14.48a74.985 74.985 0 002.327-18.581c0-6.303-.781-12.523-2.327-18.58zM160.162 401.349c-.389 0-.78-.03-1.17-.092-22.027-3.48-41.955-15-56.111-32.438a7.503 7.503 0 012.072-11.222l33.112-19.117c6.035-3.484 13.496-3.465 19.469.049l.397.229c6.004 3.412 9.73 9.853 9.73 16.811v38.281a7.5 7.5 0 01-7.499 7.499zm-39.643-35.419c9.036 8.812 20.072 15.201 32.143 18.609v-28.971c0-1.574-.819-3.018-2.137-3.767a35.68 35.68 0 01-.604-.35c-1.318-.775-2.99-.771-4.355.018zm21.296-20.956h.01zM186.171 401.349a7.5 7.5 0 01-7.5-7.5v-38.281c0-6.958 3.727-13.398 9.726-16.808l.394-.228c5.983-3.52 13.443-3.538 19.478-.054l33.112 19.117a7.5 7.5 0 012.072 11.222c-14.156 17.438-34.083 28.958-56.111 32.438-.39.063-.782.094-1.171.094zm12.388-50.474c-.75 0-1.495.194-2.155.582-.194.115-.397.232-.601.348-1.313.747-2.132 2.189-2.132 3.764v28.971c12.072-3.408 23.108-9.797 32.143-18.609l-25.046-14.46a4.405 4.405 0 00-2.209-.596z"/><circle cx="173.167" cy="311.857" fill="#808b95" transform="rotate(-45 173.123 311.912)" r="173.167"/><path d="M229.722 148.173c46.18 31.134 76.612 83.922 76.612 143.684 0 95.484-77.683 173.167-173.167 173.167-19.795 0-38.824-3.339-56.555-9.482 27.603 18.609 60.833 29.482 96.555 29.482 95.484 0 173.167-77.683 173.167-173.167-.001-75.69-48.813-140.193-116.612-163.684z" fill="#5e6b75"/><circle cx="173.167" cy="311.857" fill="#f6f9f9" r="108.018"/><path d="M200.289 207.289c24.901 19.805 40.896 50.353 40.896 84.569 0 59.562-48.457 108.018-108.018 108.018-9.364 0-18.452-1.199-27.122-3.45 18.446 14.671 41.777 23.45 67.122 23.45 59.562 0 108.018-48.457 108.018-108.018 0-50.199-34.419-92.507-80.896-104.569z" fill="#e7ecf1"/><circle cx="173.167" cy="311.857" fill="#707dd3" r="13.415"/><path d="M160.162 268.146v-38.281c-20.669 3.266-38.818 14.187-51.459 29.758l33.112 19.117c3.689 2.13 8.245 2.142 11.917-.018.166-.097.332-.194.499-.289 3.688-2.096 5.931-6.045 5.931-10.287zM204.518 278.74l33.112-19.117c-12.641-15.571-30.79-26.492-51.459-29.758v38.281c0 4.242 2.243 8.191 5.931 10.287.167.095.334.191.499.289 3.672 2.16 8.228 2.148 11.917.018zM134.752 311.857v-.07c.008-4.33-2.196-8.361-5.946-10.526l-33.134-19.13c-3.555 9.236-5.524 19.252-5.524 29.725s1.969 20.489 5.524 29.725l33.133-19.13c3.75-2.165 5.954-6.196 5.946-10.526l.001-.068zM250.661 282.132l-33.134 19.13c-3.75 2.165-5.954 6.196-5.946 10.526v.14c-.008 4.33 2.196 8.361 5.946 10.526l33.133 19.13c3.555-9.236 5.524-19.252 5.524-29.725s-1.968-20.491-5.523-29.727zM141.815 344.974l-33.112 19.117c12.641 15.571 30.791 26.492 51.459 29.758v-38.281c0-4.242-2.243-8.191-5.931-10.287a30.804 30.804 0 01-.499-.289c-3.672-2.16-8.228-2.148-11.917-.018zM186.171 355.568v38.281c20.669-3.266 38.818-14.187 51.459-29.757l-33.112-19.117c-3.689-2.13-8.245-2.142-11.916.018-.166.097-.332.194-.499.289-3.689 2.095-5.932 6.044-5.932 10.286z" fill="#5e6b75"/><path d="M173.167 453.844a7.5 7.5 0 010-15c33.919 0 65.809-13.209 89.793-37.193 23.985-23.985 37.193-55.874 37.193-89.793s-13.208-65.809-37.193-89.793a7.5 7.5 0 010-10.606 7.5 7.5 0 0110.606 0c26.818 26.817 41.587 62.474 41.587 100.399 0 37.926-14.769 73.582-41.587 100.4-26.817 26.817-62.473 41.586-100.399 41.586z" fill="#5e6b75"/><path d="M273.566 412.257c26.818-26.818 41.587-62.474 41.587-100.4 0-21.512-4.752-42.293-13.759-61.145a172.982 172.982 0 014.939 41.145c0 71.339-43.363 132.741-105.115 159.233 27.234-5.428 52.269-18.753 72.348-38.833z" fill="#4d5961"/><path d="M78.07 414.454a7.474 7.474 0 01-5.303-2.197c-26.818-26.818-41.587-62.474-41.587-100.4s14.769-73.582 41.587-100.399c26.817-26.818 62.473-41.587 100.399-41.587a7.5 7.5 0 010 15c-33.919 0-65.809 13.209-89.793 37.194-23.985 23.984-37.193 55.874-37.193 89.793s13.208 65.809 37.193 89.793a7.5 7.5 0 01-5.303 12.803z" fill="#5e6b75"/></svg>
