<svg viewBox="0 0 512 512" xmlns="http://www.w3.org/2000/svg" data-name="Layer 1"><path d="m382.62 407.785-251.225-.01-.4.275v72.83a4.254 4.254 0 0 0 4.34 4.12h243.335a4.245 4.245 0 0 0 4.33-4.12v-72.83z" fill="#c79a83"/><path d="m161 480.88v-72.83l.393-.274h-30l-.4.275v72.83a4.254 4.254 0 0 0 4.34 4.12h30a4.254 4.254 0 0 1 -4.333-4.121z" fill="#9b7364"/><path d="m457.41 249.59c-34.6 21.37-111.99 36.24-201.91 36.24s-167.3-14.87-201.91-36.23c26.21-24.03 106.69-41.52 201.91-41.52s175.69 17.49 201.91 41.51z" fill="#fb6771"/><path d="m476.73 224.49c0 8.95-6.91 17.44-19.32 25.1-26.22-24.02-106.7-41.51-201.91-41.51s-175.7 17.49-201.91 41.52c-12.02-7.41-18.87-15.61-19.31-24.24-.01-.29-.02-.58-.02-.87 0-33.87 99.05-61.33 221.24-61.33s221.23 27.46 221.23 61.33z" fill="#e2c281"/><path d="m53.59 249.6c34.61 21.36 111.99 36.23 201.91 36.23s167.31-14.87 201.91-36.24c12.41-7.66 19.32-16.15 19.32-25.1-.12 74.84-37.05 144.27-94.17 184.11-.98.68-1.97 1.36-2.97 2.03a220.445 220.445 0 0 1 -245.15 0c-1-.67-1.99-1.35-2.98-2.04-56-39.09-95.46-110.33-97.18-183.23.44 8.63 7.29 16.83 19.31 24.24z" fill="#f9d586"/><path d="m161.46 408.59c-47.906-33.44-83.684-90.412-94.109-151.82a118 118 0 0 1 -13.761-7.17c-12.02-7.41-18.87-15.61-19.31-24.24 1.72 72.9 41.18 144.14 97.18 183.23.99.69 1.98 1.37 2.98 2.04a219.3 219.3 0 0 0 122.56 37.22q7.565 0 15-.513a219.11 219.11 0 0 1 -107.56-36.707c-1-.67-1.99-1.35-2.98-2.04z" fill="#ccab71"/><g fill="#284268"><path d="m161.179 386.434a191.915 191.915 0 0 1 -64.855-73.877 6 6 0 0 0 -10.747 5.343 203.938 203.938 0 0 0 68.917 78.5 6 6 0 1 0 6.685-9.965z"/><path d="m87.428 291.611c-.936-2.627-1.827-5.315-2.648-7.988a6 6 0 0 0 -11.471 3.524c.873 2.841 1.82 5.7 2.815 8.491a6 6 0 1 0 11.3-4.027z"/><path d="m243.434 133.1a6 6 0 0 0 12 0c0-6.633 2.571-9.638 6.129-13.8 4.016-4.693 9.012-10.532 9.012-21.6s-5-16.906-9.012-21.6c-3.558-4.16-6.129-7.165-6.129-13.8s2.571-9.637 6.129-13.8c4.015-4.693 9.012-10.533 9.012-21.6a6 6 0 0 0 -12 0c0 6.631-2.571 9.636-6.129 13.8-4.015 4.692-9.012 10.532-9.012 21.6s5 16.905 9.011 21.6c3.559 4.159 6.13 7.165 6.13 13.8s-2.571 9.638-6.13 13.8c-4.014 4.7-9.011 10.536-9.011 21.6z"/><path d="m329.171 133.1a6 6 0 0 0 12 0c0-7.254 2.617-10.5 6.238-14.979 3.967-4.912 8.9-11.024 8.9-22.518s-4.936-17.607-8.9-22.519c-3.621-4.484-6.238-7.725-6.238-14.979a6 6 0 1 0 -12 0c0 11.495 4.936 17.607 8.9 22.519 3.621 4.484 6.238 7.725 6.238 14.979s-2.617 10.494-6.238 14.978c-3.964 4.913-8.9 11.025-8.9 22.519z"/><path d="m157.7 133.1a6 6 0 0 0 12 0c0-7.254 2.617-10.5 6.239-14.979 3.966-4.912 8.9-11.024 8.9-22.518s-4.939-17.603-8.903-22.518c-3.622-4.485-6.236-7.725-6.236-14.979a6 6 0 1 0 -12 0c0 11.495 4.937 17.607 8.9 22.519 3.622 4.484 6.238 7.725 6.238 14.979s-2.616 10.494-6.238 14.979c-3.966 4.911-8.9 11.023-8.9 22.517z"/><path d="m413.671 175.343c-42.293-11.725-98.486-18.183-158.107-18.183s-115.78 6.458-158.073 18.183c-45.267 12.55-69.212 29.74-69.212 49.346 0 .039-.012.311-.012.311.722 37 10.921 74.7 29.62 109.021 17.121 31.435 40.113 57.932 67.113 77.422v69.432a10.262 10.262 0 0 0 10.338 10.125h243.334a10.253 10.253 0 0 0 10.328-10.125v-69.414c58-41.878 93.8-112.461 93.928-186.461h.072v-.506c0-19.605-24.062-36.601-69.329-49.151zm-36.671 303.657h-240v-59.486a226.86 226.86 0 0 0 240 .01zm-.754-73.355a214.413 214.413 0 0 1 -238.467 0c-27.875-18.7-51.836-45.517-69.292-77.559a231.9 231.9 0 0 1 -26.279-79.175c11.531 9.408 30.088 17.759 55.25 24.735 42.293 11.725 98.419 18.182 158.04 18.182s115.746-6.457 158.039-18.182c25.58-7.092 44.341-15.6 55.825-25.2-7.051 63.721-41.388 122.479-93.116 157.199zm-311.788-156.879c31.288-20.678 107.055-34.687 191.04-34.687 84.012 0 159.883 14.041 191.125 34.75-9.594 4.765-21.781 9.267-36.158 13.253-41.278 11.444-96.333 17.746-154.9 17.746s-113.588-6.3-154.867-17.746c-14.441-4.003-26.65-8.527-36.24-13.316zm406.542-24.266c0 5.85-4.58 11.9-13.026 17.743-31.025-24.15-111.042-40.163-202.476-40.163-91.372 0-171.256 15.969-202.365 40.076-8.258-5.759-12.757-11.719-12.844-17.488 0-.069-.015-.139-.016-.208.04-13.041 22.6-27.076 60.391-37.552 41.278-11.446 96.266-17.748 154.836-17.748s113.689 6.3 154.967 17.747c37.817 10.484 60.533 24.535 60.533 37.585z"/></g></svg>