<svg viewBox="0 0 512 512" xmlns="http://www.w3.org/2000/svg"><g><g id="Signal_Tower_2_"><g><path d="m406 180c-8.291 0-15-6.709-15-15 0-74.443-60.557-135-135-135s-135 60.557-135 135c0 8.291-6.709 15-15 15s-15-6.709-15-15c0-90.981 74.033-165 165-165s165 74.019 165 165c0 8.291-6.709 15-15 15z" fill="#9ef"/></g><g><path d="m346 180c-8.291 0-15-6.709-15-15 0-41.353-33.633-75-75-75s-75 33.647-75 75c0 8.291-6.709 15-15 15s-15-6.709-15-15c0-57.891 47.109-105 105-105s105 47.109 105 105c0 8.291-6.709 15-15 15z" fill="#9ef"/></g><path d="m389.916 491.427c-1.387-3.467-126.055-317.131-120-301.993-.022-.051-.066-.082-.088-.132-1.71-4.182-6.734-9.288-13.843-9.269-7.163.022-12.122 5.131-13.813 9.271-.022.049-.066.081-.088.13-3.533 8.833-128.784 323.952-120 301.993-3.076 7.69.645 16.421 8.35 19.497 7.569 3.052 16.38-.589 19.482-8.364l8.225-22.56h195.718l8.225 22.559c3.1 7.768 11.908 11.418 19.482 8.364 7.705-3.076 11.426-11.806 8.35-19.496zm-159.774-191.427h20.416l-30.623 25.512zm25.858-64.644 13.857 34.644h-27.715zm49.856 124.644h-80.42l60.319-50.257zm-111.713 30h70.323l-87.905 43.953zm17.414 60 108.582-54.293 21.719 54.293z" fill="#475259"/></g><path d="m391 165c0 8.291 6.709 15 15 15s15-6.709 15-15c0-90.981-74.033-165-165-165v30c74.443 0 135 60.557 135 135z" fill="#80d5ff"/><path d="m331 165c0 8.291 6.709 15 15 15s15-6.709 15-15c0-57.891-47.109-105-105-105v30c41.367 0 75 33.647 75 75z" fill="#80d5ff"/><path d="m269.916 189.434c-.022-.051-.066-.082-.088-.132-1.707-4.178-6.731-9.28-13.828-9.267v55.322l13.857 34.643h-13.857v64.534l29.755-24.791 20.101 50.257h-49.856v30h8.467l-8.467 4.233v33.545l64.138-32.071 21.72 54.293h-85.858v30h97.859l8.225 22.559c3.098 7.767 11.909 11.418 19.482 8.364 7.705-3.076 11.426-11.807 8.35-19.497-1.384-3.468-126.057-317.132-120-301.992z" fill="#333a40"/><g><path d="m256 210c-24.814 0-45-20.186-45-45s20.186-45 45-45 45 20.186 45 45-20.186 45-45 45z" fill="#66b3ff"/></g><path d="m301 165c0-24.814-20.186-45-45-45v90c24.814 0 45-20.186 45-45z" fill="#4d88ff"/></g></svg>