<svg xmlns="http://www.w3.org/2000/svg" viewBox="0 0 450.13 457.48"><path d="M235.71,275c.54-.92-.3-.85-.75-1-13.23-4-20.52-13-22.22-26.61,4-3.94,8.07-7.85,12-11.83q35.76-35.83,71.5-71.7c1.08,6.64,6.12,9.87,11.25,13,1.74,1,1.78,1.65.31,3.1-14.26,14.14-28.42,28.39-42.67,42.53-1.41,1.4-1.45,2.14-.14,3.69A29.69,29.69,0,0,1,251,273.76c-.61.19-2-.31-1.69,1.21Z" style="fill:#fdb79a"/><path d="M377.6,7.88c-.54.92.3.85.75,1,13.28,4,20.5,13,22.23,26.64-.65.56-1.34,1.09-1.95,1.7q-39.45,39.44-78.91,78.88c-.9.91-1.63,2.08-3,2.4-1-5.27-4.33-8.62-8.85-11.08a52.57,52.57,0,0,1-4.42-3.06,20.59,20.59,0,0,0,2.5-1.81q21.22-21.18,42.43-42.37c1.09-1.09,1.4-1.69.22-3.08-14.24-16.75-7-41.55,14-48.09.51-.16,2,.47,1.45-1.12Z" style="fill:#fdcebb"/><path d="M316.71,118.49c1.38-.32,2.11-1.49,3-2.4q39.46-39.42,78.91-78.88c.61-.61,1.3-1.14,1.95-1.7,15.13.84,27.35,13.87,27.53,29.34.17,15.12-11.74,28.37-26.6,29.71a28.85,28.85,0,0,1-22.42-7c-1.5-1.3-2.14-1.11-3.43.18Q351,112.47,326.34,137.13c-.67.67-1.19,1.5-2.17,2.74C321.52,132.26,319.11,125.37,316.71,118.49Z" style="fill:#fdb79a"/><path d="M296.28,163.84q-35.75,35.85-71.5,71.7c-4,4-8,7.89-12,11.83a29.67,29.67,0,0,1-14-54.48c10-6.55,25.3-7.35,37.44,3.94l53.23-53.27C291.73,150.4,294,157.12,296.28,163.84Z" style="fill:#fdcdbb"/><path d="M226.35,52.66c.45.41.84.74,1.2,1.1q17.05,17,34.12,34.07c.93.93,1,1.5,0,2.45q-5,4.8-9.77,9.76c-1,1-1.56.85-2.48-.07q-17-17.09-34.06-34.12c-.57-.56-1.48-1-.42-2,3.54-3.46,7-7,10.52-10.48A8.68,8.68,0,0,1,226.35,52.66Z" style="fill:#fa6176"/><path d="M207.43,132.66c-6.34,0-12.68,0-19,0-1.61,0-2.1-.46-2.07-2.06.1-4.35.09-8.69,0-13,0-1.55.4-2.13,2-2.12q19,.09,38.06,0c1.36,0,2,.24,2,1.83-.1,4.52-.11,9,0,13.55,0,1.6-.62,1.83-2,1.81C220.12,132.62,213.78,132.66,207.43,132.66Z" style="fill:#fa6176"/><path d="M294.33,45.81c0,6.16-.06,12.32,0,18.49,0,1.82-.29,2.63-2.38,2.54-4.16-.18-8.33-.11-12.5,0-1.58,0-2.29-.27-2.28-2.1q.12-19,0-38c0-1.62.55-2.06,2.11-2,4.34.08,8.68.1,13,0,1.69,0,2,.64,2,2.14C294.3,33.13,294.33,39.47,294.33,45.81Z" style="fill:#fd6277"/><path d="M151.24,449.65c-11.65-8.8-23.1-17.67-32.76-28.88a188,188,0,0,1-33.3-56.86C75.05,337.14,70,309.23,68.51,280.83a364.33,364.33,0,0,1,1.95-65.2C73.1,195,77,174.67,83.79,155c2.4-6.88,1.65-13.33-1.76-19.69-2-3.79-4.07-7.59-5.91-11.5C61.06,91.88,59.31,58.67,66.25,24.62c1.69-8.27,4-16.42,6-24.62h46c-1.23,1.48.33,1.5,1,1.82,20,9,27.1,21.08,25,42.72-.15,1.48-.09,3-.13,4.46a89.22,89.22,0,0,0-2.93,21.8c0,5.73,3.65,8.21,9.45,7.32,5.58-.86,8.53-5.34,12.64-8.21,8.61,17.1,6.86,33.44-4.09,48.79-4.63,6.49-10,12.49-15.11,18.59-12.79,15.13-17.29,32.25-12.77,51.64,6.23,26.72,8.86,93.83,8.5,121.23-.06,4,.6,5,4.83,3.86,24.29-6.37,48.8-11.65,73.82-14.45a656.94,656.94,0,0,1,93.76-3.3c32.31,1,64.44,3.85,96.29,9.63,26.64,4.84,41.5,22.52,41.51,49.67,0,33.3,0,26.61,0,59.92,0,13.39-4.26,25.1-14.29,34.36Z" style="fill:#fedcce"/><path d="M72.3,0c-2,8.2-4.36,16.35-6,24.62-6.94,34.05-5.19,67.26,9.87,99.18C78,127.71,80,131.51,82,135.3c3.41,6.36,4.16,12.81,1.76,19.69C77,174.67,73.1,195,70.46,215.63a364.33,364.33,0,0,0-1.95,65.2c1.5,28.4,6.54,56.31,16.67,83.08a188,188,0,0,0,33.3,56.86c9.66,11.21,21.11,20.08,32.76,28.88l-19,.28c-15.49-.05-31-.14-46.47-.14-5.67,0-11.37.09-16.92-1.06-3.26-.67-5.56.26-8.19,2.08a38.38,38.38,0,0,1-45.21-1.43C2.06,439-4.28,420.7,3.16,405.69c4.72-9.52,4.46-17.61,1.49-26.71a12.48,12.48,0,0,1-.36-2.46c-4.08-33-4.52-66.11-3.36-99.26C1.3,266.63,2.4,256,3.79,245.44a511.48,511.48,0,0,1,21.45-92.67c.92-2.8.61-4.18-2.15-5.83C12.75,140.77,6.3,131.53,5.4,119.49,3.43,93.09,1.86,66.65.49,40.2c-.94-18,8.06-31.38,24.77-38.15.87-.35,3,.26,2.06-2Z" style="fill:#fdcabd"/><path d="M163.38,69.91c-4.11,2.87-7.06,7.35-12.64,8.21-5.8.89-9.44-1.59-9.45-7.32A89.22,89.22,0,0,1,144.22,49C151.94,54.75,159.76,60.41,163.38,69.91Z" style="fill:#fdcabd"/></svg>