<svg xmlns="http://www.w3.org/2000/svg" viewBox="0 0 450.13 457.48"><path d="M151.24,449.65c-11.65-8.8-23.1-17.67-32.76-28.88a188,188,0,0,1-33.3-56.86C75.05,337.14,70,309.23,68.51,280.83a364.33,364.33,0,0,1,1.95-65.2C73.1,195,77,174.67,83.79,155c2.4-6.88,1.65-13.33-1.76-19.69-2-3.79-4.07-7.59-5.91-11.5C61.06,91.88,59.31,58.67,66.25,24.62c1.69-8.27,4-16.42,6-24.62h46c-1.23,1.48.33,1.5,1,1.82,20,9,27.1,21.08,25,42.72-.15,1.48-.09,3-.13,4.46a89.22,89.22,0,0,0-2.93,21.8c0,5.73,3.65,8.21,9.45,7.32,5.58-.86,8.53-5.34,12.64-8.21,8.61,17.1,6.86,33.44-4.09,48.79-4.63,6.49-10,12.49-15.11,18.59-12.79,15.13-17.29,32.25-12.77,51.64,6.23,26.72,8.86,93.83,8.5,121.23-.06,4,.6,5,4.83,3.86,24.29-6.37,48.8-11.65,73.82-14.45a656.94,656.94,0,0,1,93.76-3.3c32.31,1,64.44,3.85,96.29,9.63,26.64,4.84,41.5,22.52,41.51,49.67,0,33.3,0,26.61,0,59.92,0,13.39-4.26,25.1-14.29,34.36Z" style="fill:#fedcce"/><path d="M72.3,0c-2,8.2-4.36,16.35-6,24.62-6.94,34.05-5.19,67.26,9.87,99.18C78,127.71,80,131.51,82,135.3c3.41,6.36,4.16,12.81,1.76,19.69C77,174.67,73.1,195,70.46,215.63a364.33,364.33,0,0,0-1.95,65.2c1.5,28.4,6.54,56.31,16.67,83.08a188,188,0,0,0,33.3,56.86c9.66,11.21,21.11,20.08,32.76,28.88l-19,.28c-15.49-.05-31-.14-46.47-.14-5.67,0-11.37.09-16.92-1.06-3.26-.67-5.56.26-8.19,2.08a38.38,38.38,0,0,1-45.21-1.43C2.06,439-4.28,420.7,3.16,405.69c4.72-9.52,4.46-17.61,1.49-26.71a12.48,12.48,0,0,1-.36-2.46c-4.08-33-4.52-66.11-3.36-99.26C1.3,266.63,2.4,256,3.79,245.44a511.48,511.48,0,0,1,21.45-92.67c.92-2.8.61-4.18-2.15-5.83C12.75,140.77,6.3,131.53,5.4,119.49,3.43,93.09,1.86,66.65.49,40.2c-.94-18,8.06-31.38,24.77-38.15.87-.35,3,.26,2.06-2Z" style="fill:#fdcabd"/><path d="M163.38,69.91c-4.11,2.87-7.06,7.35-12.64,8.21-5.8.89-9.44-1.59-9.45-7.32A89.22,89.22,0,0,1,144.22,49C151.94,54.75,159.76,60.41,163.38,69.91Z" style="fill:#fdcabd"/><path d="M382,161.93c-5.38,6.5-13.72,5.12-16-1.33a28.68,28.68,0,0,1-1.08-5.87c-5.85-45-47.06-78.87-92.3-75.95-1,.07-2,.2-3,.22-5.58.07-9.67-3.41-9.89-8.38-.21-4.76,3.28-8.63,8.61-9.18a102.89,102.89,0,0,1,30.32,1.67c44.23,8.61,79.48,47,84,91.54C382.94,157.7,383.1,160.66,382,161.93Z" style="fill:#bd392a"/><path d="M382.77,219.64c4.18-5,7.49-9,10.75-13,2.43-3,5.5-4.27,9.28-3.47s5.86,3.55,6.74,7.22c3.3,13.76,6.66,27.52,9.85,41.31,1.34,5.8-1.09,10-6.13,11.32s-9.51-1.54-11-7.4c-1.75-6.77-3.33-13.58-4.91-20.4-.67-2.86-1.69-3.44-3.7-.94-2.62,3.24-5.26,6.46-8,9.59-2.44,2.77-5.41,4.43-9.29,3.54-4.09-.94-6-3.82-7-7.65-3.21-13.45-6.5-26.87-9.63-40.34-1.42-6.07,1.36-11,6.49-12.07s9.12,1.92,10.65,8C378.81,203.06,380.62,210.78,382.77,219.64Z" style="fill:#bd392a"/><path d="M206.08,73.1c3.76-4.55,6.82-8.19,9.82-11.87,2.68-3.31,5.83-5.47,10.34-4.41,4.35,1,6,4.28,6.92,8.25,3.09,13.11,6.3,26.19,9.4,39.3,1.46,6.19-1,11-6,12.35-5.27,1.36-9.56-1.86-11.2-8.49-1.87-7.52-3.67-15-5.76-23.62-3.92,4.73-7.21,8.61-10.39,12.57-2.51,3.12-5.59,4.67-9.61,3.79s-6-3.82-6.89-7.66c-3.23-13.59-6.58-27.16-9.74-40.76-1.32-5.71,1.16-10.1,6.06-11.41,5.15-1.37,9.55,1.42,11,7.29C202.08,56.25,203.9,64.12,206.08,73.1Z" style="fill:#bd392a"/><path d="M303.35,174.13c-3.07,7.42-7.47,13.7-15.17,16.9-9.91,4.13-19.35,2.88-27.53-3.92s-11.11-15.83-8.87-26.35c.41-1.93,1-3.83,1.51-5.74,2.88-3.17,5-7.05,8.62-9.53,9-6.14,18.64-7.11,28.13-1.83,10,5.55,14.72,14.43,13.73,26.05C303.65,171.18,303.5,172.66,303.35,174.13Z" style="fill:#e44c3c"/><path d="M324.79,114.52a69.11,69.11,0,0,1,22.65,43.29c.87,6.69-1.73,10.88-7.07,11.77s-9.35-2.66-10.46-9.43c-4.77-29-26.65-47-55.92-46.05-6.44.21-10.71-3-11-8.21s3.63-8.92,10-9.46C291.05,94.88,312.31,102.3,324.79,114.52Z" style="fill:#bd392a"/></svg>