<svg xmlns="http://www.w3.org/2000/svg" viewBox="0 0 482.07 511.77"><path d="M453,0c-.76,2.27,1.29,1.65,2.19,2C472.4,8.54,482,22.15,482,40.63q.11,40.47,0,81c-.07,22.18-15.29,38.12-37.36,40.45-25.56,2.71-51.14,4-76.8,2.78-35.33-1.73-69.73-7.7-101.59-24.12a134.54,134.54,0,0,1-23.38-15.22c-2.07-1.68-4.2-3.51-7.14-1.65-3.12,2-2.41,4.77-1.59,7.55,6.34,21.55,9.66,43.52,8.93,66-1.36,42.23-16.57,78.45-47.83,107.23-7.74,7.12-9.9,14.68-8.69,24.86,4.07,34,7.77,68.14,10.59,102.32,1.37,16.59,2.54,33.2,3.8,49.8,1,13.15-3.59,23.11-16.22,28.51-.56.25-1.76.61-.63,1.66H46.17c-2.64-1.89-5.93-2.79-7.62-6.08-4.08-8-.25-17.21,9.56-20.63,11.92-4.15,24.1-7.51,36.14-11.3,9.45-3,19.79-4.33,26.73-12.42,9-10.5,19.23-19.79,28.85-29.69a14.37,14.37,0,0,0,4.24-9.84c.27-8.62.4-17.24.88-25.88,1-17.58-.23-35.21,1-52.84,1.22-18.06-.21-36.21,1-54.34,1.19-17.56-.19-35.21,1-52.84,1.2-18.23-.2-36.55,1-54.84,1.15-16.9.05-33.87.91-50.85,1-21.06,0-42.22,1.19-63.32.23-4,.21-7.94,1.08-11.87,4.69-21.16,16.05-37.16,35.46-47.41,7.48-3.95,15.54-5.5,23.5-7.62Z" style="fill:#feccbd"/><path d="M6.19,511.77c1.34-1.52-.38-1.74-1-2.35-7.13-6.52-6.83-15.25.77-21.28a32.77,32.77,0,0,1,11.14-5.33c14.23-4.32,28.45-8.7,42.72-12.89a31,31,0,0,0,15.35-9.65,227.71,227.71,0,0,1,23.16-23.43c6.81-6,9.51-13.16,9.58-22.4.26-37.46,1.17-74.92,1.88-112.38.42-21.65,1-43.29,1.35-64.93Q112.68,151,114.16,64.8c.5-28.26,21.52-54.62,49.94-62.66,1.2-.34,3.44.57,3-2.14h44c-8,2.12-16,3.67-23.5,7.62C168.18,17.87,156.82,33.87,152.13,55c-.87,3.93-.85,7.89-1.08,11.87-1.2,21.1-.14,42.26-1.19,63.32-.86,17,.24,33.95-.91,50.85-1.24,18.29.16,36.61-1,54.84-1.16,17.63.22,35.28-1,52.84-1.23,18.13.2,36.28-1,54.34-1.2,17.63,0,35.26-1,52.84-.48,8.64-.61,17.26-.88,25.88a14.37,14.37,0,0,1-4.24,9.84c-9.62,9.9-19.84,19.19-28.85,29.69-6.94,8.09-17.28,9.45-26.73,12.42-12,3.79-24.22,7.15-36.14,11.3-9.81,3.42-13.64,12.66-9.56,20.63,1.69,3.29,5,4.19,7.62,6.08Z" style="fill:#fab09e"/><path d="M330.4,418c-6.45-5.44-5-13.77,1.48-16a28.8,28.8,0,0,1,5.89-1c45-5.44,79.3-46.33,76.8-91.58-.05-1-.18-2-.18-3,0-5.59,3.49-9.64,8.47-9.81,4.76-.17,8.6,3.36,9.1,8.7a103.18,103.18,0,0,1-2,30.3c-9,44.15-47.75,79-92.32,83.15C334.62,419,331.66,419.16,330.4,418Z" style="fill:#bd392a"/><path d="M272.69,418.27c5,4.23,8.92,7.58,12.89,10.88,3,2.46,4.21,5.53,3.38,9.3s-3.61,5.84-7.28,6.68c-13.8,3.17-27.58,6.4-41.4,9.46-5.81,1.29-10-1.18-11.27-6.23s1.63-9.5,7.5-11c6.79-1.68,13.62-3.2,20.45-4.72,2.87-.63,3.46-1.65,1-3.69-3.22-2.65-6.41-5.32-9.52-8.09-2.75-2.47-4.37-5.45-3.45-9.32,1-4.08,3.87-6,7.72-6.89,13.47-3.09,26.93-6.25,40.42-9.26,6.09-1.36,11,1.47,12,6.6s-2,9.1-8.12,10.58C289.3,414.47,281.57,416.21,272.69,418.27Z" style="fill:#bd392a"/><path d="M420.88,243c4.51,3.81,8.12,6.9,11.78,9.94,3.28,2.71,5.41,5.88,4.31,10.38-1.06,4.34-4.34,5.94-8.31,6.84-13.14,3-26.25,6.06-39.39,9-6.2,1.41-11-1.07-12.29-6.12-1.31-5.29,1.95-9.55,8.59-11.13,7.54-1.79,15.09-3.53,23.68-5.53-4.7-4-8.55-7.29-12.48-10.51-3.1-2.54-4.62-5.64-3.7-9.64s3.88-5.95,7.73-6.82c13.62-3.11,27.21-6.32,40.85-9.36,5.72-1.27,10.09,1.25,11.35,6.17,1.32,5.16-1.52,9.53-7.4,11C437.76,239.12,429.88,240.87,420.88,243Z" style="fill:#bd392a"/><path d="M318.94,339.29c-7.39-3.14-13.63-7.6-16.76-15.33-4-9.95-2.69-19.38,4.19-27.5s15.92-10.95,26.42-8.62c1.93.43,3.82,1,5.73,1.56,3.14,2.91,7,5,9.45,8.71,6,9.09,6.93,18.71,1.57,28.15-5.64,9.92-14.58,14.58-26.18,13.49C321.88,339.61,320.41,339.44,318.94,339.29Z" style="fill:#e44c3c"/><path d="M378.35,361.28c-11.83,12.66-26.28,20.19-43.51,22.25-6.69.8-10.86-1.84-11.7-7.18S325.9,367,332.67,366c29-4.49,47.23-26.2,46.57-55.48-.14-6.44,3.09-10.68,8.32-10.94s8.88,3.72,9.36,10.07C398.3,327.73,390.69,348.92,378.35,361.28Z" style="fill:#bd392a"/></svg>