<svg xmlns="http://www.w3.org/2000/svg" viewBox="0 0 501.31 501.98"><path d="M63.51,171.93c-.84-16.88.15-33.55,5.15-49.84,8-26.07,26.65-39,52.63-43a97.51,97.51,0,0,1,17.42-.72c-.77,4.6,1.13,5.9,5.73,5.82,15.64-.28,31.31.25,46.94-.22,14-.41,26.3,2.22,36.09,13.19,3.14,3.52,5.34-1.33,7.72-2.59,2.72-1.44.33-3-.76-4.28C224.78,79.18,212.57,73.93,197.9,74c-15,.11-30,0-45,0-1.78,0-3.68.48-5.31-.76,18.54-12,37-24.05,55.65-35.92,2.57-1.64,3.54-3.34,3.47-6.36-.19-9.14.05-18.29-.14-27.44C206.56.68,207.47,0,210.23,0q40.41.15,80.83,0c3.39,0,3.68,1.26,3.64,4-.15,9,.08,18-.13,26.94-.07,3,.92,4.72,3.47,6.35,18.62,11.86,37.13,23.9,55.67,35.88-1.58,1.36-3.49.84-5.27.84-15.79,0-31.58-.18-47.36.08-14.05.24-25.59,6.17-34.76,16.76-.83,1-1.95,1.79-.74,3.39,2.85,3.76,7.12,4.27,10.32.94C283.36,87.47,292.5,84,303.16,84c17.95.07,35.9-.16,53.84.14,4.78.08,6.32-1.51,5.63-5.93,11.91-.46,23.58.8,34.77,5.15,23,8.94,34,27,38.21,50.25a164.23,164.23,0,0,1,2.2,38.28c-3.54-.3-5.88.58-5.28,4.87a10.92,10.92,0,0,1-.53,3.42,50.44,50.44,0,0,1-9.1,20.32c-3.35,4.5,1,6.28,3.28,8.34,2.74,2.44,3.49-.89,4.71-2.35,4.35-5.17,6.53-11.53,9.48-17.46q9.06,55.89,18.06,111.8a14.18,14.18,0,0,0,1.84,5.07c13.77,23.4,21.4,48.84,25.3,75.58,5.67,38.85,10.59,77.8,15.61,116.74.36,2.75.15,3.78-3,3.72-10-.19-20-.16-30,0-2.33,0-3.54-.87-4.76-2.71-34.43-52-57.25-108.48-66-170.5-1.87-13.31-5.34-26.38-8.08-39.56.93-10.32-.68-20.58-1-30.87-.43-14.26-.21-28.57-1.67-42.81-.23-2.24-.36-4.48,1.36-6.6,2.67-3.27-1.21-4.48-2.59-6.37-1.52-2.06-3.21-1.75-5,0-4.45,4.26-9.09,8.3-13.51,12.57-10.27,9.92-22.21,15.38-36.77,15-12.15-.34-24.32-.37-36.46,0a52.66,52.66,0,0,1-34.06-10.53c-2.81-2.07-4.16-4.06-4.12-7.69.19-18.82,0-37.64.17-56.45,0-4-.83-5.49-5.17-5.55-4.66-.06-5,2-5,5.73.14,18.82.08,37.64,0,56.46,0,1.92.62,4.08-1.37,5.53-9.11,6.67-18.72,12.25-30.44,12.35-15.48.14-31,.26-46.45-.05a43,43,0,0,1-21.79-6.21c-8.93-5.42-15.76-13.25-23.37-20.11-4.1-3.7-5.77-2.21-8.44.85-1.51,1.74-2.39,3-.33,5s1.47,4.79,1,7.12a59.92,59.92,0,0,0-.69,10.93c-.1,5.66.11,11.34-.25,17q-1.41,22.38-1.59,44.79C103,328,99.12,367.9,85.05,405.59c-12.27,32.85-27.43,64.09-46.9,93.25-1.43,2.16-2.8,3.2-5.53,3.14-9.65-.19-19.32-.15-29,0-2.8,0-4-.13-3.55-3.69,5.36-41.07,10.2-82.21,16.62-123.14,3.26-20.84,8.94-41,19.2-59.45,5.69-10.21,8-20.88,9.76-32,5-31.54,10.17-63,15.27-94.56,2.92,6.15,5.49,12.5,9.62,18,1,1.27,1.77,3.48,4.28,2.23,4.46-2.23,5.54-5.85,2.69-10-4.71-6.84-8.12-14.29-8.62-22.56C68.66,172.55,67,171.64,63.51,171.93Zm89.63,31.44c-2.7,1-2.84,4-4,6.13-1,1.81-.16,3.13,1.68,4,3.93,1.79,7.85,3.6,11.74,5.48,1.53.73,2.94,1.12,3.57-.92.78-2.51,4.48-5.41,1.62-7.49C163.51,207.46,158.27,205.79,153.14,203.37ZM337,219.75c5.16-2.49,10.55-4.26,14.84-7.49,2.56-1.93-1-5-1.92-7.51-.8-2.21-2.35-1.15-3.67-.53-3.78,1.73-7.52,3.52-11.3,5.24-1.73.79-2.93,1.91-2,3.85C334.08,215.57,334.5,218.35,337,219.75Z" style="fill:#fee9d2"/><path d="M348.47,445.81a116.88,116.88,0,0,1,14.31,50.87c.23,4-.6,5.28-4.95,5.26-53.94-.17-107.89-.11-161.83-.11-17.81,0-35.63-.09-53.44.08-3.33,0-4.17-.89-4-4.16a114.66,114.66,0,0,1,14.27-51.87,35.34,35.34,0,0,1,3.63,1.55c14.13,8.05,28.32,16,42.29,24.29,4.18,2.49,4.72-.78,6.31-2.82,1.93-2.48,1.62-4.32-1.29-6-14-7.91-28-15.92-41.93-23.92-2.25-1.3-4.32-1.81-6,.84-.72-35.76-1.67-71.52-2-107.28A107,107,0,0,0,148.33,299a462,462,0,0,1-16.55-63c15.88,14.91,35.41,16.66,56.22,15.14-3.72,1.91-2.5,4.18-1.47,6.49,3.95,8.81,7.53,17.79,11.9,26.38,2.35,4.63,2.12,8.69.66,13.34-4.39,14-4.8,28.22-.13,42.13,1.88,5.63,1.43,10.55.12,16-3.25,13.59-4.15,27.26.56,40.78,2.19,6.3,3.12,6.5,8.58,2.74,1.8-1.24,2.48-2.35,1.52-4.47a28.36,28.36,0,0,1-2-6.12c-2.55-12.88-.91-25.47,3-37.84a11,11,0,0,0-.19-8.17c-6.65-15.81-6.16-31.76-.1-47.59a10.45,10.45,0,0,0-.26-9c-4.72-10.1-9.08-20.36-13.78-30.46-1.71-3.68-.69-4.45,3-4.41,6.31.07,12.65.53,19-.32,10.53-1.42,19.68-5.95,27.81-12.6,2.95-2.41,5.17-2.77,8.49-.16,7.91,6.22,16.65,11,26.82,12.6,6.63,1.08,13.29.44,19.93.49,3.73,0,4.83.84,3.09,4.58-4.41,9.5-8.42,19.19-12.85,28.69a14.74,14.74,0,0,0-.37,12.39,59.42,59.42,0,0,1,3.95,25.87,63.34,63.34,0,0,1-5,21.23c-1.14,2.56-.15,4.86.54,7.26,4,13.92,6.65,28.07,1.13,42-2.48,6.26,2.39,6.42,5.08,7.91,3.85,2.13,3.75-2.27,4.43-4.05,4.55-12,4.31-24.47,1.69-36.83-1.64-7.76-3.34-15.05-.43-23.19,4.74-13.24,3.23-26.9-.82-40.12a17.51,17.51,0,0,1,1.09-13.4c3.94-8.44,7.53-17,11.43-25.5,1.14-2.46,1.84-4.58-2.05-7.06,9.8,0,18.17.61,26.41-.14,12.2-1.11,22.27-7.23,31-15.57a484.44,484.44,0,0,1-17.64,66.86,89.35,89.35,0,0,0-4.54,27.77c-.48,36.77-1.34,73.54-2.06,110.3-2-2.74-4-2.8-7-1.07-14.06,8.23-28.24,16.24-42.41,24.25-4.84,2.74.23,4.59.63,6.77s1.8,3.6,4.7,1.87c9.26-5.55,18.61-11,28.12-16.09C335.84,452.33,341.44,447.69,348.47,445.81Zm-102.8-70.53c0,6.67.2,13.34-.08,20-.17,3.83,1.22,4.84,4.88,4.78s5.38-.6,5.29-4.89c-.28-13.15,0-26.31-.18-39.47-.06-3.75,1.1-5,4.83-4.8,5.49.28,11-.1,16.49.13,3.83.16,3.87-2.08,3.76-4.78s.68-5.5-3.72-5.33c-5.82.23-11.65,0-17.48.09-2.74.06-3.86-.85-3.84-3.71.1-12.5.13-25,0-37.48,0-3.22,1.35-3.95,4.2-3.87,5,.15,10-.12,15,.1,3.84.17,6.1-.22,6-5.19-.07-4.68-2.14-5.07-5.8-4.92-4.82.21-9.67-.21-14.48.14-4.13.3-5.07-1.37-5-5.17.23-8.65-.11-17.32.14-26,.12-4.2-2.32-3.91-5.12-4s-5.13,0-5,4.07c.25,9,0,18,.13,27,.05,3.06-1,4.11-4.06,4-6-.16-12,.17-18-.11-4.13-.2-4.06,2.16-4,5s-.18,5.29,4,5.09c6-.28,12,.05,18-.11,3-.08,4.13.87,4.1,4-.14,12.32-.16,24.65,0,37,.05,3.47-1.4,4.23-4.47,4.12-5.16-.17-10.33,0-15.49-.07-3.49-.07-6.31-.38-6.29,4.91,0,5,2.22,5.33,6.05,5.17,5.16-.22,10.34.17,15.49-.13,3.87-.23,4.85,1.29,4.71,4.91C245.49,362.29,245.66,368.79,245.67,375.28Z" style="fill:#fee9d2"/><path d="M369.77,235c-8.77,8.34-18.84,14.46-31,15.57-8.24.75-16.61.14-26.41.14,3.89,2.48,3.19,4.6,2.05,7.06-3.9,8.46-7.49,17.06-11.43,25.5a17.51,17.51,0,0,0-1.09,13.4c4,13.22,5.56,26.88.82,40.12-2.91,8.14-1.21,15.43.43,23.19,2.62,12.36,2.86,24.78-1.69,36.83-.68,1.78-.58,6.18-4.43,4.05-2.69-1.49-7.56-1.65-5.08-7.91,5.52-14,2.84-28.11-1.13-42-.69-2.4-1.68-4.7-.54-7.26a63.34,63.34,0,0,0,5-21.23,59.42,59.42,0,0,0-3.95-25.87,14.74,14.74,0,0,1,.37-12.39c4.43-9.5,8.44-19.19,12.85-28.69,1.74-3.74.64-4.55-3.09-4.58-6.64-.05-13.3.59-19.93-.49-10.17-1.64-18.91-6.38-26.82-12.6-3.32-2.61-5.54-2.25-8.49.16-8.13,6.65-17.28,11.18-27.81,12.6-6.3.85-12.64.39-19,.32-3.74,0-4.76.73-3,4.41,4.7,10.1,9.06,20.36,13.78,30.46a10.45,10.45,0,0,1,.26,9c-6.06,15.83-6.55,31.78.1,47.59a11,11,0,0,1,.19,8.17c-3.9,12.37-5.54,25-3,37.84a28.36,28.36,0,0,0,2,6.12c1,2.12.28,3.23-1.52,4.47-5.46,3.76-6.39,3.56-8.58-2.74-4.71-13.52-3.81-27.19-.56-40.78,1.31-5.46,1.76-10.38-.12-16-4.67-13.91-4.26-28.14.13-42.13,1.46-4.65,1.69-8.71-.66-13.34-4.37-8.59-8-17.57-11.9-26.38-1-2.31-2.25-4.58,1.47-6.49-20.81,1.52-40.34-.23-56.22-15.14-2.57-4.25-1.15-9.8-5-14.68-5.06,23.14-10,45.53-14.86,67.91q.2-22.43,1.6-44.79c.36-5.64.15-11.32.25-17a59.92,59.92,0,0,1,.69-10.93c.47-2.33,1.07-5.13-1-7.12s-1.18-3.21.33-5c2.67-3.06,4.34-4.55,8.44-.85,7.61,6.86,14.44,14.69,23.37,20.11a43,43,0,0,0,21.79,6.21c15.48.31,31,.19,46.45.05,11.72-.1,21.33-5.68,30.44-12.35,2-1.45,1.37-3.61,1.37-5.53,0-18.82.1-37.64,0-56.46,0-3.69.31-5.79,5-5.73,4.34.06,5.21,1.59,5.17,5.55-.18,18.81,0,37.63-.17,56.45,0,3.63,1.31,5.62,4.12,7.69a52.66,52.66,0,0,0,34.06,10.53c12.14-.38,24.31-.35,36.46,0,14.56.4,26.5-5.06,36.77-15,4.42-4.27,9.06-8.31,13.51-12.57,1.81-1.73,3.5-2,5,0,1.38,1.89,5.26,3.1,2.59,6.37-1.72,2.12-1.59,4.36-1.36,6.6,1.46,14.24,1.24,28.55,1.67,42.81.31,10.29,1.92,20.55,1,30.87q-6.37-29.44-12.77-58.87c-.59-2.7-1.2-5.4-2-8.78C370.49,225.7,372.12,231.09,369.77,235Z" style="fill:#f7bf8d"/><path d="M147.63,73.28c1.63,1.24,3.53.76,5.31.76,15,0,30,.11,45,0,14.67-.11,26.88,5.14,36.53,16.23,1.09,1.26,3.48,2.84.76,4.28-2.38,1.26-4.58,6.11-7.72,2.59-9.79-11-22.14-13.6-36.09-13.19-15.63.47-31.3-.06-46.94.22-4.6.08-6.5-1.22-5.73-5.82-.59-3.33.56-4.9,4.15-4.32A7.11,7.11,0,0,0,147.63,73.28Z" style="fill:#f7bf8d"/><path d="M362.63,78.25c.69,4.42-.85,6-5.63,5.93-17.94-.3-35.89-.07-53.84-.14-10.66,0-19.8,3.43-27.26,11.17-3.2,3.33-7.47,2.82-10.32-.94-1.21-1.6-.09-2.43.74-3.39,9.17-10.59,20.71-16.52,34.76-16.76,15.78-.26,31.57,0,47.36-.08,1.78,0,3.69.52,5.27-.84a7.21,7.21,0,0,0,4.71.84C361.88,73.46,363.23,74.84,362.63,78.25Z" style="fill:#f7bf8d"/><path d="M348.47,445.81c-7,1.88-12.63,6.52-18.88,9.88-9.51,5.12-18.86,10.54-28.12,16.09-2.9,1.73-4.27.43-4.7-1.87s-5.47-4-.63-6.77c14.17-8,28.35-16,42.41-24.25,3-1.73,5-1.67,7,1.07Z" style="fill:#f7bf8d"/><path d="M155.83,439.86c1.66-2.65,3.73-2.14,6-.84,14,8,27.92,16,41.93,23.92,2.91,1.64,3.22,3.48,1.29,6-1.59,2-2.13,5.31-6.31,2.82-14-8.31-28.16-16.24-42.29-24.29a35.34,35.34,0,0,0-3.63-1.55Z" style="fill:#f7bf8d"/><path d="M63.51,171.93c3.52-.29,5.15.62,5.41,4.84.5,8.27,3.91,15.72,8.62,22.56,2.85,4.12,1.77,7.74-2.69,10-2.51,1.25-3.33-1-4.28-2.23-4.13-5.48-6.7-11.83-9.62-18-.74-4-1.34-8.09-2.26-12.07C57.7,172.69,59.61,171.46,63.51,171.93Z" style="fill:#f7bf8d"/><path d="M440.37,189.07c-2.95,5.93-5.13,12.29-9.48,17.46-1.22,1.46-2,4.79-4.71,2.35-2.33-2.06-6.63-3.84-3.28-8.34a50.44,50.44,0,0,0,9.1-20.32,10.92,10.92,0,0,0,.53-3.42c-.6-4.29,1.74-5.17,5.28-4.87,4-.6,5.71.88,4.81,5.07C441.75,181,441.11,185,440.37,189.07Z" style="fill:#f7bf8d"/><path d="M153.14,203.37c5.13,2.42,10.37,4.09,14.59,7.16,2.86,2.08-.84,5-1.62,7.49-.63,2-2,1.65-3.57.92-3.89-1.88-7.81-3.69-11.74-5.48-1.84-.83-2.67-2.15-1.68-4C150.3,207.34,150.44,204.36,153.14,203.37Z" style="fill:#f7bf8d"/><path d="M337,219.75c-2.49-1.4-2.91-4.18-4-6.44-1-1.94.24-3.06,2-3.85,3.78-1.72,7.52-3.51,11.3-5.24,1.32-.62,2.87-1.68,3.67.53.91,2.51,4.48,5.58,1.92,7.51C347.54,215.49,342.15,217.26,337,219.75Z" style="fill:#f7bf8d"/><path d="M245.66,375.28c0-6.49-.17-13,.07-19.48.14-3.62-.84-5.14-4.71-4.91-5.15.3-10.33-.09-15.49.13-3.83.16-6-.21-6.05-5.17,0-5.29,2.8-5,6.29-4.91,5.16.1,10.33-.1,15.49.07,3.07.11,4.52-.65,4.47-4.12-.17-12.32-.15-24.65,0-37,0-3.11-1.13-4.06-4.1-4-6,.16-12-.17-18,.11-4.18.2-4-2.25-4-5.09s-.09-5.24,4-5c6,.28,12-.05,18,.11,3,.09,4.11-1,4.06-4-.15-9,.12-18-.13-27-.11-4.08,2.09-4.12,5-4.07s5.24-.24,5.12,4c-.25,8.66.09,17.33-.14,26-.1,3.8.84,5.47,5,5.17,4.81-.35,9.66.07,14.48-.14,3.66-.15,5.73.24,5.8,4.92.06,5-2.2,5.36-6,5.19-5-.22-10,0-15-.1-2.85-.08-4.24.65-4.2,3.87.14,12.49.11,25,0,37.48,0,2.86,1.1,3.77,3.84,3.71,5.83-.13,11.66.14,17.48-.09,4.4-.17,3.62,2.73,3.72,5.33s.07,4.94-3.76,4.78c-5.49-.23-11,.15-16.49-.13-3.73-.19-4.89,1.05-4.83,4.8.2,13.16-.1,26.32.18,39.47.09,4.29-1.69,4.84-5.29,4.89s-5.05-.95-4.88-4.78C245.87,388.62,245.67,382,245.66,375.28Z" style="fill:#f7bf8d"/><path d="M193.74,367.09c.54-.93-.3-.86-.75-1-13.23-4-20.52-13-22.22-26.61,4-3.94,8.07-7.85,12-11.83q35.77-35.83,71.5-71.7c1.08,6.64,6.13,9.87,11.25,13,1.74,1,1.78,1.65.32,3.1-14.26,14.14-28.42,28.39-42.68,42.54-1.41,1.39-1.44,2.13-.14,3.68A29.69,29.69,0,0,1,209,365.87c-.6.19-2-.31-1.69,1.22Z" style="fill:#fdb79a"/><path d="M335.63,100c-.54.92.3.85.75,1,13.28,4,20.5,13,22.23,26.64-.65.56-1.34,1.09-1.94,1.7q-39.46,39.44-78.92,78.88c-.9.91-1.62,2.08-3,2.4-1-5.27-4.33-8.62-8.85-11.08-1.36-.74-2.56-1.76-4.41-3.05a22.43,22.43,0,0,0,2.49-1.82q21.22-21.18,42.43-42.37c1.09-1.09,1.4-1.69.22-3.08-14.23-16.75-7-41.55,14-48.09.51-.16,1.94.48,1.44-1.12Z" style="fill:#fdcebb"/><path d="M274.74,210.6c1.39-.32,2.11-1.49,3-2.4q39.47-39.42,78.92-78.88c.6-.61,1.29-1.14,1.94-1.7,15.13.84,27.36,13.87,27.53,29.34.17,15.12-11.74,28.38-26.6,29.71a28.86,28.86,0,0,1-22.42-7c-1.5-1.3-2.14-1.11-3.42.18q-24.61,24.75-49.33,49.41a34,34,0,0,0-2.16,2.74C279.55,224.37,277.15,217.48,274.74,210.6Z" style="fill:#fdb79a"/><path d="M254.31,256q-35.75,35.85-71.5,71.7c-4,4-8,7.89-12,11.83a29.66,29.66,0,0,1-14-54.47c10-6.56,25.29-7.36,37.44,3.93l53.22-53.27C249.76,242.51,252,249.23,254.31,256Z" style="fill:#fdcdbb"/><path d="M184.38,144.77c.46.41.84.75,1.2,1.1q17.05,17,34.12,34.07c.93.93,1,1.5,0,2.45q-4.95,4.8-9.76,9.76c-1,1-1.56.85-2.49-.07Q190.49,175,173.42,158c-.57-.56-1.47-1-.42-2.05,3.55-3.46,7-7,10.53-10.48A8.45,8.45,0,0,1,184.38,144.77Z" style="fill:#fa6176"/><path d="M165.47,224.77c-6.35,0-12.69-.05-19,0-1.61,0-2.1-.46-2.07-2.06.1-4.34.09-8.69,0-13,0-1.55.4-2.13,2-2.12q19,.09,38.06,0c1.37,0,2,.24,2,1.83q-.15,6.78,0,13.55c0,1.61-.62,1.83-2,1.81C178.15,224.74,171.81,224.77,165.47,224.77Z" style="fill:#fa6176"/><path d="M252.37,137.92c0,6.16-.06,12.33,0,18.49,0,1.82-.3,2.63-2.39,2.54-4.16-.18-8.33-.11-12.5,0-1.58,0-2.29-.27-2.28-2.1q.12-19,0-38c0-1.63.56-2.07,2.11-2,4.34.09,8.69.1,13,0,1.69,0,2,.64,2,2.14C252.33,125.24,252.37,131.58,252.37,137.92Z" style="fill:#fd6277"/></svg>