<svg xmlns="http://www.w3.org/2000/svg" viewBox="0 0 482.07 511.77"><path d="M29.1,0c.76,2.27-1.29,1.65-2.19,2C9.67,8.54.1,22.15.06,40.63q-.1,40.47,0,81C.13,143.77,15.35,159.71,37.42,162c25.56,2.71,51.14,4,76.8,2.78,35.33-1.73,69.73-7.7,101.6-24.12a134.84,134.84,0,0,0,23.37-15.22c2.07-1.68,4.2-3.51,7.14-1.65,3.12,2,2.41,4.77,1.59,7.55-6.34,21.55-9.65,43.52-8.93,66,1.36,42.23,16.57,78.45,47.83,107.23,7.74,7.12,9.91,14.68,8.69,24.86-4.07,34-7.77,68.14-10.59,102.32-1.37,16.59-2.54,33.2-3.8,49.8-1,13.15,3.59,23.11,16.22,28.51.56.25,1.77.61.63,1.66H435.9c2.64-1.89,5.93-2.79,7.62-6.08,4.08-8,.25-17.21-9.56-20.63-11.91-4.15-24.1-7.51-36.14-11.3-9.45-3-19.79-4.33-26.73-12.42-9-10.5-19.23-19.79-28.85-29.69a14.37,14.37,0,0,1-4.24-9.84c-.27-8.62-.4-17.24-.88-25.88-1-17.58.23-35.21-1-52.84-1.23-18.06.2-36.21-1-54.34-1.19-17.56.19-35.21-1-52.84-1.2-18.23.2-36.55-1-54.84-1.15-16.9-.05-33.87-.91-50.85-1-21.06,0-42.22-1.19-63.32-.23-4-.21-7.94-1.08-11.87-4.68-21.16-16.05-37.16-35.46-47.41C287,3.67,279,2.12,271,0Z" style="fill:#feccbd"/><path d="M475.89,511.77c-1.35-1.52.37-1.74,1-2.35,7.14-6.52,6.84-15.25-.76-21.28A32.9,32.9,0,0,0,465,482.81c-14.23-4.32-28.45-8.7-42.72-12.89a31,31,0,0,1-15.35-9.65,226.7,226.7,0,0,0-23.16-23.43c-6.81-6-9.51-13.16-9.58-22.4-.26-37.46-1.17-74.92-1.88-112.38-.41-21.65-1-43.29-1.35-64.93Q369.4,151,367.91,64.8c-.5-28.26-21.52-54.62-49.94-62.66-1.2-.34-3.44.57-3-2.14H271c8,2.12,16,3.67,23.5,7.62C313.89,17.87,325.26,33.87,329.94,55c.87,3.93.85,7.89,1.08,11.87,1.2,21.1.14,42.26,1.19,63.32.86,17-.24,33.95.91,50.85,1.24,18.29-.16,36.61,1,54.84,1.16,17.63-.22,35.28,1,52.84,1.23,18.13-.2,36.28,1,54.34,1.19,17.63,0,35.26,1,52.84.48,8.64.61,17.26.88,25.88a14.37,14.37,0,0,0,4.24,9.84c9.62,9.9,19.84,19.19,28.85,29.69,6.94,8.09,17.28,9.45,26.73,12.42,12,3.79,24.23,7.15,36.14,11.3,9.81,3.42,13.64,12.66,9.56,20.63-1.69,3.29-5,4.19-7.62,6.08Z" style="fill:#fab09e"/><path d="M214.41,332.91c-5.38,6.5-13.72,5.12-16-1.33a28.68,28.68,0,0,1-1.08-5.87c-5.86-44.95-47.06-78.87-92.3-75.94-1,.06-2,.19-3,.21-5.58.07-9.67-3.4-9.89-8.38-.21-4.76,3.28-8.63,8.61-9.18a103.23,103.23,0,0,1,30.32,1.67c44.23,8.61,79.48,47,84,91.54C215.4,328.69,215.56,331.64,214.41,332.91Z" style="fill:#bd392a"/><path d="M215.23,390.62c4.18-5,7.49-9,10.75-13a8.9,8.9,0,0,1,9.28-3.47c3.88.82,5.86,3.55,6.74,7.22,3.3,13.77,6.66,27.52,9.85,41.31,1.34,5.8-1.09,10-6.13,11.33s-9.51-1.55-11-7.41c-1.75-6.77-3.33-13.58-4.91-20.4-.67-2.86-1.69-3.44-3.7-.94-2.62,3.24-5.26,6.46-8,9.59-2.44,2.77-5.41,4.43-9.29,3.54-4.09-.94-6-3.82-7-7.65-3.21-13.44-6.5-26.87-9.63-40.33-1.42-6.08,1.36-11,6.49-12.08s9.11,1.92,10.65,8C211.27,374,213.08,381.76,215.23,390.62Z" style="fill:#bd392a"/><path d="M38.53,244.08c3.77-4.55,6.83-8.19,9.83-11.87,2.68-3.31,5.83-5.47,10.34-4.41,4.35,1,6,4.28,6.92,8.25,3.09,13.11,6.3,26.19,9.4,39.3,1.46,6.19-1,11-6,12.35-5.27,1.36-9.56-1.86-11.2-8.49-1.87-7.52-3.67-15-5.76-23.62-3.92,4.73-7.21,8.61-10.39,12.57-2.51,3.12-5.59,4.67-9.61,3.79s-6-3.82-6.89-7.66c-3.23-13.59-6.58-27.15-9.74-40.76-1.32-5.7,1.16-10.1,6.06-11.41,5.15-1.37,9.55,1.43,11.05,7.3C34.54,227.24,36.36,235.1,38.53,244.08Z" style="fill:#bd392a"/><path d="M135.81,345.12c-3.07,7.41-7.47,13.69-15.17,16.89-9.91,4.13-19.35,2.88-27.53-3.92S82,342.27,84.24,331.75c.41-1.94,1-3.83,1.51-5.75,2.88-3.17,5-7.05,8.62-9.53,9-6.13,18.64-7.11,28.13-1.83,10,5.55,14.72,14.43,13.73,26.05C136.11,342.17,136,343.64,135.81,345.12Z" style="fill:#e44c3c"/><path d="M157.25,285.5c12.77,11.71,20.43,26.09,22.65,43.3.87,6.68-1.73,10.87-7.07,11.76s-9.35-2.66-10.46-9.43c-4.77-29-26.65-47-55.92-46.05-6.44.21-10.71-3-11-8.21s3.64-8.91,10-9.46C123.51,265.86,144.77,273.28,157.25,285.5Z" style="fill:#bd392a"/></svg>