<svg xmlns="http://www.w3.org/2000/svg" viewBox="0 0 450.13 457.48"><path d="M69.71,277c.54-.92-.3-.85-.75-1-13.23-4-20.52-13-22.22-26.61,4-3.94,8.07-7.85,12-11.83q35.76-35.83,71.5-71.7c1.08,6.64,6.12,9.87,11.25,13,1.74,1,1.78,1.65.31,3.1-14.26,14.14-28.42,28.39-42.67,42.53-1.41,1.4-1.45,2.14-.14,3.69A29.69,29.69,0,0,1,85,275.76c-.61.19-1.95-.31-1.69,1.21Z" style="fill:#fdb79a"/><path d="M211.6,9.88c-.54.92.3.85.75,1,13.28,4,20.5,13,22.23,26.64-.65.56-1.34,1.09-2,1.7q-39.45,39.44-78.91,78.88c-.9.91-1.63,2.08-3,2.4-1-5.27-4.33-8.62-8.85-11.08a52.57,52.57,0,0,1-4.42-3.06,20.59,20.59,0,0,0,2.5-1.81q21.23-21.18,42.43-42.37c1.09-1.09,1.4-1.69.22-3.08-14.24-16.75-7-41.55,14-48.09.51-.16,1.95.47,1.45-1.12Z" style="fill:#fdcebb"/><path d="M150.71,120.49c1.38-.32,2.11-1.49,3-2.4q39.47-39.42,78.91-78.88c.61-.61,1.3-1.14,2-1.7,15.13.84,27.35,13.87,27.53,29.34.17,15.12-11.74,28.37-26.6,29.71a28.85,28.85,0,0,1-22.42-7c-1.5-1.3-2.14-1.11-3.43.18Q185,114.47,160.34,139.13c-.67.67-1.19,1.5-2.17,2.74C155.52,134.26,153.11,127.37,150.71,120.49Z" style="fill:#fdb79a"/><path d="M130.28,165.84q-35.75,35.85-71.5,71.7c-4,4-8,7.89-12,11.83a29.67,29.67,0,0,1-14-54.48c10-6.55,25.3-7.35,37.44,3.94l53.23-53.27C125.73,152.4,128,159.12,130.28,165.84Z" style="fill:#fdcdbb"/><path d="M60.35,54.66c.45.41.84.74,1.2,1.1q17.06,17,34.12,34.07c.93.93,1,1.5,0,2.45q-5,4.8-9.77,9.76c-1,1-1.56.85-2.48-.07q-17-17.09-34.06-34.12c-.57-.56-1.48-1-.42-2,3.54-3.46,7-7,10.52-10.48A8.68,8.68,0,0,1,60.35,54.66Z" style="fill:#fa6176"/><path d="M41.43,134.66c-6.34,0-12.68,0-19,0-1.61,0-2.1-.46-2.07-2.06.1-4.35.09-8.69,0-13,0-1.55.4-2.13,2-2.12q19,.09,38.06,0c1.36,0,2,.24,2,1.83-.1,4.52-.11,9,0,13.55,0,1.6-.62,1.83-2,1.81C54.12,134.62,47.78,134.66,41.43,134.66Z" style="fill:#fa6176"/><path d="M128.33,47.81c0,6.16-.06,12.32,0,18.49,0,1.82-.29,2.63-2.38,2.54-4.16-.18-8.33-.11-12.5,0-1.58,0-2.29-.27-2.28-2.1q.12-19,0-38c0-1.62.55-2.06,2.11-2,4.34.08,8.68.1,13,0,1.69,0,2,.64,2,2.14C128.3,35.13,128.33,41.47,128.33,47.81Z" style="fill:#fd6277"/><path d="M298.89,449.65c11.65-8.8,23.11-17.67,32.76-28.88A188,188,0,0,0,365,363.91c10.13-26.77,15.18-54.68,16.67-83.08a363.41,363.41,0,0,0-1.95-65.2c-2.63-20.59-6.5-41-13.33-60.64a23.43,23.43,0,0,1,1.77-19.69c2-3.79,4.06-7.59,5.9-11.5,15.07-31.92,16.81-65.13,9.87-99.18-1.69-8.27-4-16.42-6.05-24.62h-46c1.23,1.48-.33,1.5-1,1.82-20,9-27.1,21.08-25,42.72.14,1.48.08,3,.12,4.46a89.22,89.22,0,0,1,2.93,21.8c0,5.73-3.65,8.21-9.45,7.32-5.58-.86-8.52-5.34-12.64-8.21-8.61,17.1-6.86,33.44,4.09,48.79,4.63,6.49,10,12.49,15.12,18.59,12.78,15.13,17.28,32.25,12.76,51.64-6.23,26.72-8.86,93.83-8.49,121.23,0,4-.61,5-4.84,3.86-24.29-6.37-48.8-11.65-73.82-14.45a656.94,656.94,0,0,0-93.76-3.3c-32.31,1-64.44,3.85-96.28,9.63C14.89,310.74,0,328.42,0,355.57c0,33.3,0,26.61,0,59.92,0,13.39,4.26,25.1,14.3,34.36Z" style="fill:#fedcce"/><path d="M377.83,0c2,8.2,4.36,16.35,6.05,24.62,6.94,34.05,5.2,67.26-9.87,99.18-1.84,3.91-3.87,7.71-5.9,11.5A23.43,23.43,0,0,0,366.34,155c6.83,19.68,10.7,40,13.33,60.64a363.41,363.41,0,0,1,1.95,65.2c-1.49,28.4-6.54,56.31-16.67,83.08a188,188,0,0,1-33.3,56.86C322,432,310.54,440.85,298.89,449.65l19,.28c15.49-.05,31-.14,46.47-.14,5.67,0,11.37.09,16.92-1.06,3.26-.67,5.57.26,8.19,2.08a38.38,38.38,0,0,0,45.21-1.43C448.07,439,454.41,420.7,447,405.69c-4.73-9.52-4.47-17.61-1.49-26.71a13.26,13.26,0,0,0,.35-2.46c4.08-33,4.52-66.11,3.36-99.26-.37-10.63-1.47-21.27-2.85-31.82a511.5,511.5,0,0,0-21.46-92.67c-.92-2.8-.61-4.18,2.16-5.83,10.33-6.17,16.78-15.41,17.68-27.45,2-26.4,3.54-52.84,4.92-79.29.93-18-8.07-31.38-24.78-38.15-.87-.35-3,.26-2.06-2Z" style="fill:#fdcabd"/><path d="M286.75,69.91c4.12,2.87,7.06,7.35,12.64,8.21,5.8.89,9.44-1.59,9.45-7.32A89.22,89.22,0,0,0,305.91,49C298.19,54.75,290.37,60.41,286.75,69.91Z" style="fill:#fdcabd"/></svg>