<svg xmlns="http://www.w3.org/2000/svg" viewBox="0 0 450.13 457.48"><path d="M298.89,449.65c11.65-8.8,23.11-17.67,32.76-28.88A188,188,0,0,0,365,363.91c10.13-26.77,15.18-54.68,16.67-83.08a363.41,363.41,0,0,0-1.95-65.2c-2.63-20.59-6.5-41-13.33-60.64a23.43,23.43,0,0,1,1.77-19.69c2-3.79,4.06-7.59,5.9-11.5,15.07-31.92,16.81-65.13,9.87-99.18-1.69-8.27-4-16.42-6.05-24.62h-46c1.23,1.48-.33,1.5-1,1.82-20,9-27.1,21.08-25,42.72.14,1.48.08,3,.12,4.46a89.22,89.22,0,0,1,2.93,21.8c0,5.73-3.65,8.21-9.45,7.32-5.58-.86-8.52-5.34-12.64-8.21-8.61,17.1-6.86,33.44,4.09,48.79,4.63,6.49,10,12.49,15.12,18.59,12.78,15.13,17.28,32.25,12.76,51.64-6.23,26.72-8.86,93.83-8.49,121.23,0,4-.61,5-4.84,3.86-24.29-6.37-48.8-11.65-73.82-14.45a656.94,656.94,0,0,0-93.76-3.3c-32.31,1-64.44,3.85-96.28,9.63C14.89,310.74,0,328.42,0,355.57c0,33.3,0,26.61,0,59.92,0,13.39,4.26,25.1,14.3,34.36Z" style="fill:#fedcce"/><path d="M377.83,0c2,8.2,4.36,16.35,6.05,24.62,6.94,34.05,5.2,67.26-9.87,99.18-1.84,3.91-3.87,7.71-5.9,11.5A23.43,23.43,0,0,0,366.34,155c6.83,19.68,10.7,40,13.33,60.64a363.41,363.41,0,0,1,1.95,65.2c-1.49,28.4-6.54,56.31-16.67,83.08a188,188,0,0,1-33.3,56.86C322,432,310.54,440.85,298.89,449.65l19,.28c15.49-.05,31-.14,46.47-.14,5.67,0,11.37.09,16.92-1.06,3.26-.67,5.57.26,8.19,2.08a38.38,38.38,0,0,0,45.21-1.43C448.07,439,454.41,420.7,447,405.69c-4.73-9.52-4.47-17.61-1.49-26.71a13.26,13.26,0,0,0,.35-2.46c4.08-33,4.52-66.11,3.36-99.26-.37-10.63-1.47-21.27-2.85-31.82a511.5,511.5,0,0,0-21.46-92.67c-.92-2.8-.61-4.18,2.16-5.83,10.33-6.17,16.78-15.41,17.68-27.45,2-26.4,3.54-52.84,4.92-79.29.93-18-8.07-31.38-24.78-38.15-.87-.35-3,.26-2.06-2Z" style="fill:#fdcabd"/><path d="M286.75,69.91c4.12,2.87,7.06,7.35,12.64,8.21,5.8.89,9.44-1.59,9.45-7.32A89.22,89.22,0,0,0,305.91,49C298.19,54.75,290.37,60.41,286.75,69.91Z" style="fill:#fdcabd"/><path d="M156.77,70.21c6.34,5.57,4.71,13.87-1.8,16a28.89,28.89,0,0,1-5.9.9c-45.11,4.56-80.2,44.76-78.59,90.06,0,1,.14,2,.12,3-.09,5.59-3.68,9.58-8.66,9.65-4.76.08-8.53-3.53-8.92-8.87a103.07,103.07,0,0,1,2.55-30.26c9.88-44,49.29-78.08,93.93-81.33C152.57,69.1,155.53,69,156.77,70.21Z" style="fill:#bd392a"/><path d="M214.48,71.07c-4.92-4.32-8.78-7.75-12.68-11.13a8.88,8.88,0,0,1-3.2-9.37c.94-3.86,3.72-5.76,7.41-6.53,13.86-2.9,27.7-5.85,41.58-8.65,5.84-1.17,10,1.38,11.14,6.46s-1.81,9.46-7.71,10.8c-6.82,1.56-13.68,2.94-20.54,4.32-2.88.58-3.49,1.58-1,3.67,3.16,2.71,6.31,5.45,9.35,8.28,2.71,2.52,4.28,5.53,3.27,9.39-1.05,4.06-4,5.93-7.85,6.73-13.53,2.83-27,5.72-40.59,8.47-6.11,1.23-11-1.69-11.89-6.84s2.19-9.06,8.33-10.41C197.79,74.55,205.56,73,214.48,71.07Z" style="fill:#bd392a"/><path d="M62.86,243.44c-4.43-3.9-8-7.06-11.57-10.17-3.23-2.78-5.3-6-4.11-10.46,1.14-4.32,4.45-5.86,8.45-6.68,13.19-2.71,26.36-5.54,39.55-8.26,6.23-1.28,11,1.29,12.17,6.37,1.21,5.31-2.13,9.5-8.81,10.95-7.57,1.65-15.15,3.23-23.78,5.07,4.62,4.06,8.4,7.46,12.27,10.75,3,2.6,4.51,5.73,3.51,9.72s-4,5.86-7.86,6.66c-13.68,2.84-27.33,5.79-41,8.55-5.75,1.16-10.07-1.45-11.23-6.38-1.22-5.19,1.7-9.51,7.61-10.84C45.91,246.94,53.83,245.35,62.86,243.44Z" style="fill:#bd392a"/><path d="M166.68,149.13c7.33,3.28,13.48,7.87,16.45,15.65,3.84,10,2.32,19.43-4.72,27.41s-16.14,10.64-26.59,8.11c-1.92-.47-3.8-1.12-5.7-1.68-3.08-3-6.9-5.17-9.27-8.89-5.87-9.2-6.56-18.84-1-28.17,5.83-9.81,14.85-14.3,26.43-13C163.74,148.75,165.21,149,166.68,149.13Z" style="fill:#e44c3c"/><path d="M107.72,126c12.07-12.42,26.67-19.66,43.93-21.39,6.71-.66,10.82,2.06,11.56,7.41s-2.94,9.27-9.74,10.19c-29.08,3.93-47.73,25.28-47.65,54.56,0,6.44-3.29,10.61-8.53,10.77s-8.8-3.89-9.16-10.25C87.11,159.13,95.14,138.09,107.72,126Z" style="fill:#bd392a"/></svg>