<svg viewBox="0 0 512 512" xmlns="http://www.w3.org/2000/svg">
 <g>
  <path d="m512 168v88c0 3.99-1.59 7.82-4.42 10.64l-169 168c-2.82 2.79-6.62 4.36-10.58 4.36h-144c-3.96 0-7.76-1.57-10.58-4.36l-169-168c-2.83-2.82-4.42-6.65-4.42-10.64v-88c0-8.28 6.72-15 15-15h482c8.28 0 15 6.72 15 15z" fill="#edf5ff"/>
  <path d="m512 168v88c0 3.99-1.59 7.82-4.42 10.64l-169 168c-2.82 2.79-6.62 4.36-10.58 4.36h-72.01v-286h241.01c8.28 0 15 6.72 15 15z" fill="#d5e8fe"/>
  <path d="m356.71 328.72c-19.43 28.16-29.71 61.11-29.71 95.28 0 8.28-6.72 15-15 15h-56v-286h32c8.376 0 15.188 6.897 15 15.34-.68 31.49 6.63 117.75 48.07 138.44 8.167 4.073 10.824 14.448 5.64 21.94z" fill="#b5dbff"/>
  <path d="m356.71 328.72c-19.43 28.16-29.71 61.11-29.71 95.28 0 8.28-6.72 15-15 15h-112c-8.28 0-15-6.72-15-15 0-34.18-10.28-67.13-29.72-95.29-5.194-7.505-2.512-17.874 5.64-21.94 41.45-20.69 48.76-106.95 48.08-138.44-.167-8.424 6.605-15.33 15-15.33h64c8.376 0 15.188 6.897 15 15.34-.68 31.49 6.63 117.75 48.07 138.44 8.167 4.073 10.824 14.448 5.64 21.94z" fill="#d5e8fe"/>
  <path d="m356.71 328.72c-19.43 28.16-29.71 61.11-29.71 95.28 0 8.28-6.72 15-15 15h-56.01v-286h32.01c8.376 0 15.188 6.897 15 15.34-.68 31.49 6.63 117.75 48.07 138.44 8.167 4.073 10.824 14.448 5.64 21.94z" fill="#b5dbff"/>
  <path d="m512 88v80h-512v-80c0-8.28 6.72-15 15-15h482c8.28 0 15 6.72 15 15z" fill="#47568f"/>
  <path d="m512 88v80h-256v-95h241c8.28 0 15 6.72 15 15z" fill="#2a3c75"/>
  <path d="m0 225.561v30.439c0 3.993 1.593 7.822 4.425 10.638l169 168c2.811 2.794 6.613 4.362 10.576 4.362h30.442c9.099-122.545-93.893-222.458-214.443-213.439z" fill="#b5dbff"/>
  <path d="m297.558 439h30.442c3.963 0 7.765-1.568 10.576-4.362l169-168c2.831-2.816 4.424-6.645 4.424-10.638v-30.439c-120.613-9.022-223.541 90.949-214.442 213.439z" fill="#a2cbed"/>
 </g>
</svg>