<svg viewBox="0 0 26 26" xmlns="http://www.w3.org/2000/svg" id="svg-icon">
  <path
    d="M7.668 18.332h1.523v3.047H7.668v-3.047zM13.042 6.228c-.965-.055-1.879.537-2.265.889.277.649 1.414 2.277 2.222 3.404 1.476-2.07 2.008-2.986 2.198-3.365-.377-.376-1.19-.99-2.155-.928zM16.81 18.332h1.523v3.047H16.81v-3.047z" />
  <path
    d="M13.311.066a.767.767 0 00-.622 0c-.67.3-6.544 3.09-6.544 6.84 0 1.065.473 2.34 1.442 3.875a5.341 5.341 0 00-4.49 5.266v9.191c0 .421.341.762.762.762h2.286v-9.953a.761.761 0 111.523 0v.761h2.285c.421 0 .762.341.762.762v4.57c0 .422-.34.762-.762.762H7.668V26h4.57V12.069C9.856 8.779 9.331 7.816 9.22 7.236c-.05-.259-.052-.52.089-.743.31-.493 1.859-1.897 3.734-1.785 1.66-.115 3.132 1.093 3.622 1.836.196.217.218.476.115.75-.2.667-.98 1.96-3.018 4.775V26h4.57v-3.098h-2.285a.761.761 0 01-.762-.761v-4.57c0-.422.341-.763.762-.763h2.285v-.761a.761.761 0 111.524 0V26h2.285c.42 0 .762-.34.762-.762v-9.191a5.341 5.341 0 00-4.49-5.266c.969-1.535 1.443-2.81 1.443-3.875 0-3.75-5.875-6.54-6.545-6.84z" />
  </svg>
