<svg viewBox="0 0 512 512" xmlns="http://www.w3.org/2000/svg"><g id="Flat"><ellipse cx="256" cy="408" fill="#ebebeb" rx="204.706" ry="80"/><path d="m24 200a252.053 252.053 0 0 0 46.135 145.357l49.865 70.643h272l49.865-70.643a252.053 252.053 0 0 0 46.135-145.357z" fill="#dedede"/><path d="m93.416 325.273h16v17.82h-16z" fill="#ebebeb" transform="matrix(.817 -.577 .577 .817 -174.152 119.647)"/><path d="m118.009 350.689h16v36.666h-16z" fill="#ebebeb" transform="matrix(.817 -.577 .577 .817 -189.744 140.209)"/><ellipse cx="256" cy="200" fill="#e05114" rx="232" ry="136"/><ellipse cx="256" cy="228" fill="#fcc50f" rx="227.08" ry="108"/><path d="m407.691 24a32.308 32.308 0 0 0 -26.883 14.388 427.251 427.251 0 0 1 -53.391 65.128l-21.779 21.784a50.223 50.223 0 0 1 -33.672 14.5c-18.426.719-38.4 9.431-54.433 25.469-22.218 22.218-30.38 51.983-22.7 74.733h109.793c12.275-14.757 18.951-31.943 19.576-47.966a50.223 50.223 0 0 1 14.5-33.672l21.779-21.779a427.253 427.253 0 0 1 65.119-53.385l.011-.007a32.309 32.309 0 0 0 14.389-26.884 32.309 32.309 0 0 0 -32.309-32.309z" fill="#dedede"/><rect fill="#f5a12c" height="32" rx="8" width="40" x="96" y="232"/><rect fill="#f5a12c" height="32" rx="8" transform="matrix(.707 .707 -.707 .707 265.005 -220.063)" width="40" x="378.142" y="193.858"/><circle cx="360" cy="264" fill="#fadd5c" r="16"/><circle cx="144" cy="184" fill="#fadd5c" r="16"/><path d="m236 272a28 28 0 0 1 28 28v4a0 0 0 0 1 0 0h-56a0 0 0 0 1 0 0v-4a28 28 0 0 1 28-28z" fill="#e05114"/><path d="m232 216h-16a60.987 60.987 0 0 1 8.09-28.031c7.443-12.759 23.184-27.969 55.91-27.969v16c-47.455 0-48 38.367-48 40z" fill="#ebebeb"/></g></svg>