<svg xmlns="http://www.w3.org/2000/svg" viewBox="0 0 512 512" id="svg-icon">
    <path fill="#ffd551"
        d="M325.771 488.082H185.93c-14.359 0-26-11.641-26-26V347.9c0-14.359 11.641-26 26-26h140.84c13.807 0 25 11.193 25 25v115.182c.001 14.359-11.64 26-25.999 26z" />
    <path fill="#ffd551"
        d="M317.101 107.486s-.479-.141-.959-.221c-.61-.13-1.226-.243-1.845-.351-31.478-6.716-28.981-45.149-28.981-45.149V47.252a4.838 4.838 0 00-4.838-4.838h-56.209a4.838 4.838 0 00-4.838 4.838v14.513h-.569s2.658 40.91-32.083 45.69l-.159.025-.045.007h.007c-16.426 2.566-28.995 16.775-28.995 33.921v146.154c0 18.964 15.374 34.338 34.338 34.338h140.476c12.156 0 22.011-9.855 22.011-22.011V154.614c0-22.919-15.926-42.104-37.311-47.128zm-97.67 187.783a5.806 5.806 0 01-5.806 5.806H195.56c-10.688 0-19.352-8.664-19.352-19.352V158.939c0-10.688 8.664-19.352 19.352-19.352h18.065a5.806 5.806 0 015.806 5.806v149.876z" />
    <path
        d="M219.431 295.269V145.392a5.806 5.806 0 00-5.806-5.806h-12.579c3.206 0 5.806 2.6 5.806 5.806v149.876a5.806 5.806 0 01-5.806 5.806h12.579a5.805 5.805 0 005.806-5.805z"
        fill="#ffb74b" />
    <path fill="#ffc34c"
        d="M199.057 301.074h-3.497c-10.688 0-19.352-8.664-19.352-19.352V158.939c0-10.688 8.664-19.352 19.352-19.352h.784c.853-16.323 13.102-29.626 28.943-32.1h-.007l.045-.007.159-.025c34.74-4.779 32.083-45.69 32.083-45.69h.569V47.252a4.838 4.838 0 014.838-4.838h-38.705a4.838 4.838 0 00-4.838 4.838v14.513h-.569s2.658 40.91-32.083 45.69l-.159.025-.045.007h.007c-16.426 2.566-28.995 16.775-28.995 33.921v146.154c0 18.964 15.374 34.338 34.338 34.338h38.705c-14.166 0-26.325-8.58-31.573-20.826z" />
    <path d="M285.47 68.776h-66.763a9 9 0 01-9-9V32.918a9 9 0 019-9h66.763a9 9 0 019 9v26.858a9 9 0 01-9 9z"
        fill="#e58d23" />
    <path fill="#ffc34c"
        d="M198.635 482.277V366.41c0-13.894 11.264-25.158 25.158-25.158h127.493c-2.241-11.042-12.003-19.352-23.706-19.352H185.088c-13.894 0-25.158 11.264-25.158 25.158v115.866c0 13.894 11.264 25.158 25.158 25.158h14.227a25.247 25.247 0 01-.68-5.805z" />
    <path
        d="M248.412 60.067V32.626a8.709 8.709 0 018.709-8.709h-38.705a8.709 8.709 0 00-8.709 8.709v27.441a8.709 8.709 0 008.709 8.709h38.705a8.709 8.709 0 01-8.709-8.709z"
        fill="#bf6c0d" />
    <circle fill="#ffc34c" cx="225.874" cy="458.663" r="15" />
    <circle fill="#ffc34c" cx="252.089" cy="254.227" r="15" />
    <circle fill="#ffc34c" cx="282.449" cy="282.579" r="15" />
    <path d="M334.643 260.227a6 6 0 01-6-6v-95.555a6 6 0 0112 0v95.555a6 6 0 01-6 6z" fill="#ffdf74" />
    <path fill="#fff4c1" d="M159.93 362.843h191.84v70.231H159.93z" />
    <path d="M198.635 366.41c0-1.211.091-2.401.256-3.567H159.93v70.231h38.705V366.41z" fill="#fce575" />
    <path d="M334.643 460.227a6 6 0 01-6-6v-95.555a6 6 0 0112 0v95.555a6 6 0 01-6 6z" fill="#fcf9de" />
</svg>