<svg viewBox="0 0 512 512" xmlns="http://www.w3.org/2000/svg"><g><path clip-rule="evenodd" d="m134.349 193.126c53.179 0 96.55-43.37 96.55-96.548-.001-53.208-43.371-96.578-96.55-96.578-53.207 0-96.578 43.37-96.578 96.578 0 53.178 43.371 96.548 96.578 96.548z" fill="#95d6a4" fill-rule="evenodd"/><path clip-rule="evenodd" d="m134.349 0c53.321 0 96.55 43.229 96.55 96.578 0 53.318-43.229 96.548-96.55 96.548-4.252 0-8.419-.254-12.501-.793 47.424-6.123 84.048-46.659 84.048-95.755 0-49.097-36.624-89.635-84.048-95.785 4.082-.51 8.249-.793 12.501-.793z" fill="#78c2a4" fill-rule="evenodd"/><path clip-rule="evenodd" d="m134.349 162.087c36.085 0 65.51-29.425 65.51-65.509 0-36.087-29.424-65.512-65.51-65.512-36.085 0-65.51 29.425-65.51 65.512 0 36.084 29.424 65.509 65.51 65.509z" fill="#ccf49f" fill-rule="evenodd"/><path clip-rule="evenodd" d="m134.349 31.066c36.171 0 65.51 29.311 65.51 65.512 0 36.17-29.339 65.509-65.51 65.509-4.28 0-8.447-.426-12.501-1.189 30.189-5.841 53.008-32.431 53.008-64.319 0-31.919-22.819-58.48-53.008-64.319 4.053-.797 8.22-1.194 12.501-1.194z" fill="#b3e59f" fill-rule="evenodd"/><path d="m111.785 129.715c-2.921 2.947-7.654 2.947-10.602 0-2.92-2.92-2.92-7.682 0-10.602l3.543-3.543c2.92-2.92 7.683-2.92 10.602 0 2.92 2.947 2.92 7.682 0 10.629zm52.186-52.159c-2.948 2.92-7.682 2.92-10.63 0-2.919-2.92-2.919-7.682 0-10.602l3.544-3.543c2.919-2.92 7.682-2.92 10.602 0 2.948 2.947 2.948 7.682 0 10.602zm-37.134-20.381c0-4.139 3.373-7.482 7.512-7.482s7.483 3.344 7.483 7.482v5.018c0 4.139-3.345 7.482-7.483 7.482-4.139 0-7.512-3.344-7.512-7.482zm-25.654 16.838c-2.92-2.92-2.92-7.654 0-10.602 2.948-2.92 7.682-2.92 10.602 0l3.543 3.543c2.92 2.92 2.92 7.682 0 10.602-2.919 2.92-7.682 2.92-10.602 0zm-6.236 30.048c-4.139 0-7.483-3.344-7.483-7.482 0-4.14 3.345-7.513 7.483-7.513h5.017c4.139 0 7.483 3.373 7.483 7.513 0 4.139-3.345 7.482-7.483 7.482z" fill="#e0f8c5"/><g clip-rule="evenodd" fill-rule="evenodd"><path d="m474.171 104.514-39.855 378.432c-1.672 15.902-13.097 29.054-29.084 29.054h-201.122c-15.987 0-27.411-13.152-29.084-29.055l-30.558-290.329 30.558-96.038h291.974c5.102-.029 7.653 2.465 7.171 7.936z" fill="#ecf4ff"/><path d="m459.941 239.588-22.762 216.257h-264.987l-22.791-216.257z" fill="#ddeafb"/><path d="m474.171 104.514-36.993 351.331h-40.706l37.844-359.267h32.684c5.102-.029 7.653 2.465 7.171 7.936zm-301.979 351.331-7.087-67.21-29.934-284.148c-.567-5.557 2.154-7.908 7.171-7.908h32.684l37.844 359.267h-40.678zm63.922-359.267h40.706l11.622 359.267h-40.678zm96.408 0h40.706l-11.622 359.267h-40.706z" fill="#cbe2ff"/><path d="m474.171 104.514-36.993 351.331h-25.002l36.993-351.331c.482-5.471-2.069-7.965-7.172-7.936h25.003c5.102-.029 7.653 2.465 7.171 7.936z" fill="#bed8fb"/><path d="m459.941 239.588-22.762 216.257h-40.706l22.791-216.257zm-287.749 216.257-22.79-216.257h40.706l22.763 216.257zm68.571-216.257h40.678l7.001 216.257h-40.678zm87.138 0h40.678l-6.974 216.257h-40.705z" fill="#bed8fb"/><path d="m437.179 455.845-2.863 27.101c-1.672 15.902-13.097 29.054-29.084 29.054h-201.122c-15.987 0-27.411-13.152-29.084-29.055l-2.835-27.101h264.988z" fill="#9dc6fb"/><path d="m437.179 455.845-2.863 27.101c-1.672 15.902-13.097 29.054-29.084 29.054h-24.974c15.959 0 27.383-13.152 29.055-29.055l2.863-27.101h25.003z" fill="#80b4fb"/><path d="m434.939 239.588h25.002l-22.762 216.257h-25.002z" fill="#9dc6fb"/></g></g></svg>