<svg height="672" viewBox="-106 0 504 504" width="672" xmlns="http://www.w3.org/2000/svg" id="svg-icon"><path d="M96 152V96H48v56c-16 16-48 32-48 80v264c0 4.398 3.594 8 8 8h128c4.39 0 8-3.602 8-8V232c0-48-32-64-48-80zm0 0" fill="#e6e9ed"/><path d="M16 288h112v120H16zm0 0" fill="#f5f7fa"/><path d="M16 436c0 2.2 1.8 4 4 4h104c2.2 0 4-1.8 4-4v-28H16zm0 0M124 256H20c-2.2 0-4 1.8-4 4v28h112v-28c0-2.2-1.8-4-4-4zm0 0" fill="#ed5565"/><path d="M292 376l-16 128h-88l-16-128zm0 0" fill="#e6e9ed"/><path d="M174 392h116l2-16H172zm0 0" fill="#ccd1d9"/><path d="M56 376a8 8 0 11-16 0 8 8 0 0116 0zm0 0M80 376a8 8 0 11-16 0 8 8 0 0116 0zm0 0M103.984 376a8 8 0 11-16 0 8 8 0 0116 0zm0 0" fill="#ed5565"/><path d="M96 32.008V96H48V16.008h48zm0 0" fill="#da4453"/><path d="M92 0H52c-2.2 0-4 1.8-4 4v28h48V20 4c0-2.2-1.8-4-4-4zm0 0" fill="#ed5565"/><path d="M107.313 276H36.686c-2.214 0-4-1.793-4-4s1.786-4 4-4h70.626c2.214 0 4 1.793 4 4s-1.786 4-4 4zm0 0M107.313 428H36.686c-2.214 0-4-1.793-4-4s1.786-4 4-4h70.626c2.214 0 4 1.793 4 4s-1.786 4-4 4zm0 0" fill="#da4453"/><path d="M108 332H36c-2.2 0-4-1.793-4-4s1.8-4 4-4h72c2.2 0 4 1.793 4 4s-1.8 4-4 4zm0 0M92 348H52c-2.2 0-4-1.793-4-4s1.8-4 4-4h40c2.2 0 4 1.793 4 4s-1.8 4-4 4zm0 0" fill="#e6e9ed"/><path d="M232 484c-2.215 0-4-1.793-4-4v-64c0-2.207 1.785-4 4-4 2.2 0 4 1.793 4 4v64c0 2.207-1.8 4-4 4zm0 0M252.016 484a3.75 3.75 0 01-.512-.031c-2.184-.274-3.734-2.274-3.473-4.473l8-64c.266-2.191 2.313-3.793 4.473-3.473a4.003 4.003 0 013.473 4.473l-8 64a4.004 4.004 0 01-3.961 3.504zm0 0M211.984 484c.168 0 .344-.008.512-.031 2.184-.274 3.734-2.274 3.473-4.473l-8-64c-.266-2.191-2.313-3.793-4.473-3.473a4.003 4.003 0 00-3.473 4.473l8 64a4.004 4.004 0 003.961 3.504zm0 0" fill="#ccd1d9"/><path d="M56 68a3.998 3.998 0 01-1.488-7.71l32-12.802c2.031-.832 4.375.176 5.183 2.23a3.993 3.993 0 01-2.215 5.204l-32 12.797A4.03 4.03 0 0156 68zm0 0M56 84a3.998 3.998 0 01-1.488-7.71l16-6.403a3.967 3.967 0 015.183 2.234 3.99 3.99 0 01-2.215 5.2l-16 6.398A4.03 4.03 0 0156 84zm0 0" fill="#ed5565"/><g fill="#ccd1d9"><path d="M128 496c-2.215 0-4 1.793-4 4v4h8v-4c0-2.207-1.8-4-4-4zm0 0M112 496c-2.215 0-4 1.793-4 4v4h8v-4c0-2.207-1.8-4-4-4zm0 0M96 496c-2.215 0-4 1.793-4 4v4h8v-4c0-2.207-1.8-4-4-4zm0 0M80 496c-2.215 0-4 1.793-4 4v4h8v-4c0-2.207-1.8-4-4-4zm0 0M64 496c-2.215 0-4 1.793-4 4v4h8v-4c0-2.207-1.8-4-4-4zm0 0M48 496c-2.215 0-4 1.793-4 4v4h8v-4c0-2.207-1.8-4-4-4zm0 0M32 496c-2.215 0-4 1.793-4 4v4h8v-4c0-2.207-1.8-4-4-4zm0 0M16 496c-2.215 0-4 1.793-4 4v4h8v-4c0-2.207-1.8-4-4-4zm0 0"/></g></svg>
