<svg height="512" viewBox="0 0 510.831 510.831" width="512" xmlns="http://www.w3.org/2000/svg" id="svg-icon"><path d="M136.921 156.497c-8.284 0-15-6.716-15-15V15c0-8.284 6.716-15 15-15s15 6.716 15 15v126.497c0 8.284-6.715 15-15 15zM217.099 156.497c-8.284 0-15-6.716-15-15V98.416c0-8.284 6.716-15 15-15s15 6.716 15 15v43.081c0 8.284-6.716 15-15 15z" fill="#707789"/><path d="M272.94 93.416h84.976v63.081H272.94z" fill="#555a66"/><path d="M121.921 126.497h266.988v384.334H121.921z" fill="#9196aa"/><path d="M255.416 126.497H388.91v384.334H255.416z" fill="#707789"/><path d="M174.301 177.582H336.53v101.333H174.301z" fill="#cff9ff"/><path d="M175.968 383.249h42.716v30h-42.716zM234.057 383.249h42.717v30h-42.717z" fill="#707789"/><path d="M292.146 383.249h42.717v30h-42.717z" fill="#555a66"/><path d="M175.968 429.582h42.716v30h-42.716zM234.057 429.582h42.717v30h-42.717z" fill="#707789"/><path d="M292.146 429.582h42.717v30h-42.717z" fill="#555a66"/><circle cx="255.416" cy="328.664" fill="#1462c1" r="30.225"/><path d="M255.416 429.582h21.358v30h-21.358zM255.416 383.249h21.358v30h-21.358z" fill="#555a66"/><path d="M255.416 298.439v60.45c16.693 0 30.225-13.532 30.225-30.225s-13.532-30.225-30.225-30.225z" fill="#27488f"/><path d="M255.416 177.582h81.114v101.333h-81.114z" fill="#bfe1ff"/></svg>
