<svg viewBox="0 0 512 512" xmlns="http://www.w3.org/2000/svg"><path d="m359.800781 152.203125c-6.601562-34.800781-37.203125-61.199219-73.800781-61.199219h-60c-36.597656 0-67.199219 26.398438-73.796875 61.199219-34.800781 6.601563-61.199219 37.199219-61.199219 73.796875 0 8.402344 6.597656 15 15 15h299.992188c8.402344 0 15-6.597656 15-15 0-36.597656-26.398438-67.195312-61.195313-73.796875zm0 0" fill="#fdbf00"/><path d="m420.996094 226c0 8.402344-6.597656 15-15 15h-149.996094v-149.996094h30c36.597656 0 67.199219 26.398438 73.800781 61.199219 34.796875 6.601563 61.195313 37.199219 61.195313 73.796875zm0 0" fill="#ff9100"/><path d="m420.394531 232.902344-29.398437 265.894531c-.597656 3.300781-2.097656 6.296875-4.5 8.699219l-39-12h-182.992188l-39 12c-2.402344-2.402344-3.902344-5.402344-4.5-8.699219l-29.398437-265.894531c0-3-2.703125-10.199219 3.300781-16.800782l42.597656 16.800782h236.996094l42.597656-16.800782c6 6.601563 3.296875 13.800782 3.296875 16.800782zm0 0" fill="#ff641a"/><path d="m420.394531 232.902344-29.398437 265.894531c-.597656 3.300781-2.097656 6.296875-4.5 8.699219l-39-12h-91.496094v-262.59375h118.496094l42.597656-16.800782c6.003906 6.601563 3.300781 13.800782 3.300781 16.800782zm0 0" fill="#f03800"/><path d="m256.015625 241c-.703125 0-1.421875-.042969-2.140625-.144531-8.203125-1.171875-13.898438-8.773438-12.726562-16.976563l30-210.996094c1.171874-8.203124 8.789062-13.902343 16.976562-12.730468 8.203125 1.171875 13.902344 8.773437 12.730469 16.980468l-30 210.992188c-1.070313 7.484375-7.488281 12.875-14.839844 12.875zm0 0" fill="#673416"/><path d="m316 241c-1.566406 0-3.164062-.246094-4.746094-.773438-7.851562-2.609374-12.101562-11.105468-9.476562-18.96875l59.996094-181c2.609374-7.851562 11.03125-12.113281 18.96875-9.476562 7.855468 2.609375 12.101562 11.105469 9.480468 18.96875l-60 180.996094c-2.09375 6.285156-7.9375 10.253906-14.222656 10.253906zm0 0" fill="#673416"/><path d="m2.523438 294.320312c-4.597657-6.898437-2.738282-16.199218 4.160156-20.800781l91-60c6.898437-4.597656 16.199218-2.722656 20.800781 4.160157 4.597656 6.898437 2.738281 16.203124-4.160156 20.800781l-91 60c-7.019531 4.652343-16.277344 2.632812-20.800781-4.160157zm0 0" fill="#fff4ca"/><path d="m488.675781 298.480469-90.996093-59.996094c-6.902344-4.601563-8.761719-13.902344-4.160157-20.800781 4.582031-6.886719 13.886719-8.761719 20.800781-4.160156l90.996094 59.996093c6.898438 4.601563 8.761719 13.902344 4.160156 20.800781-4.523437 6.792969-13.785156 8.8125-20.800781 4.160157zm0 0" fill="#ffe1ba"/><path d="m386.496094 507.496094c-2.699219 2.699218-6.296875 4.5-10.496094 4.5h-239.996094c-4.199218 0-7.800781-1.800782-10.5-4.5l60-81c2.699219-2.996094 6.597656-4.496094 10.496094-4.496094h120c3.898438 0 7.800781 1.5 10.5 4.496094zm0 0" fill="#f03800"/><path d="m326.5 426.496094 59.996094 81c-2.699219 2.699218-6.296875 4.5-10.496094 4.5h-120v-89.996094h60c3.898438 0 7.800781 1.5 10.5 4.496094zm0 0" fill="#cd0000"/><path d="m417.097656 216.101562-60.601562 80.398438c-2.699219 3-6.597656 4.5-10.496094 4.5h-179.996094c-3.902344 0-7.800781-1.5-10.5-4.5l-60.601562-80.398438c2.699218-3.300781 6.898437-5.097656 11.101562-5.097656h299.992188c4.203125 0 8.402344 1.796875 11.101562 5.097656zm0 0" fill="#fff4ca"/><path d="m417.097656 216.101562-60.601562 80.398438c-2.699219 3-6.597656 4.5-10.496094 4.5h-90v-89.996094h149.996094c4.203125 0 8.402344 1.796875 11.101562 5.097656zm0 0" fill="#ffe1ba"/></svg>