<svg viewBox="0 0 22 26" xmlns="http://www.w3.org/2000/svg" id="svg-icon">
  <path
    d="M21.558 8.855C20.038-.337 11.07 0 11.022.002 10.932 0 1.962-.334.442 8.855c-.288 1.736-.234 3.58.16 5.48l2.167 10.477a.936.936 0 00.622.704.937.937 0 00.923-.181l2.215-1.92v2.137a.448.448 0 00.897 0v-2.265l.13.088.43.289c.17.115.336.238.501.36.718.53 1.46 1.08 2.505 1.08H11c1.044 0 1.786-.55 2.504-1.08.165-.122.33-.245.5-.36l.417-.28.177-.118v2.286a.448.448 0 00.897 0v-2.116l2.19 1.899a.939.939 0 00.924.181.935.935 0 00.622-.704l2.167-10.476c.393-1.901.447-3.745.16-5.481zm-5.093 11.692a5.24 5.24 0 01-.502.551 8.858 8.858 0 01-.446.389l-.066.054a13.11 13.11 0 01-.432.33l-.17.125c-.317.227-.64.445-.96.66l-.396.266c-.18.122-.355.252-.53.381-.628.464-1.22.902-1.968.904-.746-.002-1.339-.44-1.966-.904a14.73 14.73 0 00-.53-.381l-.422-.283c-.282-.19-.564-.377-.84-.573l-.017-.008c-.035-.025-.07-.048-.103-.073l-.164-.118a12.212 12.212 0 01-.433-.333l-.055-.046a8.385 8.385 0 01-.443-.387C3.99 19.17 3.82 16.165 3.82 13.5c0-1.882.383-3.384.64-4.179.683.58 2.005 1.438 3.851 1.438a.448.448 0 00.278-.8c-.695-.55-1.7-1.608-1.648-2.13.004-.036.012-.11.129-.196l.092.012c.082.01.189.027.313.048 1.298.226 4.806 1.134 8.618 4.652a.846.846 0 012.079 2.489c-.011 1.155-.214 3.853-1.707 5.713z" />
  </svg>
