<svg viewBox="0 0 511.978 511.978" xmlns="http://www.w3.org/2000/svg"><g><g><g><path d="m166.007 311.304h156.139v156.023h-156.139z" fill="#d98964"/></g></g><g><g><path d="m10.1 311.304h155.907v156.023h-155.907z" fill="#d98964"/></g></g><g><g><path d="m501.978 131.469-179.832 179.833h-156.139l179.973-179.833z" fill="#eab7a2"/></g></g><g><g><path d="m432.662 44.647-266.655 266.655-156.029.03 266.685-266.685z" fill="#eab7a2"/></g></g><g><g><path d="m322.146 311.306 179.832-179.835v155.457l-179.832 180.398z" fill="#d98964"/></g></g><g><g><path d="m432.662 44.647-86.682 86.822h86.682z" fill="#d98964"/></g></g><g><path d="m511.935 130.59c-.452-5.083-4.848-9.12-9.957-9.12h-59.317v-76.823c0-5.438-4.562-10-10-10h-155.998c-2.652 0-5.196 1.054-7.071 2.929l-266.685 266.685c-2.255 2.256-3.241 5.406-2.807 8.471v154.596c0 5.523 4.477 10 10 10l312.046.003c2.789 0 5.309-1.144 7.122-2.985l66.09-66.298c3.899-3.912 3.889-10.243-.022-14.142-3.912-3.899-10.244-3.89-14.142.022l-49.048 49.203v-50.237l107.418-107.418c3.905-3.905 3.905-10.237 0-14.143-3.905-3.905-10.237-3.905-14.143 0l-93.275 93.275v-49.16l159.832-159.835v127.182l-48.057 48.208c-3.899 3.912-3.889 10.243.022 14.142s10.243 3.889 14.142-.022l50.975-51.135c1.869-1.875 2.918-4.414 2.918-7.06v-155.457c0-.297-.017-.59-.043-.881zm-491.831 272.67v-43.357c51.519 4.76 92.663 45.903 97.422 97.422h-43.045c-4.335-27.852-26.474-49.886-54.377-54.065zm34.025 54.066h-33.66v-33.66c16.681 3.819 29.841 16.979 33.66 33.66zm-34.029-117.493v-18.503l135.907-.026v136.023h-18.41c-4.862-62.56-54.937-112.634-117.497-117.494zm155.907 117.493v-80.014c42.186 4.609 75.784 38.037 80.439 80.014zm136.139.001h-35.608c-4.794-53.011-47.308-95.348-100.531-100.105v-35.919l28.978.001c42.336.052 107.161 57.379 107.161 106.937zm0-87.304c-12.868-19.222-30.705-36.362-49.781-48.718l49.781.001zm5.858-68.721h-127.842l159.958-159.833h43.369l-63.552 63.552c-3.905 3.905-3.905 10.237 0 14.143 3.852 3.852 10.29 3.852 14.143 0l77.694-77.694h56.062zm99.632-179.833c-.003 0-.007 0-.01 0h-47.531l52.567-52.652v52.652zm-136.83-66.822h127.714l-246.656 246.656-49.608.001 172.725-172.725c3.905-3.905 3.905-10.237 0-14.143-3.904-3.905-10.237-3.904-14.142 0l-186.868 186.869-49.823.001z"/><path d="m429.038 365.529c-2.096-5.031-8.005-7.494-13.05-5.41-5.028 2.076-7.507 8.034-5.41 13.06 2.099 5.031 8.013 7.5 13.06 5.41 5.026-2.082 7.495-8.036 5.4-13.06z"/></g></g></svg>