<svg viewBox="0 0 64 64" xmlns="http://www.w3.org/2000/svg"><g id="Flat"><g id="Color_copy" data-name="Color copy"><g><path d="m29.189 31.836-3.464 2-16.29-26.392a2.913 2.913 0 0 1 1.022-4.053 2.913 2.913 0 0 1 4.021 1.141z" fill="#c4f236"/><path d="m20.443 15.6a5.114 5.114 0 0 1 -4.608-2.41l-5.313-8.604a3.19 3.19 0 0 1 -.384-.965 2.9 2.9 0 0 0 -.7 3.823l16.29 26.392 3.464-2z" fill="#a1d51c"/><path d="m53 9a6 6 0 0 1 6 6 14 14 0 0 1 -14 14h-2a0 0 0 0 1 0 0v-10a10 10 0 0 1 10-10z" fill="#4891d3"/><path d="m40.455 61h-18.91a6 6 0 0 1 -5.981-5.528l-2.564-32.472h36l-2.564 32.472a6 6 0 0 1 -5.981 5.528z" fill="#57b7eb"/><rect fill="#84d2f4" height="4" rx="2" width="44" x="9" y="19"/><path d="m53 9h-19a10 10 0 0 0 -10 10h23a11.211 11.211 0 0 1 4.992-9.328z" fill="#84d2f4"/><path d="m11 19a2 2 0 0 0 0 4h40a2 2 0 0 0 2-2h-40a2 2 0 0 1 -2-2z" fill="#57b7eb"/><path d="m35.683 16a4 4 0 0 1 -2.707-6.948 10 10 0 0 0 -8.976 9.948h23a11.181 11.181 0 0 1 .422-3z" fill="#57b7eb"/><path d="m45.455 55h-4.123a22 22 0 0 1 -21.932-20.269 8.169 8.169 0 0 1 7.079-8.742l22.521-2.961v-.028h-36l2.564 32.472a6 6 0 0 0 5.981 5.528h18.91a6 6 0 0 0 5.981-5.528l.045-.57a5.977 5.977 0 0 1 -1.026.098z" fill="#4891d3"/><path d="m47.758 38.732a28.774 28.774 0 0 0 -7.091-1.983 11 11 0 0 0 -19.334 0 28.774 28.774 0 0 0 -7.091 1.983l.535 6.771a30.436 30.436 0 0 0 6.556 1.748 11 11 0 0 0 19.334 0 30.436 30.436 0 0 0 6.556-1.751z" fill="#f9e109"/><g><circle cx="28" cy="43" fill="#f8664f" r="3"/><circle cx="33" cy="43" fill="#f89c8d" r="3"/><path d="m28 42a1.025 1.025 0 0 1 -.244-.03 1 1 0 0 1 -.727-1.212l.408-1.635a4.876 4.876 0 0 1 3.763-3.582l2.6-.521a1 1 0 0 1 1.028 1.535l-.76 1.139a2.858 2.858 0 0 0 -.177 2.859 1 1 0 0 1 -1.79.894 4.865 4.865 0 0 1 -.145-4.019l-.373.074a2.867 2.867 0 0 0 -2.208 2.1l-.409 1.635a1 1 0 0 1 -.966.763z" fill="#f8664f"/></g><path d="m19.716 37.052a25.88 25.88 0 0 0 -5.474 1.68l.535 6.771a30.436 30.436 0 0 0 6.556 1.748 11 11 0 0 0 9.667 5.749c.357 0 .7-.04 1.053-.073a21.987 21.987 0 0 1 -12.337-15.875z" fill="#fcbc04"/><path d="m30 44a2.96 2.96 0 0 1 -2.86-3.86 2.992 2.992 0 1 0 3.72 3.72 2.983 2.983 0 0 1 -.86.14z" fill="#cc5144"/><ellipse cx="30" cy="43" fill="#cc5144" rx="1" ry="2.221"/><path d="m35 44a2.96 2.96 0 0 1 -2.86-3.86 2.992 2.992 0 1 0 3.72 3.72 2.983 2.983 0 0 1 -.86.14z" fill="#f8664f"/></g></g></g></svg>