<svg viewBox="0 0 512 512" xmlns="http://www.w3.org/2000/svg"><g><g><g><g><path d="m334.512 115.044c-2.824 2.824-6.005 5.46-9.518 7.867-14.533 9.954-33.61 15.437-53.715 15.437-20.105 0-39.182-5.482-53.716-15.436-15.857-10.86-24.95-26.417-24.95-42.681.001-16.264 9.094-31.82 24.95-42.68 14.534-9.954 33.611-15.437 53.716-15.436 20.105 0 39.183 5.482 53.716 15.436 15.856 10.861 24.95 26.417 24.95 42.681 0 12.659-5.511 24.891-15.433 34.812z" fill="#fbc182"/><path d="m114.889 334.668c-9.922 9.922-22.153 15.432-34.814 15.432-16.264 0-31.82-9.094-42.681-24.95-9.954-14.533-15.437-33.61-15.437-53.715 0-20.106 5.482-39.183 15.437-53.716 10.861-15.854 26.417-24.95 42.681-24.95 16.263 0 31.82 9.094 42.681 24.95 9.954 14.533 15.437 33.61 15.436 53.716 0 20.105-5.483 39.182-15.437 53.715-2.406 3.513-5.043 6.695-7.866 9.518zm9.857-63.233.006-.006z" fill="#fbd9b0"/></g><g><path d="m148.687 274.256c-6.972 6.972-16.641 11.05-27.156 10.816l-82.398-1.831c-16.103-.358-30.065-10.89-34.743-26.207-11.218-36.727 1.175-71.37 13.546-93.965 4.884-8.919 13.345-15.503 23.212-18.06 9.525-2.468 19.734-1.036 28.205 3.922l42.949 18.131c1.406.593 2.7 1.422 3.828 2.45l31.787 28.971c12.844 8.742 18.931 24.525 15.182 39.701l-4.593 18.593c-1.69 6.839-5.15 12.809-9.819 17.479z" fill="#fbc182"/><path d="m274.255 148.687c-4.67 4.67-10.639 8.13-17.479 9.819l-18.593 4.593c-15.208 3.757-31.024-2.362-39.756-15.261l-30.875-34.758c-1.013-1.141-1.825-2.445-2.4-3.857l-16.271-39.95c-4.917-8.456-6.333-18.629-3.873-28.123 2.558-9.868 9.142-18.328 18.06-23.212 22.595-12.372 57.238-24.764 93.965-13.547 15.318 4.679 25.849 18.642 26.207 34.744l1.832 82.397c.233 10.513-3.845 20.183-10.817 27.155z" fill="#fbd9b0"/></g></g><g><g><path d="m224.498 193.182-31.228 31.228c-12.384 12.384-31.379 14.508-46.192 5.166l-80.487-50.762.447-20.39-23.768 5.681-6.753-4.259c-9.628-6.072-15.876-16.043-17.141-27.356s2.626-22.418 10.675-30.467l72.061-72.061c8.049-8.049 19.153-11.94 30.466-10.675s21.284 7.512 27.357 17.141l33.676 53.396-5.322 24.337 20.031-1.016 21.345 33.844c9.341 14.814 7.217 33.809-5.167 46.193z" fill="#fbd9b0"/><path d="m132.577 19.289c-11.312-1.265-22.417 2.626-30.466 10.675l-36.151 36.151 142.803 142.803 15.736-15.736c12.384-12.384 14.508-31.379 5.166-46.192l-21.345-33.844-20.031 1.016 5.322-24.337-33.676-53.396c-6.074-9.628-16.045-15.875-27.358-17.14z" fill="#fbc182"/></g><g><path d="m208.318 113.146-14.708-23.321-34.564 34.564c-5.251 5.251-5.251 13.764 0 19.015s13.764 5.251 19.015 0z" fill="#964c22"/><path d="m83.557 123.819-40.287 40.287 23.321 14.708 35.98-35.98c5.251-5.251 5.251-13.764 0-19.015-5.25-5.251-13.764-5.251-19.014 0z" fill="#ba602b"/></g></g></g><g><g><g><path d="m177.488 396.955c2.824-2.824 6.004-5.46 9.518-7.867 14.534-9.954 33.61-15.436 53.716-15.436 20.105 0 39.182 5.482 53.716 15.436 15.857 10.86 24.95 26.417 24.95 42.681 0 16.263-9.094 31.82-24.95 42.68-14.533 9.954-33.611 15.437-53.716 15.437-20.106 0-39.183-5.482-53.717-15.437-15.856-10.861-24.95-26.417-24.949-42.681-.001-12.659 5.51-24.891 15.432-34.813z" fill="#964c22"/><path d="m397.111 177.332c9.922-9.922 22.153-15.433 34.814-15.433 16.263-.001 31.82 9.094 42.68 24.95 9.955 14.534 15.437 33.61 15.437 53.716s-5.483 39.182-15.437 53.716c-10.859 15.855-26.417 24.951-42.681 24.95-16.263 0-31.82-9.094-42.68-24.95-9.954-14.534-15.437-33.61-15.436-53.716 0-20.106 5.482-39.183 15.436-53.716 2.407-3.512 5.044-6.694 7.867-9.517z" fill="#ba602b"/></g><g><path d="m494.063 348.931c-4.884 8.919-13.344 15.502-23.212 18.06-9.525 2.468-19.734 1.035-28.205-3.922l-42.948-18.131c-1.406-.593-2.7-1.421-3.828-2.449l-31.786-28.971c-12.845-8.743-18.931-24.525-15.182-39.701l4.593-18.593c1.689-6.839 5.15-12.809 9.819-17.479 6.971-6.972 16.64-11.05 27.155-10.816l82.397 1.831c16.103.357 30.065 10.889 34.743 26.207 11.22 36.726-1.174 71.369-13.546 93.964" fill="#964c22"/><path d="m237.745 363.313c4.67-4.67 10.639-8.129 17.479-9.819l18.593-4.593c15.208-3.757 31.024 2.362 39.756 15.261l30.875 34.758c1.013 1.141 1.825 2.445 2.4 3.857l16.271 39.95c4.918 8.456 6.333 18.629 3.873 28.123-2.557 9.867-9.142 18.328-18.06 23.212-22.595 12.372-57.237 24.765-93.966 13.547-15.318-4.679-25.849-18.642-26.207-34.744l-1.831-82.397c-.233-10.513 3.845-20.183 10.817-27.155z" fill="#ba602b"/></g></g><g><g><path d="m287.502 318.817 31.228-31.228c12.384-12.384 31.378-14.508 46.192-5.166l80.487 50.762-1.016 20.031 24.337-5.322 6.753 4.259c9.628 6.072 15.876 16.043 17.141 27.356s-2.626 22.418-10.675 30.467l-72.061 72.061c-8.049 8.049-19.153 11.94-30.466 10.675s-21.285-7.513-27.357-17.141l-33.89-53.735 6.124-23.067-20.618.085-21.345-33.845c-9.342-14.813-7.218-33.808 5.166-46.192z" fill="#ba602b"/><path d="m379.423 492.711c11.312 1.265 22.417-2.626 30.466-10.675l36.152-36.152-142.803-142.802-15.736 15.735c-12.384 12.384-14.508 31.379-5.166 46.192l21.345 33.845 20.618-.085-6.124 23.067 33.89 53.735c6.074 9.628 16.045 15.875 27.358 17.14z" fill="#964c22"/></g><g><path d="m303.682 398.854 14.494 22.982c.894-.545 1.744-1.191 2.517-1.964l32.261-32.261c5.251-5.251 5.251-13.764 0-19.015s-13.764-5.251-19.015 0z" fill="#fbc182"/><path d="m428.444 388.181 40.287-40.287-23.321-14.708-35.98 35.98c-5.251 5.251-5.251 13.764 0 19.015 5.25 5.251 13.763 5.251 19.014 0z" fill="#fbd9b0"/></g></g></g></g></svg>