<svg xmlns="http://www.w3.org/2000/svg" viewBox="0 0 82 82">
  <defs>
    <clipPath id="prefix__a">
      <path
        d="M41 70.4c-10.208 0-19.233-5.227-24.5-13.148.122-8.126 16.333-12.577 24.5-12.577 8.126 0 24.378 4.45 24.5 12.577C60.232 65.173 51.208 70.4 41 70.4zm0-57.983c6.778 0 12.25 5.471 12.25 12.25 0 6.778-5.472 12.25-12.25 12.25a12.234 12.234 0 01-12.25-12.25c0-6.779 5.472-12.25 12.25-12.25zm0-12.25C18.46.167.167 18.46.167 41S18.46 81.833 41 81.833 81.833 63.54 81.833 41 63.54.167 41 .167z" />
    </clipPath>
  </defs>
  <g clip-path="url(#prefix__a)">
    <path d="M-8-8h98v98H-8z" />
  </g>
</svg>
