<svg xmlns="http://www.w3.org/2000/svg" viewBox="0 0 512 512" id="svg-icon"><g fill="#4bc999"><circle cx="398.922" cy="245.812" r="24.296"/><circle cx="103.734" cy="203.49" r="33.701"/><path d="M235.091 304.938l103.851 16.542c5.925-8.747 15.936-14.494 27.295-14.494 16.218 0 29.688 11.735 32.405 27.18.167 0 .324-.01.481-.01 23.658 0 42.844 19.176 42.844 42.834 0 23.659-19.186 42.834-42.844 42.834-1.17 0-2.33-.052-3.48-.146l-160.552 1.588"/></g><path d="M235.091 304.938v116.328l-115.544 1.139c-20.356-6.186-35.153-25.111-35.153-47.484 0-26.585 20.889-48.278 47.139-49.574a32.883 32.883 0 01-2.508-12.613c0-18.183 14.734-32.917 32.917-32.917 12.874 0 24.024 7.388 29.437 18.162l43.712 6.959z" fill="#3aaf80"/><path d="M388.401 105.972c0 30.817-24.986 55.802-55.802 55.802-9.206 0-17.89-2.226-25.55-6.176l-94.895-3.083c-6.886 6.531-16.187 10.533-26.428 10.533-21.213 0-38.403-17.19-38.403-38.403 0-7.827 2.351-15.1 6.364-21.171a38.178 38.178 0 01-4.243-17.535c0-21.213 17.19-38.403 38.403-38.403.084 0 .167.01.24.01a44.072 44.072 0 01-.24-4.577c0-23.732 19.238-42.97 42.97-42.97 15.487 0 29.061 8.203 36.616 20.492 6.866-6.416 16.082-10.356 26.219-10.356 21.213 0 38.403 17.19 38.403 38.403 0 .554-.021 1.108-.042 1.651.199 0 .387-.01.585-.01 30.817.001 55.803 24.977 55.803 55.793z" fill="#4bc999"/><path d="M417.019 456.709L304.618 262.024V152.505h-92.477v109.519l-112.4 194.684C85.553 481.283 103.288 512 131.663 512h253.434c28.375 0 46.11-30.717 31.922-55.291z" fill="#bfe8f7"/><path d="M267.433 20.492c-25.027-7.67-46.972 20.544-39.657 41.444 0 0-33.44 13.585-22.99 45.979 0 0-14.755 22.478 7.367 44.6-6.886 6.531-16.187 10.533-26.428 10.533-21.213 0-38.403-17.19-38.403-38.403 0-7.827 2.351-15.1 6.364-21.171a38.178 38.178 0 01-4.243-17.535c0-21.213 17.19-38.403 38.403-38.403.084 0 .167.01.24.01a44.072 44.072 0 01-.24-4.577c0-23.732 19.238-42.97 42.97-42.97 15.488.001 29.062 8.204 36.617 20.493z" fill="#3aaf80"/><path d="M392.581 479.459c-.93 1.62-3.145 4.326-7.482 4.326H131.658c-4.337 0-6.552-2.707-7.482-4.326-.93-1.609-2.174-4.88 0-8.642l116.182-201.233v-88.866H276.4v88.866l116.182 201.233c2.173 3.762.939 7.033-.001 8.642z" fill="#89e5bf"/><g fill="#79d3aa"><path d="M273.046 419.99c-3.035 0-6.09-.346-9.082-1.027a7.837 7.837 0 01-5.9-9.383 7.833 7.833 0 019.383-5.9c1.852.422 3.736.635 5.6.635 13.828 0 25.08-11.25 25.08-25.08s-11.251-25.08-25.08-25.08c-12.111 0-22.483 8.635-24.66 20.53a7.835 7.835 0 01-9.452 6.231 25.238 25.238 0 00-5.598-.636c-13.828 0-25.08 11.25-25.08 25.08 0 4.328-3.508 7.837-7.837 7.837s-7.837-3.509-7.837-7.837c0-22.472 18.282-40.755 40.755-40.755.55 0 1.101.011 1.652.034 5.929-15.518 20.922-26.159 38.057-26.159 22.472 0 40.755 18.282 40.755 40.755-.001 22.473-18.285 40.755-40.756 40.755zM357.668 467.578c0 5.716-1.338 11.234-3.908 16.208h-17.002c0-1.599.491-3.208 1.494-4.598 2.445-3.375 3.741-7.398 3.741-11.61 0-10.941-8.903-19.855-19.855-19.855-7.503 0-14.285 4.169-17.702 10.878a7.828 7.828 0 01-9.739 3.772 19.855 19.855 0 00-6.96-1.254c-10.951 0-19.855 8.914-19.855 19.855 0 .658.031 1.327.104 2.017.031.272.042.533.042.794h-15.706a36.821 36.821 0 01-.115-2.811c0-19.594 15.936-35.53 35.53-35.53 2.09 0 4.159.178 6.186.543 6.657-8.726 16.981-13.94 28.215-13.94 19.594.001 35.53 15.937 35.53 35.531z"/></g><path d="M329.524 120.132a7.837 7.837 0 01-7.806-8.634c.069-.684.106-1.363.106-2.015 0-10.948-8.906-19.855-19.855-19.855a19.72 19.72 0 00-6.962 1.255 7.838 7.838 0 01-9.74-3.78c-3.415-6.706-10.197-10.872-17.699-10.872-10.948 0-19.855 8.906-19.855 19.855 0 4.214 1.295 8.228 3.744 11.608a7.838 7.838 0 01-12.691 9.199c-4.401-6.072-6.728-13.267-6.728-20.807 0-19.591 15.938-35.53 35.53-35.53 11.234 0 21.562 5.212 28.213 13.934a35.705 35.705 0 016.188-.537c19.591 0 35.53 15.938 35.53 35.53 0 1.182-.063 2.395-.187 3.607a7.838 7.838 0 01-7.788 7.042z" fill="#3aaf80"/></svg>