<svg viewBox="0 0 256 256" xmlns="http://www.w3.org/2000/svg"><g id="Layer_1"><g><g><path d="m205 102.7v125.24c0 11.04-8.95 20-20 20h-114c-11.05 0-20-8.96-20-20v-125.24c0-7.44 4.13-14.27 10.73-17.72 16.81-8.79 31.78-16.63 31.79-16.63 2.11-1.1 3.15-3.54 2.48-5.83l-6.8-23.34c-.93-3.2 1.47-6.4 4.8-6.4h68c3.33 0 5.73 3.2 4.8 6.4l-6.8 23.34c-.67 2.29.37 4.73 2.48 5.83 25 13.08 18.38 9.62 31.79 16.63 6.6 3.45 10.73 10.28 10.73 17.72z" fill="#efefef"/></g><g><path d="m205 107.32v120.62c0 11.04-8.95 20-20 20h-114c-11.05 0-20-8.96-20-20v-120.62z" fill="#72c2e9"/></g><g><path d="m175.5 205.31h-95c-5.523 0-10-4.477-10-10v-59.5c0-5.523 4.477-10 10-10h95c5.523 0 10 4.477 10 10v59.5c0 5.523-4.477 10-10 10z" fill="#f0c020"/></g><g><path d="m153.63 32.78-1.12 9.85c-.29 2.52-2.43 4.43-4.97 4.43h-39.08c-2.54 0-4.68-1.91-4.97-4.43l-1.12-9.85z" fill="#b34f33"/></g><g><path d="m155.82 13.63-2.19 19.15h-51.26l-2.19-19.15c-.34-2.97 1.98-5.57 4.97-5.57h45.7c2.99 0 5.31 2.6 4.97 5.57z" fill="#fc5d3d"/></g><g><g><path d="m188.015 96.944-31.779-16.624c-9.789-5.104-11.328-14.263-8.185-25.051.386-1.326 1.772-2.088 3.1-1.701 1.326.386 2.087 1.774 1.701 3.1-.516 1.77-5.377 13.446 5.698 19.221l31.782 16.625c1.223.64 1.696 2.151 1.056 3.374-.638 1.221-2.147 1.696-3.373 1.056z" fill="#fff"/></g><g><path d="m185 239.44h-98.24c-1.381 0-2.5-1.119-2.5-2.5s1.119-2.5 2.5-2.5h98.24c3.584 0 6.5-2.916 6.5-6.5v-109.62c0-1.381 1.119-2.5 2.5-2.5s2.5 1.119 2.5 2.5v109.62c0 6.341-5.159 11.5-11.5 11.5zm-108.24 0h-5.76c-1.381 0-2.5-1.119-2.5-2.5s1.119-2.5 2.5-2.5h5.76c1.381 0 2.5 1.119 2.5 2.5s-1.119 2.5-2.5 2.5z" fill="#c5e5fe"/></g><path d="m87.33 167.89v21.32c0 1.38 1.12 2.5 2.5 2.5s2.5-1.12 2.5-2.5v-21.32c0-1.38-1.12-2.5-2.5-2.5s-2.5 1.12-2.5 2.5z"/><path d="m98.609 183.21c.011 4.69 3.82 8.5 8.511 8.5h2.21c4.68 0 8.5-3.81 8.5-8.5v-9.32c0-4.68-3.82-8.49-8.5-8.5h-2.21c-4.69.01-8.5 3.82-8.511 8.5zm5-9.32c.011-1.92 1.58-3.49 3.511-3.5h2.21c1.93.01 3.489 1.58 3.5 3.5v9.32c-.011 1.93-1.57 3.5-3.5 3.5h-2.21c-1.931 0-3.5-1.57-3.511-3.5z"/><path d="m131.399 191.71h2.21c4.681 0 8.5-3.81 8.5-8.5v-9.32c0-4.68-3.819-8.49-8.5-8.5h-2.21c-4.689.01-8.5 3.82-8.5 8.5v9.32c0 4.69 3.811 8.5 8.5 8.5zm-3.5-17.82c0-1.92 1.57-3.49 3.5-3.5h2.21c1.931.01 3.5 1.58 3.5 3.5v9.32c0 1.93-1.569 3.5-3.5 3.5h-2.21c-1.93 0-3.5-1.57-3.5-3.5z"/><path d="m167.06 170.87c-.95-.94-2.59-.94-3.54 0l-11.83 11.83c-.97.98-.97 2.56 0 3.53.97.989 2.575.986 3.54 0l11.83-11.82c1.015-1.035.934-2.608 0-3.54z"/><path d="m154.35 173.92.391-.39c.961-.942 1.01-2.529 0-3.54-.94-.94-2.591-.94-3.53 0l-.4.4c-.97.97-.97 2.56 0 3.53.988.989 2.579.961 3.539 0z"/><path d="m164.399 183.18-.399.4c-.97.97-.978 2.552 0 3.53.922.942 2.506 1.033 3.54 0l.39-.39c.98-.97.98-2.56.01-3.54-.95-.94-2.6-.94-3.541 0z"/><path d="m68 135.81v59.5c0 6.89 5.609 12.5 12.5 12.5h65c1.38 0 2.5-1.12 2.5-2.5s-1.12-2.5-2.5-2.5h-65c-4.13-.01-7.49-3.37-7.5-7.5v-59.5c.01-4.13 3.37-7.49 7.5-7.5h95c4.13.01 7.49 3.37 7.5 7.5v59.5c-.01 4.13-3.37 7.49-7.5 7.5h-10c-1.38 0-2.5 1.12-2.5 2.5s1.12 2.5 2.5 2.5h10c6.89 0 12.5-5.61 12.5-12.5v-59.5c0-6.89-5.61-12.5-12.5-12.5h-95c-6.891 0-12.5 5.61-12.5 12.5z"/><circle cx="155.5" cy="205.31" r="2.5"/><path d="m147.289 158.769c1.381 0 2.5-1.119 2.5-2.5v-7.148l5.063-7.287c.788-1.134.508-2.691-.626-3.479-1.136-.787-2.691-.507-3.479.627l-3.458 4.977-3.46-4.977c-.787-1.133-2.346-1.414-3.479-.626-1.134.788-1.414 2.346-.626 3.479l5.065 7.288v7.147c0 1.379 1.119 2.499 2.5 2.499z"/><path d="m108.712 158.769c1.381 0 2.5-1.119 2.5-2.5v-13.362h3.012c1.381 0 2.5-1.119 2.5-2.5s-1.119-2.5-2.5-2.5h-11.024c-1.381 0-2.5 1.119-2.5 2.5s1.119 2.5 2.5 2.5h3.012v13.362c0 1.38 1.119 2.5 2.5 2.5z"/><path d="m94.936 142.907c1.381 0 2.5-1.119 2.5-2.5s-1.119-2.5-2.5-2.5h-11.024c-1.381 0-2.5 1.119-2.5 2.5v15.862c0 1.381 1.119 2.5 2.5 2.5h11.023c1.381 0 2.5-1.119 2.5-2.5s-1.119-2.5-2.5-2.5h-8.523v-2.931h4.583c1.381 0 2.5-1.119 2.5-2.5s-1.119-2.5-2.5-2.5h-4.583v-2.931z"/><path d="m123.021 137.907c-1.381 0-2.5 1.119-2.5 2.5v15.862c0 1.381 1.119 2.5 2.5 2.5s2.5-1.119 2.5-2.5v-5.075h4.959v5.075c0 1.381 1.119 2.5 2.5 2.5s2.5-1.119 2.5-2.5v-15.862c0-1.381-1.119-2.5-2.5-2.5s-2.5 1.119-2.5 2.5v5.787h-4.959v-5.787c0-1.381-1.12-2.5-2.5-2.5z"/><path d="m161.064 137.907c-1.381 0-2.5 1.119-2.5 2.5v15.862c0 1.381 1.119 2.5 2.5 2.5h11.023c1.381 0 2.5-1.119 2.5-2.5s-1.119-2.5-2.5-2.5h-8.523v-13.362c0-1.381-1.119-2.5-2.5-2.5z"/><circle cx="141" cy="107.32" r="2.5"/><path d="m71 250.44h114c12.399 0 22.5-10.1 22.5-22.5v-125.24c0-8.4-4.63-16.04-12.07-19.94-9.935-5.185-21.71-11.355-31.79-16.63-.997-.504-1.596-1.677-1.24-2.91l6.801-23.34c1.402-4.926-2.322-9.588-7.2-9.6h-5.573l1.872-16.37.01-.03c.473-4.536-3.079-8.31-7.46-8.32h-23.94c-1.38 0-2.5 1.12-2.5 2.5s1.12 2.5 2.5 2.5h23.939c1.55 0 2.694 1.398 2.48 2.82l-1.931 16.9h-46.8l-1.939-16.93c-.144-1.609 1.081-2.79 2.489-2.79h1.761c1.37 0 2.489-1.12 2.489-2.5s-1.119-2.5-2.489-2.5h-1.761c-4.268.01-7.922 3.631-7.46 8.36l1.872 16.36h-5.56c-4.933.012-8.609 4.746-7.2 9.6l6.8 23.34c.32 1.002-.09 2.306-1.21 2.9-.03.02-.04.02-.04.02-.01 0-.01.01-.03.02-.375.188-31.367 16.4-31.75 16.6-7.44 3.9-12.07 11.54-12.07 19.94v77.34c0 1.37 1.12 2.5 2.5 2.5s2.5-1.13 2.5-2.5c0-.01 0-.01 0-.02v-70.2h77.5c1.38 0 2.5-1.12 2.5-2.5s-1.12-2.5-2.5-2.5h-77.5v-2.12c0-6.54 3.6-12.48 9.39-15.5 12.188-6.384 31.73-16.61 31.73-16.61 3.15-1.575 4.797-5.254 3.779-8.76l-6.8-23.35c-.47-1.628.758-3.2 2.4-3.2h6.142l.868 7.63c.43 3.79 3.64 6.65 7.45 6.65h39.08c3.81 0 7.01-2.86 7.45-6.64l.867-7.64h6.144c1.493 0 2.853 1.346 2.399 3.22l-6.8 23.32c-.984 3.392.499 7.062 3.72 8.75 18.586 9.721 31.79 16.63 31.79 16.63 5.79 3.02 9.391 8.96 9.391 15.5v2.12h-51.5c-1.38 0-2.5 1.12-2.5 2.5s1.12 2.5 2.5 2.5h51.5v118.12c-.021 9.63-7.87 17.48-17.5 17.5h-114c-9.63-.02-17.48-7.87-17.5-17.5v-27.9c0-1.38-1.12-2.5-2.5-2.5s-2.5 1.12-2.5 2.5v27.9c0 12.4 10.09 22.5 22.5 22.5zm79.03-208.09c-.15 1.26-1.211 2.21-2.49 2.21h-39.08c-1.28 0-2.34-.95-2.49-2.22l-.8-7.06h45.66z"/><circle cx="51" cy="190.04" r="2.5"/><circle cx="116.91" cy="8.06" r="2.5"/><path d="m111.17 20.26v.32c0 1.37 1.12 2.5 2.5 2.5s2.5-1.13 2.5-2.5v-.32c0-1.37-1.12-2.5-2.5-2.5s-2.5 1.13-2.5 2.5z"/><path d="m145.5 22.89v-.31c0-1.38-1.12-2.5-2.5-2.5s-2.5 1.12-2.5 2.5v.31c0 1.38 1.12 2.5 2.5 2.5s2.5-1.12 2.5-2.5z"/><path d="m137.17 17.83v-.32c0-1.37-1.12-2.5-2.5-2.5s-2.5 1.13-2.5 2.5v.32c0 1.37 1.12 2.5 2.5 2.5s2.5-1.13 2.5-2.5z"/></g></g></g></svg>