<svg viewBox="-26 0 512 512" xmlns="http://www.w3.org/2000/svg"><path d="m102.398438 34.132812h68.269531v68.265626h-68.269531zm0 0" fill="#607d8b"/><path d="m17.066406 42.667969h68.265625v51.199219h-68.265625c-4.710937 0-8.53125-3.820313-8.53125-8.535157v-34.132812c0-4.710938 3.820313-8.53125 8.53125-8.53125zm0 0" fill="#9e9e9e"/><path d="m93.867188 8.535156c9.425781 0 17.066406 7.640625 17.066406 17.066406v85.332032c0 9.425781-7.640625 17.066406-17.066406 17.066406-9.425782 0-17.066407-7.640625-17.066407-17.066406v-85.332032c0-9.425781 7.640625-17.066406 17.066407-17.066406zm0 0" fill="#7f8e94"/><path d="m426.667969 327.167969v159.230469c-.027344 9.414062-7.652344 17.039062-17.066407 17.066406h-204.800781c-9.414062-.027344-17.039062-7.652344-17.066406-17.066406v-159.230469zm0 0" fill="#283593"/><path d="m401.066406 327.167969v159.230469c-.027344 9.414062-7.652344 17.039062-17.066406 17.066406h-179.199219c-9.414062-.027344-17.039062-7.652344-17.066406-17.066406v-159.230469zm0 0" fill="#3f51b5"/><path d="m452.265625 25.601562v221.863282c.011719 36.214844-14.371094 70.949218-39.976563 96.554687-25.609374 25.609375-60.339843 39.992188-96.554687 39.980469h-17.066406c-1.453125 0-2.902344 0-4.269531-.085938-73.714844-2.265624-132.292969-62.695312-132.265626-136.449218v-221.863282c.027344-9.414062 7.652344-17.039062 17.066407-17.066406h256c9.414062.027344 17.039062 7.652344 17.066406 17.066406zm0 0" fill="#283593"/><path d="m426.667969 25.601562v221.863282c.027343 73.753906-58.550781 134.183594-132.269531 136.449218-73.714844-2.265624-132.292969-62.695312-132.265626-136.449218v-221.863282c.027344-9.414062 7.652344-17.039062 17.066407-17.066406h230.402343c9.414063.027344 17.039063 7.652344 17.066407 17.066406zm0 0" fill="#3f51b5"/><path d="m409.601562 153.601562v85.332032c0 56.554687-45.847656 102.398437-102.402343 102.398437-56.554688 0-102.398438-45.84375-102.398438-102.398437v-85.332032c-.015625-8.636718 1.074219-17.242187 3.242188-25.601562 11.632812-45.253906 52.433593-76.890625 99.15625-76.890625 46.726562 0 87.523437 31.636719 99.15625 76.890625 2.171875 8.359375 3.261719 16.964844 3.246093 25.601562zm0 0" fill="#607d8b"/><path d="m409.601562 153.601562v59.730469h-204.800781v-59.730469c-.015625-8.636718 1.074219-17.242187 3.242188-25.601562h198.3125c.683593 2.464844 1.199219 4.972656 1.539062 7.507812 1.179688 5.957032 1.75 12.019532 1.707031 18.09375zm0 0" fill="#02a9f4"/><path d="m409.601562 153.601562v59.730469h-166.488281c30.976563-31.402343 81.835938-62.804687 164.78125-77.824219 1.179688 5.957032 1.75 12.019532 1.707031 18.09375zm0 0" fill="#0377bc"/><path d="m315.734375 392.535156h-17.066406c-80.082031-.089844-144.980469-64.988281-145.066407-145.070312v-221.863282c.015626-14.132812 11.464844-25.585937 25.597657-25.601562h256c14.132812.015625 25.585937 11.46875 25.601562 25.601562v221.863282c-.089843 80.082031-64.988281 144.980468-145.066406 145.070312zm-136.535156-375.46875c-4.710938.003906-8.527344 3.824219-8.53125 8.535156v221.863282c.078125 70.660156 57.339843 127.921875 128 128h17.066406c70.660156-.078125 127.921875-57.339844 128-128v-221.863282c-.003906-4.710937-3.824219-8.53125-8.535156-8.535156zm0 0"/><path d="m409.601562 512h-204.800781c-14.132812-.015625-25.585937-11.46875-25.601562-25.601562v-159.230469c0-4.710938 3.820312-8.535157 8.535156-8.535157 4.710937 0 8.53125 3.824219 8.53125 8.535157v159.230469c.003906 4.710937 3.824219 8.53125 8.535156 8.535156h204.800781c4.710938-.003906 8.527344-3.824219 8.53125-8.535156v-159.230469c0-4.710938 3.820313-8.535157 8.535157-8.535157 4.710937 0 8.53125 3.824219 8.53125 8.535157v159.230469c-.015625 14.132812-11.46875 25.585937-25.597657 25.601562zm0 0"/><path d="m307.199219 349.867188c-61.238281-.070313-110.863281-49.695313-110.933594-110.933594v-85.332032c0-61.269531 49.667969-110.933593 110.933594-110.933593s110.933593 49.664062 110.933593 110.933593v85.332032c-.070312 61.238281-49.695312 110.863281-110.933593 110.933594zm0-290.132813c-51.816407.058594-93.808594 42.050781-93.867188 93.867187v85.332032c0 51.839844 42.027344 93.867187 93.867188 93.867187 51.84375 0 93.867187-42.027343 93.867187-93.867187v-85.332032c-.058594-51.816406-42.050781-93.808593-93.867187-93.867187zm0 0"/><path d="m406.355469 136.535156h-198.3125c-4.714844 0-8.535157-3.824218-8.535157-8.535156s3.820313-8.535156 8.535157-8.535156h198.3125c4.714843 0 8.535156 3.824218 8.535156 8.535156s-3.820313 8.535156-8.535156 8.535156zm0 0"/><path d="m409.601562 221.867188h-204.800781c-4.714843 0-8.535156-3.820313-8.535156-8.535157v-59.730469c0-4.714843 3.820313-8.535156 8.535156-8.535156 4.710938 0 8.53125 3.820313 8.53125 8.535156v51.199219h187.734375v-51.199219c0-4.714843 3.820313-8.535156 8.535156-8.535156 4.710938 0 8.53125 3.820313 8.53125 8.535156v59.730469c0 4.714844-3.820312 8.535157-8.53125 8.535157zm0 0"/><path d="m238.933594 153.601562c-3.449219-.003906-6.5625-2.082031-7.882813-5.269531-1.320312-3.1875-.589843-6.859375 1.847657-9.296875l17.070312-17.066406c3.347656-3.234375 8.667969-3.191406 11.960938.101562 3.292968 3.292969 3.335937 8.613282.101562 11.960938l-17.066406 17.070312c-1.597656 1.601563-3.769532 2.5-6.03125 2.5zm0 0"/><path d="m256 187.734375c-3.449219 0-6.5625-2.082031-7.882812-5.269531-1.320313-3.1875-.589844-6.859375 1.851562-9.296875l51.199219-51.199219c3.347656-3.234375 8.667969-3.191406 11.960937.101562 3.292969 3.292969 3.339844 8.613282.105469 11.960938l-51.203125 51.203125c-1.597656 1.601563-3.769531 2.5-6.03125 2.5zm0 0"/><path d="m162.132812 110.933594h-51.199218c-4.714844 0-8.535156-3.820313-8.535156-8.535156v-68.265626c0-4.710937 3.820312-8.53125 8.535156-8.53125h51.199218c4.714844 0 8.535157 3.820313 8.535157 8.53125v68.265626c0 4.714843-3.820313 8.535156-8.535157 8.535156zm-42.667968-17.066406h34.136718v-51.199219h-34.136718zm0 0"/><path d="m93.867188 136.535156c-14.132813-.015625-25.585938-11.46875-25.601563-25.601562v-85.332032c0-14.140624 11.460937-25.601562 25.601563-25.601562 14.136718 0 25.597656 11.460938 25.597656 25.601562v85.332032c-.015625 14.132812-11.464844 25.585937-25.597656 25.601562zm0-119.46875c-4.710938.003906-8.53125 3.824219-8.535157 8.535156v85.332032c0 4.710937 3.820313 8.53125 8.535157 8.53125 4.710937 0 8.53125-3.820313 8.53125-8.53125v-85.332032c-.003907-4.710937-3.820313-8.53125-8.53125-8.535156zm0 0"/><path d="m76.800781 102.398438h-59.734375c-9.421875-.007813-17.0546872-7.644532-17.066406-17.066407v-34.132812c.0117188-9.421875 7.644531-17.054688 17.066406-17.066407h59.734375c4.710938 0 8.53125 3.820313 8.53125 8.535157v51.199219c0 4.710937-3.820312 8.53125-8.53125 8.53125zm-59.734375-51.199219v34.132812h51.199219v-34.132812zm0 0"/></svg>