<svg xmlns="http://www.w3.org/2000/svg" id="svg-icon" viewBox="0 0 464.002 464.002">
  <circle cx="160" cy="164.001" r="160" fill="#f15a24" />
  <path
    d="M161.728 300.689a8 8 0 007.96 7.312c.232.012.464.012.696 0a8 8 0 007.28-8.656 167.452 167.452 0 00-42.992-98.704L160 175.313l26.344 26.344a8 8 0 0011.312-11.312l-26.344-26.344 25.416-25.416a169.496 169.496 0 0031.384 22.576 8.004 8.004 0 107.776-13.992 152.452 152.452 0 01-27.832-19.92l70.464-70.448a159.47 159.47 0 00-11.312-11.312l-70.48 70.512a151.53 151.53 0 01-38.624-90.88l-1.44-20.08a6.147 6.147 0 00-.232-.856c-5.264.112-10.472.456-15.608 1.072a8.868 8.868 0 00-.12.92l1.44 20.08A167.443 167.443 0 00185.4 127.289l-25.4 25.4L52.8 45.473a156.505 156.505 0 00-11.32 11.328l107.208 107.2-25.336 25.336a167.48 167.48 0 00-101.096-43.2l-20.08-1.432c-.309.02-.616.06-.92.12-.616 5.128-.96 10.328-1.072 15.592.281.096.566.176.856.24l20.08 1.432A151.63 151.63 0 01112 200.665l-70.52 70.536a161.819 161.819 0 0011.312 11.312l70.56-70.512a151.575 151.575 0 0138.376 88.688z" />
  <path
    d="M179.568 300.001c-17.665-77.542 30.875-154.723 108.418-172.388s154.723 30.875 172.388 108.418c17.665 77.542-30.875 154.723-108.418 172.388A144.059 144.059 0 01336 411.121"
    fill="#e6e6e6" />
  <path
    d="M462.992 251.561a143.204 143.204 0 00-23.272-63.56 145.06 145.06 0 00-12.6-16H416a8 8 0 00-7.688 5.808l-15.048 52.648-24.464 12.488-40.8-27.2v-31.576l44.592-31.2a8 8 0 003.128-8.664l-2.76-10.096a144.451 144.451 0 00-105.2-.264l-3.344 9.912a8 8 0 002.992 9.112l44.592 31.2v31.552l-40.936 27.288-32.912-13.168-14.72-36.8a8.056 8.056 0 00-3.856-4.192l-14.552-7.248a142.737 142.737 0 00-28.6 78.016c-.16 2.8-.424 5.6-.424 8.416 0 3.056.12 6.088.304 9.096l12.12 6.064a8 8 0 009.232-1.504l36.272-36.264 31.464 12.584 14.92 52.216a8 8 0 007.688 5.776h60.688l17.6 17.6-21.424 42.848a8 8 0 00.936 8.608l16.6 20.544a142.682 142.682 0 0082.4-65.936l-5.6-11.24a8 8 0 00-7.2-4.424h-52.688l-18.328-18.328 13.6-47.72 24.848-12.696 44.096 29.4a8.002 8.002 0 008 .504l12.376-6.192c0-.328.048-.64.048-.968a144.746 144.746 0 00-.96-16.44z"
    fill="#1a1a1a" />
  <path
    d="M31.424 399.569l25.736 19.296a205.6 205.6 0 00123.392 41.136h22.896a205.6 205.6 0 00123.392-41.136l25.736-19.296c7.07-5.301 8.503-15.33 3.202-22.4a16.062 16.062 0 00-1.986-2.192l-22.816-20.92A205.688 205.688 0 00192 300.001a205.688 205.688 0 00-138.976 54.056l-22.816 20.92c-6.512 5.973-6.949 16.094-.976 22.606a15.938 15.938 0 002.192 1.986z"
    fill="#ff902a" />
  <g fill="#42210b">
    <path d="M264 388.001H104a8 8 0 010-16h160a8 8 0 010 16z" />
    <path
      d="M120 404.001a8 8 0 01-8-8v-32a8 8 0 0116 0v32a8 8 0 01-8 8zM152 404.001a8 8 0 01-8-8v-32a8 8 0 0116 0v32a8 8 0 01-8 8zM184 404.001a8 8 0 01-8-8v-32a8 8 0 0116 0v32a8 8 0 01-8 8zM216 404.001a8 8 0 01-8-8v-32a8 8 0 0116 0v32a8 8 0 01-8 8zM248 404.001a8 8 0 01-8-8v-32a8 8 0 0116 0v32a8 8 0 01-8 8z" />
  </g>
</svg>
