<svg xmlns="http://www.w3.org/2000/svg" id="svg-icon" viewBox="0 0 512 512">
  <path d="M276.069 432l-4.329-10.82L251.27 370a25.993 25.993 0 01.25-19.9l19.75-46.1h40l-24 64 17.56 42.15L310.6 424z"
    fill="#fdc9a6" />
  <path d="M327.27 464l-56 24-1.67-5.01a40.941 40.941 0 014.78-35.65l4.89-7.34-7.53-18.82 33.09-11.03z"
    fill="#428dc5" />
  <path
    d="M223.273 200h64v32h-64zM413.43 202.5l25.693 2.282a14.114 14.114 0 016.5 20.932c-3.431 5.347-9.625 5.8-16.984 5.275l-29.368-3.747z"
    fill="#fdc9a6" />
  <path
    d="M258.625 136h41.265A28.11 28.11 0 00328 107.89a28.11 28.11 0 00-8.532-20.171l-.642-.623a69.409 69.409 0 01-17.711-29.37A48.022 48.022 0 00255.273 24a48 48 0 00-48 48v12.648A51.352 51.352 0 00258.625 136z"
    fill="#4799cf" />
  <path d="M295.26 120L288 144h-64v-29.82l7.27-1.04 6.33-.9 1.67-.24V96h32v16l1.44.48 6.56 2.19z" fill="#fdc9a6" />
  <path
    d="M413.43 202.5l-14.01 24.52-.15.22-46.335-10.85a6 6 0 01-2.874-1.6L295.27 160l8 40a314.76 314.76 0 01-51.71 4.28 313.982 313.982 0 01-44.46-3.16l-7.83-1.12 8-56-26.86 5.37a20.011 20.011 0 01-20.57-8.51l-30.79-46.19L153.94 76l29.33 44 48-6.86V120a24 24 0 1048 0v-5.33l34.75 11.58a19.886 19.886 0 018.86 5.96L367.27 184z"
    fill="#d6466f" />
  <g fill="#f55648">
    <path d="M88 360h16v16H88zM72 376h16v16H72zM104 376h16v16h-16zM88 392h16v16H88z" />
  </g>
  <path d="M432 32h16v16h-16zM408 56h16v16h-16zM456 56h16v16h-16zM432 80h16v16h-16z" fill="#f3af3e" />
  <path d="M255.273 112a24 24 0 0024-24V64h-48v24a24 24 0 0024 24z" fill="#fdc9a6" />
  <path d="M272.71 112.48a23.99 23.99 0 01-35.11-.24l1.67-.24V96h32v16z" fill="#f6bb92" />
  <path
    d="M129.05 94.67L115.5 74.34a15.529 15.529 0 1125.84-17.23L153.94 76zM196.81 408l-3.49-11.35-21.44-69.69a25.981 25.981 0 016.46-26.03L199.27 280l40 16-32 32 16.7 58.43 3.876 13.57z"
    fill="#fdc9a6" />
  <path d="M239.27 440l-56 24a40.937 40.937 0 019.89-41.89l6.11-6.11-5.95-19.35 30.65-10.22z" fill="#428dc5" />
  <path
    d="M64 160l-4.686 9.373A61.074 61.074 0 0124 200a61.074 61.074 0 0135.314 30.627L64 240l4.686-9.373A61.074 61.074 0 01104 200a61.074 61.074 0 01-35.314-30.627z"
    fill="#fbb540" />
  <path
    d="M448 312l-4.686 9.373A61.074 61.074 0 01408 352a61.074 61.074 0 0135.314 30.627L448 392l4.686-9.373A61.074 61.074 0 01488 352a61.074 61.074 0 01-35.314-30.627z"
    fill="#fd9226" />
  <path
    d="M136.006 320a8 8 0 01-7.161-4.424 43.984 43.984 0 010-39.156 8 8 0 0114.31 7.156 27.917 27.917 0 000 24.844 8 8 0 01-7.149 11.58zM107.783 320a8 8 0 01-7.161-4.424 43.984 43.984 0 010-39.156 8 8 0 0114.311 7.156 27.91 27.91 0 000 24.844 8 8 0 01-7.15 11.58zM396.058 163.045a8 8 0 01-5.819-13.488 27.909 27.909 0 007.16-23.79 8 8 0 1115.766-2.728 43.986 43.986 0 01-11.285 37.495 7.975 7.975 0 01-5.822 2.511zM423.085 171.179a8 8 0 01-5.82-13.488 27.916 27.916 0 007.16-23.791 8 8 0 1115.765-2.727 43.986 43.986 0 01-11.283 37.494 7.979 7.979 0 01-5.822 2.512z"
    fill="#c0f5f9" />
  <path d="M255.273 112a24 24 0 0024-24V64h-48v24a24 24 0 0024 24z" fill="#fdc9a6" />
  <path d="M335.273 312a277.865 277.865 0 01-151.911-27.955L175.273 280l48-48h64z" fill="#b94137" />
</svg>
