<svg xmlns="http://www.w3.org/2000/svg" id="svg-icon" viewBox="0 0 512 512">
  <path
    d="M142.19 424.084H58.233c-9.864 0-18.798-4.002-25.265-10.47-6.457-6.458-10.459-15.391-10.459-25.256v-35.724h97.436V280.62c0-46.017 27.01-87.729 68.942-106.568h134.227c41.931 18.839 68.942 60.551 68.942 106.568v72.014h97.436v35.725c0 9.864-4.002 18.798-10.459 25.255-6.468 6.468-15.402 10.47-25.265 10.47H369.81l-98.534 32.309-129.086-32.309z"
    fill="#f9dca2" />
  <path
    d="M357.906 352.635v-77.961l-5.338-81.606a116.606 116.606 0 00-29.454-19.017l6.583 100.623V383.97c0 22.162 17.951 40.113 40.113 40.113h10.354l.004.002h41.179v-47.083c0-13.459 10.909-24.367 24.356-24.367h-87.797z"
    fill="#e5c691" />
  <path
    d="M329.696 307.16v76.81c0 22.162 17.951 40.113 40.113 40.113l-98.534 32.309-129.085-32.308c22.162 0 40.113-17.951 40.113-40.113v-76.81h-62.359v-26.54c0-46.017 27.01-87.729 68.942-106.568h134.227c41.931 18.839 68.942 60.551 68.942 106.568v26.54h-62.359z"
    fill="#0387d8" />
  <path
    d="M369.809 424.085h-8.882c-22.162 0-40.113-17.951-40.113-40.113V274.676l-.543-8.328h9.425v117.625c0 22.162 17.95 40.112 40.113 40.112z"
    fill="#0075af" />
  <g fill="#455256">
    <path
      d="M270.897 511.997H111.966c-24.276 0-43.954-19.679-43.954-43.954 0-24.276 19.679-43.954 43.954-43.954h202.886v43.954c-.001 24.274-19.68 43.954-43.955 43.954z" />
    <path
      d="M241.104 424.087H400.033c24.269 0 43.954 19.686 43.954 43.954 0 12.134-4.929 23.116-12.883 31.071s-18.938 12.885-31.072 12.885H241.103" />
  </g>
  <path d="M192.351 177.042C193.625 211.094 221.636 238.3 256 238.3c34.364 0 62.375-27.206 63.649-61.258"
    fill="#d1b182" />
  <path
    d="M432.945 491.623H144.878c-24.276 0-43.954-19.68-43.954-43.954 0-8.59 2.473-16.597 6.732-23.367-22.252 2.165-39.645 20.92-39.645 43.741 0 24.275 19.679 43.954 43.954 43.954h288.067c12.134 0 23.116-4.929 31.071-12.884a44.284 44.284 0 006.139-7.703 44.218 44.218 0 01-4.297.213z"
    fill="#2f3c3f" />
  <path d="M235.572 385.432H220.31v43.879l53.917-5.224c0-21.348-17.305-38.655-38.655-38.655z" fill="#e5c691" />
  <circle cx="255.998" cy="99.965" r="99.965" fill="#f9dca2" />
  <path
    d="M215.594 99.961c0-44.836 29.519-82.777 70.183-95.45A99.929 99.929 0 00255.999 0c-55.207 0-99.961 44.754-99.961 99.961s44.754 99.961 99.961 99.961a99.966 99.966 0 0029.778-4.511c-40.664-12.673-70.183-50.614-70.183-95.45z"
    fill="#e5c691" />
  <path
    d="M355.954 99.957c0 6.678-.658 13.197-1.902 19.498-20.062-3.532-38.034-13.072-52.046-26.666A99.612 99.612 0 01256 104c-14.357 0-27.982-3.041-40.312-8.495a91.459 91.459 0 01-5.695-2.717c-14.012 13.594-31.995 23.134-52.057 26.666a100.674 100.674 0 01-1.902-19.498c0-55.202 44.753-99.954 99.965-99.954 10.365 0 20.365 1.579 29.769 4.505 40.668 12.675 70.186 50.614 70.186 95.45z"
    fill="#455256" />
  <path
    d="M285.769 4.508c-39.309 12.256-68.2 48.117-70.081 91a91.459 91.459 0 01-5.695-2.717c-14.012 13.594-31.995 23.134-52.056 26.666a100.674 100.674 0 01-1.902-19.498C156.035 44.757 200.788.005 256 .005a99.987 99.987 0 0129.769 4.503z"
    fill="#2f3c3f" />
  <path
    d="M239.49 157.727h-16.51c-4.328 0-7.837-3.508-7.837-7.837s3.509-7.837 7.837-7.837h16.51c4.328 0 7.837 3.508 7.837 7.837s-3.509 7.837-7.837 7.837z"
    fill="#455256" />
  <path
    d="M314.848 424.084v43.959a43.703 43.703 0 01-6.865 23.582C300.188 503.872 286.49 512 270.89 512h-69.778v-87.917h113.736v.001z"
    fill="#f9dca2" />
  <g fill="#e5c691">
    <path
      d="M90.656 376.999v47.085H58.233c-9.864 0-18.798-4.002-25.265-10.47-6.457-6.458-10.459-15.391-10.459-25.256v-35.724h43.783c13.456 0 24.364 10.908 24.364 24.365zM307.983 491.625C300.189 503.872 286.49 512 270.89 512h-69.778v-20.375h106.871z" />
  </g>
  <path
    d="M289.019 157.727h-16.51c-4.329 0-7.837-3.508-7.837-7.837s3.508-7.837 7.837-7.837h16.51c4.329 0 7.837 3.508 7.837 7.837s-3.508 7.837-7.837 7.837z"
    fill="#455256" />
  <g fill="#0075af">
    <path
      d="M182.304 274.675v109.649c0 21.961-17.803 39.763-39.763 39.763h-39.648 98.22V293.483c-.001-10.387-8.422-18.808-18.809-18.808zM329.696 266.348h4.051c13.343 0 24.16 10.817 24.16 24.16v16.651h-33.435l5.224-40.811z" />
  </g>
</svg>
