<svg xmlns="http://www.w3.org/2000/svg" id="svg-icon" viewBox="0 0 256 256">
  <path
    d="M164.44 131.423L159 96.333l-1.806-28.644a12.61 12.61 0 00-8.433-11.114l-2.011-.701-.173 16.821 2.09 27.304L159 133l-4.95 16.964a2.409 2.409 0 004.456 1.603l3.117-5.325a22.51 22.51 0 002.817-14.819zM109.146 72.696l-.173-16.821-2.011.701a12.61 12.61 0 00-8.433 11.114l-1.806 28.644-5.44 35.09a22.509 22.509 0 002.818 14.819l3.117 5.325a2.408 2.408 0 004.456-1.603L96.723 133l10.333-33z"
    fill="#f5d3a6" />
  <path
    d="M145.181 92.701l2.569-21.451V55.875L133.298 53l-10.942-.016-14.383 2.891V71.25l2.569 21.451c.531 3.192.719 6.418.606 9.63h33.429a48.241 48.241 0 01.604-9.63z"
    fill="#7f8b4b" />
  <path
    d="M146.837 115.398a48.308 48.308 0 01-2.261-13.066h-33.429a48.308 48.308 0 01-2.261 13.066c-.047.147-.086.296-.132.443h38.214c-.045-.148-.084-.297-.131-.443zM108.994 193.421c.156 7.613.934 15.2 2.326 22.686l3.537 19.013-2.125 5.981-2.516 4.323a2.838 2.838 0 001.413 4.069l3.449 1.358c.23.09 5.524.732 5.524.732a2.84 2.84 0 003.16-2.964l-.416-8.213-1.894-12.668 1.251-9.321a139.691 139.691 0 00.995-26.885l-.207-3.481-14.606.1zM132.023 191.532a139.685 139.685 0 00.995 26.885l1.251 9.321-1.894 12.668-.416 8.213a2.84 2.84 0 003.16 2.964s5.294-.642 5.524-.732l3.449-1.358a2.838 2.838 0 001.413-4.069l-2.516-4.323-2.125-5.981 3.537-19.013a139.53 139.53 0 002.326-22.686l.112-5.484-14.61.1z"
    fill="#f5d3a6" />
  <path
    d="M149.064 131.6a47.274 47.274 0 00-2.095-15.759h-38.214a47.248 47.248 0 00-2.095 15.759l2.065 48.63.162 7.921 14.606-.1-.281-4.717L128 148l4.511 35.334-.28 4.704 14.61-.1.158-7.708z"
    fill="#514654" />
  <path
    d="M127.745 10.795c-7.646 0-13.844 7.276-13.844 16.252 0 1.15.103 2.341.297 3.544 1.401-7.235 6.961-12.572 13.548-12.572 6.585 0 12.205 4.928 13.608 12.159.152-1.062.236-2.112.236-3.13 0-8.977-6.199-16.253-13.845-16.253z"
    fill="#704c0f" />
  <path d="M121.283 43.617v12.35a6.462 6.462 0 1012.924 0v-12.35z" fill="#f0c792" />
  <path
    d="M119.698 13.826c2.268-1.906 5.045-3.031 8.047-3.031 3.019 0 5.811 1.138 8.086 3.064h.006c.129-.582.335-1.239.335-1.86a8.427 8.427 0 00-16.854 0c0 .672.225 1.201.373 1.828h.007z"
    fill="#704c0f" />
  <path
    d="M127.745 18.018c-6.587 0-12.147 5.338-13.548 12.572 1.317 8.187 6.881 16.922 13.548 16.922 6.779 0 12.416-9.032 13.608-17.336-1.402-7.23-7.023-12.158-13.608-12.158z"
    fill="#f5d3a6" />
  <g fill="#5e400d">
    <path
      d="M122.335 12.083c-.14.07-.277.145-.414.22-1.589 3.197-1.863 6.372-1.83 8.387.088-.068.177-.135.266-.201-.012-2.062.312-5.243 1.978-8.406zM123.468 11.589a8.567 8.567 0 00-.301.12c-.635 2.939-.451 5.594-.186 7.285.085-.036.17-.069.256-.103-.261-1.702-.435-4.364.231-7.302zM133.283 12.151c1.609 2.562 3.48 6.234 3.709 9.718.077.075.156.147.231.224a.128.128 0 00.048-.104c-.182-3.403-1.932-6.989-3.52-9.59a13.035 13.035 0 00-.468-.248zM133.568 19.399c.106.053.206.116.31.172l-.023-.121c-.581-2.924-2.687-6.451-4.021-8.471-.118-.021-.239-.036-.358-.053 1.295 1.938 3.47 5.51 4.092 8.473z" />
    <path
      d="M135.831 13.859h.006c.078-.355.181-.737.253-1.122-2.321-2.061-5.21-3.285-8.345-3.285-3.131 0-6.018 1.221-8.337 3.279.079.365.193.713.284 1.096h.007c2.268-1.906 5.045-3.031 8.047-3.031 3.019-.001 5.81 1.137 8.085 3.063z" />
  </g>
</svg>
