<svg viewBox="0 0 512 512" xmlns="http://www.w3.org/2000/svg" data-name="Layer 1"><path d="m388.441 92.229a6 6 0 0 1 -4.241-10.243l66.37-66.371a6 6 0 0 1 8.485 8.485l-66.371 66.371a5.979 5.979 0 0 1 -4.243 1.758z" fill="#d4e1f4"/><path d="m501 360.71a41.846 41.846 0 0 1 -4.26 18.38l-21.85 44.74-75.43-36.82 21.84-44.75a41.98 41.98 0 0 1 79.7 18.45z" fill="#eb7288"/><path d="m485.35 69.32c2.9 6.13 4.89 11.12 4.89 17.97a27.855 27.855 0 0 1 -55.71 0c0-6.85 2.34-12.55 4.89-17.97 4.51-9.57 22.97-36.77 22.97-36.77s18.39 27.14 22.96 36.77z" fill="#6addc7"/><path d="m474.89 423.83-21.84 44.74a41.968 41.968 0 1 1 -75.43-36.82l21.84-44.74z" fill="#d4e1f4"/><path d="m413.48 299.18a41.9 41.9 0 0 1 -4.27 18.39l-21.84 44.74-75.43-36.83 21.84-44.74a41.98 41.98 0 0 1 79.7 18.44z" fill="#eb7288"/><path d="m387.37 362.31-21.84 44.74a41.973 41.973 0 0 1 -75.44-36.82l21.85-44.75z" fill="#d4e1f4"/><path d="m164.46 391.69-81.48-81.48a13.315 13.315 0 1 0 -18.83 18.83l81.48 81.48a13.315 13.315 0 1 0 18.83-18.83z" fill="#6d7486"/><path d="m83.49 442.87-51.69-51.69a12.183 12.183 0 0 0 -17.23 17.23l51.69 51.69a12.183 12.183 0 0 0 17.23-17.23z" fill="#6d7486"/><path d="m331.55 187.67-47.05-47.06a15.481 15.481 0 0 0 -21.87 0l-174.62 174.63 68.92 68.92 174.62-174.62a15.463 15.463 0 0 0 0-21.87zm-59.46-26.27a.488.488 0 0 1 -.69-.69.488.488 0 1 1 .69.69z" fill="#8a7fa5"/><path d="m355.72 142.86-26.41-26.42a11.781 11.781 0 0 0 -16.66 0l-26.16 26.17 43.07 43.07 26.16-26.16a11.763 11.763 0 0 0 0-16.66z" fill="#baabd4"/><path d="m387.19 84.98a18.251 18.251 0 0 1 0 25.84l-31.75 31.76-25.85-25.85 31.76-31.75a18.264 18.264 0 0 1 25.84 0z" fill="#8a7fa5"/><path d="m113.51 378.4-47.25 47.24-17.23-17.23 47.24-47.25z" fill="#b0b5ca"/><path d="m304.455 160.57-19.955-19.96a15.481 15.481 0 0 0 -21.87 0l-174.62 174.63 20 20 174.62-174.63a15.479 15.479 0 0 1 21.825-.04zm-32.365.83a.488.488 0 0 1 -.69-.69.488.488 0 1 1 .69.69z" fill="#756d8c"/><path d="m332.65 136.44a11.779 11.779 0 0 1 16.58-.073l-19.92-19.927a11.781 11.781 0 0 0 -16.66 0l-26.16 26.17 43.07 43.07-23.07-23.07z" fill="#a296bc"/><path d="m392.457 99.717c.06-.6.093-1.21.093-1.817a18.28 18.28 0 0 0 -31.2-12.92l-31.76 31.75 20 20 31.76-31.75a18.174 18.174 0 0 1 11.107-5.263z" fill="#756d8c"/><g fill="#baabd4"><path d="m291.777 200.122a6 6 0 1 0 -8.484 8.484l25.847 25.847 8.484-8.484z"/><path d="m249.85 242.051a6 6 0 0 0 -8.485 8.484l25.846 25.846 8.489-8.481z"/><path d="m283.736 234.009a6 6 0 0 0 -8.484 8.486l12.924 12.923 8.484-8.486z"/><path d="m207.922 283.979a6 6 0 0 0 -8.484 8.484l25.845 25.846 8.485-8.485z"/><path d="m241.809 275.938a6 6 0 0 0 -8.485 8.484l12.923 12.923 8.484-8.485z"/><path d="m165.994 325.906a6 6 0 0 0 -8.484 8.485l25.845 25.845 8.485-8.484z"/><path d="m199.881 317.865a6 6 0 0 0 -8.485 8.485l12.923 12.922 8.485-8.484z"/></g><g fill="#f4f8fc"><path d="m273 168.791a6.49 6.49 0 0 1 0-12.979h.009a6.49 6.49 0 0 1 0 12.979z"/><path d="m193.618 248.373a6 6 0 0 1 -4.242-10.242l67.624-67.623a6 6 0 0 1 8.484 8.484l-67.624 67.623a5.979 5.979 0 0 1 -4.242 1.758z"/><path d="m339.718 314.828a6 6 0 0 1 -5.387-8.633l8.009-16.4a35.46 35.46 0 0 1 20.46-18.095 6 6 0 1 1 3.9 11.348 23.535 23.535 0 0 0 -13.583 12.008l-8.009 16.405a6 6 0 0 1 -5.39 3.367z"/><path d="m427.243 376.353a6 6 0 0 1 -5.387-8.633l8.008-16.406a35.446 35.446 0 0 1 20.464-18.091 6 6 0 1 1 3.9 11.347 23.541 23.541 0 0 0 -13.583 12.008l-8.007 16.405a6 6 0 0 1 -5.395 3.37z"/></g></svg>