<svg id="svg-icon" viewBox="0 0 497 497" xmlns="http://www.w3.org/2000/svg"><path d="M233.708 89.71h72.009v53.79h-72.009z" fill="#e9edf1"/><path d="M305.72 89.71v48.26l-37.497 10.892-34.513-10.892v-20h47.01a5 5 0 005-5V89.71l9.312-10.04z" fill="#dce6eb"/><path d="M149.664 201.975l84.043-64.005h72.009l61.702 46.991 15.221 21.264a20 20 0 017.883 15.913l2.118 246.551c0 11.047-8.955 20.003-20.003 20.003l-199.307 4.173c-11.047 0-20.003-8.955-20.003-20.003L141.781 467v-32.11l14.613-98.879-14.613-79.921v-38.201c0-6.245 2.916-12.13 7.883-15.914z" fill="#c3ddff"/><path d="M397.64 217.89V477c0 11.04-8.95 20-20 20H161.78c-11.04 0-20-8.96-20-20v-10h205.86c11.05 0 20-8.96 20-20V187.89c0-.99-.07-1.97-.22-2.93l22.34 17.02c4.97 3.78 7.88 9.66 7.88 15.91z" fill="#a4ccff"/><path d="M338.894 0H121.991c-5.524 0-10.001 4.478-10.001 10.001v25.195c0 5.524 4.478 10.001 10.001 10.001h75.669c5.524 0 10.001 4.478 10.001 10.001V71.25l3.115 8.42c0 5.524 4.478 10.001 10.001 10.001l97.488-3.618c5.524 0 10.001-4.478 10.001-10.001V50.006c0-5.524 4.645-7.584 10.169-7.584h2.979c5.524 0 10.001-4.478 10.001-10.001l-2.521-22.419c.002-5.524-4.476-10.002-10-10.002z" fill="#f7f9fa"/><path d="M354.74 10v25.2c0 5.52-4.47 10-10 10h-2.98c-5.52 0-10 4.48-10 10v26.04c0 5.53-4.47 10.01-10 10.01h-104.1c-5.52 0-10-4.48-10-10.01v-9.99h94.1c5.53 0 10-4.48 10-10.01V35.2c0-5.52 4.48-10 10-10h2.98c5.53 0 10-4.48 10-10V0h10c5.53 0 10 4.48 10 10z" fill="#e9edf1"/><path d="M395.643 434.887H143.781a2 2 0 01-2-2V258.09a2 2 0 012-2h251.863a2 2 0 012 2L382.64 349.2l15.003 83.687a2 2 0 01-2 2z" fill="#f7f9fa"/><path d="M397.64 258.09v174.8a2 2 0 01-2 2h-28v-178.8h28a2 2 0 012 2z" fill="#e9edf1"/><path d="M215.22 357.647v-22.661a7.554 7.554 0 017.553-7.554h25.226a2 2 0 002-2v-26.881a7.553 7.553 0 017.554-7.553h14.21l4.396 4.438a7.554 7.554 0 017.554 7.554l4.054 22.443a2 2 0 002 2h26.881a7.554 7.554 0 017.554 7.553V349.2l-6.616 6.385a7.553 7.553 0 01-7.553 7.553l-23.085-3.639a2 2 0 00-2 2l.638 28.298a7.553 7.553 0 01-7.554 7.553l-6.269 2.628h-14.211a7.554 7.554 0 01-7.554-7.554v-25.225a2 2 0 00-2-2h-25.225a7.55 7.55 0 01-7.553-7.552z" fill="#e5646e"/><path d="M271.763 291v34.43a2 2 0 002 2h16a2 2 0 01-2-2v-26.88a7.55 7.55 0 00-7.55-7.55zM271.763 351.2v48.78h8.45a7.55 7.55 0 007.55-7.55V367.2c0-1.1.9-2 2-2h26.89a7.55 7.55 0 007.55-7.55v-8.45h-50.44c-1.1 0-2 .9-2 2z" fill="#db4655"/><path d="M160.202 127.902c0 16.802-13.621 30.423-30.423 30.423s-30.423-13.621-30.423-30.423c0-13.991 21.096-39.647 28.154-47.839a2.99 2.99 0 014.538 0c7.058 8.192 28.154 33.848 28.154 47.839z" fill="#c3ddff"/><path d="M160.2 127.9c0 16.8-13.62 30.42-30.42 30.42-15.69 0-28.61-11.89-30.24-27.15 3.48 1.39 7.27 2.15 11.24 2.15 16.8 0 30.42-13.62 30.42-30.42 0-6.28-4.24-14.89-9.55-23.23.14.12.28.25.4.39 7.06 8.2 28.15 33.85 28.15 47.84z" fill="#a4ccff"/></svg>