<svg id="svg-icon" xmlns="http://www.w3.org/2000/svg" viewBox="-107 0 512 512.001"><path d="M264.258 0H41.289a8.258 8.258 0 00-8.258 8.258v33.031h239.485V8.258A8.255 8.255 0 00264.258 0zm0 0" fill="#edebed"/><path d="M123.871 8.258V0H41.29a8.258 8.258 0 00-8.258 8.258v33.031h239.485V16.516H132.129a8.258 8.258 0 01-8.258-8.258zm0 0" fill="#dbd9dc"/><path d="M272.516 33.031H24.773a8.26 8.26 0 00-8.257 8.258v41.29h264.257v-41.29a8.258 8.258 0 00-8.257-8.258zm0 0" fill="#edebed"/><path d="M24.773 33.031h99.098v41.29H16.516V41.288a8.26 8.26 0 018.257-8.258zm0 0M140.387 33.031h16.515v49.547h-16.515zm0 0" fill="#dbd9dc"/><path d="M107.355 33.031h16.516v49.547h-16.516zm0 0M74.324 33.031H90.84v49.547H74.324zm0 0M41.29 33.031h16.515v49.547H41.289zm0 0" fill="#c9c6ca"/><path d="M239.484 33.031H256v49.547h-16.516zm0 0M206.453 33.031h16.516v49.547h-16.516zm0 0M173.418 33.031h16.516v49.547h-16.516zm0 0" fill="#dbd9dc"/><path d="M33.031 115.613v388.13A8.26 8.26 0 0041.29 512H256c4.563 0 8.258-3.7 8.258-8.258V115.613zm0 0" fill="#ffaa5f"/><path d="M132.129 437.676h132.129V189.934h-132.13c-9.12 0-16.515 7.394-16.515 16.515V421.16c0 9.121 7.395 16.516 16.516 16.516zm0 0" fill="#edebed"/><path d="M239.484 239.484a8.255 8.255 0 00-8.257 8.258v41.29h-41.29a8.258 8.258 0 00-8.257 8.257v33.031a8.255 8.255 0 008.257 8.258h41.29v41.293a8.258 8.258 0 008.257 8.258h24.774V239.484zm0 0" fill="#ff8087"/><path d="M272.516 115.613H24.773a8.26 8.26 0 01-8.257-8.258V82.582h264.257v24.773a8.258 8.258 0 01-8.257 8.258zm0 0" fill="#ffaa5f"/><path d="M289.031 90.84H8.258A8.258 8.258 0 010 82.582a8.255 8.255 0 018.258-8.258H289.03a8.253 8.253 0 018.258 8.258 8.255 8.255 0 01-8.258 8.258zm0 0" fill="#edebed"/><path d="M99.098 462.453V165.16c0-18.242 14.789-33.031 33.03-33.031h132.13v-16.516H33.03v388.13c0 4.562 3.7 8.257 8.258 8.257H256a8.255 8.255 0 008.258-8.258v-8.258h-132.13c-18.241 0-33.03-14.789-33.03-33.03zm0 0" fill="#ff8c5a"/><path d="M8.258 90.84H123.87V74.324H8.258a8.258 8.258 0 000 16.516zm0 0" fill="#dbd9dc"/></svg>