<svg height="512" viewBox="0 0 64 64" width="512" xmlns="http://www.w3.org/2000/svg" id="svg-icon"><path d="M51 41V10a4 4 0 00-4-4h6a4 4 0 014 4v31a3 3 0 11-6 0z" fill="#353744"/><path d="M56 44h-2c-.353 0-.686-.072-1-.184V48c0 2.953-1.613 5.532-4 6.917V56a4 4 0 01-4 4c6.617 0 12-5.383 12-12v-4.184A2.962 2.962 0 0156 44z" fill="gray"/><path d="M53 4a6 6 0 00-6 6v14h2V10a4 4 0 018 0v31a3 3 0 01-3 3h2a3 3 0 003-3V10a6 6 0 00-6-6zM35 24V10a4 4 0 00-4-4h6a4 4 0 014 4v14z" fill="#353744"/><path d="M37 4h-6a6 6 0 00-6 6v14h6V10a6 6 0 016-6z" fill="#55525b"/><path d="M37 4a6 6 0 00-6 6v14h2V10a4 4 0 018 0v14h2V10a6 6 0 00-6-6zm14 37V10a4 4 0 00-4-4h6a4 4 0 014 4v31a3 3 0 11-6 0z" fill="#353744"/><path d="M53 4h-6a6 6 0 00-6 6v14h6V10a6 6 0 016-6z" fill="#55525b"/><path d="M33 8H23C14.163 8 7 15.163 7 24v32a4 4 0 004 4h34a4 4 0 004-4V24c0-8.837-7.163-16-16-16z" fill="#5c76b2"/><path d="M23 8C14.163 8 7 15.163 7 24v32a4 4 0 004 4h24a4 4 0 004-4V24c0-8.837-7.163-16-16-16z" fill="#6fa4d8"/><path d="M31 30H9a4 4 0 00-4 4v18a4 4 0 004 4h22a4 4 0 004-4V34a4 4 0 00-4-4z" fill="#f68820"/><path d="M25 30H9a4 4 0 00-4 4v18a4 4 0 004 4h16a4 4 0 004-4V34a4 4 0 00-4-4z" fill="#fbbe18"/><path d="M5 36h24v2H5z" fill="#f68820"/><path d="M29.5 20H16a1 1 0 010-2h13.5a1 1 0 010 2z" fill="#dbdee3"/><path d="M43 24v3a1 1 0 002 0v-3c0-8.837-7.163-16-16-16h-2c8.837 0 16 7.163 16 16z" fill="#55525b"/></svg>
