<svg xmlns="http://www.w3.org/2000/svg" id="svg-icon" viewBox="0 0 512 512"><path d="M458.075 481.031c-21.658 6.133-69.286-7.261-69.286-7.261-109.55-36.582-172.661-97.531-208.674-159.939-49.965-86.589-47.763-176.022-45.073-207.185 1.955-22.733 11.284-46.852 23.395-66.141 7.654-12.194 17.862-23.53 31.328-29.29a49.028 49.028 0 017.778-2.586c9.257-2.234 18.41-.889 25.95 2.917 10.674 5.378 18.1 15.69 17.976 27.76-.755 76.681 23.137 147.497 55.147 207.722 54.103 101.741 131.404 173.209 152.296 191.474 5.73 5.006 10.705 10.684 14.542 16.962 9.359 15.307 4.933 22.65-5.379 25.567z" fill="#ffeb99"/><path d="M458.075 481.031c-18.12-2.565-34.813-7.261-34.813-7.261-109.55-36.582-172.661-97.531-208.674-159.939-49.965-86.589-47.763-176.022-45.073-207.185 1.955-22.733 11.284-46.852 23.395-66.141 7.509-11.966 17.479-23.106 30.583-28.96 10.674 5.378 18.1 15.69 17.976 27.76-.755 76.681 23.137 147.497 55.147 207.722 54.103 101.741 131.404 173.209 152.296 191.474 5.73 5.006 10.705 10.684 14.542 16.962 9.359 15.308 4.933 22.651-5.379 25.568z" fill="#fff5cc"/><path d="M483.304 502.727l-51.048-25.203c-6.121-3.022-8.657-10.502-5.635-16.623l3.895-7.889c3.022-6.121 10.502-8.657 16.623-5.635l51.048 25.203c8.291 4.093 11.724 14.224 7.632 22.515-4.094 8.29-14.226 11.725-22.515 7.632z" fill="#aa6100"/><path d="M388.789 473.77c-109.55-36.582-172.661-97.531-208.674-159.939a171.343 171.343 0 0156.554-11.232c5.485-.153 9.9-.017 12.95.157 1.72.098 3.407.455 5.022 1.054l1.186.44s1.124-7.34 6.844-16.793a171.39 171.39 0 0133.945-40.43c54.103 101.741 131.404 173.209 152.296 191.474 5.73 5.006 10.705 10.684 14.542 16.962 29.041 47.484-74.665 18.307-74.665 18.307z" fill="#ffd422"/><path d="M469.845 204.985l-44.546-.31c-65.48-5.264-127.194 27.687-161.201 83.889a168.322 168.322 0 00-2.772 4.737c-3.775 6.743-5.502 10.953-5.502 10.953-6.071-17.231-10.508-50.017-10.508-50.017-2.989-64.3 37.823-122.954 99.528-141.291 69.534-20.654 124.598 18.172 142.357 33.003 0 0 22.568 19.175 24.647 35.682 1.477 11.728-7.376 22.123-42.003 23.354z" fill="#ffde55"/><path d="M469.845 204.985l-44.546-.31c-65.48-5.264-127.194 27.687-161.201 83.889a168.322 168.322 0 00-2.772 4.737c-1.407-8.233-2.213-14.242-2.213-14.242-2.989-64.3 37.813-122.954 99.517-141.291 69.544-20.654 124.609 18.172 142.357 33.003 0 0 5.213 4.427 10.86 10.86 1.478 11.728-7.375 22.123-42.002 23.354z" fill="#ffe477"/><path d="M423.261 473.77s16.693 4.696 34.813 7.261c-21.658 6.133-69.286-7.261-69.286-7.261-109.55-36.582-172.661-97.531-208.674-159.939a170.563 170.563 0 0129.797-8.388c1.5 2.793 3.061 5.595 4.675 8.388 36.015 62.408 99.126 123.357 208.675 159.939z" fill="#eebf00"/><path d="M255.824 304.254s-4.675-.6-12.68-.621c-1.562 0-3.248.01-5.047.062-65.666 1.81-125.974 39.881-153.744 99.404l-21.74 38.888c-16.569 26.901-29.187 31.411-38.454 26.622-15.214-7.84-21.44-40.688-21.44-40.688-4.127-22.764-10.694-89.826 41.619-140.081 46.418-44.598 117.586-51.103 172.009-16.734-.001-.001 27.5 19.361 39.477 33.148z" fill="#ffde55"/><path d="M243.144 303.633c-1.562 0-3.248.01-5.047.062-65.666 1.81-125.974 39.881-153.744 99.404l-21.74 38.888c-16.569 26.901-29.187 31.411-38.454 26.622-2.896-8.253-4.209-15.183-4.209-15.183-4.127-22.754-10.684-89.816 41.619-140.071 46.428-44.598 117.586-51.103 172.019-16.745-.001 0 3.971 2.803 9.556 7.023z" fill="#ffe477"/></svg>
