<svg height="512" viewBox="0 0 496 496" width="512" xmlns="http://www.w3.org/2000/svg" id="svg-icon"><path d="M61.283 44.499v379.908c0 24.576 47.634 44.499 106.395 44.499 58.76 0 106.395-19.923 106.395-44.499V44.499z" fill="#ffa991"/><path d="M240.668 317.379a31.96 31.96 0 004.81 16.862 38.909 38.909 0 013.197 34.662c-9.64 24.723-8.006 15.252-8.006 55.503 0 21.907-37.851 40.116-87.693 43.813 58.883 4.372 121.097-15.303 121.097-43.812V44.499h-33.404v272.88z" fill="#de9191"/><ellipse cx="167.677" cy="44.499" fill="#ffd3be" rx="106.395" ry="44.499"/><ellipse cx="167.677" cy="42.729" fill="#ffa991" rx="37.404" ry="15.491"/><path d="M215.481 235.405h-31.197v-31.248c0-5.278-4.271-9.556-9.54-9.556h-15.042c-5.269 0-9.54 4.278-9.54 9.556v31.248h-31.196c-5.269 0-9.54 4.278-9.54 9.556v15.066c0 5.278 4.271 9.556 9.54 9.556h31.196v31.248c0 5.278 4.271 9.556 9.54 9.556h15.042c5.269 0 9.54-4.278 9.54-9.556v-31.248h31.197c5.269 0 9.54-4.278 9.54-9.556v-15.066c.001-5.277-4.271-9.556-9.54-9.556z" fill="#ff5a7f"/><path d="M375.39 120.117c-78.407-25.26-101.318-75.618-101.318-75.618v379.546s20.058 44.088 86.865 70.451c13.948 5.504 29.06-4.774 29.06-19.79V140.328c0-9.189-5.873-17.397-14.607-20.211z" fill="#e6795f"/><path d="M346.202 174.283c30.495 26.227 85.017 6.547 85.017 6.547l-10.128 29.383 13.627 15.607-11.092 21.254 8.593 21.566s-56.393 19.238-93.097-10.194a5.563 5.563 0 01-2.087-4.337v-75.717c-.001-4.752 5.563-7.208 9.167-4.109z" fill="#d4deff"/><path d="M361.482 183.279c-5.463-2.095-10.649-5.013-15.28-8.996-3.604-3.1-9.168-.643-9.168 4.11v75.717c0 1.687.771 3.282 2.087 4.337 6.923 5.551 14.547 9.37 22.36 11.914v-87.082z" fill="#abb8ff"/><path d="M346.202 333.013c30.495 26.227 85.017 6.547 85.017 6.547l-10.128 28.383 11.627 16.607-9.092 20.254 8.593 22.566s-56.393 19.238-93.097-10.194a5.564 5.564 0 01-2.087-4.337v-75.716c-.001-4.752 5.563-7.209 9.167-4.11z" fill="#d4deff"/><path d="M361.482 342.009c-5.463-2.095-10.649-5.014-15.28-8.996-3.604-3.099-9.168-.643-9.168 4.111v75.716c0 1.687.771 3.282 2.087 4.337 6.923 5.551 14.547 9.369 22.36 11.914v-87.082z" fill="#abb8ff"/><ellipse cx="232.129" cy="355.082" fill="#de9191" rx="12.609" ry="8.606" transform="rotate(-86.73 232.371 355.252)"/></svg>
