<svg viewBox="0 0 512 512" xmlns="http://www.w3.org/2000/svg"><g><g><path d="m155 248.807c-1.653 0-3.334-.275-4.981-.855-7.814-2.751-11.919-11.316-9.167-19.13l70-198.8c1.674-4.753 5.622-8.348 10.511-9.57l80-20c8.031-2.009 16.181 2.877 18.189 10.914 2.01 8.037-2.877 16.181-10.914 18.19l-72.17 18.042-67.319 191.187c-2.171 6.166-7.963 10.022-14.149 10.022z" fill="#d0ea59"/></g><g><g><path d="m290 87c0-8.284-6.716-15-15-15h-260c-8.284 0-15 6.716-15 15v90c0 8.284 6.716 15 15 15h260c8.284 0 15-6.716 15-15z" fill="#f4f4f6"/><g><path d="m275 72h-130v120h130c8.284 0 15-6.716 15-15v-90c0-8.284-6.716-15-15-15z" fill="#e2dff4"/></g><path d="m0 177v175.279c0 15.866 4.323 31.438 12.501 45.033 17.99 29.903 27.499 64.375 27.499 99.688 0 8.284 6.716 15 15 15h180c8.284 0 15-6.716 15-15 0-35.313 9.509-69.785 27.499-99.688 8.178-13.595 12.501-29.167 12.501-45.033v-175.279z" fill="#ff7038"/><g><path d="m145 177v335h90c8.284 0 15-6.716 15-15 0-35.313 9.509-69.785 27.499-99.688 8.178-13.595 12.501-29.167 12.501-45.033v-175.279z" fill="#ff3838"/></g><g><path d="m159.099 177h31.805l36.972-105h-31.805z" fill="#00da80"/></g></g><circle cx="185" cy="357" fill="#af3345" r="15"/><circle cx="200" cy="277" fill="#af3345" r="15"/><circle cx="75" cy="307" fill="#ff3838" r="15"/><g><g><path d="m400.822 361.578c-.76-.76-1.439-1.602-2.025-2.516-4.015-6.269-9.004-12.4-14.826-18.223-5.823-5.823-11.953-10.811-18.223-14.826-2.527-1.618-4.508-3.955-5.692-6.71-4.691-10.92-6.972-21.221-6.972-31.492 0-39.388 33.564-69.896 34.993-71.175 5.696-5.1 14.316-5.101 20.013 0 1.357 1.213 31.72 28.807 34.75 65.334 36.523 3.03 64.121 33.394 65.333 34.75 5.1 5.696 5.1 14.316.001 20.012-1.28 1.429-31.787 34.994-71.175 34.994-10.271 0-20.572-2.28-31.492-6.972-1.757-.756-3.346-1.837-4.685-3.176z" fill="#d0ea59"/></g><g><path d="m508.175 336.732c5.1-5.696 5.1-14.317-.001-20.012-1.213-1.356-28.81-31.719-65.333-34.75 0 0 0 0 0-.001l-58.87 58.87c5.823 5.823 10.811 11.953 14.826 18.223.586.914 1.265 1.757 2.025 2.516 1.339 1.339 2.928 2.42 4.686 3.175 10.92 4.691 21.221 6.972 31.492 6.972 39.388.001 69.896-33.565 71.175-34.993z" fill="#00da80"/></g><g><path d="m235.479 489.331c-20.031-20.031-27.113-51.166-19.941-87.669 6.259-31.858 23.23-64.112 45.397-86.279 22.415-22.415 48.552-33.058 75.583-30.776 24.041 2.029 47.786 14.138 68.666 35.019 20.88 20.88 32.99 44.625 35.019 68.666 2.282 27.032-8.361 53.168-30.776 75.583-22.167 22.167-54.421 39.138-86.279 45.397-36.503 7.172-67.638.09-87.669-19.941z" fill="#ff7038"/></g><g><path d="m440.204 388.292c-2.029-24.041-14.138-47.786-35.019-68.666l-169.706 169.705c20.031 20.031 51.166 27.113 87.669 19.941 31.858-6.259 64.112-23.23 86.279-45.397 22.416-22.415 33.058-48.551 30.777-75.583z" fill="#ff3838"/></g><circle cx="295.583" cy="429.227" fill="#ff3838" r="15"/><g><path d="m306.19 418.621-21.214 21.213c5.858 5.858 15.355 5.858 21.213 0 5.859-5.858 5.859-15.356.001-21.213z" fill="#af3345"/></g><circle cx="359.223" cy="408.014" fill="#af3345" r="15"/><circle cx="316.796" cy="365.588" fill="#ff3838" r="15"/></g></g></g></svg>