<svg height="512pt" viewBox="0 0 512 512" width="512pt" xmlns="http://www.w3.org/2000/svg" id="svg-icon"><path d="M512 256c0 141.387-114.613 256-256 256S0 397.387 0 256 114.613 0 256 0s256 114.613 256 256zm0 0" fill="#414952"/><path d="M512 256c0-2.637-.055-5.262-.133-7.879L435 171.254l-25.145 23.754-37.445-37.446L77 340.746l33.723 33.723-17.391 26.976 103.723 103.723A256.647 256.647 0 00256 512c141.387 0 256-114.613 256-256zm0 0" fill="#333940"/><path d="M77 171.254h358v169.492H77zm0 0" fill="#a3d4ff"/><path d="M255.523 171.254H435v169.492H255.523zm0 0" fill="#65b1fc"/><path d="M307 256c0-33.414-22.832-60.5-51-60.5s-51 27.086-51 60.5 22.832 60.5 51 60.5 51-27.086 51-60.5zm0 0" fill="#4a98f7"/><path d="M256 195.5c-.16 0-.316.012-.477.016v120.968c.16.004.317.016.477.016 28.168 0 51-27.086 51-60.5s-22.832-60.5-51-60.5zm0 0" fill="#4a7aff"/><path d="M166.5 256c0 19.605-15.895 35.5-35.5 35.5S95.5 275.605 95.5 256s15.895-35.5 35.5-35.5 35.5 15.895 35.5 35.5zm0 0" fill="#4a98f7"/><path d="M416.5 256c0 19.605-15.895 35.5-35.5 35.5s-35.5-15.895-35.5-35.5 15.895-35.5 35.5-35.5 35.5 15.895 35.5 35.5zm0 0" fill="#4a7aff"/><path d="M271.785 326.543c0-9.578-7.765-17.344-17.348-17.344-.5 0-.992.031-1.484.074-5.625-8.558-15.308-14.214-26.316-14.214-15.856 0-28.969 11.722-31.157 26.972h-93.472c-6.285 0-11.586 4.176-13.293 9.903a13.832 13.832 0 00-.68 4.277v54.336c0 7.66 6.211 13.875 13.875 13.875s13.88-6.215 13.88-13.875v-28.125c0-6.98 5.66-12.64 12.64-12.64s12.64 5.66 12.64 12.64v68.707c0 7.637 5.977 14.191 13.614 14.332 7.785.14 14.136-6.125 14.136-13.875v-41.043c0 7.75 6.356 14.016 14.137 13.875 7.637-.14 13.613-6.695 13.613-14.332v-26.922c.055 0 .106.008.16.008 6.485 0 12.13-3.567 15.106-8.84a31.339 31.339 0 0014.8 3.695 31.306 31.306 0 0017.15-5.093V392.5c0 7.73 6.269 14 14 14 7.734 0 14-6.27 14-14v-65.957zm0 0" fill="#ea2828"/><g fill="#c61a1a"><path d="M255.523 309.254V406.3c.739.12 1.489.199 2.262.199 7.73 0 14-6.27 14-14v-65.957c0-9.215-7.187-16.727-16.262-17.29zm0 0M377.668 341.145v50.445c0 6.793 5.312 12.617 12.102 12.742 6.918.125 12.562-5.445 12.562-12.332v-41a4 4 0 018 0v17.746c0 6.813 5.523 12.332 12.332 12.332 6.813 0 12.336-5.52 12.336-12.332v-27.598c0-9.656-7.828-17.48-17.48-17.48h-22.375c-9.653 0-17.477 7.824-17.477 17.477zm0 0M349.832 146c-8.289 0-15.727 3.629-20.828 9.379a21.57 21.57 0 00-11.344-3.207c-11.96 0-21.66 9.7-21.66 21.664 0 11.96 9.695 21.66 21.66 21.66a21.57 21.57 0 0011.344-3.207c5.101 5.75 12.539 9.379 20.828 9.379 15.371 0 27.832-12.465 27.832-27.832.004-15.375-12.46-27.836-27.832-27.836zm0 0"/></g></svg>
