<svg viewBox="0 0 512 512" xmlns="http://www.w3.org/2000/svg"><g><g><g><g><g><path d="m296.265 228.058 25.037-69.121-22.5-8.15-25.037 69.121c-.693 1.913-2.45 3.196-4.476 3.382-14.529 1.335-27.697 10.837-32.994 25.463l-16.574 45.756 70.275 25.455 16.574-45.756c5.298-14.626 1.27-30.356-9.034-40.686-1.437-1.441-1.964-3.552-1.271-5.464z" fill="#a69ca7"/><path d="m321.303 158.94-15.319 42.268c-4.038-.258-7.994-1.082-11.826-2.472-3.904-1.411-7.469-3.327-10.673-5.666l15.319-42.279z" fill="#918291"/></g><path d="m302.931 174.52c-9.102-3.297-13.807-13.348-10.511-22.449l47.568-131.324c3.297-9.102 13.348-13.807 22.449-10.511 9.102 3.297 13.807 13.348 10.511 22.449l-47.568 131.324c-3.297 9.102-13.348 13.807-22.449 10.511z" fill="#9a5e5f"/><path d="m373.997 26.717c0 1.978-.34 3.997-1.051 5.965l-47.563 131.327c-3.297 9.107-13.351 13.804-22.448 10.508-3.956-1.432-7.077-4.131-9.076-7.479 6.171-.907 11.651-5.089 13.928-11.373l47.574-131.317c.711-1.968 1.051-3.987 1.051-5.965 0-3.204-.886-6.315-2.493-9.004 2.771-.422 5.687-.165 8.52.855 7.128 2.585 11.558 9.313 11.558 16.483z" fill="#845152"/></g><g><g><path d="m243.039 310.683c-.874 0-1.763-.149-2.631-.464-4.012-1.454-6.087-5.883-4.634-9.895l17.158-47.371c1.455-4.013 5.891-6.087 9.895-4.634 4.012 1.454 6.087 5.883 4.634 9.895l-17.158 47.371c-1.138 3.144-4.104 5.098-7.264 5.098z" fill="#918291"/></g><g><path d="m266.677 319.245c-.873 0-1.762-.149-2.631-.464-4.012-1.454-6.086-5.884-4.633-9.896l17.159-47.371c1.454-4.011 5.879-6.087 9.896-4.633 4.012 1.454 6.086 5.884 4.633 9.896l-17.159 47.371c-1.138 3.144-4.104 5.097-7.265 5.097z" fill="#918291"/></g></g></g><g><g><g><ellipse cx="370.539" cy="341.984" fill="#f2eff2" rx="59.219" ry="59.219" transform="matrix(.707 -.707 .707 .707 -133.291 362.176)"/><path d="m429.759 341.981c0 32.707-26.513 59.22-59.22 59.22-9.266 0-18.039-2.13-25.848-5.926 1.734.164 3.49.239 5.268.239 32.7 0 59.22-26.513 59.22-59.22 0-23.434-13.622-43.692-33.38-53.294 30.242 2.66 53.96 28.052 53.96 58.981z" fill="#cbc5cb"/></g><g><g><circle cx="367.196" cy="339.002" fill="#433f43" r="30.064"/><path d="m397.259 339.002c0 16.606-13.454 30.061-30.061 30.061-16.38 0-29.69-13.083-30.04-29.381 5.316 4.739 12.321 7.613 20.006 7.613 16.596 0 30.061-13.454 30.061-30.061 0-.227 0-.453-.021-.67 6.171 5.502 10.055 13.516 10.055 22.438z" fill="#353435"/></g></g></g></g><g><g><path d="m170.603 275.712c-4.268 0-7.726-3.459-7.726-7.726v-11.646c0-17.112 13.921-31.032 31.032-31.032 4.268 0 7.726 3.459 7.726 7.726 0 4.268-3.459 7.726-7.726 7.726-8.591 0-15.579 6.989-15.579 15.579v11.646c-.001 4.269-3.46 7.727-7.727 7.727z" fill="#fca62f"/></g><circle cx="185.469" cy="348.718" fill="#fcc16d" r="83.56"/><circle cx="185.469" cy="348.718" fill="#ffd496" r="53.024"/><circle cx="185.469" cy="348.718" fill="#fb9927" r="22.668"/></g><g><g><g><circle cx="125.69" cy="304.542" fill="#f2eff2" r="59.219"/><path d="m179.916 280.742c13.143 29.95-.48 64.882-30.431 78.025-8.485 3.724-17.374 5.299-26.05 4.961 1.654-.546 3.292-1.183 4.92-1.898 29.943-13.14 43.574-48.075 30.431-78.025-9.417-21.459-30.032-34.535-51.982-35.388 28.761-9.717 60.684 4.003 73.112 32.325z" fill="#cbc5cb"/></g><g><g><circle cx="129.04" cy="301.684" fill="#433f43" r="30.064"/><path d="m141.124 329.215c-9.509 4.172-20.006 3.029-28.165-2.133 1.999-.412 3.976-1.04 5.924-1.896 15.205-6.676 22.128-24.405 15.453-39.61-2.503-5.707-6.562-10.24-11.456-13.33 13.64-2.854 27.877 4.1 33.687 17.359 6.675 15.205-.237 32.934-15.443 39.61z" fill="#353435"/></g></g></g></g><g><g><path d="m441.635 375.049h-11.876c-4.268 0-7.726-3.459-7.726-7.726s3.459-7.726 7.726-7.726h11.876c8.735 0 15.843-7.108 15.843-15.843 0-4.268 3.459-7.726 7.726-7.726s7.726 3.459 7.726 7.726c.001 17.256-14.039 31.295-31.295 31.295z" fill="#fca62f"/></g><path d="m481.064 457.342c1.478-6.219 2.28-12.7 2.28-19.372 0-46.149-37.411-83.56-83.56-83.56s-83.56 37.411-83.56 83.56c0 6.671.802 13.153 2.28 19.372z" fill="#ffd496"/><path d="m449.134 457.342c2.359-6.003 3.675-12.531 3.675-19.372 0-29.285-23.74-53.024-53.024-53.024s-53.024 23.74-53.024 53.024c0 6.841 1.315 13.369 3.675 19.372z" fill="#fca62f"/><path d="m388.03 457.342h23.509c6.54-3.976 10.914-11.159 10.914-19.372 0-12.519-10.149-22.668-22.668-22.668s-22.668 10.149-22.668 22.668c-.001 8.213 4.373 15.396 10.913 19.372z" fill="#f98824"/></g><g><g><path d="m74.556 350.381h-12.079c-16.885 0-30.623-13.737-30.623-30.623 0-4.268 3.459-7.726 7.726-7.726s7.726 3.459 7.726 7.726c0 8.365 6.805 15.17 15.17 15.17h12.079c4.268 0 7.726 3.459 7.726 7.726s-3.457 7.727-7.725 7.727z" fill="#fca62f"/></g><path d="m175.611 457.342c8.416-13.041 13.32-28.561 13.32-45.236 0-46.149-37.411-83.56-83.56-83.56s-83.56 37.411-83.56 83.56c0 16.675 4.904 32.195 13.32 45.236z" fill="#fcc16d"/><path d="m77.702 457.342h55.338c15.208-9.322 25.356-26.092 25.356-45.236 0-29.285-23.74-53.024-53.024-53.024s-53.024 23.74-53.024 53.024c-.001 19.144 10.147 35.914 25.354 45.236z" fill="#fca62f"/><circle cx="105.371" cy="412.106" fill="#fb9927" r="22.668"/></g><g><path d="m220.172 457.342h114.593c16.164-15.237 26.263-36.839 26.263-60.805 0-46.149-37.411-83.56-83.559-83.56s-83.56 37.411-83.56 83.56c0 23.966 10.098 45.568 26.263 60.805z" fill="#fcc16d"/><circle cx="277.468" cy="396.537" fill="#fca62f" r="53.024"/><circle cx="277.468" cy="396.537" fill="#f98824" r="22.668"/></g><g><path d="m228.636 321.77v20.214c0 9.694 7.858 17.552 17.552 17.552 9.694 0 17.552-7.858 17.552-17.552v-2.296c0-9.694 7.858-17.552 17.552-17.552 9.694 0 17.552 7.858 17.552 17.552v70.232c0 9.694 7.858 17.552 17.552 17.552 9.694 0 17.552-7.858 17.552-17.552v-88.15c0-23.392-18.963-42.355-42.355-42.355h-20.603c-23.391-.001-42.354 18.963-42.354 42.355z" fill="#f82f40"/><path d="m333.954 321.771v88.153c0 4.842-1.968 9.23-5.141 12.414-3.173 3.173-7.561 5.141-12.414 5.141-5.295 0-10.034-2.339-13.248-6.047 2.679-3.091 4.306-7.108 4.306-11.507v-88.153c0-22.406-17.389-40.744-39.415-42.258.968-.072 1.957-.103 2.946-.103h20.604c23.396-.001 42.362 18.964 42.362 42.36z" fill="#e22334"/></g><g><path d="m268.651 457.342c.237-2.564.378-5.155.378-7.781 0-46.149-37.411-83.56-83.56-83.56s-83.56 37.411-83.56 83.56c0 2.626.14 5.218.378 7.781z" fill="#ffd496"/><path d="m237.905 457.342c.376-2.541.588-5.135.588-7.781 0-29.284-23.74-53.024-53.024-53.024s-53.024 23.74-53.024 53.024c0 2.646.212 5.24.588 7.781z" fill="#fcc16d"/><path d="m206.736 457.342c.89-2.43 1.402-5.043 1.402-7.781 0-12.519-10.149-22.669-22.668-22.669s-22.669 10.149-22.669 22.669c0 2.739.511 5.351 1.402 7.781z" fill="#fca62f"/></g><g><path d="m497.033 449.766h-482.066c-8.266 0-14.967 6.701-14.967 14.967v3.95c0 18.851 15.282 34.133 34.133 34.133h443.735c18.851 0 34.133-15.282 34.133-34.133v-3.95c-.001-8.266-6.702-14.967-14.968-14.967z" fill="#20b69f"/><path d="m511.998 468.676v-3.949c0-8.254-6.7-14.968-14.968-14.968h-46.757c8.268 0 14.968 6.714 14.968 14.968v3.949c0 18.859-15.281 34.141-34.141 34.141h46.771c18.846 0 34.127-15.281 34.127-34.141z" fill="#17998c"/></g></g></g></svg>