<svg xmlns="http://www.w3.org/2000/svg" viewBox="0 0 376.1 383.3">
  <path fill="#99caf6" d="M46 42V19C46 9 50 3 58 0h51c9 2 13 7 14 17v20c0 2 0 4-2 6H53c-2 0-5 1-7-1z"/>
  <path d="M121 42V19c1-9-3-15-12-19h31c15 5 12 18 13 30v12c-3 3-6 0-9 1h-19l-4-1z" fill="#86c1f6"/>
  <path d="M7 280l-7-1V73c0-17 14-31 32-31h113a33 33 0 0112 7 35 35 0 0112 27v197l-1 6a7 7 0 01-5 1" fill="#225d75"/>
  <path d="M261 218c-25-3-45-13-62-31a35 35 0 01-4-5 101 101 0 01-23-55c-2-25 4-48 19-69a8 8 0 012-3c9-8 17-17 27-23 13-8 26-13 41-15 9 0 17 3 24 7 35 16 55 43 60 81 4 27-3 52-20 75-14 19-33 31-56 37a42 42 0 01-8 1z" fill="#e2f1fe"/>
  <path d="M99 278h69v1a8 8 0 011 4v67c0 13-6 24-18 31l-7 2c-39 0-79 1-118-1-14 0-26-14-26-29v-75h80" fill="#8fdf69"/>
  <path d="M261 218a101 101 0 004-199 30 30 0 01-4-2c30-4 56 4 78 22 32 28 44 63 33 104a98 98 0 01-76 74c-12 2-23 2-35 1z" fill="#cee8fe"/>
  <path d="M193 55c-7 13-15 26-18 41-6 33 2 63 24 89l-1 93a5 5 0 01-4 2h-22a6 6 0 01-4-1v-1-177c0-23 4-47-24-59h9c15-1 30-1 40 13z" fill="#134e66"/>
  <path d="M168 278h30v76c0 16-15 29-30 29h-24c11-5 22-13 23-27l1-78z" fill="#7cd850"/>
  <path d="M80 278l11-47H37l89-120-19 83h54l-62 84-27 35" fill="#fcef84"/>
  <path fill="#99caf6" d="M242 122h35c3 0 6 1 7 5 0 5-3 7-7 7h-44c-7-1-9-5-5-11l39-59h-33c-4 0-6-2-6-6 0-5 2-6 6-6h42c3 0 5 1 6 3s1 5-1 7l-39 60zM306 148h19c3 0 6 2 6 6s-3 6-6 6h-29c-2 0-5-1-6-3s-1-5 1-7l23-36h-17c-4 0-7-2-7-6s3-6 7-6h26c3 0 5 1 7 3s0 5-1 7l-23 36zM261 162c-5-1-12 2-13-6a5 5 0 014-6h21c6 1 6 6 3 10l-12 19h1c5 2 14-2 13 7 0 8-9 5-14 5s-13 3-16-3c-3-7 4-10 6-15l7-11z"/>
  <path d="M99 346h50c4 0 7 1 7 6s-3 6-7 6H49c-4 0-7-2-7-6 0-5 4-6 7-6h50z" fill="#64b93c"/>
</svg>
