<svg xmlns="http://www.w3.org/2000/svg" viewBox="0 0 516 516">
  <circle cx="258" cy="258" r="258" fill="#f89d49"/>
  <path fill="#fb7d49" d="M413 146.3c-.63-2-1.78-4.09 0-6.12 2.84.13 4.27 2.4 6 4.12q45.39 45.31 90.75 90.65a44.91 44.91 0 005.52 4.07v49c-1.87 4.57-1.17 9.44-1.6 14.17-1.34 14.7-5.56 28.71-10.33 42.54a248.57 248.57 0 01-37.68 70 260.06 260.06 0 01-79.36 69.48 256.35 256.35 0 01-71 27.28c-7.35 1.63-14.81 1.82-22.24 2.45-1.62.14-3.37-.35-4.73 1h-58c-3.18-2-6.85-.56-10.22-1.41-1.69-.43-3.33-.42-3.71-2.55a47.46 47.46 0 00-4.11-5.48q-43.26-43.39-86.62-86.71c-1.74-1.74-3.9-3.2-4.38-5.89 1.35-1.48 3-1.25 4.61-.7"/>
  <path d="M259.34 378.23v39l-86.32.36c-10.15 0-20.31-.05-30.46 0a49.71 49.71 0 01-21.23-4.7c-15-9.38-20.73-23.06-20.66-40.5.31-69.75.09-139.5.15-209.25 0-25.11 16.7-43 39.57-42.72" fill="#b4d4de"/>
  <path d="M140.4 120.4c18.8-.07 37.61-.25 56.42-.14a18.53 18.53 0 0011.5-3.54c15.26-10.7 32.21-16.39 51-15.87a6.25 6.25 0 012.19 4.3c.13 11.18 1 22.39-.51 33.54-1 3.19-3.79 3.45-6.38 3.83-11.56 1.71-21.78 6.11-29.73 14.88-12.41 13.69-16.38 29.6-10.68 47.19 5.78 17.81 18.58 28.21 36.82 32.11 3.58.77 7.86.26 9.89 4.54 1 2.56.81 5.24.82 7.89q.06 59.82 0 119.65c0 3 .2 6-1.16 8.81a3.74 3.74 0 01-1.34 1.45c-2.44 1.35-5.13 1.3-7.79 1.31q-51.67.07-103.35 0a43.75 43.75 0 01-5-.28 4.93 4.93 0 01-4.81-4.8 68.7 68.7 0 01-.32-8q0-118.08.06-236.15c.04-3.63-1.23-7.76 2.37-10.72z" fill="#6f8cab"/>
  <path d="M378.33 120.37c14.7-.06 25.53 7 33.89 18.51.39.4.71.84 1.08 1.25l-.29.05c4.15 8.44 5 17.42 5 26.7q-.17 103.17-.06 206.33c0 28.33-16 44.35-44.22 44.37H265.82c-2.15 0-4.3-.25-6.46-.38-2.35-1.22-2.21-3.52-2.26-5.62-.22-9.21-.2-18.43 0-27.65.05-2.15.17-4.33 2.27-5.69l.05-.49" fill="#93b0c4"/>
  <path d="M259.39 377.74V240.11c.09-.23.18-.46.26-.69 2.53-2.33 5.86-2.14 8.9-2.76a48.08 48.08 0 0037.82-38.53 59.17 59.17 0 000-16.17 48.34 48.34 0 00-37.86-38.73c-3-.61-6.38-.15-8.86-2.61l-.24-.7q0-19.53-.1-39.07c19.19-.53 36.39 5.38 51.89 16.39a15.44 15.44 0 009.65 3c19.15-.07 38.3.06 57.45.12 1.76 1.11 2.12 2.86 2.25 4.76.15 2.33.16 4.66.16 7v234.37c0 2.83 0 5.66-.26 8.49-.31 3.11-2 4.81-5.09 5.12-1.82.17-3.65.26-5.48.26q-50.73.06-101.45-.06c-3.11-.01-6.8 1.03-9.04-2.56z" fill="#4d6891"/>
  <path fill="#fb7d49" d="M413.3 140.13l-1.08-1.24z"/>
  <path d="M259.42 240.11c-26.21-2.06-45.08-17.82-49.1-41s7.43-45.08 28.8-54.8a52.21 52.21 0 0120.32-4.4l-.12.24c2.25 1.52 2.35 3.9 2.37 6.23.06 11.47.37 22.94-.21 34.41a143.16 143.16 0 010 18.41c.56 11.47.28 22.95.2 34.43 0 2.32-.08 4.72-2.39 6.21z" fill="#fdfdfe"/>
  <path fill="#d5f5f6" d="M259.42 181q0-20.41-.1-40.81c23.78-.46 45.29 17.39 48.94 40.63-1.31 2.12-3.43 2.49-5.65 2.53-12.48.23-25 .21-37.44 0-2.17-.05-4.34-.35-5.75-2.35zM259.29 239.85l.15-40.82c1.43-2 3.57-2.26 5.77-2.29 12.45-.19 24.9-.21 37.35 0 2.2 0 4.34.33 5.69 2.41-3.7 23.26-24.91 40.85-48.96 40.7z"/>
  <path d="M308.25 199.16l-48.81-.16v-18.06l48.84-.18a37.45 37.45 0 01-.03 18.4z" fill="#fd3a33"/>
</svg>
