<svg id="svg-icon" viewBox="0 0 58 58" xmlns="http://www.w3.org/2000/svg"><g fill-rule="nonzero" fill="none"><path d="M19.357 9.163l4.606 3.584-2.456 3.156L16.9 12.32z" fill="#95a5a5"/><path d="M52.558 58H5.442a2 2 0 01-1.9-1.368L2 52l27-2 27 2-1.544 4.632A2 2 0 0152.558 58z" fill="#2fa8cc"/><path d="M41.01 26H52a2.006 2.006 0 012 2v20H4V28a2.006 2.006 0 012-2z" fill="#f3d55b"/><path d="M41.79 27.87l-.61.79a6 6 0 01-8.42 1.06L31 28.35V27a1 1 0 00-1-1h-2.02l-7.85-6.11a1.982 1.982 0 01-.35-2.8l3.68-4.74L41.01 26l.6.47a.993.993 0 01.18 1.4z" fill="#bdc3c7"/><path d="M7.856.215l12.014 9.35-3.07 3.945a1 1 0 01-1.403.175L5.75 6.177a3 3 0 01-.525-4.209L6.453.39A1 1 0 017.856.215z" fill="#35495e"/><path d="M10 31H8a1 1 0 010-2h2a1 1 0 010 2zM26 31H14a1 1 0 010-2h12a1 1 0 010 2z" fill="#f5efca"/><path d="M4 45h50v4H4z" fill="#f0c419"/><path d="M0 48h58v2a2 2 0 01-2 2H2a2 2 0 01-2-2z" fill="#67b9cc"/></g></svg>