<svg viewBox="0 0 512 512" height="512" width="512" xmlns="http://www.w3.org/2000/svg" id="svg-icon"><path d="M88 464h-8a32.036 32.036 0 01-32-32V328a32.036 32.036 0 0132-32h8a8 8 0 010 16h-8a16.019 16.019 0 00-16 16v104a16.019 16.019 0 0016 16h8a16.019 16.019 0 0016-16v-72a8 8 0 0116 0v72a32.036 32.036 0 01-32 32z" fill="#da922a"/><path d="M432 216h-8a8 8 0 010-16h8a16.019 16.019 0 0016-16V80a16.019 16.019 0 00-16-16h-8a16.019 16.019 0 00-16 16v72a8 8 0 01-16 0V80a32.036 32.036 0 0132-32h8a32.036 32.036 0 0132 32v104a32.036 32.036 0 01-32 32z" fill="#ea9d2d"/><path d="M96 320h320v48H96zM96 144h320v48H96z" fill="#b94137"/><path d="M80 192h352v64H80z" fill="#c7463b"/><path d="M96 184.368h320V192H96zM96 320.184h320v7.632H96z" fill="#a83b32"/><path d="M80 256h352v64H80z" fill="#c7463b"/><path d="M80 248h352v8H80zM80 312h352v8H80z" fill="#b94137"/><path d="M368 192h32v128h-32z" fill="#a83b32"/><path d="M368 144h32v48h-32z" fill="#a03830"/><path d="M496 80v104a64.072 64.072 0 01-64 64v-16a48.051 48.051 0 0048-48V80a48.051 48.051 0 00-48-48h-8a48.051 48.051 0 00-48 48v124a28.031 28.031 0 01-28 28h-20a8 8 0 010-16h20a12.01 12.01 0 0012-12V80a64.072 64.072 0 0164-64h8a64.072 64.072 0 0164 64z" fill="#85bc94"/><path d="M368 320h32v48h-32z" fill="#a03830"/><g fill="#fbedbf"><path d="M144 104h16v16h-16zM176 104h56v16h-56zM112 104h16v16h-16z"/></g><path d="M112 192h32v128h-32z" fill="#a83b32"/><path d="M112 320h32v48h-32z" fill="#a03830"/><path d="M192 288a8 8 0 01-8 8h-20a12.01 12.01 0 00-12 12v124a64.072 64.072 0 01-64 64h-8a64.072 64.072 0 01-64-64V328a64.072 64.072 0 0164-64v16a48.051 48.051 0 00-48 48v104a48.051 48.051 0 0048 48h8a48.051 48.051 0 0048-48V308a28.031 28.031 0 0128-28h20a8 8 0 018 8z" fill="#6b9777"/><circle cx="256" cy="256" fill="#428dc5" r="88"/><circle cx="256" cy="256" fill="#b8eaee" r="58.5"/><path d="M272 280a7.974 7.974 0 01-5.657-2.343l-16-16A8 8 0 01248 256v-32a8 8 0 0116 0v28.687l13.657 13.656A8 8 0 01272 280z" fill="#428dc5"/><path d="M112 144h32v48h-32z" fill="#a03830"/></svg>
