<svg height="672" viewBox="0 -20 504 504" width="672" xmlns="http://www.w3.org/2000/svg" id="svg-icon"><path d="M189.281 24.8c-51.601 68.329-7.129 184.641-39.922 201.13-58 2.636-57.84-58.801-102.8-74l.082-.082C62.488 67.512 136.398 5.922 216 0c-10.96 7.129-19.77 15.512-26.719 24.8zm0 0" fill="#8cc152"/><path d="M317.602 131.672C262.16 167.594 236 221.359 236 221.359l-.16.563c-19.13-6.16-38.238-7.531-56.719-1.77-11.36 3.512-21.2 5.36-29.77 5.77 32.801-16.488-11.68-132.8 39.922-201.129 3.758-.16 70.797-3.129 90.637 18.488l.082.078c13.918 38.563 15.36 77.13 37.36 84zm0 0" fill="#7eaf3e"/><path d="M402 109.137c-33.36 3.672-61.36 15.59-84.398 30.543l-.243-4.313c-22-6.87-23.437-45.437-37.359-84l-.078-.078C274.559 36.24 267.199 21.207 256 8.008c69.922.16 125.77 42.558 146 101.031zm0 0M504 156v56c0 64.719-42.559 142-82.719 186.64 0 0-91.84-146.488-185.441-176.718l.16-.563c148.398 0 173.441-45.765 230.078-60.64C477.128 157.769 489.36 156 504 156zm0 0" fill="#8cc152"/><path d="M465.742 153.2zm0 0"/><path d="M421.281 398.64v.079C376.56 439.28 317.2 464 252 464 112.8 464 0 351.2 0 212v-60.64c19.84-4.329 34.8-3.512 46.559.562 44.953 15.2 44.8 76.637 102.8 74 8.563-.41 18.41-2.25 29.77-5.77 18.48-5.77 37.59-4.39 56.719 1.77C329.44 252.16 421.28 398.64 421.28 398.64zm0 0" fill="#a0d468"/><path d="M323.887 408.375c-21.086 0-41.399-1.719-60.75-5.16C101.129 374.832 44.832 235.887 44.273 234.496a3.988 3.988 0 012.262-5.176c2.04-.84 4.375.2 5.176 2.254.535 1.364 55.336 136.18 212.816 163.778 34.215 6.062 71.563 6.648 110.97 1.718 2.151-.285 4.19 1.266 4.472 3.473a4.015 4.015 0 01-3.473 4.473c-17.984 2.23-35.55 3.359-52.61 3.359zm0 0" fill="#8cc152"/><g fill="#7eaf3e"><path d="M392 300.23a3.989 3.989 0 01-3.473-2.015 3.985 3.985 0 011.489-5.453c11.855-6.801 22.304-15.098 31.03-24.664 1.49-1.633 4.024-1.754 5.65-.258a3.99 3.99 0 01.257 5.648c-9.281 10.184-20.379 19.008-32.969 26.207a3.887 3.887 0 01-1.984.535zm0 0"/><path d="M424.16 274.559a3.976 3.976 0 01-2.71-1.063c-1.626-1.504-1.731-4.031-.227-5.648 26.058-28.215 30.785-59.086 30.824-59.391.32-2.191 2.344-3.664 4.527-3.394a4.01 4.01 0 013.395 4.53c-.192 1.36-5.145 33.653-32.864 63.673a3.975 3.975 0 01-2.945 1.293zm0 0M104 181.031a4.01 4.01 0 01-3.574-2.207c-20.418-40.832 7.277-76.16 25.605-99.52C133.215 70.138 140 61.489 140 57.032c0-2.207 1.793-4 4-4s4 1.793 4 4c0 7.207-6.566 15.594-15.672 27.2-18.113 23.09-42.894 54.707-24.754 91.007a4.009 4.009 0 01-1.789 5.371 4.016 4.016 0 01-1.785.422zm0 0"/></g><path d="M263.727 403.633c-1.606 0-3.032-.871-3.543-2.512-.04-.137-.23-.914-.254-1.058-2.098-8.797-22.13-87.856-69.524-109.79a4.005 4.005 0 01-1.949-5.312 3.998 3.998 0 015.313-1.953c50.832 23.52 71.757 106.015 73.972 115.344.504 2.105-.672 4.535-2.75 5.113-.433.11-.847.168-1.265.168zm0 0M170.68 400.84c-16.825 0-37.328-2.902-60.168-12.106-2.047-.832-3.047-3.16-2.215-5.199.824-2.055 3.152-3.031 5.2-2.215 57.566 23.168 100.382 3.825 100.816 3.617a4.01 4.01 0 015.312 1.926c.934 2 .078 4.375-1.914 5.313-1.176.55-18.95 8.664-47.031 8.664zm0 0" fill="#8cc152"/><path d="M424 274.8a4.032 4.032 0 01-2.832-1.167 4.004 4.004 0 01-.52-5.016c.504-1.344 2.832-11.015-13.617-45.527a3.99 3.99 0 011.89-5.328c1.981-.953 4.376-.106 5.325 1.886 17.524 36.743 15.844 49.016 13.29 53.063-.169.25-.505.715-.712.922A4 4 0 01424 274.8zm0 0" fill="#7eaf3e"/><path d="M232 197.031c-.824 0-1.64-.246-2.352-.765-49.632-36.145-33.687-99.61-33.511-100.25.558-2.145 2.765-3.383 4.87-2.848a3.979 3.979 0 012.856 4.871c-.152.586-14.672 58.871 30.489 91.762a3.992 3.992 0 01.878 5.582 3.961 3.961 0 01-3.23 1.648zm0 0" fill="#8cc152"/><path d="M343.992 101.031a4.005 4.005 0 01-3.945-3.375c-5.969-37.8-38.047-61.144-38.375-61.367a3.997 3.997 0 01-.918-5.578c1.262-1.8 3.758-2.215 5.566-.934 1.434 1.024 35.13 25.446 41.633 66.63a4.01 4.01 0 01-3.328 4.577c-.21.032-.426.047-.633.047zm0 0" fill="#7eaf3e"/><path d="M466.078 160.64v.079c-56.637 14.875-81.68 60.64-230.078 60.64 0 0 26.16-53.765 81.602-89.687C340.64 116.719 368.64 104.8 402 101.129c5.84-.64 11.84-1.05 18-1.129 10.64 60.64 46.078 10.488 46.078 60.64zm0 0" fill="#a0d468"/><path d="M345.36 178.64a4 4 0 01-3.36-1.831 4 4 0 011.184-5.528c30.097-19.441 37.046-35.297 37.12-35.457.856-2.023 3.2-3.008 5.216-2.152a3.976 3.976 0 012.175 5.183c-.297.73-7.64 18.13-40.168 39.137a3.845 3.845 0 01-2.168.649zm0 0M272 133.04c-.488 0-.977-.087-1.465-.27-34.062-13.329-38.191-28.442-42.183-43.051-3.45-12.598-6.696-24.504-30.239-37.16a3.998 3.998 0 01-1.633-5.414c1.047-1.954 3.489-2.657 5.415-1.633 26.57 14.273 30.617 29.054 34.175 42.097 3.793 13.864 7.067 25.84 37.395 37.704a4 4 0 012.262 5.183A3.997 3.997 0 01272 133.04zm0 0" fill="#8cc152"/></svg>
