<svg xmlns="http://www.w3.org/2000/svg" id="svg-icon" viewBox="0 0 512 512"><path d="M293.333 97.104s27.733-42.667 87.467-37.333v11.733s-37.333-8.534-87.467 25.6z" fill="#ffd15c"/><path d="M280.533 43.77s27.733-44.8 85.333-42.667v11.733c1.067.001-34.133-8.532-85.333 30.934z" fill="#84dbff"/><path d="M218.667 97.104S190.934 54.437 131.2 59.771v11.733s37.333-8.534 87.467 25.6z" fill="#ffd15c"/><g fill="#84dbff"><path d="M230.4 41.637S201.6-2.096 142.933 2.17v11.733c0 .001 35.2-9.599 87.467 27.734zM374.4 113.104h-11.733l8.533-8.533c1.067-1.067 1.067-2.133 0-3.2s-2.133-1.067-3.2 0l-8.533 8.533V99.237c0-1.067-1.067-2.133-2.133-2.133-1.067 0-2.133 1.067-2.133 2.133v11.733l-8.533-8.533c-1.067-1.067-2.133-1.067-3.2 0-1.067 1.067-1.067 2.133 0 3.2L352 114.17h-10.667c-1.067 0-2.133 1.067-2.133 2.133 0 1.067 1.067 1.067 2.133 1.067h11.733l-8.533 8.533c-1.067 1.067-1.067 2.133 0 3.2l1.067 1.067s1.067 0 1.067-1.067l8.533-8.533v11.733c0 1.067 1.067 2.133 2.133 2.133 1.067 0 2.133-1.067 2.133-2.133V120.57l8.533 8.533 1.067 1.067s1.067 0 1.067-1.067c1.067-1.067 1.067-2.133 0-3.2l-7.467-8.533H374.4c1.067 0 2.133-1.067 2.133-2.133s-1.066-2.133-2.133-2.133z"/></g><path d="M184.533 153.637H172.8l8.533-8.533c1.067-1.067 1.067-2.133 0-3.2-1.067-1.067-2.133-1.067-3.2 0l-7.467 9.6V139.77c0-1.067-1.067-2.133-2.133-2.133s-2.133 1.067-2.133 2.133v11.733l-8.533-8.533c-1.067-1.067-2.133-1.067-3.2 0-1.067 1.067-1.067 2.133 0 3.2l8.533 8.533h-11.733c-1.067 0-2.133 1.067-2.133 2.133 0 1.067 1.067 2.133 2.133 2.133H163.2l-8.533 8.533c-1.067 1.067-1.067 2.133 0 3.2l1.067 1.067s1.067 0 1.067-1.067l8.533-8.533v11.733c0 1.067 1.067 2.133 2.133 2.133 1.067 0 2.133-1.067 2.133-2.133V162.17l8.533 8.533 1.067 1.067s1.067 0 1.067-1.067c1.067-1.067 1.067-2.133 0-3.2l-8.533-8.533h11.733c1.067 0 2.133-1.067 2.133-2.133s0-3.2-1.067-3.2z" fill="#ffd15c"/><g fill="#ff7058"><path d="M419.2 116.304v12.8l9.6 6.4-11.733 4.266-3.2 11.734-7.467-9.6h-12.8l7.467-9.6-4.267-11.734 11.733 3.2zM101.333 59.77v11.734L112 78.97l-11.733 4.267L96 94.97l-7.467-10.666L76.8 85.37l7.467-10.666L80 62.97l11.733 4.267z"/></g><g fill="#84dbff"><path d="M328.533 151.504v8.533l6.4 4.267-7.466 2.133-2.134 8.533-5.333-6.4h-7.467l4.267-6.4-2.133-7.466 7.466 2.133zM165.333 92.837v8.533l6.4 4.267-7.466 2.133-2.134 7.467-4.266-6.4h-8.534l5.334-6.4-3.2-7.467 7.466 3.2z"/></g><path d="M491.733 510.97H20.267C9.6 510.97 0 502.437 0 490.704c0-10.667 8.533-20.267 20.267-20.267h471.467c10.667 0 20.267 8.533 20.267 20.267-.001 11.733-8.534 20.266-20.268 20.266z" fill="#acb3ba"/><path fill="#ffd15c" d="M30.933 358.437h450.133v62.933H30.933z"/><path fill="#ff7058" d="M30.933 421.37h450.133v50.133H30.933z"/><path d="M444.8 308.304H67.2v-80c0-11.733 9.6-21.333 21.333-21.333h334.933c11.733 0 21.333 9.6 21.333 21.333v80z" fill="#ffd15c"/><g fill="#ff7058"><path d="M481.067 358.437H30.933v-28.8c0-11.733 9.6-21.333 21.333-21.333h407.467c11.733 0 21.333 9.6 21.333 21.333l.001 28.8zM423.467 206.97H88.533c-11.733 0-21.333 9.6-21.333 21.333v43.733c25.6 0 49.067-8.533 67.2-26.667 16-14.933 40.533-17.067 55.467-1.067 27.733 27.733 69.333 36.267 109.867 18.133 8.533-4.267 16-10.667 22.4-17.067 19.2-19.2 53.333-14.933 65.067 13.867 9.6 23.467 39.467 32 57.6 12.8v-43.733c-.001-11.732-9.601-21.332-21.334-21.332z"/></g><path d="M279.467 208.037h-46.933V130.17c0-6.4 4.267-10.667 10.667-10.667h25.6c6.4 0 10.667 4.267 10.667 10.667v77.867z" fill="#cdd6e0"/><path d="M276.267 87.504c0 11.733-9.6 20.267-20.267 20.267s-20.267-9.6-20.267-20.267S240 76.837 256 50.17c6.4-9.6 20.267 17.067 20.267 37.334z" fill="#ffd15c"/></svg>
