<svg viewBox="0 0 512 512" height="512" width="512" xmlns="http://www.w3.org/2000/svg" id="svg-icon"><path d="M23.98 335.988L335.934 24.035 487.91 176.01 175.957 487.965z" fill="#7a432a"/><path d="M488 176L176 488l-97.84-97.84c152.44-49.26 259.35-112.7 374.13-249.87z" fill="#6e3c26"/><g fill="#92563a"><path d="M295.958 112.024l39.995-39.994 39.994 39.994-39.994 39.994zM359.944 176.024l39.995-39.994 39.994 39.994-39.994 39.994zM231.958 176.01l39.995-39.994 39.994 39.994-39.994 39.994zM295.944 240.01l39.995-39.994 39.994 39.994-39.994 39.994zM167.958 239.997l39.995-39.994 39.994 39.994-39.994 39.994z"/></g><path d="M23.96 335.979l31.995-31.995L207.93 455.96l-31.995 31.996z" fill="#ffb531"/><path d="M384 280L208 456 56 304l88-88 182.28 48.61z" fill="#f35244"/><path d="M90.298 306.334l31.995-31.995 11.312 11.312-31.995 31.995zM133.548 263.094l12.748-12.748 11.312 11.312-12.748 12.748z" fill="#fc685b"/><path d="M384 280L208 456l-82.27-82.27c75.25-27.82 139.52-61.32 200.55-109.12z" fill="#e64c3f"/><path d="M208 456l-32 32-97.84-97.84q24.54-7.935 47.57-16.43z" fill="#ffa912"/><path d="M144 216l128 104 112-40z" fill="#f2dec2"/></svg>
