<svg xmlns="http://www.w3.org/2000/svg" id="svg-icon" viewBox="0 0 512 512"><path d="M434.529 477.993s-55.862 12.152-105.786-2.862c-30.839-9.259-51.331-26.461-62.488-38.247v56.841h-20.493v-56.841c-11.172 11.785-31.665 28.987-62.504 38.247-49.939 15.013-105.801 2.862-105.801 2.862s39.915-40.925 89.854-55.938a143.314 143.314 0 0119.926-4.484c-17.325-4.009-37.099-10.178-58.28-19.651C57.347 365.918 0 309.948 0 309.948s79.952 5.372 151.562 37.374c25.237 11.28 45.654 24.166 61.524 36.15-18.61-20.722-41.016-49.556-62.595-87.068-50.016-87.006-74.334-184.069-74.702-185.583.934.903 72.666 70.845 122.758 157.959 15.274 26.585 26.585 51.362 34.909 72.972-4.851-27.747-8.57-61.769-8.57-100.995C224.886 127.182 256 18.274 256 18.274s31.114 108.908 31.114 222.483c0 39.225-3.719 73.248-8.571 100.995 8.326-21.61 19.621-46.388 34.91-72.972 50.077-87.114 121.81-157.056 122.758-157.959-.367 1.516-24.702 98.577-74.701 185.583-21.564 37.496-43.985 66.314-62.565 87.038 15.871-11.984 36.287-24.855 61.494-36.119 65.381-29.216 137.695-36.241 149.801-37.236.735-.061 1.255-.107 1.531-.122.153-.015.229-.015.229-.015s-57.347 55.969-128.957 87.97c-21.182 9.473-40.94 15.642-58.28 19.651a143.296 143.296 0 0119.927 4.484c31.772 9.55 59.474 29.599 75.436 42.914.505.413.995.827 1.47 1.239a239.765 239.765 0 019.152 8.127c.29.275.551.521.811.78a129.14 129.14 0 012.97 2.878z" fill="#4bc999"/><g fill="#41b787"><path d="M213.088 383.471c9.437-9.437 10.259-24.484 1.848-34.846-15.004-18.487-31.43-41.498-47.402-69.263-27.137-47.208-46.705-97.369-58.992-133.629-19.03-21.537-32.353-34.528-32.751-34.914.367 1.516 24.687 98.577 74.702 185.583 7.486 13.016 40.923 65.398 62.595 87.069zM233.458 341.752c10.445-10.445 15.491-25.146 13.553-39.791-3.035-22.929-5.08-49.157-5.08-78.246 0-69.476 11.643-137.197 20.683-179.32-3.863-16.502-6.611-26.122-6.611-26.122s-31.114 108.908-31.114 222.483c-.001 10.075 1.42 64.724 8.569 100.996zM278.545 341.752c10.741-10.741 19.309-23.427 25.382-37.35 7.137-16.361 15.876-34.071 26.57-52.664 35.168-61.178 81.014-113.884 105.526-140.161.109-.428.174-.691.19-.757-.949.903-72.681 70.845-122.758 157.959-4.826 8.392-28.605 52.005-34.91 72.973zM512 309.948s-57.347 55.969-128.957 87.971c-21.182 9.473-40.94 15.642-58.28 19.651 0 0 .475-.321 1.27-.888 16.009-11.294 33.533-20.202 51.944-26.875a317.361 317.361 0 0022.115-8.938c46.48-20.768 86.945-51.637 109.627-70.738.184-.015.367-.031.521-.046.735-.061 1.255-.092 1.531-.122.153-.015.229-.015.229-.015zM187.238 417.57c.742-.324 1.466-.819 2.174-1.438 7.158-6.243 4.299-18.099-4.794-20.841A323.064 323.064 0 01146 380.877c-42.3-18.903-79.614-46.165-103.08-65.318-25.658-4.45-42.919-5.611-42.919-5.611s57.347 55.969 128.957 87.97c12.934 5.786 46.634 16.071 58.28 19.652zM434.529 477.993s-55.862 12.152-105.786-2.862c-22.62-6.795-39.67-17.845-51.545-27.916a137.438 137.438 0 01-10.943-10.331l.122-.122a24.782 24.782 0 0110.821-6.382c7.56-2.188 15.993-.78 22.651 4.301 11.432 8.738 26.676 17.616 45.944 23.416 26.109 7.851 53.811 8.265 74.335 6.871h.015c.49.413.98.827 1.455 1.239a239.858 239.858 0 019.152 8.127c.29.275.551.521.811.78a132.046 132.046 0 012.968 2.879zM256.536 426.019v67.708h-10.775v-56.841c-11.172 11.785-31.665 28.987-62.504 38.247-49.939 15.013-105.801 2.862-105.801 2.862s7.041-7.209 18.886-16.682c9.948 1.913 59.306 10.208 103.964-3.214 25.774-7.762 44.323-21.03 56.23-32.08z"/></g></svg>
