<svg viewBox="0 0 14 14" xmlns="http://www.w3.org/2000/svg" id="svg-icon"><path d="M7 10.035c-1.272 0-2.307-1.005-2.307-2.24 0-1.212 1.352-3.115 1.623-3.484A.845.845 0 017 3.975c.274 0 .53.126.684.337.27.368 1.622 2.271 1.622 3.484 0 1.234-1.034 2.24-2.306 2.24zM6.974 4.8c-.507.692-1.461 2.202-1.461 2.996 0 .782.666 1.419 1.485 1.419.82 0 1.486-.637 1.486-1.42 0-.793-.954-2.304-1.461-2.995-.005-.006-.01-.015-.025-.015-.011 0-.016.006-.024.015z"/><path d="M12.688 4.813c0-.57-.366-1.057-.876-1.238V2.55c.51-.18.876-.667.876-1.237 0-.724-.59-1.313-1.313-1.313h-8.75a1.314 1.314 0 00-.438 2.55v1.025c-.509.18-.874.667-.874 1.237 0 .57.365 1.058.875 1.238v1.9c-.51.18-.876.667-.876 1.237 0 .57.366 1.058.875 1.238v1.025A1.314 1.314 0 002.626 14h8.75a1.314 1.314 0 00.438-2.55v-1.025a1.315 1.315 0 000-2.475v-1.9c.509-.18.874-.667.874-1.237zM11.374 8.75a.438.438 0 010 .875.438.438 0 00-.438.438v1.75c0 .241.196.437.438.437a.438.438 0 010 .875h-8.75a.438.438 0 010-.875.438.438 0 00.438-.438v-1.75a.438.438 0 00-.438-.437.438.438 0 010-.875.438.438 0 00.438-.438V5.688a.438.438 0 00-.438-.438.438.438 0 010-.875.438.438 0 00.438-.438v-1.75a.438.438 0 00-.438-.437.438.438 0 010-.875h8.75a.438.438 0 010 .875.438.438 0 00-.438.438v1.75c0 .241.196.437.438.437a.438.438 0 010 .875.438.438 0 00-.438.438v2.625c0 .241.196.437.438.437z"/></svg>
