<svg id="svg-icon" viewBox="0 0 512 512" xmlns="http://www.w3.org/2000/svg"><path d="M495.97 296.17c-9.95-59.8-82.41-101.55-108.9-114.96a8.306 8.306 0 01-2.56-12.81c17.48-20.47 60.96-73.48 57.15-90.35-4.75-21.06-184.66 70.67-192.8 89.02-6.18 13.9 27.82 61.37 44.64 83.54a11.011 11.011 0 01-4.81 16.92l-18.95 7.32-21.9 97.86 12.63 24.14a39.975 39.975 0 0046.51 19.9c63.23-18.29 198.38-64.22 188.99-120.58z" fill="#ce7c45"/><path d="M286.39 314.92c3.5 21.01-13.09 40.57-38.55 57.79C205 401.68 137.06 424.03 97.4 435.5a39.97 39.97 0 01-46.51-19.9l-30.76-58.81a40 40 0 0121.03-55.85l37.95-14.66a11.013 11.013 0 004.81-16.92c-16.82-22.17-50.82-69.64-44.64-83.55 8.14-18.34 188.05-110.07 192.8-89.01 3.81 16.86-39.67 69.88-57.15 90.35a8.309 8.309 0 002.56 12.81c20.08 10.16 66.6 36.62 92.25 74.89 8.19 12.21 14.25 25.61 16.65 40.07z" fill="#ed8c4a"/><path d="M80.89 415.6l-30.76-58.81a40 40 0 0121.03-55.85l37.95-14.66a11.013 11.013 0 004.81-16.92c-16.82-22.17-50.82-69.64-44.64-83.55 6.152-13.861 110.412-69.638 163.025-86.967a10.232 10.232 0 00-.225-2.043c-4.75-21.06-184.66 70.67-192.8 89.01-6.18 13.91 27.82 61.38 44.64 83.55a11.013 11.013 0 01-4.81 16.92l-37.95 14.66a40 40 0 00-21.03 55.85l30.76 58.81a39.97 39.97 0 0046.51 19.9c1.376-.4 2.794-.812 4.236-1.236A39.932 39.932 0 0180.89 415.6z" fill="#b76f3d"/><path d="M136.053 394.586a6 6 0 01-2.01-11.655l6.542-2.326a6 6 0 014.02 11.307l-6.542 2.325a5.975 5.975 0 01-2.01.349zM81.545 416.024a6 6 0 01-2.178-11.593l35.611-13.862a6 6 0 014.353 11.184L83.72 415.614a5.97 5.97 0 01-2.175.41z" fill="#f4f8fc"/><g fill="#b27246"><path d="M220.109 315.983a6 6 0 007.452 9.407c17.445-13.824 35.56-19.946 53.83-18.192a5.984 5.984 0 003.193-.585 94.847 94.847 0 00-3.905-11.489c-20.82-1.488-41.188 5.503-60.57 20.859zM194.911 281.281a6 6 0 107.846 9.078c18.22-15.748 37.428-22.775 57.093-20.89a5.977 5.977 0 004.8-1.715 162.262 162.262 0 00-8.822-10.547c-21.21-.628-41.679 7.447-60.917 24.074zM160.069 248.021a6 6 0 008.4 1.221C185.542 236.5 202.4 231.128 220 232.817a6.011 6.011 0 005.687-2.848 292.25 292.25 0 00-13.157-9.416c-17.462.316-34.659 6.7-51.239 19.072a6 6 0 00-1.222 8.396z"/></g><path d="M429.69 297.235a6 6 0 107.451 9.407c17.447-13.823 35.559-19.945 53.83-18.191a5.97 5.97 0 003.195-.583 94.857 94.857 0 00-3.91-11.492c-20.821-1.491-41.184 5.503-60.566 20.859zM404.491 262.534a6 6 0 107.847 9.078c18.219-15.747 37.429-22.774 57.093-20.89a5.979 5.979 0 004.8-1.711 162.29 162.29 0 00-8.818-10.552c-21.213-.63-41.684 7.446-60.922 24.075zM369.65 229.274a6 6 0 008.4 1.221c17.075-12.74 33.936-18.116 51.534-16.425a6 6 0 005.688-2.848 291.028 291.028 0 00-13.154-9.415c-17.463.316-34.662 6.7-51.244 19.071a6 6 0 00-1.224 8.396z" fill="#99623d"/></svg>