<svg height="511pt" viewBox="-24 0 511 512" width="511pt" xmlns="http://www.w3.org/2000/svg" id="svg-icon"><path d="M208.578 423.191a7.647 7.647 0 00-7.644 7.649v48.797l-36.93-12.84a7.644 7.644 0 00-9.73 4.71 7.642 7.642 0 004.71 9.735l24.649 8.57-24.313 7.208c-4.047 1.199-6.36 5.457-5.156 9.503a7.648 7.648 0 007.328 5.477c.719 0 1.45-.105 2.176-.32l47.086-13.957a7.649 7.649 0 005.473-7.332v-59.555c0-4.219-3.426-7.645-7.649-7.645zm0 0M294.191 417.96a7.645 7.645 0 00-7.648 7.65v54.03l-36.926-12.843a7.648 7.648 0 00-5.023 14.445l24.648 8.57-24.312 7.208a7.65 7.65 0 002.172 14.98c.718 0 1.449-.102 2.175-.316l47.086-13.961a7.645 7.645 0 005.473-7.332v-64.786a7.644 7.644 0 00-7.645-7.644zm0 0" fill="#ffa812"/><path d="M39.184 243.121c-3.41-28.957-3.664-53.02-1.711-73.043-.004 0-50.121 35.012-33.649 60.934 8.422 13.25 23.094 14.527 35.426 12.61-.023-.169-.047-.333-.066-.5zm0 0" fill="#ff4755"/><path d="M36.832 216.422c-11.375 1.324-24.2-.414-32.164-11.68-4.559 8.723-6.125 17.961-.844 26.266 8.422 13.254 23.094 14.527 35.422 12.613-.02-.168-.043-.332-.062-.5-1.11-9.41-1.88-18.293-2.352-26.7zm0 0" fill="#fc2b3a"/><path d="M48.598 122.434c-27.235 7.523-46.383 14.484-44.668 27.16 1.578 11.668 23.699 18.156 33.543 20.484 1.898-19.457 5.886-35.094 11.125-47.644zm0 0" fill="#ffa812"/><path d="M12.348 135.871c-6.004 3.848-9.157 8.254-8.418 13.723 1.578 11.668 23.699 18.156 33.543 20.484a207.058 207.058 0 012.437-17.52c-9.95-2.816-24.203-8.226-27.562-16.687zm0 0" fill="#ff9a00"/><path d="M80.219 82.46c15.52-10.065 30.43-11.155 35.699-11.28 30.469-.735 46.969 10.437 57.836 26.648 9.344-4.922 28.492-17.23 22.668-33.07-8.274-22.512-30.93-9.336-30.93-9.336s6.555-15.953-7.625-26.317c-14.183-10.363-31.543-.66-31.543-.66-4.332-33.035-50.77-40.254-68.66-5.82C43.441 49.996 70.52 74.773 80.22 82.461zm0 0" fill="#ff4755"/><path d="M173.754 97.828c5.34-2.812 13.879-8.043 19.133-14.965-15.168-15.746-36.309-30.574-62.98-32.261-29.86-1.887-52.165 5.851-66.93 13.957 5.886 8.304 13.128 14.64 17.242 17.902 15.52-10.066 30.43-11.156 35.699-11.281 30.469-.735 46.969 10.437 57.836 26.648zm0 0" fill="#fc2b3a"/><path d="M115.918 71.18c-14 .336-96.106 7.433-76.734 171.941C56.18 387.453 158.223 433.074 238.125 432.828c116.133-.36 260.934-97.937 218.52-251.476 0 0-12.829-57.059-57.051-54.602-44.219 2.457-42.774 89.406-138.188 79.844-96.793-9.703-44.554-137.852-145.488-135.414zm0 0" fill="#ffe9c8"/><path d="M238.125 405.3c-79.902.247-181.945-45.374-198.941-189.706-1.375-11.668-2.223-22.52-2.637-32.66-.793 17.261-.07 37.183 2.637 60.187C56.18 387.453 158.223 433.074 238.125 432.828c105.777-.328 235.324-81.308 225.547-211.762-8.84 114.223-127.422 183.93-225.547 184.235zm0 0" fill="#ffdca7"/><path d="M263.707 353.273c-27.434 0-57.324-7.683-82.43-32.441-22.87-22.559-30.636-48.547-30.957-49.64a7.648 7.648 0 015.2-9.485c4.046-1.176 8.289 1.14 9.476 5.188.098.328 7.234 23.77 27.457 43.476 26.785 26.102 63.16 33.824 108.121 22.961 28.121-6.797 44.34-22.437 52.988-34.363 10.481-14.45 15.528-31.61 13.5-45.906a7.638 7.638 0 016.493-8.645c4.187-.594 8.054 2.312 8.644 6.492 5.18 36.469-23.18 84.031-78.035 97.285-12.074 2.918-25.922 5.078-40.457 5.078zm0 0" fill="#ffcf86"/><path d="M113.309 124.883c-8.762 0-15.621 8.535-15.621 19.426 0 10.894 6.859 19.425 15.62 19.425 8.758 0 15.618-8.53 15.618-19.425 0-10.891-6.86-19.426-15.617-19.426zm0 0" fill="#433f43"/></svg>
