<svg xmlns="http://www.w3.org/2000/svg" id="svg-icon" viewBox="0 0 512.002 512.002"><path fill="#e4e9ed" d="M0 346.397h511.325v95.482H0z"/><path d="M460.409 70.124s-43.225 18.824-43.225 87.148c0 57.866 60.655 63.443 60.655 109.457 0 34.162-9.76 44.62-9.76 44.62s43.923-34.859 43.923-84.359c-.002-72.507-67.628-34.86-51.593-156.866z" fill="#c7d9e5"/><path fill="#f49f00" d="M0 346.397h170.689v95.482H0z"/><path fill="#babecb" d="M153.471 346.397h34.434v95.482h-34.434z"/><path fill="#d7d9db" d="M0 407.442h511.325v34.434H0z"/><path fill="#a5a7b7" d="M464.951 346.397h46.374v95.482h-46.374z"/><path fill="#9396a3" d="M464.951 407.442h46.374v34.434h-46.374z"/><path fill="#dd8903" d="M0 407.442h170.689v34.434H0z"/><path fill="#9ea3b2" d="M153.471 407.442h34.434v34.434h-34.434z"/></svg>
