<svg xmlns="http://www.w3.org/2000/svg" id="svg-icon" viewBox="0 0 512 512"><path d="M424.687 345.19v25.298h-31.585V345.19c0-5.451 3.997-9.866 8.921-9.866h13.732c4.935 0 8.932 4.415 8.932 9.866z" fill="#757574"/><path d="M410.613 348.58v-13.256h-8.59c-4.924 0-8.921 4.415-8.921 9.867v25.298h31.585v-11.952h-4.119c-5.498-.001-9.955-4.459-9.955-9.957z" fill="#5b5b59"/><path d="M446.331 375.542v17.225H368.46v-17.225a8.387 8.387 0 018.386-8.386h61.1a8.38 8.38 0 018.385 8.386z" fill="#dddbc7"/><path d="M446.331 375.542v17.225H368.46v-17.225a8.387 8.387 0 018.386-8.386h61.1a8.38 8.38 0 018.385 8.386z" fill="#dddbc7"/><path d="M413.279 367.157h-36.433a8.387 8.387 0 00-8.386 8.386v17.225h36.432v-17.225a8.387 8.387 0 018.387-8.386z" fill="#c4c1ae"/><path d="M299.345 139.806v83.743l-236.942-2.06v-81.683c0-6.377 4.749-11.548 10.611-11.548h215.72c5.862 0 10.611 5.171 10.611 11.548z" fill="#ed3124"/><path d="M147.908 8.963v202.225h-32.966V8.963A8.956 8.956 0 01123.905 0h15.041a8.955 8.955 0 018.962 8.963z" fill="#cecbb6"/><g fill="#d8a013"><path d="M246.806 160.399v50.788H213.84v-50.788a8.956 8.956 0 018.963-8.963h15.041a8.957 8.957 0 018.962 8.963z"/><path d="M279.771 160.399v50.788h-32.966v-50.788a8.956 8.956 0 018.963-8.963h15.041a8.957 8.957 0 018.962 8.963z"/></g><path d="M271.53 151.473a8.593 8.593 0 00-.721-.036h-15.041a8.956 8.956 0 00-8.963 8.963v50.788h16.483V160.4a8.951 8.951 0 018.242-8.927z" fill="#c68e10"/><path d="M114.942 211.187H81.977v-50.788a8.961 8.961 0 018.963-8.963h15.041a8.962 8.962 0 018.963 8.963c-.002 0-.002 50.788-.002 50.788z" fill="#d8a013"/><path d="M106.701 151.473a8.593 8.593 0 00-.721-.036H90.939a8.962 8.962 0 00-8.963 8.963v50.788H98.46V160.4c0-4.705 3.625-8.559 8.241-8.927z" fill="#c68e10"/><path d="M299.345 185.742v315.647c0 5.862-4.749 10.611-10.611 10.611H73.014c-5.862 0-10.611-4.749-10.611-10.611V185.742c0-5.862 4.749-10.611 10.611-10.611h26.105a9.212 9.212 0 019.035 7.428l3.348 16.977a14.453 14.453 0 0014.175 11.651h110.394a14.453 14.453 0 0014.175-11.651l3.348-16.977a9.213 9.213 0 019.035-7.428h26.105c5.862 0 10.611 4.749 10.611 10.611z" fill="#dddbc7"/><path d="M173.148 501.389V211.187h-47.471a14.453 14.453 0 01-14.175-11.651l-3.348-16.977a9.213 9.213 0 00-9.035-7.428H73.014c-5.862 0-10.611 4.749-10.611 10.611v315.647c0 5.862 4.749 10.611 10.611 10.611h110.744c-5.861 0-10.61-4.749-10.61-10.611z" fill="#c4c1ae"/><path d="M299.345 365.117v136.272c0 5.862-4.749 10.611-10.611 10.611H73.014c-5.862 0-10.611-4.749-10.611-10.611V365.117l108.427-55.321a21.048 21.048 0 0119.069-.041l109.446 55.362z" fill="#ed3124"/><path d="M173.148 501.389V308.782c-.787.289-1.562.626-2.318 1.013L62.403 365.116v136.273c0 5.495 4.174 10.012 9.526 10.556.356.036.719.055 1.085.055h110.744c-5.861 0-10.61-4.749-10.61-10.611z" fill="#e00e0e"/><path d="M268.439 433.428v22.19c0 7.809-6.336 14.144-14.144 14.144H107.453c-7.809 0-14.144-6.336-14.144-14.144v-22.19c0-7.809 6.336-14.144 14.144-14.144h146.842c7.809 0 14.144 6.335 14.144 14.144z" fill="#dddbc7"/><path d="M254.295 419.284H107.453c-7.728 0-14.004 6.209-14.132 13.907h144.491c7.809 0 14.144 6.336 14.144 14.144v22.19c0 .08-.01.158-.012.237h2.351c7.809 0 14.144-6.336 14.144-14.144v-22.19c0-7.809-6.335-14.144-14.144-14.144z" fill="#c4c1ae"/><g fill="#d8a013"><path d="M213.84 160.399v50.788h-32.966v-50.788a8.956 8.956 0 018.963-8.963h15.041a8.957 8.957 0 018.962 8.963z"/><path d="M180.874 160.399v50.788h-32.966v-50.788a8.956 8.956 0 018.963-8.963h15.041a8.957 8.957 0 018.962 8.963z"/></g><path d="M139.667.036a9.534 9.534 0 00-.721-.036h-15.041a8.956 8.956 0 00-8.963 8.963v202.225h16.483V8.963c0-4.712 3.626-8.559 8.242-8.927z" fill="#b7b4a1"/><g fill="#c68e10"><path d="M238.564 151.473a8.593 8.593 0 00-.721-.036h-15.041a8.956 8.956 0 00-8.963 8.963v50.788h16.483V160.4a8.951 8.951 0 018.242-8.927zM205.598 151.473a8.593 8.593 0 00-.721-.036h-15.041a8.956 8.956 0 00-8.963 8.963v50.788h16.483V160.4a8.951 8.951 0 018.242-8.927zM172.633 151.473a8.593 8.593 0 00-.721-.036h-15.041a8.956 8.956 0 00-8.963 8.963v50.788h16.483V160.4a8.95 8.95 0 018.242-8.927z"/></g><path d="M138.946 0h-15.041a8.956 8.956 0 00-8.963 8.963v50.061h32.966V8.963A8.955 8.955 0 00138.946 0z" fill="#d8a013"/><path d="M131.425 8.963a8.952 8.952 0 018.241-8.927 9.507 9.507 0 00-.72-.036h-15.041a8.956 8.956 0 00-8.963 8.963v50.061h16.483V8.963z" fill="#c68e10"/><path d="M449.597 395.803v100.219c0 8.54-6.923 15.463-15.463 15.463h-50.757c-8.54 0-15.463-6.923-15.463-15.463V392.767h78.647a3.036 3.036 0 013.036 3.036z" fill="#ddd"/><path d="M404.889 496.022V392.767h-36.975v103.255c0 8.54 6.923 15.463 15.463 15.463h36.975c-8.539 0-15.463-6.923-15.463-15.463z" fill="#c9c0bd"/><path d="M368.46 316.184v77.129h-17.699c-10.674 0-19.326-8.652-19.326-19.326v-43.031c0-10.674 8.652-19.326 19.326-19.326h13.144a4.554 4.554 0 014.555 4.554z" fill="#757574"/><path d="M447.897 268.465c.834 18.378-9.169 26.682-18.183 30.432-7.211 2.988-15.35 2.833-22.52-.258a85.478 85.478 0 01-6.531-3.132c-10.199-5.46-16.627-16.091-16.524-27.66.041-4.893.907-8.777 2.05-11.796 1.731-4.512 5.13-8.221 9.447-10.395 17.933-9.015 19.862-21.716 19.199-29.076-.18-2.004 2.352-3.019 3.644-1.476 7.336 8.76 12.311 25.203 2.83 36.094-6.068 6.985-5.645 11.6-3.884 14.392 1.988 3.173 6.099 4.399 9.539 2.926 4.471-1.916 5.161-7.335 4.78-12.166-.371-4.522 4.852-7.304 8.344-4.399a20.93 20.93 0 013.884 4.327c2.431 3.595 3.729 7.85 3.925 12.187z" fill="#ea3b18"/><path d="M426.63 281.83a85.478 85.478 0 01-6.531-3.132c-10.199-5.46-16.627-16.091-16.524-27.66.041-4.893.907-8.777 2.05-11.796.062-.161.141-.313.207-.472-2.627 2.422-5.961 4.757-10.196 6.887-4.316 2.174-7.716 5.882-9.447 10.395-1.143 3.018-2.009 6.902-2.05 11.796-.103 11.569 6.325 22.2 16.524 27.66a85.66 85.66 0 006.531 3.132c7.17 3.091 15.308 3.245 22.52.258 6.116-2.545 12.685-7.191 16.016-15.654-6.296 1.704-13.043 1.197-19.1-1.414z" fill="#dd2c10"/><path d="M363.905 311.63H350.76c-.275 0-.542.03-.814.041v81.601c.272.011.539.041.814.041h17.699v-77.129a4.552 4.552 0 00-4.554-4.554z" fill="#5b5b59"/></svg>
