<svg id="svg-icon" viewBox="0 0 512 512" xmlns="http://www.w3.org/2000/svg"><path d="M512 64c0 35.35-28.49 64-63.63 64H31.81c-.21 0-.49 0-.83-.01-8.46-.22-16.09-3.75-21.66-9.36a31.841 31.841 0 01-4.74-6.08A31.955 31.955 0 010 96c0-17.67 14.24-32 31.81-32-.28 0-.56-.01-.85-.01-1.89-.05-3.73-.271-5.52-.63-.01 0-.02 0-.04-.01a31.65 31.65 0 01-16.08-8.72 31.841 31.841 0 01-4.74-6.08A31.955 31.955 0 010 32C0 14.33 14.24 0 31.81 0h416.56c4.04 0 7.99.38 11.81 1.11 12.84 2.41 24.31 8.71 33.18 17.63C504.88 30.32 512 46.32 512 64z" fill="#aca6d6"/><path d="M512 64c0 35.35-28.49 64-63.63 64H31.81c-.21 0-.49 0-.83-.01-8.46-.22-16.09-3.75-21.66-9.36a31.841 31.841 0 01-4.74-6.08h412.89c20.9 0 39.46-10.15 51.06-25.81 8.07-10.89-.53-25.01-14.09-24.94L31.81 64c-.28 0-.56-.01-.85-.01-1.89-.05-3.73-.271-5.52-.63-.01 0-.02 0-.04-.01a31.65 31.65 0 01-16.08-8.72 31.841 31.841 0 01-4.74-6.08h412.89c16.44 0 31.42-6.28 42.71-16.59 8.99-8.2 9.12-22.48.15-30.71-.03-.03-.1-.09-.15-.14 12.84 2.41 24.31 8.71 33.18 17.63C504.88 30.32 512 46.32 512 64z" fill="#978ecb"/><path d="M480.186 192c17.57 0 31.814 14.327 31.814 32 0 17.673-14.244 32-31.814 32H63.629C28.487 256 0 227.346 0 192c0-35.346 28.487-64 63.629-64h416.557c17.57 0 31.814 14.327 31.814 32 0 17.673-14.244 32-31.814 32" fill="#7acaa6"/><path d="M480.185 192c.565 0 1.079-.014 1.548-.039.187-.009.372-.026.559-.038.025-.002.053-.003.078-.006C499.005 190.784 512 176.679 512 160c0-17.547-14.128-32.009-31.815-32l.909 16.547c0 17.673-14.244 32-31.814 32H32.723c-1.783 0-15.593-.077-30.793-.226A64.493 64.493 0 000 191.956c.606.018 1.209.044 1.818.044h462.594c9.086 0 16.633 7.269 16.682 16.355v.192c0 17.673-14.244 32-31.814 32H32.723c-4.039 0-7.985-.395-11.815-1.119C32.201 249.726 47.186 256 63.629 256h416.557c17.57 0 31.814-14.327 31.814-32s-14.244-32-31.815-32z" fill="#57be92"/><g><path d="M512 320c0 35.35-28.49 64-63.63 64H31.81c-.21 0-.49 0-.83-.01-8.46-.22-16.09-3.75-21.66-9.36a31.841 31.841 0 01-4.74-6.08A31.955 31.955 0 010 352c0-17.67 14.24-32 31.81-32-.28 0-.56-.01-.85-.01-1.89-.05-3.73-.271-5.52-.63-.01 0-.02 0-.04-.01a31.65 31.65 0 01-16.08-8.72 31.841 31.841 0 01-4.74-6.08A31.955 31.955 0 010 288c0-17.67 14.24-32 31.81-32h416.56c4.04 0 7.99.38 11.81 1.11 12.84 2.41 24.31 8.71 33.18 17.63C504.88 286.32 512 302.32 512 320z" fill="#aca6d6"/><path d="M512 320c0 35.35-28.49 64-63.63 64H31.81c-.21 0-.49 0-.83-.01-8.46-.22-16.09-3.75-21.66-9.36a31.841 31.841 0 01-4.74-6.08h412.89c20.9 0 39.46-10.15 51.06-25.81 8.07-10.89-.53-25.01-14.09-24.94L31.81 320c-.28 0-.56-.01-.85-.01-1.89-.05-3.73-.271-5.52-.63-.01 0-.02 0-.04-.01a31.65 31.65 0 01-16.08-8.72 31.841 31.841 0 01-4.74-6.08h412.89c16.44 0 31.42-6.28 42.71-16.59 8.99-8.2 9.12-22.48.15-30.71-.03-.03-.1-.09-.15-.14 12.84 2.41 24.31 8.71 33.18 17.63C504.88 286.32 512 302.32 512 320z" fill="#978ecb"/><path d="M480.186 448c17.57 0 31.814 14.327 31.814 32 0 17.673-14.244 32-31.814 32H63.629C28.487 512 0 483.346 0 448c0-35.346 28.487-64 63.629-64h416.557c17.57 0 31.814 14.327 31.814 32 0 17.673-14.244 32-31.814 32" fill="#7acaa6"/><path d="M480.185 448c.565 0 1.079-.014 1.548-.039.187-.009.372-.026.559-.038.025-.002.053-.003.078-.006C499.005 446.784 512 432.679 512 416c0-17.547-14.128-32.009-31.815-32l.909 16.547c0 17.673-14.244 32-31.814 32H32.723c-1.783 0-15.593-.077-30.793-.226A64.493 64.493 0 000 447.956c.606.018 1.209.044 1.818.044h462.594c9.086 0 16.633 7.269 16.682 16.355v.192c0 17.673-14.244 32-31.814 32H32.723c-4.039 0-7.985-.396-11.815-1.119C32.201 505.726 47.186 512 63.629 512h416.557c17.57 0 31.814-14.327 31.814-32s-14.244-32-31.815-32z" fill="#57be92"/></g></svg>