<svg xmlns="http://www.w3.org/2000/svg" viewBox="0 0 341.7 217.08"><path d="M341.7,153.24c-3.52,14.83-13.81,24.21-26,31.9-18.17,11.45-38.32,18-59.08,22.74-37.44,8.54-75.38,10.72-113.65,8.23-29.05-1.9-57.59-6.49-85.17-16.13C42.08,194.49,27,187.75,14.55,176.33A56.46,56.46,0,0,1,3.78,162.91C-2.87,151.16-.59,138.29,9.37,127c8.56-9.69,19.4-16.14,30.9-21.62,16,26.1,42,36.64,69.61,43.52a249.61,249.61,0,0,0,128.55-1.68c16.26-4.49,31.63-11.1,45.13-21.5a62.66,62.66,0,0,0,17.75-20.63c17.64,9.39,35,18.66,40.39,40.15Z"/><path d="M170.91,137.84c-24.29-1.05-48.24-3.1-71.27-11.29C86.31,121.81,74,115.33,64.13,104.91c-3.52-3.72-5.44-7.48-4.77-13,2.51-20.77,5.18-41.47,13.32-61A81.49,81.49,0,0,1,79.3,18.27C90,1.66,104.68-3.52,123.62,2.3c10.29,3.16,19.5,8.51,28.61,14.06,3.89,2.37,7.89,4.56,11.71,7,4.73,3.06,9.24,2.92,14,0,7.27-4.49,14.61-8.89,22.06-13.09,8.75-4.92,17.87-8.91,28-10,11.84-1.3,21.64,2.67,29.51,11.45,8.2,9.15,12.64,20.28,16.08,31.85,5.14,17.22,7.52,34.93,9,52.78a7.62,7.62,0,0,1-1.69,4.47c-5,7-11.63,12.19-18.94,16.56-15,9-31.47,14-48.62,16.34C199.27,135.66,185.05,136.5,170.91,137.84Z"/></svg>