<svg viewBox="0 0 512 512" height="512" width="512" xmlns="http://www.w3.org/2000/svg" id="svg-icon"><path clip-rule="evenodd" d="M163.593 77.819H495.5v39.238H163.593z" fill="#ff9c9b" fill-rule="evenodd"/><path clip-rule="evenodd" d="M163.593 21.142v56.677H495.5V21.142c0-6.127-5.014-11.142-11.14-11.142H174.733c-6.126 0-11.14 5.015-11.14 11.142zM163.593 117.057v138.402c116.78-43.142 184.814 51.349 331.907-1.51V117.057z" fill="#fff" fill-rule="evenodd"/><path clip-rule="evenodd" d="M163.593 255.459v114.124c7.721-3.448 16.268-5.357 25.27-5.357 28.176 0 51.965 18.778 59.544 44.51 24.758-1.111 47.293 14.305 55.128 37.87 28.889-1.453 53.248 27.697 57.692 55.395H484.36c6.097 0 11.14-5.015 11.14-11.142v-236.91c-147.093 52.858-215.127-41.632-331.907 1.51z" fill="#fff3da" fill-rule="evenodd"/><path clip-rule="evenodd" d="M129.32 408.735c-24.786-1.111-47.293 14.305-55.156 37.87C45.303 445.152 20.944 474.303 16.5 502h344.727c-4.444-27.697-28.803-56.848-57.692-55.395-7.835-23.566-30.37-38.982-55.128-37.87-7.578-25.731-31.367-44.51-59.544-44.51-9.003 0-17.55 1.909-25.27 5.357-16.438 7.324-29.116 21.628-34.273 39.153z" fill="#fff3da" fill-rule="evenodd"/><path d="M484.36 0H174.733c-11.656 0-21.14 9.484-21.14 21.142V363.55c-13.891 7.841-25.122 20.179-31.373 35.295-23.727 1.699-44.928 16.336-54.903 37.935-30.962 2.929-55.897 33.763-60.691 63.636A10 10 0 0016.5 512h467.86c11.656 0 21.14-9.484 21.14-21.142V21.142C505.5 9.484 496.017 0 484.36 0zM29.545 492c7.393-19.173 24.749-36.369 44.116-35.408 4.489.24 8.568-2.563 9.989-6.822 6.402-19.186 24.99-31.951 45.223-31.045a10.008 10.008 0 0010.041-7.165c6.474-21.982 27.015-37.335 49.951-37.335s43.477 15.353 49.951 37.335a10.002 10.002 0 0010.041 7.165c20.23-.912 38.813 11.854 45.19 31.035 1.418 4.264 5.521 7.074 9.991 6.833 19.415-.966 36.749 16.235 44.144 35.408H29.545zm455.955-1.142c0 .587-.554 1.142-1.14 1.142H369.23c-7.659-27.003-30.77-52.569-58.841-55.22-9.954-21.603-31.146-36.239-54.882-37.935-11.001-26.606-37.417-44.62-66.643-44.62-5.204 0-10.316.581-15.271 1.67v-93.32c49.508-16.248 90.758-6.586 134.316 3.638 29.193 6.853 60.569 14.218 96.729 14.218 24.491 0 51.183-3.386 80.861-12.596v223.023zm0-383.801H374.617c-5.522 0-10 4.477-10 10s4.478 10 10 10H485.5V246.83c-71.25 23.799-122.963 11.664-173.021-.087-44.666-10.484-87.056-20.411-138.886-5.121V127.057h110.768c5.522 0 10-4.477 10-10s-4.478-10-10-10H173.593V87.819H485.5zm0-39.238H173.593V21.142c0-.608.533-1.142 1.14-1.142H484.36c.607 0 1.14.534 1.14 1.142z"/><path d="M332.11 346.218c-5.522 0-10 4.477-10 10v.029c0 5.523 4.478 9.985 10 9.985s10-4.491 10-10.014-4.477-10-10-10zM415.443 432.897c5.522 0 10-4.505 10-10.028s-4.478-10-10-10-10 4.477-10 10v.057c0 5.523 4.478 9.971 10 9.971zM235.103 287.176c-5.523 0-10 4.477-10 10v.057c0 5.523 4.477 9.972 10 9.972s10-4.506 10-10.029-4.477-10-10-10zM423.962 335.187c5.522 0 10-4.506 10-10.029s-4.478-10-10-10-10 4.477-10 10v.057c0 5.523 4.477 9.972 10 9.972zM196.043 408.536c0-5.523-4.477-10-10-10s-10 4.477-10 10v.028c0 5.523 4.477 9.986 10 9.986s10-4.491 10-10.014zM126.385 445.581c-5.523 0-10 4.477-10 10v.029c0 5.523 4.477 9.985 10 9.985s10-4.491 10-10.014-4.477-10-10-10zM265.017 456.125c-5.522 0-10 4.477-10 10v.057c0 5.523 4.478 9.971 10 9.971s10-4.505 10-10.028-4.478-10-10-10zM200.886 447.177c-5.523 0-10 4.477-10 10v.057c0 5.523 4.477 9.972 10 9.972s10-4.506 10-10.029-4.477-10-10-10zM329.489 127.057h.058c5.522 0 9.972-4.477 9.972-10s-4.507-10-10.029-10-10 4.477-10 10 4.477 10 9.999 10z"/></svg>
