<svg viewBox="0 0 497 497" xmlns="http://www.w3.org/2000/svg"><g><g><g fill="#6f6571"><path d="m298.289 142.789c-6.261-7.702-10.689-16.717-12.989-26.373l-11.732-49.235c-.145-.607-.218-1.23-.218-1.854v-37.194h-49.7v37.193c0 .625-.073 1.247-.218 1.854l-11.732 49.236c-2.301 9.655-6.728 18.671-12.989 26.373-10.043 12.354-24.761 34.183-24.761 56.011l74.55 9 74.55-9c0-21.829-14.718-43.657-24.761-56.011z"/><path d="m315.729 388.736c-.64-5.121-.747-10.295-.318-15.438l7.41-72.346c.076-.914.133-1.83.172-2.747l-74.493-8-74.493 8c.038.917.095 1.832.172 2.747l7.41 72.346c.429 5.143.322 10.317-.318 15.438l-6.681 53.447c-.426 3.408-.64 6.84-.64 10.274v11.41c0 18.299 14.834 33.133 33.133 33.133h82.833c18.299 0 33.133-14.834 33.133-33.133v-11.41c0-3.435-.214-6.866-.64-10.274z"/></g></g><g fill="#5e5161"><path d="m300.05 198.8v4.628l23-2.174v-2.454c0-21.829-14.718-43.657-24.761-56.011-6.261-7.702-10.689-16.717-12.989-26.373l-11.732-49.235c-.145-.607-.218-1.23-.218-1.854v-37.194h-23v37.193c0 .625.073 1.247.218 1.854l11.732 49.235c2.301 9.655 6.728 18.671 12.989 26.373 10.043 12.355 24.761 34.183 24.761 56.012z"/><path d="m315.729 388.736c-.64-5.121-.747-10.295-.318-15.438l7.41-72.346c.129-1.542.191-3.088.211-4.635l-22.982-1.671v.804c0 1.837-.076 3.673-.229 5.503l-7.41 72.346c-.429 5.143-.322 10.317.318 15.438l6.681 53.447c.426 3.408.64 6.84.64 10.274v11.41c0 18.299-14.834 33.133-33.133 33.133h23c18.299 0 33.133-14.834 33.133-33.133v-11.41c0-3.435-.214-6.866-.64-10.274z"/></g><g><path d="m248.5 206.3c-4.142 0-7.5-3.358-7.5-7.5v-33.133c0-4.142 3.358-7.5 7.5-7.5s7.5 3.358 7.5 7.5v33.133c0 4.142-3.358 7.5-7.5 7.5z" fill="#5e5161"/></g><g><path d="m248.5 338.834c-4.142 0-7.5-3.358-7.5-7.5v-33.129c0-4.142 3.358-7.5 7.5-7.5s7.5 3.358 7.5 7.5v33.129c0 4.142-3.358 7.5-7.5 7.5z" fill="#5e5161"/></g><path d="m173.95 198.8h149.1v99.405h-149.1z" fill="#e55964"/><g><path d="m281.633 239.433h-66.267c-4.142 0-7.5-3.358-7.5-7.5s3.358-7.5 7.5-7.5h66.267c4.142 0 7.5 3.358 7.5 7.5s-3.358 7.5-7.5 7.5z" fill="#faf8fa"/></g><g><path d="m265.067 272.567h-33.134c-4.142 0-7.5-3.358-7.5-7.5s3.358-7.5 7.5-7.5h33.134c4.142 0 7.5 3.358 7.5 7.5s-3.358 7.5-7.5 7.5z" fill="#faf8fa"/></g><g><path d="m281.633 471.367h-66.267c-4.142 0-7.5-3.358-7.5-7.5s3.358-7.5 7.5-7.5h66.267c4.142 0 7.5 3.358 7.5 7.5s-3.358 7.5-7.5 7.5z" fill="#5e5161"/></g><path d="m273.633 33.133h-50.267c-4.418 0-8-3.582-8-8v-9.133c0-8.837 7.163-16 16-16h34.267c8.837 0 16 7.163 16 16v9.133c0 4.419-3.581 8-8 8z" fill="#e55964"/><path d="m265.633 0h-23c8.837 0 16 7.163 16 16v9.133c0 4.418-3.582 8-8 8h23c4.418 0 8-3.582 8-8v-9.133c0-8.837-7.163-16-16-16z" fill="#db404f"/><path d="m236.075 73.767c4.142 0 7.5-3.358 7.5-7.5s-3.358-7.5-7.5-7.5h-12.425v6.56c0 .625-.073 1.247-.218 1.854l-1.569 6.586z" fill="#5e5161"/><path d="m300.05 198.8v96.648c0 .919-.019 1.838-.057 2.756h23c.038-.918.057-1.837.057-2.756v-96.648z" fill="#db404f"/></g></svg>