<svg viewBox="0 0 512 512" xmlns="http://www.w3.org/2000/svg" id="svg-icon"><g fill="#964c22"><path d="M90.89 84.03c-23.167 0-42.015-18.848-42.015-42.015S67.723 0 90.89 0c23.168 0 42.016 18.848 42.016 42.015S114.058 84.03 90.89 84.03zM15.251 177.15c-6.275 0-11.995-4.056-14.115-9.948-2.119-5.886-.247-12.693 4.605-16.653 4.858-3.964 11.833-4.485 17.216-1.265 5.368 3.211 8.237 9.659 7.004 15.795-1.391 6.922-7.643 12.071-14.71 12.071z"/></g><path d="M255.728 512c-64.23 0-125.655-23.892-172.96-67.274C35.763 401.619 6.666 343.036.837 279.768a15 15 0 0118.714-15.893 62.415 62.415 0 0015.714 2.004c34.285 0 62.178-27.893 62.178-62.177 0-2.361-.141-4.78-.419-7.188-.933-8.064 4.721-15.407 12.755-16.568 21.663-3.13 41.386-16.396 54.109-36.397 12.297-19.329 16.146-42.158 10.561-62.633a14.998 14.998 0 0113.424-18.911c27.894-1.951 51.157-22.458 56.573-49.869C245.85 5.031 252.16-.054 259.372.045c67.615.946 131.031 27.989 178.567 76.147 47.584 48.207 73.789 112.064 73.789 179.808 0 68.38-26.629 132.668-74.98 181.019C388.395 485.372 324.108 512 255.728 512z" fill="#fde4c3"/><path d="M437.939 76.192C393.162 30.829 334.294 4.211 271.1.482V511.53c62.598-3.683 120.936-29.8 165.648-74.511 48.351-48.352 74.98-112.639 74.98-181.019 0-67.744-26.205-131.601-73.789-179.808z" fill="#fcd1a6"/><g><path d="M176.922 364.715c-23.167 0-42.015-18.848-42.015-42.015s18.848-42.015 42.015-42.015c23.168 0 42.016 18.848 42.016 42.015-.001 23.167-18.848 42.015-42.016 42.015z" fill="#ba602b"/><g fill="#6f3716"><circle cx="328.295" cy="362.402" transform="rotate(-45 328.254 362.49)" r="40.328"/><path d="M398.68 275.096c-22.236 0-40.327-18.091-40.327-40.328s18.091-40.328 40.327-40.328c22.237 0 40.328 18.091 40.328 40.328s-18.09 40.328-40.328 40.328zM398.68 152.15c-6.273 0-11.998-4.054-14.119-9.948-2.12-5.892-.235-12.686 4.609-16.653 4.871-3.989 11.817-4.45 17.216-1.26 5.387 3.183 8.222 9.673 6.994 15.79-1.389 6.925-7.625 12.071-14.7 12.071z"/></g><path d="M430.1 342.07c-6.285 0-11.983-4.047-14.119-9.942-2.134-5.891-.224-12.683 4.609-16.647 4.85-3.979 11.828-4.476 17.211-1.27 5.386 3.207 8.223 9.663 6.999 15.8-1.381 6.924-7.637 12.059-14.7 12.059z" fill="#964c22"/><path d="M206.251 229.77c-6.237 0-12.04-4.055-14.114-9.951-2.076-5.902-.268-12.673 4.604-16.649 4.848-3.956 11.847-4.501 17.217-1.265 5.354 3.226 8.254 9.645 7.003 15.795-1.409 6.92-7.629 12.07-14.71 12.07z" fill="#6f3716"/><path d="M236.251 441.77c-6.24 0-12.036-4.058-14.11-9.951-2.077-5.902-.274-12.67 4.6-16.649 4.848-3.956 11.847-4.501 17.217-1.265 5.354 3.226 8.254 9.645 7.003 15.795-1.408 6.918-7.628 12.07-14.71 12.07zM302.06 241.77c-6.277 0-11.996-4.057-14.115-9.951-2.116-5.885-.247-12.69 4.605-16.649 4.859-3.964 11.832-4.488 17.216-1.265 5.369 3.214 8.236 9.654 7.004 15.795-1.389 6.922-7.642 12.07-14.71 12.07zM75.911 342.07c-6.261 0-12.022-4.037-14.12-9.942-2.095-5.898-.261-12.673 4.6-16.647 4.859-3.973 11.828-4.478 17.217-1.27 5.388 3.207 8.222 9.652 7.003 15.79-1.377 6.928-7.633 12.069-14.7 12.069z" fill="#964c22"/><circle cx="302.06" cy="127.997" fill="#ba602b" r="44.917"/><path d="M302.06 83.08c-11.994 0-22.896 4.734-30.96 12.421v64.992c8.064 7.687 18.966 12.421 30.96 12.421 24.767 0 44.917-20.15 44.917-44.917S326.828 83.08 302.06 83.08z" fill="#964c22"/><g><path d="M271.1 298.42c-6.286 0-11.984-4.052-14.119-9.946-2.129-5.878-.236-12.704 4.609-16.654 4.865-3.966 11.822-4.469 17.211-1.26 5.389 3.21 8.215 9.649 6.999 15.79-1.371 6.926-7.639 12.07-14.7 12.07z" fill="#964c22"/><path d="M278.802 270.56a15.022 15.022 0 00-7.701-2.1v29.96c7.061 0 13.328-5.144 14.7-12.07 1.216-6.141-1.61-12.581-6.999-15.79z" fill="#6f3716"/></g></g></svg>
