<svg viewBox="-30 0 512 512" xmlns="http://www.w3.org/2000/svg" id="svg-icon"><path d="M347 366.992h-31v-30h31c8.277 0 15-6.726 15-15V226c0-41.352 33.648-75 75-75h15v30h-15c-24.813 0-45 20.188-45 45v95.992c0 24.813-20.188 45-45 45zm0 0" fill="#ff9100"/><path d="M331 121l-15 15 15 15v30l-15 15 15 15v30l-15 15 15 15v30l-15 15 15 15v30l-11.102 15L331 391v45H61v-45l11.398-15L61 361v-30l11.398-15L61 301v-30l11.398-15L61 241v-30l11.398-15L61 181v-30l11.398-15L61 121V76h270zm0 0" fill="#fdbf00"/><path d="M331 121l-15 15 15 15v30l-15 15 15 15v30l-15 15 15 15v30l-15 15 15 15v30l-11.102 15L331 391v45H196V76h135zm0 0" fill="#ff9100"/><path d="M61 121h270v30H61zm0 0M61 181h270v30H61zm0 0M61 241h270v30H61zm0 0M61 301h270v30H61zm0 0M61 361h270v30H61zm0 0" fill="#ffe17a"/><path d="M0 0v91h392V0zm0 0" fill="#575f64"/><path d="M196 0h196v91H196zm0 0" fill="#474f54"/><path d="M0 421v91h392v-91zm0 0" fill="#575f64"/><path d="M196 421h196v91H196zm0 0" fill="#474f54"/><g fill="#fdbf00"><path d="M196 121h135v30H196zm0 0M196 181h135v30H196zm0 0M196 241h135v30H196zm0 0M196 301h135v30H196zm0 0M196 361h135v30H196zm0 0"/></g></svg>