<svg height="511pt" viewBox="1 -43 511.999 511" width="511pt" xmlns="http://www.w3.org/2000/svg" id="svg-icon"><path d="M234.57 28.95h258.024v368.796H234.57zm0 0" fill="#39aaff"/><path d="M468.09 28.95h24.508v368.796H468.09zm0 0" fill="#2584f6"/><path d="M234.566 98.926h258.032v215.93H234.566zm0 0" fill="#ff9c26"/><path d="M428.535 198.078c0 35.871-29.078 64.953-64.953 64.953-35.871 0-64.953-29.082-64.953-64.953 0-35.875 29.082-64.953 64.953-64.953 35.875 0 64.953 29.078 64.953 64.953zm0 0" fill="#fff0d0"/><path d="M468.086 98.926h24.512v215.93h-24.512zm0 0" fill="#f4810e"/><g fill="#95c6df"><path d="M493.195 38.11H233.97c-10.383 0-18.805-8.422-18.805-18.805C215.164 8.918 223.586.5 233.97.5h259.226C503.578.5 512 8.918 512 19.305c0 10.382-8.418 18.804-18.805 18.804zm0 0M493.195 426.195H233.97c-10.383 0-18.805-8.418-18.805-18.804s8.422-18.805 18.805-18.805h259.226c10.383 0 18.805 8.418 18.805 18.805s-8.418 18.804-18.805 18.804zm0 0M74.863 134.746l5.328 48.426c1.012 9.223 8.805 16.203 18.082 16.203h15.856c9.277 0 17.066-6.984 18.082-16.203l5.324-48.426c1.184-10.77-7.25-20.18-18.082-20.18H92.95c-10.836 0-19.27 9.41-18.086 20.18zm0 0"/></g><path d="M114.395 154.926H98.004c-4.266 0-7.727-3.461-7.727-7.727s3.461-7.726 7.727-7.726h16.39c4.266 0 7.727 3.46 7.727 7.726s-3.46 7.727-7.726 7.727zm0 0" fill="#4d78a0"/><path d="M19.406 212.172h349.637v185.574H19.406zm0 0" fill="#ff5656"/><path d="M344.535 212.172h24.508v185.574h-24.508zm0 0" fill="#f72d2d"/><path d="M369.64 221.332H18.806C8.418 221.332 0 212.914 0 202.527c0-10.386 8.418-18.804 18.805-18.804H369.64c10.386 0 18.804 8.418 18.804 18.804 0 10.387-8.418 18.805-18.804 18.805zm0 0M369.64 426.195H18.806C8.418 426.195 0 417.777 0 407.391s8.418-18.805 18.805-18.805H369.64c10.386 0 18.804 8.418 18.804 18.805s-8.418 18.804-18.804 18.804zm0 0" fill="#b9deed"/><path d="M269.34 266.879c0-6.195-5.024-11.219-11.219-11.219H130.293c-6.195 0-11.219 5.024-11.219 11.219a12.967 12.967 0 01-8.695 12.238c-10.691 3.738-18.36 13.914-18.36 25.883 0 12.203 7.973 22.543 18.997 26.094 4.742 1.531 8.054 5.8 8.054 10.781v.379c0 6.195 5.024 11.219 11.22 11.219H258.12c6.195 0 11.219-5.024 11.219-11.22v-.273c0-5.015 3.363-9.304 8.152-10.793 11.164-3.472 19.27-13.882 19.27-26.187 0-12.11-7.848-22.383-18.735-26.016-5.199-1.738-8.687-6.62-8.687-12.105zm0 0" fill="#3ad391"/></svg>
