<svg viewBox="0 -84 512 511" xmlns="http://www.w3.org/2000/svg"><path d="m485.683594 277.777344h-459.367188c-10.390625 0-18.816406-8.421875-18.816406-18.8125v-3.503906c0-10.390626 8.425781-18.816407 18.816406-18.816407h459.367188c10.390625 0 18.816406 8.425781 18.816406 18.816407v3.503906c0 10.390625-8.425781 18.8125-18.816406 18.8125zm0 0" fill="#a3defe"/><path d="m413.59375 336.097656h-315.1875c-9.09375 0-17.628906-4.402344-22.902344-11.8125l-33.082031-46.507812h427.15625l-33.082031 46.507812c-5.273438 7.410156-13.808594 11.8125-22.902344 11.8125zm0 0" fill="#8eafe2"/><path d="m238.605469 236.644531h-212.289063c-10.390625 0-18.816406 8.425781-18.816406 18.816407v3.503906c0 10.390625 8.425781 18.8125 18.816406 18.8125h226.699219c-10.296875-9.917969-18.769531-25.460938-14.410156-41.132813zm0 0" fill="#7acefa"/><path d="m42.421875 277.777344 33.082031 46.507812c5.273438 7.410156 13.808594 11.8125 22.902344 11.8125h135.839844c-18.074219-13.894531-32.679688-22.925781-30.878906-58.320312zm0 0" fill="#6a96d7"/><path d="m234.148438 156.464844c22.457031-24.636719 21.460937-63.175782-2.144532-86.714844-32.671875-32.582031-93.988281-38.828125-118.527344-40.011719-5.792968-.28125-10.550781 4.488281-10.273437 10.28125 1.1875 24.566407 7.445313 85.953125 40.09375 118.601563 25.21875 25.21875 66.550781 24.5 90.851563-2.15625zm0 0" fill="#89d47f"/><path d="m202.296875 136.332031c-1.917969 0-3.839844-.734375-5.304687-2.199219l-52.230469-52.234374c-2.929688-2.925782-2.929688-7.675782 0-10.605469 2.929687-2.929688 7.675781-2.929688 10.605469 0l52.234374 52.234375c2.925782 2.929687 2.925782 7.675781 0 10.605468-1.464843 1.464844-3.386718 2.199219-5.304687 2.199219zm0 0" fill="#5ec783"/><path d="m284.558594 12.851562c8.695312-8.933593 23.820312-4.882812 26.886718 7.203126.570313 2.246093 2.878907 3.582031 5.109376 2.953124 12-3.390624 23.074218 7.679688 19.683593 19.679688-.632812 2.230469.703125 4.542969 2.949219 5.113281 12.085938 3.0625 16.140625 18.1875 7.207031 26.882813-1.664062 1.617187-1.664062 4.289062 0 5.90625 8.933594 8.695312 4.878907 23.820312-7.207031 26.882812-2.246094.570313-3.582031 2.878906-2.949219 5.113282 3.390625 11.996093-7.683593 23.070312-19.683593 19.679687-2.230469-.628906-4.542969.703125-5.109376 2.953125-3.066406 12.085938-18.191406 16.136719-26.886718 7.203125-1.617188-1.660156-4.285156-1.660156-5.902344 0-8.695312 8.933594-23.820312 4.882813-26.882812-7.203125-.570313-2.25-2.882813-3.582031-5.113282-2.953125-12 3.390625-23.070312-7.683594-19.679687-19.679687.628906-2.234376-.707031-4.542969-2.953125-5.113282-12.085938-3.0625-16.136719-18.1875-7.203125-26.882812 1.660156-1.617188 1.660156-4.289063 0-5.90625-8.9375-8.695313-4.882813-23.820313 7.203125-26.882813 2.246094-.570312 3.582031-2.882812 2.953125-5.113281-3.390625-11.996094 7.679687-23.070312 19.679687-19.679688 2.230469.628907 4.542969-.703124 5.113282-2.953124 3.0625-12.085938 18.1875-16.136719 26.882812-7.203126 1.617188 1.660157 4.285156 1.660157 5.902344 0zm0 0" fill="#d2996f"/><path d="m335.949219 122.226562c-50.167969-13.398437-76.4375-74.4375-70.867188-114.058593-6.058593.839843-11.589843 5.09375-13.308593 11.886719-.570313 2.246093-2.882813 3.582031-5.113282 2.949218-12-3.390625-23.070312 7.683594-19.679687 19.683594.628906 2.230469-.707031 4.539062-2.953125 5.109375-12.085938 3.066406-16.140625 18.191406-7.203125 26.886719 1.660156 1.617187 1.660156 4.285156 0 5.902344-8.9375 8.695312-4.882813 23.820312 7.203125 26.882812 2.246094.570312 3.582031 2.882812 2.953125 5.113281-3.390625 12 7.679687 23.070313 19.679687 19.679688 2.230469-.628907 4.542969.707031 5.113282 2.953125 3.0625 12.085937 18.1875 16.136718 26.882812 7.203125 1.617188-1.660157 4.285156-1.660157 5.902344 0 8.695312 8.9375 23.820312 4.882812 26.886718-7.203125.570313-2.246094 2.878907-3.582032 5.109376-2.953125 8.609374 2.433593 16.738281-2.578125 19.394531-10.035157zm0 0" fill="#c47b46"/><path d="m317.769531 54.453125c0 4.085937-3.3125 7.398437-7.398437 7.398437-4.085938 0-7.398438-3.3125-7.398438-7.398437s3.3125-7.398437 7.398438-7.398437c4.085937 0 7.398437 3.3125 7.398437 7.398437zm0 0" fill="#c47b46"/><path d="m261.488281 80.617188c0 4.085937-3.308593 7.398437-7.394531 7.398437s-7.398438-3.3125-7.398438-7.398437c0-4.085938 3.3125-7.398438 7.398438-7.398438s7.394531 3.3125 7.394531 7.398438zm0 0" fill="#d2996f"/><path d="m184.730469 236.644531c0-81.953125 66.671875-148.628906 148.625-148.628906 81.957031 0 148.628906 66.675781 148.628906 148.628906zm0 0" fill="#f7ef87"/><path d="m221.320312 236.644531c0-61.777343 50.257813-112.039062 112.039063-112.039062 61.777344 0 112.039063 50.261719 112.039063 112.039062zm0 0" fill="#e3b72e"/><path d="m257.90625 236.644531c0-41.601562 33.847656-75.449219 75.453125-75.449219 41.601563 0 75.449219 33.847657 75.449219 75.449219zm0 0" fill="#efd176"/><path d="m372.21875 236.644531c0-21.460937-17.398438-38.859375-38.863281-38.859375-21.460938 0-38.859375 17.398438-38.859375 38.859375zm0 0" fill="#f7ef87"/><path d="m30.015625 236.644531c0-61.777343 50.257813-112.039062 112.039063-112.039062 61.777343 0 112.039062 50.261719 112.039062 112.039062zm0 0" fill="#efd176"/><path d="m142.054688 161.195312c-41.605469 0-75.453126 33.847657-75.453126 75.449219h-.132812v35.640625c0 10.140625 8.21875 18.363282 18.359375 18.363282s18.363281-8.222657 18.363281-18.363282v-35.640625h114.3125c0-41.601562-33.847656-75.449219-75.449218-75.449219zm0 0" fill="#f7ef87"/><path d="m180.914062 236.644531c0-21.460937-17.398437-38.859375-38.863281-38.859375-21.460937 0-38.859375 17.398438-38.859375 38.859375zm0 0" fill="#e3b72e"/><path d="m173.53125 228.152344c-2.523438 2.457031-4.011719 5.425781-4.574219 8.492187h138.714844c-.5625-3.066406-2.046875-6.035156-4.574219-8.492187-1.660156-1.617188-1.660156-4.289063 0-5.902344 8.9375-8.699219 4.882813-23.824219-7.203125-26.886719-2.246093-.570312-3.582031-2.882812-2.953125-5.113281 3.390625-11.996094-7.679687-23.070312-19.679687-19.679688-2.230469.628907-4.542969-.703124-5.113281-2.953124-3.0625-12.085938-18.1875-16.136719-26.882813-7.203126-1.617187 1.660157-4.285156 1.660157-5.902344 0-8.699219-8.933593-23.824219-4.882812-26.886719 7.203126-.570312 2.246093-2.878906 3.582031-5.109374 2.953124-12-3.390624-23.070313 7.683594-19.683594 19.679688.632812 2.230469-.703125 4.542969-2.949219 5.113281-12.085937 3.0625-16.140625 18.1875-7.207031 26.886719 1.664062 1.613281 1.664062 4.285156.003906 5.902344zm0 0" fill="#d2996f"/><path d="m173.53125 228.152344c-2.523438 2.457031-4.011719 5.425781-4.574219 8.492187h76.511719c-18.585938-24.453125-27.085938-56.683593-23.679688-80.910156-6.058593.839844-11.589843 5.09375-13.308593 11.886719-.570313 2.246094-2.882813 3.582031-5.113281 2.949218-12-3.390624-23.070313 7.683594-19.679688 19.683594.628906 2.230469-.707031 4.539063-2.953125 5.109375-12.085937 3.066407-16.140625 18.191407-7.203125 26.886719 1.660156 1.613281 1.660156 4.285156 0 5.902344zm0 0" fill="#c47b46"/><path d="m211.988281 211.277344c0 4.085937-3.3125 7.398437-7.398437 7.398437-4.085938 0-7.398438-3.3125-7.398438-7.398437 0-4.085938 3.3125-7.398438 7.398438-7.398438 4.085937 0 7.398437 3.3125 7.398437 7.398438zm0 0" fill="#d2996f"/><path d="m246.691406 188.023438c0 4.085937-3.3125 7.398437-7.394531 7.398437-4.085937 0-7.398437-3.3125-7.398437-7.398437 0-4.085938 3.3125-7.398438 7.398437-7.398438 4.082031 0 7.394531 3.3125 7.394531 7.398438zm0 0" fill="#c47b46"/><path d="m272.703125 212.128906c0 4.085938-3.3125 7.398438-7.398437 7.398438-4.085938 0-7.398438-3.3125-7.398438-7.398438 0-4.085937 3.3125-7.398437 7.398438-7.398437 4.085937 0 7.398437 3.3125 7.398437 7.398437zm0 0" fill="#c47b46"/><path d="m489.3125 229.398438c-3.441406-74.925782-59.933594-136.238282-132.703125-147.148438-.753906-1.632812-1.6875-3.179688-2.808594-4.613281 4.519531-5.765625 6.058594-13.199219 4.117188-20.449219-1.945313-7.253906-6.992188-12.917969-13.789063-15.648438 1.03125-7.253906-1.351562-14.457031-6.660156-19.769531-5.308594-5.308593-12.511719-7.683593-19.765625-6.65625-2.730469-6.796875-8.394531-11.847656-15.648437-13.789062-7.25-1.941407-14.683594-.402344-20.449219 4.117187-5.761719-4.519531-13.195313-6.058594-20.445313-4.117187-7.253906 1.941406-12.917968 6.992187-15.648437 13.789062-7.253907-1.03125-14.457031 1.351563-19.769531 6.65625-5.308594 5.3125-7.6875 12.515625-6.65625 19.769531-2.667969 1.070313-5.0625 2.601563-7.109376 4.5-16.824218-9.023437-48.453124-21.398437-98.136718-23.792968-4.867188-.234375-9.632813 1.601562-13.078125 5.046875-3.445313 3.445312-5.285157 8.214843-5.050781 13.085937.195312 4.070313.488281 8.261719.863281 12.460938.371093 4.125 4.007812 7.164062 8.140625 6.800781 4.125-.371094 7.171875-4.015625 6.800781-8.140625-.359375-3.996094-.632813-7.980469-.820313-11.84375-.042968-.898438.402344-1.488281.671876-1.757812.273437-.269532.863281-.71875 1.75-.671876 17.304687.835938 59.546874 4.660157 91.734374 22.011719-1.171874 6.582031.46875 13.171875 4.5625 18.394531-4.519531 5.765626-6.058593 13.195313-4.117187 20.449219 1.945313 7.253907 6.996094 12.921875 13.792969 15.652344-.675782 4.875.214844 9.773437 2.46875 14.058594-3.5625 3.652343-6.953125 7.503906-10.167969 11.523437-20.144531-14.417968-44.210937-22.210937-69.339844-22.210937-5.277343 0-10.476562.347656-15.574219 1.015625-3.863281-9.480469-7.113281-20.109375-9.664062-31.71875-.890625-4.042969-4.890625-6.601563-8.9375-5.710938-4.042969.890625-6.601562 4.890625-5.710938 8.9375 2.496094 11.347656 5.628907 21.875 9.339844 31.4375-48.910156 12.941406-85.628906 56.179688-88.765625 108.328125-12.824219 1.75-22.738281 12.769531-22.738281 26.066407v3.503906c0 14.507812 11.804688 26.3125 26.316406 26.3125h12.234375l30.839844 43.355468c6.667969 9.371094 17.515625 14.96875 29.015625 14.96875h274.8125c4.140625 0 7.5-3.359374 7.5-7.5 0-4.144531-3.359375-7.5-7.5-7.5h-274.8125c-6.65625 0-12.933594-3.238281-16.792969-8.664062l-24.652343-34.660156h5.519531c4.488281 7.691406 12.824219 12.871094 22.347656 12.871094 9.527344 0 17.863281-5.179688 22.351563-12.871094h347.859374l-24.652343 34.660156c-3.859375 5.425781-10.136719 8.664062-16.792969 8.664062h-5.195312c-4.144532 0-7.5 3.355469-7.5 7.5 0 4.140626 3.355468 7.5 7.5 7.5h5.195312c11.5 0 22.347656-5.597656 29.015625-14.96875l30.839844-43.355468h12.234375c14.511718 0 26.316406-11.804688 26.316406-26.3125v-3.503906c0-13.28125-9.890625-24.285157-22.6875-26.0625zm-139.292969-132.894532c.039063.003906.078125.007813.117188.015625 67.5 8.03125 120.535156 63.886719 124.148437 132.625h-21.628906c-3.886719-62.433593-55.902344-112.039062-119.296875-112.039062-29.808594 0-58.144531 10.976562-80.195313 30.972656-5.363281-.140625-10.566406 1.570313-14.847656 4.929687-4.25-3.332031-9.410156-5.039062-14.730468-4.929687 26.734374-33.042969 67.207031-52.5625 109.773437-52.5625 5.636719 0 11.191406.34375 16.660156.988281zm-16.660156 93.78125c-8.089844 0-15.960937 2.117188-22.890625 6.058594-2.484375-3.191406-5.773438-5.691406-9.632812-7.242188.554687-3.902343.113281-7.789062-1.234376-11.378906 10.257813-5.914062 21.800782-9.027344 33.757813-9.027344 34.929687 0 63.777344 26.5 67.527344 60.449219h-21.785157c-3.59375-22.007812-22.734374-38.859375-45.742187-38.859375zm30.445313 38.859375h-50.816407c-.691406-1.386719-1.515625-2.707031-2.480469-3.941406 3.234376-4.132813 4.9375-9.117187 4.929688-14.277344 5.238281-3.65625 11.476562-5.640625 17.921875-5.640625 14.707031 0 27.074219 10.179688 30.445313 23.859375zm-30.445313-75.449219c-15.445313 0-30.320313 4.238282-43.371094 12.292969-4.632812-2.914062-10.089843-4.089843-15.578125-3.3125-1.269531-3.160156-3.183594-5.941406-5.589844-8.207031 18.371094-14.488281 40.929688-22.363281 64.539063-22.363281 55.121094 0 100.410156 42.882812 104.265625 97.039062h-21.671875c-3.804687-42.234375-39.386719-75.449219-82.59375-75.449219zm-113.574219-59.496093c-.382812-1.4375-.933594-5.121094 2.269532-8.238281 2.234374-2.171876 3.515624-5.207032 3.515624-8.324219 0-3.121094-1.28125-6.152344-3.515624-8.328125-3.203126-3.117188-2.652344-6.800782-2.269532-8.238282.386719-1.4375 1.75-4.902343 6.082032-6 3.023437-.765624 5.652343-2.753906 7.210937-5.453124 1.558594-2.699219 1.964844-5.96875 1.117187-8.96875-1.214843-4.304688 1.105469-7.214844 2.15625-8.269532 1.054688-1.050781 3.964844-3.375 8.269532-2.15625 3 .847656 6.269531.441406 8.96875-1.117187 2.699218-1.558594 4.683594-4.1875 5.453125-7.210938 1.097656-4.332031 4.5625-5.695312 6-6.082031s5.121093-.933594 8.238281 2.269531c2.171875 2.234375 5.207031 3.515625 8.324219 3.515625 3.117187 0 6.152343-1.28125 8.328125-3.515625 3.117187-3.203125 6.800781-2.652343 8.238281-2.269531 1.4375.386719 4.902344 1.75 6 6.085938.765625 3.019531 2.753906 5.648437 5.457031 7.207031 2.695313 1.558593 5.964844 1.964843 8.964844 1.117187 4.304688-1.210937 7.21875 1.105469 8.269531 2.15625 1.054688 1.054688 3.371094 3.964844 2.15625 8.269532-.847656 3-.441406 6.269531 1.121094 8.96875 1.558594 2.699218 4.183594 4.6875 7.203125 5.449218 4.335938 1.101563 5.699219 4.566406 6.085938 6.003906.382812 1.4375.933593 5.121094-2.269532 8.238282-2.234375 2.171875-3.515625 5.207031-3.515625 8.324218 0 1.007813.148438 2 .402344 2.960938-1.558594-.046875-3.121094-.078125-4.691406-.078125-36.558594 0-71.71875 13.019531-99.453125 35.9375.035156-.609375.121094-1.21875.292968-1.832031.847657-3 .441407-6.269532-1.121093-8.96875-1.558594-2.699219-4.183594-4.6875-7.207031-5.453125-4.332032-1.097657-5.695313-4.558594-6.082032-6zm-4.035156 75.261719c1.097656-4.332032 4.5625-5.699219 6-6.082032 1.4375-.386718 5.121094-.9375 8.238281 2.265625 2.171875 2.234375 5.207031 3.519531 8.328125 3.515625 3.117188 0 6.152344-1.28125 8.324219-3.515625 3.117187-3.203125 6.800781-2.652343 8.238281-2.265625 1.4375.382813 4.902344 1.75 6 6.082032.765625 3.019531 2.753906 5.648437 5.453125 7.207031 2.699219 1.558593 5.96875 1.96875 8.96875 1.121093 4.304688-1.21875 7.214844 1.101563 8.269531 2.152344.09375.09375.195313.203125.304688.324219.007812.007813.015625.019531.023438.027344 1.132812 1.269531 2.929687 4.019531 1.828124 7.917969-.847656 3-.441406 6.269531 1.121094 8.96875 1.558594 2.703124 4.183594 4.6875 7.207032 5.453124 4.332031 1.097657 5.695312 4.5625 6.082031 6 .382812 1.4375.933593 5.121094-2.269531 8.238282-2.234376 2.175781-3.515626 5.210937-3.515626 8.328125 0 1.355469.257813 2.6875.710938 3.945312h-113.496094c.453125-1.257812.710938-2.589843.710938-3.945312 0-3.117188-1.28125-6.152344-3.515625-8.324219-3.203125-3.121094-2.652344-6.804688-2.269531-8.242188.386718-1.4375 1.75-4.902343 6.082031-6 3.023437-.765624 5.648437-2.753906 7.210937-5.453124 1.558594-2.699219 1.964844-5.96875 1.117188-8.96875-1.214844-4.300782 1.105468-7.214844 2.15625-8.269532 1.050781-1.050781 3.964844-3.367187 8.265625-2.152344 3.003906.847657 6.273437.4375 8.96875-1.121093 2.703125-1.558594 4.691406-4.183594 5.457031-7.207031zm-156.78125 100.816406h-32.652344c-6.242187 0-11.316406-5.074219-11.316406-11.3125v-3.503906c0-6.238282 5.074219-11.316407 11.316406-11.316407h32.652344zm.496094-41.132813h-21.679688c3.414063-47.914062 39.253906-87 85.644532-95.375 0-.003906.003906-.003906.003906-.003906 6.042968-1.089844 12.265625-1.660156 18.617187-1.660156 23.90625 0 46.714844 8.066406 65.207031 22.894531-2.148437 2.167969-3.867187 4.757812-5.039062 7.675781-5.714844-.8125-11.402344.503907-16.15625 3.699219-13.195312-8.308594-28.285156-12.679688-44.011719-12.679688-43.207031 0-78.777343 33.214844-82.585937 75.449219zm36.226562 7.5v35.640625c0 5.988282-4.871094 10.863282-10.863281 10.863282-5.988281 0-10.859375-4.875-10.859375-10.863282v-34.214844c.085938-.460937.132812-.9375.132812-1.425781 0-37.46875 30.484376-67.949219 67.953126-67.949219 12.371093 0 24.261718 3.3125 34.761718 9.605469-1.183594 3.425781-1.546875 7.109375-1.023437 10.800781-4.050781 1.628907-7.472657 4.308594-9.996094 7.734376-7.121094-4.261719-15.277344-6.550782-23.742187-6.550782-25.566407 0-46.363282 20.796875-46.363282 46.359375zm70.429688-11.441406c-.964844 1.234375-1.785156 2.554687-2.480469 3.941406h-52.035156c3.371093-13.679687 15.742187-23.859375 30.449219-23.859375 6.992187 0 13.675781 2.304688 19.148437 6.542969.183594 4.835937 1.871094 9.484375 4.917969 13.375zm330.878906 33.757813c0 6.242187-5.074219 11.316406-11.316406 11.316406h-374.992188v-26.132813h58.242188.03125.03125 316.6875c6.238281 0 11.316406 5.074219 11.316406 11.316407zm0 0"/></svg>