<svg xmlns="http://www.w3.org/2000/svg" id="svg-icon" viewBox="0 0 511.345 511.345"><path fill="#ffd2a6" d="M3.995 367.533h111.86v31.959H3.995z"/><g fill="#f2c397"><path d="M115.852 367.531H3.995L211.73 159.794h111.856z"/><path d="M115.852 399.49v-31.959l207.734-207.737v31.967z"/></g><path d="M115.852 399.49v-31.959l207.734-207.737v31.967z" opacity=".2"/><path d="M115.852 367.531l191.762-191.757h-35.962L79.899 367.531z" opacity=".2"/><path fill="#ffd2a6" d="M187.763 367.533h111.86v31.959h-111.86z"/><path fill="#f2c397" d="M299.616 367.531H187.76l207.733-207.737h111.858z"/><path d="M491.37 159.794L283.637 367.531h15.979l207.735-207.737z" opacity=".2"/><path fill="#f2c397" d="M299.616 399.49v-31.959l207.735-207.737v31.967z"/><path d="M299.616 399.49v-31.959l207.735-207.737v31.967z" opacity=".2"/><path fill="#ffd2a6" d="M95.873 319.593h111.86v31.959H95.873z"/><path fill="#f2c397" d="M207.735 319.593H95.878l207.733-207.737h111.857z"/><path fill="#fff" d="M303.611 111.856L95.878 319.593h15.98l207.733-207.737zM211.73 159.794L3.995 367.531h15.98l207.734-207.737z" opacity=".4"/><path fill="#f2c397" d="M207.735 351.552v-31.959l207.733-207.737v31.966z"/><path d="M207.735 351.552v-31.959l207.733-207.737v31.966z" opacity=".2"/><path d="M223.714 351.552l191.762-191.758h-19.983L203.739 351.552z" opacity=".2"/><path fill="#fff" d="M3.995 367.533h15.979v31.959H3.995zM187.693 367.533h15.979v31.959h-15.979zM95.873 319.593h15.979v31.959H95.873z" opacity=".4"/><g fill="#3a3847"><path d="M207.735 355.547H95.878a3.988 3.988 0 01-3.995-3.995v-31.959c0-2.2 1.787-3.995 3.995-3.995h111.856a3.998 3.998 0 013.995 3.995v31.959a3.986 3.986 0 01-3.994 3.995zm-107.862-7.989H203.74v-23.97H99.873v23.97zM415.468 115.85H303.611c-2.208 0-3.995-1.787-3.995-3.995s1.787-3.995 3.995-3.995h111.856c2.208 0 3.995 1.787 3.995 3.995s-1.786 3.995-3.994 3.995z"/><path d="M207.735 323.588a3.993 3.993 0 01-2.825-6.819l207.734-207.738c1.561-1.561 4.088-1.561 5.648 0s1.561 4.088 0 5.649L210.559 322.417a3.986 3.986 0 01-2.824 1.171zM207.735 355.547a3.993 3.993 0 01-2.825-6.819l207.734-207.73c1.561-1.561 4.088-1.561 5.648 0s1.561 4.088 0 5.649L210.559 354.376a3.981 3.981 0 01-2.824 1.171zM95.878 323.588a3.986 3.986 0 01-2.825-1.171 3.991 3.991 0 010-5.648l207.734-207.738a3.991 3.991 0 015.648 0 3.993 3.993 0 010 5.649L98.702 322.417a3.982 3.982 0 01-2.824 1.171z"/><path d="M415.468 147.817a3.992 3.992 0 01-3.994-3.995v-31.967c0-2.208 1.786-3.995 3.994-3.995s3.995 1.787 3.995 3.995v31.967a3.993 3.993 0 01-3.995 3.995zM178.6 322.417l-5.649-5.648 55.924-55.925c24.184-24.199 45.009-8.489 45.228-8.317a3.986 3.986 0 01.702 5.606 3.975 3.975 0 01-5.603.698c-.601-.457-15.612-11.399-34.678 7.658L178.6 322.417z"/></g><g fill="#3a3847"><path d="M203.739 187.766a3.993 3.993 0 01-2.824-6.819l23.969-23.969c1.56-1.561 4.088-1.561 5.649 0s1.561 4.088 0 5.649l-23.969 23.97a3.985 3.985 0 01-2.825 1.169zM115.852 403.485H3.995A3.988 3.988 0 010 399.49v-31.959c0-2.2 1.787-3.995 3.995-3.995h111.857a3.998 3.998 0 013.995 3.995v31.959a3.988 3.988 0 01-3.995 3.995zM7.99 395.495h103.867v-23.969H7.99v23.969z"/><path d="M247.699 163.773H211.73c-2.208 0-3.995-1.787-3.995-3.995s1.787-3.995 3.995-3.995h35.969c2.208 0 3.995 1.787 3.995 3.995s-1.787 3.995-3.995 3.995zM115.852 403.485a3.993 3.993 0 01-2.825-6.819l39.699-39.699a3.994 3.994 0 115.649 5.649l-39.699 39.699a3.98 3.98 0 01-2.824 1.17z"/><path d="M3.995 371.527a3.993 3.993 0 01-2.824-6.819L208.904 156.97c1.561-1.561 4.089-1.561 5.649 0s1.561 4.088 0 5.649L6.82 370.357a3.986 3.986 0 01-2.825 1.17zM299.616 403.485H187.76a3.988 3.988 0 01-3.995-3.995v-31.959c0-2.2 1.787-3.995 3.995-3.995h111.856a3.997 3.997 0 013.995 3.995v31.959a3.987 3.987 0 01-3.995 3.995zm-107.861-7.99h103.867v-23.969H191.755v23.969zM507.351 163.789h-99.833c-2.208 0-3.995-1.787-3.995-3.995s1.787-3.995 3.995-3.995h99.833c2.208 0 3.994 1.787 3.994 3.995s-1.786 3.995-3.994 3.995z"/></g><g fill="#3a3847"><path d="M299.616 371.527a3.993 3.993 0 01-2.824-6.819L504.525 156.97c1.561-1.561 4.089-1.561 5.649 0s1.561 4.088 0 5.649L302.441 370.357a3.986 3.986 0 01-2.825 1.17zM299.616 403.485a3.993 3.993 0 01-2.824-6.819l207.733-207.73c1.561-1.561 4.089-1.561 5.649 0s1.561 4.088 0 5.649L302.44 402.315a3.978 3.978 0 01-2.824 1.17z"/><path d="M507.351 195.756a3.992 3.992 0 01-3.995-3.995v-31.967a3.992 3.992 0 013.995-3.995 3.992 3.992 0 013.994 3.995v31.967a3.992 3.992 0 01-3.994 3.995zM227.709 371.527a3.993 3.993 0 01-2.825-6.819l31.958-31.959c1.561-1.561 4.089-1.561 5.649 0s1.561 4.089 0 5.649l-31.959 31.959a3.981 3.981 0 01-2.823 1.17zM267.657 371.511a3.993 3.993 0 01-2.824-6.819l55.928-55.913c1.561-1.561 4.089-1.561 5.649 0s1.561 4.089 0 5.649l-55.929 55.913a3.982 3.982 0 01-2.824 1.17zM395.821 197.082l-5.648-5.649 34.128-34.124c1.56-1.553 4.088-1.557 5.648.004s1.561 4.093 0 5.653l-34.128 34.116zM291.635 155.815a3.993 3.993 0 01-2.825-6.819l39.957-39.964a3.991 3.991 0 015.648 0 3.993 3.993 0 010 5.649l-39.956 39.964a3.985 3.985 0 01-2.824 1.17zM291.635 195.74a3.986 3.986 0 01-2.825-1.171 3.993 3.993 0 010-5.649l79.891-79.89c1.561-1.561 4.088-1.561 5.648 0s1.561 4.088 0 5.649l-79.89 79.89a3.978 3.978 0 01-2.824 1.171zM187.76 371.527a3.993 3.993 0 01-2.824-6.819l7.927-7.928c1.56-1.561 4.088-1.561 5.649 0s1.561 4.089 0 5.649l-7.927 7.928a3.99 3.99 0 01-2.825 1.17zM115.852 371.527a3.993 3.993 0 01-2.825-6.819l8.239-8.239c1.561-1.561 4.089-1.561 5.649 0s1.561 4.088 0 5.648l-8.239 8.24a3.984 3.984 0 01-2.824 1.17z"/></g></svg>
