<svg viewBox="0 0 26 26" xmlns="http://www.w3.org/2000/svg" id="svg-icon">
  <path
    d="M24.46 7.037a5.192 5.192 0 01-.183 1.31l-6.69-6.608c.44-.124.9-.194 1.376-.199L18.946 0c-3.72.041-6.736 3.095-6.723 6.806l.006 5.423-5.421-.006C3.148 12.2.042 15.185 0 18.946l1.54.017c.005-.453.068-.893.181-1.312l6.69 6.608a5.195 5.195 0 01-1.374.2L7.054 26c3.703-.04 6.719-3.092 6.723-6.805l-.006-5.423 5.425.006c3.71-.004 6.763-3.02 6.804-6.723l-1.54-.017zM13.77 12.23l-.004-3.046 3.087 3.05-3.084-.004zm-6.966 1.532h.15l5.283 5.22c-.01.117.068.97-.33 2.037L4.912 14.11a5.191 5.191 0 011.891-.348zM9.9 23.564l-7.504-7.412c.31-.473.693-.893 1.133-1.245l7.6 7.508a5.339 5.339 0 01-1.23 1.15zm2.335-6.749l-3.087-3.05 3.084.004.003 3.046zm6.813-4.578l-5.284-5.22c.01-.133-.071-.976.325-2.042l6.993 6.908a5.223 5.223 0 01-1.885.354h-.15zm3.42-1.15l-7.6-7.508a5.315 5.315 0 011.23-1.148l7.504 7.413a5.34 5.34 0 01-1.134 1.243z"
    />
</svg>
