<svg height="511pt" viewBox="0 0 511 511.999" width="511pt" xmlns="http://www.w3.org/2000/svg" id="svg-icon"><path d="M256.492.016C115.11.016.5 114.625.5 256.008.5 397.387 115.11 512 256.492 512c141.38 0 255.992-114.613 255.992-255.992C512.484 114.625 397.871.016 256.492.016zm0 346.918c-50.219 0-90.926-40.711-90.926-90.926 0-50.219 40.707-90.926 90.926-90.926 50.215 0 90.926 40.707 90.926 90.926 0 50.215-40.711 90.926-90.926 90.926zm0 0" fill="#fdca74"/><path d="M256.492.016c-10.61 0-21.062.656-31.336 1.91 126.598 15.453 224.66 123.308 224.66 254.082 0 130.77-98.062 238.629-224.66 254.078A258.5 258.5 0 00256.492 512c141.38 0 255.992-114.613 255.992-255.992C512.484 114.625 397.871.016 256.492.016zm0 0" fill="#e6af55"/><path d="M256.492.016C129.43.016 24.008 92.594 3.953 213.973c39.238 4.437 40.395 84.27 81.875 84.27 43.977 0 43.274-91.29 89.942-84.114 15.148-29.14 45.609-49.047 80.722-49.047 35.113 0 65.574 19.906 80.723 49.047 46.73-7.168 45.863 84.113 89.937 84.113 41.48 0 42.637-79.832 81.88-84.27C488.976 92.595 383.554.017 256.491.017zm0 0" fill="#a64f3b"/><path d="M225.156 1.914c126.594 15.457 224.66 123.324 224.66 254.094 0 11.574-.785 22.969-2.273 34.137 23.012-20.407 29.965-72.61 61.488-76.172C486.836 79.645 362.516-14.785 225.156 1.914zm0 0" fill="#914534"/><g fill="#f94b6c"><path d="M103.996 191.754H66.91c-4.265 0-7.726 3.46-7.726 7.726s3.46 7.727 7.726 7.727h37.086a7.728 7.728 0 000-15.453zm0 0M117.559 140.594v-37.086a7.725 7.725 0 10-15.45 0v37.086a7.725 7.725 0 1015.45 0zm0 0M341.922 68.375l-26.227 26.227a7.728 7.728 0 000 10.925 7.733 7.733 0 0010.93 0l26.223-26.222a7.733 7.733 0 000-10.93 7.728 7.728 0 00-10.926 0zm0 0M168.043 90.363a7.728 7.728 0 000 10.926l26.227 26.227a7.728 7.728 0 0010.925 0 7.733 7.733 0 000-10.93l-26.222-26.223a7.733 7.733 0 00-10.93 0zm0 0M228.988 48.297a7.729 7.729 0 00-7.726 7.726 7.729 7.729 0 007.726 7.727h37.086a7.729 7.729 0 007.727-7.727 7.729 7.729 0 00-7.727-7.726zm0 0M380.934 130.566v37.086c0 4.27 3.46 7.727 7.726 7.727s7.727-3.457 7.727-7.727v-37.086c0-4.265-3.461-7.722-7.727-7.722s-7.726 3.457-7.726 7.722zm0 0M468.36 191.832a7.728 7.728 0 000-10.926 7.733 7.733 0 00-10.93 0l-26.223 26.223a7.728 7.728 0 000 10.926 7.695 7.695 0 005.465 2.265c5.64 0 5.437-3.32 31.687-28.488zm0 0"/></g></svg>
