<svg height="503pt" viewBox="0 0 503.806 503" width="503pt" xmlns="http://www.w3.org/2000/svg" id="svg-icon"><path d="M503.633 18.02A17.303 17.303 0 00486.192.489L401.058.401a11.035 11.035 0 00-6.16 3.473l-188.575 188.57c-69.933-21.62-145.597 7.22-183.398 69.903S-5.07 405.41 46.69 457.172c51.758 51.762 132.141 61.566 194.825 23.765s91.523-113.468 69.898-183.402l18.746-18.742a5.553 5.553 0 001.563-4.254l-4.254-46.164a5.38 5.38 0 011.558-4.258 5.38 5.38 0 014.258-1.558l42.262 3.906a5.432 5.432 0 004.242-1.574 5.41 5.41 0 001.57-4.243l-3.906-42.261a5.385 5.385 0 011.559-4.258 5.395 5.395 0 014.258-1.555l42.261 3.906a5.432 5.432 0 004.242-1.574 5.415 5.415 0 001.57-4.242l-3.816-42.434a5.291 5.291 0 015.727-5.727l46.426 4.165a5.18 5.18 0 004.168-1.563l17.527-18.05a8.81 8.81 0 002.43-6.075zM144.277 419.637a42.455 42.455 0 01-46.273 9.203c-15.871-6.57-26.215-22.055-26.215-39.23s10.344-32.657 26.215-39.231a42.457 42.457 0 0146.273 9.207c16.575 16.586 16.575 43.465 0 60.05zm0 0" fill="#f29c1f"/><path d="M497.473 4.48L143.238 358.715c-16.668-15.723-42.82-15.344-59.023.86-16.2 16.202-16.582 42.35-.856 59.019l-37.664 37.664c-3.902-3.992-7.636-8.246-11.28-12.758-43.337-54.719-45.993-131.281-6.556-188.875s111.778-82.797 178.465-62.18L394.898 3.875a11.035 11.035 0 016.16-3.473l85.133.086a17.547 17.547 0 0111.282 3.992zm0 0" fill="#f0c419"/><g ><path d="M241.844 225.637a8.681 8.681 0 01-8.016-5.36 8.672 8.672 0 011.879-9.453L370.824 75.707a8.675 8.675 0 0114.621 3.84 8.665 8.665 0 01-2.351 8.43L247.98 223.094a8.655 8.655 0 01-6.136 2.543zm0 0M408.348 60.793c0-4.79-3.883-8.676-8.676-8.676s-8.68 3.887-8.68 8.676c0 4.793 3.887 8.68 8.68 8.68s8.676-3.887 8.676-8.68zm0 0"/></g></svg>
