<svg xmlns="http://www.w3.org/2000/svg" viewBox="0 0 512 512" id="svg-icon"><path d="M315.151 25.683a80.976 80.976 0 0061.889 25.636c44.679-1.518 82.127 33.478 83.645 78.165a79.44 79.44 0 010 5.479 80.976 80.976 0 0025.636 61.889c32.669 30.531 34.403 81.758 3.871 114.428a87.77 87.77 0 01-3.871 3.871 80.976 80.976 0 00-25.636 61.889c1.518 44.679-33.478 82.127-78.165 83.645a79.44 79.44 0 01-5.479 0 80.976 80.976 0 00-61.889 25.636c-30.531 32.669-81.758 34.403-114.428 3.871a87.77 87.77 0 01-3.871-3.871 80.976 80.976 0 00-61.889-25.636c-44.679 1.518-82.127-33.478-83.645-78.165a79.44 79.44 0 010-5.479 80.976 80.976 0 00-25.636-61.889c-32.67-30.532-34.403-81.759-3.872-114.428a87.77 87.77 0 013.871-3.871 80.976 80.976 0 0025.636-61.889c-1.518-44.68 33.478-82.128 78.166-83.646a79.44 79.44 0 015.479 0 80.976 80.976 0 0061.889-25.636C227.384-6.987 278.611-8.72 311.28 21.811a82.661 82.661 0 013.871 3.872z" fill="#f0dbc2"/><g fill="#d68033"><path d="M483.105 116.774a28.892 28.892 0 00-24.504 13.581l-36.424 58.278 17.965 17.965 58.278-36.424c13.537-8.461 17.651-26.283 9.189-39.819a28.89 28.89 0 00-24.504-13.581zM130.355 458.601c-13.537 8.461-17.651 26.283-9.189 39.819s26.283 17.651 39.819 9.189a28.944 28.944 0 009.189-9.189l36.424-58.278-17.965-17.965-58.278 36.424z"/></g><path fill="#f09e3e" d="M467.093 233.547L233.551 467.09l-71.86-71.86 233.542-233.542z"/><path fill="#f09235" d="M467.093 233.547L233.55 467.089l-31.44-31.44 233.542-233.542z"/><g fill="#e6ccaf"><path d="M257.861 245.155l-12.703 12.703-85.331-85.331 12.703-12.703zM302.77 200.241l-12.702 12.703-62.873-62.872 12.703-12.703zM212.928 290.066l-12.703 12.703-62.872-62.872 12.703-12.703zM168.024 334.984l-12.703 12.703-35.93-35.93 12.703-12.702zM347.694 155.318l-12.703 12.704-35.93-35.93 12.703-12.703z"/></g></svg>