<svg xmlns="http://www.w3.org/2000/svg" id="svg-icon" viewBox="0 0 512 512">
    <path
        d="M486.392 4.388l-72.09 72.1-10.61-10.61c-5.87-5.85-15.35-5.85-21.22 0l-20.07 20.07c5.243 4.209 59.426 58.411 63.65 63.65l20.07-20.07c5.85-5.87 5.85-15.35 0-21.22l-10.61-10.61 72.1-72.09c5.87-5.88 5.83-15.39 0-21.22-5.86-5.851-15.36-5.851-21.22 0zM347.562 112.888c-19.099-19.097-50.16-19.16-69.32 0L122.081 269.049c-19.12 19.11-19.12 50.21 0 69.32l15.17 15.16-30.002 30.002-39.22-39.221c-5.863-5.863-15.372-5.838-21.21 0L4.388 386.741c-5.85 5.85-5.85 15.35 0 21.21l49.831 49.831 49.831 49.831c5.86 5.85 15.36 5.85 21.21 0l42.43-42.431c5.839-5.839 5.863-15.348 0-21.21l-39.22-39.221 30.002-30.002 15.16 15.17c19.11 19.12 50.21 19.12 69.32 0l12.65-12.65-21.66-21.65c-5.86-5.86-5.86-15.36 0-21.21 5.86-5.86 15.35-5.86 21.21 0l21.66 21.65 28.82-28.82-40.27-40.26c-5.86-5.86-5.86-15.36 0-21.21 5.86-5.86 15.36-5.86 21.21 0l40.27 40.26 28.82-28.82-21.66-21.65c-5.86-5.86-5.86-15.36 0-21.22s15.36-5.86 21.22 0l21.65 21.66 22.24-22.24c17.1-17.1 18.94-43.62 5.52-62.75-3.242-4.623-.267-1.34-57.07-58.121z" />
    </svg>
