<svg height="512pt" viewBox="0 -37 512 512" width="512pt" xmlns="http://www.w3.org/2000/svg" id="svg-icon"><path d="M17.79 261.96l.151 20.43 21.872 128.243c2.66 15.59 16.171 26.992 31.988 26.992h58.191c15.817 0 29.328-11.402 31.988-26.992l8.672-50.844c1.496-8.773 14.094-8.773 15.59 0l8.672 50.844c2.66 15.59 16.172 26.992 31.988 26.992h58.196c15.816 0 29.328-11.402 31.988-26.992l8.672-50.844c1.496-8.773 14.094-8.773 15.59 0l8.672 50.844c2.66 15.59 16.171 26.992 31.988 26.992h58.191c15.817 0 29.328-11.402 31.989-26.992l21.875-128.242.148-20.43zm0 0M482.668 228.816H29.332V26.086C29.332 11.684 41.008.004 55.414.004h401.172c14.406 0 26.082 11.68 26.082 26.082zm0 0" fill="#d1a190"/><path d="M482.668 26.086v202.726h-35.91V26.087C446.758 11.684 435.074 0 420.676 0h35.91c14.398 0 26.082 11.684 26.082 26.086zm0 0M494.063 282.395l-21.875 128.234c-2.66 15.59-16.168 26.996-31.985 26.996H406.84c15.816 0 29.324-11.406 31.992-26.996l21.867-128.234zm0 0" fill="#c78e7a"/><g fill="#f9b276"><path d="M97.184 131.5s-67.41-7.488-79.395 100.367h158.79C164.593 124.012 97.183 131.5 97.183 131.5zm0 0M256 131.5s-67.41-7.488-79.395 100.367h158.79C323.41 124.012 256 131.5 256 131.5zm0 0M414.816 131.5s-67.41-7.488-79.394 100.367H494.21C482.227 124.012 414.816 131.5 414.816 131.5zm0 0"/></g><path d="M176.578 231.863h-38.644c-7.809-70.312-39.184-91.605-60.067-97.902 11.149-3.367 19.313-2.465 19.313-2.465s67.41-7.484 79.398 100.367zm0 0M335.39 231.863h-38.64c-7.805-70.312-39.18-91.605-60.063-97.902 11.149-3.367 19.313-2.465 19.313-2.465s67.41-7.484 79.39 100.367zm0 0M494.207 231.863H455.57c-7.804-70.312-39.183-91.605-60.066-97.902 11.148-3.367 19.316-2.465 19.316-2.465s67.407-7.484 79.387 100.367zm0 0" fill="#efa065"/><path d="M506.871 282.39H5.13A5.126 5.126 0 010 277.267v-43.329a5.13 5.13 0 015.129-5.128H506.87a5.13 5.13 0 015.129 5.129v43.328a5.126 5.126 0 01-5.129 5.125zm0 0" fill="#f9efef"/><path d="M506.871 282.39h-24.203V228.81h24.203a5.13 5.13 0 015.129 5.129v43.324a5.127 5.127 0 01-5.129 5.129zm0 0" fill="#efe2dd"/></svg>
