<svg viewBox="0 0 20 20" xmlns="http://www.w3.org/2000/svg" id="svg-icon"><path d="M11.568 1.556L1.635 3.31C.578 3.498-.135 4.464.02 5.496.2 6.667 1.411 7.409 2.578 7.06l6.499-1.789a17.104 17.104 0 0110.654.508l.009.003c.181.07.339-.141.216-.29-1.144-1.386-4.407-4.776-8.388-3.936zm4.309 12.378c.257-.302.457-.63.589-.977a.583.583 0 00-.352-.754.601.601 0 00-.769.346c-.235.622-.852 1.2-1.736 1.629-.955.463-2.167.718-3.412.718-1.244 0-2.456-.255-3.411-.718-.884-.429-1.5-1.007-1.737-1.63a.6.6 0 00-.768-.345.583.583 0 00-.352.754c.132.347.331.675.589.977l-1.4 1.373a.578.578 0 000 .828.602.602 0 00.845 0L5.4 14.726c.388.273.834.51 1.324.707l-.56 1.884c-.093.31.09.636.406.727a.596.596 0 00.74-.399l.551-1.85a9.73 9.73 0 001.73.255v1.94c0 .324.267.586.597.586.33 0 .598-.262.598-.586v-1.94a9.758 9.758 0 001.748-.255l.55 1.85a.597.597 0 00.74.399.584.584 0 00.407-.727l-.56-1.884a6.57 6.57 0 001.324-.707l1.437 1.41c.117.114.27.17.422.17a.602.602 0 00.423-.17.578.578 0 000-.83l-1.4-1.372z"/></svg>
