<svg viewBox="0 0 18 26" xmlns="http://www.w3.org/2000/svg" id="svg-icon">
  <path
    d="M14.697 2.13C12.377-.065 9.69-.008 9.436.003L8.58.003c-.115-.006-2.89-.132-5.278 2.128C1.11 4.204 0 7.544 0 12.057c0 3.415.335 6.894 2.768 9.203.392.372.814.704 1.245 1.017V25.5a.5.5 0 001 0v-2.532l.11.074.046.03.479.322c.19.129.374.266.559.402C7.007 24.388 7.835 25 9 25c1.164 0 1.992-.612 2.793-1.204.184-.136.37-.273.558-.402l.48-.321.02-.015.162-.108v2.55a.5.5 0 001 0v-3.242a12.13 12.13 0 001.218-.998C17.664 18.95 18 15.472 18 12.057c0-4.513-1.111-7.853-3.303-9.926z"
    />
</svg>
