<svg viewBox="-32 0 512 512" xmlns="http://www.w3.org/2000/svg" id="svg-icon"><g fill-rule="evenodd"><path d="M230.113 0c-21.715 0-40.922 8.148-52.715 20.703a73.46 73.46 0 00-7.238-.348c-31.406 0-56.86 19.536-56.86 43.625v.09c-26.327 1.196-47.167 17.957-47.167 38.43l157.851 25.23 163.957-25.23c0-20.473-20.843-37.234-47.171-38.43v-.09c0-24.09-25.454-43.625-56.86-43.625l-1.398.028C270.688 8 251.629 0 230.113 0zm0 0" fill="#a66d30"/><path d="M404.957 151.355l-187.219-24.414-174.695 24.414C20.449 229.117 5.535 341.402 21.559 443.2l190.285 28.5 214.597-28.5c16.024-101.797 1.11-214.082-21.484-291.844zm0 0" fill="#f5df87"/><path d="M224.016 102.5H42.809c-13.426 0-24.43 11.008-24.43 24.441 0 13.403 11.004 24.414 24.43 24.414h368.863c13.426 0 24.402-11.011 24.402-24.445 0-13.402-10.976-24.41-24.402-24.41zm0 0M426.441 443.2H21.56c-30.5 18.105-33.625 68.8 23.527 68.8h357.828c57.152 0 54.027-50.695 23.527-68.8zm0 0" fill="#d9a13f"/><path d="M170.16 20.355c-31.406 0-56.86 19.536-56.86 43.625v.09c-26.327 1.196-47.167 17.957-47.167 38.43H178.16c4.844-40.648 32.254-76.395 72.707-99.898C244.328.906 237.355 0 230.113 0c-21.715 0-40.922 8.148-52.715 20.703a74.68 74.68 0 00-7.238-.348zm0 0" fill="#6e3e0b"/><path d="M60.059 102.5h-17.25c-13.426 0-24.43 11.008-24.43 24.441 0 13.403 11.004 24.414 24.43 24.414h48.484c-5.371 0-10.332-1.78-14.39-4.734-6.044-4.465-10.012-11.648-10.012-19.68 0-9.722 5.75-18.132 13.984-22.078a24.093 24.093 0 0110.418-2.363zm0 0" fill="#a66d30"/><path d="M76.758 151.355H43.043C20.449 229.117 5.535 341.402 21.559 443.2h33.976C39.48 341.402 54.398 229.121 76.988 151.355zm0 0" fill="#d9a13f"/><path d="M70.07 443.2H21.56c-30.5 18.105-33.625 68.8 23.527 68.8h48.512c-51.633 0-54.059-41.41-31.524-62.727a45.962 45.962 0 017.996-6.074zm0 0" fill="#a66d30"/><path d="M167.652 203.656c-20.023.172-27.207 12.09-26.882 30.836 1.925 120.11 83.097 166.774 135.726 120.606.176-.176.352-.32.527-.47l.29-.26c60.074-54.055-14.067-146.653-109.66-150.712zm0 0" fill="#8fde56"/><path d="M165.402 203.742c-18.3 1.024-24.925 12.735-24.636 30.75 1.87 117.043 78.988 164.352 131.644 123.965-50.09 16.496-109.402-32.531-111.035-135.004-.145-7.914 1.078-14.601 4.027-19.71zm0 0" fill="#47a831"/></g><path d="M312.598 384.137l-50.391-56.797 3.617-28.656a7.725 7.725 0 00-6.691-8.633 7.734 7.734 0 00-8.63 6.695l-1.925 15.238-19.148-21.586 2.828-22.253a7.728 7.728 0 00-6.688-8.637 7.718 7.718 0 00-8.633 6.687l-1.125 8.856-12.527-14.117c-2.832-3.192-7.71-3.485-10.898-.653a7.73 7.73 0 00-.653 10.906l12.907 14.547-11.157.375a7.73 7.73 0 00-7.457 7.985 7.727 7.727 0 007.715 7.46c.086 0 .176 0 .266-.003l23.949-.813 19.461 21.938-18.016.61a7.722 7.722 0 00-7.453 7.98 7.718 7.718 0 007.711 7.46c.09 0 .18 0 .266-.003l30.808-1.043 50.317 56.71a7.694 7.694 0 005.777 2.594 7.72 7.72 0 005.77-12.848zm0 0" fill="#178035"/></svg>