<svg height="512" viewBox="0 0 100 100" width="512" xmlns="http://www.w3.org/2000/svg" id="svg-icon"><path d="M14.25 23.22h.917v34.043h-.918z" fill="#ededed"/><path d="M80.995 58.338c-6.52 2.608-11.084 2.71-13.565.305-5.033-4.877-.128-18.57-.078-18.708l.13-.36c-.173-.118-.347-.237-.515-.365l-.295.225c-8.867 6.756-15.19 9.004-18.796 6.692-5.827-3.743-2.827-18.399-2.577-19.564a17.41 17.41 0 00-.781-.422c-6.718 7.67-12.803 10.983-18.084 9.85-7.888-1.693-11.387-12.914-11.422-13.027l-.842.256c.146.482 3.681 11.827 12.076 13.631 5.337 1.156 11.357-1.871 17.9-8.978-.743 4.214-2.157 15.518 3.253 18.994 3.786 2.432 10.066.452 18.679-5.888-1.15 3.697-3.773 13.922.739 18.296 1.356 1.315 3.229 1.972 5.6 1.972 2.444 0 5.418-.697 8.905-2.092z" fill="#ededed"/><path d="M92.681 79.477a1.762 1.762 0 01-1.637-1.114C80.17 50.887 63.129 33.57 40.394 26.891c-16.986-4.989-30.99-1.845-31.13-1.81a1.762 1.762 0 01-.8-3.43c.6-.141 14.912-3.382 32.754 1.812 16.44 4.785 38.998 17.97 53.1 53.604a1.76 1.76 0 01-1.637 2.41z" fill="#344d5b"/><circle cx="82.662" cy="58.767" fill="#feda6f" transform="rotate(-9.25 82.716 58.883)" r="5.785"/><circle cx="82.662" cy="58.767" fill="#de594e" transform="rotate(-9.25 82.716 58.883)" r="2.581"/><path d="M92.317 57.692l-9.673.231a.844.844 0 100 1.688l9.673-.231a.844.844 0 100-1.688z" fill="#304551"/><path d="M92.444 55.554a.84.84 0 00-.84.84v4.427a.84.84 0 101.68 0v-4.427a.84.84 0 00-.84-.84z" fill="#304551"/><path d="M17.523 57.263a2.768 2.768 0 00-2.767-2.766 2.767 2.767 0 00-2.76 2.766 2.76 2.76 0 002.095 2.677v11.07a3.443 3.443 0 01-3.438 3.44 3.442 3.442 0 01-3.437-3.353l1.671-1.063-2.506-2.836-.804 3.634-.019.179c0 2.81 2.286 5.095 5.095 5.095s5.095-2.286 5.095-5.095V59.839a2.759 2.759 0 001.775-2.576zm-2.767 1.22c-.673 0-1.215-.546-1.215-1.22s.542-1.22 1.215-1.22a1.22 1.22 0 010 2.44z" fill="#feda6f"/></svg>
