<svg viewBox="0 0 512 512" xmlns="http://www.w3.org/2000/svg" data-name="Layer 1"><path d="m256 11c135.31 0 245 109.69 245 245s-109.69 245-245 245-245-109.69-245-245 109.69-245 245-245z" fill="#a4bfc1"/><circle cx="256" cy="256" fill="#799091" r="172.75"/><path d="m455.45 239.24a108.238 108.238 0 0 1 -188.75 104.22 9.031 9.031 0 0 1 3.11-12.95l11.51-6.36c-4.73 4.09-2.18 9.21-.98 10.81 6.99 9.39 12.28 15.15 20.28 19.97a10.56 10.56 0 0 0 14.53-3.56l30.97-51.48a20.244 20.244 0 0 0 11.51 2.8v.02l-26.82 59.33c-1.15 2.77 1.16 4.55 3.44 6.49 4.74 4.07 21.99 11.53 44.73.83a9.847 9.847 0 0 0 4.98-12.45l-21.23-55.2v-.01a19.106 19.106 0 0 0 3.26-1.43 19.492 19.492 0 0 0 6.23-5.42l29.23 56.4c1.39 2.52 4.26 2.41 7 1.52 11.2-3.62 26.33-19.73 31.85-38.04a5.6 5.6 0 0 0 -3.78-7.01l-62.29-16.17h-.01a20.074 20.074 0 0 0 1.89-11.02l65.66 8.72c2.68.35 4.67-1.67 5.37-4.28 3.93-14.85-.61-31.28-5.91-38.66-3.06-4.26-10.27-4.44-10.87-4.45l12.48-6.89a9.019 9.019 0 0 1 12.61 4.27z" fill="#e08634"/><path d="m441.23 246.31c5.3 7.38 9.84 23.81 5.91 38.66-.7 2.61-2.69 4.63-5.37 4.28l-65.66-8.72a20.01 20.01 0 0 0 -2.36-7.41l55.72-30.77.89-.49c.6.01 7.81.19 10.87 4.45z" fill="#c9c06f"/><path d="m436.52 307.72a5.6 5.6 0 0 1 3.78 7.01c-5.52 18.31-20.65 34.42-31.85 38.04-2.74.89-5.61 1-7-1.52l-29.23-56.4a19.22 19.22 0 0 0 2-3.3h.01z" fill="#c9c06f"/><path d="m383.96 356.91a9.847 9.847 0 0 1 -4.98 12.45c-22.74 10.7-39.99 3.24-44.73-.83-2.28-1.94-4.59-3.72-3.44-6.49l26.82-59.33v-.02a19.269 19.269 0 0 0 5.1-.99v.01z" fill="#c9c06f"/><path d="m376.11 280.53a20.074 20.074 0 0 1 -1.89 11.02 19.22 19.22 0 0 1 -2 3.3 19.492 19.492 0 0 1 -6.23 5.42 19.8 19.8 0 0 1 -8.36 2.42 20.244 20.244 0 0 1 -11.51-2.8 19.935 19.935 0 0 1 -7.26-7.51l4.41-2.43 30.48-16.83a20.01 20.01 0 0 1 2.36 7.41z" fill="#d6ca5b"/><path d="m346.12 299.89-30.97 51.48a10.56 10.56 0 0 1 -14.53 3.56c-8-4.82-13.29-10.58-20.28-19.97-1.2-1.6-3.75-6.72.98-10.81l57.54-31.77a19.935 19.935 0 0 0 7.26 7.51z" fill="#c9c06f"/><path d="m281.32 324.15-11.51 6.36a9.031 9.031 0 0 0 -3.11 12.95 107.915 107.915 0 0 0 23.32 24.92c-3.93 4.48-10.89 12.2-17.01 18.74-2.89 3.1-5.59 5.93-7.69 8.03l-8.6-7.95-18.36-16.98a305.611 305.611 0 0 1 -32.96-38.58 222.029 222.029 0 0 1 -24.33-43.1c-11.73-27.97-15.87-56.22-12.82-84.44a177.125 177.125 0 0 1 6.51-31.95s63.6 61.27 158.21 2.89c14.17 40.11 17.34 81.3 10.3 114.91l-4.41 2.43z" fill="#7d86e1"/><path d="m226.45 427.32 30.27-40.12 8.6 7.95c2.1-2.1 4.8-4.93 7.69-8.03l26.27 37.34 13.07 18.59-97.01-1.01z" fill="#95bcfa"/><path d="m276 83.81c26.58 26.58 45.43 58.55 56.97 91.23-94.61 58.38-158.21-2.89-158.21-2.89a203.483 203.483 0 0 1 8.96-24.16q14.025-31.65 39.61-62.75 10.515-12.78 22.91-25.41a4.059 4.059 0 0 1 5.77-.01l23.43 23.43z" fill="#95bcfa"/><path d="m153.69 201.24-13.29-2.6a11.136 11.136 0 0 0 -13.41 10.82c-.12 12.95 5.6 34.91 20.92 53.67-10.34-2.47-17.13.73-17.13.73a46.161 46.161 0 0 0 -11.63-7.4v-.01c-39.9-19.93-18.93-59.68-18.93-59.68a48.4 48.4 0 0 1 -5.62-5.42v-.01c-12.79-14.53-12.83-33.16-9.6-48.31a36.156 36.156 0 0 1 39.25-28.32 71.064 71.064 0 0 1 22.52 6.06 45.306 45.306 0 0 1 23.68 25.33 34.2 34.2 0 0 1 13.27 1.89 203.483 203.483 0 0 0 -8.96 24.16 177.125 177.125 0 0 0 -6.51 31.95z" fill="#5fcda4"/><path d="m153.69 201.24 14.56 2.86c-3.05 28.22 1.09 56.47 12.82 84.44a89.91 89.91 0 0 1 -33.16-25.41c-15.32-18.76-21.04-40.72-20.92-53.67a11.136 11.136 0 0 1 13.41-10.82z" fill="#f9d38f"/><path d="m238.36 370.22a305.611 305.611 0 0 1 -32.96-38.58 222.029 222.029 0 0 1 -24.33-43.1 89.91 89.91 0 0 1 -33.16-25.41c-10.34-2.47-17.13.73-17.13.73a46.161 46.161 0 0 0 -11.63-7.4c-12.44-5.48-25.56-4.34-36.98-.85-2.39.72-4.71 1.55-6.93 2.44a36.141 36.141 0 0 0 -21.19 43.51c4.87 16.8 15.52 35.55 38.81 40.16 0 0-3 39.55 41.57 38.25 0 0 16.28 20.79 38.5 27.54a.01.01 0 0 1 .01.01c12.23 3.71 26.28 3.18 40.39-7.44 0 0 29.37-14.71 43.39-12.88z" fill="#4ca987"/><circle cx="285.48" cy="152.25" fill="#4e626b" r="8.64"/><path d="m42 256c0-130.1 101.414-236.5 229.5-244.5-5.127-.32-10.292-.5-15.5-.5-135.31 0-245 109.69-245 245s109.69 245 245 245c5.208 0 10.373-.182 15.5-.5-128.086-8-229.5-114.4-229.5-244.5z" fill="#8a9fa0"/><path d="m269.36 370.22a305.611 305.611 0 0 1 -32.96-38.58 222.029 222.029 0 0 1 -24.33-43.1c-11.73-27.97-15.87-56.22-12.82-84.44q.8-7.439 2.277-14.874c-17.208-7.874-26.767-17.076-26.767-17.076a177.125 177.125 0 0 0 -6.51 31.95c-3.05 28.22 1.09 56.47 12.82 84.44a222.029 222.029 0 0 0 24.33 43.1 305.611 305.611 0 0 0 32.96 38.58l18.36 16.98 8.6 7.95c2.1-2.1 4.8-4.93 7.69-8.03 2.2-2.348 4.5-4.847 6.736-7.3z" fill="#6671aa"/><path d="m228.79 187.435a30.256 30.256 0 0 1 -14.177-39.2l.107-.241q14.025-31.65 39.61-62.75 5.119-6.224 10.69-12.41l-13.01-13.014a4.07 4.07 0 0 0 -5.777.017q-12.386 12.627-22.9 25.4-25.5 31.035-39.61 62.75a203.483 203.483 0 0 0 -8.96 24.16s35.548 34.235 93.02 27.131a121.653 121.653 0 0 1 -38.993-11.843z" fill="#81a2d3"/><path d="m127.035 208.78a11.065 11.065 0 0 1 1.125-4.211 39.492 39.492 0 0 1 3.26-7.8c-2.1-1.73-4.42-3.54-5.42-5.42v-.01c-13-14.53-13.03-33.16-9.8-48.31a35.982 35.982 0 0 1 21.329-25.749 80.159 80.159 0 0 0 -13.229-2.57 35.971 35.971 0 0 0 -39.075 28.32c-3.225 15.15-3.225 33.78 9.775 48.31v.01c1 1.88 3.245 3.69 5.345 5.42 0 0-21.345 39.75 18.655 59.68v.01a46 46 0 0 1 11.705 7.4s6.828-3.2 17.168-.73a95.5 95.5 0 0 1 -9.962-14.923c-13.698-12.601-13.332-28.638-10.876-39.427z" fill="#59aa89"/><path d="m165.43 379.97c-44.57 1.3-41.57-38.25-41.57-38.25-23.29-4.61-33.94-23.36-38.81-40.16a36.141 36.141 0 0 1 21.19-43.51c2.22-.89 4.54-1.72 6.93-2.44q1.055-.322 2.128-.616c-11.265-3.738-22.881-2.516-33.128.616-2.39.72-4.71 1.55-6.93 2.44a36.141 36.141 0 0 0 -21.19 43.51c4.87 16.8 15.52 35.55 38.81 40.16 0 0-3 39.55 41.57 38.25 0 0 16.28 20.79 38.5 27.54a.01.01 0 0 1 .01.01 42.833 42.833 0 0 0 28.644-.787c-21.009-7.433-36.154-26.763-36.154-26.763z" fill="#428469"/><g fill="#284268"><path d="m285.481 166.9a14.642 14.642 0 1 0 -14.641-14.642 14.657 14.657 0 0 0 14.641 14.642zm0-17.283a2.642 2.642 0 1 1 -2.641 2.641 2.644 2.644 0 0 1 2.641-2.646z"/><path d="m195.348 235.664h.175a6 6 0 0 0 5.825-6.171c-.057-1.979-.077-3.986-.059-5.966a6 6 0 0 0 -12-.108c-.018 2.131 0 4.291.065 6.42a6 6 0 0 0 5.994 5.825z"/><path d="m202.936 247.753a6 6 0 0 0 -11.875 1.728c3.236 22.227 10.972 44.4 22.994 65.9a6 6 0 1 0 10.474-5.856c-11.304-20.217-18.569-41.001-21.593-61.772z"/><path d="m256 5a251 251 0 0 0 -177.483 428.483 251 251 0 1 0 354.966-354.967 249.351 249.351 0 0 0 -177.483-73.516zm169 420a239 239 0 1 1 -338-338 239 239 0 1 1 338 338z"/><path d="m278.223 77.545-21.973-21.973a10.064 10.064 0 0 0 -14.292.055q-11.809 12.032-21.882 24.158a179.872 179.872 0 0 0 -74.186 34.056 79.313 79.313 0 0 0 -20.982-5.089 41.936 41.936 0 0 0 -45.778 33.03c-4.325 20.262-1.34 37.526 8.611 50.649a177.725 177.725 0 0 0 -11.514 58.823q-1.605.579-3.226 1.229a41.94 41.94 0 0 0 -24.719 50.751c6.65 22.928 19.96 37.766 38.656 43.209.46 6.528 2.572 17.953 11.16 26.951 7.876 8.251 19.156 12.484 33.565 12.6a105.235 105.235 0 0 0 24.251 20.4 70.446 70.446 0 0 0 14.753 6.708c16.056 8.55 31.248 14.633 45.3 18.137l-5.422 7.186a6 6 0 0 0 4.726 9.614l97.009 1.017h.063a6 6 0 0 0 4.907-9.452l-8.25-11.728a177.9 177.9 0 0 0 59.323-31.46 114.074 114.074 0 0 0 43.161-13.6 114.37 114.37 0 0 0 49.456-145.99 15.011 15.011 0 0 0 -21-7.111l-5.453 3.012a180.051 180.051 0 0 0 -156.264-155.182zm-29.076-12.105 22.614 22.612a237.19 237.19 0 0 1 53.868 84.4c-36.07 21.111-71.382 26.985-105.02 17.436a112.811 112.811 0 0 1 -38.957-19.728c11.254-35.029 33.822-70.091 67.495-104.72zm88.753 220.623-70.987 39.2a15.026 15.026 0 0 0 -5.185 21.557 113.8 113.8 0 0 0 19.672 22.234c-4.917 5.489-11.3 12.471-16.3 17.714l-22.577-20.868c-33.677-33.7-55.154-68.681-64.24-104.462a5.978 5.978 0 0 0 -5.8-4.5h-.027a6.013 6.013 0 0 0 -5.815 7.509q1.378 5.424 3.111 10.82c-26.784-18.625-36.921-48.8-36.763-65.746a5.141 5.141 0 0 1 6.254-5l22.546 4.42c-.149 1.963-.274 3.926-.356 5.889q-.128 3.069-.138 6.129a6 6 0 0 0 12 .046q.01-2.835.127-5.675a166.584 166.584 0 0 1 4.7-32.76 126.522 126.522 0 0 0 73.86 23.63c21.832 0 48.206-5.448 77.646-22.2.421 1.314.856 2.621 1.255 3.944 10.207 33.832 12.658 68.541 7.017 98.119zm.334 15.293-28.225 46.925a4.469 4.469 0 0 1 -2.793 2.053 4.647 4.647 0 0 1 -3.5-.547c-7.386-4.446-12.223-9.9-18.563-18.407-.87-1.173-.589-1.916-.24-2.348l52.211-28.832c.36.4.727.784 1.109 1.156zm-125.564 49.583q8.972 10.868 19.506 21.554c-6.244-2.847-12.766-6.2-19.426-9.927.174-2.731.135-6.455-.08-11.627zm-4.686-255.769a271.079 271.079 0 0 0 -27.636 45.708 42.388 42.388 0 0 0 -5.95-.788 50.357 50.357 0 0 0 -16.87-19.981 168.156 168.156 0 0 1 50.456-24.939zm-117.118 49.117a29.971 29.971 0 0 1 32.72-23.609c21.245 2.355 35.127 11.632 41.261 27.573a5.99 5.99 0 0 0 6.219 3.813 23.3 23.3 0 0 1 4.33.159 193.455 193.455 0 0 0 -12.28 44.752l-5.474-1.073c-14.429-27.122-28.176-54.828-28.317-55.114a6 6 0 1 0 -10.752 5.33c.127.256 11.2 22.58 23.929 46.817l-.88-.173a17.14 17.14 0 0 0 -20.635 16.645c-.112 12.115 4.275 30.063 14.875 47.043a32.114 32.114 0 0 0 -3.832.7 51.713 51.713 0 0 0 -10.2-6.067c-10.182-5.086-16.756-12.01-19.539-20.58-4.884-15.042 3.159-30.789 3.233-30.932a6 6 0 0 0 -1.5-7.434c-13.194-10.847-17.624-26.945-13.158-47.85zm-.872 86.764c.244 1.011.518 2.025.845 3.04a41.694 41.694 0 0 0 6.633 12.651 66.094 66.094 0 0 0 -9.118 1.137 165.984 165.984 0 0 1 1.64-16.828zm72.306 165.176a93.6 93.6 0 0 1 -23.143-19.959 5.966 5.966 0 0 0 -4.9-2.3c-12.239.345-21.45-2.6-27.407-8.788-8.83-9.173-8.012-22.9-8-23.01a6 6 0 0 0 -4.818-6.341c-16.753-3.317-28.266-15.409-34.219-35.938a29.976 29.976 0 0 1 17.668-36.275c19.835-7.971 36.452-6.36 49.392 4.784a5.887 5.887 0 0 0 6.4.918c.2-.085 4.57-1.93 11.509-.708a95.743 95.743 0 0 0 31.643 24.353 228.767 228.767 0 0 0 23.171 40.866c.394 4.434 1.051 14.513 1.225 21.781-15.656-9.469-31.576-20.372-45.967-30.807.05-.341.09-.684.111-1.032.61-9.931-.04-28.271-11.257-39.514a6 6 0 0 0 -8.5 8.474c5.973 5.988 7.571 15.948 7.851 23.383-24.052-18-41.515-32.736-41.94-33.095a6 6 0 0 0 -7.758 9.154c1.709 1.448 18.6 15.7 41.809 33.108-7.795 1.374-18.722 1.284-28.176-6.2a6 6 0 1 0 -7.449 9.408 44.129 44.129 0 0 0 27.966 9.484 59.25 59.25 0 0 0 19.249-3.358c.235-.082.463-.176.69-.272 13.991 10.148 29.476 20.765 44.932 30.193-7.665 1.748-17.932 2.156-27.692-2.114a6 6 0 1 0 -4.808 10.994 53.775 53.775 0 0 0 21.6 4.382 58.172 58.172 0 0 0 24.509-5.285 268.335 268.335 0 0 0 26.352 13.117 189.489 189.489 0 0 0 -21.7 9.086 5.934 5.934 0 0 0 -.921.57c-14.277 10.737-30.232 11.055-47.422.941zm37.883 17.347a53.947 53.947 0 0 0 16.3-8.361 161.572 161.572 0 0 1 27.009-10.443l-19.592 25.96a147.382 147.382 0 0 1 -23.718-7.156zm27.1 22.588 30.23-40.058 3.726 3.447a6 6 0 0 0 8.316-.163c.83-.831 1.759-1.781 2.758-2.816l28.387 40.36zm74.433-18.644-21.012-29.874c3.552-3.848 7.158-7.824 10.166-11.186a114.415 114.415 0 0 0 56.665 20.247 165.534 165.534 0 0 1 -45.816 20.813zm144.025-177.3a2.943 2.943 0 0 1 1.438-.376 3.079 3.079 0 0 1 .975.161 2.993 2.993 0 0 1 1.8 1.648 102.373 102.373 0 0 1 -44.266 130.659 102.159 102.159 0 0 1 -134.014-32.2 3.028 3.028 0 0 1 1.039-4.342l.954-.528a14.975 14.975 0 0 0 1.857 3.311c7.086 9.509 12.957 16.078 22 21.519a16.563 16.563 0 0 0 12.527 1.926 16.386 16.386 0 0 0 10.243-7.528l28.251-46.968c.1.031.195.063.293.093l-23.493 51.984c-.025.054-.048.108-.071.162-2.78 6.67 2.5 11.162 4.749 13.081l.327.278c3.431 2.937 12.638 7.768 25.573 7.767a59.915 59.915 0 0 0 25.614-6.068 15.906 15.906 0 0 0 8.023-20.038l-19.26-50.081c.065-.041.128-.084.192-.126l25.637 49.456c.023.045.048.09.072.135a10.1 10.1 0 0 0 9.076 5.2 16.331 16.331 0 0 0 5.02-.864c14.346-4.637 30.051-23.1 35.754-42.024a11.6 11.6 0 0 0 -7.865-14.5l-.156-.043-56.053-14.55 59.009 7.836a10.714 10.714 0 0 0 1.41.094c4.9 0 9.128-3.445 10.542-8.786 4.3-16.218-.313-34.619-6.835-43.7a13.37 13.37 0 0 0 -1.653-1.869zm-82.656 54.8a13.806 13.806 0 0 1 -10.6 1.144 14.143 14.143 0 0 1 -4.275-2.086l21.993-12.144a13.922 13.922 0 0 1 -7.115 13.085zm15.272 64.047a3.86 3.86 0 0 1 -1.93 4.869c-11.013 5.179-20.092 5.363-25.767 4.6-6.735-.9-11.129-3.376-12.511-4.558l-.349-.3c-.245-.209-.545-.464-.823-.711l23.165-51.258zm3.09-59.441 52.99 13.755c-5.021 16.189-18.639 30.712-27.836 33.686-.182.058-.344.1-.488.141zm54.9-49.816c4.064 5.658 8.444 20.118 5.055 33.341l-59.175-7.859 49.454-27.307c1.857.25 4.012.905 4.673 1.824zm-85.1 28.88c3.847-29.191.789-62.142-8.886-94.214a253.035 253.035 0 0 0 -50.574-92.474 168.08 168.08 0 0 1 131.359 146.991z"/></g></svg>