<svg xmlns="http://www.w3.org/2000/svg" id="svg-icon" viewBox="0 0 512.002 512.002"><path d="M30.17 471.648C13.534 471.648 0 458.052 0 441.341c0-13.957 9.581-25.928 22.627-29.321V156.75c0-3.218 2.599-5.828 5.803-5.828h281.972c3.204 0 5.802 2.61 5.802 5.828v255.27c13.047 3.393 22.628 15.363 22.628 29.321 0 16.712-13.534 30.307-30.17 30.307H30.17z" fill="#19a9c1"/><path d="M22.27 441.341c0-10.941 5.901-20.641 14.73-25.965v-.022a29.61 29.61 0 014.685-2.305 5 5 0 003.212-4.669V156.75c0-3.218 2.599-5.828 5.803-5.828H28.43c-3.204 0-5.803 2.61-5.803 5.828v255.27C9.581 415.413 0 427.383 0 441.341c0 16.712 13.534 30.307 30.17 30.307h22.271c-16.636 0-30.171-13.596-30.171-30.307z" opacity=".1"/><ellipse cx="169.41" cy="310.201" rx="104.23" ry="104.7" fill="#fefbf7"/><path d="M158.73 356.001v33.715a7.5 7.5 0 0015 0v-33.715h-15z" fill="#ffcb00"/><path d="M87.717 310.204c0-54.003 40.698-98.451 92.964-104.094-3.701-.4-7.459-.611-11.266-.611-57.565 0-104.23 46.877-104.23 104.705 0 57.827 46.665 104.705 104.23 104.705 3.807 0 7.564-.21 11.266-.61-52.266-5.644-92.964-50.093-92.964-104.095z" opacity=".1"/><path d="M311.272 138.18c-5.171-12.324-13.211-23.296-23.412-30.671l-74.952-54.184c-23.922-17.295-63.066-17.295-86.988 0l-74.952 54.184c-10.201 7.375-18.24 18.347-23.411 30.671h283.715z" fill="#fae4c8"/><path d="M84.707 107.509l74.952-54.184c7.649-5.53 16.857-9.283 26.624-11.277-20.777-4.24-44.091-.488-60.363 11.277l-74.952 54.184c-10.201 7.375-18.24 18.347-23.411 30.671h33.738c5.172-12.324 13.211-23.296 23.412-30.671z" opacity=".1"/><g fill="#f6b245"><path d="M142.11 82.971c-1.97 0-3.9-.8-5.3-2.2-1.4-1.4-2.2-3.33-2.2-5.3a7.51 7.51 0 017.5-7.5c1.98 0 3.91.8 5.31 2.2a7.543 7.543 0 012.19 5.3c0 1.97-.8 3.91-2.19 5.3a7.55 7.55 0 01-5.31 2.2zM169.41 103.811c-1.97 0-3.9-.8-5.3-2.2-1.4-1.39-2.2-3.33-2.2-5.3s.8-3.9 2.2-5.3 3.33-2.2 5.3-2.2c1.98 0 3.91.8 5.31 2.2 1.39 1.39 2.2 3.33 2.2 5.3s-.81 3.91-2.2 5.3a7.55 7.55 0 01-5.31 2.2z"/></g><path d="M196.72 82.971c-1.98 0-3.91-.8-5.31-2.2a7.56 7.56 0 01-2.19-5.3c0-1.98.8-3.91 2.19-5.31a7.584 7.584 0 015.31-2.19c1.97 0 3.9.8 5.3 2.19a7.55 7.55 0 012.2 5.31c0 1.97-.8 3.91-2.2 5.3-1.4 1.4-3.33 2.2-5.3 2.2z" fill="#fefbf7"/><path d="M224.02 103.811c-1.97 0-3.91-.8-5.3-2.19-1.4-1.4-2.2-3.34-2.2-5.31s.8-3.9 2.2-5.3c1.39-1.4 3.33-2.2 5.3-2.2s3.91.8 5.3 2.2c1.4 1.4 2.2 3.33 2.2 5.3s-.8 3.91-2.2 5.31a7.56 7.56 0 01-5.3 2.19z" fill="#f6b245"/><path d="M114.81 103.811a7.51 7.51 0 01-7.5-7.5c0-1.97.8-3.91 2.2-5.3 1.4-1.4 3.33-2.2 5.3-2.2 1.98 0 3.91.8 5.31 2.2a7.56 7.56 0 012.19 5.3c0 1.98-.8 3.91-2.19 5.3a7.55 7.55 0 01-5.31 2.2z" fill="#fefbf7"/><path d="M336.589 155.043c0 2.833-2.318 5.151-5.151 5.151H7.393c-2.833 0-5.151-2.318-5.151-5.151v-33.907c0-2.833 2.318-5.151 5.151-5.151h324.046c2.833 0 5.151 2.318 5.151 5.151v33.907h-.001z" fill="#3eb7cb"/><path d="M36.002 155.043v-33.907c0-2.833 2.318-5.151 5.151-5.151H7.393c-2.833 0-5.151 2.318-5.151 5.151v33.907c0 2.833 2.318 5.151 5.151 5.151h33.76c-2.833 0-5.151-2.318-5.151-5.151z" opacity=".1"/><path d="M287.489 471.648a8.554 8.554 0 01-7.904-5.304 8.629 8.629 0 011.855-9.367l77.079-77.429c9.816-9.859 22.938-15.289 36.949-15.289s27.134 5.43 36.949 15.29l77.079 77.428a8.625 8.625 0 011.854 9.367 8.555 8.555 0 01-7.904 5.304H287.489z" fill="#fae4c8"/><path d="M307.915 466.344a8.627 8.627 0 011.855-9.367l77.079-77.429a51.586 51.586 0 0122.784-13.353 52.73 52.73 0 00-14.165-1.936c-14.011 0-27.133 5.43-36.949 15.289l-77.079 77.429a8.629 8.629 0 00-1.855 9.367 8.556 8.556 0 007.904 5.304h28.33a8.554 8.554 0 01-7.904-5.304z" opacity=".1"/><path d="M337.614 419.531c-8.536-8.575-19.947-13.296-32.132-13.296-12.184 0-23.596 4.721-32.132 13.295l-51.88 52.118h171.302l-55.158-52.117z" fill="#f6b245"/><path d="M319.511 408.431a45.714 45.714 0 00-14.029-2.196c-12.184 0-23.596 4.721-32.132 13.295l-51.88 52.118h28.058l51.88-52.118a44.88 44.88 0 0118.103-11.099z" opacity=".1"/><path d="M396.85 402.211c-1.97 0-3.91-.8-5.3-2.19a7.55 7.55 0 01-2.2-5.31 7.51 7.51 0 017.5-7.5 7.51 7.51 0 017.5 7.5c0 1.98-.8 3.91-2.2 5.31a7.56 7.56 0 01-5.3 2.19z" fill="#f6b245"/><path d="M424.7 424.361a7.51 7.51 0 01-7.5-7.5 7.51 7.51 0 017.5-7.5 7.51 7.51 0 017.5 7.5 7.51 7.51 0 01-7.5 7.5z" fill="#fefbf7"/><path d="M452.55 441.851c-1.98 0-3.91-.8-5.31-2.2a7.578 7.578 0 01-2.19-5.3c0-1.98.8-3.91 2.19-5.31a7.584 7.584 0 015.31-2.19c1.97 0 3.91.8 5.3 2.19a7.55 7.55 0 012.2 5.31c0 1.97-.8 3.9-2.2 5.3a7.528 7.528 0 01-5.3 2.2z" fill="#f6b245"/><path d="M378.28 424.361c-1.97 0-3.9-.8-5.3-2.2-1.4-1.39-2.2-3.33-2.2-5.3s.8-3.91 2.2-5.3c1.4-1.4 3.33-2.2 5.3-2.2 1.98 0 3.91.8 5.31 2.2a7.559 7.559 0 012.19 5.3c0 1.97-.8 3.91-2.19 5.3a7.55 7.55 0 01-5.31 2.2z" fill="#fefbf7"/><path d="M304.02 439.521a7.57 7.57 0 01-5.3-2.2c-1.4-1.4-2.2-3.33-2.2-5.3 0-1.98.8-3.91 2.2-5.31a7.552 7.552 0 015.3-2.2c1.97 0 3.91.81 5.3 2.2a7.55 7.55 0 012.2 5.31c0 1.97-.8 3.9-2.2 5.3a7.588 7.588 0 01-5.3 2.2z" fill="#fae4c8"/><g fill="#fefbf7"><path d="M333.03 452.341c-1.97 0-3.91-.8-5.3-2.2a7.543 7.543 0 01-2.2-5.3c0-1.98.8-3.91 2.2-5.31 1.39-1.39 3.33-2.19 5.3-2.19s3.91.8 5.3 2.19a7.55 7.55 0 012.2 5.31c0 1.97-.8 3.9-2.2 5.3a7.528 7.528 0 01-5.3 2.2zM277.33 452.341c-1.97 0-3.91-.8-5.3-2.2a7.543 7.543 0 01-2.2-5.3c0-1.98.8-3.91 2.2-5.31 1.39-1.39 3.33-2.19 5.3-2.19s3.91.8 5.31 2.19a7.584 7.584 0 012.19 5.31c0 1.97-.8 3.9-2.19 5.3-1.4 1.4-3.34 2.2-5.31 2.2z"/></g><g fill="#008daf"><path d="M91.175 130.59H2.242v15h88.934a7.5 7.5 0 10-.001-15zM336.589 130.59h-80.593a7.5 7.5 0 000 15h80.593v-15z"/></g><g fill="#299fbc"><path d="M316.203 174.467h-17.837a7.5 7.5 0 000 15h17.837v-15zM316.203 201.159h-17.837a7.5 7.5 0 000 15h17.837v-15zM316.203 227.851h-17.837a7.5 7.5 0 000 15h17.837v-15zM316.203 254.543h-17.837a7.5 7.5 0 000 15h17.837v-15z"/></g><path d="M166.231 290.001c-.53 0-1.059-.123-1.543-.373-10.096-5.203-16.368-15.507-16.368-26.888 0-11.383 6.272-21.686 16.368-26.889a3.364 3.364 0 013.086 0c10.094 5.204 16.366 15.506 16.366 26.889.001 11.381-6.271 21.685-16.366 26.888a3.373 3.373 0 01-1.543.373z" fill="#ffcb00"/><g fill="#f6b142"><path d="M169.007 304.642a3.373 3.373 0 01-1.354.832c-10.802 3.492-22.488.662-30.499-7.388-8.013-8.047-10.83-19.786-7.354-30.637a3.382 3.382 0 012.183-2.19c10.8-3.493 22.486-.662 30.499 7.386 8.011 8.048 10.829 19.788 7.353 30.638a3.43 3.43 0 01-.828 1.359z"/><path d="M163.454 304.642a3.394 3.394 0 01-.828-1.359c-3.476-10.85-.658-22.59 7.354-30.638 8.012-8.048 19.698-10.879 30.498-7.386.519.167.98.455 1.354.83.374.376.661.84.829 1.361 3.474 10.85.658 22.589-7.354 30.637-8.012 8.049-19.699 10.879-30.5 7.387a3.37 3.37 0 01-1.353-.832z"/></g><g fill="#ffcb00"><path d="M169.007 332.698a3.373 3.373 0 01-1.354.832c-10.802 3.491-22.488.661-30.499-7.388-8.013-8.048-10.83-19.787-7.354-30.637a3.38 3.38 0 012.183-2.192c10.8-3.492 22.486-.662 30.499 7.386 8.011 8.049 10.829 19.789 7.353 30.639a3.413 3.413 0 01-.828 1.36z"/><path d="M163.454 332.698a3.394 3.394 0 01-.828-1.359c-3.476-10.85-.658-22.59 7.354-30.639 8.012-8.048 19.698-10.878 30.498-7.386.519.167.98.455 1.354.831.374.376.661.84.829 1.361 3.474 10.85.658 22.589-7.354 30.638-8.012 8.048-19.699 10.878-30.5 7.387a3.36 3.36 0 01-1.353-.833z"/></g><g fill="#f6b142"><path d="M169.007 360.856a3.347 3.347 0 01-1.354.83c-10.802 3.492-22.488.662-30.499-7.387-8.013-8.048-10.83-19.788-7.354-30.638.166-.521.453-.984.828-1.36a3.346 3.346 0 011.355-.831c10.8-3.492 22.486-.662 30.499 7.386 8.011 8.049 10.829 19.789 7.353 30.639a3.417 3.417 0 01-.828 1.361z"/><path d="M163.454 360.856a3.398 3.398 0 01-.828-1.36c-3.476-10.851-.658-22.59 7.354-30.638 8.012-8.049 19.698-10.878 30.498-7.386a3.404 3.404 0 012.183 2.191c3.474 10.85.658 22.589-7.354 30.639-8.012 8.048-19.699 10.877-30.5 7.385a3.345 3.345 0 01-1.353-.831z"/></g></svg>
