<svg height="512" viewBox="0 0 510 510" width="512" xmlns="http://www.w3.org/2000/svg" id="svg-icon"><path d="M365.723 317.984l-36.32 7.69-17.34-7.69h-112.16l-17.34 7.69-36.32-7.69c-10.405 0-17.859-10.128-14.66-20.1l35.28-109.81a15.401 15.401 0 0114.66-10.69h148.92c6.69 0 12.61 4.32 14.66 10.69l35.28 109.81c3.21 10.02-4.31 20.1-14.66 20.1z" fill="#ffd17b"/><path d="M365.723 317.984l-36.32 7.69-17.34-7.69h-56.08v-140.6h74.46c6.69 0 12.61 4.32 14.66 10.69l35.28 109.81c3.21 10.02-4.31 20.1-14.66 20.1z" fill="#fdbf00"/><path d="M471.5 138.156c-4.617-6.878-13.938-8.709-20.814-4.092l-34.136 22.92c-6.878 4.618-8.71 13.937-4.092 20.814 4.619 6.88 13.94 8.708 20.814 4.092l34.136-22.92c6.878-4.618 8.71-13.937 4.092-20.814zM95.417 156.984l-34.136-22.92c-6.876-4.619-16.197-2.786-20.814 4.092-4.618 6.877-2.786 16.197 4.092 20.814l34.136 22.92c6.877 4.618 16.197 2.786 20.814-4.092 4.618-6.877 2.786-16.197-4.092-20.814z" fill="#ffd17b"/><path d="M255.983 51.408c-8.284 0-15 6.716-15 15v33.779c0 8.284 6.716 15 15 15s15-6.716 15-15V66.408c0-8.284-6.716-15-15-15z" fill="#fdbf00"/><path d="M234.891 458.592H15.407c-10.438 0-17.851-10.167-14.658-20.105l35.279-109.814a15.396 15.396 0 0114.658-10.687h148.917a15.396 15.396 0 0114.658 10.686l35.287 109.814c3.194 9.938-4.219 20.106-14.657 20.106z" fill="#ffd17b"/><path d="M234.891 458.592H125.144V317.987h74.459a15.396 15.396 0 0114.658 10.686l35.287 109.814c3.194 9.937-4.219 20.105-14.657 20.105z" fill="#fdbf00"/><path d="M494.593 458.592H275.109c-10.438 0-17.851-10.167-14.658-20.105l35.279-109.814a15.396 15.396 0 0114.658-10.687h148.917a15.396 15.396 0 0114.658 10.686l35.287 109.814c3.194 9.938-4.219 20.106-14.657 20.106z" fill="#ffd17b"/><path d="M494.593 458.592H384.847V317.987h74.459a15.396 15.396 0 0114.658 10.686l35.287 109.814c3.193 9.937-4.22 20.105-14.658 20.105z" fill="#fdbf00"/></svg>
