<svg height="496pt" viewBox="-88 0 496 496" width="496pt" xmlns="http://www.w3.org/2000/svg" id="svg-icon"><path d="M96 140.078V120H48v20.078C20 150 0 176.641 0 208v272c0 8.8 7.121 16 16 16h112c8.8 0 16-7.2 16-16V208c0-31.36-20.078-58-48-67.922zm0 0" fill="#656d78"/><path d="M256 495.992c-4.426 0-8-3.578-8-8v-95.93c0-4.421 3.574-8 8-8s8 3.579 8 8v95.93c0 4.422-3.574 8-8 8zm0 0" fill="#ccd1d9"/><path d="M48 0h48v39.922H48zm0 0" fill="#ed5565"/><path d="M48 39.922h48V120H48zm0 0" fill="#da4453"/><path d="M303.922 224.078l16 103.922H192l16-103.922zm0 0" fill="#e6e9ed"/><path d="M303.922 224.078h-16.02l16 103.922h16.02zm0 0" fill="#ccd1d9"/><path d="M319.922 328H320c0 35.36-28.64 64-64 64s-63.922-28.559-64-63.922V328zm0 0" fill="#ed5565"/><path d="M319.922 328h-15.938c0 32.64-24.433 59.504-55.992 63.45 2.625.327 5.29.55 8.008.55 35.36 0 64-28.64 64-64zm0 0" fill="#da4453"/><path d="M24 415.984V264.016h96v151.968zm0 0" fill="#ed5565"/><path d="M96 140.078V120H71.977v28.09c27.918 9.918 48 36.558 48 67.918V248H120v184h-.023v48c0 8.8-7.2 16-16 16H128c8.8 0 16-7.2 16-16V208c0-31.36-20.078-58-48-67.922zm0 0" fill="#434a54"/><path d="M71.977 39.922H96V120H71.977zm0 0" fill="#d3374e"/><g fill="#da4453"><path d="M71.977 0H96v39.922H71.977zm0 0M72 307.922c0 6.637-5.36 12-12 12s-12-5.363-12-12c0-6.563 5.36-12 12-12s12 5.437 12 12zm0 0"/><path d="M72 316.672c6.64 0 12 5.441 12 12 0 6.64-5.36 12-12 12s-12-5.36-12-12c0-6.559 5.36-12 12-12zm0 0"/><path d="M72 307.922c0-6.563 5.36-12 12-12s12 5.437 12 12c0 6.637-5.36 12-12 12s-12-5.363-12-12zm0 0M95.984 367.96H47.97c-4.426 0-8-3.577-8-8 0-4.425 3.574-8 8-8h48.015c4.422 0 8 3.575 8 8 0 4.423-3.578 8-8 8zm0 0M79.969 391.969H63.984c-4.425 0-8-3.578-8-8 0-4.426 3.575-8 8-8H79.97c4.422 0 8 3.574 8 8 0 4.422-3.578 8-8 8zm0 0"/></g><path d="M303.945 495.992h-95.968c-4.426 0-8-3.578-8-8 0-4.426 3.574-8 8-8h95.968c4.422 0 8 3.574 8 8 0 4.422-3.578 8-8 8zm0 0" fill="#e6e9ed"/></svg>
