<svg viewBox="0 0 512 512" height="512" width="512" xmlns="http://www.w3.org/2000/svg" id="svg-icon"><path d="M156.508 92.428c25.506 6.834 51.608-7.873 58.301-32.849S206.25 8.815 180.744 1.981s-87.746 4.741-92.8 23.605 43.058 60.008 68.564 66.842z" fill="#c8ea73"/><path d="M180.743 1.981c-2.289-.613-4.875-1.078-7.688-1.403 10.485 11.456 15.104 27.666 10.848 43.549-6.472 24.155-31.098 38.704-55.782 33.453 10.127 7.166 20.373 12.701 28.387 14.848 25.506 6.835 51.608-7.873 58.301-32.849 6.692-24.976-8.56-50.764-34.066-57.598z" fill="#b7e445"/><path d="M244.168 59.448l-68.051-18.235-13.615-23.582a7.726 7.726 0 00-13.382 7.726l5.889 10.2-28.746-7.703a7.727 7.727 0 00-4 14.926l48.597 13.022-11.299 6.524a7.725 7.725 0 003.87 14.418c1.311 0 2.64-.334 3.856-1.036l24.681-14.25 48.202 12.916a7.72 7.72 0 002.005.266 7.729 7.729 0 001.993-15.192z" fill="#d8f1a0"/><path d="M244.168 59.448l-60.065-16.095c-.064.258-.131.516-.2.773-3.747 13.984-13.578 24.748-25.983 30.315a7.744 7.744 0 005.509 2.302c1.311 0 2.64-.334 3.856-1.036l24.681-14.25 48.202 12.916a7.72 7.72 0 002.005.266 7.73 7.73 0 007.458-5.728 7.725 7.725 0 00-5.463-9.463z" fill="#c8ea73"/><path d="M417.467 0h-93.726c11.47 0 5.234 13.9 13.038 21.155 4.739 4.406 25.188.392 27.608 6.507h53.08c7.638 0 13.831-6.193 13.831-13.831S425.105 0 417.467 0z" fill="#d8f1a0"/><path d="M323.741 0h-25.424c-30.96 0-56.148 25.188-56.148 56.148v64.559c4.425-1.12 9.059 14.762 13.832 14.762s9.406-15.882 13.831-14.762V56.148c0-9.33 4.509-17.627 11.462-22.826a43.663 43.663 0 00-1.243 10.369c0 24.091 19.6 43.691 43.691 43.691s43.691-19.6 43.691-43.691S347.832 0 323.741 0zm0 59.72c-8.838 0-16.029-7.191-16.029-16.029s7.191-16.029 16.029-16.029 16.029 7.191 16.029 16.029-7.192 16.029-16.029 16.029z" fill="#e2f4b4"/><g fill="#d8f1a0"><path d="M326.145 27.662h-2.404c2.644 0 5.14.644 7.341 1.782a7.699 7.699 0 00-4.937-1.782zM281.293 33.322a.572.572 0 00-.078.059l.078-.059zM307.722 43.115c.305-8.572 7.374-15.453 16.019-15.453h-23.02c-6.959 0-13.622 1.949-19.428 5.66a43.663 43.663 0 00-1.243 10.369c0 4.007.543 7.89 1.558 11.579 4.086-7.831 11.268-12.155 19.113-12.155z"/></g><path d="M135.638 148.558l-30.749 42.167v109.233l40.945 70.154 53.97 71.734 62.53 38.257 48.019-38.35 55.813-71.641 40.945-70.154V190.725L304.57 147.014h-97.14z" fill="#734d9d"/><path d="M143.609 245.342c0-14.872 5.819-28.355 15.251-38.407-10.252-10.925-24.78-17.789-40.945-17.789-31.036 0-56.196 25.16-56.196 56.196s25.16 56.196 56.196 56.196c16.164 0 30.693-6.864 40.945-17.789-9.432-10.052-15.251-23.536-15.251-38.407zM394.085 189.146c-16.164 0-30.693 6.864-40.945 17.789 9.432 10.052 15.251 23.535 15.251 38.407s-5.819 28.355-15.251 38.407c10.252 10.925 24.781 17.789 40.945 17.789 31.036 0 56.196-25.16 56.196-56.196s-25.16-56.196-56.196-56.196z" fill="#a586c6"/><path d="M257.843 259.393c-.617-.02-1.221-.093-1.843-.093s-1.226.073-1.843.093c-6.1 23.647-27.158 41.227-52.51 42.051-1.161 4.499-1.843 9.19-1.843 14.052 0 31.036 25.16 56.196 56.196 56.196s56.196-25.16 56.196-56.196c0-4.861-.682-9.553-1.843-14.052-25.352-.824-46.411-18.404-52.51-42.051z" fill="#845caf"/><path d="M201.621 301.445c-.609.02-1.204.092-1.817.092-16.164 0-30.693-6.864-40.945-17.789-10.252 10.925-24.78 17.789-40.945 17.789-4.492 0-8.839-.583-13.026-1.579-1.42 4.94-2.225 10.141-2.225 15.538 0 31.036 25.16 56.196 56.196 56.196 20.756 0 38.838-11.284 48.57-28.022-4.82-8.29-7.625-17.894-7.625-28.174 0-4.859.647-9.561 1.817-14.051zM394.085 301.537c-16.164 0-30.693-6.864-40.945-17.789-10.252 10.925-24.78 17.789-40.945 17.789-.613 0-1.208-.072-1.817-.092a55.619 55.619 0 011.817 14.051c0 10.28-2.806 19.884-7.625 28.174 9.732 16.738 27.814 28.022 48.57 28.022 31.036 0 56.196-25.16 56.196-56.196 0-5.397-.805-10.598-2.225-15.538-4.187.996-8.534 1.579-13.026 1.579zM257.843 231.29c-.617.02-1.221.093-1.843.093s-1.226-.073-1.843-.093c-6.1-23.647-27.158-41.227-52.51-42.051-1.161-4.499-1.843-9.19-1.843-14.052 0-31.036 25.16-56.196 56.196-56.196s56.196 25.16 56.196 56.196c0 4.861-.682 9.553-1.843 14.052-25.352.824-46.411 18.404-52.51 42.051z" fill="#845caf"/><path d="M201.621 189.238c-.609-.02-1.204-.092-1.817-.092-16.164 0-30.693 6.864-40.945 17.789-10.252-10.925-24.78-17.789-40.945-17.789-4.492 0-8.839.583-13.026 1.579-1.42-4.94-2.225-10.141-2.225-15.538 0-31.036 25.16-56.196 56.196-56.196 20.756 0 38.838 11.284 48.57 28.022-4.82 8.29-7.625 17.894-7.625 28.174 0 4.86.647 9.561 1.817 14.051zM394.085 189.146c-16.164 0-30.693 6.864-40.945 17.789-10.252-10.925-24.78-17.789-40.945-17.789-.613 0-1.208.072-1.817.092a55.619 55.619 0 001.817-14.051c0-10.28-2.806-19.884-7.625-28.174 9.732-16.738 27.814-28.022 48.57-28.022 31.036 0 56.196 25.16 56.196 56.196 0 5.397-.805 10.598-2.225 15.538-4.187-.996-8.534-1.579-13.026-1.579z" fill="#845caf"/><path d="M207.43 343.67c-9.732 16.738-27.814 28.022-48.57 28.022-4.492 0-8.839-.583-13.026-1.579-1.42 4.94-2.225 10.141-2.225 15.538 0 31.036 25.16 56.196 56.196 56.196S256 416.686 256 385.65c0-4.861-.682-9.553-1.843-14.052-19.976-.649-37.287-11.692-46.727-27.928zM353.14 371.691c-20.756 0-38.838-11.284-48.57-28.022-9.44 16.237-26.751 27.279-46.727 27.929-1.161 4.499-1.843 9.19-1.843 14.052 0 31.036 25.16 56.196 56.196 56.196s56.196-25.16 56.196-56.196c0-5.397-.805-10.598-2.225-15.538-4.188.996-8.535 1.579-13.027 1.579z" fill="#a586c6"/><path d="M257.843 399.702c-.617-.02-1.221-.093-1.843-.093s-1.226.073-1.843.093c-6.1 23.647-27.158 41.227-52.51 42.051-1.161 4.499-1.843 9.19-1.843 14.052C199.804 486.84 224.964 512 256 512s56.196-25.16 56.196-56.196c0-4.861-.682-9.553-1.843-14.052-25.352-.824-46.411-18.403-52.51-42.05z" fill="#845caf"/><path d="M158.86 206.935c-10.252-10.925-24.78-17.789-40.945-17.789-.936 0-1.866.023-2.791.068-7.932 9.681-12.722 22.031-12.722 35.524a55.733 55.733 0 003.824 20.348c5.892 15.063-3.315 31.936-19.215 34.9a56.197 56.197 0 01-12.623.901c10.305 12.605 25.977 20.651 43.528 20.651 16.164 0 30.693-6.864 40.945-17.789-9.432-10.052-15.251-23.535-15.251-38.407s5.818-28.356 15.25-38.407zM396.406 189.193a55.963 55.963 0 0112.667 35.545c0 30.1-23.665 54.673-53.405 56.127a57.221 57.221 0 01-2.529 2.883c10.252 10.925 24.781 17.789 40.945 17.789 31.036 0 56.196-25.16 56.196-56.196.001-30.258-23.914-54.931-53.874-56.148z" fill="#9373b9"/><path d="M310.353 301.444c-16.453-.535-31.098-8.127-41.019-19.855 1.046 4.27 1.655 8.711 1.655 13.303 0 31.036-25.16 56.195-56.196 56.195-.777 0-1.551-.016-2.321-.047 10.305 12.605 25.977 20.651 43.528 20.651 31.036 0 56.196-25.16 56.196-56.195 0-4.861-.682-9.553-1.843-14.052zM199.804 315.496c0-4.859.647-9.561 1.817-14.051-.609.02-1.204.092-1.817.092-15.786 0-30.012-6.547-40.218-17.029a55.228 55.228 0 00-.989 10.384c0 5.14.701 10.111 2.005 14.833 3.394 12.293-1.788 25.42-12.486 32.362-8.77 5.691-19.225 9-30.464 9-.777 0-1.551-.016-2.321-.047 10.305 12.605 25.977 20.651 43.528 20.651 20.756 0 38.838-11.284 48.57-28.022-4.819-8.289-7.625-17.893-7.625-28.173zM407.111 299.958c-4.187.995-8.534 1.579-13.026 1.579a55.7 55.7 0 01-25.957-6.379c-.143 30.913-25.248 55.93-56.195 55.93-.755 0-1.505-.015-2.253-.045 10.295 12.594 25.923 20.648 43.46 20.648 31.036 0 56.196-25.16 56.196-56.195 0-5.397-.805-10.598-2.225-15.538zM201.459 188.49c.061.25.124.5.188.749l.448.017c-.21-.257-.422-.513-.636-.766zM258.321 119.039a55.964 55.964 0 0112.668 35.545v.146c-.02 7.303-5.193 13.638-12.32 15.233-14.662 3.281-27.144 12.288-34.991 24.56 14.945 7.029 26.272 20.454 30.48 36.768.617.02 1.221.093 1.843.093s1.226-.073 1.843-.093c6.1-23.647 27.158-41.227 52.51-42.051 1.161-4.499 1.843-9.19 1.843-14.052-.001-30.259-23.916-54.932-53.876-56.149z" fill="#734d9d"/><path d="M207.43 147.014c-9.378-16.13-26.51-27.194-46.318-27.977l.148.181c3.111 3.837 3.66 9.096 1.738 13.646a55.659 55.659 0 00-4.401 21.72c0 4.237.492 8.354 1.393 12.315.196.862-.491 1.645-1.375 1.643h-.018a55.691 55.691 0 00-26.093 6.451c-9.308 4.916-20.333 4.964-29.635.036l-.204-.107c-.027 5.492.781 10.783 2.224 15.803 4.187-.996 8.534-1.579 13.026-1.579 16.164 0 30.693 6.864 40.945 17.789 10.252-10.925 24.78-17.789 40.945-17.789.613 0 1.208.072 1.817.092a55.619 55.619 0 01-1.817-14.051c-.001-10.279 2.805-19.884 7.625-28.173zM355.461 119.039a55.964 55.964 0 0112.618 37.864c-.292 6.834-6.219 11.964-13.053 11.684a52.774 52.774 0 00-2.148-.044c-17.54 0-33.154 8.082-43.467 20.665.961.106 1.852-.061 2.785-.061 16.164 0 30.693 6.864 40.945 17.789 10.252-10.925 24.781-17.789 40.945-17.789 4.492 0 8.839.583 13.026 1.579 1.42-4.94 2.225-10.141 2.225-15.538-.001-30.259-23.916-54.932-53.876-56.149z" fill="#734d9d"/><path d="M254.157 371.598c-16.447-.534-31.087-8.115-41.015-19.838 1.043 4.265 1.65 8.7 1.65 13.286 0 31.036-25.16 56.195-56.196 56.195-.777 0-1.551-.016-2.321-.047 10.305 12.605 25.977 20.651 43.528 20.651 31.036 0 56.196-25.159 56.196-56.195.001-4.861-.681-9.553-1.842-14.052zM366.246 370.112c-4.187.996-8.534 1.579-13.026 1.579-9.372 0-18.198-2.301-25.957-6.365-.151 30.907-25.252 55.915-56.195 55.915-.777 0-1.551-.016-2.321-.047 10.305 12.605 25.977 20.651 43.528 20.651 31.036 0 56.195-25.159 56.195-56.195 0-5.396-.804-10.598-2.224-15.538z" fill="#9373b9"/><path d="M310.353 441.753c-16.453-.535-31.098-8.127-41.019-19.855 1.046 4.27 1.655 8.711 1.655 13.303 0 31.036-25.16 56.196-56.196 56.196-.777 0-1.551-.016-2.321-.047C222.777 503.954 238.449 512 256 512c31.036 0 56.196-25.16 56.196-56.196 0-4.861-.682-9.553-1.843-14.051z" fill="#734d9d"/><circle cx="312.196" cy="245.342" fill="#a586c6" r="56.196"/><path d="M314.516 189.193a55.964 55.964 0 0112.668 35.545c0 31.036-25.16 56.196-56.196 56.196-.777 0-1.551-.016-2.321-.047 10.305 12.605 25.977 20.651 43.528 20.651 31.036 0 56.196-25.16 56.196-56.196 0-30.259-23.915-54.932-53.875-56.149z" fill="#9373b9"/><circle cx="199.804" cy="245.342" fill="#a586c6" r="56.196"/><path d="M202.125 189.193a55.964 55.964 0 0112.668 35.545c0 31.036-25.16 56.196-56.196 56.196-.777 0-1.551-.016-2.321-.047 10.305 12.605 25.977 20.651 43.528 20.651 31.036 0 56.196-25.16 56.196-56.196 0-30.259-23.915-54.932-53.875-56.149z" fill="#9373b9"/></svg>
