<svg viewBox="0 0 30 22" xmlns="http://www.w3.org/2000/svg" id="svg-icon">
  <path
    d="M13.6 15.16c0 .727-.59 1.316-1.317 1.316H5.614c-.726 0-1.316-.59-1.316-1.316a2.782 2.782 0 012.779-2.778h.275A2.704 2.704 0 018.947 7.49a2.703 2.703 0 011.595 4.891h.276a2.782 2.782 0 012.776 2.664c.003.038.005.076.005.115zM30 1.886v18.228a.987.987 0 01-.987.987H.987A.987.987 0 010 20.114V1.886C0 1.34.442.899.987.899h28.026c.545 0 .987.442.987.987zM15.084 5.259a.987.987 0 00-.987-.987h-10.3a.987.987 0 00-.986.987v11.482c0 .545.441.987.986.987h10.3a.987.987 0 00.987-.987V5.259zM26.94 15.21a.987.987 0 00-.987-.986h-7.05a.987.987 0 100 1.973h7.05a.987.987 0 00.987-.986zm0-4.21a.987.987 0 00-.987-.987h-7.05a.987.987 0 100 1.974h7.05A.987.987 0 0026.94 11zm0-4.21a.987.987 0 00-.987-.987h-7.05a.987.987 0 100 1.973h7.05a.987.987 0 00.987-.987z"
/></svg>
