<svg xmlns="http://www.w3.org/2000/svg" id="svg-icon" viewBox="0 0 512.012 512.012" >
  <path
    d="M256.012 380.346c33.214 0 64.44-12.934 87.926-36.42s36.42-54.712 36.42-87.926-12.934-64.44-36.42-87.926c-23.485-23.486-54.712-36.42-87.926-36.42s-64.439 12.934-87.926 36.42c-48.481 48.482-48.481 127.369 0 175.852 23.487 23.486 54.712 36.42 87.926 36.42zm-80.514-190.718l7.305 7.304c1.953 1.953 4.512 2.929 7.071 2.929s5.119-.977 7.071-2.929c3.905-3.905 3.905-10.237 0-14.142l-7.31-7.31c18.647-15.428 41.866-23.826 66.377-23.826 27.872 0 54.075 10.854 73.783 30.563 19.709 19.708 30.563 45.912 30.563 73.783 0 24.511-8.397 47.729-23.826 66.377l-7.31-7.31c-3.906-3.905-10.238-3.905-14.143 0s-3.905 10.237 0 14.142l7.31 7.309c-18.647 15.429-41.866 23.826-66.377 23.826-24.51 0-47.729-8.397-66.377-23.826l7.31-7.31c3.905-3.905 3.905-10.237 0-14.142-3.904-3.905-10.234-3.905-14.143 0l-7.305 7.304c-31.701-38.398-31.701-94.342.001-132.742z" />
  <path
    d="M512.012 113.696c0-8.798-3.409-17.052-9.6-23.242L421.559 9.6c-6.19-6.19-14.445-9.6-23.242-9.6h-.001c-8.797 0-17.052 3.409-23.241 9.599l-80.68 80.68a172.788 172.788 0 00-15.604-2.837c-35.985-4.834-73.219 2.107-104.849 19.545-4.837 2.667-6.596 8.749-3.929 13.585 2.666 4.837 8.75 6.594 13.585 3.929 58.132-32.051 131.551-21.617 178.54 25.372 58.517 58.518 58.518 153.733 0 212.25-58.518 58.518-153.733 58.518-212.251 0-46.987-46.985-57.421-120.401-25.373-178.533 2.666-4.837.906-10.919-3.93-13.585-4.838-2.668-10.919-.908-13.586 3.929-17.437 31.63-24.377 68.865-19.542 104.846a172.806 172.806 0 002.836 15.602l-80.68 80.68c-12.815 12.815-12.815 33.667 0 46.484L90.466 502.4c6.408 6.408 14.825 9.611 23.242 9.611s16.834-3.204 23.242-9.611l80.746-80.746a171.245 171.245 0 0038.316 4.349c36.936 0 73.869-11.929 104.465-35.775a9.968 9.968 0 008.731 5.139 9.968 9.968 0 007.071-2.929l16.171-16.171c3.905-3.905 3.905-10.237 0-14.143a9.988 9.988 0 00-2.21-1.66c32.15-41.249 42.621-94.02 31.425-142.782l80.746-80.745c6.193-6.189 9.601-14.443 9.601-23.241zm-357.85 278.523l-71.781 71.782c-.346.346-.649.716-.934 1.096l-34.531-34.531c.38-.284.75-.588 1.096-.934l71.754-71.755a172.856 172.856 0 0015.978 18.391 170.917 170.917 0 0018.418 15.951zm-130.408-3.014l73.077-73.077a167.156 167.156 0 0011.682 24.718L33.87 415.489c-.345.346-.649.716-.934 1.096l-9.181-9.181c-5.018-5.018-5.018-13.182-.001-18.199zm99.054 99.053c-5.018 5.017-13.182 5.019-18.199 0l-9.181-9.181c.38-.284.75-.588 1.096-.934l74.695-74.696a168.693 168.693 0 0024.73 11.669zM389.217 23.741c2.412-2.413 5.644-3.741 9.1-3.741 3.455 0 6.687 1.329 9.1 3.742l9.181 9.181c-.38.284-.75.588-1.096.934L340.859 108.5a167.257 167.257 0 00-24.718-11.682zm-31.328 96.013L429.644 48c.345-.346.649-.716.934-1.096l34.531 34.531c-.38.284-.75.588-1.095.933l-71.781 71.781a170.7 170.7 0 00-15.951-18.417 173.202 173.202 0 00-18.393-15.978zm130.382 3.042l-73.141 73.141a168.688 168.688 0 00-11.67-24.729l74.696-74.696c.345-.345.649-.715.933-1.095l9.181 9.181c2.413 2.413 3.742 5.645 3.742 9.1s-1.328 6.685-3.741 9.098z" />
  <path
    d="M241.321 310.833c.867.232 1.737.343 2.594.343 4.415 0 8.456-2.947 9.653-7.415l11.41-42.585 46.617-46.617c3.905-3.905 3.905-10.237 0-14.143-3.906-3.905-10.236-3.905-14.143 0l-48.512 48.512a10.006 10.006 0 00-2.588 4.483l-12.104 45.174c-1.428 5.336 1.738 10.819 7.073 12.248zM142.816 152.804c5.522 0 10-4.477 10-10s-4.478-10-10-10h-.007c-5.522 0-9.996 4.477-9.996 10s4.48 10 10.003 10z" />
  </svg>
