<svg xmlns="http://www.w3.org/2000/svg" id="svg-icon" viewBox="0 0 511.974 511.974" >
  <path
    d="M496.91 337.976a7.501 7.501 0 00-13.26 7.015c7.548 14.266 12.014 30.103 13.077 46.209H316.948c3.412-14.766 16.661-25.811 32.449-25.811h54.63c32.985 0 52.969-30.495 45.564-59.681a114.945 114.945 0 0114.413 12.43 7.499 7.499 0 0010.606.092 7.5 7.5 0 00.093-10.606c-13.309-13.542-29.082-23.804-46.881-30.501l-63.754-23.989a43.759 43.759 0 01-27.877-34.597l-9.417-64.224c-.859-5.858-2.837-11.472-5.729-16.563-.138-5.292-.848-19.825-4.49-34.562-8.279-33.494-24.906-40.525-37.404-40.525h-.014c-10.759.005-18.935 3.557-24.302 10.558-7.848 10.239-8.892 26.824-3.172 51.807-22.996.419-40.083-14.614-38.974-44.373.604-16.202-6.684-31.402-19.495-40.662l-1.02-.737c-12.184-8.807-29.132-7.182-39.419 3.78-5.417 5.768-97.873 104.264-115.087 122.603L13.04 190.268c-17.37 17.37-17.389 45.651-.041 63.043l13.677 13.713a7.5 7.5 0 0010.606.014 7.5 7.5 0 00.014-10.606l-13.677-13.713c-11.514-11.543-11.501-30.314.027-41.844l19.393-19.393 198.446 198.987c16.549 16.593 38.569 25.732 62.003 25.732h193.485v26.415c0 16.966-13.803 30.768-30.769 30.768h-145.26c-48.084 0-95.875-18.69-131.775-54.683L62.603 281.803a7.5 7.5 0 00-10.62 10.592l126.566 126.897c36.696 36.79 87.463 59.09 142.395 59.09h145.262c25.237 0 45.769-20.532 45.769-45.768V398.7c-.001-21.097-5.21-42.095-15.065-60.724zM266.741 82.344c.887-1.158 3.587-4.68 12.402-4.684h.007c15.746 0 22.756 23.751 25.463 43.11-8.801-5.017-19.461-5.664-28.591-1.542a70.075 70.075 0 01-9.49 3.493c-5.894-25.159-3.26-35.853.209-40.377zm15.453 50.556c13.638-6.156 27.559 8.723 29.738 23.588l1.684 11.486h-29.057c-4.143 0-7.5 3.358-7.5 7.5s3.357 7.5 7.5 7.5h31.257l4.274 29.15h-31.025c-4.143 0-7.5 3.358-7.5 7.5s3.357 7.5 7.5 7.5h33.599a58.786 58.786 0 0023.214 33.248c-31.744 7.997-56.492 5.854-73.721-6.423-31.636-22.545-35.363-76.653-35.984-115.676 15.336 3.867 31.784 1.056 46.021-5.373zM163.692 53.298c5.141-5.477 13.608-6.289 19.696-1.888.239.284 15.047 8.942 14.312 28.683a84.506 84.506 0 00-.016 5.252c-14.811 6.169-37.389 3.535-57.869-6.611zM53.481 170.709l49.296-52.517c25.693 36.767 45.431 94.927 52.759 154.85zm248.198 220.447c-18.74-.456-36.286-7.958-49.573-21.28l-79.805-80.023c-4.75-59.633-23.79-134.187-59.052-182.816l15.907-16.946c20.914 11.392 48.4 17.625 70.484 10.49 3.205 13.086 10.308 24.032 21.458 31.212.452 54.991 6.365 108.725 42.355 134.371 29.145 20.768 69.015 15.028 102.86 3.84 59.761 22.504 55.948 21.016 58.773 22.154 21.746 21.662 9.519 58.23-21.059 58.23h-54.63c-24.072.001-44.084 17.7-47.718 40.768z" />
  </svg>
