<svg xmlns="http://www.w3.org/2000/svg" id="svg-icon" viewBox="0 0 512 512" >
  <path
    d="M504.813 254.448L475.271 121.49c-4.75-21.292-23.292-36.156-45.083-36.156-25.458 0-46.188 20.719-46.188 46.177v7.156c0 5.896 4.771 10.667 10.667 10.667s10.667-4.771 10.667-10.667v-7.156c0-13.698 11.146-24.844 24.854-24.844 11.729 0 21.708 8.01 24.25 19.458l29.542 132.948a281.9 281.9 0 016.479 50.26h-.87c-5.441-53.75-50.428-96-105.589-96-48.228 0-88.613 32.385-101.758 76.398-6.527-6.881-15.129-12.398-26.242-12.398s-19.715 5.517-26.242 12.398c-13.145-44.013-53.53-76.398-101.758-76.398-55.16 0-100.147 42.25-105.589 96h-.87a281.98 281.98 0 016.479-50.26l29.542-132.938c2.542-11.458 12.521-19.469 24.25-19.469 13.708 0 24.854 11.146 24.854 24.844v7.156a10.66 10.66 0 0010.667 10.667A10.66 10.66 0 00128 138.666v-7.156c0-25.458-20.729-46.177-46.188-46.177-21.792 0-40.333 14.865-45.083 36.167L7.188 254.448A303.367 303.367 0 000 320a10.66 10.66 0 0010.667 10.667h11.745c5.441 53.75 50.428 96 105.589 96 57.904 0 104.951-46.451 106.398-104.012 2.143-5.964 10.667-23.988 21.602-23.988 10.654 0 19.07 17.02 21.599 23.956 1.43 57.576 48.487 104.044 106.401 104.044 55.16 0 100.147-42.25 105.589-96h11.745A10.66 10.66 0 00512.002 320a303.555 303.555 0 00-7.189-65.552zM128 405.333c-47.063 0-85.333-38.281-85.333-85.333S80.938 234.667 128 234.667s85.333 38.281 85.333 85.333-38.27 85.333-85.333 85.333zm256 0c-47.063 0-85.333-38.281-85.333-85.333s38.271-85.333 85.333-85.333 85.333 38.281 85.333 85.333-38.27 85.333-85.333 85.333z" />
  <path
    d="M128 256c-35.292 0-64 28.708-64 64a10.66 10.66 0 0010.667 10.667A10.66 10.66 0 0085.334 320c0-23.531 19.146-42.667 42.667-42.667a10.66 10.66 0 0010.667-10.667A10.662 10.662 0 00128 256zM384 256c-35.292 0-64 28.708-64 64a10.66 10.66 0 0010.667 10.667A10.66 10.66 0 00341.334 320c0-23.531 19.146-42.667 42.667-42.667a10.66 10.66 0 0010.667-10.667A10.662 10.662 0 00384 256z" />
  </svg>
