<svg xmlns="http://www.w3.org/2000/svg" id="svg-icon" viewBox="0 0 512 512" >
  <path
    d="M485.096 201.844l-63.03-137.987c-6.227-13.63-13.287-20.902-26.982-27.79l-69.592-35a10 10 0 00-7.081-.726c-48.413 12.973-76.41 12.972-124.821 0a9.994 9.994 0 00-7.081.726l-69.591 35c-13.695 6.888-20.756 14.16-26.982 27.791L26.905 201.844a9.998 9.998 0 003.796 12.635l75.303 47.064V502c0 5.523 4.478 10 10 10h279.995c5.522 0 10-4.477 10-10V261.543l75.302-47.064a10 10 0 003.795-12.635zM309.195 23.265C302.996 44.703 281.499 60.563 256 60.563s-46.995-15.86-53.194-37.297c39.005 9.056 67.382 9.057 106.389-.001zm96.803 214.693v-61.96c0-5.523-4.478-10-10-10s-10 4.477-10 10V492H126.003V175.998c0-5.523-4.478-10-10-10s-10 4.477-10 10v61.96l-57.26-35.787 59.384-130.003c4.326-9.471 8.147-13.39 17.777-18.233l20.372-10.246c10.176 28.542 32.538 52.331 61.66 64.96a9.969 9.969 0 003.974.828c3.864 0 7.544-2.253 9.18-6.024 2.197-5.067-.129-10.956-5.196-13.153-24.839-10.771-43.683-31.271-51.583-55.681l18.394-9.251c7.3 31.51 37.382 55.196 73.295 55.196s65.996-23.686 73.296-55.196l18.394 9.251c-7.899 24.412-26.745 44.913-51.588 55.684-5.067 2.197-7.395 8.085-5.197 13.153a10.002 10.002 0 009.18 6.024 9.964 9.964 0 003.973-.828c29.127-12.628 51.492-36.419 61.668-64.963l20.372 10.246c9.63 4.843 13.451 8.762 17.777 18.232l59.384 130.003z" />
  <path d="M256 98.561h-.007c-5.522 0-9.996 4.477-9.996 10s4.48 10 10.003 10 10-4.477 10-10-4.477-10-10-10z" /></svg>
