<svg xmlns="http://www.w3.org/2000/svg" id="svg-icon" viewBox="0 0 512 512" >
  <path
    d="M403.232 45.938a250.582 250.582 0 00-16.262-6.485l-5.42 15.054a233.927 233.927 0 0115.218 6.067zM232 32c49.168 0 95.411 6 133.729 17.338L370.271 34C330.5 22.223 282.685 16 232 16c-43.491 0-85.645 4.7-121.9 13.582l3.808 15.54C148.936 36.538 189.772 32 232 32zM440 192v-64c0-22.858-22.683-43.612-63.869-58.439C337.509 55.657 286.322 48 232 48S126.491 55.657 87.869 69.561C46.683 84.388 24 105.142 24 128v80c0 22.858 22.683 43.612 63.869 58.439C126.491 280.343 177.678 288 232 288h112v24a8 8 0 005.015 7.422l39.777 16a8 8 0 005.943.012l40.222-16A8 8 0 00440 312v-24a32 32 0 010 64H224a32.036 32.036 0 00-32-32H56a32.036 32.036 0 00-32 32v96a32.036 32.036 0 0032 32h136a32.036 32.036 0 0032-32h216a48.055 48.055 0 0048-48V240a48.055 48.055 0 00-48-48zM240 368h24v64h-24zm-16 64h-16v-64h16zm-32 32H56a16.019 16.019 0 01-16-16v-96a16.019 16.019 0 0116-16h136a16.019 16.019 0 0116 16H88a16.019 16.019 0 00-16 16v24H56v16h16v24a16.019 16.019 0 0016 16h120a16.019 16.019 0 01-16 16zm0-32H88v-24h104zm0-40H88v-24h104zm280 8a32.036 32.036 0 01-32 32H280v-64h160a47.81 47.81 0 0032-12.252zM358.852 192c5.994-1.725 11.769-3.577 17.279-5.561 20.913-7.529 37.045-16.588 47.869-26.673V192zM93.289 84.615C130.216 71.321 179.479 64 232 64s101.784 7.321 138.711 20.615C404.079 96.627 424 112.846 424 128s-19.921 31.373-53.289 43.385C333.784 184.679 284.521 192 232 192s-101.784-7.321-138.711-20.615C59.921 159.373 40 143.154 40 128s19.921-31.373 53.289-43.385zM424 306.573l-32.206 12.811L360 306.6V288h64zM440 272H232c-52.521 0-101.784-7.321-138.711-20.615C59.921 239.373 40 223.154 40 208v-48.234c10.824 10.085 26.956 19.144 47.869 26.673C126.491 200.343 177.678 208 232 208h208a32.036 32.036 0 0132 32v44.261A47.806 47.806 0 00440 272z" />
  <path
    d="M304 392h16v16h-16zM344 392h16v16h-16zM384 392h16v16h-16zM424 392h16v16h-16zM304 232h16v16h-16zM264 232h16v16h-16zM344 232h16v16h-16zM424 232h16v16h-16zM384 232h16v16h-16zM128.441 158.437C156.192 164.6 192.97 168 232 168s75.808-3.4 103.559-9.563C368.155 151.193 384 141.237 384 128s-15.845-23.193-48.441-30.437C307.808 91.4 271.03 88 232 88s-75.808 3.4-103.559 9.563C95.845 104.807 80 114.763 80 128s15.845 23.193 48.441 30.437zm6.432-45.894C161.166 107.034 195.66 104 232 104s70.834 3.034 97.127 8.543c29.286 6.136 37.941 13.232 38.84 15.457-.9 2.225-9.554 9.321-38.84 15.457C302.834 148.966 268.34 152 232 152s-70.834-3.034-97.127-8.543c-29.286-6.136-37.941-13.232-38.84-15.457.899-2.225 9.554-9.321 38.84-15.457z" />
  </svg>
