<svg xmlns="http://www.w3.org/2000/svg" id="svg-icon" viewBox="0 0 512 512" >
  <path
    d="M464.045 85.983c-6.17-9.09-15.563-15.239-26.448-17.312-17.504-3.333-34.548 4.865-43.044 19.181l1.942-23.401c.895-10.785-2.544-21.266-9.683-29.511-7.087-8.185-16.981-13.185-27.86-14.079-16.263-1.338-31.114 6.898-38.812 19.89v-.393C320.14 18.104 301.741 0 279.127 0c-22.615 0-41.015 18.104-41.014 40.27l-.074 8.269c-5.8-17.729-23.618-29.687-43.193-27.674-10.859 1.116-20.649 6.316-27.566 14.644-6.969 8.39-10.193 18.939-9.076 29.704l16.251 156.681-.328 30.331c-.001.106 0 .212.002.318.073 3.459-1.629 10.505-5.022 17.28-3.215 6.417-6.351 9.485-7.804 10.304-.679-.594-1.965-2.097-3.469-5.133a8.988 8.988 0 00-.143-.276l-38.282-71.574c-9.012-20.125-32.928-29.274-53.53-20.396-10.169 4.382-17.993 12.415-22.032 22.621-3.953 9.989-3.785 20.883.475 30.676.035.081.071.161.108.24 28.204 60.438 34.637 74.036 36.921 77.895l-.067.043c.193.301 19.563 30.445 42.031 60.187 31.212 41.317 48.784 56.205 59.969 61.204V502c0 5.523 4.477 10 10 10h204.173c5.522 0 10-4.477 10-10v-77.004c18.449-21.654 36.272-63.553 36.272-105.653V254.08l26.547-138.076c2.012-10.473-.199-21.134-6.231-30.021zM203.282 492v-23.648h184.174V492H203.282zm247.353-379.773l-26.617 138.445.012-.065-.08.359a10.04 10.04 0 00-.221 2.088v66.289c0 38.546-17.287 77.707-33.553 94.983a10.002 10.002 0 00-2.719 6.855v27.171H203.282v-20.413c0-5.523-4.461-10-9.984-10-.511-.023-12.999-1.201-54.32-55.971-20.923-27.733-39.049-55.73-40.735-58.345-2.399-4.641-22.959-48.511-35.63-75.664-2.078-4.854-2.14-10.258-.171-15.23 2.068-5.226 6.099-9.35 11.35-11.613 10.648-4.587 22.963.079 27.452 10.402.107.247.225.49.352.728l38.391 71.776c8.518 17.063 19.704 17.184 25.625 15.731 17.852-4.38 28.712-33.502 28.514-47.454l.333-30.761c.004-.38-.014-.761-.053-1.14l-16.31-157.249c-.557-5.367 1.065-10.645 4.567-14.86 3.554-4.278 8.606-6.951 14.227-7.529 11.537-1.188 21.856 6.94 23.014 18.112L236.58 219.65c.547 5.276 5.112 9.214 10.419 8.957a9.999 9.999 0 009.527-9.9l1.586-178.35c0-11.226 9.428-20.358 21.015-20.358s21.014 9.133 21.014 20.358v178.174a10 10 0 009.546 9.99c5.325.231 9.928-3.759 10.413-9.083l14.579-160.071c.93-11.192 11.089-19.521 22.636-18.575 5.633.463 10.739 3.034 14.379 7.238 3.588 4.144 5.318 9.387 4.872 14.765l-12.85 154.822a10 10 0 0019.726 3.004l25.853-115.935c.021-.096.041-.192.06-.289 2.121-11.037 13.116-18.25 24.503-16.082 5.632 1.073 10.476 4.232 13.642 8.897 3.025 4.464 4.139 9.795 3.135 15.015z" />
  <path
    d="M328.401 292.673h-53.398c-17.093 0-30.999 13.907-30.999 31s13.906 31 30.999 31h53.398c17.093 0 30.999-13.907 30.999-31s-13.906-31-30.999-31zm0 42h-53.398c-6.065 0-11-4.935-11-11s4.934-11 11-11h53.398c6.065 0 11 4.935 11 11s-4.935 11-11 11z" />
  <circle cx="259.4" cy="389.68" r="10" />
  <circle cx="299.4" cy="389.68" r="10" />
  <circle cx="339.4" cy="389.68" r="10" />
  <circle cx="377.4" cy="382.68" r="10" />
  <circle cx="388.23" cy="343.84" r="10" />
  <circle cx="389.9" cy="300.18" r="10" />
  <circle cx="393.4" cy="264.18" r="10" />
  <circle cx="351.4" cy="264.18" r="10" />
  <circle cx="310.4" cy="263.18" r="10" />
  <circle cx="269.4" cy="263.18" r="10" />
  <circle cx="227.24" cy="264.18" r="10" />
  <circle cx="216.74" cy="303.68" r="10" />
  <circle cx="216.74" cy="343.68" r="10" />
  <circle cx="174.24" cy="343.68" r="10" />
  <circle cx="218.41" cy="388.68" r="10" /></svg>
