<svg xmlns="http://www.w3.org/2000/svg" id="svg-icon" viewBox="0 0 512 512" >
  <path
    d="M437.6 453.586l-8.526-130.053c-.271-4.141-3.85-7.271-7.99-7.007a7.516 7.516 0 00-7.007 7.99l8.526 130.053c.728 11.102-3.06 21.689-10.666 29.809s-17.922 12.592-29.047 12.592H129.111c-11.126 0-21.442-4.472-29.047-12.592-7.606-8.12-11.393-18.707-10.666-29.809l15.588-237.761c.149-2.267.351-4.523.599-6.77l.012-.118c3.98-35.842 20.49-68.887 46.951-93.669C180.694 89.888 217.435 75.369 256 75.369s75.306 14.519 103.453 40.881c28.148 26.363 45.039 62.074 47.562 100.557l5.094 77.701c.271 4.141 3.854 7.287 7.99 7.007a7.516 7.516 0 007.007-7.99l-5.095-77.701c-.154-2.346-.364-4.68-.614-7.006V51.178c0-12.912-10.505-23.418-23.418-23.418h-24.541c-12.912 0-23.418 10.505-23.418 23.418v38.269a165.747 165.747 0 00-20.557-12.039 70.12 70.12 0 00.115-3.829C329.579 33.007 296.572 0 256 0s-73.579 33.007-73.579 73.579c0 1.254.044 2.535.115 3.829a165.832 165.832 0 00-20.558 12.039V51.178c0-12.912-10.505-23.418-23.418-23.418h-24.54c-12.912 0-23.417 10.505-23.417 23.418v37.191a7.515 7.515 0 1015.03 0V51.178c0-4.625 3.763-8.389 8.388-8.389h24.541c4.625 0 8.388 3.763 8.388 8.389v49.9a169.642 169.642 0 00-4.676 4.203c-15.435 14.456-27.789 31.47-36.641 50.142v-36.995a7.516 7.516 0 00-15.03 0v90.391a167.61 167.61 0 00-.614 7.006L74.4 453.586c-1.003 15.295 4.216 29.88 14.694 41.067C99.571 505.839 113.783 512 129.111 512H382.89c15.327 0 29.539-6.161 40.017-17.348 10.477-11.187 15.695-25.771 14.693-41.066zM231.85 62.091c4.313-9.048 13.553-15.255 24.15-15.255s19.837 6.207 24.151 15.255a167.468 167.468 0 00-48.301 0zm133.2-10.913c0-4.625 3.763-8.389 8.388-8.389h24.541c4.625 0 8.388 3.763 8.388 8.389v104.245c-8.852-18.673-21.206-35.686-36.641-50.142a166.689 166.689 0 00-4.677-4.204V51.178zM256 15.029c31.394 0 57.087 24.837 58.483 55.892a165.056 165.056 0 00-17.518-5.482C293.156 46.181 276.152 31.806 256 31.806s-37.156 14.375-40.965 33.633a165.592 165.592 0 00-17.518 5.482c1.396-31.054 27.089-55.892 58.483-55.892z" />
  <path
    d="M150.205 224.431C153.859 165.936 200.33 120.115 256 120.115s102.141 45.821 105.795 104.316a7.514 7.514 0 007.969 7.031 7.514 7.514 0 007.031-7.969c-2.008-32.152-15.473-62.007-37.914-84.065-22.531-22.147-51.966-34.344-82.881-34.344s-60.35 12.197-82.881 34.344c-22.441 22.058-35.906 51.913-37.914 84.065a7.515 7.515 0 007.031 7.969c4.136.265 7.711-2.889 7.969-7.031zm207.226 220.636H219.994a7.516 7.516 0 000 15.03h137.437c15.393.316 28.711-13.796 27.508-29.143l-6.848-118.486c-.841-14.559-12.924-25.964-27.508-25.964H161.417c-14.584 0-26.666 11.405-27.507 25.964l-6.848 118.486c-1.203 15.349 12.116 29.459 27.508 29.143h35.366a7.516 7.516 0 000-15.03H154.57c-7.005.159-13.066-6.264-12.504-13.247l5.281-91.379h182.614v17.012a7.515 7.515 0 1015.03 0v-17.012h19.663l5.281 91.379c.562 6.983-5.5 13.406-12.504 13.247zM148.215 325.411l.698-12.078c.383-6.618 5.875-11.802 12.503-11.802h189.166c6.629 0 12.121 5.184 12.504 11.802l.698 12.078z" />
  </svg>
