<svg xmlns="http://www.w3.org/2000/svg" id="svg-icon" viewBox="0 0 507.92 507.92" >
  <path
    d="M483.506 13.39c-18-17.853-47.291-17.853-65.291 0L401.04 30.425c-8.681 8.61-13.483 20.043-13.548 32.218-12.453-6.502-27.17-7.07-40.183-1.345l-22.203 9.769c-10.117 4.451-18.116 12.179-22.866 21.971-8.665-11.105-21.855-17.648-36.233-17.719l-24.289-.119c-14.095-.042-27.537 6.372-36.311 17.26-4.781-9.521-12.671-17.029-22.594-21.395l-22.203-9.769c-12.907-5.678-27.907-5.113-40.368 1.442a7.542 7.542 0 00.149-1.806c-.493-11.521-5.291-22.355-13.512-30.509L89.705 13.39c-18-17.853-47.291-17.853-65.291 0-8.74 8.669-13.553 20.198-13.553 32.466 0 12.267 4.813 23.797 13.553 32.465l17.175 17.035c8.869 8.796 20.743 13.392 32.728 13.391 7.024 0 14.08-1.598 20.594-4.836l.8.53c.46 17.689 11.072 33.54 27.476 40.757l22.202 9.769a46.495 46.495 0 0018.737 3.947 46.322 46.322 0 0031.569-12.408 7.46 7.46 0 002.229-3.96l3.274.351c.182.751.48 1.486.908 2.179 5.849 9.453 14.688 16.279 24.922 19.604l-8.511 30.067c-.065.233-.12.47-.164.709-.14.774-.222 1.553-.249 2.331-4.931 1.979-9.544 4.415-13.776 7.313-7.366 5.053-13.308 11.547-17.658 19.301-4.429 7.888-6.674 17.356-6.674 28.141v5.581c0 4.142 3.357 7.5 7.5 7.5s7.5-3.358 7.5-7.5v-5.581c0-8.182 1.6-15.179 4.755-20.799 3.261-5.812 7.533-10.481 13.058-14.27 5.654-3.873 12.225-6.75 19.522-8.55 7.603-1.87 15.593-2.818 23.749-2.818 8.091 0 16.015 1.051 23.546 3.123 7.379 2.036 14.016 5.05 19.72 8.957 5.521 3.787 9.794 8.457 13.061 14.271 3.156 5.629 4.757 12.387 4.757 20.086v12.114c0 7.699-6.265 13.963-13.964 13.963h-5.326c-4.103 0-7.387-1.138-10.043-3.484-2.443-2.154-3.533-4.716-3.533-8.306v-11.073c0-7.708-3.685-13.956-10.659-18.071-5.796-3.415-11.824-5.146-17.916-5.146-6.523 0-12.578 1.885-17.992 5.601-7.86 5.389-9.511 11.583-9.511 15.831v27.862c0 7.011 3.152 13.304 9.367 18.699 4.877 4.238 11.054 8.493 18.355 12.645 6.946 3.954 14.512 8.13 22.485 12.413 7.536 4.05 14.676 8.733 21.213 13.913 6.229 4.946 11.445 10.646 15.501 16.938 3.765 5.851 5.595 12.644 5.595 20.768v11.079c0 4.142 3.357 7.5 7.5 7.5s7.5-3.358 7.5-7.5v-11.079c0-10.937-2.685-20.654-7.983-28.889-4.949-7.678-11.27-14.596-18.792-20.568-7.234-5.732-15.118-10.904-23.434-15.374a1043.253 1043.253 0 01-22.168-12.236c-6.443-3.664-11.804-7.341-15.936-10.932-3.769-3.271-4.204-5.775-4.204-7.375v-27.862c0-1.271 2.092-2.842 2.995-3.461 2.912-1.999 6.022-2.971 9.508-2.971 3.426 0 6.796 1.004 10.298 3.067 2.72 1.605 3.277 3.22 3.277 5.15v11.073c0 7.827 2.979 14.589 8.609 19.554 5.438 4.801 12.155 7.236 19.967 7.236h5.326c15.971 0 28.964-12.993 28.964-28.963v-12.114c0-10.299-2.245-19.526-6.676-27.428-4.359-7.76-10.301-14.254-17.661-19.303-5.631-3.856-11.945-6.982-18.811-9.354-.04-.337-.079-.673-.14-1.009a7.694 7.694 0 00-.162-.703l-8.485-29.977c11.057-3.607 20.504-11.282 26.223-21.809l2.448-.262a7.484 7.484 0 001.2 1.699c8.919 9.452 21.221 14.497 33.739 14.497a46.364 46.364 0 0018.69-3.928l22.202-9.769c15.882-6.988 26.387-22.033 27.415-39.266a7.396 7.396 0 00-.034-1.212l1.082-.717c6.553 3.227 13.567 4.819 20.53 4.819 11.932 0 23.689-4.625 32.604-13.467l17.175-17.035c8.74-8.668 13.553-20.198 13.553-32.465.004-12.266-4.809-23.796-13.549-32.465zm-47.694 57.838a23.545 23.545 0 00-3.534-8.334 23.593 23.593 0 00-5.235-5.553c.148-.171.28-.354.442-.515l17.175-17.034c3.42-3.392 8.982-3.391 12.402-.001 1.631 1.618 2.529 3.772 2.529 6.064s-.898 4.445-2.529 6.063l-17.176 17.035a8.706 8.706 0 01-4.074 2.275zm-23.292-3.821c2.836 0 5.627 1.361 7.321 3.874 1.285 1.906 1.747 4.193 1.3 6.441s-1.748 4.184-3.664 5.453l-20.166 13.36c-4.015 2.661-9.472 1.574-12.163-2.417-1.285-1.906-1.747-4.193-1.3-6.441s1.748-4.185 3.663-5.454h.001l20.165-13.36a8.746 8.746 0 014.843-1.456zm-88.114 56.008a8.486 8.486 0 01-5.764 3.155l-24.052 2.576c-4.791.512-9.134-2.961-9.686-7.746-.263-2.283.38-4.526 1.812-6.315s3.479-2.91 5.764-3.155l24.052-2.576c4.772-.512 9.133 2.962 9.686 7.746a8.48 8.48 0 01-1.812 6.315zm-58.78 28.668l-24.29-.119c-8.078-.039-15.608-3.099-21.284-8.433a23.827 23.827 0 007.608-3.299c.157.126.315.25.484.365a23.697 23.697 0 0013.229 4.09l24.289.119h.121c5.273 0 10.276-1.704 14.395-4.849a23.85 23.85 0 007.326 3.409 31.065 31.065 0 01-21.878 8.717zM75.971 62.894a23.529 23.529 0 00-3.547 8.387c-1.641-.342-3.178-1.126-4.39-2.328L50.858 51.92c-1.631-1.618-2.529-3.772-2.529-6.064s.898-4.445 2.529-6.063c3.419-3.391 8.981-3.391 12.402 0l17.175 17.035c.21.208.407.425.592.65a23.568 23.568 0 00-5.056 5.416zm14.8 20.282a8.483 8.483 0 01-3.664-5.454 8.485 8.485 0 011.301-6.44c1.694-2.513 4.484-3.874 7.32-3.874 1.67 0 3.354.471 4.842 1.457l20.167 13.36a8.483 8.483 0 013.664 5.454 8.489 8.489 0 01-1.3 6.44h-.001c-2.692 3.993-8.149 5.076-12.163 2.417zm44.765 19.329a23.586 23.586 0 003.294-7.298 8.77 8.77 0 016.631.184l22.203 9.768c.842.37 1.602.869 2.274 1.466a23.724 23.724 0 00-2.782 14.437 8.775 8.775 0 01-6.62-.188l-22.203-9.768a8.633 8.633 0 01-4.924-5.907 23.492 23.492 0 002.127-2.694zm54.069 24.065c-2.285-.245-4.331-1.365-5.763-3.155s-2.074-4.033-1.812-6.316c.516-4.469 4.342-7.795 8.747-7.795.31 0 .623.016.938.05l24.053 2.576c2.285.245 4.332 1.365 5.764 3.155s2.074 4.033 1.812 6.315c-.554 4.783-4.898 8.26-9.686 7.746zm80.4-3.45a23.6 23.6 0 001.111 4.877 8.725 8.725 0 01-5.335 1.81h-.044l-24.29-.119a8.745 8.745 0 01-4.47-1.267 23.551 23.551 0 001.266-5.301 23.5 23.5 0 00-.879-9.63 8.664 8.664 0 014.17-1.013l24.288.118a8.751 8.751 0 014.88 1.502 23.557 23.557 0 00-.697 9.023zm71.113-7.74a23.603 23.603 0 00-2.913-8.947c.616-.51 1.3-.945 2.049-1.274l22.203-9.769a8.834 8.834 0 017.002-.032 23.592 23.592 0 003.251 7.146 23.777 23.777 0 001.866 2.416 8.631 8.631 0 01-4.991 6.185l-22.203 9.769c-1.995.877-4.249.959-6.302.292.247-1.895.263-3.835.038-5.786zm-9.97-30.584l22.203-9.769a31.38 31.38 0 0121.398-1.426 23.198 23.198 0 00-4.169 6.49 23.786 23.786 0 00-14.163 1.57l-22.203 9.768a23.65 23.65 0 00-7.188 4.901 23.62 23.62 0 00-8.075-1.974c3.144-4.117 7.301-7.406 12.197-9.56zM241.644 90.2l24.289.119c7.673.037 14.841 2.798 20.401 7.638-2.608.812-5.023 2.09-7.187 3.741a23.637 23.637 0 00-13.252-4.102l-24.289-.118h-.119a23.628 23.628 0 00-12.926 3.812 23.247 23.247 0 00-7.497-3.552c5.614-4.843 12.771-7.536 20.42-7.536.053-.002.107-.002.16-.002zm-87.075-15.172l22.203 9.769c4.906 2.158 9.069 5.455 12.214 9.582a23.642 23.642 0 00-7.995 2.054 23.643 23.643 0 00-7.286-5.003l-22.203-9.768c-4.424-1.947-9.217-2.495-13.867-1.637a23.202 23.202 0 00-4.217-6.511c6.94-1.963 14.353-1.478 21.151 1.514zM52.151 84.706L34.977 67.672c-5.878-5.831-9.115-13.578-9.115-21.816s3.237-15.985 9.115-21.816c12.177-12.076 31.989-12.077 44.166 0l17.175 17.035a30.76 30.76 0 017.772 12.858 23.683 23.683 0 00-8.601-1.508 23.44 23.44 0 00-4.49-6.248L73.823 29.142c-9.244-9.167-24.285-9.167-33.527 0-4.493 4.456-6.967 10.392-6.967 16.713 0 6.322 2.474 12.257 6.967 16.714l17.175 17.035c4.488 4.452 10.588 6.878 16.813 6.878.037 0 .074-.003.11-.003a23.225 23.225 0 005.114 6.835c-9.777 1.639-20.068-1.38-27.357-8.608zm99.279 56.532l-22.202-9.769c-8.276-3.641-14.348-10.537-17.02-18.758 1.175.176 2.356.268 3.535.268 1.466 0 2.927-.137 4.364-.402a23.632 23.632 0 0012.186 12.259l22.203 9.768a23.812 23.812 0 009.604 2.033c3.278 0 6.546-.694 9.621-2.056a23.311 23.311 0 006.701 4.751 31.403 31.403 0 01-28.992 1.906zm83.143 51.866l7.398-26.136 23.323.114 7.162 25.302a105.733 105.733 0 00-16.375-1.278c-7.312 0-14.519.677-21.508 1.998zm144.119-61.635l-22.202 9.769c-9.489 4.175-20.252 3.32-28.836-1.823a23.293 23.293 0 006.772-4.74 24.01 24.01 0 009.42 1.933 23.79 23.79 0 009.578-2.003l22.203-9.768a23.623 23.623 0 0012.214-12.322c1.534.303 3.096.465 4.664.465 1.065 0 2.133-.077 3.196-.221-2.685 8.241-8.765 15.083-17.009 18.71zm94.251-63.797l-17.175 17.035a31.26 31.26 0 01-27.123 8.692 23.223 23.223 0 005.222-6.948c.164.011.326.024.492.024.104 0 .208-.002.313-.006a23.725 23.725 0 0015.776-6.865l17.175-17.035c4.493-4.456 6.967-10.392 6.967-16.713 0-6.322-2.474-12.257-6.967-16.714-9.243-9.166-24.282-9.168-33.527 0l-17.175 17.034a23.567 23.567 0 00-4.461 6.138c-.018.037-.031.074-.049.111a23.7 23.7 0 00-8.639 1.651c1.454-4.86 4.112-9.315 7.83-13.002l17.175-17.035c12.177-12.076 31.989-12.077 44.166 0 5.878 5.831 9.115 13.578 9.115 21.816s-3.237 15.986-9.115 21.817zM328.236 410.788a7.5 7.5 0 00-7.5 7.5c0 7.674-1.724 14.134-5.271 19.749-3.687 5.836-8.516 10.716-14.355 14.505-6.048 3.929-13.037 6.902-20.773 8.837a100.99 100.99 0 01-7.936 1.637 7.499 7.499 0 00-6.272 7.399v15.977c0 1.802-.719 3.48-2.023 4.725a6.5 6.5 0 01-4.831 1.796c-3.42-.161-6.203-3.264-6.203-6.917V471.35c0-3.86-2.93-7.09-6.771-7.464a103.466 103.466 0 01-14.68-2.514c-7.844-1.934-14.885-4.905-20.931-8.833-5.814-3.772-10.565-8.623-14.123-14.423-3.461-5.632-5.143-12.118-5.143-19.828v-15.281c0-6.15 5.004-11.154 11.154-11.154h9.566c5.458 0 7.559 1.794 8.661 3.142 2.104 2.573 3.127 5.635 3.127 9.361v10.717c0 4.618 2 11.237 11.524 16.551 6.227 3.475 13.166 5.237 20.624 5.237 3.896 0 7.7-.611 11.292-1.811 3.503-1.163 6.719-2.737 9.553-4.679 2.949-2.017 5.361-4.29 7.173-6.76 2.267-3.094 3.415-6.328 3.415-9.61v-27.862c0-9.696-2.915-17.916-8.669-24.436-5.055-5.717-11.466-10.805-19.057-15.125-7.093-4.033-14.82-7.928-22.969-11.578-7.46-3.339-14.498-7.449-20.926-12.219a59.718 59.718 0 01-15.245-16.515c-3.75-6.017-5.651-13.996-5.651-23.716 0-4.142-3.357-7.5-7.5-7.5s-7.5 3.358-7.5 7.5v5.576a7.5 7.5 0 00.378 2.358c.905 9.167 3.432 17.118 7.54 23.71a74.636 74.636 0 0019.045 20.636c7.294 5.414 15.278 10.078 23.73 13.86 7.71 3.454 15.006 7.13 21.681 10.925 6.151 3.501 11.277 7.546 15.232 12.019 3.304 3.745 4.91 8.489 4.91 14.505v27.734c-.04.108-.167.398-.514.871-.804 1.096-1.995 2.188-3.546 3.249-1.681 1.15-3.634 2.1-5.82 2.825a20.627 20.627 0 01-6.553 1.042c-4.938 0-9.292-1.091-13.314-3.336-2.635-1.469-3.834-2.819-3.834-3.452v-10.717c0-7.227-2.192-13.571-6.518-18.859-3.228-3.943-9.363-8.644-20.271-8.644h-9.566c-14.422 0-26.154 11.733-26.154 26.154v15.281c0 10.417 2.477 19.729 7.359 27.676 4.733 7.715 11.039 14.161 18.737 19.156 7.451 4.841 16.033 8.48 25.51 10.816 3.308.816 6.666 1.491 10.041 2.019v8.04c0 11.739 9.004 21.359 20.498 21.901.351.017.7.025 1.049.025 5.56 0 10.796-2.091 14.841-5.951a21.626 21.626 0 006.67-15.578v-9.79a107.08 107.08 0 002.847-.671c9.35-2.337 17.864-5.975 25.303-10.808 7.668-4.975 14.017-11.393 18.869-19.075 5.036-7.972 7.589-17.312 7.589-27.759a7.498 7.498 0 00-7.499-7.5z" />
  <path
    d="M125.215 215.178a7.5 7.5 0 007.5-7.5v-10.532c0-4.142-3.357-7.5-7.5-7.5s-7.5 3.358-7.5 7.5v10.532a7.5 7.5 0 007.5 7.5zM150.3 215.784h-10.532c-4.143 0-7.5 3.358-7.5 7.5s3.357 7.5 7.5 7.5H150.3a7.5 7.5 0 000-15zM124.161 230.337a7.5 7.5 0 00-7.5 7.5v10.532c0 4.142 3.357 7.5 7.5 7.5s7.5-3.358 7.5-7.5v-10.532a7.5 7.5 0 00-7.5-7.5zM109.608 214.731H99.077c-4.143 0-7.5 3.358-7.5 7.5s3.357 7.5 7.5 7.5h10.531c4.143 0 7.5-3.358 7.5-7.5s-3.357-7.5-7.5-7.5zM395.31 411.088a7.5 7.5 0 007.5-7.5v-4.531c0-4.142-3.357-7.5-7.5-7.5s-7.5 3.358-7.5 7.5v4.531a7.5 7.5 0 007.5 7.5zM416.922 412.925h-4.531c-4.143 0-7.5 3.358-7.5 7.5s3.357 7.5 7.5 7.5h4.531c4.143 0 7.5-3.358 7.5-7.5s-3.357-7.5-7.5-7.5zM395.554 430.006a7.5 7.5 0 00-7.5 7.5v4.531c0 4.142 3.357 7.5 7.5 7.5s7.5-3.358 7.5-7.5v-4.531a7.5 7.5 0 00-7.5-7.5zM378.473 413.169h-4.531c-4.143 0-7.5 3.358-7.5 7.5s3.357 7.5 7.5 7.5h4.531a7.5 7.5 0 000-15z" />
  </svg>
