<?xml version="1.0" encoding="iso-8859-1"?>
<svg version="1.1" xmlns="http://www.w3.org/2000/svg" viewBox="0 0 512 512">
<g>
	<rect x="247.172" y="326.621" style="fill:#BDC3C7;" width="17.655" height="150.069"/>
	<g>
		<path style="fill:#7F8C8D;" d="M203.034,278.069l-8.828,13.241l30.069,45.104c3.274,4.912,8.787,7.862,14.69,7.862h34.068
			c5.903,0,11.416-2.95,14.69-7.862l30.069-45.104l-8.828-13.241H203.034z"/>
		<path style="fill:#7F8C8D;" d="M264.828,512h-17.655c-4.875,0-8.828-3.952-8.828-8.828v-32.638c0-1.743,0.516-3.447,1.483-4.897
			L256,441.379l16.173,24.259c0.967,1.45,1.483,3.154,1.483,4.897v32.638C273.655,508.048,269.703,512,264.828,512z"/>
		<path style="fill:#7F8C8D;" d="M308.966,70.621l52.966-17.655h79.448c9.739-0.029,17.627-7.916,17.655-17.655
			c-0.07-9.722-7.934-17.585-17.655-17.655h-79.448L308.966,35.31H203.034l-52.966-17.655H70.621
			c-9.722,0.07-17.585,7.934-17.655,17.655c0.029,9.739,7.916,17.627,17.655,17.655h79.448l52.966,17.655H308.966z"/>
		<rect x="229.517" y="88.276" style="fill:#7F8C8D;" width="52.966" height="70.621"/>
	</g>
	<path style="fill:#F18D46;" d="M203.034,141.241h105.931c9.751,0,17.655,7.904,17.655,17.655V291.31H185.379V158.897
		C185.379,149.146,193.284,141.241,203.034,141.241z"/>
	<g>
		<path style="fill:#FAC176;" d="M220.69,264.828c-4.875,0-8.828-3.952-8.828-8.828v-79.448c0-4.875,3.952-8.828,8.828-8.828
			s8.828,3.952,8.828,8.828V256C229.517,260.875,225.565,264.828,220.69,264.828z"/>
		<path style="fill:#FAC176;" d="M256,264.828c-4.875,0-8.828-3.952-8.828-8.828v-79.448c0-4.875,3.952-8.828,8.828-8.828
			s8.828,3.952,8.828,8.828V256C264.828,260.875,260.875,264.828,256,264.828z"/>
		<path style="fill:#FAC176;" d="M291.31,264.828c-4.875,0-8.828-3.952-8.828-8.828v-79.448c0-4.875,3.952-8.828,8.828-8.828
			s8.828,3.952,8.828,8.828V256C300.138,260.875,296.186,264.828,291.31,264.828z"/>
	</g>
	<path style="fill:#F18D46;" d="M220.69,17.655h70.621c9.751,0,17.655,7.904,17.655,17.655v52.966
		c0,9.751-7.904,17.655-17.655,17.655H220.69c-9.751,0-17.655-7.904-17.655-17.655V35.31
		C203.034,25.56,210.939,17.655,220.69,17.655z"/>
	<g>
		<path style="fill:#464F5D;" d="M150.069,70.621c-4.371,0.431-8.288-2.703-8.828-7.062V7.062C142.17,2.933,145.837,0,150.069,0
			s7.899,2.933,8.828,7.062v56.497C158.357,67.918,154.44,71.051,150.069,70.621L150.069,70.621z"/>
		<path style="fill:#464F5D;" d="M361.931,70.621c-4.371,0.431-8.288-2.703-8.828-7.062V7.062C354.032,2.933,357.699,0,361.931,0
			c4.232,0,7.899,2.933,8.828,7.062v56.497C370.219,67.918,366.302,71.051,361.931,70.621L361.931,70.621z"/>
	</g>
	<path style="fill:#FAC176;" d="M273.655,70.621h-35.31c-4.875,0-8.828-3.952-8.828-8.828s3.952-8.828,8.828-8.828h35.31
		c4.875,0,8.828,3.952,8.828,8.828S278.531,70.621,273.655,70.621z"/>
</g>
</svg>
