<svg xmlns="http://www.w3.org/2000/svg" id="svg-icon" viewBox="0 0 512 512"><path d="M399.001 114.646a10.818 10.818 0 00-7.898-3.425H200.977a10.82 10.82 0 00-10.795 11.532l4.272 64.61a10.819 10.819 0 0010.795 10.104h181.582a10.817 10.817 0 0010.795-10.104l4.272-64.61a10.831 10.831 0 00-2.897-8.107z" fill="#e7f3eb"/><path d="M209.6 187.363l-4.272-64.61a10.82 10.82 0 0110.795-11.532h-15.145a10.82 10.82 0 00-10.795 11.532l4.272 64.61a10.819 10.819 0 0010.795 10.104h15.145a10.818 10.818 0 01-10.795-10.104z" opacity=".19" fill="#202121"/><path d="M342.122 200.77c-.23 0-.461-.011-.693-.029-4.465-.376-7.777-4.302-7.402-8.767l12.529-148.413a8.107 8.107 0 014.571-6.63L426.308.804c4.039-1.944 8.887-.241 10.829 3.799a8.116 8.116 0 01-3.799 10.827l-71.001 34.117-12.139 143.793c-.357 4.231-3.906 7.43-8.076 7.43z" fill="#485d6d"/><path d="M367.354 464.029H266.261a10.82 10.82 0 00-12.715 4.393c-5.555 8.716-11.8 16.358-18.562 22.716a10.821 10.821 0 00-2.647 11.866 10.82 10.82 0 0010.057 6.833H366.28c5.79 0 10.552-4.555 10.807-10.337l1.075-24.172a10.818 10.818 0 00-10.808-11.299z" fill="#e7f3eb"/><path d="M393.82 190.336c-2.046-2.134-4.906-3.345-7.898-3.345H206.157c-2.992 0-5.85 1.211-7.898 3.345a10.414 10.414 0 00-2.895 7.917l.339 5.016-.363-.122 6.909 96.794.877 12.948c.283 4.179 3.068 7.803 7.101 9.233l1.357.481c37.291 13.216 62.345 48.087 62.345 86.766 0 17.603-29.998 34.728-39.68 49.521l-2.174 3.321a10.352 10.352 0 00-.374 10.765c1.9 3.385 5.536 5.489 9.488 5.489h126.429c5.699 0 10.419-4.316 10.794-9.867l18.304-270.346a10.42 10.42 0 00-2.896-7.916z" fill="#f8981d"/><path d="M297.43 407.079c0-30.029-11.297-58.685-31.814-80.689a119.014 119.014 0 00-30.679-23.684 53.161 53.161 0 0012.92-11.15c9.975-11.893 14.252-27.535 11.738-42.911l-.3-1.836a24.247 24.247 0 00-24.019-20.412c-.11 0-.22 0-.328.002l-1.813.022a53.243 53.243 0 00-20.127 4.205l-3.114-43.633h-3.735c-2.992 0-5.85 1.211-7.898 3.345a10.414 10.414 0 00-2.895 7.917l.339 5.016-.363-.122 2.922 40.929 3.988 55.865.877 12.948c.283 4.179 3.068 7.803 7.101 9.233l1.357.481c37.291 13.216 62.345 48.087 62.345 86.766 0 17.603-29.998 34.728-39.68 49.521l-2.174 3.321a10.352 10.352 0 00-.374 10.765c1.9 3.385 5.536 5.489 9.488 5.489H273.438c.111-.148.215-.302.326-.45a130.07 130.07 0 001.794-2.465c.255-.361.519-.714.771-1.077.829-1.193 1.64-2.401 2.425-3.626.116-.182.224-.368.34-.552a121.715 121.715 0 001.946-3.172c.262-.446.514-.896.771-1.346.334-.583.678-1.16 1.002-1.749h-.023a117.678 117.678 0 0014.64-56.951z" opacity=".19" fill="#202121"/><path d="M178.764 310.271a8.116 8.116 0 01-8.056-7.243c-3.877-35.877-29.769-44.679-30.029-44.764a8.115 8.115 0 01-5.214-10.222c1.384-4.261 5.961-6.599 10.222-5.212 1.475.477 36.16 12.246 41.155 58.455a8.115 8.115 0 01-8.078 8.986z" fill="#304451"/><path d="M246.25 250.826l-.3-1.834a10.818 10.818 0 00-10.674-9.073h-.124l-1.862.022c-11.631.133-22.583 5.309-30.039 14.203-7.444 8.87-10.636 20.55-8.758 32.044l.3 1.834a10.82 10.82 0 0010.676 9.073h.124l1.86-.022a39.746 39.746 0 0030.043-14.205c7.442-8.874 10.632-20.554 8.754-32.042z" fill="#75c04d"/><path d="M203.447 294.164l-.3-1.834c-1.878-11.494 1.314-23.174 8.758-32.044a39.746 39.746 0 0130.039-14.203l1.862-.022h.124c.381 0 .754.025 1.126.064a10.814 10.814 0 00-9.781-6.205h-.124l-1.862.022c-11.632.133-22.583 5.309-30.039 14.203-7.444 8.87-10.636 20.55-8.758 32.044l.3 1.834a10.82 10.82 0 009.548 9.009 10.888 10.888 0 01-.893-2.868z" opacity=".19" fill="#202121"/><path d="M178.895 302.154l-.036.002c-57.785.069-104.797 47.136-104.797 104.921 0 57.855 47.069 104.921 104.924 104.921 57.854 0 104.921-47.067 104.921-104.921 0-57.85-47.063-104.919-105.012-104.923z" fill="#f8981d"/><path d="M102.109 407.079c0-53.063 39.643-97.083 90.867-103.977a105.694 105.694 0 00-14.081-.947l-.036.002c-57.785.069-104.797 47.136-104.797 104.921C74.062 464.933 121.131 512 178.986 512c4.755 0 9.434-.323 14.023-.94-51.25-6.874-90.9-50.88-90.9-103.981z" opacity=".19" fill="#202121"/></svg>
