<?xml version="1.0" encoding="iso-8859-1"?>
<svg xmlns="http://www.w3.org/2000/svg" version="1.1" id="Layer_1" viewBox="0 0 512.019 512.019">
<g id="XMLID_1575_">
	<g id="XMLID_1576_">
		<path id="XMLID_1577_" style="fill:#DAD0CD;" d="M499.919,312.039l-165.69,114.65c-2.4,1.66-5.37,2.26-8.23,1.66l-310.02-64.65    c-9.15-1.91-11.56-13.84-3.88-19.16l46.27-32.02l119.42-82.63c2.4-1.66,5.37-2.26,8.23-1.67l270.22,56.36l39.8,8.3    C505.189,294.789,507.599,306.719,499.919,312.039z"/>
		<path id="XMLID_1578_" style="fill:#C1BAB8;" d="M456.239,284.579l-115.19,79.7c-3.8,2.64-8.26,4.03-12.88,4.03    c-1.55,0-3.1-0.16-4.62-0.48l-265.18-55.31l119.42-82.63c2.4-1.66,5.37-2.26,8.23-1.67L456.239,284.579z"/>
		<path id="XMLID_1579_" style="fill:#F4BC8E;" d="M496.039,220.6c9.148,1.908,11.564,13.839,3.88,19.157l-165.7,114.658    c-2.397,1.659-5.369,2.262-8.223,1.667L15.979,291.423c-9.148-1.908-11.564-13.839-3.88-19.157l165.701-114.65    c2.396-1.657,5.368-2.259,8.22-1.665L496.039,220.6z"/>
		<path id="XMLID_1580_" style="fill:#EFA66F;" d="M456.239,212.299l-22.73,15.73c-1.7,1.17-3.65,1.93-5.7,2.2l-253.25,33.5    c-1.45,0.19-2.92,0.13-4.35-0.16l-111.83-23.32l119.42-82.63c2.4-1.66,5.37-2.26,8.22-1.67L456.239,212.299z"/>
		<g id="XMLID_1581_">
			<polygon id="XMLID_1582_" style="fill:#EFA66F;" points="84.989,221.839 84.989,305.819 45.629,297.609 45.629,249.069      58.379,240.249    "/>
			<polygon id="XMLID_1583_" style="fill:#E88F52;" points="58.379,240.249 84.989,221.839 84.989,245.799    "/>
			<polygon id="XMLID_1584_" style="fill:#EFA66F;" points="161.269,169.049 161.269,321.729 121.909,313.519 121.909,196.279         "/>
			<polygon id="XMLID_1585_" style="fill:#E88F52;" points="121.909,196.29 161.269,169.059 161.269,261.709 121.909,253.499    "/>
			<polygon id="XMLID_1586_" style="fill:#EFA66F;" points="237.549,166.699 237.549,337.639 198.189,329.429 198.189,158.489         "/>
			<polygon id="XMLID_1587_" style="fill:#E88F52;" points="198.189,158.489 237.549,166.699 237.549,255.399 198.189,260.599         "/>
			<polygon id="XMLID_1588_" style="fill:#EFA66F;" points="313.829,182.609 313.829,353.549 274.469,345.339 274.469,174.399         "/>
			<polygon id="XMLID_1589_" style="fill:#E88F52;" points="274.469,174.399 313.829,182.609 313.829,245.309 274.469,250.509         "/>
			<polygon id="XMLID_1590_" style="fill:#EFA66F;" points="390.109,198.509 390.109,315.739 350.749,342.979 350.749,190.309         "/>
			<polygon id="XMLID_1591_" style="fill:#E88F52;" points="350.749,190.309 390.109,198.509 390.109,235.219 350.749,240.419         "/>
			<polygon id="XMLID_1592_" style="fill:#EFA66F;" points="466.389,214.419 466.389,262.959 427.029,290.189 427.029,206.209      456.239,212.299    "/>
			<path id="XMLID_1593_" style="fill:#E88F52;" d="M456.239,212.299l-22.73,15.73c-1.7,1.17-3.65,1.93-5.7,2.2l-0.78,0.1v-24.12     L456.239,212.299z"/>
		</g>
		<path id="XMLID_1594_" style="fill:#82807F;" d="M499.919,167.479l-62.6,43.32l-10.84,7.5l-253.66,33.55l-18.35-3.83    l-138.49-28.87c-9.15-1.91-11.56-13.84-3.88-19.16l165.7-114.66c2.4-1.66,5.37-2.26,8.22-1.66l310.02,64.65    C505.189,150.229,507.599,162.16,499.919,167.479z"/>
		<path id="XMLID_1595_" style="fill:#6D6D6D;" d="M437.319,210.799l-10.84,7.5l-253.66,33.55l-18.35-3.83l164.59-94.4    c3.43-1.98,7.35-3.03,11.31-3.03c4.09,0,8.11,1.11,11.62,3.21L437.319,210.799z"/>
		<path id="XMLID_1596_" style="fill:#DAD0CD;" d="M426.48,218.299l-90.652-54.205c-3.31-1.979-7.433-2.011-10.773-0.084    l-152.234,87.842L426.48,218.299z"/>
	</g>
	<g id="XMLID_1597_">
		<path id="XMLID_1598_" d="M403.292,369.776l-73.335,50.745c-0.704,0.487-1.586,0.664-2.424,0.491l-66.716-13.914    c-4.051-0.846-8.027,1.756-8.873,5.811c-0.846,4.055,1.756,8.028,5.811,8.874l66.716,13.913c1.216,0.254,2.448,0.378,3.677,0.378    c3.666,0,7.298-1.11,10.345-3.218l73.335-50.745c3.406-2.357,4.257-7.029,1.9-10.435S406.698,367.418,403.292,369.776z"/>
		<path id="XMLID_1599_" d="M511.64,227.411c-1.463-7.225-6.855-12.647-14.072-14.153l-29.608-6.175    c-0.035-0.007-0.069-0.015-0.104-0.022l-9.189-1.916l45.519-31.498c6.062-4.194,8.918-11.288,7.455-18.513    c-1.464-7.225-6.855-12.648-14.072-14.153L293.705,98.463c-4.054-0.846-8.027,1.755-8.874,5.811    c-0.845,4.055,1.756,8.027,5.811,8.873l203.865,42.519c1.76,0.367,2.279,1.691,2.433,2.447c0.153,0.756,0.189,2.178-1.289,3.2    l-69.468,48.071l-86.508-51.726c-5.64-3.371-12.679-3.426-18.37-0.142l-149.755,86.412L17.512,211.803    c-1.76-0.367-2.28-1.69-2.433-2.447c-0.153-0.756-0.189-2.177,1.289-3.2L182.066,91.498c0.704-0.487,1.587-0.664,2.424-0.491    l69.174,14.427c4.055,0.85,8.028-1.755,8.873-5.811c0.846-4.055-1.755-8.027-5.811-8.873l-69.174-14.427    c-4.843-1.01-9.954,0.024-14.022,2.84L7.832,193.821c-6.062,4.195-8.918,11.289-7.454,18.514    c1.463,7.225,6.855,12.648,14.072,14.153l38.903,8.113L7.833,266.099c-6.062,4.195-8.918,11.289-7.455,18.513    c1.463,7.225,6.855,12.648,14.072,14.153l38.903,8.113l-45.52,31.498c-6.062,4.195-8.918,11.289-7.455,18.514    c1.463,7.225,6.855,12.647,14.072,14.152l205.551,42.867c0.517,0.108,1.031,0.16,1.539,0.16c3.477,0,6.596-2.432,7.334-5.97    c0.846-4.055-1.756-8.028-5.811-8.873L17.512,356.358c-1.76-0.367-2.28-1.69-2.433-2.446c-0.153-0.756-0.189-2.178,1.289-3.201    l57.241-39.608l250.861,52.316c1.216,0.254,2.448,0.378,3.677,0.378c3.666,0,7.298-1.11,10.345-3.218l103.158-71.382    l52.856,11.022c1.76,0.367,2.28,1.691,2.433,2.447c0.153,0.756,0.189,2.177-1.289,3.2l-62.287,43.1    c-3.406,2.357-4.257,7.029-1.9,10.435c1.456,2.104,3.795,3.233,6.174,3.233c1.472,0,2.959-0.432,4.261-1.333l62.287-43.1    c6.062-4.194,8.918-11.288,7.455-18.512c-1.463-7.225-6.855-12.648-14.072-14.154l-38.902-8.113l45.519-31.498    C510.247,241.73,513.104,234.636,511.64,227.411z M458.893,220.516v38.509l-24.36,16.857v-54.034l7.12-4.927L458.893,220.516z     M382.608,231.668v80.144l-24.361,16.857V234.89L382.608,231.668z M397.608,229.683l21.925-2.9v59.477l-21.925,15.172V229.683z     M328.803,170.507c0.984-0.568,2.201-0.558,3.176,0.024l72.174,43.156l-194.851,25.775L328.803,170.507z M129.41,250.462    l24.361,5.08v56.955l-24.361-5.08V250.462z M114.41,304.289l-21.925-4.572v-56.955l21.925,4.572V304.289z M168.771,258.67    l2.519,0.525c0.836,0.173,1.674,0.204,2.515,0.093l16.881-2.233v63.141l-21.915-4.57V258.67z M205.686,255.071l24.361-3.222    v76.556l-24.361-5.08V255.071z M245.047,249.864l21.925-2.9v89.141l-21.925-4.572V249.864z M281.971,244.98l24.361-3.222v102.556    l-24.361-5.08V244.98z M77.485,239.633v56.955l-24.36-5.08v-38.509l20.484-14.174L77.485,239.633z M15.079,281.634    c-0.153-0.756-0.189-2.178,1.289-3.201l21.757-15.055v25.001l-20.613-4.299C15.752,283.714,15.232,282.39,15.079,281.634z     M329.957,348.244c-0.704,0.486-1.588,0.663-2.424,0.491l-6.2-1.293V239.773l21.915-2.899v102.173L329.957,348.244z     M495.65,233.59l-21.757,15.055v-25.001l20.613,4.299c1.76,0.367,2.28,1.691,2.433,2.447    C497.092,231.146,497.129,232.567,495.65,233.59z"/>
	</g>
</g>
</svg>
