<svg viewBox="0 -81 512 512" xmlns="http://www.w3.org/2000/svg"><path d="m78.835938 116.550781c-8.351563 0-15.121094-6.769531-15.121094-15.121093v-53.039063c0-26.683594 21.710937-48.390625 48.390625-48.390625h77.28125c26.683593 0 48.390625 21.707031 48.390625 48.390625v37.878906c0 8.351563-6.769532 15.121094-15.121094 15.121094s-15.121094-6.769531-15.121094-15.121094v-37.878906c0-10.003906-8.144531-18.144531-18.148437-18.144531h-77.28125c-10.003907 0-18.144531 8.140625-18.144531 18.144531v53.039063c0 8.351562-6.773438 15.121093-15.125 15.121093zm0 0" fill="#1e4a70"/><path d="m189.386719 0h-49.832031v30.246094h49.832031c10.003906 0 18.148437 8.140625 18.148437 18.144531v37.878906c0 8.351563 6.769532 15.121094 15.121094 15.121094s15.121094-6.769531 15.121094-15.121094v-37.878906c0-26.683594-21.707032-48.390625-48.390625-48.390625zm0 0" fill="#021d3d"/><path d="m139.554688 350.257812c-76.949219 0-139.554688-62.601562-139.554688-139.554687s62.605469-139.554687 139.554688-139.554687h169.804687c8.351563 0 15.121094 6.769531 15.121094 15.121093v97.851563c0 8.351562-6.769531 15.125-15.121094 15.125h-30.714844c.3125 3.808594.46875 7.636718.46875 11.457031 0 76.953125-62.605469 139.554687-139.558593 139.554687zm0 0" fill="#ff683b"/><path d="m279.113281 210.703125c0-3.820313-.15625-7.648437-.46875-11.457031h30.714844c8.351563 0 15.121094-6.773438 15.121094-15.125v-97.851563c0-8.351562-6.769531-15.121093-15.121094-15.121093h-169.804687v279.109374c76.953124 0 139.558593-62.601562 139.558593-139.554687zm0 0" fill="#f92814"/><path d="m139.554688 275.222656c-35.574219 0-64.519532-28.941406-64.519532-64.519531 0-35.574219 28.945313-64.519531 64.519532-64.519531 35.578124 0 64.523437 28.945312 64.523437 64.519531-.003906 35.578125-28.945313 64.519531-64.523437 64.519531zm0 0" fill="#fff566"/><path d="m204.074219 210.703125c0-35.574219-28.941407-64.519531-64.519531-64.519531v129.039062c35.578124 0 64.519531-28.941406 64.519531-64.519531zm0 0" fill="#ffbe26"/><path d="m462.953125 199.246094h-168.71875v-128.097656h202.300781c3.707032 0 7.363282 1.203124 10.175782 3.625 4.820312 4.152343 6.453124 10.683593 4.453124 16.449218l-33.921874 97.851563c-2.109376 6.089843-7.84375 10.171875-14.289063 10.171875zm0 0" fill="#ebebf5"/></svg>