<svg height="512pt" viewBox="-26 0 511 512" width="512pt" xmlns="http://www.w3.org/2000/svg" id="svg-icon"><path d="M182.195 10h96.614c4.718 60.688 69.21 98.695 128.128 80.887l43.563 72.918c-64.258 76.148-66.86 180.16 0 254.234l-48.477 82.945C337.75 454.531 267.418 472.563 230.5 502c-36.914-29.438-107.246-47.469-171.523-1.016L10.5 418.04c66.863-74.074 64.258-178.086 0-254.234l43.566-72.918c58.914 17.808 123.407-20.2 128.13-80.887zm0 0" fill="#c58965" fill-rule="evenodd"/><path d="M273.512 468.96c-15.688 4.653-30.407 11.7-43.012 20.556-21.082-14.793-47.875-24.336-74.715-26.45-32.719-2.578-64.847 5.582-93.558 23.66l-39.465-67.53c31.058-36.805 47.25-80.758 46.91-127.567-.332-45.383-16.965-90.82-46.988-128.719l36.105-60.433c13.715 3.136 27.777 3.664 41.906 1.562 5.461-.812 9.235-5.898 8.422-11.36-.812-5.46-5.902-9.238-11.363-8.421-13.813 2.055-27.54 1.062-40.793-2.945a10.006 10.006 0 00-11.48 4.445L1.917 158.676a9.996 9.996 0 00.941 11.578c61.97 73.437 62.059 172.574.22 241.082a9.994 9.994 0 00-1.212 11.746l48.477 82.945a9.988 9.988 0 006.566 4.739 10.009 10.009 0 007.926-1.68c57.129-41.29 122.691-28.563 159.43.73A9.974 9.974 0 00230.5 512c2.207 0 4.41-.727 6.234-2.184 11.875-9.464 26.559-16.964 42.461-21.68 5.293-1.57 8.317-7.136 6.746-12.429-1.57-5.297-7.14-8.312-12.43-6.746zm0 0M458.145 170.254a10.002 10.002 0 00.94-11.578L415.52 85.758a10.004 10.004 0 00-11.477-4.445c-26.867 8.12-56.691 3.542-79.781-12.247-20.996-14.355-33.598-35.609-35.485-59.84A10 10 0 00278.81 0h-96.614c-5.222 0-9.566 4.02-9.972 9.227-1.055 13.593-5.461 26.207-13.09 37.488-3.09 4.574-1.89 10.793 2.683 13.887 4.579 3.093 10.793 1.894 13.887-2.684 7.844-11.602 12.977-24.32 15.313-37.918H270c4.605 26.277 19.918 49.813 42.969 65.574 25.875 17.696 58.703 23.801 89.234 16.895l36.113 60.441c-30.023 37.899-46.656 83.336-46.988 128.719-.34 46.809 15.852 90.762 46.91 127.566l-39.465 67.528c-12.609-7.95-25.886-14.004-39.593-18.047-5.297-1.559-10.86 1.469-12.418 6.765-1.563 5.297 1.465 10.86 6.761 12.418 14.872 4.387 29.22 11.528 42.645 21.23a9.993 9.993 0 007.922 1.68 10 10 0 006.566-4.738l48.477-82.945a9.999 9.999 0 00-1.211-11.746c-61.836-68.512-61.746-167.649.223-241.086zm0 0"/><path d="M109.61 287.777c-.16-6.922-.633-13.93-1.407-20.832-.613-5.488-5.57-9.441-11.05-8.824-5.489.613-9.438 5.563-8.825 11.05.707 6.321 1.14 12.735 1.285 19.067.125 5.442 4.578 9.77 9.996 9.77.079 0 .157 0 .235-.004 5.52-.125 9.894-4.703 9.765-10.227zm0 0M137.477 125.227a10.003 10.003 0 009.02 5.671 9.94 9.94 0 004.323-.988 152.912 152.912 0 0018.582-10.582c4.594-3.066 5.836-9.273 2.77-13.867-3.063-4.598-9.27-5.836-13.867-2.773a132.405 132.405 0 01-16.145 9.195c-4.976 2.39-7.074 8.363-4.683 13.344zm0 0M189.89 438.23c-1.667 5.266 1.247 10.887 6.512 12.555a175.172 175.172 0 0117.692 6.676 10 10 0 0013.184-5.117c2.23-5.055-.063-10.957-5.118-13.184a195.847 195.847 0 00-19.715-7.441c-5.265-1.668-10.886 1.25-12.554 6.511zm0 0M79.86 145.191c3.054.075 6.113.059 9.144-.046 5.52-.196 9.836-4.825 9.644-10.344-.195-5.52-4.812-9.813-10.343-9.645-4.407.156-8.903.09-13.313-.199-3.742-.262-7.308 1.629-9.234 4.852l-2.914 4.879c-2.832 4.742-1.285 10.882 3.457 13.714a9.978 9.978 0 005.12 1.414 9.986 9.986 0 008.438-4.625zm0 0M120.371 444.152a9.58 9.58 0 001.332-.09 169.823 169.823 0 0118.813-1.433c5.52-.11 9.906-4.676 9.797-10.2-.11-5.519-4.684-9.87-10.2-9.796-7.027.14-14.105.683-21.047 1.605-5.476.73-9.324 5.758-8.593 11.23.668 5.028 4.96 8.684 9.898 8.684zm0 0M65.621 411.617c-4.55-3.129-10.777-1.98-13.906 2.57-.356.516-.715 1.032-1.074 1.547a10 10 0 00-.442 10.778l9.106 15.574a9.995 9.995 0 0013.68 3.59c4.769-2.79 6.374-8.91 3.59-13.68l-6.65-11.375a10.01 10.01 0 00-4.304-9.004zm0 0M74.64 213.559a10.01 10.01 0 009.333 6.402c1.199 0 2.418-.219 3.601-.676 5.153-1.988 7.715-7.777 5.727-12.93a256.093 256.093 0 00-8.293-19.097c-2.406-4.969-8.387-7.051-13.36-4.645-4.968 2.407-7.05 8.387-4.644 13.356a233.817 233.817 0 017.637 17.59zm0 0M204.898 77.96a9.999 9.999 0 008.625-4.925A136.33 136.33 0 00220.29 60h14.57c5.524 0 10-4.477 10-10s-4.476-10-10-10h-20c-.195 0-.386.008-.582.016a9.984 9.984 0 00-9.925 6.332 116.644 116.644 0 01-8.059 16.53c-2.805 4.759-1.223 10.888 3.535 13.692a9.955 9.955 0 005.07 1.39zm0 0M83.824 376.012a10.007 10.007 0 0012.754-6.113 233.112 233.112 0 006.04-20c1.355-5.356-1.888-10.794-7.24-12.149-5.355-1.352-10.792 1.887-12.148 7.238a212.183 212.183 0 01-5.515 18.27c-1.836 5.207.898 10.918 6.11 12.754zm0 0M291.902 424.266a196.912 196.912 0 00-20.707 3.906c-5.363 1.312-8.648 6.73-7.336 12.094 1.121 4.562 5.207 7.62 9.707 7.62.786 0 1.586-.093 2.387-.288 6.133-1.5 12.387-2.68 18.586-3.504 5.473-.73 9.32-5.758 8.594-11.23-.73-5.477-5.762-9.325-11.23-8.598zm0 0M390.703 190.527c3.535 0 6.961-1.879 8.781-5.199a244.013 244.013 0 019.883-16.46c3.028-4.622 1.735-10.817-2.883-13.845-4.62-3.027-10.82-1.738-13.847 2.883a264.387 264.387 0 00-10.696 17.817c-2.652 4.847-.875 10.922 3.97 13.574a9.93 9.93 0 004.792 1.23zm0 0M372.402 314.473c-.554-5.496-5.457-9.512-10.953-8.946a9.998 9.998 0 00-8.945 10.953c.7 6.91 1.723 13.868 3.039 20.676.926 4.781 5.113 8.106 9.809 8.106.628 0 1.27-.063 1.91-.188 5.422-1.05 8.968-6.297 7.918-11.719a211.851 211.851 0 01-2.778-18.882zm0 0M371.121 226.457c-5.351-1.383-10.8 1.84-12.183 7.188a243.072 243.072 0 00-4.336 20.394c-.914 5.445 2.761 10.602 8.21 11.516.56.093 1.118.14 1.665.14 4.796 0 9.03-3.46 9.851-8.347a222.523 222.523 0 013.977-18.707c1.379-5.352-1.836-10.805-7.184-12.184zm0 0M375.617 396.355a239.475 239.475 0 0010.11 18.262 9.993 9.993 0 008.539 4.781 9.923 9.923 0 005.21-1.472c4.712-2.883 6.192-9.04 3.31-13.75a220.659 220.659 0 01-9.263-16.727c-2.46-4.945-8.46-6.96-13.406-4.5-4.941 2.461-6.957 8.461-4.5 13.406zm0 0M280.813 111.414a9.96 9.96 0 006.265 2.211 9.973 9.973 0 007.793-3.727c3.465-4.304 2.785-10.597-1.516-14.062a125.3 125.3 0 01-13.52-12.629c-3.745-4.059-10.073-4.316-14.132-.57-4.058 3.742-4.316 10.07-.57 14.129a145.577 145.577 0 0015.68 14.648zm0 0M359.93 144.176c4.98 0 9.293-3.723 9.914-8.79.668-5.484-3.235-10.472-8.719-11.14a135.688 135.688 0 01-18.277-3.516c-5.336-1.418-10.813 1.774-12.227 7.11-1.41 5.34 1.774 10.812 7.113 12.226a156.508 156.508 0 0020.97 4.036c.413.046.82.074 1.226.074zm0 0M369.148 450.844a9.976 9.976 0 003.082.488c4.22 0 8.141-2.691 9.512-6.922 1.703-5.254-1.176-10.89-6.43-12.594a191.5 191.5 0 00-20.398-5.386c-5.41-1.11-10.695 2.379-11.805 7.789-1.113 5.41 2.375 10.695 7.786 11.804a169.525 169.525 0 0118.253 4.82zm0 0M137.738 90.32a9.96 9.96 0 005.54-1.68l.003-.003c4.598-3.063 5.836-9.27 2.774-13.864-3.067-4.597-9.278-5.835-13.871-2.773s-5.836 9.273-2.774 13.867a9.986 9.986 0 008.328 4.453zm0 0M316.355 462.602h-.003c-5.524 0-9.997 4.476-9.997 10 0 5.52 4.48 10 10 10 5.524 0 10-4.48 10-10 0-5.524-4.476-10-10-10zm0 0"/></svg>
