<svg height="512" viewBox="0 0 110 110" width="512" xmlns="http://www.w3.org/2000/svg" id="svg-icon"><path d="M86.098 39.236L57.091 24.29a4.096 4.096 0 00-4.183 0L23.901 39.236a5.639 5.639 0 00-2.13 4.414v30.926h66.457V43.65c0-1.72-.784-3.344-2.13-4.414z" fill="#d6b24e"/><path d="M82.841 20.333H27.158a1.886 1.886 0 00-1.886 1.886v46.146c0 1.041.845 1.885 1.886 1.885h55.683a1.886 1.886 0 001.886-1.885V22.219a1.886 1.886 0 00-1.886-1.886z" fill="#ededed"/><path d="M59.906 63.945l-4.905 3.16-.878.57.878.57 23.532 15.172 7.916 5.098c.092-.068.183-.148.263-.228a4.936 4.936 0 001.517-3.559V45.695z" fill="#f9c74b"/><path d="M55.001 67.105l-4.904-3.16-28.323-18.25v39.033c0 1.392.582 2.658 1.517 3.56.08.079.171.159.263.227l7.904-5.098 23.543-15.171.879-.57z" fill="#f9c74b"/><path d="M79.423 81.671L59.906 63.945h-9.81L30.58 81.671l-7.289 6.616c.08.08.171.16.263.228a4.8 4.8 0 003.16 1.152H83.29a4.8 4.8 0 003.16-1.152c.09-.068.182-.148.262-.228z" fill="#fed35b"/><path d="M31.92 40.616c12.747 16.003 33.413 16.003 46.159 0-12.746-16.005-33.412-16.005-46.159 0z" fill="#ededed"/><circle cx="55" cy="40.615" fill="#4da0dc" r="9.724"/><path d="M57.776 41.167l6.071-.552-6.071-.552 5.398-2.834-5.82 1.813 3.902-4.683-4.683 3.902 1.812-5.82-2.833 5.398L55 31.768l-.553 6.07-2.833-5.397 1.813 5.82-4.683-3.902 3.902 4.683-5.82-1.812 5.397 2.833-6.07.552 6.07.552-5.397 2.834 5.82-1.813-3.902 4.684 4.683-3.902-1.813 5.82 2.833-5.398.553 6.071.552-6.07 2.833 5.397-1.812-5.82 4.683 3.902-3.902-4.684 5.82 1.813z" fill="#4288b9"/><circle cx="55" cy="40.615" fill="#293b44" r="5.009"/></svg>
