<svg height="512" viewBox="0 0 256 256" width="512" xmlns="http://www.w3.org/2000/svg" id="svg-icon"><path d="M142.752 202.624a2 2 0 01-2-2V26.156c0-4.857 3.951-8.809 8.808-8.809h13.759a2 2 0 010 4H149.56a4.814 4.814 0 00-4.808 4.809v174.468a2 2 0 01-2 2zM224.454 202.624a2 2 0 01-2-2V43.879c0-1.795.539-3.524 1.558-5.002l14.257-20.666a2 2 0 013.293 2.271l-14.257 20.666a4.78 4.78 0 00-.851 2.73v156.745a2 2 0 01-2 2.001zM183.603 202.624a2 2 0 01-2-2V58.294l-3.3-4.552a3.137 3.137 0 01-.174-3.413L181.22 45l-2.917-4.024a3.137 3.137 0 01-.174-3.413l3.091-5.329-2.917-4.024a3.137 3.137 0 01-.173-3.414l3.743-6.453a2 2 0 113.46 2.006l-3.461 5.967 2.917 4.024a3.137 3.137 0 01.173 3.414l-3.091 5.328 2.917 4.024a3.137 3.137 0 01.174 3.413l-3.091 5.329 3.134 4.323c.391.538.597 1.175.597 1.84v142.61a1.999 1.999 0 01-1.999 2.003z" fill="#3762cc"/><path d="M109.135 248H25.163a9.078 9.078 0 01-9.078-9.078V65.967h102.128v172.955a9.078 9.078 0 01-9.078 9.078z" fill="#4671c6"/><path d="M109.135 250H25.163c-6.108 0-11.078-4.97-11.078-11.078V65.967a2 2 0 012-2h102.128a2 2 0 012 2v172.955c0 6.108-4.97 11.078-11.078 11.078zM18.085 67.967v170.955A7.086 7.086 0 0025.163 246h83.972a7.086 7.086 0 007.078-7.078V67.967z" fill="#3762cc"/><path d="M101.191 87.149H33.106c-9.401 0-17.021-7.621-17.021-17.021v-53.05A9.078 9.078 0 0125.163 8h83.972a9.078 9.078 0 019.078 9.078v53.05c0 9.4-7.621 17.021-17.022 17.021z" fill="#a4c9ff"/><circle cx="67.149" cy="65.967" fill="#e0ebfc" r="9.986"/><path d="M101.191 89.149H33.106c-10.488 0-19.021-8.533-19.021-19.021v-53.05C14.085 10.97 19.055 6 25.163 6h83.972c6.108 0 11.078 4.97 11.078 11.078v53.049c0 10.489-8.533 19.022-19.022 19.022zM25.163 10a7.086 7.086 0 00-7.078 7.078v53.049c0 8.283 6.739 15.021 15.021 15.021h68.085c8.283 0 15.021-6.739 15.021-15.021V17.078A7.086 7.086 0 00109.134 10z" fill="#3762cc"/><path d="M67.149 77.953c-6.609 0-11.986-5.377-11.986-11.986s5.377-11.986 11.986-11.986 11.986 5.377 11.986 11.986-5.377 11.986-11.986 11.986zm0-19.972c-4.403 0-7.986 3.583-7.986 7.986s3.583 7.986 7.986 7.986 7.986-3.583 7.986-7.986-3.583-7.986-7.986-7.986z" fill="#3762cc"/><path d="M146.014 248h-6.525a9.078 9.078 0 01-9.078-9.078v-103.83a4.539 4.539 0 014.539-4.539h15.603a4.539 4.539 0 014.539 4.539v103.83a9.078 9.078 0 01-9.078 9.078zM186.865 248h-6.525a9.078 9.078 0 01-9.078-9.078v-103.83a4.539 4.539 0 014.539-4.539h15.603a4.539 4.539 0 014.539 4.539v103.83a9.078 9.078 0 01-9.078 9.078zM227.716 248h-6.525a9.078 9.078 0 01-9.078-9.078v-103.83a4.539 4.539 0 014.539-4.539h15.603a4.539 4.539 0 014.539 4.539v103.83a9.078 9.078 0 01-9.078 9.078z" fill="#a4c9ff"/><path d="M149.655 130.553v-8.983a3.404 3.404 0 00-3.404-3.404h-6.998a3.404 3.404 0 00-3.404 3.404v8.983zM190.506 130.553v-8.983a3.404 3.404 0 00-3.404-3.404h-6.998a3.404 3.404 0 00-3.404 3.404v8.983zM231.357 130.553v-8.983a3.404 3.404 0 00-3.404-3.404h-6.998a3.404 3.404 0 00-3.404 3.404v8.983z" fill="#e0ebfc"/><path d="M146.014 250h-6.525c-6.108 0-11.078-4.97-11.078-11.078v-103.83a6.547 6.547 0 016.539-6.539h15.603a6.547 6.547 0 016.539 6.539v103.83c0 6.108-4.969 11.078-11.078 11.078zM134.95 132.553a2.542 2.542 0 00-2.539 2.539v103.83a7.086 7.086 0 007.078 7.078h6.525a7.086 7.086 0 007.078-7.078v-103.83c0-1.4-1.139-2.539-2.539-2.539zM186.865 250h-6.525c-6.108 0-11.078-4.97-11.078-11.078v-103.83a6.547 6.547 0 016.539-6.539h15.603a6.547 6.547 0 016.539 6.539v103.83c0 6.108-4.969 11.078-11.078 11.078zm-11.064-117.447a2.542 2.542 0 00-2.539 2.539v103.83A7.086 7.086 0 00180.34 246h6.525a7.086 7.086 0 007.078-7.078v-103.83c0-1.4-1.139-2.539-2.539-2.539zM227.716 250h-6.525c-6.108 0-11.078-4.97-11.078-11.078v-103.83a6.547 6.547 0 016.539-6.539h15.603a6.547 6.547 0 016.539 6.539v103.83c0 6.108-4.969 11.078-11.078 11.078zm-11.064-117.447a2.542 2.542 0 00-2.539 2.539v103.83a7.086 7.086 0 007.078 7.078h6.525a7.086 7.086 0 007.078-7.078v-103.83c0-1.4-1.139-2.539-2.539-2.539z" fill="#3762cc"/><path d="M149.655 132.553h-13.806a2 2 0 01-2-2v-8.983a5.41 5.41 0 015.404-5.404h6.998a5.41 5.41 0 015.404 5.404v8.983a2 2 0 01-2 2zm-11.806-4h9.806v-6.983c0-.774-.63-1.404-1.404-1.404h-6.998c-.774 0-1.404.63-1.404 1.404zM190.506 132.553H176.7a2 2 0 01-2-2v-8.983a5.41 5.41 0 015.404-5.404h6.998a5.41 5.41 0 015.404 5.404v8.983a2 2 0 01-2 2zm-11.806-4h9.806v-6.983c0-.774-.63-1.404-1.404-1.404h-6.998c-.774 0-1.404.63-1.404 1.404zM231.357 132.553h-13.806a2 2 0 01-2-2v-8.983a5.41 5.41 0 015.404-5.404h6.998a5.41 5.41 0 015.404 5.404v8.983a2 2 0 01-2 2zm-11.806-4h9.806v-6.983c0-.774-.63-1.404-1.404-1.404h-6.998c-.774 0-1.404.63-1.404 1.404z" fill="#3762cc"/><path d="M33.536 178.677v36.204c0 10.027 8.129 18.156 18.156 18.156h31.773c10.027 0 18.156-8.129 18.156-18.156v-36.204a4 4 0 00-4-4H37.536a4 4 0 00-4 4z" fill="#f9cfcf"/><path d="M76.017 196.576a8.158 8.158 0 00-9.697-8.009c-3.17.582-5.753 3.081-6.419 6.235-.65 3.083.444 5.953 2.48 7.805a.802.802 0 01.269.651l-1.104 15.174a.8.8 0 00.798.858h11.04a.8.8 0 00.798-.858l-1.104-15.173a.807.807 0 01.27-.653 8.123 8.123 0 002.669-6.03zM49.214 174.677v-5.769c0-10.152 8.259-18.411 18.412-18.411 10.152 0 18.411 8.259 18.411 18.411v5.769h8v-5.769c0-14.563-11.848-26.411-26.411-26.411s-26.412 11.848-26.412 26.411v5.769z" fill="#f9a7a7"/></svg>
