<svg viewBox="0 0 20 26" xmlns="http://www.w3.org/2000/svg" id="svg-icon">
  <path
    d="M19.686 7.012c-.436-3.044-2.866-4.964-3.144-5.176C14.798.204 12.775.98 11.808 1.71a.249.249 0 01-.07-.055c-.229-.245-.262-.906-.242-1.189a.434.434 0 00-.402-.463C10.97-.006 8.023-.17 4.257 3.595l-.483.483c-.213.214-.508.314-.772.257-.084-.018-.129-.041-.131-.031-.001-.027.01-.189.303-.572a.433.433 0 00-.652-.568C2.424 3.263.136 5.621.25 8.56c.06 1.55.784 2.957 2.138 4.187l-.004 1.17c0 2.959.291 5.973 2.4 7.976.34.322.705.61 1.079.88v2.794a.433.433 0 10.866 0v-2.195l.037.025.097.066.416.28c.165.11.325.229.484.347.694.513 1.412 1.043 2.42 1.043 1.01 0 1.727-.53 2.42-1.043.16-.118.321-.237.485-.348l.416-.279.044-.03.114-.076v2.21a.433.433 0 10.867 0v-2.81a10.56 10.56 0 001.055-.864c2.119-2.012 2.41-5.046 2.41-8.025v-1.164c1.391-1.876 1.964-3.79 1.69-5.692zm-2.557 5.556v1.3c0 2.786-.26 5.61-2.14 7.396a10.83 10.83 0 01-1.268 1.002c-.23.161-.462.318-.695.474l-.423.285c-.174.117-.344.243-.513.368-.608.45-1.182.874-1.905.874-.633 0-1.152-.325-1.678-.707l-.227-.167c-.17-.125-.34-.25-.513-.368l-.41-.276c-.24-.16-.478-.322-.714-.486a10.737 10.737 0 01-1.262-1c-1.964-1.864-2.129-4.77-2.129-7.345l.012-3.95c0-.293.057-.577.17-.844.044-.104.1-.2.161-.292.018-.027.039-.052.058-.078.048-.063.1-.123.157-.18.023-.023.046-.047.071-.07a1.82 1.82 0 01.232-.177l.026-.02a2.06 2.06 0 01.29-.144c.032-.013.064-.023.097-.034.074-.026.15-.048.228-.065.036-.008.072-.016.108-.022.093-.015.188-.025.283-.028.02 0 .038-.004.057-.004.076 0 .153.011.23.019.051.005.102.004.153.013.128.022.257.056.384.102.66.239 1.93.524 4.227.524 2.297 0 3.567-.285 4.228-.524.886-.32 1.83-.045 2.327.623.009.013.02.022.03.035.07.099.13.206.178.322.113.267.17.551.17.844v2.6z" />
  </svg>
