<svg viewBox="0 0 512 512" xmlns="http://www.w3.org/2000/svg"><g id="Flat"><rect fill="#e68f15" height="360" rx="32" width="464" x="24" y="128"/><rect fill="#f5a12c" height="360" rx="32" width="464" x="24" y="88"/><path d="m242.615 246.116a70.527 70.527 0 0 1 -64.449 41.884h-43.638a70.527 70.527 0 0 1 -70.528-70.528v-82.944c0-38.952 31.576-62.528 70.528-62.528h177.472v128l-24.311 6.946a70.526 70.526 0 0 0 -45.074 39.17z" fill="#82390a"/><path d="m242.615 198.116a70.527 70.527 0 0 1 -64.449 41.884h-43.638a70.527 70.527 0 0 1 -70.528-70.528v-74.944a70.527 70.527 0 0 1 70.528-70.528h177.472v128l-24.311 6.946a70.526 70.526 0 0 0 -45.074 39.17z" fill="#914616"/><path d="m79.147 108h169.706v16h-169.706z" fill="#82390a" transform="matrix(.707 -.707 .707 .707 -33.991 149.933)"/><path d="m84.402 76h79.196v16h-79.196z" fill="#82390a" transform="matrix(.707 -.707 .707 .707 -23.079 112.278)"/><path d="m122.619 132h186.762v16.001h-186.762z" fill="#82390a" transform="matrix(.685 -.728 .728 .685 -33.989 201.331)"/><rect fill="#914616" height="147.2" rx="14.72" width="80.96" x="272" y="263.522"/><rect fill="#c44829" height="147.2" rx="14.72" width="44.16" x="308.8" y="263.522"/><rect fill="#914616" height="147.2" rx="14.72" transform="matrix(.938 -.346 .346 .938 -90.241 157.576)" width="80.96" x="356.273" y="258.243"/><rect fill="#c44829" height="147.2" rx="14.72" transform="matrix(.938 -.346 .346 .938 -86.979 163.151)" width="44.16" x="391.939" y="251.884"/><path d="m72 352v-32h104l16 16-16 16z" fill="#71a654"/><path d="m72 320h88l-24 32h-64z" fill="#669e46"/><path d="m72 320h24l24 32h-48z" fill="#5c973f"/><g fill="#4f657d"><path d="m272 112h16v16h-16z"/><path d="m192 112h16v16h-16z"/><path d="m160 64h16v16h-16z"/><path d="m96 128h16v16h-16z"/><path d="m144 168h16v16h-16z"/><path d="m200 184h16v16h-16z"/><path d="m216 304h16v16h-16z"/><path d="m232 352h16v16h-16z"/><path d="m368 344h16v16h-16z"/><path d="m328 368h16v16h-16z"/><path d="m376 184h16v16h-16z"/><path d="m280 304h16v16h-16z"/><path d="m336 208h16v16h-16z"/></g><path d="m224 384v32h-104l-16-16 16-16z" fill="#71a654"/><path d="m224 416h-88l24-32h64z" fill="#669e46"/><path d="m224 416h-24l-24-32h48z" fill="#5c973f"/></g></svg>