<svg viewBox="0 0 512 512" xmlns="http://www.w3.org/2000/svg" id="svg-icon"><path d="M385.959 512H126.041a4 4 0 01-4-4v-43.388H389.96V508a4.001 4.001 0 01-4.001 4z" fill="#ffe8cf"/><path d="M359.046 464.612V512h26.914a4 4 0 004-4v-43.388z" fill="#f2cdae"/><path d="M345.389 474.913H166.611C103.865 474.913 53 424.048 53 361.302v-32.795a4 4 0 014-4h398a4 4 0 014 4v32.795c0 62.746-50.865 113.611-113.611 113.611z" fill="#d35d3f"/><path d="M428.086 324.507v36.811c0 62.737-50.872 113.596-113.626 113.596h30.914c62.754 0 113.626-50.859 113.626-113.596v-32.811a4 4 0 00-4-4z" fill="#c24b31"/><path d="M386.181 196.331l6.79 14.054c2.159 4.469.268 9.892-4.202 12.051l-20.636 9.965 18.878 39.072a3.997 3.997 0 01-1.861 5.338l-31.771 15.342a3.999 3.999 0 01-5.339-1.861l-18.878-39.072-20.636 9.965c-4.471 2.159-9.895.268-12.054-4.201l-6.79-14.054c-8.896-18.413-1.106-40.755 17.312-49.649l29.525-14.257c18.418-8.895 40.766-1.106 49.662 17.307z" fill="#ffe8cf"/><path d="M336.519 179.023l-27.837 13.442c18.418-8.894 40.766-1.106 49.662 17.308l6.79 14.054.089.188c1.919 4.137.442 9.072-3.348 11.608-7.468 4.997-10.308 14.857-6.287 23.179l10.908 22.577a3.997 3.997 0 01-1.861 5.338l20.514-9.906a3.997 3.997 0 001.861-5.338l-18.878-39.072 20.636-9.965c4.471-2.159 6.362-7.582 4.202-12.051l-6.79-14.054c-8.895-18.413-31.243-26.202-49.661-17.308z" fill="#f2cdae"/><path d="M204.748 149.612l-8.682 12.971c-2.761 4.125-8.396 5.242-12.522 2.481l-19.046-12.742-24.138 36.062a3.999 3.999 0 01-5.547 1.099l-29.323-19.617a3.997 3.997 0 01-1.099-5.545l24.138-36.062-19.046-12.742c-4.126-2.76-5.243-8.394-2.482-12.519l8.682-12.971c11.375-16.995 34.59-21.595 51.59-10.223l27.251 18.23c16.998 11.374 21.599 34.583 10.224 51.578z" fill="#ffe8cf"/><path d="M194.523 98.036L168.83 80.848c16.999 11.372 21.601 34.581 10.226 51.576l-8.682 12.971-.117.172c-2.596 3.749-7.601 4.976-11.708 2.993-8.093-3.907-18.035-1.361-23.176 6.321l-13.947 20.838a3.999 3.999 0 01-5.547 1.099l18.934 12.666a4 4 0 005.547-1.099l24.138-36.062 19.046 12.742c4.126 2.76 9.761 1.644 12.522-2.481l8.682-12.971c11.375-16.996 6.774-40.205-10.225-51.577z" fill="#f2cdae"/><path d="M340.297 29.95l3.035 15.309c.965 4.869-2.23 9.642-7.1 10.607l-22.48 4.455 8.439 42.563a3.998 3.998 0 01-3.145 4.698l-34.609 6.858a3.998 3.998 0 01-4.699-3.144L271.3 68.733l-22.48 4.454c-4.87.965-9.644-2.229-10.61-7.098l-3.035-15.31c-3.977-20.058 9.185-39.722 29.249-43.698L296.588.708c20.063-3.975 39.733 9.184 43.709 29.242z" fill="#ffe8cf"/><path d="M296.588.709l-30.324 6.009c20.064-3.976 39.733 9.183 43.71 29.241l3.035 15.309.039.204c.816 4.486-1.855 8.891-6.162 10.393-8.486 2.958-13.715 11.787-11.917 20.853l4.876 24.594a3.997 3.997 0 01-3.145 4.698l22.347-4.428a3.998 3.998 0 003.145-4.698l-8.439-42.563 22.48-4.455c4.87-.965 8.065-5.738 7.1-10.607l-3.035-15.31c-3.977-20.057-23.647-33.216-43.71-29.24z" fill="#f2cdae"/><g fill="#ffca28"><ellipse cx="151.667" cy="262.466" rx="21.377" ry="21.371"/><ellipse cx="187.371" cy="38.753" rx="21.377" ry="21.371"/><ellipse cx="238.462" cy="189.17" rx="21.377" ry="21.371"/><ellipse cx="372.957" cy="128.893" rx="19.362" ry="19.357"/></g></svg>