<svg height="512pt" viewBox="0 -19 512 512" width="512pt" xmlns="http://www.w3.org/2000/svg" id="svg-icon"><path d="M253.96 474.598c15.583 0 28.657-10.7 32.294-25.153-21.828-18.914-35.637-46.836-35.637-77.984 0-31.625 14.235-59.918 36.645-78.836V161.547c0-18.39-14.91-33.297-33.301-33.297H33.297C14.91 128.25 0 143.156 0 161.547V441.3c0 18.39 14.91 33.297 33.297 33.297" fill="#5b9ed6"/><path d="M253.96 128.25h-24.667c18.39 0 33.3 14.906 33.3 33.297v114.281c0 5.195-1.859 10.211-5.214 14.18a125.9 125.9 0 00-23.227 41.101c-5.277 12.395-8.203 26.028-8.203 40.348 0 14.39 2.95 28.09 8.274 40.531l.105.317c4.89 14.297-5.566 29.191-20.68 29.191H33.297C14.91 441.496 0 426.586 0 408.196V441.3c0 18.39 14.91 33.297 33.3 33.297h220.66c10.813 0 20.419-5.157 26.5-13.145l.11-.144c.242-.325.485-.657.72-.993.062-.09.12-.18.183-.27.203-.296.406-.6.601-.91l.215-.343c.176-.285.348-.574.516-.867a24.948 24.948 0 00.684-1.242l.234-.454c.136-.273.27-.546.398-.824.074-.164.152-.324.223-.484a38.176 38.176 0 00.566-1.336c.113-.285.219-.57.324-.856.063-.167.125-.335.184-.503.11-.309.207-.622.305-.934l.144-.445c.137-.465.266-.93.387-1.403a104.696 104.696 0 01-3.309-3.004c-.129-.12-.258-.238-.386-.363a101.99 101.99 0 01-3.47-3.476 95.708 95.708 0 01-2.94-3.22c-.094-.109-.192-.218-.286-.327a104.204 104.204 0 01-2.918-3.504c-13.976-17.602-22.332-39.871-22.332-64.09 0-31.625 14.239-59.918 36.645-78.836V161.547c.004-18.39-14.906-33.297-33.297-33.297zm0 0" fill="#4c83b3"/><path d="M64.938 97.254h157.386v30.996H64.937zm0 0" fill="#5a67ad"/><path d="M181.852 97.254h40.472v30.996h-40.472zm0 0" fill="#48538a"/><path d="M32.227 52.695V84.75c0 6.906 5.601 12.504 12.503 12.504h197.797c6.907 0 12.504-5.598 12.504-12.504V20.637c0-6.907-5.597-12.504-12.504-12.504H44.73c-6.906 0-12.503 5.601-12.503 12.504zm0 0" fill="#5b9ed6"/><path d="M198.902 8.133v89.12h43.625c6.907 0 12.504-5.597 12.504-12.503V20.637c0-6.907-5.597-12.504-12.504-12.504zm0 0" fill="#4c83b3"/><path d="M230 301.426c0 47.699-38.668 86.37-86.371 86.37-47.7 0-86.371-38.671-86.371-86.37 0-47.703 38.672-86.375 86.37-86.375 47.704 0 86.372 38.672 86.372 86.375zm0 0" fill="#ef2d57"/><path d="M192.582 230.273c9.59 13.915 15.219 30.774 15.219 48.95 0 47.703-38.672 86.37-86.371 86.37-18.18 0-35.035-5.624-48.953-15.218 15.578 22.598 41.628 37.422 71.152 37.422 47.703 0 86.371-38.672 86.371-86.371 0-29.524-14.82-55.574-37.418-71.153zm0 0" fill="#d9294f"/><path d="M456.895 371.457c0 56.965-46.176 103.14-103.141 103.14-56.961 0-103.137-46.175-103.137-103.14 0-56.96 46.176-103.137 103.137-103.137 56.965 0 103.14 46.176 103.14 103.137zm0 0" fill="#fcda55"/><path d="M416.098 289.293c13.16 17.316 20.976 38.918 20.976 62.344 0 56.965-46.176 103.14-103.14 103.14-23.426 0-45.028-7.816-62.344-20.976 18.84 24.789 48.629 40.797 82.168 40.797 56.96 0 103.137-46.176 103.137-103.141 0-33.535-16.008-63.324-40.797-82.164zm0 0" fill="#d9bc4a"/><path d="M282.938 445.441c3.949 3.43 8.164 6.567 12.605 9.375L437.816 312.54a103.25 103.25 0 00-9.375-12.602 7.951 7.951 0 00-1.785 1.336L284.273 443.656a7.864 7.864 0 00-1.336 1.785zm0 0" fill="#d9bc4a"/><path d="M418.344 140.191c-36.875 8.922-65.746 39.204-65.746 78.457v49.688c.386-.004.77-.016 1.156-.016 56.965 0 103.14 46.176 103.14 103.14 0 28.106-11.246 53.583-29.48 72.185 1.617.101 3.242.164 4.883.164 44.02 0 79.703-35.684 79.703-79.7V218.65c0-39.254-28.387-71.856-65.746-78.458 0 0-18.356-2.312-27.91 0zm0 0" fill="#f084ad"/><path d="M446.254 140.191c-10.008-1.37-19.309-1.37-27.91 0-.281.051-.563.118-.844.168 36.938 6.946 64.898 39.332 64.898 78.29v145.46c0 33.461-20.628 62.09-49.859 73.903a102.929 102.929 0 01-5.125 5.633c1.617.101 3.242.164 4.887.164 44.015 0 79.699-35.684 79.699-79.7V218.65c0-39.254-28.387-71.856-65.746-78.458zm0 0" fill="#d47499"/><path d="M418.75 291.379c23.27 18.91 38.145 47.758 38.145 80.078 0 28.11-11.247 53.586-29.48 72.188 1.616.097 3.241.164 4.882.164 44.02 0 79.703-35.684 79.703-79.7v-72.73zm0 0" fill="#ef2d57"/><path d="M482.398 364.11c0 33.46-20.628 62.085-49.859 73.902a100.47 100.47 0 01-2.738 3.105c-.785.856-1.578 1.703-2.387 2.528 1.617.101 3.242.164 4.883.164 44.02 0 79.703-35.684 79.703-79.7v-72.73h-29.602zm0 0" fill="#cc264b"/><path d="M183.316 293.496H151.56v-31.758c0-4.379-3.551-7.93-7.93-7.93s-7.926 3.551-7.926 7.93v31.758h-31.758a7.927 7.927 0 100 15.856h31.758v31.757a7.927 7.927 0 1015.856 0v-31.757h31.757c4.38 0 7.93-3.551 7.93-7.93s-3.55-7.926-7.93-7.926zm0 0" fill="#fff"/><g fill="#674297"><path d="M86.836 104.98a7.93 7.93 0 01-7.93-7.93V7.93a7.93 7.93 0 0115.86 0v89.12a7.93 7.93 0 01-7.93 7.93zm0 0M143.75 104.98a7.93 7.93 0 01-7.93-7.93V7.93c0-4.38 3.551-7.93 7.93-7.93s7.926 3.55 7.926 7.93v89.12a7.925 7.925 0 01-7.926 7.93zm0 0M200.664 104.98a7.93 7.93 0 01-7.93-7.93V7.93a7.927 7.927 0 1115.855 0v89.12a7.925 7.925 0 01-7.925 7.93zm0 0"/></g><path d="M281.523 451.535a7.917 7.917 0 01-5.605-2.324 7.936 7.936 0 010-11.215l142.383-142.383c3.097-3.093 8.117-3.097 11.215 0a7.929 7.929 0 010 11.215L287.133 449.211a7.919 7.919 0 01-5.61 2.324zm0 0" fill="#e69326"/></svg>
