<svg viewBox="0 0 508.806 508.806" xmlns="http://www.w3.org/2000/svg" id="svg-icon">
  <circle cx="256.828" cy="78.713" transform="rotate(-45 256.834 78.766)" r="41.881" />
  <path
    d="M313.001 286.917c8.403 5.929 20.041 4.49 26.727-3.495l48.041-57.378c7.489-8.946 5.713-22.398-3.843-29.092l-71.695-50.398a51.268 51.268 0 00-29.486-9.327H241.16l-63.331-44.67-22.375-78.123C152.425 3.861 141.399-2.254 130.829.774c-10.571 3.028-16.688 14.053-13.659 24.625l24.304 84.854a19.91 19.91 0 007.645 10.775l58.552 41.409c-.197 1.987-.139 126.038-.139 126.139l-51.783 73.253a23.894 23.894 0 00-4.182 16.881l14.246 109.286c1.711 13.123 13.734 22.306 26.783 20.605 13.086-1.706 22.311-13.697 20.605-26.782L200.16 381.79l51.984-73.536h12.651l-2.42 80.223a23.897 23.897 0 002.945 12.234l52.631 95.71c6.36 11.564 20.889 15.783 32.451 9.424 11.563-6.359 15.783-20.887 9.424-32.451l-49.489-89.995 2.661-75.144v-21.338zm0-91.024l30.302 21.226-30.302 36.191z" />
  </svg>
