<svg xmlns="http://www.w3.org/2000/svg" viewBox="0 0 512 512" id="svg-icon"><path d="M470.794 102.237a20.54 20.54 0 006.035 14.832 20.54 20.54 0 0014.567 6.037H508a4 4 0 014 4v257.787a4 4 0 01-4 4h-16.071c-11.365 0-20.991 8.974-21.135 20.338a20.54 20.54 0 006.035 14.832 20.54 20.54 0 0014.567 6.037H508a4 4 0 014 4V508a4 4 0 01-4 4H4a4 4 0 01-4-4v-77.899h20.604a20.54 20.54 0 0014.567-6.037 20.542 20.542 0 006.035-14.832c-.143-11.364-9.77-20.338-21.135-20.338H4a4 4 0 01-4-4V127.107a4 4 0 014-4h16.604a20.54 20.54 0 0014.567-6.037 20.542 20.542 0 006.035-14.832C41.063 90.874 31.436 81.9 20.071 81.9H4a4 4 0 01-4-4V4a4 4 0 014-4h504a4 4 0 014 4v73.899a4 4 0 01-4 4h-16.071c-11.364 0-20.991 8.975-21.135 20.338z" fill="#00b7a0"/><g fill="#caeefc"><circle cx="42.24" cy="39.662" r="15.453"/><circle cx="469.76" cy="39.662" r="15.453"/><circle cx="42.24" cy="473.37" r="15.453"/><circle cx="469.76" cy="473.37" r="15.453"/></g><path d="M388.499 30.905H123.501a4 4 0 01-4-4V0h272.998v26.905a4 4 0 01-4 4z" fill="#fad87c"/><path d="M388.499 30.905h-26.905V0h30.905v26.905a4 4 0 01-4 4z" fill="#febe40"/><path d="M392.499 512H119.501v-26.905a4 4 0 014-4h264.998a4 4 0 014 4V512z" fill="#fad87c"/><path d="M392.499 512h-30.905v-30.905h26.905a4 4 0 014 4V512z" fill="#febe40"/><g fill="#cbdae0"><path d="M110.745 98.671a7.5 7.5 0 01-7.5-7.5V70.567a7.5 7.5 0 0115 0v20.604a7.5 7.5 0 01-7.5 7.5zM143.023 98.671a7.5 7.5 0 01-7.5-7.5V70.567a7.5 7.5 0 0115 0v20.604a7.5 7.5 0 01-7.5 7.5zM175.302 98.671a7.5 7.5 0 01-7.5-7.5V70.567a7.5 7.5 0 0115 0v20.604a7.5 7.5 0 01-7.5 7.5zM207.582 98.671a7.5 7.5 0 01-7.5-7.5V70.567a7.5 7.5 0 0115 0v20.604a7.5 7.5 0 01-7.5 7.5zM239.86 98.671a7.5 7.5 0 01-7.5-7.5V70.567a7.5 7.5 0 0115 0v20.604a7.5 7.5 0 01-7.5 7.5zM272.14 98.671a7.5 7.5 0 01-7.5-7.5V70.567a7.5 7.5 0 0115 0v20.604a7.5 7.5 0 01-7.5 7.5zM304.418 98.671a7.5 7.5 0 01-7.5-7.5V70.567a7.5 7.5 0 0115 0v20.604a7.5 7.5 0 01-7.5 7.5zM336.698 98.671a7.5 7.5 0 01-7.5-7.5V70.567a7.5 7.5 0 0115 0v20.604a7.5 7.5 0 01-7.5 7.5zM368.977 98.671a7.5 7.5 0 01-7.5-7.5V70.567a7.5 7.5 0 0115 0v20.604a7.5 7.5 0 01-7.5 7.5zM401.255 98.671a7.5 7.5 0 01-7.5-7.5V70.567a7.5 7.5 0 0115 0v20.604a7.5 7.5 0 01-7.5 7.5zM110.745 448.933a7.5 7.5 0 01-7.5-7.5v-20.604a7.5 7.5 0 0115 0v20.604a7.5 7.5 0 01-7.5 7.5zM143.023 448.933a7.5 7.5 0 01-7.5-7.5v-20.604a7.5 7.5 0 0115 0v20.604a7.5 7.5 0 01-7.5 7.5zM175.302 448.933a7.5 7.5 0 01-7.5-7.5v-20.604a7.5 7.5 0 0115 0v20.604a7.5 7.5 0 01-7.5 7.5zM207.582 448.933a7.5 7.5 0 01-7.5-7.5v-20.604a7.5 7.5 0 0115 0v20.604a7.5 7.5 0 01-7.5 7.5zM239.86 448.933a7.5 7.5 0 01-7.5-7.5v-20.604a7.5 7.5 0 0115 0v20.604a7.5 7.5 0 01-7.5 7.5zM272.14 448.933a7.5 7.5 0 01-7.5-7.5v-20.604a7.5 7.5 0 0115 0v20.604a7.5 7.5 0 01-7.5 7.5zM304.418 448.933a7.5 7.5 0 01-7.5-7.5v-20.604a7.5 7.5 0 0115 0v20.604a7.5 7.5 0 01-7.5 7.5zM336.698 448.933a7.5 7.5 0 01-7.5-7.5v-20.604a7.5 7.5 0 0115 0v20.604a7.5 7.5 0 01-7.5 7.5zM368.977 448.933a7.5 7.5 0 01-7.5-7.5v-20.604a7.5 7.5 0 0115 0v20.604a7.5 7.5 0 01-7.5 7.5zM401.255 448.933a7.5 7.5 0 01-7.5-7.5v-20.604a7.5 7.5 0 0115 0v20.604a7.5 7.5 0 01-7.5 7.5zM91.171 118.245H70.567a7.5 7.5 0 010-15h20.604a7.5 7.5 0 010 15zM91.171 150.523H70.567a7.5 7.5 0 010-15h20.604a7.5 7.5 0 010 15zM91.171 182.802H70.567a7.5 7.5 0 010-15h20.604a7.5 7.5 0 010 15zM91.171 215.082H70.567a7.5 7.5 0 010-15h20.604a7.5 7.5 0 010 15zM91.171 247.36H70.567a7.5 7.5 0 010-15h20.604a7.5 7.5 0 010 15zM91.171 279.64H70.567a7.5 7.5 0 010-15h20.604a7.5 7.5 0 010 15zM91.171 311.918H70.567a7.5 7.5 0 010-15h20.604a7.5 7.5 0 010 15zM91.171 344.198H70.567a7.5 7.5 0 010-15h20.604a7.5 7.5 0 010 15zM91.171 376.477H70.567a7.5 7.5 0 010-15h20.604a7.5 7.5 0 010 15zM91.171 408.755H70.567a7.5 7.5 0 010-15h20.604a7.5 7.5 0 010 15zM441.433 118.245h-20.604a7.5 7.5 0 010-15h20.604a7.5 7.5 0 010 15zM441.433 150.523h-20.604a7.5 7.5 0 010-15h20.604a7.5 7.5 0 010 15zM441.433 182.802h-20.604a7.5 7.5 0 010-15h20.604a7.5 7.5 0 010 15zM441.433 215.082h-20.604a7.5 7.5 0 010-15h20.604a7.5 7.5 0 010 15zM441.433 247.36h-20.604a7.5 7.5 0 010-15h20.604a7.5 7.5 0 010 15zM441.433 279.64h-20.604a7.5 7.5 0 010-15h20.604a7.5 7.5 0 010 15zM441.433 311.918h-20.604a7.5 7.5 0 010-15h20.604a7.5 7.5 0 010 15zM441.433 344.198h-20.604a7.5 7.5 0 010-15h20.604a7.5 7.5 0 010 15zM441.433 376.477h-20.604a7.5 7.5 0 010-15h20.604a7.5 7.5 0 010 15zM441.433 408.755h-20.604a7.5 7.5 0 010-15h20.604a7.5 7.5 0 010 15z"/></g><path d="M91.171 416.829V95.171a4 4 0 014-4h321.658a4 4 0 014 4v321.658a4 4 0 01-4 4H95.171a4 4 0 01-4-4z" fill="#444b66"/><path d="M389.924 420.829V91.171h26.905a4 4 0 014 4v321.658a4 4 0 01-4 4h-26.905z" fill="#3d435c"/><path d="M385.924 389.924H126.076a4 4 0 01-4-4V126.076a4 4 0 014-4h259.847a4 4 0 014 4v259.847a3.999 3.999 0 01-3.999 4.001z" fill="#cbdae0"/><path d="M385.924 389.924h-26.905V122.076h26.905a4 4 0 014 4v259.847a4 4 0 01-4 4.001z" fill="#a8b5ba"/><path d="M138.038 343.419v27.89a4 4 0 004 4h30.461c3.649 0 5.393-4.486 2.701-6.95l-30.461-27.89c-2.566-2.35-6.701-.529-6.701 2.95z" fill="#6e6b87"/><g fill="#444b66"><path d="M249.218 206.17h-26.785a7.5 7.5 0 01-7.5-7.5v-47.388a7.5 7.5 0 017.5-7.5h26.785a7.5 7.5 0 010 15h-19.285v32.388h19.285a7.5 7.5 0 010 15zM268.577 206.17a7.5 7.5 0 01-7.5-7.5v-47.388a7.5 7.5 0 017.5-7.5h26.785a7.5 7.5 0 017.5 7.5v24.02a7.5 7.5 0 01-7.5 7.5h-19.285v15.868a7.5 7.5 0 01-7.5 7.5zm7.5-38.368h11.785v-9.02h-11.785v9.02zM341.505 206.17H314.72a7.5 7.5 0 01-7.5-7.5v-47.388a7.5 7.5 0 0115 0v39.888h11.785v-39.888a7.5 7.5 0 0115 0v47.388a7.5 7.5 0 01-7.5 7.5z"/></g></svg>