<svg height="512" viewBox="0 0 511.046 511.046" width="512" xmlns="http://www.w3.org/2000/svg" id="svg-icon"><path d="M259.626 221.658h-8.206a21.104 21.104 0 01-20.391-15.666l-14.399-53.998c-3.572-13.397 6.525-26.54 20.391-26.54h37.004c13.865 0 23.963 13.143 20.391 26.54l-14.399 53.998a21.104 21.104 0 01-20.391 15.666z" fill="#fcb44d"/><path d="M294.413 151.992l-14.4 54a21.102 21.102 0 01-20.39 15.67h-8.2c-4.13 0-8.04-1.2-11.35-3.31 4.34-2.77 7.64-7.11 9.04-12.36l14.4-54c3.58-13.4-6.52-26.54-20.39-26.54h30.9c13.87 0 23.97 13.14 20.39 26.54z" fill="#fca62f"/><path d="M312.108 296.817l-56.585-66.936-56.665 66.936c-12.131 14.351-18.812 33.783-18.032 52.564a74.537 74.537 0 006.231 26.922 74.833 74.833 0 0015.601 22.812c14.571 14.581 33.723 21.862 52.864 21.862s38.293-7.281 52.864-21.862c13.291-13.291 21.042-30.953 21.832-49.734.781-18.782-5.979-38.213-18.11-52.564z" fill="#fcc16d"/><path d="M312.103 296.812l-56.58-66.93-18.67 22.06 37.25 44.06c12.47 14.76 19.43 34.74 18.62 54.06s-8.78 37.48-22.45 51.15c-8.55 8.56-18.63 14.67-29.37 18.33 4.82.96 9.72 1.44 14.62 1.44 19.14 0 38.29-7.29 52.86-21.87 13.3-13.29 21.05-30.95 21.84-49.73.78-18.78-5.98-38.21-18.12-52.57z" fill="#fcb44d"/><path d="M280.095 370.833c-13.551 13.551-35.593 13.551-49.144 0-12.681-12.671-13.541-33.323-1.97-47.014l22.724-26.885a5 5 0 017.637 0l22.724 26.885c11.57 13.691 10.71 34.343-1.971 47.014z" fill="#fc5a95"/><path d="M280.093 370.832c-9.86 9.86-24.22 12.55-36.53 8.04a34.63 34.63 0 0012.6-8.04c12.68-12.67 13.54-33.32 1.97-47.01l-14.57-17.25 8.141-9.638a5 5 0 017.639-.001l22.72 26.889c11.57 13.69 10.71 34.34-1.97 47.01z" fill="#fb3a82"/><path d="M255.523 504.502c-35.27 0-68.43-13.735-93.369-38.675-23.477-23.477-37.171-54.676-38.559-87.848-1.388-33.173 9.651-65.406 31.084-90.763l85.569-101.232a20.002 20.002 0 0130.552 0l85.569 101.232c21.433 25.357 32.472 57.59 31.084 90.763-1.388 33.172-15.082 64.371-38.559 87.847-24.941 24.941-58.1 38.676-93.371 38.676zm0-274.621l-70.293 83.16c-30.641 36.25-28.352 90.937 5.21 124.499 35.887 35.887 94.278 35.887 130.165 0 33.563-33.563 35.852-88.25 5.21-124.5z" fill="#fddaa9"/><path d="M387.453 377.982c-1.39 33.17-15.08 64.37-38.56 87.85-24.94 24.94-58.1 38.67-93.37 38.67-5.22 0-10.39-.3-15.5-.9 29.4-3.41 56.62-16.52 77.87-37.77 23.48-23.48 37.17-54.68 38.56-87.85s-9.65-65.41-31.09-90.77l-85.34-100.97.22-.26c3.8-4.49 9.39-7.09 15.28-7.09s11.48 2.6 15.28 7.09l85.56 101.23c21.44 25.36 32.48 57.6 31.09 90.77z" fill="#fcc16d"/><g><path d="M416.118 229.923c-13.551 13.551-35.593 13.551-49.144 0-12.681-12.671-13.541-33.323-1.97-47.014l22.724-26.885a5 5 0 017.637 0l22.724 26.885c11.57 13.691 10.71 34.343-1.971 47.014z" fill="#fc5a95"/><path d="M416.116 229.922c-10.76 10.76-26.88 12.98-39.85 6.63 3.36-1.63 6.51-3.84 9.29-6.63 12.68-12.67 13.54-33.32 1.97-47.01l-11.26-13.33 11.46-13.56c2-2.36 5.64-2.36 7.64 0l22.72 26.89c11.57 13.69 10.71 34.34-1.97 47.01z" fill="#fb3a82"/><g><path d="M144.072 229.923c-13.551 13.551-35.593 13.551-49.144 0-12.681-12.671-13.541-33.323-1.97-47.014l22.724-26.885a5 5 0 017.637 0l22.724 26.885c11.571 13.691 10.711 34.343-1.971 47.014z" fill="#fc5a95"/><path d="M144.07 229.922c-10.76 10.76-26.88 12.98-39.85 6.63 3.36-1.63 6.51-3.84 9.29-6.63 12.68-12.67 13.54-33.32 1.97-47.01l-11.26-13.33 11.46-13.56c2-2.36 5.64-2.36 7.64 0l22.72 26.89c11.57 13.69 10.71 34.34-1.97 47.01z" fill="#fb3a82"/><g><path d="M466.947 10.269a7.5 7.5 0 00-13.941-5.535c-13.704 34.518-32.481 64.689-54.829 89.102a7.497 7.497 0 00-6.631-4.001 7.5 7.5 0 00-7.5 7.5v10.726c-24.636 22.826-52.786 39.142-82.784 47.367l.4-1.501c2.308-8.655.502-17.693-4.955-24.796-5.457-7.104-13.725-11.177-22.682-11.177h-37.004c-8.958 0-17.225 4.074-22.682 11.177s-7.263 16.141-4.955 24.796l.401 1.503c-29.994-8.224-58.146-24.546-82.784-47.376V97.335a7.5 7.5 0 00-7.5-7.5 7.495 7.495 0 00-6.628 3.995C90.521 69.414 71.742 39.243 58.041 4.734A7.5 7.5 0 0044.1 10.269c16.399 41.305 39.809 76.76 67.901 104.191v34.795c-.744.559-24.771 28.812-24.771 28.812-14.071 16.649-13.019 41.757 2.395 57.158 7.971 7.971 18.581 12.36 29.875 12.36 11.293 0 21.903-4.389 29.873-12.358 15.416-15.403 16.468-40.511 2.397-57.161 0 0-24.026-28.253-24.77-28.812v-21.276c26.247 21.766 55.851 36.937 87.199 44.007l6.729 25.235-71.979 85.154c-22.65 26.797-34.316 60.861-32.85 95.918 1.467 35.057 15.939 68.027 40.75 92.838 22.063 22.063 49.979 35.801 80.727 39.728a7.501 7.501 0 001.9-14.879c-27.423-3.502-52.328-15.762-72.021-35.455-22.144-22.144-35.06-51.57-36.369-82.858-1.31-31.289 9.103-61.691 29.318-85.607l85.568-101.231c2.381-2.816 5.861-4.432 9.548-4.432s7.167 1.615 9.548 4.431l39.607 46.857A7.5 7.5 0 00316.131 228l-26.016-30.779 6.729-25.233c31.352-7.071 60.955-22.237 87.199-43.999v21.267c-.744.559-24.77 28.812-24.77 28.812-14.071 16.649-13.019 41.757 2.395 57.158 7.97 7.971 18.58 12.36 29.875 12.36 11.294 0 21.903-4.389 29.874-12.358 15.416-15.403 16.468-40.511 2.397-57.161 0 0-24.026-28.253-24.771-28.813v-34.788c28.092-27.426 51.5-62.88 67.904-104.197zM140.315 187.75c9.076 10.739 8.398 26.933-1.543 36.867a.002.002 0 01-.002.002c-5.137 5.137-11.98 7.967-19.269 7.967s-14.131-2.83-19.271-7.969c-9.942-9.934-10.62-26.127-1.543-36.867l20.814-24.625zm136.211-6.608c-5.237-6.194-12.893-9.747-21.003-9.747s-15.766 3.553-21.004 9.748l-1.789 2.117-8.853-33.198a13.505 13.505 0 012.356-11.792 13.507 13.507 0 0110.788-5.315h37.004c4.26 0 8.192 1.938 10.788 5.315a13.505 13.505 0 012.356 11.792l-8.853 33.199zm135.834 6.608c9.076 10.739 8.398 26.933-1.543 36.867l-.002.002c-5.138 5.137-11.98 7.967-19.269 7.967-7.288 0-14.131-2.83-19.271-7.969-9.942-9.934-10.62-26.127-1.543-36.867l20.814-24.625z"/><path d="M255.523 388.491c10.818 0 21.637-4.118 29.874-12.353 15.416-15.403 16.468-40.511 2.396-57.16l-22.723-26.885c-2.38-2.816-5.86-4.431-9.547-4.431s-7.167 1.615-9.547 4.431l-22.723 26.885c-14.072 16.649-13.019 41.757 2.395 57.158 8.236 8.237 19.056 12.355 29.875 12.355zm-20.814-59.831l20.814-24.626 20.814 24.626c9.076 10.739 8.399 26.933-1.543 36.867l-.002.002c-10.625 10.625-27.913 10.625-38.54-.002-9.942-9.934-10.619-26.127-1.543-36.867z"/><path d="M337.315 253.058a7.5 7.5 0 10-11.456 9.684l24.781 29.316c20.216 23.916 30.628 54.318 29.318 85.607-1.309 31.288-14.226 60.714-36.369 82.858-19.938 19.938-45.168 32.24-72.964 35.575a7.5 7.5 0 001.788 14.893c31.166-3.74 59.446-17.523 81.784-39.862 24.811-24.81 39.283-57.78 40.75-92.837s-10.199-69.121-32.85-95.918z"/><path d="M331.544 308.199l-70.293-83.16a7.5 7.5 0 00-11.456 0l-70.293 83.16c-33.138 39.204-30.663 98.347 5.635 134.645 19.405 19.405 44.896 29.108 70.386 29.108s50.98-9.703 70.386-29.108c36.298-36.298 38.773-95.441 5.635-134.645zm-76.021 148.757c-22.609 0-43.839-8.779-59.779-24.719-21.319-21.319-28.891-51.914-22.231-79.773.697 9.296 2.927 18.319 6.677 26.854a82.274 82.274 0 006.749 12.333 7.492 7.492 0 006.258 3.357 7.46 7.46 0 004.137-1.25 7.5 7.5 0 002.108-10.395 67.24 67.24 0 01-5.518-10.077 66.849 66.849 0 01-5.603-24.217c-.662-15.94 4.778-32.692 14.619-45.361l52.584-62.209 50.97 60.3c10.858 12.92 16.927 30.575 16.233 47.267-.711 16.9-7.687 32.791-19.644 44.748-12.671 12.68-29.562 19.664-47.559 19.664-12.238 0-24.217-3.31-34.642-9.573a7.501 7.501 0 00-7.725 12.859c12.757 7.664 27.407 11.714 42.366 11.714 22.006 0 42.665-8.545 58.167-24.059 13.967-13.967 22.359-32.328 23.842-51.961 6.662 27.861-.909 58.459-22.23 79.78-15.94 15.939-37.17 24.718-59.779 24.718z"/></g></g></g></svg>
