<svg id="svg-icon" viewBox="0 0 512 512" xmlns="http://www.w3.org/2000/svg"><path d="M80 168H64c-17.673 0-32 14.327-32 32v48h80v-48c0-17.673-14.327-32-32-32z" fill="#be5000"/><path d="M80 184H64c-8.837 0-16 7.163-16 16v48h48v-48c0-8.837-7.163-16-16-16z" fill="#dc6e1e"/><path d="M136 200h32a8 8 0 018 8v40h-48v-40a8 8 0 018-8z" fill="#4b8c41"/><path d="M168 184h32a8 8 0 018 8v56h-48v-56a8 8 0 018-8z" fill="#91b945"/><circle cx="432" cy="248" fill="#d7e6e6" r="48"/><path d="M140 248c0-5.178 6.985-11.4 5.467-16.073-1.572-4.842-10.932-5.758-13.866-9.789-2.963-4.071-.962-13.246-5.033-16.209-4.031-2.933-12.125 1.784-16.967.212C104.929 204.624 101.178 196 96 196s-8.929 8.624-13.602 10.142c-4.842 1.572-12.936-3.145-16.967-.212-4.071 2.963-2.07 12.138-5.033 16.209-2.933 4.031-12.293 4.946-13.865 9.789C45.015 236.6 52 242.822 52 248s-6.985 11.4-5.467 16.073c1.572 4.842 10.932 5.758 13.866 9.789 2.963 4.071.962 13.246 5.033 16.209 4.031 2.933 12.125-1.784 16.967-.212C87.071 291.376 90.822 300 96 300s8.929-8.624 13.602-10.142c4.842-1.572 12.936 3.145 16.967.212 4.071-2.963 2.07-12.138 5.033-16.209 2.933-4.031 12.293-4.946 13.865-9.789C146.985 259.4 140 253.178 140 248z" fill="#d7e6e6"/><path d="M96 284c-19.851 0-36-16.149-36-36s16.149-36 36-36 36 16.149 36 36-16.149 36-36 36zm0-64c-15.439 0-28 12.561-28 28s12.561 28 28 28 28-12.561 28-28-12.561-28-28-28z" fill="#ff8773"/><path d="M96 265.333c-9.558 0-17.333-7.775-17.333-17.333S86.442 230.667 96 230.667s17.333 7.775 17.333 17.333-7.775 17.333-17.333 17.333zm0-26.666c-5.146 0-9.333 4.187-9.333 9.333s4.187 9.333 9.333 9.333 9.333-4.187 9.333-9.333-4.187-9.333-9.333-9.333z" fill="#ff8773"/><circle cx="432" cy="248" fill="#fabe19" r="24"/><circle cx="360" cy="248" fill="#d7e6e6" r="48"/><circle cx="360" cy="248" fill="#fabe19" r="24"/><path d="M168 56h328V40H168a8 8 0 000 16zM168 88h328V72H168a8 8 0 000 16z" fill="#d7322d"/><path d="M160 48h336v-8H168a8 8 0 00-8 8zM160 80h336v-8H168a8 8 0 00-8 8z" fill="#f04b37"/><path d="M208 260c-6.627 0-12-5.373-12-12 0-13.688 6.326-20.963 10.944-26.275 3.471-3.992 5.056-5.814 5.056-10.527s-1.584-6.535-5.056-10.527C202.326 195.357 196 188.083 196 174.395s6.326-20.962 10.945-26.273c3.471-3.991 5.055-5.813 5.055-10.524 0-4.712-1.584-6.533-5.055-10.525C202.326 121.76 196 114.485 196 100.797s6.326-20.962 10.945-26.273C210.416 70.533 212 68.711 212 64c0-6.627 5.373-12 12-12s12 5.373 12 12c0 13.688-6.326 20.962-10.945 26.272-3.471 3.991-5.055 5.813-5.055 10.524 0 4.713 1.584 6.534 5.056 10.526 4.619 5.312 10.944 12.586 10.944 26.273s-6.326 20.961-10.945 26.272c-3.471 3.992-5.055 5.813-5.055 10.525 0 4.713 1.584 6.535 5.056 10.527 4.619 5.313 10.944 12.587 10.944 26.275s-6.326 20.963-10.944 26.275C221.584 241.465 220 243.287 220 248c0 6.627-5.373 12-12 12z" fill="#f5871e"/><path d="M184 260c-6.627 0-12-5.373-12-12 0-13.688 6.326-20.963 10.944-26.275 3.471-3.992 5.056-5.814 5.056-10.527s-1.584-6.535-5.056-10.527C178.326 195.357 172 188.083 172 174.395s6.326-20.962 10.945-26.273c3.471-3.991 5.055-5.813 5.055-10.524 0-4.712-1.584-6.533-5.055-10.525C178.326 121.76 172 114.485 172 100.797s6.326-20.962 10.945-26.273C186.416 70.533 188 68.711 188 64c0-6.627 5.373-12 12-12s12 5.373 12 12c0 13.688-6.326 20.962-10.945 26.272-3.471 3.991-5.055 5.813-5.055 10.524 0 4.713 1.584 6.534 5.056 10.526 4.619 5.312 10.944 12.586 10.944 26.273s-6.326 20.961-10.945 26.272c-3.471 3.992-5.055 5.813-5.055 10.525 0 4.713 1.584 6.535 5.056 10.527 4.619 5.313 10.944 12.587 10.944 26.275s-6.326 20.963-10.944 26.275C197.584 241.465 196 243.287 196 248c0 6.627-5.373 12-12 12z" fill="#fabe19"/><path d="M256 260c-6.627 0-12-5.373-12-12 0-13.688 6.326-20.963 10.944-26.275 3.472-3.992 5.056-5.814 5.056-10.527s-1.584-6.535-5.056-10.527C250.326 195.357 244 188.083 244 174.395s6.326-20.962 10.945-26.273c3.471-3.991 5.055-5.813 5.055-10.524 0-4.712-1.584-6.533-5.055-10.525C250.326 121.76 244 114.485 244 100.797s6.326-20.962 10.945-26.273C258.416 70.533 260 68.711 260 64c0-6.627 5.373-12 12-12s12 5.373 12 12c0 13.688-6.326 20.962-10.945 26.272-3.471 3.991-5.055 5.813-5.055 10.524 0 4.713 1.584 6.534 5.056 10.526 4.618 5.312 10.944 12.586 10.944 26.273s-6.326 20.961-10.944 26.272c-3.472 3.992-5.056 5.813-5.056 10.525 0 4.713 1.584 6.535 5.056 10.527 4.619 5.313 10.944 12.587 10.944 26.275s-6.325 20.963-10.944 26.275C269.584 241.465 268 243.287 268 248c0 6.627-5.373 12-12 12z" fill="#f5871e"/><path d="M232 260c-6.627 0-12-5.373-12-12 0-13.688 6.326-20.963 10.944-26.275 3.471-3.992 5.056-5.814 5.056-10.527s-1.584-6.535-5.056-10.527C226.326 195.357 220 188.083 220 174.395s6.326-20.962 10.945-26.273c3.471-3.991 5.055-5.813 5.055-10.524 0-4.712-1.584-6.533-5.055-10.525C226.326 121.76 220 114.485 220 100.797s6.326-20.962 10.945-26.273C234.416 70.533 236 68.711 236 64c0-6.627 5.373-12 12-12s12 5.373 12 12c0 13.688-6.326 20.962-10.945 26.272-3.471 3.991-5.055 5.813-5.055 10.524 0 4.713 1.584 6.534 5.056 10.526 4.619 5.312 10.944 12.586 10.944 26.273s-6.326 20.961-10.945 26.272c-3.471 3.992-5.055 5.813-5.055 10.525 0 4.713 1.584 6.535 5.056 10.527 4.619 5.313 10.944 12.587 10.944 26.275s-6.326 20.963-10.944 26.275C245.584 241.465 244 243.287 244 248c0 6.627-5.373 12-12 12z" fill="#fabe19"/><path d="M304 260c-6.627 0-12-5.373-12-12 0-13.688 6.325-20.963 10.944-26.275 3.472-3.992 5.056-5.814 5.056-10.527s-1.584-6.535-5.056-10.527C298.325 195.357 292 188.083 292 174.395s6.326-20.962 10.945-26.273c3.471-3.991 5.055-5.813 5.055-10.524 0-4.712-1.584-6.533-5.055-10.525C298.326 121.76 292 114.485 292 100.797s6.326-20.962 10.945-26.273C306.416 70.533 308 68.711 308 64c0-6.627 5.373-12 12-12s12 5.373 12 12c0 13.688-6.326 20.962-10.945 26.272-3.471 3.991-5.055 5.813-5.055 10.524 0 4.713 1.584 6.534 5.056 10.526 4.618 5.312 10.944 12.586 10.944 26.273s-6.326 20.961-10.944 26.272c-3.472 3.992-5.056 5.813-5.056 10.525 0 4.713 1.584 6.535 5.056 10.527 4.619 5.313 10.944 12.587 10.944 26.275s-6.325 20.963-10.944 26.275C317.584 241.465 316 243.287 316 248c0 6.627-5.373 12-12 12z" fill="#f5871e"/><path d="M280 260c-6.627 0-12-5.373-12-12 0-13.688 6.325-20.963 10.944-26.275 3.472-3.992 5.056-5.814 5.056-10.527s-1.584-6.535-5.056-10.527C274.325 195.357 268 188.083 268 174.395s6.326-20.962 10.945-26.273c3.471-3.991 5.055-5.813 5.055-10.524 0-4.712-1.584-6.533-5.055-10.525C274.326 121.76 268 114.485 268 100.797s6.326-20.962 10.945-26.273C282.416 70.533 284 68.711 284 64c0-6.627 5.373-12 12-12s12 5.373 12 12c0 13.688-6.326 20.962-10.945 26.272-3.471 3.991-5.055 5.813-5.055 10.524 0 4.713 1.584 6.534 5.056 10.526 4.618 5.312 10.944 12.586 10.944 26.273s-6.326 20.961-10.944 26.272c-3.472 3.992-5.056 5.813-5.056 10.525 0 4.713 1.584 6.535 5.056 10.527 4.619 5.313 10.944 12.587 10.944 26.275s-6.325 20.963-10.944 26.275C293.584 241.465 292 243.287 292 248c0 6.627-5.373 12-12 12z" fill="#fabe19"/><g><path d="M336 440H176c-88.366 0-160-71.634-160-160v-16c0-8.837 7.163-16 16-16h448c8.837 0 16 7.163 16 16v16c0 88.366-71.634 160-160 160z" fill="#f04b37"/></g><g><path d="M176 424c-79.402 0-144-64.598-144-144v-8a8 8 0 0116 0v8c0 70.579 57.42 128 128 128a8 8 0 010 16z" fill="#ff6955"/></g><g><path d="M480 248H320c8.837 0 16 7.163 16 16v16c0 88.365-71.635 160-160 160h160c88.365 0 160-71.635 160-160v-16c0-8.837-7.163-16-16-16z" fill="#d7322d"/></g><g><path d="M320 472H192c-8.837 0-16-7.163-16-16v-16h160v16c0 8.837-7.163 16-16 16z" fill="#d7322d"/></g></svg>