<svg viewBox="0 0 20 20" xmlns="http://www.w3.org/2000/svg" id="svg-icon"><path d="M15.778 12.232c-.246-.095-.421-.34-.457-.63-.43-3.749-1.159-6.785-2.29-9.541A3.274 3.274 0 0010 0C8.673 0 7.454.828 6.976 2.048 5.84 4.818 5.11 7.853 4.681 11.595c-.037.297-.212.542-.45.635-1.9.724-2.928 2.717-2.446 4.732a3.92 3.92 0 002.904 2.92 3.993 3.993 0 003.306-.658 3.015 3.015 0 002.006.775c.748 0 1.457-.286 2.001-.77a3.986 3.986 0 003.305.654 3.918 3.918 0 002.908-2.916c.484-2.02-.545-4.013-2.437-4.734zm.814 4.355a2.277 2.277 0 01-1.67 1.675c-.69.168-1.37.023-1.912-.369.25-.247.59-.393.949-.393h.208a.833.833 0 100-1.667h-.208a3.018 3.018 0 00-2.6 1.494l-.199.34a1.345 1.345 0 01-2.32 0l-.197-.34a3.02 3.02 0 00-2.6-1.494h-.209a.833.833 0 100 1.667h.209c.358 0 .699.145.947.392a2.309 2.309 0 01-1.917.369 2.277 2.277 0 01-1.665-1.68c-.324-1.356.466-2.432 1.423-2.796.815-.32 1.393-1.08 1.505-1.993.412-3.593 1.105-6.488 2.187-9.123.235-.599.829-1.002 1.478-1.002s1.243.403 1.484 1.015c1.076 2.622 1.77 5.517 2.182 9.117.112.906.688 1.667 1.51 1.989.95.361 1.74 1.437 1.415 2.799z"/></svg>
