<svg xmlns="http://www.w3.org/2000/svg" id="svg-icon" viewBox="0 0 512 512"><circle cx="446.192" cy="315.493" r="20.604" fill="#a7a951"/><path d="M34.579 236.168a70.716 70.716 0 01-5.701-15.902l39.048-6.68 68.928 51.814-68.512 51.902-39.464-6.767a70.733 70.733 0 015.701-15.902c9.24-18.453 9.24-40.012 0-58.465z" fill="#cf8575"/><path d="M55.805 343.36c-12.745 7.153-28.667-1.955-28.728-16.57l-.001-.299c0-5.487.626-10.826 1.801-15.957L136.853 265.4c-19.975 32.05-47.912 59.366-81.048 77.96z" fill="#be6054"/><g fill="#e1a996"><path d="M27.077 204.31l.001-.298c.06-14.615 15.981-23.724 28.728-16.57 33.136 18.595 61.073 45.911 81.048 77.96L28.878 220.267a71.469 71.469 0 01-1.801-15.957zM206.828 126.826l76.764 25.255 2.575 54.085H186.095V163.85c0-15.386 8.1-29.23 20.733-37.024z"/></g><path d="M217.717 121.994a281.426 281.426 0 0146.35-9.275l71.034 29.06 17.257 59.231c-4.752 3.208-10.568 5.155-17.192 5.155h-48.998l-79.339-79.339a43.976 43.976 0 0110.888-4.832z" fill="#cf8575"/><path d="M296.346 110.873c11.42 0 22.37 4.536 30.445 12.61l30.139 30.139c14.705 14.705 10.348 37.314-4.572 47.386l-88.291-88.291a284.744 284.744 0 0132.279-1.844z" fill="#be6054"/><path d="M291.855 159.807c72.839 0 137.423 35.418 177.614 90.017a222.281 222.281 0 00-10.488 15.576 221.467 221.467 0 0010.488 15.576c-40.19 54.599-104.775 90.017-177.614 90.017-69.259 0-131.059-32.018-171.517-82.102a37.342 37.342 0 010-46.982c40.459-50.084 102.259-82.102 171.517-82.102z" fill="#ce9276"/><path d="M291.855 159.807c69.314 0 131.135 32.087 171.59 82.239-40.244 42.907-97.346 69.712-160.702 69.712-48.355 0-93.095-15.636-129.467-42.12-26.515-19.307-25.231-59.417 2.617-76.746 33.688-20.963 73.404-33.085 115.962-33.085z" fill="#dfb296"/><path d="M311.677 160.695c64.658 5.777 121.287 39.538 157.791 89.129A222.047 222.047 0 00458.98 265.4a221.7 221.7 0 0010.488 15.576c-29.589 40.197-72.408 69.975-122.001 82.9-37.945-25.981-62.845-69.62-62.845-119.08.001-31.386 10.031-60.427 27.055-84.101z" opacity=".4" fill="#bd7155"/><path d="M469.481 296.43c3.181 0 6.39-.979 9.148-3.009 6.872-5.059 8.343-14.733 3.284-21.606a211.11 211.11 0 01-4.54-6.416 207.137 207.137 0 014.54-6.416c5.059-6.873 3.589-16.547-3.284-21.606-6.873-5.06-16.546-3.589-21.606 3.284a238.472 238.472 0 00-11.218 16.662 15.45 15.45 0 000 16.151 238.472 238.472 0 0011.218 16.662c3.03 4.117 7.713 6.294 12.458 6.294z" fill="#be6054"/><path d="M379.914 311.759c25.562 0 46.358-20.796 46.358-46.358s-20.796-46.358-46.358-46.358c-25.562 0-46.358 20.796-46.358 46.358 0 25.561 20.796 46.358 46.358 46.358z" opacity=".4" fill="#bd7155"/><path d="M379.914 296.306c-17.041 0-30.905-13.864-30.905-30.905s13.864-30.905 30.905-30.905 30.905 13.864 30.905 30.905-13.863 30.905-30.905 30.905z" fill="#dac69c"/><path d="M349.009 265.4c0 3.832.707 7.501 1.987 10.89a30.735 30.735 0 0010.89 1.987c17.041 0 30.905-13.864 30.905-30.905 0-3.832-.707-7.501-1.987-10.89a30.735 30.735 0 00-10.89-1.987c-17.041 0-30.905 13.864-30.905 30.905z" fill="#e6d8b3"/><circle cx="379.91" cy="265.395" r="7.726" fill="#47423f"/><path d="M238.773 286.179c-14.907-14.917-35.51-24.127-58.288-24.127s-43.381 9.21-58.288 24.127c-9.87 9.864-17.242 22.222-21.1 36.053-3.115 11.169 5.278 22.234 16.873 22.234H243c11.595 0 19.989-11.066 16.873-22.234-3.858-13.831-11.23-26.189-21.1-36.053z" fill="#fefbe1"/><path d="M242.297 344.467h-61.811l43.709-43.707.007-.008c11.187 11.18 18.095 26.632 18.095 43.715z" fill="#f6eea4"/><path d="M224.201 300.751l-.007.008-43.709 43.707v-61.811c17.083.001 32.536 6.908 43.716 18.096z" fill="#efe388"/><path d="M180.486 282.656v61.811l-43.709-43.707-.007-.008c11.179-11.189 26.632-18.096 43.716-18.096z" fill="#e7d96b"/><path d="M180.486 344.467h-61.811c0-17.082 6.907-32.535 18.095-43.716l.007.008 43.709 43.708z" fill="#dfce4e"/><circle cx="464.735" cy="344.626" r="20.604" fill="#7b7e4d"/><circle cx="318.841" cy="344.626" r="20.604" fill="#a7a951"/><circle cx="427.247" cy="344.626" r="20.604" fill="#7b7e4d"/><circle cx="393.014" cy="344.626" r="20.604" fill="#a7a951"/><path d="M428.632 401.127H83.368a30.905 30.905 0 01-21.853-9.052L29.36 359.919h453.28l-32.155 32.155a30.906 30.906 0 01-21.853 9.053z" fill="#d5d2bd"/><path d="M496.547 375.372H15.453C6.919 375.372 0 368.454 0 359.919c0-8.534 6.919-15.453 15.453-15.453h481.095c8.534 0 15.453 6.919 15.453 15.453-.001 8.536-6.92 15.453-15.454 15.453z" fill="#e7e4cd"/></svg>
