<?xml version="1.0" encoding="iso-8859-1"?>
<svg version="1.1" id="Layer_1" xmlns="http://www.w3.org/2000/svg"
	 viewBox="0 0 512 512">
<rect x="188.5" y="8.5" style="fill:#434A54;" width="132.5" height="112"/>
<polygon style="fill:#5D9CEC;" points="398,162 305,124.422 234,117 148,138 107,176 101,503.328 406,495 "/>
<rect x="182" y="236.5" style="fill:#F5F7FA;" width="147" height="167"/>
<path d="M330.672,115.5V10.656C330.672,4.766,325.891,0,320,0H192c-5.891,0-10.672,4.766-10.672,10.656V115.5
	C115,133.062,96,170.656,96,170.656V512h149.188h21.344H416V170.656C416,170.656,397,133.062,330.672,115.5z M202.672,21.328
	h106.656v89.578c-15.578-2.656-33.281-4.25-53.328-4.25c-7.438,0-14.531,0.219-21.328,0.625V42.656
	C234.672,36.766,229.891,32,224,32s-10.672,4.766-10.672,10.656v66.656c-3.656,0.469-7.219,1-10.656,1.594V21.328z M192.188,394.656
	V245.328h127.344v149.328H192.188z M117.328,490.656V176.984c3.594-4.766,11.406-13.562,25.297-22.297
	c12.188-7.656,26.594-13.781,42.828-18.188c17.812-4.859,37.875-7.656,59.734-8.344V224h-74.328v192h74.328v74.656H117.328z
	 M394.672,490.656H266.531V416h74.328V224h-74.328v-95.844c21.969,0.672,42.125,3.469,60.016,8.344
	c16.234,4.406,30.641,10.531,42.828,18.188c13.891,8.734,21.703,17.531,25.297,22.297V490.656z"/>
</svg>
