<svg xmlns="http://www.w3.org/2000/svg" id="svg-icon" viewBox="0 0 512.001 512.001"><circle cx="213.152" cy="246.959" r="213.152" fill="#ff8e34"/><g opacity=".2"><circle cx="73.091" cy="194.451" r="8.326"/><circle cx="107.492" cy="237.845" r="8.326"/><circle cx="73.091" cy="288.222" r="8.326"/><circle cx="157.225" cy="194.451" r="8.326"/><circle cx="124.144" cy="152.389" r="8.326"/></g><circle cx="229.427" cy="91.499" r="22.572" opacity=".3" fill="#fff"/><path d="M246.123 234.72c46.836 0 86.643 33.605 101.144 47.548a8.24 8.24 0 010 11.905c-14.501 13.943-54.309 47.548-101.144 47.548s-86.643-33.605-101.144-47.548a8.24 8.24 0 010-11.905c14.5-13.944 54.307-47.548 101.144-47.548z" fill="#006539"/><path d="M347.266 282.268c-12.085-11.62-41.749-36.877-78.404-44.978 3.969 34.023 17.539 63.627 24.948 77.729a9.925 9.925 0 0013.771 3.991c9.661-5.569 25.939-15.958 42.225-30.818a8.22 8.22 0 00-2.54-5.924z" opacity=".1"/><path d="M269.109 296.547h-45.973c-4.599 0-8.326-3.728-8.326-8.326s3.727-8.326 8.326-8.326h45.973c4.599 0 8.326 3.728 8.326 8.326s-3.727 8.326-8.326 8.326z" opacity=".15"/><path d="M407.626 195.726c-15.699 54.179-67.917 88.963-88.907 101.063a9.925 9.925 0 01-13.772-3.991c-11.269-21.448-36.799-78.761-21.1-132.94 15.699-54.179 67.917-88.962 88.907-101.063a9.923 9.923 0 0113.771 3.991c11.27 21.449 36.8 78.761 21.101 132.94z" fill="#00a155"/><path d="M338.037 212.711a8.326 8.326 0 01-8.001-10.645l15.411-53.181a8.325 8.325 0 0110.315-5.679 8.326 8.326 0 015.679 10.314l-15.411 53.181a8.33 8.33 0 01-7.993 6.01z" opacity=".15"/><path d="M412.153 170.493c.699-8.889.514-17.696-.296-26.257-6.34-2.397-13.871-1.107-19.076 4.1l-266.53 266.53C61.507 378.286 17.792 308.838 17.792 229.171c0-54.332 20.339-103.906 53.806-141.551C27.678 126.663 0 183.576 0 246.962 0 364.681 95.43 460.11 213.148 460.11s213.148-95.43 213.148-213.148c.001-26.952-5.014-52.73-14.143-76.469z" opacity=".1"/><path d="M171.042 410.04c-7.726 7.726-6.863 20.586 1.948 27.05 83.39 61.17 201.198 54.07 276.588-21.32 75.389-75.389 82.49-193.197 21.32-276.588-6.463-8.811-19.323-9.675-27.05-1.948L171.042 410.04z" fill="#ff8e34"/><g opacity=".3" ><path d="M183.781 404.95c28.266 23.307 61.938 36.742 96.438 40.292 2.905.299 5.431-1.992 5.431-4.911V304.597c0-3.383-4.09-5.077-6.482-2.684L183.43 397.65a4.94 4.94 0 00.351 7.3zM316.59 445.327c34.614-3.385 68.436-16.708 96.847-39.966a4.939 4.939 0 00.363-7.311l-96.137-96.137c-2.392-2.392-6.482-.698-6.482 2.684v135.815c.002 2.912 2.512 5.199 5.409 4.915zM439.167 379.632c23.258-28.411 36.582-62.234 39.967-96.848.283-2.897-2.003-5.407-4.913-5.407H338.403c-3.383 0-5.077 4.09-2.684 6.482l96.138 96.138a4.939 4.939 0 007.31-.365zM338.404 251.844h135.733c2.921 0 5.21-2.525 4.911-5.431-3.549-34.5-16.985-68.172-40.292-96.438a4.94 4.94 0 00-7.3-.351l-95.737 95.737c-2.393 2.393-.698 6.483 2.685 6.483z"/></g></svg>
