<svg xmlns="http://www.w3.org/2000/svg" id="svg-icon" height="464pt" viewBox="-22 0 464 464" width="464pt"><path d="M368 16c-.027-8.824-7.176-15.973-16-16H104v80c0 8.836-7.164 16-16 16H0v352c.027 8.824 7.176 15.973 16 16h336c8.824-.027 15.973-7.176 16-16zm-96 144zm-184 0zm136 48zm-48 48zm-48 48zm0 0" fill="#ffe9cc"/><path d="M122.586 421.426l11.309-79.196 50.914 16.97 16.976 50.913zm0 0" fill="#939598"/><path d="M104 464h248c8.836 0 16-7.164 16-16V216.727C324.3 336.426 226.297 428.219 104 464zm0 0" fill="#ffe2bd"/><path d="M303.61 172.523l22.624-22.625 67.883 67.883-22.625 22.625zm0 0" fill="#acabb1"/><path d="M366.352 124.8a45.311 45.311 0 00-8 1.52 47.917 47.917 0 00-20.801 12.239l-11.278 11.363 67.84 67.84 11.278-11.282c14.398-14.386 18.156-36.289 9.379-54.652-8.778-18.363-28.18-29.195-48.418-27.027zm0 0" fill="#c6c5ca"/><path d="M303.648 172.48L133.887 342.238l45.312 22.61 101.785-101.825L179.2 364.848l10.215 20.425 12.434 24.797 164.55-164.543 5.122-5.12-13.137-13.134zm.727 67.153l11.32-11.313zm0 0" fill="#ffd733"/><path d="M104 80V0L0 96h88c8.836 0 16-7.164 16-16zm0 0" fill="#ffa993"/><path d="M200.61 351.406a7.996 7.996 0 01-7.4-4.937 8.006 8.006 0 011.743-8.727l85.848-85.82a7.988 7.988 0 017.918-2.516 7.988 7.988 0 015.879 5.871 7.997 7.997 0 01-2.5 7.922l-85.832 85.863a8.001 8.001 0 01-5.657 2.344zm0 0M309.063 242.945a8 8 0 01-7.387-4.941 7.998 7.998 0 011.73-8.715l11.313-11.312a8 8 0 0111.312 11.312l-11.312 11.313a7.955 7.955 0 01-5.656 2.343zm0 0" fill="#f1f2f2"/><path d="M224 216H56a8 8 0 010-16h168a8 8 0 010 16zm0 0M176 264H56a8 8 0 010-16h120a8 8 0 010 16zm0 0M128 312H56a8 8 0 010-16h72a8 8 0 010 16zm0 0M272 168H120a8 8 0 010-16h152a8 8 0 010 16zm0 0M88 168H56a8 8 0 010-16h32a8 8 0 010 16zm0 0" fill="#ff7956"/></svg>
