<svg viewBox="0 0 512 512" height="512" width="512" xmlns="http://www.w3.org/2000/svg" id="svg-icon"><path d="M260.198 186.404c11.128-19.551 17.135-42.385 16.14-66.721C273.688 54.906 221.129 2.516 156.342.09 85.175-2.575 26.644 54.327 26.644 124.899c0 22.781 6.131 44.108 16.805 62.477 11.951 20.567 18.098 43.991 18.098 67.778v1.687c0 24.17-6.703 47.751-18.658 68.757-11.126 19.549-17.133 42.38-16.138 66.713 2.647 64.779 55.205 117.172 119.993 119.6 71.168 2.667 129.701-54.236 129.701-124.81 0-22.781-6.13-44.106-16.804-62.475-11.952-20.567-18.099-43.991-18.099-67.779v-1.687c-.001-24.17 6.701-47.751 18.656-68.756z" fill="#ffb54c"/><path d="M276.444 387.099c0-22.781-6.13-44.106-16.804-62.475-11.952-20.567-18.099-43.991-18.099-67.779v-1.687c0-24.169 6.702-47.75 18.657-68.755 11.128-19.551 17.135-42.385 16.14-66.721C273.688 54.906 221.129 2.516 156.342.09v511.815c66.757-2.521 120.102-57.432 120.102-124.806zM84.051 372.038h31.867v30H84.051zM112.893 314.987h31.867v30h-31.867zM112.893 429.09h31.867v30h-31.867z" fill="#fd7816"/><g><path d="M200.616 109.754h31.867v30h-31.867zM171.773 52.703h31.867v30h-31.867zM171.773 166.805h31.867v30h-31.867z" fill="#a14603"/></g><g><path d="M400.917 512c-46.634 0-84.438-37.804-84.438-84.438V325.438c0-46.634 37.804-84.438 84.438-84.438s84.438 37.804 84.438 84.438v102.124c0 46.633-37.804 84.438-84.438 84.438z" fill="#ffb54c"/></g><path d="M400.917 241v271c46.634 0 84.438-37.804 84.438-84.438V325.438c0-46.634-37.804-84.438-84.438-84.438z" fill="#fd7816"/></svg>
