<svg height="512pt" viewBox="-37 0 512 512" width="512pt" xmlns="http://www.w3.org/2000/svg" id="svg-icon"><path d="M285.863 346.781l-56.086-67.8a39.33 39.33 0 01-9.027-25.067v-60.656H81.14v60.656a39.308 39.308 0 01-9.027 25.066l-56.086 67.801c-17.816 21.535-21.074 51.617-8.289 76.469l26.176 50.867A69.847 69.847 0 0096.016 512h109.859a69.842 69.842 0 0062.102-37.883l26.175-50.867c12.785-24.852 9.528-54.934-8.289-76.469zm0 0" fill="#b49cdc"/><path d="M205.875 512a69.767 69.767 0 0028.95-6.293c-184.083-40.05-112.364-168.926-102.177-312.45H81.141v60.657a39.308 39.308 0 01-9.028 25.066l-56.086 67.801c-17.816 21.535-21.074 51.617-8.285 76.469l26.176 50.867A69.836 69.836 0 0096.016 512zm0 0" fill="#908cd6"/><path d="M227.387 193.258H74.504c-12.766 0-23.117-10.352-23.117-23.117v-12.262c0-22.309 18.086-40.395 40.394-40.395h118.332c22.309 0 40.395 18.086 40.395 40.395v12.262c-.004 12.765-10.352 23.117-23.121 23.117zm0 0" fill="#f7ef87"/><path d="M147.492 117.484h-55.71c-22.31 0-40.395 18.086-40.395 40.395v12.262c0 12.765 10.351 23.117 23.117 23.117h86.035c-25.41-19.867-22.02-59.906-13.047-75.774zm0 0" fill="#efd176"/><path d="M228.508 342.969c11.66 14.097-5.031 28.855-36.453 23.402-9.22-1.598-21.059-5.992-33.887-10.816-31.887-11.98-69.895-26.598-88.992-7.5l-20.969 25.343a28.043 28.043 0 00-3.328 30.743l26.176 50.867c4.832 9.39 14.394 15.226 24.96 15.226H205.88c10.562 0 20.129-5.836 24.96-15.226l26.177-50.867a28.043 28.043 0 00-3.332-30.743zm0 0" fill="#f7ef87"/><path d="M96.016 470.234h54.761c-39.496-31.554-43.953-76.648-38.43-129.418-17.253-3.543-32.933-3-43.171 7.239l-20.969 25.347a28.036 28.036 0 00-3.328 30.739l26.176 50.867c4.832 9.394 14.394 15.226 24.96 15.226zm0 0M228.508 342.969c11.66 14.097-5.031 28.855-36.453 23.402-9.22-1.598-21.059-5.992-33.887-10.816 19.293-18.563 54.844-31.32 70.34-12.586zm0 0" fill="#efd176"/><path d="M112.719 312.223c0-9.832-10.012-17.801-22.356-17.801-12.347 0-22.355 7.969-22.355 17.8 0 9.833 10.008 17.805 22.355 17.805 12.344 0 22.356-7.972 22.356-17.804zm0 0M233.883 312.223c0-9.832-10.008-17.801-22.356-17.801-12.343 0-22.351 7.969-22.351 17.8 0 9.833 10.008 17.805 22.351 17.805 12.348 0 22.356-7.972 22.356-17.804zm0 0" fill="#fff"/><g fill="#4e5660"><path d="M103.39 301.965a7.5 7.5 0 01-7.5-7.5v-7.895c0-4.14 3.36-7.5 7.5-7.5s7.5 3.36 7.5 7.5v7.895c0 4.14-3.359 7.5-7.5 7.5zm0 0M198.5 301.965a7.5 7.5 0 01-7.5-7.5v-7.895a7.5 7.5 0 1115 0v7.895a7.5 7.5 0 01-7.5 7.5zm0 0M150.945 308.027a24.128 24.128 0 01-18.191-8.285c-2.723-3.12-2.395-7.86.726-10.582a7.504 7.504 0 0110.583.727 9.133 9.133 0 006.882 3.14 9.135 9.135 0 006.887-3.14 7.504 7.504 0 0110.582-.727 7.504 7.504 0 01.727 10.582 24.137 24.137 0 01-18.196 8.285zm0 0M189.758 47.953h-77.621c-9.703 0-17.567 7.863-17.567 17.567v51.964h112.75V65.52c.004-9.704-7.863-17.567-17.562-17.567zm0 0"/></g><path d="M438.738 82.719c0-24.824-17.265-45.61-40.441-51.024-3.133-.734-5.707-2.882-7.067-5.8C384.094 10.602 368.586 0 350.598 0c-24.754 0-44.825 20.07-44.825 44.824 0 1.078.04 2.149.118 3.207a6.308 6.308 0 01-3.93 6.297l-57.29 23.3c-4.562 1.86-4.562 8.321 0 10.18l57.29 23.301a6.306 6.306 0 013.93 6.293 43.693 43.693 0 00-.118 3.211c0 24.754 20.07 44.825 44.825 44.825 17.988 0 33.496-10.602 40.632-25.895 1.36-2.918 3.934-5.066 7.067-5.8 23.176-5.415 40.441-26.196 40.441-51.024zm0 0" fill="#f7ef87"/><path d="M350.598 165.438c16.984 0 31.75-9.45 39.351-23.375-45.437-11.946-43.426-47.493-34.246-63.993 1.5-2.699.246-6.054-2.617-7.215-24.836-10.066-30.191-48.82-13.242-69.546-19.563 4.816-34.07 22.468-34.07 43.515 0 1.047.035 2.09.109 3.117.195 2.754-1.336 5.332-3.89 6.371L244.671 77.63c-4.567 1.86-4.567 8.32 0 10.18l57.32 23.312c2.555 1.04 4.086 3.621 3.89 6.375a43.244 43.244 0 00-.112 3.117c.003 24.754 20.07 44.825 44.828 44.825zm0 0" fill="#efd176"/><path d="M189.43 82.719c0 5.523-4.48 10-10 10-5.524 0-10-4.477-10-10s4.476-10 10-10c5.52 0 10 4.476 10 10zm0 0" fill="#fff"/></svg>
