<svg viewBox="0 0 512 512" xmlns="http://www.w3.org/2000/svg" id="svg-icon"><path d="M241.002 90h-90c-8.284 0-15-6.716-15-15V15c0-8.284 6.716-15 15-15h90c8.284 0 15 6.716 15 15v60c0 8.284-6.716 15-15 15z" fill="#596c76"/><path d="M436.002 202.504c0-3.821-1.458-7.498-4.077-10.281l-120-127.5a15 15 0 00-10.923-4.719h-150a15.002 15.002 0 00-11.211 5.034l-60 67.5a15.005 15.005 0 00-3.789 9.966v264.5c0 11.514 4.347 22.033 11.486 30-7.14 7.967-11.486 18.486-11.486 30 0 24.813 20.187 45 45 45h270c24.813 0 45-20.187 45-45 0-11.514-4.347-22.033-11.486-30 7.14-7.967 11.486-18.486 11.486-30zm-69.433 42.535c-5.801 5.464-13.184 8.159-20.566 8.159-7.983 0-15.938-3.164-21.841-9.434l-68.892-73.198c-11.367-12.07-10.781-31.055 1.274-42.407 12.085-11.353 31.084-10.781 42.407 1.274l68.892 73.198c11.367 12.071 10.781 31.056-1.274 42.408z" fill="#ff6c6c"/><path d="M436.002 467.004c0-11.514-4.347-22.033-11.486-30 7.14-7.967 11.486-18.486 11.486-30v-204.5c0-3.821-1.458-7.498-4.077-10.281l-120-127.5a15 15 0 00-10.923-4.719h-45v68.693c.181-.179.356-.362.542-.537 12.085-11.353 31.084-10.781 42.407 1.274l68.892 73.198c11.367 12.07 10.781 31.055-1.274 42.407-5.801 5.464-13.184 8.159-20.566 8.159-7.983 0-15.938-3.164-21.841-9.434l-68.16-72.421v340.66h135c24.813.001 45-20.186 45-44.999z" fill="#e63950"/><path d="M256.002 422c-24.813 0-45-20.187-45-45 0-6.178 1.765-17.434 17.025-43.74 7.708-13.288 15.313-24.322 15.633-24.785a15.002 15.002 0 0124.684 0c.32.463 7.925 11.497 15.633 24.785 15.261 26.306 17.025 37.562 17.025 43.74 0 24.813-20.187 45-45 45z" fill="#ffda2d"/><path d="M301.002 377c0-6.178-1.765-17.434-17.025-43.74-7.708-13.288-15.313-24.322-15.633-24.785A15.002 15.002 0 00256.002 302v120c24.813 0 45-20.187 45-45z" fill="#fdbf00"/></svg>