<svg height="512" viewBox="0 0 510 510" width="512" xmlns="http://www.w3.org/2000/svg" id="svg-icon" xmlns:xlink="http://www.w3.org/1999/xlink"><linearGradient id="prefix__a"><stop offset="0" stop-color="#ff7044"/><stop offset=".235" stop-color="#fe653c"/><stop offset=".651" stop-color="#fb4628"/><stop offset="1" stop-color="#f82814"/></linearGradient><linearGradient id="prefix__d" gradientUnits="userSpaceOnUse" x1="301.702" x2="322.43" xlink:href="#prefix__a" y1="39.914" y2="148.488"/><linearGradient id="prefix__e" gradientUnits="userSpaceOnUse" x1="49.886" x2="172.213" xlink:href="#prefix__a" y1="143.847" y2="143.847"/><linearGradient id="prefix__f" gradientUnits="userSpaceOnUse" x1="49.846" x2="469.114" xlink:href="#prefix__a" y1="317.536" y2="317.536"/><linearGradient id="prefix__g" gradientUnits="userSpaceOnUse" x1="381.649" x2="30.925" xlink:href="#prefix__a" y1="439.705" y2="88.981"/><linearGradient id="prefix__h" gradientTransform="rotate(45 264.249 313.034)" gradientUnits="userSpaceOnUse" x1="248.816" x2="281.923" xlink:href="#prefix__a" y1="231.899" y2="231.899"/><linearGradient id="prefix__i" gradientTransform="rotate(45 264.249 313.034)" gradientUnits="userSpaceOnUse" x1="248.816" x2="281.923" xlink:href="#prefix__a" y1="407.185" y2="407.185"/><linearGradient id="prefix__j" gradientTransform="scale(-1 1) rotate(45 0 -324.757)" gradientUnits="userSpaceOnUse" x1="255.451" x2="288.559" xlink:href="#prefix__a" y1="225.264" y2="225.264"/><linearGradient id="prefix__k" gradientTransform="scale(-1 1) rotate(45 0 -324.757)" gradientUnits="userSpaceOnUse" x1="255.451" x2="288.559" xlink:href="#prefix__a" y1="400.55" y2="400.55"/><linearGradient id="prefix__b"><stop offset="0" stop-color="#f82814" stop-opacity="0"/><stop offset=".125" stop-color="#ed2819" stop-opacity=".125"/><stop offset=".452" stop-color="#d42724" stop-opacity=".452"/><stop offset=".753" stop-color="#c5272b" stop-opacity=".753"/><stop offset="1" stop-color="#c0272d"/></linearGradient><linearGradient id="prefix__l" gradientUnits="userSpaceOnUse" x1="259.48" x2="259.48" xlink:href="#prefix__b" y1="453.964" y2="508.01"/><linearGradient id="prefix__m" gradientUnits="userSpaceOnUse" x1="336.429" x2="-163.189" xlink:href="#prefix__b" y1="197.95" y2="-55.267"/><linearGradient id="prefix__n" gradientUnits="userSpaceOnUse" x1="103.707" x2="119.784" y1="55.24" y2="97.88"><stop offset="0" stop-color="#ffd945"/><stop offset=".304" stop-color="#ffcd3e"/><stop offset=".856" stop-color="#ffad2b"/><stop offset="1" stop-color="#ffa325"/></linearGradient><linearGradient id="prefix__c"><stop offset="0" stop-color="#f35227" stop-opacity="0"/><stop offset="1" stop-color="#f35227"/></linearGradient><linearGradient id="prefix__o" gradientUnits="userSpaceOnUse" x1="104.691" x2="120.943" xlink:href="#prefix__c" y1="46.206" y2="119.078"/><linearGradient id="prefix__p" gradientTransform="matrix(-1 0 0 1 -283.602 -30.476)" gradientUnits="userSpaceOnUse" x1="-399.824" x2="-386.6" xlink:href="#prefix__c" y1="81.992" y2="141.289"/><path d="M445.523 147.886H176.875a23.592 23.592 0 01-17.135-39.808l85.026-89.842C255.735 6.647 271.177 0 287.133 0h123.65c32.164 0 58.332 26.167 58.332 58.332v65.963c-.001 13.029-10.563 23.591-23.592 23.591zm-194.678-47.183h162.838a8.248 8.248 0 008.248-8.248V58.332c0-6.157-4.991-11.149-11.149-11.149h-123.65c-3.063 0-5.992 1.26-8.097 3.485l-34.181 36.117c-4.975 5.259-1.248 13.918 5.991 13.918z" fill="url(#prefix__d)"/><path d="M49.885 88.769h122.327v110.157H49.885z" fill="url(#prefix__e)"/><path d="M422.556 510H96.403c-25.713 0-46.558-20.845-46.558-46.558V125.071h419.269v338.371c0 25.713-20.844 46.558-46.558 46.558z" fill="url(#prefix__f)"/><path d="M364.719 469.173H154.241c-33.319 0-60.33-27.01-60.33-60.33V226.227c0-33.319 27.01-60.33 60.33-60.33h210.478c33.319 0 60.33 27.01 60.33 60.33v182.616c0 33.32-27.011 60.33-60.33 60.33z" fill="url(#prefix__g)"/><path d="M278.822 298.194c-8.804-8.804-8.804-23.077 0-31.881l53.382-53.382c8.804-8.804 23.077-8.804 31.881 0 8.804 8.804 8.804 23.077 0 31.881l-53.382 53.382c-8.804 8.803-23.078 8.803-31.881 0z" fill="url(#prefix__h)"/><path d="M154.876 422.14c-8.804-8.804-8.804-23.077 0-31.881l53.382-53.382c8.804-8.804 23.077-8.804 31.881 0 8.804 8.804 8.804 23.077 0 31.881l-53.382 53.382c-8.804 8.803-23.078 8.803-31.881 0z" fill="url(#prefix__i)"/><path d="M240.138 298.194c8.804-8.804 8.804-23.077 0-31.881l-53.382-53.382c-8.804-8.804-23.077-8.804-31.881 0-8.804 8.804-8.804 23.077 0 31.881l53.382 53.382c8.804 8.803 23.078 8.803 31.881 0z" fill="url(#prefix__j)"/><path d="M364.084 422.14c8.804-8.804 8.804-23.077 0-31.881l-53.382-53.382c-8.804-8.804-23.077-8.804-31.881 0-8.804 8.804-8.804 23.077 0 31.881l53.382 53.382c8.804 8.803 23.078 8.803 31.881 0z" fill="url(#prefix__k)"/><path d="M49.846 387.177v76.265C49.846 489.155 70.69 510 96.403 510h326.153c25.713 0 46.558-20.845 46.558-46.558v-76.265z" fill="url(#prefix__l)"/><path d="M469.11 58.333c0-32.169-26.16-58.329-58.329-58.329H287.13c-15.948 0-31.393 6.648-42.36 18.234l-72.557 76.668v-6.134H49.882v8.22l402.347 402.337c10.307-8.545 16.881-21.453 16.881-35.891V125.071h-.01c0-.262.01-.514.01-.776zm-47.183 34.119c0 4.561-3.691 8.252-8.241 8.252H250.841c-7.235 0-10.957-8.661-5.987-13.914l34.182-36.121a11.153 11.153 0 018.095-3.481h123.652c6.155 0 11.146 4.991 11.146 11.146v34.118z" fill="url(#prefix__m)"/><g><path d="M166.308 51.216H55.79c-8.231 0-14.904 6.673-14.904 14.904v17.184c0 8.231 6.673 14.904 14.904 14.904h110.518c8.231 0 14.904-6.673 14.904-14.904V66.121c0-8.232-6.673-14.905-14.904-14.905z" fill="url(#prefix__n)"/><path d="M147.486 51.216H74.612c-6.87 0-12.44 5.569-12.44 12.44v22.113c0 6.87 5.569 12.44 12.44 12.44h72.873c6.87 0 12.44-5.569 12.44-12.44V63.656c0-6.87-5.569-12.44-12.439-12.44z" fill="url(#prefix__o)"/><path d="M100.736 51.216h20.625a7.512 7.512 0 017.512 7.512v31.968a7.512 7.512 0 01-7.512 7.512h-20.625a7.512 7.512 0 01-7.512-7.512V58.729a7.513 7.513 0 017.512-7.513z" fill="url(#prefix__p)"/></g></svg>
