<svg viewBox="0 0 512 512" xmlns="http://www.w3.org/2000/svg"><g><g><g><g><path d="m477.102 373.694-75.929 75.929c-46.53 46.53-121.971 46.53-168.501 0-46.53-46.53-46.53-121.971 0-168.501l75.929-75.929c46.53-46.53 121.971-46.53 168.501 0 46.531 46.531 46.531 121.971 0 168.501z" fill="#d68a5a"/><path d="m308.416 459.615c-8.581 7.221-17.977 13.66-27.959 19.213-17.482-5.594-33.914-15.329-47.78-29.206-23.261-23.272-34.903-53.765-34.903-84.248 0-30.493 11.641-60.987 34.903-84.248l75.924-75.935c3.41-3.41 6.964-6.562 10.662-9.467 6.233 41.661 33.162 106.284 39.044 141.526 8.025 48.151-13.845 92.057-49.891 122.365z" fill="#c47a4a"/><path d="m335.085 448.148c-1.977 0-3.955-.755-5.463-2.263l-27.234-27.234c-3.018-3.017-3.018-7.909 0-10.927 3.017-3.017 7.909-3.017 10.927 0l27.234 27.234c3.018 3.017 3.018 7.909 0 10.927-1.509 1.509-3.487 2.263-5.464 2.263z" fill="#b76b41"/><path d="m512 289.44c0 30.493-11.641 60.987-34.903 84.258l-75.924 75.924c-40.229 40.229-102.07 45.678-148.15 16.339 38.817 9.107 81.302-1.473 111.558-31.73l75.935-75.935c23.272-23.262 34.903-53.755 34.903-84.248s-11.631-60.987-34.903-84.248c-6.315-6.315-13.166-11.765-20.398-16.359 20.882 4.883 40.702 15.473 56.979 31.75 23.262 23.262 34.903 53.755 34.903 84.249z" fill="#c47a4a"/></g><g><path d="m290.236 163.23v-11.637c0-68.546-55.567-124.113-124.113-124.113-68.546 0-124.113 55.567-124.113 124.113v11.637c0 39.213-33.693 116.89-40.353 156.821-14.943 89.594 73.634 164.465 164.465 164.465 90.832 0 179.408-74.871 164.465-164.465-6.658-39.931-40.351-117.608-40.351-156.821z" fill="#f5a871"/><path d="m280.698 442.414c-31.032 26.09-72.559 42.107-114.571 42.107-6.386 0-12.761-.369-19.093-1.096 83.687-9.505 159.26-80.083 145.372-163.369-6.67-39.936-40.358-117.617-40.358-156.826v-11.633c0-62.064-45.531-113.475-105.014-122.653 6.227-.969 12.602-1.465 19.093-1.465 68.545 0 124.108 55.563 124.108 124.118v11.633c0 39.209 33.698 116.89 40.358 156.826 8.029 48.144-13.847 92.053-49.895 122.358z" fill="#e89a5e"/><path d="m86.778 387.857c-17.245 0-31.276-14.03-31.276-31.276 0-4.267 3.459-7.726 7.726-7.726s7.726 3.459 7.726 7.726c0 8.725 7.098 15.823 15.823 15.823s15.823-7.098 15.823-15.823c0-4.267 3.459-7.726 7.726-7.726s7.726 3.459 7.726 7.726c.002 17.246-14.028 31.276-31.274 31.276z" fill="#e89a5e"/><path d="m191.637 132.395c-6.669 0-13.136-2.128-18.588-6.178-13.843-10.286-16.736-29.915-6.45-43.758 2.545-3.425 7.384-4.138 10.81-1.594 3.425 2.545 4.138 7.385 1.594 10.81-5.204 7.003-3.74 16.934 3.263 22.138 3.392 2.521 7.561 3.569 11.745 2.953 4.181-.617 7.872-2.824 10.393-6.217 2.544-3.426 7.385-4.138 10.81-1.594 3.425 2.545 4.139 7.385 1.594 10.81-4.982 6.706-12.278 11.069-20.543 12.288-1.547.229-3.093.342-4.628.342z" fill="#d68a5a"/><path d="m86.834 352.341c-.013 0-.025 0-.037 0l-.109-.001c-4.267-.02-7.71-3.495-7.691-7.762.02-4.255 3.475-7.691 7.725-7.691h.037.109c4.267.02 7.71 3.495 7.691 7.762-.02 4.256-3.475 7.692-7.725 7.692z" fill="#c47a4a"/><path d="m216.215 412.338c-.013 0-.024 0-.037 0h-.109c-4.267-.02-7.71-3.495-7.691-7.762.02-4.255 3.475-7.691 7.726-7.691h.036.109c4.267.02 7.71 3.495 7.691 7.762-.019 4.254-3.475 7.691-7.725 7.691z" fill="#e89a5e"/><path d="m151.294 396.155h-.109c-4.267 0-7.726-3.459-7.726-7.726s3.459-7.726 7.726-7.726h.109c4.267 0 7.726 3.459 7.726 7.726s-3.459 7.726-7.726 7.726z" fill="#e89a5e"/><path d="m178.538 377.555h-.109c-4.267 0-7.726-3.459-7.726-7.726s3.459-7.726 7.726-7.726h.109c4.267 0 7.726 3.459 7.726 7.726.001 4.267-3.459 7.726-7.726 7.726z" fill="#d68a5a"/><path d="m197.885 99.443c-.013 0-.024 0-.037 0l-.109-.001c-4.267-.02-7.71-3.495-7.691-7.762.02-4.255 3.475-7.691 7.726-7.691h.036l.109.001c4.267.02 7.71 3.495 7.691 7.762-.019 4.255-3.475 7.691-7.725 7.691z" fill="#c47a4a"/></g></g><g fill="#b76b41"><path d="m394.074 378.966c-.909 0-1.822-.039-2.738-.118-8.323-.717-15.869-4.633-21.247-11.025-11.103-13.197-9.399-32.965 3.798-44.067 3.266-2.748 8.139-2.327 10.886.939 2.747 3.265 2.327 8.139-.939 10.886-3.234 2.721-5.215 6.538-5.577 10.749-.363 4.211.936 8.311 3.656 11.545 2.721 3.234 6.538 5.215 10.749 5.577 4.217.366 8.311-.936 11.545-3.656 3.265-2.747 8.14-2.327 10.886.938 2.747 3.265 2.327 8.139-.938 10.886-5.688 4.786-12.733 7.346-20.081 7.346z"/><path d="m403.217 347.751c-2.208 0-4.399-.941-5.928-2.766l-.07-.083c-2.739-3.272-2.308-8.144.964-10.884 3.271-2.74 8.143-2.308 10.884.964l.07.083c2.739 3.272 2.308 8.144-.964 10.884-1.446 1.211-3.206 1.802-4.956 1.802z"/></g></g><path d="m143.308 163.232c0 4.265-3.461 7.726-7.726 7.726h-93.571c-.124 0-.247 0-.371-.021.237-2.699.371-5.275.371-7.706v-7.726h93.571c4.265.001 7.726 3.462 7.726 7.727z" fill="#c47a4a"/><path d="m197.884 214.407h-87.556c-4.267 0-7.726-3.459-7.726-7.726s3.459-7.726 7.726-7.726h87.556c4.267 0 7.726 3.459 7.726 7.726s-3.459 7.726-7.726 7.726z" fill="#d68a5a"/><g fill="#c47a4a"><path d="m244.432 289.799h-23.596c-4.267 0-7.726-3.459-7.726-7.726s3.459-7.726 7.726-7.726h23.596c4.267 0 7.726 3.459 7.726 7.726s-3.459 7.726-7.726 7.726z"/><path d="m184.433 289.799h-105.765c-4.267 0-7.726-3.459-7.726-7.726s3.459-7.726 7.726-7.726h105.765c4.267 0 7.726 3.459 7.726 7.726s-3.459 7.726-7.726 7.726z"/><path d="m406.908 266.995c-1.977 0-3.955-.754-5.463-2.263l-13.893-13.892c-3.018-3.017-3.018-7.909 0-10.927 3.017-3.017 7.909-3.018 10.927 0l13.893 13.892c3.018 3.017 3.018 7.909 0 10.927-1.509 1.508-3.486 2.263-5.464 2.263z"/></g><g fill="#b76b41"><path d="m500.524 340.495c-2.266 4.811-4.883 9.488-7.84 14.01l-57.845-57.845c-3.018-3.018-3.018-7.912 0-10.93s7.912-3.018 10.93 0z"/><path d="m404.027 446.769-2.854 2.854c-2.72 2.72-5.542 5.285-8.458 7.695l-41.928-41.928c-3.018-3.018-3.018-7.912 0-10.93s7.912-3.018 10.93 0z"/></g><path d="m309.55 348.685h-69.585c-4.231 0-7.92 3.26-8.047 7.489-.131 4.376 3.377 7.964 7.723 7.964h69.909c4.267 0 7.726-3.459 7.726-7.726 0-4.268-3.459-7.727-7.726-7.727z" fill="#e89a5e"/><path d="m125.622 132.39h-20.637c-4.267 0-7.726-3.459-7.726-7.726s3.459-7.726 7.726-7.726h20.637c4.267 0 7.726 3.459 7.726 7.726s-3.459 7.726-7.726 7.726z" fill="#c47a4a"/></g></svg>