<svg viewBox="0 0 26 26" xmlns="http://www.w3.org/2000/svg" id="svg-icon">
  <path
    d="M24.989 13.755l-3.826-8.197a4.1 4.1 0 00-3.698-2.352h-2a.818.818 0 00-.816.816c0 .45.368.816.816.816h2.005a2.46 2.46 0 012.219 1.413l2.545 5.458a5.588 5.588 0 00-1.872-.341c-2.285 0-4.249 1.362-5.162 3.305a3.238 3.238 0 00-2.183-.857c-.842 0-1.607.332-2.183.857-.913-1.943-2.877-3.305-5.162-3.305-.658 0-1.28.132-1.867.341L6.35 6.251A2.455 2.455 0 018.57 4.838h2a.819.819 0 00.816-.816.819.819 0 00-.816-.816h-2c-1.576 0-3.03.923-3.698 2.357L1.045 13.76c-1.173 1.99-1.04 3.117-1.04 3.295-.006 3.153 2.514 5.739 5.667 5.739a5.717 5.717 0 005.713-5.713c0-.903.734-1.633 1.632-1.633.898 0 1.632.73 1.632 1.633a5.717 5.717 0 005.713 5.713c3.153 0 5.637-2.535 5.637-5.688 0-.168.076-1.795-1.01-3.351z" />
  </svg>
