<svg viewBox="0 0 512 512" height="512" width="512" xmlns="http://www.w3.org/2000/svg" id="svg-icon"><path d="M352.387 333.207c45.088 0 81.639-36.551 81.639-81.639 0-37.225-24.921-68.613-58.985-78.432-4.452-1.283-8.01-4.71-9.404-9.129-14.083-44.642-63.38-68.14-106.762-51.561a14.278 14.278 0 01-14.754-2.811C229.611 96.382 210.31 88.29 189.11 88.29c-38.704 0-71.115 26.935-79.517 63.083-1.335 5.744-5.948 10.095-11.776 10.99-39.152 6.017-69.137 39.827-69.137 80.661 0 45.088 36.551 81.639 81.639 81.639z" fill="#fbf1cf"/><path d="M180.707 88.735c-34.922 3.573-63.329 29.142-71.115 62.638-1.335 5.744-5.948 10.095-11.776 10.99-39.151 6.016-69.136 39.827-69.136 80.661 0 45.088 36.551 81.639 81.639 81.639l120.98 4.27c-79.774-28.299-94.072-187.854-50.592-240.198z" fill="#f5e2a2"/><path d="M42.821 377.047c55.03-25.651 123.247 7.779 188.532 7.779s133.502-33.43 188.532-7.779c19.193-36.569 36.017-79.8 42.578-118.547 1.775-10.482-6.398-20.015-17.03-20.015H17.273c-10.631 0-18.804 9.533-17.03 20.015 6.561 38.747 23.385 81.979 42.578 118.547z" fill="#e7889d"/><path d="M42.821 377.047c34.3-15.988 73.722-9.023 114.365-1.507-14.113-44.944-15.595-96.793-11.529-137.055H17.273c-10.631 0-18.804 9.533-17.03 20.015 6.561 38.747 23.385 81.979 42.578 118.547z" fill="#e16e7e"/><path d="M231.353 384.827c-65.285 0-133.502-33.43-188.532-7.779 6.872 13.094 14.046 25.341 21.164 36.212 14.601 22.298 39.482 35.697 66.134 35.697h202.467c26.653 0 51.533-13.399 66.134-35.697 7.118-10.871 14.292-23.118 21.164-36.212-55.029-25.652-123.246 7.779-188.531 7.779z" fill="#f6ee86"/><path d="M474.511 450.806c-29.95 38.023-87.507 59.454-124.113 11.851-23.895-31.073-12.415-79.348 40.732-124.011 37.055-31.14 75.98-32.405 103.697-4.688 27.716 27.717 22.538 62.443-20.316 116.848z" fill="#f5e2a2"/><path d="M416.612 322.013c-8.488 4.004-17.034 9.533-25.482 16.633-53.147 44.663-64.626 92.938-40.732 124.011 26.497 34.456 63.967 32.739 94.003 14.746-66.431-19.601-51.554-120.103-27.789-155.39z" fill="#eed076"/><path d="M231.353 321.674a7.5 7.5 0 01-7.5-7.5v-19.702a7.5 7.5 0 0115 0v19.702a7.5 7.5 0 01-7.5 7.5z" fill="#f6ee86"/><g ><path d="M118.814 318.789a7.472 7.472 0 01-5.303-2.197L99.58 302.661a7.5 7.5 0 010-10.606 7.5 7.5 0 0110.606 0l13.931 13.932a7.5 7.5 0 01-5.303 12.802zM343.892 318.789a7.5 7.5 0 01-5.303-12.804l13.932-13.932a7.5 7.5 0 0110.606 0 7.5 7.5 0 010 10.606l-13.932 13.932a7.472 7.472 0 01-5.303 2.198z"/></g><path d="M157.188 375.54c-40.643-7.516-80.066-14.481-114.367 1.507 6.872 13.094 14.046 25.341 21.164 36.212 14.601 22.298 39.482 35.697 66.134 35.697h72.079c-21.536-18.28-35.903-44.409-45.01-73.416z" fill="#eed076"/><path d="M277.98 22.521c8.442.94 15.139 7.637 16.079 16.079 1.799 16.167.266 44.299-24.592 69.158-24.715 24.715-52.667 26.373-68.877 24.623a18.45 18.45 0 01-16.39-16.39c-1.75-16.21-.092-44.162 24.623-68.877 24.857-24.858 52.99-26.392 69.157-24.593z" fill="#88d37f"/><g fill="#5ec682"><path d="M220.819 36.982c-4.041 2.846-8.06 6.194-11.997 10.131-24.715 24.715-26.373 52.667-24.623 68.877a18.45 18.45 0 0016.39 16.39c14.145 1.527 37.231.455 59.305-16.264-43.234-12.092-45.399-54.957-39.075-79.134z"/><path d="M229.444 94.636a7.5 7.5 0 01-5.303-12.804l19.444-19.444a7.5 7.5 0 0110.606 0 7.5 7.5 0 010 10.606L234.747 92.44a7.477 7.477 0 01-5.303 2.196z"/></g><g><path d="M91.839 57.624c.94-8.442 7.637-15.139 16.079-16.079 16.167-1.799 44.3-.266 69.158 24.592 24.715 24.715 26.373 52.666 24.623 68.877a18.449 18.449 0 01-16.39 16.39c-16.21 1.75-44.162.092-68.877-24.623-24.859-24.857-26.392-52.99-24.593-69.157z" fill="#88d37f"/><path d="M156.454 113.66a7.474 7.474 0 01-5.303-2.197L131.706 92.02a7.5 7.5 0 010-10.606 7.5 7.5 0 0110.606 0l19.444 19.444a7.5 7.5 0 01-5.302 12.802z" fill="#5ec682"/></g><g><circle cx="378.584" cy="423.199" fill="#f5e2a2" r="7.369"/><g fill="#eed076"><circle cx="439.335" cy="439.692" transform="rotate(-13.34 438.309 438.729)" r="7.369"/><circle cx="470.075" cy="385.966" transform="rotate(-13.77 469.103 385.37)" r="7.369"/><circle cx="412.516" cy="371.227" r="7.369"/></g></g></svg>
