<svg viewBox="0 0 512 512" xmlns="http://www.w3.org/2000/svg" id="svg-icon"><path clip-rule="evenodd" d="M159.674 337.707l-13.42-50.651-23.78 12.008c-4.974 2.502-6.004 6.004-6.004 10.801v43.441c0 4.797 1.03 8.3 6.004 10.801l23.78 12.008zM146.253 287.056l10.801-41.027-10.801-48.032-23.78 12.008c-4.974 2.502-6.004 6.004-6.004 10.801v43.441c0 4.797 1.03 8.3 6.004 10.801zM335.315 137.427h-33.992c-5.474 0-9.948 4.503-9.948 9.977v34.052l29.107 11.92 24.81-11.92v-34.052c0-5.474-4.503-9.977-9.977-9.977z" fill="#f9f6f6" fill-rule="evenodd"/><path clip-rule="evenodd" d="M222.155 147.522l-8.358-133.059c-1.236-19.219-25.663-19.336-26.87 0l-8.358 133 21.514 16.982z" fill="#365e7d" fill-rule="evenodd"/><path clip-rule="evenodd" d="M146.253 350.157l-23.78-12.008c-4.915-2.472-6.004-5.916-6.004-10.654v25.811c0 4.797 1.03 8.3 6.004 10.801l23.78 12.008v-7.652zM146.253 261.098l-23.78-12.008c-4.915-2.472-6.004-5.916-6.004-10.654v25.811c0 4.797 1.03 8.3 6.004 10.801l23.78 12.008z" fill="#ecdaec" fill-rule="evenodd"/><path clip-rule="evenodd" d="M222.155 147.522l-8.358-133.059c-.912-14.421-14.862-18.071-22.308-10.89 2.443 2.413 4.15 6.004 4.444 10.742l8.388 133.089h15.745c.706 0 1.412.03 2.089.118z" fill="#2b4d66" fill-rule="evenodd"/><path clip-rule="evenodd" d="M345.292 147.404c0-5.474-4.503-9.977-9.977-9.977H319.07c4.738.795 8.358 4.915 8.358 9.86v34.052h-36.052v.118h53.916z" fill="#ecdaec" fill-rule="evenodd"/><path clip-rule="evenodd" d="M236.841 164.18c0-8.535-6.416-15.628-14.686-16.658-10.86-1.354-30.313-.118-42.086-.118-9.212 0-16.775 7.534-16.775 16.776v17.276l37.642 18.689 35.905-18.689z" fill="#f9f6f6" fill-rule="evenodd"/><path clip-rule="evenodd" d="M236.841 164.18c0-8.535-6.416-15.628-14.686-16.658a16.327 16.327 0 00-2.09-.118H204.32c8.241 1.03 14.686 8.123 14.686 16.658v17.394h17.835z" fill="#ecdaec" fill-rule="evenodd"/><path clip-rule="evenodd" d="M166.708 181.456c-11.242 0-20.454 7.446-20.454 16.54V497.43c0 8.005 8.123 14.569 18.07 14.569h183.352c9.918 0 18.07-6.563 18.07-14.569V197.997c0-9.094-9.212-16.54-20.454-16.54H291.375l-124.667-.001z" fill="#365e7d" fill-rule="evenodd"/><path clip-rule="evenodd" d="M319.541 277.668H190.429c-5.356 0-9.742 4.415-9.742 9.771v46.001c0 5.356 4.385 9.742 9.742 9.742h129.112c5.356 0 9.771-4.385 9.771-9.742v-46.001c0-5.357-4.415-9.771-9.771-9.771zM280.722 214.832h-51.474c-7.446 0-13.538 6.092-13.538 13.538v13.509h78.55V228.37c0-7.446-6.092-13.538-13.538-13.538z" fill="#90d8f9" fill-rule="evenodd"/><path clip-rule="evenodd" d="M389.526 210.005l-23.809-12.008.029 184.093 23.78-12.008c4.974-2.502 6.004-6.004 6.004-10.801V220.807c0-4.798-1.03-8.301-6.004-10.802z" fill="#f9f6f6" fill-rule="evenodd"/><path clip-rule="evenodd" d="M365.747 382.09V197.997c0-9.094-9.212-16.54-20.454-16.54h-26.016c11.242 0 20.454 7.446 20.454 16.54V497.431c0 8.005-8.123 14.569-18.041 14.569h25.987c9.918 0 18.07-6.563 18.041-14.569z" fill="#2b4d66" fill-rule="evenodd"/><path clip-rule="evenodd" d="M395.53 333.352c0 4.797-1.03 8.27-6.004 10.772l-23.809 12.008.029 25.958 23.78-12.008c4.974-2.502 6.004-6.004 6.004-10.801z" fill="#ecdaec" fill-rule="evenodd"/><path clip-rule="evenodd" d="M319.541 277.668H190.429c-5.356 0-9.742 4.415-9.742 9.771v7.77h121.548c5.356 0 9.771 4.385 9.771 9.771v38.202h7.534c5.356 0 9.771-4.385 9.771-9.742v-46.001c.001-5.357-4.414-9.771-9.77-9.771zM294.26 228.37c0-7.446-6.092-13.538-13.538-13.538H259.12c7.446 0 13.509 6.092 13.509 13.538v13.509h21.631z" fill="#75cef8" fill-rule="evenodd"/><path d="M210.942 389.816h-22.72a7.726 7.726 0 110-15.452h22.72a7.726 7.726 0 110 15.452zM210.942 421.014h-22.72a7.726 7.726 0 110-15.452h22.72a7.727 7.727 0 010 15.452zM266.124 389.816h-22.72a7.726 7.726 0 110-15.452h22.72a7.726 7.726 0 110 15.452zM266.124 421.014h-22.72a7.726 7.726 0 110-15.452h22.72a7.727 7.727 0 010 15.452zM210.942 452.24h-22.72a7.726 7.726 0 110-15.452h22.72a7.726 7.726 0 110 15.452zM266.124 452.24h-22.72a7.726 7.726 0 110-15.452h22.72a7.726 7.726 0 110 15.452zM321.336 389.816h-22.72a7.726 7.726 0 110-15.452h22.72c4.268 0 7.726 3.459 7.726 7.726s-3.458 7.726-7.726 7.726zM321.336 421.014h-22.72a7.726 7.726 0 110-15.452h22.72a7.726 7.726 0 110 15.452zM321.336 452.24h-22.72a7.726 7.726 0 110-15.452h22.72c4.268 0 7.726 3.459 7.726 7.726s-3.458 7.726-7.726 7.726z" fill="#ecdaec"/><path d="M210.942 483.438h-22.72a7.726 7.726 0 110-15.452h22.72a7.727 7.727 0 010 15.452z" fill="#dd636e"/><path d="M266.124 483.438h-22.72a7.726 7.726 0 110-15.452h22.72a7.727 7.727 0 010 15.452z" fill="#ecdaec"/><path d="M321.336 483.438h-22.72a7.726 7.726 0 110-15.452h22.72a7.726 7.726 0 110 15.452z" fill="#78c2a4"/></svg>