<svg viewBox="0 0 512 512" height="512" width="512" xmlns="http://www.w3.org/2000/svg" id="svg-icon"><path d="M512 15c0-8.291-6.709-15-15-15h-46l-15 30-15-30h-90l-15 30-15-30H91L76 30 61 0H15C6.709 0 0 6.709 0 15v166l30 15-30 15v286c0 8.291 6.709 15 15 15h166l15-30 15 30h30l15-30 15 30h150l15-30 15 30h46c8.291 0 15-6.709 15-15V331l-30-15 30-15z" fill="#90e36a"/><path d="M421 512l15-30 15 30h46c8.291 0 15-6.709 15-15V331l-30-15 30-15V15c0-8.291-6.709-15-15-15h-46l-15 30-15-30h-90l-15 30-15-30h-45v482l15 30z" fill="#00aa63"/><path d="M76 181H0v30h76c8.291 0 15-6.709 15-15s-6.709-15-15-15zM136 421h45v91h30V406c0-8.291-6.709-15-15-15h-60c-8.291 0-15 6.709-15 15s6.709 15 15 15z" fill="#f0f7ff"/><g fill="#dfe7f4"><path d="M451 512V376c0-8.291-6.709-15-15-15s-15 6.709-15 15v136zM512 301H346c-8.291 0-15 6.709-15 15v60c0 8.291 6.709 15 15 15s15-6.709 15-15v-45h151zM421 0v61h-45c-8.291 0-15 6.709-15 15s6.709 15 15 15h45v120H316c-8.291 0-15 6.709-15 15s6.709 15 15 15h120c8.291 0 15-6.709 15-15V0z"/><path d="M376 121h-45V0h-30v136c0 8.291 6.709 15 15 15h60c8.291 0 15-6.709 15-15s-6.709-15-15-15z"/></g><path d="M196 91H91V0H61v106c0 8.291 6.709 15 15 15h120c8.291 0 15-6.709 15-15s-6.709-15-15-15zM256 301h-45V196c0-8.291-6.709-15-15-15s-15 6.709-15 15v105h-60v-75c0-8.291-6.709-15-15-15s-15 6.709-15 15v90c0 8.291 6.709 15 15 15h135v181h30V316c0-8.291-6.709-15-15-15z" fill="#f0f7ff"/><path d="M271 316c0-8.291-6.709-15-15-15v211h15z" fill="#dfe7f4"/><path d="M226 151c-24.814 0-45-20.186-45-45s20.186-45 45-45 45 20.186 45 45-20.186 45-45 45zM106 241c-24.814 0-45-20.186-45-45s20.186-45 45-45 45 20.186 45 45-20.186 45-45 45z" fill="#f0f7ff"/><path d="M286 271c-24.814 0-45-20.186-45-45s20.186-45 45-45 45 20.186 45 45-20.186 45-45 45zM346 451c-24.814 0-45-20.186-45-45s20.186-45 45-45 45 20.186 45 45-20.186 45-45 45z" fill="#dfe7f4"/><path d="M106 451c-24.814 0-45-20.186-45-45s20.186-45 45-45 45 20.186 45 45-20.186 45-45 45z" fill="#f0f7ff"/></svg>
