<svg viewBox="0 0 512 512" height="512" width="512" xmlns="http://www.w3.org/2000/svg" id="svg-icon"><path d="M232 248L120.569 359.431a56.569 56.569 0 00-16.569 40A56.568 56.568 0 00160.568 456a56.569 56.569 0 0040-16.569L288 352l24 24-85.49 85.49a90.51 90.51 0 01-64 26.51A90.51 90.51 0 0172 397.49a90.51 90.51 0 0126.51-64L208 224zM272 208l87.431-87.431a56.569 56.569 0 0140-16.569A56.568 56.568 0 01456 160.568a56.569 56.569 0 01-16.569 40L352 288l24 24 85.49-85.49a90.51 90.51 0 0026.51-64A90.51 90.51 0 00397.49 72a90.51 90.51 0 00-64 26.51L248 184z" fill="#bc8d5d"/><path d="M208 224L96.569 335.431a56.569 56.569 0 00-16.569 40A56.568 56.568 0 00136.568 432a56.569 56.569 0 0040-16.569L264 328l24 24-85.49 85.49a90.51 90.51 0 01-64 26.51A90.51 90.51 0 0148 373.49a90.51 90.51 0 0126.51-64L184 200zM248 184l87.431-87.431a56.569 56.569 0 0140-16.569A56.568 56.568 0 01432 136.568a56.569 56.569 0 01-16.569 40L328 264l24 24 85.49-85.49a90.51 90.51 0 0026.51-64A90.51 90.51 0 00373.49 48a90.51 90.51 0 00-64 26.51L224 160z" fill="#a1764a"/><path d="M184 200L72.569 311.431a56.569 56.569 0 00-16.569 40A56.568 56.568 0 00112.568 408a56.569 56.569 0 0040-16.569L240 304l24 24-85.49 85.49a90.51 90.51 0 01-64 26.51A90.51 90.51 0 0124 349.49a90.51 90.51 0 0126.51-64L160 176zM224 160l87.431-87.431a56.569 56.569 0 0140-16.569A56.568 56.568 0 01408 112.568a56.569 56.569 0 01-16.569 40L304 240l24 24 85.49-85.49a90.51 90.51 0 0026.51-64A90.51 90.51 0 00349.49 24a90.51 90.51 0 00-64 26.51L200 136z" fill="#bc8d5d"/><path d="M355.932 284.01l15.997-15.998 23.996 23.996-15.997 15.998zM307.942 236.01l15.997-15.998 23.996 23.996-15.997 15.998z" fill="#a1764a"/><path d="M331.937 260.01l15.997-15.998 23.996 23.996-15.997 15.998z" fill="#8c6231"/><path d="M251.954 180.01l15.997-15.998 23.996 23.996-15.997 15.998zM203.965 132.01l15.997-15.998 23.996 23.996-15.997 15.998z" fill="#a1764a"/><path d="M227.959 156.01l15.997-15.998 23.996 23.996-15.997 15.998z" fill="#8c6231"/><path d="M163.954 267.992l15.997-15.998 23.996 23.996-15.997 15.998zM115.965 219.992l15.997-15.998 23.996 23.996-15.997 15.998z" fill="#a1764a"/><g fill="#8c6231"><path d="M139.959 243.992l15.997-15.998 23.996 23.996-15.997 15.998zM243.932 395.986l15.997-15.998 23.996 23.996-15.997 15.998zM195.942 347.986l15.997-15.998 23.996 23.996-15.997 15.998z"/></g><path d="M219.937 371.986l15.997-15.998 23.996 23.996-15.997 15.998z" fill="#7d572a"/><path d="M488 240v32h-15.43a136.482 136.482 0 00-74.47 22.1 134.14 134.14 0 00-18.01 13.99c-1.39 1.26-2.75 2.57-4.09 3.91l-24-24 8-8a136.617 136.617 0 0196.57-40z" fill="#a1764a"/><rect fill="#bc8d5d" height="305.47" rx="16.971" transform="rotate(-45 279.979 232.069)" width="33.941" x="263.029" y="79.265"/><rect fill="#a1764a" height="305.47" rx="16.971" transform="rotate(-45 255.972 256.066)" width="33.941" x="239.029" y="103.265"/><path d="M123.961 172.011a16.968 16.968 0 0123.997 0l191.97 191.971a16.968 16.968 0 010 23.997 16.968 16.968 0 01-23.996 0l-191.97-191.971a16.968 16.968 0 010-23.997z" fill="#bc8d5d"/><rect fill="#a1764a" height="135.765" rx="16.971" transform="rotate(-45 259.955 356.075)" width="33.941" x="243.029" y="288.118"/><path d="M398.1 294.1a134.14 134.14 0 00-18.01 13.99L356 284l4-4a135.508 135.508 0 0112.75-11.25z" fill="#8c6231"/></svg>
