<?xml version="1.0" encoding="iso-8859-1"?>
<svg version="1.1" xmlns="http://www.w3.org/2000/svg"
	 viewBox="0 0 472 472">
<path style="fill:#557C3E;" d="M296.16,367.84c-3.122-3.126-8.188-3.129-11.314-0.006c-0.002,0.002-0.004,0.004-0.006,0.006
	L224,428.688V392c4.418,0,8-3.582,8-8s-3.582-8-8-8v-24c4.418,0,8-3.582,8-8s-3.582-8-8-8v-48c4.418,0,8-3.582,8-8s-3.582-8-8-8v-56
	c0-4.418-3.582-8-8-8s-8,3.582-8,8v88c-4.418,0-8,3.582-8,8s3.582,8,8,8v52.688l-55.2-55.2c-2.994-3.249-8.056-3.455-11.304-0.46
	c-3.249,2.995-3.455,8.056-0.46,11.304c0.15,0.162,0.306,0.319,0.469,0.468L208,395.312V408c-4.418,0-8,3.582-8,8s3.582,8,8,8v24
	c-4.418,0-8,3.582-8,8s3.582,8,8,8c0,4.418,3.582,8,8,8s8-3.582,8-8v-12.688l72.16-72.112c3.137-3.111,3.158-8.177,0.046-11.314
	C296.191,367.871,296.176,367.855,296.16,367.84z"/>
<path style="fill:#DB1F2D;" d="M199.808,87.344c-8.045-28.376-25.866-52.993-50.312-69.496l-6.328,4.656l6.328-4.656
	C133.846,6.69,115.214,0.474,96,0l15.256,55.952c5.789,21.22,8.043,43.248,6.672,65.2c-2.015,32.359,13.701,63.259,41.04,80.688
	L168,190.672C168.944,153.967,179.946,118.225,199.808,87.344L199.808,87.344z"/>
<path style="fill:#CC152B;" d="M199.808,87.344c17.785-29.236,42.228-53.854,71.336-71.848C246.56-0.152,183.656-7.744,152,16
	l-2.504,1.848C173.942,34.351,191.763,58.968,199.808,87.344L199.808,87.344z"/>
<path style="fill:#446331;" d="M241.856,182.144l-0.712,0.712c-4.141,4.144-10.858,4.146-15.002,0.005
	c-0.491-0.49-0.932-1.028-1.318-1.605c-3.244-4.873-9.824-6.194-14.697-2.951c-1.169,0.778-2.172,1.781-2.951,2.951
	c-3.258,4.869-9.846,6.176-14.715,2.918c-0.577-0.386-1.114-0.827-1.605-1.318l-1.448-1.448c-3.228-3.232-8.162-4.034-12.248-1.992
	L168,190.672c0,1.6-0.064,3.2,0,4.8c0-1.6,0-3.2,0-4.8l-9.064,11.2c14.336,9.237,31.033,14.143,48.088,14.128h9.952
	c19.112,0.016,37.718-6.14,53.048-17.552L255.2,180.8C250.998,178.02,245.419,178.581,241.856,182.144z"/>
<path style="fill:#ED1C24;" d="M328,0h-8c-17.357,0.823-34.198,6.165-48.856,15.496c0.272,0.176,0.6,0.328,0.856,0.504
	c-0.256-0.176-0.584-0.328-0.856-0.504c-29.108,17.994-53.551,42.612-71.336,71.848c0.056,0.224,0.136,0.44,0.192,0.656
	c-0.056-0.216-0.136-0.432-0.192-0.656c-19.862,30.881-30.864,66.623-31.808,103.328l9.128-11.256
	c4.086-2.042,9.02-1.24,12.248,1.992l1.448,1.448c4.141,4.144,10.858,4.146,15.002,0.005c0.491-0.49,0.932-1.028,1.318-1.605
	c3.244-4.873,9.824-6.194,14.697-2.951c1.169,0.778,2.172,1.781,2.951,2.951c3.258,4.869,9.846,6.176,14.715,2.918
	c0.577-0.386,1.114-0.827,1.605-1.318l0.712-0.712c3.568-3.58,9.167-4.142,13.376-1.344l14.792,17.6
	c24.371-17.962,37.949-47.073,36.048-77.288c-1.371-21.952,0.883-43.98,6.672-65.2L328,0z"/>
<path style="fill:#557C3E;" d="M216,256h-8c-4.418,0-8-3.582-8-8s3.582-8,8-8h8c4.418,0,8,3.582,8,8S220.418,256,216,256z"/>
<g>
	<path style="fill:#39B54A;" d="M272,392c0-66.274,53.726-120,120-120C392,338.274,338.274,392,272,392z"/>
	<path style="fill:#39B54A;" d="M80,256c48.601,0,88,39.399,88,88l0,0C119.399,344,80,304.601,80,256L80,256z"/>
</g>
</svg>
