<svg viewBox="0 0 64 64" xmlns="http://www.w3.org/2000/svg"><g id="flat"><path d="m3.289 33a4.02 4.02 0 0 1 0-2.966 4.164 4.164 0 0 1 2.011-1.978 17.588 17.588 0 0 1 6.028-1.978c5.27-.851 4.909-10.338 10.047-11.865 3.327-.989 8.322 1.55 10.047 5.933s-.742 8.733-3.014 10.876a10.541 10.541 0 0 1 -3.016 1.978z" fill="#8ec13f"/><path d="m17.982 32.978a1.01 1.01 0 0 1 .14-1.386 17.417 17.417 0 0 0 2.094-2.212 18.383 18.383 0 0 0 3.664-8.553.992.992 0 0 1 1.093-.827 1 1 0 0 1 .884 1.131 20.32 20.32 0 0 1 -4.074 9.492 19.345 19.345 0 0 1 -2.374 2.5.994.994 0 0 1 -1.427-.145z" fill="#c8d952"/><path d="m34 33c.063-1.7.423-3.942 2-5 2.852-1.912 7.259 1.677 9 0 1.675-1.614-1.8-5.52 0-9 1.279-2.469 5.154-4.6 8-3 2.684 1.511 2.491 5.865 2 8-.5 2.191-2.439 3.115-2 4 .416.837 2.079.279 4 1a7.83 7.83 0 0 1 4 4z" fill="#55b56a"/><path d="m48.986 34.483-1.972-.326c.28-1.692.621-3.4 1.012-5.065.483-2.057 1.057-4.115 1.709-6.132a1 1 0 0 1 1.276-.636 1 1 0 0 1 .626 1.254c-.634 1.963-1.193 3.968-1.663 5.971-.382 1.626-.714 3.286-.988 4.934z" fill="#c8d952"/><path d="m13.792 33a80.356 80.356 0 0 1 -6.753-9c-3.068-4.744-4.588-7.154-3.858-9 1.2-3.035 7.554-4.322 11.576-2 5.268 3.042 6.469 11.6 4.039 17a12.023 12.023 0 0 1 -2.11 3z" fill="#55b56a"/><path d="m16.977 32a1 1 0 0 1 -1.144-.8 25.768 25.768 0 0 0 -.781-2.891 26.948 26.948 0 0 0 -7.006-10.898 1 1 0 0 1 -.06-1.4 1 1 0 0 1 1.433-.059 28.913 28.913 0 0 1 7.529 11.726 27.331 27.331 0 0 1 .852 3.152 1 1 0 0 1 -.821 1.17z" fill="#c8d952"/><path d="m40 30.06a7 7 0 0 1 -14-.06 5.616 5.616 0 0 1 .07-.92l.54-1.93a6.941 6.941 0 0 1 5.39-4.07h2a6.968 6.968 0 0 1 5.72 4.96z" fill="#e4544f"/><g fill="#f9bb4b"><path d="m34 23.08v2.92h-2v-2.92a6.29 6.29 0 0 1 2 0z"/><path d="m29.32 28.05-.64 1.9-2.61-.87a6.291 6.291 0 0 1 .54-1.93z"/><path d="m40 30v.06l-2.68.89-.64-1.9 3.04-1.01a7.033 7.033 0 0 1 .28 1.96z"/><path d="m32 28h2v2h-2z"/></g><path d="m47 6v2a8 8 0 0 1 -8 8h-4v-2a8 8 0 0 1 8-8z" fill="#8ec13f"/><path d="m42.65 10.76-6.11 5.24h-1.54v-1.32l6.35-5.44z" fill="#3e8051"/><circle cx="28" cy="8" fill="#f9bb4b" r="2"/><circle cx="15" cy="5" fill="#f9bb4b" r="2"/><path d="m3 33h58a0 0 0 0 1 0 0 28 28 0 0 1 -28 28h-2a28 28 0 0 1 -28-28 0 0 0 0 1 0 0z" fill="#87cee9"/><path d="m20.565 54.9a27.157 27.157 0 0 1 -11.42-10.381l1.71-1.038a25.172 25.172 0 0 0 10.58 9.619z" fill="#f4f4e6"/><path d="m23 54h2v2h-2z" fill="#f4f4e6"/></g></svg>