<?xml version="1.0" encoding="iso-8859-1"?>
<svg version="1.1" xmlns="http://www.w3.org/2000/svg"
	 viewBox="0 0 512 512">
<path style="fill:#915729;" d="M163.716,181.626c13.668,13.668,35.829,13.668,49.497,0c2.683-2.683,4.832-5.697,6.461-8.907
	c2.787-1.215,5.401-2.955,7.681-5.236c9.763-9.763,9.763-25.592,0-35.355c-5.956-5.956-14.169-8.272-21.885-6.96
	c-0.799-1.294-1.741-2.524-2.863-3.646c-7.811-7.811-20.474-7.81-28.284,0c-1.586,1.586-2.833,3.378-3.775,5.284
	c-2.436,1.453-4.734,3.226-6.832,5.323c-3.039,3.039-5.398,6.499-7.086,10.191c-2.585,0.628-5.038,1.933-7.056,3.952
	c-5.858,5.858-5.858,15.355,0,21.213c2.018,2.018,4.472,3.324,7.056,3.951C158.317,175.127,160.677,178.587,163.716,181.626z"/>
<path style="fill:#AD712C;" d="M207.324,124.924c-0.62,0.058-1.238,0.14-1.854,0.244c-0.799-1.294-1.741-2.524-2.863-3.646
	c-7.811-7.811-20.474-7.811-28.284,0c-1.586,1.586-2.833,3.378-3.775,5.284c-2.436,1.453-4.735,3.226-6.832,5.323
	c-3.039,3.039-5.398,6.499-7.086,10.191c-2.584,0.627-5.038,1.933-7.056,3.952c-0.012,0.012-0.024,0.024-0.036,0.036
	c-2.001,2.015-2.314,5.206-0.831,7.628c1.843,3.01,4.182,5.802,7.022,8.256c13.139,11.353,33.011,11.211,46.013-0.299
	c3.428-3.035,6.097-6.572,8.033-10.385c2.787-1.215,5.401-2.955,7.681-5.236c0.046-0.046,0.091-0.092,0.137-0.138
	C225.751,137.849,218.9,123.835,207.324,124.924z"/>
<g>
	<circle style="fill:#915729;" cx="193.89" cy="144.152" r="7.5"/>
	<circle style="fill:#915729;" cx="178.33" cy="161.122" r="7.5"/>
</g>
<path style="fill:#D9B43A;" d="M300,123.341c-34.704,0-63.978,23.692-72.497,55.751L295,226.008l79.105-16.073
	c0.589-3.78,0.895-7.652,0.895-11.594C375,156.986,341.355,123.341,300,123.341z"/>
<path style="fill:#915729;" d="M327.161,203.931c0-19.33,15.67-35,35-35c3.795,0,7.445,0.612,10.867,1.729
	c2.83-1.112,5.909-1.729,9.133-1.729c13.807,0,25,11.193,25,25c0,8.423-4.17,15.868-10.553,20.397
	c0.349,1.48,0.553,3.016,0.553,4.603c0,11.046-8.954,20-20,20c-2.243,0-4.392-0.386-6.405-1.067
	c-2.75,0.695-5.629,1.067-8.595,1.067c-4.298,0-8.412-0.778-12.216-2.195c-2.271,1.384-4.929,2.195-7.784,2.195
	c-8.284,0-15-6.716-15-15c0-2.854,0.812-5.513,2.196-7.784C327.94,212.344,327.161,208.229,327.161,203.931z"/>
<path style="fill:#AD712C;" d="M382.234,168.931h-0.073c-3.225,0-6.303,0.617-9.133,1.729c-4.071-1.329-8.465-1.943-13.042-1.662
	c-17.335,1.063-31.48,15.025-32.731,32.348c-0.378,5.234,0.403,10.242,2.102,14.802v0.001l3.869,2.153
	c2.653,1.476,5.534,2.5,8.525,3.027l0,0c3.961,0.699,8.025,0.548,11.923-0.444l0.083-0.021c2.013,0.681,4.162,1.067,6.405,1.067
	c11.046,0,20-8.954,20-20c0-1.587-0.204-3.123-0.553-4.603c6.383-4.529,10.553-11.974,10.553-20.397v-0.073
	C390.161,172.498,386.594,168.931,382.234,168.931z"/>
<circle style="fill:#915729;" cx="363.33" cy="190.762" r="7.5"/>
<path style="fill:#F6D445;" d="M449.431,293.197c-8.62-49.281-51.72-86.856-103.431-86.856c-17.175,0-33.4,4.146-47.728,11.488
	c-24.579-25.558-59.098-41.488-97.272-41.488c-68.393,0-125.071,51.122-133.826,117.161c-1.415,10.669,1.637,21.453,8.245,29.948
	L101,356.341h310.5l29.288-37.294C448.329,309.445,450.168,297.41,449.431,293.197z"/>
<path style="fill:#915729;" d="M251.161,335.931c0,19.33-15.67,35-35,35c-3.795,0-7.445-0.612-10.867-1.729
	c-2.83,1.112-5.909,1.729-9.133,1.729c-13.807,0-25-11.193-25-25c0-8.423,4.17-15.868,10.553-20.397
	c-0.349-1.48-0.553-3.016-0.553-4.603c0-11.046,8.954-20,20-20c2.243,0,4.392,0.386,6.405,1.067c2.75-0.695,5.629-1.067,8.595-1.067
	c4.298,0,8.412,0.778,12.216,2.195c2.271-1.384,4.929-2.195,7.784-2.195c8.284,0,15,6.716,15,15c0,2.854-0.812,5.513-2.196,7.784
	C250.383,327.519,251.161,331.634,251.161,335.931z"/>
<path style="fill:#AD712C;" d="M180.231,326.672c0.48-0.397,0.975-0.777,1.484-1.138c-0.35-1.48-0.554-3.016-0.554-4.603
	c0-11.046,8.954-20,20-20c2.243,0,4.392,0.386,6.405,1.067c2.75-0.695,5.629-1.067,8.595-1.067c4.298,0,8.412,0.778,12.216,2.195
	c2.271-1.384,4.929-2.195,7.784-2.195c0.017,0,0.034,0,0.051,0c2.84,0.01,5.318,2.044,5.982,4.806
	c0.825,3.432,1.146,7.06,0.873,10.804c-1.263,17.319-15.415,31.27-32.748,32.324c-4.57,0.278-8.959-0.336-13.024-1.663
	c-2.83,1.112-5.909,1.729-9.133,1.729c-0.065,0-0.129,0-0.194-0.001C176.34,348.842,171.276,334.088,180.231,326.672z"/>
<circle style="fill:#915729;" cx="210.33" cy="329.762" r="7.5"/>
<path style="fill:#C1BDAB;" d="M423.574,396.341H88.426c-7.956,0-15.587-3.161-21.213-8.787L36,356.341h440l-31.213,31.213
	C439.161,393.18,431.53,396.341,423.574,396.341z"/>
<path style="fill:#E7E4CD;" d="M489.5,371.341h-467c-8.284,0-15-6.716-15-15l0,0c0-8.284,6.716-15,15-15h467c8.284,0,15,6.716,15,15
	l0,0C504.5,364.626,497.784,371.341,489.5,371.341z"/>
<circle cx="193.89" cy="144.152" r="7.5"/>
<circle cx="178.33" cy="161.122" r="7.5"/>
<circle cx="363.33" cy="190.762" r="7.5"/>
<path d="M489.5,333.841h-48.66c1.691-1.663,3.296-3.437,4.777-5.346c9.968-12.85,13.386-29.232,9.396-44.968
	c-0.012-0.051-0.018-0.103-0.031-0.154c-7.36-28.662-25.355-52.326-49.098-67.261c5.572-5.967,8.778-13.884,8.778-22.182
	c0-17.921-14.579-32.5-32.5-32.5c-2.683,0-5.325,0.347-7.902,0.995c-13.771-28.413-42.54-46.585-74.259-46.585
	c-22.667,0-43.851,9.472-59.079,25.059c-1.46-5.158-4.21-10.023-8.262-14.076c-6.135-6.134-14.45-9.51-23.006-9.51
	c-0.234,0-0.469,0.002-0.702,0.008c-0.339-0.38-0.686-0.748-1.041-1.104c-5.194-5.195-12.101-8.056-19.446-8.056
	s-14.251,2.861-19.445,8.055c-1.58,1.581-2.958,3.352-4.115,5.283c-2.328,1.553-4.504,3.337-6.49,5.323
	c-2.804,2.803-5.18,5.948-7.089,9.38c-2.628,1.12-5.024,2.733-7.055,4.763c-8.771,8.772-8.771,23.047,0.002,31.821
	c2.093,2.092,4.582,3.733,7.309,4.857c-12.871,4.774-25.07,11.444-36.299,19.924c-24.064,18.174-42.084,43.982-50.74,72.672
	c-2.581,8.554-4.358,17.414-5.283,26.351c-0.023,0.231-0.048,0.526-0.071,0.885c-0.881,13.393,3.704,26.182,12.907,36.01
	c0.114,0.122,0.235,0.234,0.35,0.354H22.5c-12.406,0-22.5,10.094-22.5,22.5s10.094,22.5,22.5,22.5h25.394l14.015,14.017
	c7.083,7.082,16.5,10.982,26.518,10.982h335.146c10.018,0,19.435-3.9,26.518-10.983l14.015-14.016H489.5
	c12.406,0,22.5-10.094,22.5-22.5S501.906,333.841,489.5,333.841z M440.438,287.055c0.004,0.015,0.005,0.029,0.009,0.043
	c2.893,11.262,0.456,23-6.684,32.204c-7.166,9.24-17.979,14.539-29.668,14.539h-61.643v-22.509c0-2.178-0.066-4.345-0.163-6.507
	c1.275-0.733,2.738-1.079,4.279-0.964c3.887,0.278,6.931,3.756,6.931,7.918c0,4.143,3.357,7.5,7.5,7.5s7.5-3.357,7.5-7.5
	c0-11.994-9.164-22.044-20.86-22.879c-2.325-0.166-4.635,0.035-6.855,0.564c-0.756-4.977-1.764-9.886-3.02-14.71
	c2.687-0.604,5.441-0.914,8.235-0.914c17.16,0,32.105,11.612,36.344,28.239c2.517,9.869,11.461,16.761,21.752,16.761
	c7.018,0,13.512-3.183,17.816-8.732c4.276-5.514,5.737-12.541,4.007-19.279c-9.372-36.498-42.236-61.988-79.919-61.988
	c-4.143,0-7.5,3.357-7.5,7.5s3.357,7.5,7.5,7.5c30.832,0,57.722,20.856,65.39,50.719c0.569,2.216,0.084,4.532-1.33,6.355
	c-1.442,1.859-3.616,2.926-5.964,2.926c-3.429,0-6.396-2.248-7.217-5.466c-5.934-23.277-26.856-39.534-50.879-39.534
	c-4.34,0-8.612,0.539-12.768,1.583c-5.435-14.477-13.161-27.936-22.853-39.846c11.304-4.469,23.247-6.737,35.621-6.737
	C390.519,213.841,429.345,243.946,440.438,287.055z M321.48,191.64c-2.859-9.144-11.407-15.798-21.48-15.798
	c-4.143,0-7.5,3.357-7.5,7.5s3.357,7.5,7.5,7.5c4.136,0,7.5,3.364,7.5,7.5v7.277c-2.638,0.967-5.246,2.045-7.824,3.218
	c-8.814-8.623-18.813-16.135-29.849-22.247c-1.502-0.832-3.023-1.628-4.554-2.403c5.681-13.966,19.303-23.345,34.727-23.345
	c11.908,0,23.085,5.742,30.12,15.215C326.222,180.531,323.242,185.821,321.48,191.64z M399.661,193.931
	c0,5.657-2.764,10.996-7.394,14.28c-0.162,0.115-0.313,0.24-0.464,0.366c-14.086-6.281-29.617-9.736-45.804-9.736
	c-3.686,0-7.338,0.184-10.954,0.53c2.179-13,13.506-22.94,27.115-22.94c2.904,0,5.777,0.457,8.539,1.359
	c1.656,0.539,3.449,0.487,5.071-0.149c2.043-0.803,4.192-1.21,6.39-1.21C391.811,176.431,399.661,184.282,399.661,193.931z
	 M300,130.841c23.169,0,44.412,11.86,56.723,30.95c-5.34,0.686-10.376,2.355-14.91,4.838c-9.862-12.962-25.342-20.788-41.813-20.788
	c-21.449,0-40.406,12.956-48.454,32.294c-4.688-1.779-9.466-3.318-14.317-4.593C247.324,148.123,272.307,130.841,300,130.841z
	 M158.401,164.147c-1.365-0.331-2.552-0.993-3.524-1.966c-2.924-2.925-2.924-7.684-0.002-10.606
	c0.976-0.975,2.161-1.637,3.522-1.967c2.235-0.542,4.098-2.08,5.054-4.172c1.361-2.979,3.234-5.672,5.568-8.004
	c1.614-1.615,3.421-3.023,5.37-4.186c1.241-0.74,2.242-1.823,2.882-3.119c0.615-1.244,1.407-2.355,2.354-3.302
	c2.36-2.361,5.5-3.662,8.839-3.662c3.338,0,6.478,1.301,8.838,3.662c0.66,0.659,1.245,1.407,1.786,2.284
	c1.606,2.599,4.628,3.961,7.637,3.452c5.597-0.957,11.327,0.87,15.326,4.87c6.823,6.822,6.823,17.925,0.002,24.747
	c-1.556,1.556-3.364,2.788-5.376,3.665c-1.677,0.731-2.95,2.002-3.708,3.519c-3.976-0.336-7.968-0.522-11.97-0.522
	c-12.746,0-25.233,1.661-37.243,4.905c0.058-0.178,0.116-0.355,0.161-0.54C164.896,169.181,162.426,165.126,158.401,164.147z
	 M83.043,323.234c-6.337-6.768-9.494-15.565-8.89-24.766c0.01-0.146,0.019-0.27,0.026-0.349c0.826-7.977,2.415-15.897,4.723-23.545
	C95.02,221.153,145.229,183.841,201,183.841c21.524,0,42.812,5.488,61.56,15.87c40.028,22.168,64.894,64.938,64.894,111.621v22.509
	h-14.79v-22.406c0-40.374-21.27-77.755-55.509-97.553c-17.016-9.84-36.434-15.041-56.154-15.041
	c-26.73,0-52.656,9.575-73.001,26.962c-20.113,17.189-33.589,40.925-37.943,66.834c-1.097,6.525,0.729,13.168,5.007,18.227
	c4.289,5.069,10.556,7.978,17.194,7.978c11.002,0,20.338-7.934,22.199-18.865c5.535-32.526,33.521-56.135,66.544-56.135
	c30.832,0,57.722,20.856,65.39,50.719c0.569,2.216,0.084,4.532-1.33,6.355c-1.442,1.859-3.616,2.926-5.964,2.926
	c-3.429,0-6.396-2.248-7.217-5.466c-5.934-23.277-26.856-39.534-50.879-39.534c-18.42,0-35.726,9.867-45.162,25.75
	c-4.218,7.098-4.298,15.618-0.215,22.794c3.821,6.716,10.519,10.897,18.13,11.403c-0.055,0.708-0.092,1.421-0.092,2.143
	c0,0.5,0.015,1.003,0.044,1.508c-3.377,3.216-5.977,7.101-7.697,11.402h-58.5C98.137,333.841,89.448,330.074,83.043,323.234z
	 M258.589,333.841c-0.158-3.246-0.662-6.445-1.548-9.555c0.707-1.757,1.165-3.598,1.41-5.472c0.216,0.006,0.428,0.027,0.645,0.027
	c7.018,0,13.512-3.183,17.816-8.732c4.276-5.514,5.737-12.541,4.007-19.279c-9.372-36.498-42.236-61.988-79.919-61.988
	c-19.574,0-38.564,7.003-53.475,19.72c-14.736,12.569-24.629,29.936-27.856,48.898c-0.63,3.698-3.747,6.382-7.412,6.382
	c-2.249,0-4.288-0.946-5.742-2.665c-1.443-1.707-2.035-3.856-1.666-6.053c7.915-47.098,48.353-81.282,96.151-81.282
	c17.088,0,33.909,4.504,48.646,13.025c29.618,17.127,48.018,49.532,48.018,84.568v22.406L258.589,333.841L258.589,333.841z
	 M210.328,322.265c-4.142,0-7.5,3.358-7.5,7.5c0,1.504,0.447,2.902,1.21,4.077h-20.524c0.768-0.8,1.616-1.534,2.541-2.189
	c2.49-1.768,3.661-4.868,2.959-7.841c-0.237-1.006-0.353-1.948-0.353-2.88c0-6.893,5.607-12.5,12.5-12.5
	c1.339,0,2.686,0.226,4.003,0.671c1.366,0.463,2.838,0.521,4.238,0.167c5.388-1.359,11.162-1.049,16.358,0.886
	c2.152,0.801,4.557,0.573,6.521-0.624c1.197-0.729,2.503-1.1,3.88-1.1c4.136,0,7.5,3.364,7.5,7.5c0,1.377-0.37,2.683-1.1,3.88
	c-1.196,1.963-1.427,4.366-0.624,6.521c0.901,2.419,1.438,4.938,1.631,7.51h-26.951c0.763-1.174,1.21-2.572,1.21-4.077
	C217.828,325.623,214.47,322.265,210.328,322.265z M175.32,303.841c-4.021,0-5.997-2.709-6.66-3.874
	c-0.663-1.166-1.984-4.252,0.073-7.714c6.747-11.357,19.111-18.412,32.267-18.412c14.034,0,26.583,7.77,33.009,19.694
	c-2.129,0.206-4.218,0.717-6.203,1.516c-6.45-1.838-13.374-2.116-19.999-0.795c-2.185-0.548-4.411-0.825-6.646-0.825
	c-9.126,0-17.224,4.473-22.229,11.337C177.86,304.179,176.63,303.841,175.32,303.841z M489.5,363.841H376.207
	c-4.143,0-7.5,3.357-7.5,7.5s3.357,7.5,7.5,7.5h66.686l-3.409,3.409c-4.249,4.25-9.899,6.59-15.91,6.59H88.427
	c-6.011,0-11.661-2.34-15.91-6.589l-3.41-3.41H132.5c4.143,0,7.5-3.357,7.5-7.5s-3.357-7.5-7.5-7.5h-110c-4.136,0-7.5-3.364-7.5-7.5
	s3.364-7.5,7.5-7.5h149.07c0.007,0,0.014,0.001,0.021,0.001c0.007,0,0.015-0.001,0.022-0.001H489.5c4.136,0,7.5,3.364,7.5,7.5
	S493.636,363.841,489.5,363.841z"/>
</svg>
