<?xml version="1.0" encoding="iso-8859-1"?>
<svg version="1.1" xmlns="http://www.w3.org/2000/svg"
	 viewBox="0 0 511.966 511.966">
<g transform="translate(0 -1)">
	<path style="fill:#71C285;" d="M123.553,226.82v-0.731c-35.309-61.793-70.619-52.966-70.619-52.966
		c-20.773,28.207-24.173,65.613-8.828,97.103c0,0,35.672,42.086,51.863,32c10.332-6.436,346.936,2.831,366.896-25.931
		c0.942-1.358-0.999-2.488-12.701-6.069c-2.599-0.795-54.286-42.018-57.367-42.897c-9.091-2.592-19.438-4.885-30.563-6.918
		c-1.975-0.361,0.447-21.702-1.575-22.047c-75.181-12.829-185.086,6.286-184.138,3.448
		C178.204,196.778,120.855,227.208,123.553,226.82z"/>
	<g>
		<path style="fill:#527F72;" d="M476.651,84.848c-3.57-0.001-6.788-2.152-8.154-5.45s-0.611-7.094,1.913-9.619l26.492-26.483
			c3.456-3.394,9.001-3.369,12.426,0.056s3.45,8.97,0.056,12.426l-26.492,26.483C481.238,83.92,478.992,84.851,476.651,84.848z"/>
		<path style="fill:#527F72;" d="M476.651,84.848c-3.8,0-7.175-2.43-8.379-6.034l-8.819-26.483
			c-1.543-4.628,0.958-9.63,5.586-11.172c4.628-1.543,9.63,0.958,11.172,5.586l8.819,26.483c1.536,4.627-0.963,9.625-5.586,11.172
			C478.542,84.695,477.599,84.846,476.651,84.848z"/>
		<path style="fill:#527F72;" d="M503.142,93.676c-0.95-0.001-1.893-0.155-2.793-0.457l-26.492-8.828
			c-3-0.991-5.241-3.51-5.876-6.604s0.432-6.292,2.798-8.385s5.671-2.761,8.664-1.752l26.492,8.828
			c4.105,1.371,6.61,5.515,5.917,9.787C511.158,90.536,507.47,93.674,503.142,93.676z"/>
	</g>
	<path style="fill:#F18D46;" d="M474.099,134.989l-95.603,84.745c-18.803,11.873-6.764,6.908-22.389,6.908
		c-3.001,0-26.692-18.031-29.606-17.677l0.088-0.53c-13.517-18.483-4.414-33.103,17.655-37.959l13.594-15.36l11.829-13.241
		l17.214-19.509l11.741-13.33l13.153-14.742l10.152-11.476c0.451-0.684,0.952-1.333,1.501-1.942
		c9.216-11.242,24.112-16.123,38.194-12.516c14.082,3.608,24.796,15.05,27.472,29.338
		C491.771,111.987,485.922,126.531,474.099,134.989L474.099,134.989z"/>
	<g>
		<path style="fill:#FAC176;" d="M438.789,108.771c-3.481,3.414-9.054,3.414-12.535,0l-14.477-14.477l10.152-11.476
			c0.451-0.684,0.952-1.333,1.501-1.942l15.36,15.36C442.232,99.705,442.232,105.302,438.789,108.771z"/>
		<path style="fill:#FAC176;" d="M412.306,135.254c-3.481,3.414-9.054,3.414-12.535,0l-12.888-12.888l11.741-13.33l13.683,13.683
			C415.749,126.188,415.749,131.784,412.306,135.254z"/>
		<path style="fill:#FAC176;" d="M385.824,170.564c-3.481,3.414-9.054,3.414-12.535,0l-15.448-15.448l11.829-13.241l16.154,16.154
			C389.266,161.498,389.266,167.095,385.824,170.564L385.824,170.564z"/>
	</g>
	<path style="fill:#D75E72;" d="M247.026,184.091l0.001-0.001c0.022-0.717,0.108-1.416,0.108-2.138
		c0.076-28.186-16.616-53.718-42.466-64.955s-55.906-6.026-76.464,13.256c-20.559,19.282-27.682,48.943-18.123,75.459l0.002,0.003
		c2.121,2.751,4.256,5.738,6.406,8.963c0.105,0.156,0.207,0.282,0.312,0.44c2.244,3.388,4.497,7.029,6.75,10.972v0.731
		c30.377-4.755,59.541,13.854,68.026,43.407h29.075c10.85-10.05,17.954-23.496,20.139-38.123
		C243.814,216.237,245.896,200.204,247.026,184.091L247.026,184.091z"/>
	<g>
		<path style="fill:#527F72;" d="M176.513,120.158c-2.342,0.001-4.588-0.928-6.244-2.584s-2.585-3.902-2.584-6.244
			c-0.018-19.49-15.811-35.287-35.302-35.31c-4.875,0-8.828-3.952-8.828-8.828s3.952-8.828,8.828-8.828
			c29.236,0.036,52.926,23.73,52.957,52.966c0.001,2.342-0.928,4.588-2.584,6.244C181.1,119.23,178.854,120.16,176.513,120.158z"/>
		<path style="fill:#527F72;" d="M176.513,120.158c-2.342,0.001-4.588-0.928-6.244-2.584s-2.585-3.902-2.584-6.244
			c0.032-29.239,23.727-52.934,52.966-52.966c4.875,0,8.828,3.952,8.828,8.828s-3.952,8.828-8.828,8.828
			c-19.493,0.019-35.291,15.817-35.31,35.31c0.001,2.342-0.928,4.588-2.584,6.244C181.1,119.23,178.854,120.16,176.513,120.158z"/>
	</g>
	<path style="fill:#E6E7E8;" d="M510.116,281.527l-3.354,8.21c-23.185,56.638-62.626,105.14-113.346,139.388
		c-4.502,3.09-9.092,6.003-13.771,8.828h-0.088v18.626c0.004,4.426-1.753,8.672-4.883,11.801c-3.13,3.13-7.375,4.886-11.801,4.883
		H149.068c-4.426,0.004-8.672-1.753-11.801-4.883c-3.13-3.13-4.886-7.375-4.883-11.801v-18.626
		c-4.679-2.825-9.269-5.738-13.771-8.828C67.844,394.907,28.367,346.398,5.178,289.736l-3.354-8.21
		c-1.831-1.944-2.333-4.789-1.279-7.242s3.464-4.047,6.134-4.057h498.582c2.67,0.01,5.08,1.604,6.134,4.057
		C512.449,276.738,511.947,279.583,510.116,281.527z"/>
	<path style="fill:#FFFFFF;" d="M379.582,402.624c-3.797,0.006-7.172-2.418-8.378-6.019c-1.207-3.6,0.026-7.569,3.059-9.852
		l0.035-0.026c0.281-0.213,0.575-0.409,0.879-0.586c32.835-20.105,59.131-49.306,75.698-84.06c1.235-2.901,3.924-4.923,7.054-5.304
		s6.226,0.937,8.121,3.457s2.302,5.86,1.067,8.761c-18.153,38.173-46.988,70.262-83.009,92.379
		C382.739,402.19,381.176,402.622,379.582,402.624z"/>
	<g>
		<path style="fill:#BDC3C7;" d="M255.97,437.952c-0.015,4.869-3.958,8.813-8.828,8.828H132.384v-8.828
			c-4.679-2.825-9.269-5.738-13.771-8.828h128.53C252.012,429.139,255.955,433.082,255.97,437.952L255.97,437.952z"/>
		<path style="fill:#BDC3C7;" d="M393.415,429.124c-4.502,3.09-9.092,6.003-13.771,8.828h-0.088v8.828h-26.483
			c-4.875,0-8.828-3.952-8.828-8.828s3.952-8.828,8.828-8.828H393.415z"/>
	</g>
	<path style="fill:#805333;" d="M191.579,270.227c-7.799-26.186-31.876-44.138-59.199-44.138s-51.4,17.951-59.199,44.138H191.579z"
		/>
	<path style="fill:#59474E;" d="M419.629,270.227c-11.57-36.776-45.666-61.792-84.22-61.792s-72.649,25.016-84.22,61.792H419.629z"
		/>
	<g>
		<path style="fill:#71C285;" d="M326.511,208.928l0.071-0.494c35.309-48.92,8.828-70.621,8.828-70.621
			s-141.238,35.31-114.756,132.414h30.536C261.801,236.585,291.415,212.484,326.511,208.928L326.511,208.928z"/>
		<path style="fill:#71C285;" d="M388.373,226.089v0.015c14.769,11.084,25.699,26.513,31.256,44.123h30.536
			c26.482-35.31,26.482-61.793,26.482-61.793C419.276,181.952,388.373,226.089,388.373,226.089z"/>
	</g>
	<path style="fill:#802D40;" d="M141.211,190.779c-2.342,0.001-4.588-0.928-6.244-2.584s-2.585-3.902-2.584-6.244
		c0.025-24.363,19.766-44.108,44.129-44.138c4.875,0,8.828,3.952,8.828,8.828s-3.952,8.828-8.828,8.828
		c-14.616,0.02-26.459,11.866-26.474,26.483c0.001,2.342-0.928,4.588-2.584,6.244C145.799,189.851,143.553,190.781,141.211,190.779
		L141.211,190.779z"/>
</g>
</svg>
