<svg height="512pt" viewBox="0 0 512 512" width="512pt" xmlns="http://www.w3.org/2000/svg" id="svg-icon"><path d="M500.602 261.625c0 84.422-41.774 159.086-105.77 204.438-15.387 10.902-36.012-2.641-32.242-21.122 3.32-16.257 5.058-33.086 5.058-50.324 0-138.547-111.8-250.383-250.304-250.379-17.067 0-33.739 1.707-49.844 4.965-18.602 3.762-32.121-17.375-21.102-32.828C91.781 52.738 166.195 11.242 250.297 11.242c138.273-.004 250.308 112.067 250.305 250.383zm0 0" fill="#f58057"/><path d="M436.887 292.766c-35.86 7.687-71.16-15.164-78.848-51.036-3.527-16.46-.61-32.8 7.031-46.41a45.858 45.858 0 01-7.507-17.05c-5.32-24.836 10.492-49.282 35.32-54.606 24.828-5.32 49.265 10.496 54.586 35.332.539 2.5.847 5 .969 7.473 19.437 8.094 34.722 25.27 39.468 47.422 7.684 35.875-15.156 71.183-51.02 78.875zm0 0" fill="#08b772"/><path d="M443.242 276.758c-24.437 24.441-64.058 24.441-88.496 0-24.437-24.445-24.437-64.078 0-88.524s64.059-24.445 88.496 0 24.438 64.078 0 88.524zm0 0" fill="#fff5f5"/><path d="M364.105 272.578c-17.457-17.46-17.457-45.77 0-63.23 17.454-17.461 45.754-17.461 63.211 0 17.454 17.46 17.454 45.77 0 63.23-17.457 17.461-45.757 17.461-63.21 0zm0 0" fill="#fdf061"/><path d="M424.504 346.227c-30.344 6.507-60.215-12.825-66.715-43.18-6.504-30.352 12.824-60.235 43.168-66.738s60.215 12.828 66.715 43.183c6.504 30.352-12.824 60.23-43.168 66.735zm0 0" fill="#08e092"/><path d="M470.09 439.277c.062 19.512-13.492 37.078-33.328 41.332-22.766 4.88-45.176-9.625-50.055-32.398a42.013 42.013 0 012.012-24.336c-9.016-9.316-15.625-21.184-18.543-34.797-8.297-38.734 16.363-76.86 55.082-85.16 38.722-8.3 76.836 16.367 85.133 55.102 7.187 33.53-10.344 66.593-40.301 80.257zm0 0" fill="#22b27f"/><path d="M315.688 94.148c0 31.043-25.16 56.207-56.192 56.207s-56.191-25.164-56.191-56.207 25.16-56.207 56.191-56.207 56.191 25.164 56.191 56.207zm0 0" fill="#08e092"/><path d="M234.805 70.137c0 38.734-31.39 70.136-70.114 70.136a69.746 69.746 0 01-38.453-11.5c-8.883 9.875-21.758 16.082-36.082 16.082-26.808 0-48.539-21.738-48.539-48.554 0-26.817 21.73-48.555 48.54-48.555 2.679 0 5.308.227 7.87.645C107.18 20.305 133.56 0 164.691 0c38.723 0 70.114 31.402 70.114 70.137zm0 0" fill="#22b27f"/><path d="M191.813 44.71c-34.56 0-62.575 28.024-62.575 62.595 0 34.57 28.016 62.593 62.575 62.593s62.574-28.023 62.574-62.593c0-34.57-28.016-62.594-62.575-62.594zm5.109 107.306c-24.688 0-44.7-20.02-44.7-44.711 0-24.692 20.012-44.711 44.7-44.711 24.683 0 44.695 20.02 44.695 44.71 0 24.692-20.012 44.712-44.695 44.712zm0 0" fill="#fdf7bd"/><path d="M306.746 28.613c-34.558 0-62.574 28.028-62.574 62.598 0 34.566 28.016 62.594 62.574 62.594 34.563 0 62.578-28.028 62.578-62.594 0-34.57-28.015-62.598-62.578-62.598zm5.11 107.309c-24.684 0-44.696-20.02-44.696-44.711 0-24.695 20.012-44.711 44.695-44.711 24.688 0 44.696 20.016 44.696 44.71 0 24.692-20.008 44.712-44.696 44.712zm0 0" fill="#fdf7bd"/><path d="M456.977 390.004c-24.438 24.445-64.059 24.445-88.493 0-24.437-24.445-24.437-64.078 0-88.524 24.434-24.445 64.055-24.445 88.493 0 24.437 24.446 24.437 64.079 0 88.524zm0 0" fill="#fff5f5"/><path d="M377.84 385.828c-17.453-17.465-17.453-45.77 0-63.23 17.457-17.461 45.758-17.465 63.215 0 17.453 17.46 17.453 45.765 0 63.23-17.457 17.457-45.758 17.457-63.215 0zm0 0" fill="#fdf061"/><path d="M387.203 125.574c0 28.219-22.871 51.098-51.082 51.098-28.215 0-51.086-22.879-51.086-51.098 0-28.222 22.871-51.097 51.086-51.097 28.211 0 51.082 22.875 51.082 51.097zm0 0" fill="#08e092"/><path d="M372.574 158.633c19.739 59.332 30.973 127.527 30.973 200.074 0 37.055-2.93 72.973-8.43 107.156a249.612 249.612 0 01-61.14 31.805c-26.164 9.281-54.329 13.309-83.676 13.309-138.238 0-249.278-111.075-249.278-249.356 0-29.36 4.028-57.539 13.313-83.719a249.628 249.628 0 0131.781-61.132c34.176-5.5 70.082-8.442 107.13-8.442 72.523 0 140.698 11.238 200.01 30.98a30.536 30.536 0 0119.317 19.325zm0 0" fill="#f7c37d"/><path d="M371.664 156.266c-63.555-13.262-134.95-17.004-209.492-9.028-52.188 5.59-101.629 16.48-146.953 31.563a.702.702 0 01-.887-.89c7.55-22.06 18.54-42.509 31.79-61.157 34.171-5.5 70.081-8.426 107.124-8.426 72.524 0 140.7 11.238 200.012 30.98a30.545 30.545 0 0118.406 16.958zm0 0" fill="#f5b65d"/><path d="M327.813 199.465c15.71 47.222 24.652 101.5 24.652 159.242 0 49.645-6.645 96.719-18.488 138.961C308.344 507.02 279.652 512 250.3 512 112.062 512 0 399.902 0 261.621c0-29.36 5.05-57.543 14.332-83.719 42.227-11.847 89.285-18.476 138.914-18.476 57.723 0 111.984 8.945 159.195 24.66a24.29 24.29 0 0115.371 15.379zm0 0" fill="#fdf7bd"/><path d="M60.277 199.281c0 8.465-6.863 15.328-15.324 15.328-8.465 0-15.324-6.863-15.324-15.328s6.86-15.328 15.324-15.328c8.461 0 15.324 6.863 15.324 15.328zm45.973 45.989c-8.465 0-15.324 6.863-15.324 15.328 0 8.468 6.863 15.332 15.324 15.332 8.465 0 15.324-6.864 15.324-15.332 0-8.465-6.86-15.328-15.324-15.328zm194.113 30.66c8.461 0 15.325-6.864 15.325-15.332 0-8.465-6.864-15.328-15.325-15.328-8.465 0-15.324 6.863-15.324 15.328 0 8.468 6.86 15.332 15.324 15.332zM198.2 183.953c-8.465 0-15.324 6.863-15.324 15.328s6.86 15.328 15.324 15.328c8.461 0 15.324-6.863 15.324-15.328s-6.863-15.328-15.324-15.328zm0 255.488c-8.465 0-15.324 6.864-15.324 15.329 0 8.468 6.86 15.332 15.324 15.332 8.461 0 15.324-6.864 15.324-15.332 0-8.465-6.863-15.329-15.324-15.329zm51.082 10.22c-8.465 0-15.324 6.862-15.324 15.327 0 8.469 6.86 15.332 15.324 15.332 8.461 0 15.324-6.863 15.324-15.332 0-8.465-6.863-15.328-15.324-15.328zM198.2 296.366c-8.465 0-15.324 6.863-15.324 15.328 0 8.47 6.86 15.332 15.324 15.332 8.461 0 15.324-6.863 15.324-15.332 0-8.465-6.863-15.328-15.324-15.328zM85.816 347.465c-8.46 0-15.324 6.863-15.324 15.328 0 8.469 6.863 15.332 15.324 15.332 8.465 0 15.325-6.863 15.325-15.332 0-8.465-6.86-15.328-15.325-15.328zm163.465-163.512c-8.465 0-15.324 6.863-15.324 15.328s6.86 15.328 15.324 15.328c8.461 0 15.324-6.863 15.324-15.328s-6.863-15.328-15.324-15.328zm51.082 173.73c-8.465 0-15.324 6.864-15.324 15.333 0 8.464 6.86 15.328 15.324 15.328 8.461 0 15.325-6.864 15.325-15.328 0-8.47-6.864-15.332-15.325-15.332zm0 0" fill="#f5dc90"/></svg>
