<svg xmlns="http://www.w3.org/2000/svg" viewBox="0 0 512 512">
  <path
    d="M394.667 0c-64 0-117.333 53.333-117.333 117.333s53.333 117.333 117.333 117.333S512 181.333 512 117.333 458.667 0 394.667 0zm0 213.333c-53.333 0-96-42.667-96-96s42.667-96 96-96 96 42.667 96 96c0 53.334-42.667 96-96 96z" />
  <path
    d="M437.333 106.667H352c-6.4 0-10.667 4.267-10.667 10.667 0 6.4 4.267 10.667 10.667 10.667h85.333c6.4 0 10.667-4.267 10.667-10.667 0-6.4-4.267-10.667-10.667-10.667zM394.667 405.333c-29.867 0-53.333 23.467-53.333 53.333S364.8 512 394.667 512C424.533 512 448 488.533 448 458.667s-23.467-53.334-53.333-53.334zm0 85.334c-17.067 0-32-14.934-32-32s14.933-32 32-32 32 14.934 32 32-14.934 32-32 32zM181.333 405.333c-29.867 0-53.333 23.467-53.333 53.333S151.467 512 181.333 512c29.867 0 53.333-23.467 53.333-53.333s-23.466-53.334-53.333-53.334zm0 85.334c-17.067 0-32-14.934-32-32s14.933-32 32-32 32 14.934 32 32-14.933 32-32 32zM471.467 234.667c-6.4-2.133-10.667 2.133-12.8 8.533l-8.533 36.267L138.667 320l-38.4-192h145.067c6.4 0 10.667-4.267 10.667-10.667 0-6.4-4.267-10.667-10.667-10.667H96L85.333 51.2c0-4.267-6.4-8.533-10.667-8.533h-64C4.267 42.667 0 46.934 0 53.333 0 59.733 4.267 64 10.667 64h55.467l51.2 260.267c6.4 34.133 38.4 59.733 72.533 59.733H435.2c6.4 0 10.667-4.267 10.667-10.667 0-6.4-4.267-10.667-10.667-10.667H192c-17.067 0-34.133-8.533-42.667-23.467L460.8 296.533c4.267 0 8.533-4.267 8.533-8.533L480 245.333c2.133-2.133-2.133-8.533-8.533-10.666z" />
</svg>
