<svg xmlns="http://www.w3.org/2000/svg" id="svg-icon" viewBox="0 0 468.293 468.293"><path d="M138.405 0L59.317 79.088v376.717c0 6.897 5.591 12.488 12.488 12.488h324.683c6.897 0 12.488-5.591 12.488-12.488V12.488C408.976 5.591 403.385 0 396.488 0H138.405z" fill="#e1e6e9"/><path d="M327.805 410.747H140.488c-10.345 0-18.732-8.386-18.732-18.732V217.186c0-10.345 8.386-18.732 18.732-18.732h187.317c10.345 0 18.732 8.386 18.732 18.732v174.829c0 10.346-8.387 18.732-18.732 18.732z" fill="#fcd462"/><g fill="#f6c358"><path d="M209.046 264.809h29.782v-66.354h-9.366v56.988h-25.175l-18.908-18.908h-63.623v61.822h87.29v-33.548zM282.913 236.535l-23.667 23.667v38.155h87.29v-61.822h-63.623zM259.247 344.319h-50.2v-33.474h-87.29v61.822h63.623l18.982-18.982h25.101v57.064h9.366v-57.064h25.102l18.982 18.982h63.623v-61.822h-87.29v33.474z"/></g><g fill="#64798a"><path d="M181.724 88.436c-2.878 0-5.238.587-7.083 1.76-1.845 1.177-2.766 2.95-2.766 5.324 0 2.377.921 4.191 2.766 5.446 1.845 1.258 5.77 2.616 11.776 4.065 6.006 1.456 10.531 3.496 13.577 6.118 3.045 2.629 4.57 6.497 4.57 11.609s-1.93 9.262-5.784 12.448c-3.857 3.185-8.915 4.778-15.169 4.778-9.167 0-17.294-3.158-24.391-9.471l6.203-7.462c5.92 5.143 12.069 7.711 18.436 7.711 3.185 0 5.712-.682 7.588-2.053 1.869-1.368 2.807-3.185 2.807-5.446 0-2.264-.88-4.024-2.64-5.283-1.76-1.255-4.792-2.401-9.095-3.434-4.304-1.033-7.571-1.985-9.805-2.851-2.237-.866-4.219-1.995-5.951-3.393-3.465-2.626-5.197-6.65-5.197-12.069s1.971-9.597 5.91-12.53 8.812-4.399 14.624-4.399c3.745 0 7.462.614 11.148 1.842 3.687 1.231 6.872 2.964 9.556 5.197l-5.283 7.458c-1.732-1.562-4.079-2.848-7.039-3.854-2.964-1.006-5.883-1.511-8.758-1.511zM216.8 80.725h9.89v58.586h-9.89V80.725zM252.837 139.312h-9.89V80.725h15.422l17.683 36.794 17.686-36.794h15.336v58.586h-9.89v-45.76l-20.448 40.648h-5.532l-20.367-40.648v45.761z"/></g></svg>
