<svg viewBox="0 0 20 20" xmlns="http://www.w3.org/2000/svg" id="svg-icon"><path d="M10.003 9.167a2.15 2.15 0 01-1.593-.695 1.84 1.84 0 01-.484-1.425c.341-3.497 4.466-4.49 4.642-4.531a.626.626 0 01.604 1.027c-.937 1.036-1.117 2.086-1.107 3.445.07.475-.1 1.04-.473 1.466a2.1 2.1 0 01-1.589.713z"/><path d="M18.333 7.5h-3.93c-.738 0-1.396.5-1.6 1.218A2.926 2.926 0 0110 10.833a2.926 2.926 0 01-2.803-2.115 1.675 1.675 0 00-1.6-1.218h-3.93C.747 7.5 0 8.248 0 9.167v6.666c0 1.379 1.122 2.5 2.5 2.5h15c1.378 0 2.5-1.121 2.5-2.5V9.167c0-.92-.747-1.667-1.667-1.667zm-.833 9.167h-15a.835.835 0 01-.833-.834v-1.709a2.086 2.086 0 001.666-2.04 2.086 2.086 0 00-1.666-2.041v-.876l3.926.008A4.601 4.601 0 0010 12.5a4.607 4.607 0 004.41-3.333h3.923v1.709a2.086 2.086 0 00-1.666 2.04c0 1.006.716 1.848 1.666 2.041v.876c0 .46-.374.834-.833.834z"/><path d="M6.25 15a1.25 1.25 0 100-2.5 1.25 1.25 0 000 2.5z"/></svg>
