<svg viewBox="0 0 512 512" height="512" width="512" xmlns="http://www.w3.org/2000/svg" id="svg-icon"><path clip-rule="evenodd" d="M398.245 64.636c-69.963 2.807-108.517 40.227-102.79 90.348l6.152 51.538-39.064-22.14c-30.106-17.066-67.724-9.695-89.495 15.705a70.592 70.592 0 00-7.852 11.198c-19.39 34.189-7.285 78.016 26.902 97.379l97.036 55.025 50.346 28.519c3.94 2.438 8.845 4.961 13.267 5.783a50.856 50.856 0 0013.21 1.758c27.895 0 54.032-23.019 50.715-50.745l-20.808-174.743c38.667-2.835 68.007-22.708 98.141-68.718a361.78 361.78 0 007.994-12.814 566.281 566.281 0 01-7.994 2.835c-68.546 24.21-89.297 26.506-123.938 23.331 0-12.7 15.393-30.276 28.178-54.259z" fill="#ffda8f" fill-rule="evenodd"/><path clip-rule="evenodd" d="M70.257 257.748c.454 74.359-31.977 81.276-6.747 157.28 20.241 60.922 86.037 93.892 146.957 73.651 53.635-17.831 85.611-70.957 78.666-124.99l-97.036-55.025c-34.188-19.362-46.293-63.19-26.902-97.379a70.657 70.657 0 017.852-11.198c-5.528-10.121-11.793-21.375-18.455-29.483-5.244-6.35-11.368-8.816-18.285-8.618-3.232.113-6.605.794-10.177 1.956l-21.204 7.031-21.233 7.059c-3.515 1.219-6.662 2.693-9.298 4.536-5.67 3.969-9.1 9.61-9.497 17.831-.877 18.767 5.303 44.706 5.359 57.349z" fill="#ffda8f" fill-rule="evenodd"/><path clip-rule="evenodd" d="M31.449 35.55C17.7 40.114 6.02 60.015 11.265 75.805c5.244 15.819 19.815 23.7 34.812 21.488l28.32 85.274c2.636-1.843 5.783-3.317 9.298-4.536l21.233-7.059 21.204-7.031c3.572-1.162 6.945-1.843 10.177-1.956l-28.32-85.245c13.324-7.229 20.269-22.254 15.025-38.044S96.508 13.919 82.731 18.512C68.982 23.076 64.333 30.929 61.81 41.248c-8.165-6.776-16.613-10.263-30.361-5.698z" fill="#fff3da" fill-rule="evenodd"/><path d="M509.725 86.379a9.994 9.994 0 00-11.099-3.063c-66.45 23.816-88.901 27.885-115.586 26.518 2.471-4.94 6.195-10.848 10.04-16.951 4.378-6.947 9.339-14.82 13.99-23.544a10.001 10.001 0 00-.355-10.021 10.024 10.024 0 00-8.871-4.676c-40.937 1.642-74.221 15.079-93.72 37.834-14.936 17.431-21.37 39.438-18.599 63.691l3.808 31.901-21.859-12.39c-18.844-10.68-40.799-13.365-61.818-7.558-11.279 3.116-21.518 8.488-30.25 15.692-4.174-7.207-8.453-13.92-13.092-19.566-5.207-6.326-11.421-10.188-18.576-11.618L119.853 80.73c13.045-10.85 18.235-28.375 12.651-45.189-3.222-9.701-10.748-17.924-21.192-23.154-10.47-5.242-22.338-6.501-31.732-3.369-12.075 4.008-18.755 10.487-22.701 17.334-7.245-3.126-16.475-4.316-28.58-.296-9.193 3.052-17.54 10.607-22.901 20.728C-.19 57.335-1.511 69.06 1.773 78.949c5.587 16.852 20.233 27.792 37.191 28.653l23.88 71.901c-4.876 5.429-7.548 12.243-7.933 20.424-.561 11.978 1.427 25.942 3.181 38.262 1.104 7.754 2.146 15.078 2.167 19.617.174 28.46-4.558 46.047-9.134 63.055-7.064 26.258-13.165 48.933 2.897 97.318 10.631 31.999 33.088 57.941 63.233 73.048 17.821 8.931 37.067 13.444 56.437 13.444 13.394-.001 26.849-2.158 39.931-6.505 51.08-16.982 85.198-64.37 86.419-116.822l34.345 19.468c5.905 3.636 11.327 5.965 16.123 6.928a60.957 60.957 0 0015.448 2.006c17.835 0 35.527-7.938 47.328-21.233 10.334-11.644 15.063-26.099 13.317-40.696l-3.657-30.674c-.654-5.484-5.633-9.397-11.114-8.746-5.485.653-9.4 5.63-8.746 11.114l3.657 30.678c1.058 8.845-1.931 17.74-8.417 25.048-8.063 9.085-20.164 14.509-32.369 14.509-3.545 0-7.117-.477-10.618-1.416a10.42 10.42 0 00-.764-.173c-1.406-.262-4.553-1.189-9.832-4.455a9.97 9.97 0 00-.332-.196L197.026 299.96c-14.208-8.047-24.448-21.219-28.832-37.091-4.385-15.873-2.36-32.44 5.701-46.656 8.046-14.196 21.218-24.429 37.088-28.814 15.871-4.384 32.43-2.367 46.628 5.681l34.662 19.646 6.575 55.301c.604 5.083 4.922 8.821 9.918 8.821.394 0 .793-.023 1.193-.071 5.485-.651 9.402-5.626 8.75-11.111l-7.172-60.326v-.004l-6.146-51.488c-2.118-18.536 2.696-35.257 13.921-48.357 12.912-15.069 34.019-25.138 60.511-29.112a1058.716 1058.716 0 01-3.663 5.841c-8.991 14.267-16.092 25.537-16.092 36.675a10 10 0 009.089 9.958c32.947 3.018 54.23 1.112 108.364-17.016-25.143 34.489-50.185 50.084-82.388 52.449a10.002 10.002 0 00-9.198 11.153l6.52 54.884c.651 5.485 5.624 9.405 11.11 8.75 5.485-.651 9.402-5.625 8.751-11.11l-5.336-44.914c40.59-6.35 72.057-32.421 103.604-85.19a10 10 0 00-.859-11.48zM55.567 94.142a9.992 9.992 0 00-10.949-6.741c-10.99 1.617-20.355-4.166-23.862-14.748-1.574-4.738-.73-10.754 2.316-16.504 2.886-5.449 7.303-9.705 11.528-11.108 9.733-3.234 14.65-1.222 20.824 3.902a9.997 9.997 0 0016.1-5.32c1.916-7.834 4.662-12.402 14.369-15.624 4.345-1.45 10.809-.557 16.464 2.275 5.581 2.794 9.65 7.013 11.165 11.575 3.506 10.557-.538 20.803-10.304 26.102a10 10 0 00-4.721 11.942l24.743 74.48c-.087.028-.17.048-.257.076l-42.525 14.12c-.054.018-.102.04-.156.058zm131.599 223.221l92.556 52.466c3.963 48.401-25.853 93.882-72.408 109.359-26.929 8.949-55.731 6.875-81.1-5.839-25.368-12.713-44.267-34.546-53.213-61.472-14.168-42.682-9.301-60.775-2.564-85.817 4.692-17.44 10.011-37.207 9.821-68.357-.027-5.895-1.111-13.511-2.366-22.33-1.629-11.444-3.475-24.415-3.003-34.506.186-3.947 1.227-7.179 4.875-9.874.226-.143.446-.292.657-.452 1.639-1.093 3.729-2.098 6.429-3.021l42.372-14.068c9.669-3.142 14.049-.869 17.645 3.5 4.843 5.893 9.528 13.729 14.242 22.185a82.162 82.162 0 00-4.612 7.212c-10.696 18.86-13.388 40.824-7.581 61.846 5.808 21.026 19.393 38.488 38.25 49.168z"/><path d="M168.824 443.711h.028c5.523 0 9.986-4.478 9.986-10s-4.491-10-10.014-10-10 4.478-10 10 4.476 10 10 10zM121.567 315.701c-5.523 0-10 4.478-10 10s4.477 10 10 10h.028c5.523 0 9.986-4.478 9.986-10s-4.491-10-10.014-10zM228.072 401.726h.028c5.523 0 9.986-4.478 9.986-10s-4.491-10-10.014-10-10 4.478-10 10 4.476 10 10 10zM222.068 241.703c0 5.523 4.477 10 10 10h.057c5.523 0 9.972-4.478 9.972-10 0-5.523-4.506-10-10.029-10s-10 4.478-10 10zM258.921 284.084c0 5.523 4.477 10 10 10h.057c5.523 0 9.972-4.478 9.972-10 0-5.523-4.506-10-10.029-10s-10 4.478-10 10zM171.8 380.719h.057c5.523 0 9.972-4.478 9.972-10s-4.506-10-10.029-10-10 4.478-10 10 4.477 10 10 10zM118.84 259.705c0-5.523-4.506-10-10.029-10s-10 4.478-10 10 4.477 10 10 10h.057c5.523 0 9.972-4.478 9.972-10zM397.713 273.737v.028c0 5.523 4.477 9.986 10 9.986s10-4.491 10-10.014-4.477-10-10-10-10 4.478-10 10zM337.332 321.221c0 5.523 4.477 10 10 10h.028c5.523 0 9.986-4.478 9.986-10 0-5.523-4.491-10-10.014-10s-10 4.478-10 10z"/></svg>
