<?xml version="1.0" encoding="iso-8859-1"?>
<svg version="1.1" id="Layer_1" xmlns="http://www.w3.org/2000/svg"
	 viewBox="0 0 512 512">
<path style="fill:#5C6670;" d="M382.785,245.158l89.626-99.15c6.732-7.447,18.226-8.027,25.674-1.296
	c7.447,6.733,8.027,18.226,1.296,25.674c-0.409,0.453-0.853,0.895-1.296,1.296l-99.15,89.626c-4.684,4.234-11.915,3.87-16.149-0.814
	C378.823,256.111,378.925,249.46,382.785,245.158z"/>
<path style="fill:#333E48;" d="M413.515,211.165l-30.729,33.994c-3.861,4.301-3.961,10.952,0,15.335
	c4.234,4.684,11.465,5.048,16.149,0.814l55.473-50.143L413.515,211.165L413.515,211.165z"/>
<path style="fill:#E94F3D;" d="M459.824,221.972c0,107.439-87.097,194.536-194.536,194.536h-62.814
	C95.036,416.508,7.94,329.411,7.94,221.972H459.824z"/>
<path style="fill:#FFFFFF;" d="M438.265,285.687c-6.483,11.229-14.643,17.412-22.978,17.412s-16.495-6.183-22.978-17.412
	c-12.957-22.44-29.05-25.791-37.491-25.791c-8.44,0-24.534,3.35-37.491,25.791c-6.483,11.229-14.643,17.412-22.978,17.412
	c-8.335,0-16.494-6.183-22.978-17.412c-12.957-22.44-29.05-25.791-37.491-25.791s-24.534,3.35-37.491,25.791
	c-6.483,11.229-14.643,17.412-22.978,17.412c-8.335,0-16.494-6.183-22.978-17.412c-12.957-22.44-29.05-25.791-37.491-25.791
	s-24.534,3.35-37.491,25.791c-6.483,11.229-14.643,17.412-22.978,17.412s-16.494-6.183-22.978-17.412
	c-5.17-8.955-10.839-14.864-16.323-18.737c3.728,15.752,9.373,30.763,16.673,44.776c8.787,6.767,17.256,8.132,22.628,8.132
	c8.44,0,24.533-3.35,37.491-25.791c6.483-11.229,14.644-17.412,22.978-17.412c8.335,0,16.494,6.183,22.978,17.412
	c12.957,22.44,29.05,25.791,37.491,25.791c8.44,0,24.534-3.35,37.491-25.791c6.483-11.229,14.643-17.412,22.978-17.412
	s16.494,6.183,22.978,17.412c12.957,22.44,29.05,25.791,37.491,25.791s24.534-3.35,37.491-25.791
	c6.483-11.229,14.643-17.412,22.978-17.412c8.333,0,16.494,6.183,22.978,17.412c12.957,22.44,29.05,25.791,37.491,25.791
	c5.37,0,13.839-1.366,22.627-8.132c7.3-14.013,12.945-29.024,16.673-44.776C449.105,270.824,443.435,276.733,438.265,285.687z"/>
<path style="fill:#FEDD3D;" d="M392.31,352.659c-12.957-22.44-29.05-25.791-37.491-25.791c-8.44,0-24.534,3.35-37.491,25.791
	c-6.483,11.229-14.643,17.412-22.978,17.412s-16.494-6.183-22.978-17.412c-12.957-22.44-29.05-25.791-37.491-25.791
	c-8.44,0-24.534,3.35-37.491,25.791c-6.483,11.229-14.643,17.412-22.978,17.412s-16.494-6.183-22.978-17.412
	c-12.957-22.44-29.05-25.791-37.491-25.791s-24.534,3.35-37.491,25.791c-2.283,3.955-4.777,7.268-7.412,9.922
	c4.048,3.87,8.269,7.56,12.637,11.072c3.175-3.33,6.315-7.465,9.288-12.616c6.483-11.229,14.644-17.412,22.978-17.412
	c8.335,0,16.494,6.183,22.978,17.412c12.957,22.44,29.05,25.791,37.491,25.791c8.44,0,24.534-3.35,37.491-25.791
	c6.483-11.229,14.643-17.412,22.978-17.412s16.494,6.183,22.978,17.412c12.957,22.44,29.05,25.791,37.491,25.791
	s24.534-3.35,37.491-25.791c6.483-11.229,14.643-17.412,22.978-17.412c8.333,0,16.494,6.183,22.978,17.412
	c2.975,5.151,6.113,9.286,9.288,12.616c4.368-3.514,8.588-7.202,12.637-11.072C397.086,359.927,394.594,356.614,392.31,352.659z"/>
<path d="M226.423,191.34c-1.503,4.12,0.618,8.677,4.737,10.181c0.899,0.328,1.818,0.483,2.721,0.483c3.24,0,6.284-2,7.46-5.22
	c6.438-17.646,6.438-37.081,0-54.728c-5.158-14.136-5.158-29.704,0-43.839c1.503-4.12-0.618-8.677-4.737-10.181
	c-4.12-1.503-8.677,0.619-10.181,4.737c-6.438,17.646-6.438,37.081,0,54.726C231.581,161.637,231.581,177.206,226.423,191.34z
	 M280.67,191.34c-1.503,4.12,0.618,8.676,4.737,10.181c0.899,0.328,1.818,0.483,2.721,0.483c3.241,0,6.285-1.999,7.46-5.22
	c6.44-17.646,6.44-37.081,0-54.728c-5.158-14.136-5.158-29.704,0-43.839c1.503-4.12-0.618-8.677-4.737-10.181
	c-4.121-1.503-8.677,0.619-10.181,4.737c-6.438,17.646-6.438,37.081,0,54.727C285.829,161.637,285.829,177.206,280.67,191.34z
	 M172.175,191.34c-1.503,4.12,0.618,8.677,4.737,10.181c0.899,0.328,1.818,0.483,2.721,0.483c3.24,0,6.284-2,7.46-5.22
	c6.438-17.646,6.438-37.081,0-54.728c-5.158-14.136-5.158-29.704,0-43.839c1.503-4.12-0.618-8.677-4.737-10.181
	c-4.12-1.503-8.677,0.619-10.181,4.737c-6.438,17.646-6.438,37.081,0,54.726C177.333,161.637,177.333,177.206,172.175,191.34z
	 M503.408,138.824c-5.177-4.679-11.865-7.06-18.829-6.709c-6.967,0.351-13.381,3.395-18.059,8.57l-66.302,73.348H7.94
	c-4.386,0-7.94,3.554-7.94,7.94c0,111.645,90.83,202.475,202.475,202.475h62.814c111.645,0,202.475-90.83,202.475-202.475
	c0-3.431-2.18-6.345-5.227-7.454l40.888-36.959c0.646-0.588,1.264-1.207,1.845-1.847
	C514.926,165.029,514.092,148.481,503.408,138.824z M265.289,408.568h-62.814c-100.227,0-182.251-79.439-186.429-178.657h435.673
	C447.54,329.129,365.515,408.568,265.289,408.568z M493.497,165.056c-0.228,0.251-0.488,0.51-0.736,0.737l-53.365,48.239h-17.771
	l56.677-62.7c1.834-2.028,4.348-3.221,7.08-3.36c2.726-0.123,5.351,0.796,7.382,2.63
	C496.947,154.388,497.275,160.875,493.497,165.056z"/>
</svg>
