<svg xmlns="http://www.w3.org/2000/svg" id="svg-icon" viewBox="0 0 520 520" width="512" height="512"><path d="M110.002 0c-4.87 0-9.43 2.36-12.25 6.34a14.992 14.992 0 00-1.9 13.65l29.15 82.58V397.9l-29.42 102.98c-1.3 4.53-.39 9.4 2.44 13.15 2.84 3.76 7.27 5.97 11.98 5.97H260l10.008-261L260 0H110.002z" fill="#ef5350"/><path d="M395.002 397.9V102.57l29.14-82.58A14.99 14.99 0 00410.002 0H260v520h150.002c4.71 0 9.14-2.21 11.98-5.97 2.83-3.75 3.74-8.62 2.44-13.15l-29.42-102.98z" fill="#d32f2f"/><path d="M200.002 125c-8.28 0-15 6.72-15 15v240c0 8.28 6.72 15 15 15H260l10.008-139L260 125h-59.998z" fill="#fff5f5"/><path d="M320.002 125H260v270h60.002c8.28 0 15-6.72 15-15V140c0-8.28-6.72-15-15-15z" fill="#eee1dc"/><path d="M245.002 210v100c0 8.284 6.715 14.999 14.998 15l10.008-65L260 195c-8.283.001-14.998 6.716-14.998 15z" fill="#fff04a"/><path d="M260.002 195H260v130h.002c8.284 0 15-6.716 15-15V210c0-8.284-6.716-15-15-15z" fill="#ffcd00"/><path d="M198.252 74.64c-1.09.25-2.19.36-3.26.36-6.88 0-13.08-4.75-14.63-11.75L166.302 0h30.73l12.61 56.75c1.8 8.08-3.3 16.1-11.39 17.89z" fill="#d32f2f"/><path d="M353.702 0l-14.06 63.25c-1.55 7-7.75 11.75-14.63 11.75-1.07 0-2.17-.11-3.26-.36-8.09-1.79-13.19-9.81-11.39-17.89L322.972 0h30.73z" fill="#b71c1c"/><path d="M245.002 0v60c0 8.279 6.719 14.999 14.998 15l10.008-37.5L260 0h-14.998z" fill="#d32f2f"/><path d="M260 0v75h.002c8.28 0 15-6.72 15-15V0H260z" fill="#b71c1c"/><path d="M209.642 463.25L197.032 520h-30.73l14.06-63.25c1.79-8.09 9.81-13.2 17.89-11.39 8.09 1.79 13.19 9.81 11.39 17.89z" fill="#d32f2f"/><path d="M353.702 520h-30.73l-12.61-56.75c-1.8-8.08 3.3-16.1 11.39-17.89 8.09-1.81 16.1 3.3 17.89 11.39l14.06 63.25z" fill="#b71c1c"/><path d="M245.002 460v60H260l10.008-37.5L260 445c-8.279.001-14.998 6.721-14.998 15z" fill="#d32f2f"/><path d="M275.002 460c0-8.28-6.72-15-15-15H260v75h15.002v-60z" fill="#b71c1c"/></svg>
