<svg viewBox="0 0 512 512" xmlns="http://www.w3.org/2000/svg" id="svg-icon"><g fill="#6eabc9"><path d="M336.511 141.833L164.573 90.772c-8.183-2.43-12.846-11.035-10.413-19.218 2.432-8.179 11.032-12.839 19.212-10.41l171.939 51.061c8.183 2.43 12.846 11.035 10.413 19.218-2.432 8.179-11.033 12.839-19.213 10.41zM336.511 218.881L164.573 167.82c-8.183-2.43-12.846-11.035-10.413-19.218 2.432-8.179 11.032-12.839 19.212-10.41l171.939 51.061c8.183 2.43 12.846 11.035 10.413 19.218-2.432 8.179-11.033 12.839-19.213 10.41zM336.511 295.929l-171.939-51.061c-8.183-2.43-12.846-11.035-10.413-19.218 2.432-8.179 11.032-12.839 19.212-10.41l171.939 51.061c8.183 2.43 12.846 11.035 10.413 19.218-2.431 8.179-11.032 12.839-19.212 10.41zM336.511 372.977l-171.939-51.061c-8.183-2.43-12.846-11.035-10.413-19.218 2.432-8.179 11.032-12.839 19.212-10.41l171.939 51.061c8.183 2.43 12.846 11.035 10.413 19.218-2.431 8.178-11.032 12.839-19.212 10.41zM336.511 450.024l-171.939-51.061c-8.183-2.43-12.846-11.035-10.413-19.218 2.432-8.179 11.032-12.839 19.212-10.41l171.939 51.061c8.183 2.43 12.846 11.035 10.413 19.218-2.431 8.179-11.032 12.839-19.212 10.41z"/></g><path d="M169.171 90.635l177.773-23.879c8.459-1.136 14.395-8.916 13.258-17.375-1.137-8.457-8.915-14.392-17.372-13.256l-177.773 23.88c-8.459 1.136-14.395 8.916-13.258 17.375 1.137 8.457 8.914 14.391 17.372 13.255z" fill="#a9dbf5"/><path d="M360.202 49.384c-1.137-8.458-8.92-14.393-17.383-13.257l-22.283 2.993c4.866 2.88 8.421 7.865 9.233 13.901.884 6.571-1.686 12.807-6.311 16.89l23.481-3.154c8.461-1.137 14.4-8.915 13.263-17.373z" fill="#88c3e0"/><path d="M169.171 167.683l177.773-23.879c8.459-1.136 14.395-8.916 13.258-17.375-1.137-8.457-8.915-14.392-17.372-13.256l-177.773 23.879c-8.459 1.136-14.395 8.916-13.258 17.375 1.137 8.457 8.914 14.392 17.372 13.256z" fill="#a9dbf5"/><path d="M360.202 126.432c-1.137-8.458-8.92-14.393-17.383-13.257l-21.978 2.952c4.676 2.823 8.082 7.654 8.866 13.486.94 6.988-2.123 13.588-7.421 17.503l24.652-3.311c8.462-1.137 14.401-8.915 13.264-17.373z" fill="#88c3e0"/><path d="M169.171 244.731l177.773-23.879c8.459-1.136 14.395-8.916 13.258-17.375-1.137-8.457-8.915-14.392-17.372-13.256L165.057 214.1c-8.459 1.136-14.395 8.916-13.258 17.375 1.137 8.457 8.914 14.392 17.372 13.256z" fill="#a9dbf5"/><path d="M360.202 203.48c-1.137-8.458-8.92-14.393-17.383-13.257l-21.97 2.951c4.671 2.822 8.073 7.648 8.857 13.475.941 6.999-2.133 13.61-7.45 17.519l24.683-3.315c8.461-1.137 14.4-8.915 13.263-17.373z" fill="#88c3e0"/><path d="M169.171 321.779L346.943 297.9c8.459-1.136 14.395-8.916 13.258-17.375-1.137-8.457-8.915-14.392-17.372-13.256l-177.773 23.879c-8.459 1.136-14.395 8.916-13.258 17.375 1.138 8.457 8.915 14.392 17.373 13.256z" fill="#a9dbf5"/><path d="M360.202 280.527c-1.137-8.458-8.92-14.393-17.383-13.257l-21.937 2.947c4.651 2.816 8.036 7.625 8.817 13.431.948 7.052-2.194 13.707-7.598 17.589l24.837-3.336c8.462-1.137 14.401-8.915 13.264-17.374z" fill="#88c3e0"/><path d="M169.171 398.826l177.773-23.879c8.459-1.136 14.395-8.916 13.258-17.375-1.137-8.457-8.915-14.392-17.372-13.256l-177.773 23.879c-8.459 1.136-14.395 8.916-13.258 17.375 1.137 8.458 8.914 14.392 17.372 13.256z" fill="#a9dbf5"/><path d="M360.202 357.575c-1.137-8.458-8.92-14.394-17.383-13.257l-22.191 2.981c4.809 2.863 8.318 7.801 9.122 13.776.901 6.697-1.822 13.033-6.646 17.075l23.835-3.202c8.461-1.136 14.4-8.915 13.263-17.373z" fill="#88c3e0"/><path d="M169.171 475.874l177.773-23.879c8.459-1.136 14.395-8.916 13.258-17.375-1.137-8.457-8.915-14.392-17.372-13.256l-177.773 23.879c-8.459 1.136-14.395 8.916-13.258 17.375 1.137 8.458 8.914 14.392 17.372 13.256z" fill="#a9dbf5"/><path d="M360.202 434.623c-1.137-8.458-8.92-14.393-17.383-13.257l-21.653 2.908c4.474 2.762 7.72 7.429 8.476 13.044 1.017 7.566-2.787 14.66-9.043 18.215l26.34-3.538c8.461-1.135 14.4-8.914 13.263-17.372z" fill="#88c3e0"/><path d="M377.634 51.509H134.366c-6.829 0-12.366-5.536-12.366-12.366V12.366C122 5.536 127.536 0 134.366 0h243.269C384.464 0 390 5.536 390 12.366v26.778c0 6.829-5.536 12.365-12.366 12.365z" fill="#d67b42"/><path d="M377.631 0h-30.923c6.831 0 12.369 5.535 12.369 12.362v26.785c0 6.827-5.538 12.362-12.369 12.362h30.923c6.831 0 12.369-5.535 12.369-12.362V12.362C390 5.535 384.462 0 377.631 0z" fill="#be652b"/><path d="M377.634 512H134.366c-6.829 0-12.366-5.536-12.366-12.366v-26.778c0-6.829 5.536-12.366 12.366-12.366h243.269c6.829 0 12.366 5.536 12.366 12.366v26.778C390 506.464 384.464 512 377.634 512z" fill="#d67b42"/><path d="M377.631 460.491h-30.923c6.831 0 12.369 5.535 12.369 12.362v26.785c0 6.827-5.538 12.362-12.369 12.362h30.923c6.831 0 12.369-5.535 12.369-12.362v-26.785c0-6.827-5.538-12.362-12.369-12.362z" fill="#be652b"/></svg>