<svg height="512pt" viewBox="0 -83 512.001 512" width="512pt" xmlns="http://www.w3.org/2000/svg" id="svg-icon"><path d="M452.285 112.8l-26.441-78.14C418.836 13.945 399.394 0 377.524 0H179.905v175.262H407.48c32.375 0 55.18-31.793 44.805-62.461zm0 0" fill="#acabb1"/><path d="M452.285 112.8l-26.441-78.14C418.836 13.945 399.394 0 377.524 0h-78.919c21.872 0 41.313 13.945 48.32 34.66l22.157 82.426c10.379 30.664-5.527 58.176-37.902 58.176h76.3c32.375 0 55.18-31.793 44.805-62.461zm0 0" fill="#97979e"/><path d="M212.27 0h-91.485C102.79 0 86.793 13.945 81.023 34.664l-21.757 78.137c-8.54 30.668 10.23 62.46 36.87 62.46h140.782c26.64 0 45.406-31.792 36.867-62.46l-21.758-78.137C246.262 13.945 230.266 0 212.27 0zm0 0" fill="#c6c5ca"/><path d="M509.469 284.117l-26.442-78.14c-7.007-20.72-26.449-34.66-48.32-34.66H95.168v175.257h369.496c32.375 0 55.18-31.793 44.805-62.457zm0 0" fill="#d8d7da"/><path d="M509.469 284.117l-26.442-78.14c-7.007-20.72-26.449-34.66-48.32-34.66h-78.918c21.871 0 41.313 13.94 48.32 34.66l26.442 78.14c10.375 30.664-12.43 62.457-44.805 62.457h78.918c32.375 0 55.18-31.793 44.805-62.457zm0 0" fill="#c6c5ca"/><path d="M188.469 171.316H77.293c-21.871 0-41.309 13.942-48.32 34.66L2.53 284.118c-10.375 30.664 12.43 62.457 44.805 62.457h171.086c32.375 0 55.183-31.793 44.805-62.457l-26.442-78.14c-7.008-20.72-26.445-34.66-48.316-34.66zm0 0" fill="#eaeaea"/><path d="M489.55 225.25l-48.831-6.375a27.927 27.927 0 00-24.828 9.523l-12.243 14.278a25.123 25.123 0 01-17.453 8.719l-26.312 1.699a24.07 24.07 0 00-19.418 12.195l-15.078 26.719c-2.848 5.05 1.992 10.965 7.508 9.172l35.234-11.465a25.052 25.052 0 0112.41-.797l35.469 6.71a40.525 40.525 0 0032.14-7.612l18.11-13.829a34.93 34.93 0 0126.418-6.777l11.742 1.777zm0 0" fill="#c6c5ca"/><path d="M489.55 225.25l-48.831-6.375a27.927 27.927 0 00-24.828 9.523l-3.008 3.508 17.668 52.211a47.786 47.786 0 012.347 11.125 40.465 40.465 0 0015.25-7.226l18.11-13.829a34.93 34.93 0 0126.418-6.777l11.738 1.777zm0 0M61.488 104.832l61.258-10.074a65.6 65.6 0 0127.606 1.48l9.824 2.676c8.254 2.25 14.363-7.629 8.668-14.008L146.94 60.375a28.373 28.373 0 00-25.425-9.152l-47.137 7.304zm0 0" fill="#acabb1"/><path d="M401.25 96.895l46.938 3.8-15.614-46.148-36.047 18.121c-11.574 5.82-8.191 23.18 4.723 24.227zm0 0" fill="#898890"/></svg>
