<svg xmlns="http://www.w3.org/2000/svg" id="svg-icon" viewBox="0 0 512.001 512.001"><path d="M417.776 163.168c-27.109 4.486-34.025 42.798-53.805 52.366-40.502 19.59-80.947 13.44-80.947 13.44s-.507-38.941 19.768-85.415C310.51 125.87 345.06 117 348.829 94.222c26.682-11.767 56.203-18.304 87.251-18.304 0 31.047-6.539 60.568-18.304 87.25z" fill="#23b75f"/><g fill="#a3e261"><path d="M512.001 166.167s-75.456 149.887-228.977 62.807c0 0 52.132-52.132 134.752-65.806 28.153-4.677 59.846-4.868 94.225 2.999zM348.829 94.216c-13.675 82.627-65.809 134.761-65.809 134.761C196.458 76.366 344.019.912 345.818.013l.012-.012c7.87 34.38 7.678 66.073 2.999 94.215z"/></g><path d="M283.02 228.979C196.458 76.367 344.019.913 345.818.014c-1.115 1.882-79.952 136.116-62.798 228.965z" fill="#93cc52"/><path d="M295.022 216.978s86.812 48.676 59.119 172.114C327.383 508.365 51.49 532.77 15.36 496.64c-36.13-36.13-11.725-312.023 107.548-338.781 123.438-27.693 172.114 59.119 172.114 59.119z" fill="#f94848"/><g fill="#e23d3d"><path d="M122.907 157.861C4.551 184.413-20.383 456.273 14.536 495.756c.268.307.542.601.825.884 12.975 12.975 56.874 18.143 109.05 13.913-21.357-2.213-37.294-6.932-44.276-13.913-18.283-18.283-21.062-97.958-3.895-175.679 28.197-47.337 63.422-90.505 100.754-109.012 61.735-30.611 92.099-21.919 106.371-10.552-20.885-23.6-71.053-63.596-160.458-43.536z"/><circle cx="244.92" cy="321.993" r="22.352"/><circle cx="211.919" cy="406.876" r="22.352"/><circle cx="74.795" cy="387.095" r="22.352"/><circle cx="157.566" cy="356.506" r="22.352"/><circle cx="303.304" cy="372.7" r="22.352"/><circle cx="107.184" cy="300.725" r="22.352"/><circle cx="192.978" cy="263.058" r="22.352"/><circle cx="128.776" cy="441.064" r="22.352"/></g><g fill="#ffd41d"><path d="M135.102 221.168a8.965 8.965 0 01-6.361-2.635 8.995 8.995 0 010-12.723l14.233-14.232a8.995 8.995 0 0112.723 0 8.995 8.995 0 010 12.723l-14.233 14.232a8.97 8.97 0 01-6.362 2.635zM190.01 276.078a8.965 8.965 0 01-6.361-2.635 8.995 8.995 0 010-12.723l14.233-14.233a8.995 8.995 0 0112.723 0 8.995 8.995 0 010 12.723l-14.232 14.233a8.976 8.976 0 01-6.363 2.635zM299.829 385.895a8.972 8.972 0 01-6.363-2.635 8.994 8.994 0 01.001-12.723l14.233-14.233a8.995 8.995 0 0112.723 0c3.512 3.514 3.514 9.21-.001 12.723l-14.233 14.233a8.961 8.961 0 01-6.36 2.635zM244.92 330.987a8.965 8.965 0 01-6.361-2.635 8.995 8.995 0 010-12.723l14.232-14.233a8.994 8.994 0 0112.723 0 8.995 8.995 0 010 12.723l-14.232 14.233a8.97 8.97 0 01-6.362 2.635zM101.356 309.824a8.965 8.965 0 01-6.361-2.635 8.995 8.995 0 010-12.723l14.233-14.233a8.995 8.995 0 0112.723 0 8.995 8.995 0 010 12.723l-14.233 14.233a8.97 8.97 0 01-6.362 2.635zM211.174 419.642a8.965 8.965 0 01-6.361-2.635 8.995 8.995 0 010-12.723l14.232-14.233c3.514-3.514 9.21-3.515 12.723 0a8.995 8.995 0 010 12.723l-14.232 14.233a8.975 8.975 0 01-6.362 2.635zM156.265 364.732a8.965 8.965 0 01-6.361-2.635 8.995 8.995 0 010-12.723l14.233-14.233a8.995 8.995 0 0112.723 0 8.995 8.995 0 010 12.723l-14.233 14.233a8.968 8.968 0 01-6.362 2.635zM122.519 453.388a8.965 8.965 0 01-6.361-2.635 8.995 8.995 0 010-12.723l14.233-14.233a8.995 8.995 0 0112.723 0 8.995 8.995 0 010 12.723l-14.233 14.233a8.97 8.97 0 01-6.362 2.635zM67.609 398.479a8.965 8.965 0 01-6.361-2.635 8.995 8.995 0 010-12.723l14.233-14.233a8.995 8.995 0 0112.723 0 8.995 8.995 0 010 12.723l-14.233 14.233a8.972 8.972 0 01-6.362 2.635z"/></g></svg>
