<svg viewBox="0 0 511.997 511.997" xmlns="http://www.w3.org/2000/svg" id="svg-icon">
    <path
        d="M273.007 189.999v-45.996l-44.037 73.158 38.336 11.467a14.998 14.998 0 0110.701 14.371v40.439l48.71-67.755-42.524-11.178a14.999 14.999 0 01-11.186-14.506z" />
    <path
        d="M407.696 53.303C373.323 18.93 327.795 0 279.499 0c-48.297 0-93.825 18.93-128.197 53.303S97.999 133.204 97.999 181.5v37.537l-45.239 84.91A14.999 14.999 0 0065.998 326h32v36.997C97.998 414.83 140.167 457 192 457h55.997v39.998c0 8.284 6.716 15 15 15h183c8.284 0 15-6.716 15-15V181.5c.002-48.296-18.929-93.825-53.301-128.197zm-43.884 162.176l-88.626 123.275a15.001 15.001 0 01-16.779 5.521 15 15 0 01-10.4-14.277v-75.83l-46.159-13.807a14.999 14.999 0 01-8.552-22.106l81.86-135.992a15 15 0 0127.851 7.735v88.434l52.44 13.784a14.997 14.997 0 018.365 23.263z" />
    </svg>
