<svg viewBox="0 0 512.004 512.004" xmlns="http://www.w3.org/2000/svg"><g><g fill="#e63950"><path d="m484.505 254.896c-30.762-46.274-83.163-73.901-138.505-73.901-8.291 0-15-6.709-15-15s6.709-15 15-15c65.405 0 127.152 32.637 163.495 87.29 4.585 6.899 2.71 16.216-4.189 20.801-6.837 4.558-16.204 2.74-20.801-4.19z"/><path d="m442.698 302.826c-17.007-37.559-55.58-61.831-96.698-61.831-8.291 0-15-6.709-15-15s6.709-15 15-15c52.881 0 102.162 31.187 124.032 79.438 3.413 7.559.073 16.436-7.471 19.863-7.62 3.424-16.455.019-19.863-7.47z"/><path d="m390.74 335.36c-4.893-20.229-23.881-34.365-44.74-34.365-8.291 0-15-6.709-15-15s6.709-15 15-15c34.761 0 65.731 23.569 73.891 57.305 1.948 8.057-3.003 16.157-11.045 18.105-7.858 1.94-16.128-2.854-18.106-11.045z"/></g><path d="m240.707 343.051h-44.707-44.707l-30 151h74.707 74.707z" fill="#c6e2e7"/><path d="m240.707 343.051h-44.707v151h74.707z" fill="#a8d3d8"/><path d="m76 420.995h-61c-8.291 0-15-6.709-15-15s6.709-15 15-15h46v-165c0-8.291 6.709-15 15-15h60c8.291 0 15 6.709 15 15s-6.709 15-15 15h-45v165c0 8.291-6.709 15-15 15z" fill="#704c55"/><path d="m256 150.995h90v180h-90z" fill="#c6e2e7"/><path d="m286 481.995h-90-90c-8.291 0-15 6.709-15 15s6.709 15 15 15h90 90c8.291 0 15-6.709 15-15s-6.709-15-15-15z" fill="#704c55"/><path d="m301 496.995c0-8.291-6.709-15-15-15h-90v30h90c8.291 0 15-6.709 15-15z" fill="#5a344b"/><path d="m196 74.995h-75v271c0 8.291 6.709 15 15 15h60 60c8.291 0 15-6.709 15-15v-271z" fill="#ff6c6c"/><path d="m271 345.995v-271h-75v286h60c8.291 0 15-6.709 15-15z" fill="#e63950"/><path d="m326.269 4.067c-3.018-2.842-7.046-4.219-11.206-4.043l-119.063 7.442-120.937 7.558c-7.911.498-14.063 7.046-14.063 14.971v15c0 24.814 20.186 45 45 45h90 90c24.814 0 45-20.186 45-45v-30c0-4.146-1.714-8.101-4.731-10.928z" fill="#deecf1"/><path d="m331 44.995v-30c0-4.146-1.714-8.101-4.731-10.928-3.018-2.842-7.046-4.219-11.206-4.043l-119.063 7.442v82.529h90c24.814 0 45-20.186 45-45z" fill="#c6e2e7"/><path d="m346 360.995c-8.291 0-15-6.709-15-15v-210c0-8.291 6.709-15 15-15s15 6.709 15 15v210c0 8.291-6.709 15-15 15z" fill="#a8d3d8"/></g></svg>