<svg xmlns="http://www.w3.org/2000/svg" id="svg-icon" viewBox="0 0 512 512"><path d="M193.824 123.061V48h124.341v75.061h26.667V37.333c0-8.832-7.157-16-16-16H183.157c-8.832 0-16 7.168-16 16v85.728h26.667z" fill="#f2f2f2"/><path d="M480 99.509H32c-17.675 0-32 14.325-32 32v327.157c0 17.675 14.325 32 32 32h448c17.675 0 32-14.325 32-32V131.509c0-17.674-14.325-32-32-32" fill="#334a5e"/><path d="M480 99.509H32c-17.675 0-32 14.325-32 32v144.117h512V131.509c0-17.674-14.325-32-32-32" fill="#40596b"/><path fill="#ffd15c" d="M94.187 99.509h39.637v247.573H94.187z"/><path d="M139.861 349.44v-46.773c0-2.891-2.357-5.248-5.259-5.248H93.387a5.257 5.257 0 00-5.248 5.248v46.773a5.257 5.257 0 005.248 5.248h41.216a5.253 5.253 0 005.258-5.248" fill="#f8b64c"/><path fill="#ffd15c" d="M378.187 99.509h39.637v247.573h-39.637z"/><path d="M423.861 349.44v-46.773c0-2.891-2.357-5.248-5.259-5.248h-41.216a5.257 5.257 0 00-5.248 5.248v46.773a5.257 5.257 0 005.248 5.248h41.216a5.253 5.253 0 005.259-5.248" fill="#f8b64c"/></svg>
