<svg height="512" viewBox="0 0 510 510" width="512" xmlns="http://www.w3.org/2000/svg" id="svg-icon" xmlns:xlink="http://www.w3.org/1999/xlink"><linearGradient id="prefix__a"><stop offset="0" stop-color="#534854"/><stop offset="1" stop-color="#342434"/></linearGradient><linearGradient id="prefix__i" gradientUnits="userSpaceOnUse" x1="67.793" x2="176.54" xlink:href="#prefix__a" y1="209.769" y2="209.769"/><linearGradient id="prefix__b"><stop offset="0" stop-color="#f8f6fb"/><stop offset="1" stop-color="#efdcfb"/></linearGradient><linearGradient id="prefix__j" gradientTransform="rotate(90 1082.16 78)" gradientUnits="userSpaceOnUse" x1="1066.849" x2="1234.265" xlink:href="#prefix__b" y1="-1071.719" y2="-984.307"/><linearGradient id="prefix__k" gradientTransform="rotate(-90 1583.974 -78)" gradientUnits="userSpaceOnUse" x1="1321.649" x2="1439.075" xlink:href="#prefix__b" y1="1507.078" y2="1568.389"/><linearGradient id="prefix__c"><stop offset="0" stop-color="#91f27f"/><stop offset="1" stop-color="#4ab172"/></linearGradient><linearGradient id="prefix__l" gradientUnits="userSpaceOnUse" x1="114.995" x2="157.219" xlink:href="#prefix__c" y1="100.921" y2="205.371"/><linearGradient id="prefix__d"><stop offset="0" stop-color="#ffd945"/><stop offset=".304" stop-color="#ffcd3e"/><stop offset=".856" stop-color="#ffad2b"/><stop offset="1" stop-color="#ffa325"/></linearGradient><linearGradient id="prefix__m" gradientUnits="userSpaceOnUse" x1="83.707" x2="100.936" xlink:href="#prefix__d" y1="100.093" y2="142.712"/><linearGradient id="prefix__e"><stop offset="0" stop-color="#efdcfb" stop-opacity="0"/><stop offset=".289" stop-color="#c7b6df" stop-opacity=".289"/><stop offset=".592" stop-color="#a495c7" stop-opacity=".592"/><stop offset=".84" stop-color="#8e80b7" stop-opacity=".84"/><stop offset="1" stop-color="#8679b2"/></linearGradient><linearGradient id="prefix__n" gradientUnits="userSpaceOnUse" x1="135.309" x2="121.419" xlink:href="#prefix__e" y1="133.435" y2="85.099"/><linearGradient id="prefix__f"><stop offset="0" stop-color="#4ab172" stop-opacity="0"/><stop offset="1" stop-color="#009145"/></linearGradient><linearGradient id="prefix__o" gradientUnits="userSpaceOnUse" x1="159.676" x2="134.489" xlink:href="#prefix__f" y1="178.227" y2="126.743"/><linearGradient id="prefix__g"><stop offset="0" stop-color="#ff7044"/><stop offset="1" stop-color="#f82814"/></linearGradient><linearGradient id="prefix__p" gradientTransform="matrix(0 1 1 0 1041.568 -1076.727)" gradientUnits="userSpaceOnUse" x1="1172.027" x2="1185.064" xlink:href="#prefix__g" y1="-976.301" y2="-963.264"/><linearGradient id="prefix__h"><stop offset="0" stop-color="#f82814" stop-opacity="0"/><stop offset="1" stop-color="#c0272d"/></linearGradient><linearGradient id="prefix__q" gradientTransform="matrix(0 1 1 0 1041.568 -1076.727)" gradientUnits="userSpaceOnUse" x1="1181.271" x2="1200.044" xlink:href="#prefix__h" y1="-969.715" y2="-976.494"/><linearGradient id="prefix__r" gradientTransform="matrix(0 1 1 0 1048.068 -1099.227)" gradientUnits="userSpaceOnUse" x1="1186.649" x2="1199.686" xlink:href="#prefix__g" y1="-965.876" y2="-952.839"/><linearGradient id="prefix__s" gradientTransform="matrix(0 1 1 0 1048.068 -1099.227)" gradientUnits="userSpaceOnUse" x1="1195.892" x2="1214.665" xlink:href="#prefix__h" y1="-959.291" y2="-966.07"/><linearGradient id="prefix__t" gradientTransform="matrix(0 1 1 0 1064.723 -1113.73)" gradientUnits="userSpaceOnUse" x1="1196.425" x2="1209.463" xlink:href="#prefix__g" y1="-964.347" y2="-951.31"/><linearGradient id="prefix__u" gradientTransform="matrix(0 1 1 0 1064.723 -1113.73)" gradientUnits="userSpaceOnUse" x1="1205.669" x2="1224.442" xlink:href="#prefix__h" y1="-957.762" y2="-964.541"/><linearGradient id="prefix__v" gradientTransform="matrix(0 1 1 0 1081.723 -1127.73)" gradientUnits="userSpaceOnUse" x1="1210.717" x2="1223.754" xlink:href="#prefix__g" y1="-963.255" y2="-950.218"/><linearGradient id="prefix__w" gradientTransform="matrix(0 1 1 0 1081.723 -1127.73)" gradientUnits="userSpaceOnUse" x1="1219.961" x2="1238.734" xlink:href="#prefix__h" y1="-956.67" y2="-963.449"/><linearGradient id="prefix__x" gradientTransform="matrix(0 1 1 0 1093.723 -1148.73)" gradientUnits="userSpaceOnUse" x1="1230.404" x2="1243.441" xlink:href="#prefix__g" y1="-955.997" y2="-942.959"/><linearGradient id="prefix__y" gradientTransform="matrix(0 1 1 0 1093.723 -1148.73)" gradientUnits="userSpaceOnUse" x1="1239.648" x2="1258.42" xlink:href="#prefix__h" y1="-949.411" y2="-956.19"/><linearGradient id="prefix__z" gradientTransform="matrix(0 1 1 0 1112.723 -1162.73)" gradientUnits="userSpaceOnUse" x1="1247.322" x2="1260.359" xlink:href="#prefix__g" y1="-955.737" y2="-942.7"/><linearGradient id="prefix__A" gradientTransform="matrix(0 1 1 0 1112.723 -1162.73)" gradientUnits="userSpaceOnUse" x1="1256.566" x2="1275.338" xlink:href="#prefix__h" y1="-949.152" y2="-955.931"/><linearGradient id="prefix__B" gradientTransform="matrix(0 1 1 0 1136.723 -1165.73)" gradientUnits="userSpaceOnUse" x1="1262.578" x2="1275.615" xlink:href="#prefix__g" y1="-963.98" y2="-950.943"/><linearGradient id="prefix__C" gradientTransform="matrix(0 1 1 0 1136.723 -1165.73)" gradientUnits="userSpaceOnUse" x1="1271.821" x2="1290.594" xlink:href="#prefix__h" y1="-957.395" y2="-964.174"/><linearGradient id="prefix__D" gradientTransform="matrix(0 1 1 0 1127.223 -1149.23)" gradientUnits="userSpaceOnUse" x1="1250.163" x2="1263.2" xlink:href="#prefix__g" y1="-969.654" y2="-956.617"/><linearGradient id="prefix__E" gradientTransform="matrix(0 1 1 0 1127.223 -1149.23)" gradientUnits="userSpaceOnUse" x1="1259.407" x2="1278.179" xlink:href="#prefix__h" y1="-963.069" y2="-969.848"/><linearGradient id="prefix__F" gradientTransform="matrix(0 1 1 0 1111.723 -1141.73)" gradientUnits="userSpaceOnUse" x1="1237.994" x2="1251.031" xlink:href="#prefix__g" y1="-967.577" y2="-954.54"/><linearGradient id="prefix__G" gradientTransform="matrix(0 1 1 0 1111.723 -1141.73)" gradientUnits="userSpaceOnUse" x1="1247.238" x2="1266.011" xlink:href="#prefix__h" y1="-960.991" y2="-967.77"/><linearGradient id="prefix__H" gradientTransform="matrix(0 1 1 0 1100.723 -1128.73)" gradientUnits="userSpaceOnUse" x1="1226.161" x2="1239.199" xlink:href="#prefix__g" y1="-970.583" y2="-957.546"/><linearGradient id="prefix__I" gradientTransform="matrix(0 1 1 0 1100.723 -1128.73)" gradientUnits="userSpaceOnUse" x1="1235.405" x2="1254.178" xlink:href="#prefix__h" y1="-963.998" y2="-970.777"/><linearGradient id="prefix__J" gradientTransform="matrix(0 1 1 0 1084.223 -1112.23)" gradientUnits="userSpaceOnUse" x1="1209.661" x2="1222.699" xlink:href="#prefix__g" y1="-973.342" y2="-960.305"/><linearGradient id="prefix__K" gradientTransform="matrix(0 1 1 0 1084.223 -1112.23)" gradientUnits="userSpaceOnUse" x1="1218.905" x2="1237.678" xlink:href="#prefix__h" y1="-966.757" y2="-973.536"/><linearGradient id="prefix__L" gradientTransform="matrix(0 1 1 0 1070.723 -1098.73)" gradientUnits="userSpaceOnUse" x1="1196.161" x2="1209.199" xlink:href="#prefix__g" y1="-975.6" y2="-962.563"/><linearGradient id="prefix__M" gradientTransform="matrix(0 1 1 0 1070.723 -1098.73)" gradientUnits="userSpaceOnUse" x1="1205.405" x2="1224.178" xlink:href="#prefix__h" y1="-969.014" y2="-975.793"/><linearGradient id="prefix__N" gradientTransform="matrix(0 1 1 0 1060.223 -1082.23)" gradientUnits="userSpaceOnUse" x1="1183.163" x2="1196.2" xlink:href="#prefix__g" y1="-980.857" y2="-967.82"/><linearGradient id="prefix__O" gradientTransform="matrix(0 1 1 0 1060.223 -1082.23)" gradientUnits="userSpaceOnUse" x1="1192.407" x2="1211.179" xlink:href="#prefix__h" y1="-974.272" y2="-981.051"/><linearGradient id="prefix__P" gradientTransform="matrix(0 1 1 0 1083.223 -1082.23)" gradientUnits="userSpaceOnUse" x1="1196.586" x2="1209.623" xlink:href="#prefix__g" y1="-990.434" y2="-977.397"/><linearGradient id="prefix__Q" gradientTransform="matrix(0 1 1 0 1083.223 -1082.23)" gradientUnits="userSpaceOnUse" x1="1205.83" x2="1224.602" xlink:href="#prefix__h" y1="-983.849" y2="-990.628"/><linearGradient id="prefix__R" gradientTransform="matrix(0 1 1 0 1095.223 -1099.23)" gradientUnits="userSpaceOnUse" x1="1210.668" x2="1223.705" xlink:href="#prefix__g" y1="-985.51" y2="-972.472"/><linearGradient id="prefix__S" gradientTransform="matrix(0 1 1 0 1095.223 -1099.23)" gradientUnits="userSpaceOnUse" x1="1219.912" x2="1238.684" xlink:href="#prefix__h" y1="-978.924" y2="-985.703"/><linearGradient id="prefix__T" gradientTransform="matrix(0 1 1 0 1105.723 -1111.73)" gradientUnits="userSpaceOnUse" x1="1222.001" x2="1235.038" xlink:href="#prefix__g" y1="-982.587" y2="-969.549"/><linearGradient id="prefix__U" gradientTransform="matrix(0 1 1 0 1105.723 -1111.73)" gradientUnits="userSpaceOnUse" x1="1231.244" x2="1250.017" xlink:href="#prefix__h" y1="-976.001" y2="-982.78"/><linearGradient id="prefix__V" gradientTransform="matrix(0 1 1 0 1125.223 -1126.23)" gradientUnits="userSpaceOnUse" x1="1239.419" x2="1252.456" xlink:href="#prefix__g" y1="-982.244" y2="-969.207"/><linearGradient id="prefix__W" gradientTransform="matrix(0 1 1 0 1125.223 -1126.23)" gradientUnits="userSpaceOnUse" x1="1248.663" x2="1267.435" xlink:href="#prefix__h" y1="-975.659" y2="-982.438"/><linearGradient id="prefix__X" gradientTransform="matrix(0 1 1 0 1146.223 -1145.23)" gradientUnits="userSpaceOnUse" x1="1259.586" x2="1272.623" xlink:href="#prefix__g" y1="-979.9" y2="-966.863"/><linearGradient id="prefix__Y" gradientTransform="matrix(0 1 1 0 1146.223 -1145.23)" gradientUnits="userSpaceOnUse" x1="1268.83" x2="1287.602" xlink:href="#prefix__h" y1="-973.314" y2="-980.093"/><linearGradient id="prefix__Z" gradientTransform="matrix(0 1 1 0 1139.723 -1128.73)" gradientUnits="userSpaceOnUse" x1="1248.922" x2="1261.959" xlink:href="#prefix__g" y1="-986.823" y2="-973.786"/><linearGradient id="prefix__aa" gradientTransform="matrix(0 1 1 0 1139.723 -1128.73)" gradientUnits="userSpaceOnUse" x1="1258.166" x2="1276.938" xlink:href="#prefix__h" y1="-980.237" y2="-987.016"/><linearGradient id="prefix__ab" gradientTransform="matrix(0 1 1 0 1059.723 -1064.73)" gradientUnits="userSpaceOnUse" x1="1175.584" x2="1188.622" xlink:href="#prefix__g" y1="-990.862" y2="-977.825"/><linearGradient id="prefix__ac" gradientTransform="matrix(0 1 1 0 1059.723 -1064.73)" gradientUnits="userSpaceOnUse" x1="1184.828" x2="1203.601" xlink:href="#prefix__h" y1="-984.277" y2="-991.056"/><linearGradient id="prefix__ad" gradientTransform="matrix(0 1 1 0 1079.223 -1065.23)" gradientUnits="userSpaceOnUse" x1="1187.173" x2="1200.21" xlink:href="#prefix__g" y1="-998.69" y2="-985.653"/><linearGradient id="prefix__ae" gradientTransform="matrix(0 1 1 0 1079.223 -1065.23)" gradientUnits="userSpaceOnUse" x1="1196.417" x2="1215.189" xlink:href="#prefix__h" y1="-992.105" y2="-998.884"/><linearGradient id="prefix__af" gradientTransform="matrix(0 1 1 0 1103.223 -1080.23)" gradientUnits="userSpaceOnUse" x1="1207.425" x2="1220.462" xlink:href="#prefix__g" y1="-999.929" y2="-986.892"/><linearGradient id="prefix__ag" gradientTransform="matrix(0 1 1 0 1103.223 -1080.23)" gradientUnits="userSpaceOnUse" x1="1216.669" x2="1235.442" xlink:href="#prefix__h" y1="-993.344" y2="-1000.123"/><linearGradient id="prefix__ah" gradientTransform="matrix(0 1 1 0 1115.723 -1096.73)" gradientUnits="userSpaceOnUse" x1="1221.591" x2="1234.628" xlink:href="#prefix__g" y1="-995.505" y2="-982.468"/><linearGradient id="prefix__ai" gradientTransform="matrix(0 1 1 0 1115.723 -1096.73)" gradientUnits="userSpaceOnUse" x1="1230.835" x2="1249.607" xlink:href="#prefix__h" y1="-988.919" y2="-995.698"/><linearGradient id="prefix__aj" gradientTransform="matrix(0 1 1 0 1129.723 -1110.73)" gradientUnits="userSpaceOnUse" x1="1235.591" x2="1248.628" xlink:href="#prefix__g" y1="-993.164" y2="-980.127"/><linearGradient id="prefix__ak" gradientTransform="matrix(0 1 1 0 1129.723 -1110.73)" gradientUnits="userSpaceOnUse" x1="1244.835" x2="1263.607" xlink:href="#prefix__h" y1="-986.578" y2="-993.357"/><linearGradient id="prefix__al" gradientTransform="matrix(0 1 1 0 1098.723 -1066.73)" gradientUnits="userSpaceOnUse" x1="1199.178" x2="1212.215" xlink:href="#prefix__g" y1="-1005.934" y2="-992.897"/><linearGradient id="prefix__am" gradientTransform="matrix(0 1 1 0 1098.723 -1066.73)" gradientUnits="userSpaceOnUse" x1="1208.422" x2="1227.194" xlink:href="#prefix__h" y1="-999.349" y2="-1006.128"/><linearGradient id="prefix__an" gradientTransform="matrix(0 1 1 0 1121.723 -1074.73)" gradientUnits="userSpaceOnUse" x1="1215.932" x2="1228.969" xlink:href="#prefix__g" y1="-1010.842" y2="-997.805"/><linearGradient id="prefix__ao" gradientTransform="matrix(0 1 1 0 1121.723 -1074.73)" gradientUnits="userSpaceOnUse" x1="1225.176" x2="1243.948" xlink:href="#prefix__h" y1="-1004.257" y2="-1011.036"/><linearGradient id="prefix__ap" gradientTransform="matrix(0 1 1 0 1137.098 -1091.605)" gradientUnits="userSpaceOnUse" x1="1231.931" x2="1244.969" xlink:href="#prefix__g" y1="-1007.396" y2="-994.359"/><linearGradient id="prefix__aq" gradientTransform="matrix(0 1 1 0 1137.098 -1091.605)" gradientUnits="userSpaceOnUse" x1="1241.175" x2="1259.948" xlink:href="#prefix__h" y1="-1000.811" y2="-1007.59"/><linearGradient id="prefix__ar" gradientTransform="matrix(0 1 1 0 1151.473 -1111.23)" gradientUnits="userSpaceOnUse" x1="1248.492" x2="1261.53" xlink:href="#prefix__g" y1="-1001.928" y2="-988.891"/><linearGradient id="prefix__as" gradientTransform="matrix(0 1 1 0 1151.473 -1111.23)" gradientUnits="userSpaceOnUse" x1="1257.736" x2="1276.509" xlink:href="#prefix__h" y1="-995.343" y2="-1002.122"/><linearGradient id="prefix__at" gradientTransform="matrix(0 1 1 0 1159.723 -1129.73)" gradientUnits="userSpaceOnUse" x1="1261.011" x2="1274.048" xlink:href="#prefix__g" y1="-994.567" y2="-981.53"/><linearGradient id="prefix__au" gradientTransform="matrix(0 1 1 0 1159.723 -1129.73)" gradientUnits="userSpaceOnUse" x1="1270.254" x2="1289.027" xlink:href="#prefix__h" y1="-987.982" y2="-994.761"/><linearGradient id="prefix__av" gradientTransform="matrix(0 1 1 0 1159.723 -1129.73)" gradientUnits="userSpaceOnUse" x1="1250.214" x2="1263.251" xlink:href="#prefix__g" y1="-978.956" y2="-965.918"/><linearGradient id="prefix__aw" gradientTransform="matrix(0 1 1 0 1159.723 -1129.73)" gradientUnits="userSpaceOnUse" x1="1259.458" x2="1278.23" xlink:href="#prefix__h" y1="-972.37" y2="-979.149"/><linearGradient id="prefix__ax" gradientTransform="matrix(0 1 1 0 1071.723 -1046.73)" gradientUnits="userSpaceOnUse" x1="1175.093" x2="1188.13" xlink:href="#prefix__g" y1="-1006.364" y2="-993.326"/><linearGradient id="prefix__ay" gradientTransform="matrix(0 1 1 0 1071.723 -1046.73)" gradientUnits="userSpaceOnUse" x1="1184.336" x2="1203.109" xlink:href="#prefix__h" y1="-999.778" y2="-1006.557"/><linearGradient id="prefix__az" gradientTransform="matrix(0 1 1 0 1092.723 -1045.73)" gradientUnits="userSpaceOnUse" x1="1186.932" x2="1199.969" xlink:href="#prefix__g" y1="-1015.692" y2="-1002.654"/><linearGradient id="prefix__aA" gradientTransform="matrix(0 1 1 0 1092.723 -1045.73)" gradientUnits="userSpaceOnUse" x1="1196.176" x2="1214.948" xlink:href="#prefix__h" y1="-1009.106" y2="-1015.885"/><linearGradient id="prefix__aB" gradientTransform="matrix(0 1 1 0 1112.723 -1055.73)" gradientUnits="userSpaceOnUse" x1="1202.768" x2="1215.805" xlink:href="#prefix__g" y1="-1018.183" y2="-1005.146"/><linearGradient id="prefix__aC" gradientTransform="matrix(0 1 1 0 1112.723 -1055.73)" gradientUnits="userSpaceOnUse" x1="1212.012" x2="1230.784" xlink:href="#prefix__h" y1="-1011.598" y2="-1018.377"/><linearGradient id="prefix__aD" gradientTransform="matrix(0 1 1 0 1135.223 -1069.23)" gradientUnits="userSpaceOnUse" x1="1221.52" x2="1234.558" xlink:href="#prefix__g" y1="-1019.674" y2="-1006.636"/><linearGradient id="prefix__aE" gradientTransform="matrix(0 1 1 0 1135.223 -1069.23)" gradientUnits="userSpaceOnUse" x1="1230.764" x2="1249.537" xlink:href="#prefix__h" y1="-1013.088" y2="-1019.867"/><linearGradient id="prefix__aF" gradientTransform="matrix(0 1 1 0 1158.973 -1094.23)" gradientUnits="userSpaceOnUse" x1="1246.812" x2="1259.849" xlink:href="#prefix__g" y1="-1021.976" y2="-1008.939"/><linearGradient id="prefix__aG" gradientTransform="matrix(0 1 1 0 1158.973 -1094.23)" gradientUnits="userSpaceOnUse" x1="1256.056" x2="1274.829" xlink:href="#prefix__h" y1="-1015.391" y2="-1022.17"/><linearGradient id="prefix__aH" gradientTransform="matrix(0 1 1 0 1158.973 -1094.23)" gradientUnits="userSpaceOnUse" x1="1242.289" x2="1255.326" xlink:href="#prefix__g" y1="-1002.133" y2="-989.096"/><linearGradient id="prefix__aI" gradientTransform="matrix(0 1 1 0 1158.973 -1094.23)" gradientUnits="userSpaceOnUse" x1="1251.533" x2="1270.306" xlink:href="#prefix__h" y1="-995.548" y2="-1002.327"/><linearGradient id="prefix__aJ" gradientTransform="matrix(0 1 1 0 1158.973 -1094.23)" gradientUnits="userSpaceOnUse" x1="1233.389" x2="1246.426" xlink:href="#prefix__g" y1="-982.874" y2="-969.837"/><linearGradient id="prefix__aK" gradientTransform="matrix(0 1 1 0 1158.973 -1094.23)" gradientUnits="userSpaceOnUse" x1="1242.633" x2="1261.406" xlink:href="#prefix__h" y1="-976.289" y2="-983.068"/><linearGradient id="prefix__aL" gradientUnits="userSpaceOnUse" x1="322.793" x2="431.54" xlink:href="#prefix__a" y1="209.769" y2="209.769"/><linearGradient id="prefix__aM" gradientTransform="rotate(90 1082.16 78)" gradientUnits="userSpaceOnUse" x1="1066.849" x2="1234.265" xlink:href="#prefix__b" y1="-816.719" y2="-729.307"/><linearGradient id="prefix__aN" gradientTransform="rotate(-90 1583.974 -78)" gradientUnits="userSpaceOnUse" x1="1321.649" x2="1439.075" xlink:href="#prefix__b" y1="1252.078" y2="1313.389"/><linearGradient id="prefix__aO" gradientUnits="userSpaceOnUse" x1="369.995" x2="412.219" xlink:href="#prefix__c" y1="100.921" y2="205.371"/><linearGradient id="prefix__aP" gradientUnits="userSpaceOnUse" x1="338.707" x2="355.936" xlink:href="#prefix__d" y1="100.093" y2="142.712"/><linearGradient id="prefix__aQ" gradientUnits="userSpaceOnUse" x1="390.308" x2="376.419" xlink:href="#prefix__e" y1="133.435" y2="85.099"/><linearGradient id="prefix__aR" gradientUnits="userSpaceOnUse" x1="414.676" x2="389.489" xlink:href="#prefix__f" y1="178.227" y2="126.743"/><linearGradient id="prefix__aS" gradientTransform="matrix(0 1 1 0 1041.568 -1076.727)" gradientUnits="userSpaceOnUse" x1="1172.027" x2="1185.064" xlink:href="#prefix__g" y1="-721.301" y2="-708.264"/><linearGradient id="prefix__aT" gradientTransform="matrix(0 1 1 0 1041.568 -1076.727)" gradientUnits="userSpaceOnUse" x1="1181.271" x2="1200.044" xlink:href="#prefix__h" y1="-714.715" y2="-721.494"/><linearGradient id="prefix__aU" gradientTransform="matrix(0 1 1 0 1048.068 -1099.227)" gradientUnits="userSpaceOnUse" x1="1186.649" x2="1199.686" xlink:href="#prefix__g" y1="-710.876" y2="-697.839"/><linearGradient id="prefix__aV" gradientTransform="matrix(0 1 1 0 1048.068 -1099.227)" gradientUnits="userSpaceOnUse" x1="1195.892" x2="1214.665" xlink:href="#prefix__h" y1="-704.291" y2="-711.07"/><linearGradient id="prefix__aW" gradientTransform="matrix(0 1 1 0 1064.723 -1113.73)" gradientUnits="userSpaceOnUse" x1="1196.425" x2="1209.463" xlink:href="#prefix__g" y1="-709.347" y2="-696.31"/><linearGradient id="prefix__aX" gradientTransform="matrix(0 1 1 0 1064.723 -1113.73)" gradientUnits="userSpaceOnUse" x1="1205.669" x2="1224.442" xlink:href="#prefix__h" y1="-702.762" y2="-709.541"/><linearGradient id="prefix__aY" gradientTransform="matrix(0 1 1 0 1081.723 -1127.73)" gradientUnits="userSpaceOnUse" x1="1210.717" x2="1223.754" xlink:href="#prefix__g" y1="-708.255" y2="-695.218"/><linearGradient id="prefix__aZ" gradientTransform="matrix(0 1 1 0 1081.723 -1127.73)" gradientUnits="userSpaceOnUse" x1="1219.961" x2="1238.734" xlink:href="#prefix__h" y1="-701.67" y2="-708.449"/><linearGradient id="prefix__ba" gradientTransform="matrix(0 1 1 0 1093.723 -1148.73)" gradientUnits="userSpaceOnUse" x1="1230.404" x2="1243.441" xlink:href="#prefix__g" y1="-700.997" y2="-687.959"/><linearGradient id="prefix__bb" gradientTransform="matrix(0 1 1 0 1093.723 -1148.73)" gradientUnits="userSpaceOnUse" x1="1239.648" x2="1258.42" xlink:href="#prefix__h" y1="-694.411" y2="-701.19"/><linearGradient id="prefix__bc" gradientTransform="matrix(0 1 1 0 1112.723 -1162.73)" gradientUnits="userSpaceOnUse" x1="1247.322" x2="1260.359" xlink:href="#prefix__g" y1="-700.737" y2="-687.7"/><linearGradient id="prefix__bd" gradientTransform="matrix(0 1 1 0 1112.723 -1162.73)" gradientUnits="userSpaceOnUse" x1="1256.566" x2="1275.338" xlink:href="#prefix__h" y1="-694.152" y2="-700.931"/><linearGradient id="prefix__be" gradientTransform="matrix(0 1 1 0 1136.723 -1165.73)" gradientUnits="userSpaceOnUse" x1="1262.578" x2="1275.615" xlink:href="#prefix__g" y1="-708.98" y2="-695.943"/><linearGradient id="prefix__bf" gradientTransform="matrix(0 1 1 0 1136.723 -1165.73)" gradientUnits="userSpaceOnUse" x1="1271.821" x2="1290.594" xlink:href="#prefix__h" y1="-702.395" y2="-709.174"/><linearGradient id="prefix__bg" gradientTransform="matrix(0 1 1 0 1127.223 -1149.23)" gradientUnits="userSpaceOnUse" x1="1250.163" x2="1263.2" xlink:href="#prefix__g" y1="-714.654" y2="-701.617"/><linearGradient id="prefix__bh" gradientTransform="matrix(0 1 1 0 1127.223 -1149.23)" gradientUnits="userSpaceOnUse" x1="1259.407" x2="1278.179" xlink:href="#prefix__h" y1="-708.069" y2="-714.848"/><linearGradient id="prefix__bi" gradientTransform="matrix(0 1 1 0 1111.723 -1141.73)" gradientUnits="userSpaceOnUse" x1="1237.994" x2="1251.031" xlink:href="#prefix__g" y1="-712.577" y2="-699.54"/><linearGradient id="prefix__bj" gradientTransform="matrix(0 1 1 0 1111.723 -1141.73)" gradientUnits="userSpaceOnUse" x1="1247.238" x2="1266.011" xlink:href="#prefix__h" y1="-705.991" y2="-712.77"/><linearGradient id="prefix__bk" gradientTransform="matrix(0 1 1 0 1100.723 -1128.73)" gradientUnits="userSpaceOnUse" x1="1226.161" x2="1239.199" xlink:href="#prefix__g" y1="-715.583" y2="-702.546"/><linearGradient id="prefix__bl" gradientTransform="matrix(0 1 1 0 1100.723 -1128.73)" gradientUnits="userSpaceOnUse" x1="1235.405" x2="1254.178" xlink:href="#prefix__h" y1="-708.998" y2="-715.777"/><linearGradient id="prefix__bm" gradientTransform="matrix(0 1 1 0 1084.223 -1112.23)" gradientUnits="userSpaceOnUse" x1="1209.661" x2="1222.699" xlink:href="#prefix__g" y1="-718.342" y2="-705.305"/><linearGradient id="prefix__bn" gradientTransform="matrix(0 1 1 0 1084.223 -1112.23)" gradientUnits="userSpaceOnUse" x1="1218.905" x2="1237.678" xlink:href="#prefix__h" y1="-711.757" y2="-718.536"/><linearGradient id="prefix__bo" gradientTransform="matrix(0 1 1 0 1070.723 -1098.73)" gradientUnits="userSpaceOnUse" x1="1196.161" x2="1209.199" xlink:href="#prefix__g" y1="-720.6" y2="-707.563"/><linearGradient id="prefix__bp" gradientTransform="matrix(0 1 1 0 1070.723 -1098.73)" gradientUnits="userSpaceOnUse" x1="1205.405" x2="1224.178" xlink:href="#prefix__h" y1="-714.014" y2="-720.793"/><linearGradient id="prefix__bq" gradientTransform="matrix(0 1 1 0 1060.223 -1082.23)" gradientUnits="userSpaceOnUse" x1="1183.163" x2="1196.2" xlink:href="#prefix__g" y1="-725.857" y2="-712.82"/><linearGradient id="prefix__br" gradientTransform="matrix(0 1 1 0 1060.223 -1082.23)" gradientUnits="userSpaceOnUse" x1="1192.407" x2="1211.179" xlink:href="#prefix__h" y1="-719.272" y2="-726.051"/><linearGradient id="prefix__bs" gradientTransform="matrix(0 1 1 0 1083.223 -1082.23)" gradientUnits="userSpaceOnUse" x1="1196.586" x2="1209.623" xlink:href="#prefix__g" y1="-735.434" y2="-722.397"/><linearGradient id="prefix__bt" gradientTransform="matrix(0 1 1 0 1083.223 -1082.23)" gradientUnits="userSpaceOnUse" x1="1205.83" x2="1224.602" xlink:href="#prefix__h" y1="-728.849" y2="-735.628"/><linearGradient id="prefix__bu" gradientTransform="matrix(0 1 1 0 1095.223 -1099.23)" gradientUnits="userSpaceOnUse" x1="1210.668" x2="1223.705" xlink:href="#prefix__g" y1="-730.51" y2="-717.472"/><linearGradient id="prefix__bv" gradientTransform="matrix(0 1 1 0 1095.223 -1099.23)" gradientUnits="userSpaceOnUse" x1="1219.912" x2="1238.684" xlink:href="#prefix__h" y1="-723.924" y2="-730.703"/><linearGradient id="prefix__bw" gradientTransform="matrix(0 1 1 0 1105.723 -1111.73)" gradientUnits="userSpaceOnUse" x1="1222.001" x2="1235.038" xlink:href="#prefix__g" y1="-727.587" y2="-714.549"/><linearGradient id="prefix__bx" gradientTransform="matrix(0 1 1 0 1105.723 -1111.73)" gradientUnits="userSpaceOnUse" x1="1231.244" x2="1250.017" xlink:href="#prefix__h" y1="-721.001" y2="-727.78"/><linearGradient id="prefix__by" gradientTransform="matrix(0 1 1 0 1125.223 -1126.23)" gradientUnits="userSpaceOnUse" x1="1239.419" x2="1252.456" xlink:href="#prefix__g" y1="-727.244" y2="-714.207"/><linearGradient id="prefix__bz" gradientTransform="matrix(0 1 1 0 1125.223 -1126.23)" gradientUnits="userSpaceOnUse" x1="1248.663" x2="1267.435" xlink:href="#prefix__h" y1="-720.659" y2="-727.438"/><linearGradient id="prefix__bA" gradientTransform="matrix(0 1 1 0 1146.223 -1145.23)" gradientUnits="userSpaceOnUse" x1="1259.586" x2="1272.623" xlink:href="#prefix__g" y1="-724.9" y2="-711.863"/><linearGradient id="prefix__bB" gradientTransform="matrix(0 1 1 0 1146.223 -1145.23)" gradientUnits="userSpaceOnUse" x1="1268.83" x2="1287.602" xlink:href="#prefix__h" y1="-718.314" y2="-725.093"/><linearGradient id="prefix__bC" gradientTransform="matrix(0 1 1 0 1139.723 -1128.73)" gradientUnits="userSpaceOnUse" x1="1248.922" x2="1261.959" xlink:href="#prefix__g" y1="-731.823" y2="-718.786"/><linearGradient id="prefix__bD" gradientTransform="matrix(0 1 1 0 1139.723 -1128.73)" gradientUnits="userSpaceOnUse" x1="1258.166" x2="1276.938" xlink:href="#prefix__h" y1="-725.237" y2="-732.016"/><linearGradient id="prefix__bE" gradientTransform="matrix(0 1 1 0 1059.723 -1064.73)" gradientUnits="userSpaceOnUse" x1="1175.584" x2="1188.622" xlink:href="#prefix__g" y1="-735.862" y2="-722.825"/><linearGradient id="prefix__bF" gradientTransform="matrix(0 1 1 0 1059.723 -1064.73)" gradientUnits="userSpaceOnUse" x1="1184.828" x2="1203.601" xlink:href="#prefix__h" y1="-729.277" y2="-736.056"/><linearGradient id="prefix__bG" gradientTransform="matrix(0 1 1 0 1079.223 -1065.23)" gradientUnits="userSpaceOnUse" x1="1187.173" x2="1200.21" xlink:href="#prefix__g" y1="-743.69" y2="-730.653"/><linearGradient id="prefix__bH" gradientTransform="matrix(0 1 1 0 1079.223 -1065.23)" gradientUnits="userSpaceOnUse" x1="1196.417" x2="1215.189" xlink:href="#prefix__h" y1="-737.105" y2="-743.884"/><linearGradient id="prefix__bI" gradientTransform="matrix(0 1 1 0 1103.223 -1080.23)" gradientUnits="userSpaceOnUse" x1="1207.425" x2="1220.462" xlink:href="#prefix__g" y1="-744.929" y2="-731.892"/><linearGradient id="prefix__bJ" gradientTransform="matrix(0 1 1 0 1103.223 -1080.23)" gradientUnits="userSpaceOnUse" x1="1216.669" x2="1235.442" xlink:href="#prefix__h" y1="-738.344" y2="-745.123"/><linearGradient id="prefix__bK" gradientTransform="matrix(0 1 1 0 1115.723 -1096.73)" gradientUnits="userSpaceOnUse" x1="1221.591" x2="1234.628" xlink:href="#prefix__g" y1="-740.505" y2="-727.468"/><linearGradient id="prefix__bL" gradientTransform="matrix(0 1 1 0 1115.723 -1096.73)" gradientUnits="userSpaceOnUse" x1="1230.835" x2="1249.607" xlink:href="#prefix__h" y1="-733.919" y2="-740.698"/><linearGradient id="prefix__bM" gradientTransform="matrix(0 1 1 0 1129.723 -1110.73)" gradientUnits="userSpaceOnUse" x1="1235.591" x2="1248.628" xlink:href="#prefix__g" y1="-738.164" y2="-725.127"/><linearGradient id="prefix__bN" gradientTransform="matrix(0 1 1 0 1129.723 -1110.73)" gradientUnits="userSpaceOnUse" x1="1244.835" x2="1263.607" xlink:href="#prefix__h" y1="-731.578" y2="-738.357"/><linearGradient id="prefix__bO" gradientTransform="matrix(0 1 1 0 1098.723 -1066.73)" gradientUnits="userSpaceOnUse" x1="1199.178" x2="1212.215" xlink:href="#prefix__g" y1="-750.934" y2="-737.897"/><linearGradient id="prefix__bP" gradientTransform="matrix(0 1 1 0 1098.723 -1066.73)" gradientUnits="userSpaceOnUse" x1="1208.422" x2="1227.194" xlink:href="#prefix__h" y1="-744.349" y2="-751.128"/><linearGradient id="prefix__bQ" gradientTransform="matrix(0 1 1 0 1121.723 -1074.73)" gradientUnits="userSpaceOnUse" x1="1215.932" x2="1228.969" xlink:href="#prefix__g" y1="-755.842" y2="-742.805"/><linearGradient id="prefix__bR" gradientTransform="matrix(0 1 1 0 1121.723 -1074.73)" gradientUnits="userSpaceOnUse" x1="1225.176" x2="1243.948" xlink:href="#prefix__h" y1="-749.257" y2="-756.036"/><linearGradient id="prefix__bS" gradientTransform="matrix(0 1 1 0 1137.098 -1091.605)" gradientUnits="userSpaceOnUse" x1="1231.931" x2="1244.969" xlink:href="#prefix__g" y1="-752.396" y2="-739.359"/><linearGradient id="prefix__bT" gradientTransform="matrix(0 1 1 0 1137.098 -1091.605)" gradientUnits="userSpaceOnUse" x1="1241.175" x2="1259.948" xlink:href="#prefix__h" y1="-745.811" y2="-752.59"/><linearGradient id="prefix__bU" gradientTransform="matrix(0 1 1 0 1151.473 -1111.23)" gradientUnits="userSpaceOnUse" x1="1248.492" x2="1261.53" xlink:href="#prefix__g" y1="-746.929" y2="-733.891"/><linearGradient id="prefix__bV" gradientTransform="matrix(0 1 1 0 1151.473 -1111.23)" gradientUnits="userSpaceOnUse" x1="1257.736" x2="1276.509" xlink:href="#prefix__h" y1="-740.343" y2="-747.122"/><linearGradient id="prefix__bW" gradientTransform="matrix(0 1 1 0 1159.723 -1129.73)" gradientUnits="userSpaceOnUse" x1="1261.011" x2="1274.048" xlink:href="#prefix__g" y1="-739.567" y2="-726.53"/><linearGradient id="prefix__bX" gradientTransform="matrix(0 1 1 0 1159.723 -1129.73)" gradientUnits="userSpaceOnUse" x1="1270.254" x2="1289.027" xlink:href="#prefix__h" y1="-732.982" y2="-739.761"/><linearGradient id="prefix__bY" gradientTransform="matrix(0 1 1 0 1159.723 -1129.73)" gradientUnits="userSpaceOnUse" x1="1250.214" x2="1263.251" xlink:href="#prefix__g" y1="-723.956" y2="-710.918"/><linearGradient id="prefix__bZ" gradientTransform="matrix(0 1 1 0 1159.723 -1129.73)" gradientUnits="userSpaceOnUse" x1="1259.458" x2="1278.23" xlink:href="#prefix__h" y1="-717.37" y2="-724.149"/><linearGradient id="prefix__ca" gradientTransform="matrix(0 1 1 0 1071.723 -1046.73)" gradientUnits="userSpaceOnUse" x1="1175.093" x2="1188.13" xlink:href="#prefix__g" y1="-751.364" y2="-738.326"/><linearGradient id="prefix__cb" gradientTransform="matrix(0 1 1 0 1071.723 -1046.73)" gradientUnits="userSpaceOnUse" x1="1184.336" x2="1203.109" xlink:href="#prefix__h" y1="-744.778" y2="-751.557"/><linearGradient id="prefix__cc" gradientTransform="matrix(0 1 1 0 1092.723 -1045.73)" gradientUnits="userSpaceOnUse" x1="1186.932" x2="1199.969" xlink:href="#prefix__g" y1="-760.692" y2="-747.654"/><linearGradient id="prefix__cd" gradientTransform="matrix(0 1 1 0 1092.723 -1045.73)" gradientUnits="userSpaceOnUse" x1="1196.176" x2="1214.948" xlink:href="#prefix__h" y1="-754.106" y2="-760.885"/><linearGradient id="prefix__ce" gradientTransform="matrix(0 1 1 0 1112.723 -1055.73)" gradientUnits="userSpaceOnUse" x1="1202.768" x2="1215.805" xlink:href="#prefix__g" y1="-763.183" y2="-750.146"/><linearGradient id="prefix__cf" gradientTransform="matrix(0 1 1 0 1112.723 -1055.73)" gradientUnits="userSpaceOnUse" x1="1212.012" x2="1230.784" xlink:href="#prefix__h" y1="-756.598" y2="-763.377"/><linearGradient id="prefix__cg" gradientTransform="matrix(0 1 1 0 1135.223 -1069.23)" gradientUnits="userSpaceOnUse" x1="1221.52" x2="1234.558" xlink:href="#prefix__g" y1="-764.674" y2="-751.636"/><linearGradient id="prefix__ch" gradientTransform="matrix(0 1 1 0 1135.223 -1069.23)" gradientUnits="userSpaceOnUse" x1="1230.764" x2="1249.537" xlink:href="#prefix__h" y1="-758.088" y2="-764.867"/><linearGradient id="prefix__ci" gradientTransform="matrix(0 1 1 0 1158.973 -1094.23)" gradientUnits="userSpaceOnUse" x1="1246.812" x2="1259.849" xlink:href="#prefix__g" y1="-766.976" y2="-753.939"/><linearGradient id="prefix__cj" gradientTransform="matrix(0 1 1 0 1158.973 -1094.23)" gradientUnits="userSpaceOnUse" x1="1256.056" x2="1274.829" xlink:href="#prefix__h" y1="-760.391" y2="-767.17"/><linearGradient id="prefix__ck" gradientTransform="matrix(0 1 1 0 1158.973 -1094.23)" gradientUnits="userSpaceOnUse" x1="1242.289" x2="1255.326" xlink:href="#prefix__g" y1="-747.133" y2="-734.096"/><linearGradient id="prefix__cl" gradientTransform="matrix(0 1 1 0 1158.973 -1094.23)" gradientUnits="userSpaceOnUse" x1="1251.533" x2="1270.306" xlink:href="#prefix__h" y1="-740.548" y2="-747.327"/><linearGradient id="prefix__cm" gradientTransform="matrix(0 1 1 0 1158.973 -1094.23)" gradientUnits="userSpaceOnUse" x1="1233.389" x2="1246.426" xlink:href="#prefix__g" y1="-727.874" y2="-714.837"/><linearGradient id="prefix__cn" gradientTransform="matrix(0 1 1 0 1158.973 -1094.23)" gradientUnits="userSpaceOnUse" x1="1242.633" x2="1261.406" xlink:href="#prefix__h" y1="-721.289" y2="-728.068"/><linearGradient id="prefix__co" gradientUnits="userSpaceOnUse" x1="466.221" x2="382.883" y1="310.365" y2="280.641"><stop offset="0" stop-color="#534854" stop-opacity="0"/><stop offset="1" stop-color="#0a0007"/></linearGradient><linearGradient id="prefix__cp" gradientUnits="userSpaceOnUse" x1="195.293" x2="304.04" xlink:href="#prefix__a" y1="322.686" y2="322.686"/><linearGradient id="prefix__cq" gradientTransform="rotate(90 1082.16 78)" gradientUnits="userSpaceOnUse" x1="1202.221" x2="1369.637" xlink:href="#prefix__b" y1="-944.219" y2="-856.807"/><linearGradient id="prefix__cr" gradientTransform="rotate(-90 1583.974 -78)" gradientUnits="userSpaceOnUse" x1="1186.277" x2="1303.703" xlink:href="#prefix__b" y1="1379.578" y2="1440.889"/><linearGradient id="prefix__cs" gradientUnits="userSpaceOnUse" x1="242.495" x2="284.719" xlink:href="#prefix__c" y1="236.293" y2="340.743"/><linearGradient id="prefix__ct" gradientUnits="userSpaceOnUse" x1="211.207" x2="228.436" xlink:href="#prefix__d" y1="235.465" y2="278.084"/><linearGradient id="prefix__cu" gradientUnits="userSpaceOnUse" x1="262.808" x2="248.919" xlink:href="#prefix__e" y1="268.807" y2="220.471"/><linearGradient id="prefix__cv" gradientUnits="userSpaceOnUse" x1="287.176" x2="261.989" xlink:href="#prefix__f" y1="313.599" y2="262.115"/><linearGradient id="prefix__cw" gradientTransform="matrix(0 1 1 0 1041.568 -1076.727)" gradientUnits="userSpaceOnUse" x1="1307.399" x2="1320.437" xlink:href="#prefix__g" y1="-848.801" y2="-835.764"/><linearGradient id="prefix__cx" gradientTransform="matrix(0 1 1 0 1041.568 -1076.727)" gradientUnits="userSpaceOnUse" x1="1316.643" x2="1335.416" xlink:href="#prefix__h" y1="-842.215" y2="-848.994"/><linearGradient id="prefix__cy" gradientTransform="matrix(0 1 1 0 1048.068 -1099.227)" gradientUnits="userSpaceOnUse" x1="1322.021" x2="1335.058" xlink:href="#prefix__g" y1="-838.376" y2="-825.339"/><linearGradient id="prefix__cz" gradientTransform="matrix(0 1 1 0 1048.068 -1099.227)" gradientUnits="userSpaceOnUse" x1="1331.264" x2="1350.037" xlink:href="#prefix__h" y1="-831.791" y2="-838.57"/><linearGradient id="prefix__cA" gradientTransform="matrix(0 1 1 0 1064.723 -1113.73)" gradientUnits="userSpaceOnUse" x1="1331.798" x2="1344.835" xlink:href="#prefix__g" y1="-836.847" y2="-823.81"/><linearGradient id="prefix__cB" gradientTransform="matrix(0 1 1 0 1064.723 -1113.73)" gradientUnits="userSpaceOnUse" x1="1341.041" x2="1359.814" xlink:href="#prefix__h" y1="-830.262" y2="-837.041"/><linearGradient id="prefix__cC" gradientTransform="matrix(0 1 1 0 1081.723 -1127.73)" gradientUnits="userSpaceOnUse" x1="1346.089" x2="1359.127" xlink:href="#prefix__g" y1="-835.755" y2="-822.718"/><linearGradient id="prefix__cD" gradientTransform="matrix(0 1 1 0 1081.723 -1127.73)" gradientUnits="userSpaceOnUse" x1="1355.333" x2="1374.106" xlink:href="#prefix__h" y1="-829.17" y2="-835.949"/><linearGradient id="prefix__cE" gradientTransform="matrix(0 1 1 0 1093.723 -1148.73)" gradientUnits="userSpaceOnUse" x1="1365.776" x2="1378.813" xlink:href="#prefix__g" y1="-828.497" y2="-815.459"/><linearGradient id="prefix__cF" gradientTransform="matrix(0 1 1 0 1093.723 -1148.73)" gradientUnits="userSpaceOnUse" x1="1375.02" x2="1393.793" xlink:href="#prefix__h" y1="-821.911" y2="-828.69"/><linearGradient id="prefix__cG" gradientTransform="matrix(0 1 1 0 1112.723 -1162.73)" gradientUnits="userSpaceOnUse" x1="1382.694" x2="1395.731" xlink:href="#prefix__g" y1="-828.237" y2="-815.2"/><linearGradient id="prefix__cH" gradientTransform="matrix(0 1 1 0 1112.723 -1162.73)" gradientUnits="userSpaceOnUse" x1="1391.938" x2="1410.71" xlink:href="#prefix__h" y1="-821.652" y2="-828.431"/><linearGradient id="prefix__cI" gradientTransform="matrix(0 1 1 0 1136.723 -1165.73)" gradientUnits="userSpaceOnUse" x1="1397.95" x2="1410.987" xlink:href="#prefix__g" y1="-836.48" y2="-823.443"/><linearGradient id="prefix__cJ" gradientTransform="matrix(0 1 1 0 1136.723 -1165.73)" gradientUnits="userSpaceOnUse" x1="1407.194" x2="1425.966" xlink:href="#prefix__h" y1="-829.895" y2="-836.674"/><linearGradient id="prefix__cK" gradientTransform="matrix(0 1 1 0 1127.223 -1149.23)" gradientUnits="userSpaceOnUse" x1="1385.535" x2="1398.572" xlink:href="#prefix__g" y1="-842.154" y2="-829.117"/><linearGradient id="prefix__cL" gradientTransform="matrix(0 1 1 0 1127.223 -1149.23)" gradientUnits="userSpaceOnUse" x1="1394.779" x2="1413.552" xlink:href="#prefix__h" y1="-835.569" y2="-842.348"/><linearGradient id="prefix__cM" gradientTransform="matrix(0 1 1 0 1111.723 -1141.73)" gradientUnits="userSpaceOnUse" x1="1373.366" x2="1386.404" xlink:href="#prefix__g" y1="-840.077" y2="-827.04"/><linearGradient id="prefix__cN" gradientTransform="matrix(0 1 1 0 1111.723 -1141.73)" gradientUnits="userSpaceOnUse" x1="1382.61" x2="1401.383" xlink:href="#prefix__h" y1="-833.491" y2="-840.27"/><linearGradient id="prefix__cO" gradientTransform="matrix(0 1 1 0 1100.723 -1128.73)" gradientUnits="userSpaceOnUse" x1="1361.534" x2="1374.571" xlink:href="#prefix__g" y1="-843.083" y2="-830.046"/><linearGradient id="prefix__cP" gradientTransform="matrix(0 1 1 0 1100.723 -1128.73)" gradientUnits="userSpaceOnUse" x1="1370.777" x2="1389.55" xlink:href="#prefix__h" y1="-836.498" y2="-843.277"/><linearGradient id="prefix__cQ" gradientTransform="matrix(0 1 1 0 1084.223 -1112.23)" gradientUnits="userSpaceOnUse" x1="1345.034" x2="1358.071" xlink:href="#prefix__g" y1="-845.842" y2="-832.805"/><linearGradient id="prefix__cR" gradientTransform="matrix(0 1 1 0 1084.223 -1112.23)" gradientUnits="userSpaceOnUse" x1="1354.277" x2="1373.05" xlink:href="#prefix__h" y1="-839.257" y2="-846.036"/><linearGradient id="prefix__cS" gradientTransform="matrix(0 1 1 0 1070.723 -1098.73)" gradientUnits="userSpaceOnUse" x1="1331.534" x2="1344.571" xlink:href="#prefix__g" y1="-848.1" y2="-835.063"/><linearGradient id="prefix__cT" gradientTransform="matrix(0 1 1 0 1070.723 -1098.73)" gradientUnits="userSpaceOnUse" x1="1340.777" x2="1359.55" xlink:href="#prefix__h" y1="-841.514" y2="-848.293"/><linearGradient id="prefix__cU" gradientTransform="matrix(0 1 1 0 1060.223 -1082.23)" gradientUnits="userSpaceOnUse" x1="1318.535" x2="1331.572" xlink:href="#prefix__g" y1="-853.357" y2="-840.32"/><linearGradient id="prefix__cV" gradientTransform="matrix(0 1 1 0 1060.223 -1082.23)" gradientUnits="userSpaceOnUse" x1="1327.779" x2="1346.552" xlink:href="#prefix__h" y1="-846.772" y2="-853.551"/><linearGradient id="prefix__cW" gradientTransform="matrix(0 1 1 0 1083.223 -1082.23)" gradientUnits="userSpaceOnUse" x1="1331.958" x2="1344.995" xlink:href="#prefix__g" y1="-862.934" y2="-849.897"/><linearGradient id="prefix__cX" gradientTransform="matrix(0 1 1 0 1083.223 -1082.23)" gradientUnits="userSpaceOnUse" x1="1341.202" x2="1359.974" xlink:href="#prefix__h" y1="-856.349" y2="-863.128"/><linearGradient id="prefix__cY" gradientTransform="matrix(0 1 1 0 1095.223 -1099.23)" gradientUnits="userSpaceOnUse" x1="1346.04" x2="1359.077" xlink:href="#prefix__g" y1="-858.01" y2="-844.972"/><linearGradient id="prefix__cZ" gradientTransform="matrix(0 1 1 0 1095.223 -1099.23)" gradientUnits="userSpaceOnUse" x1="1355.284" x2="1374.056" xlink:href="#prefix__h" y1="-851.424" y2="-858.203"/><linearGradient id="prefix__da" gradientTransform="matrix(0 1 1 0 1105.723 -1111.73)" gradientUnits="userSpaceOnUse" x1="1357.373" x2="1370.41" xlink:href="#prefix__g" y1="-855.087" y2="-842.049"/><linearGradient id="prefix__db" gradientTransform="matrix(0 1 1 0 1105.723 -1111.73)" gradientUnits="userSpaceOnUse" x1="1366.617" x2="1385.389" xlink:href="#prefix__h" y1="-848.501" y2="-855.28"/><linearGradient id="prefix__dc" gradientTransform="matrix(0 1 1 0 1125.223 -1126.23)" gradientUnits="userSpaceOnUse" x1="1374.791" x2="1387.828" xlink:href="#prefix__g" y1="-854.744" y2="-841.707"/><linearGradient id="prefix__dd" gradientTransform="matrix(0 1 1 0 1125.223 -1126.23)" gradientUnits="userSpaceOnUse" x1="1384.035" x2="1402.807" xlink:href="#prefix__h" y1="-848.159" y2="-854.938"/><linearGradient id="prefix__de" gradientTransform="matrix(0 1 1 0 1146.223 -1145.23)" gradientUnits="userSpaceOnUse" x1="1394.958" x2="1407.995" xlink:href="#prefix__g" y1="-852.4" y2="-839.363"/><linearGradient id="prefix__df" gradientTransform="matrix(0 1 1 0 1146.223 -1145.23)" gradientUnits="userSpaceOnUse" x1="1404.202" x2="1422.974" xlink:href="#prefix__h" y1="-845.814" y2="-852.593"/><linearGradient id="prefix__dg" gradientTransform="matrix(0 1 1 0 1139.723 -1128.73)" gradientUnits="userSpaceOnUse" x1="1384.294" x2="1397.331" xlink:href="#prefix__g" y1="-859.323" y2="-846.286"/><linearGradient id="prefix__dh" gradientTransform="matrix(0 1 1 0 1139.723 -1128.73)" gradientUnits="userSpaceOnUse" x1="1393.538" x2="1412.311" xlink:href="#prefix__h" y1="-852.737" y2="-859.516"/><linearGradient id="prefix__di" gradientTransform="matrix(0 1 1 0 1059.723 -1064.73)" gradientUnits="userSpaceOnUse" x1="1310.956" x2="1323.994" xlink:href="#prefix__g" y1="-863.362" y2="-850.325"/><linearGradient id="prefix__dj" gradientTransform="matrix(0 1 1 0 1059.723 -1064.73)" gradientUnits="userSpaceOnUse" x1="1320.2" x2="1338.973" xlink:href="#prefix__h" y1="-856.777" y2="-863.556"/><linearGradient id="prefix__dk" gradientTransform="matrix(0 1 1 0 1079.223 -1065.23)" gradientUnits="userSpaceOnUse" x1="1322.545" x2="1335.582" xlink:href="#prefix__g" y1="-871.19" y2="-858.153"/><linearGradient id="prefix__dl" gradientTransform="matrix(0 1 1 0 1079.223 -1065.23)" gradientUnits="userSpaceOnUse" x1="1331.789" x2="1350.561" xlink:href="#prefix__h" y1="-864.604" y2="-871.384"/><linearGradient id="prefix__dm" gradientTransform="matrix(0 1 1 0 1103.223 -1080.23)" gradientUnits="userSpaceOnUse" x1="1342.797" x2="1355.835" xlink:href="#prefix__g" y1="-872.429" y2="-859.392"/><linearGradient id="prefix__dn" gradientTransform="matrix(0 1 1 0 1103.223 -1080.23)" gradientUnits="userSpaceOnUse" x1="1352.041" x2="1370.814" xlink:href="#prefix__h" y1="-865.844" y2="-872.623"/><linearGradient id="prefix__do" gradientTransform="matrix(0 1 1 0 1115.723 -1096.73)" gradientUnits="userSpaceOnUse" x1="1356.963" x2="1370" xlink:href="#prefix__g" y1="-868.005" y2="-854.968"/><linearGradient id="prefix__dp" gradientTransform="matrix(0 1 1 0 1115.723 -1096.73)" gradientUnits="userSpaceOnUse" x1="1366.207" x2="1384.979" xlink:href="#prefix__h" y1="-861.419" y2="-868.198"/><linearGradient id="prefix__dq" gradientTransform="matrix(0 1 1 0 1129.723 -1110.73)" gradientUnits="userSpaceOnUse" x1="1370.963" x2="1384" xlink:href="#prefix__g" y1="-865.664" y2="-852.627"/><linearGradient id="prefix__dr" gradientTransform="matrix(0 1 1 0 1129.723 -1110.73)" gradientUnits="userSpaceOnUse" x1="1380.207" x2="1398.979" xlink:href="#prefix__h" y1="-859.078" y2="-865.857"/><linearGradient id="prefix__ds" gradientTransform="matrix(0 1 1 0 1098.723 -1066.73)" gradientUnits="userSpaceOnUse" x1="1334.55" x2="1347.587" xlink:href="#prefix__g" y1="-878.434" y2="-865.397"/><linearGradient id="prefix__dt" gradientTransform="matrix(0 1 1 0 1098.723 -1066.73)" gradientUnits="userSpaceOnUse" x1="1343.794" x2="1362.566" xlink:href="#prefix__h" y1="-871.849" y2="-878.628"/><linearGradient id="prefix__du" gradientTransform="matrix(0 1 1 0 1121.723 -1074.73)" gradientUnits="userSpaceOnUse" x1="1351.304" x2="1364.341" xlink:href="#prefix__g" y1="-883.342" y2="-870.305"/><linearGradient id="prefix__dv" gradientTransform="matrix(0 1 1 0 1121.723 -1074.73)" gradientUnits="userSpaceOnUse" x1="1360.548" x2="1379.32" xlink:href="#prefix__h" y1="-876.757" y2="-883.536"/><linearGradient id="prefix__dw" gradientTransform="matrix(0 1 1 0 1137.098 -1091.605)" gradientUnits="userSpaceOnUse" x1="1367.304" x2="1380.341" xlink:href="#prefix__g" y1="-879.896" y2="-866.859"/><linearGradient id="prefix__dx" gradientTransform="matrix(0 1 1 0 1137.098 -1091.605)" gradientUnits="userSpaceOnUse" x1="1376.547" x2="1395.32" xlink:href="#prefix__h" y1="-873.311" y2="-880.09"/><linearGradient id="prefix__dy" gradientTransform="matrix(0 1 1 0 1151.473 -1111.23)" gradientUnits="userSpaceOnUse" x1="1383.865" x2="1396.902" xlink:href="#prefix__g" y1="-874.429" y2="-861.391"/><linearGradient id="prefix__dz" gradientTransform="matrix(0 1 1 0 1151.473 -1111.23)" gradientUnits="userSpaceOnUse" x1="1393.108" x2="1411.881" xlink:href="#prefix__h" y1="-867.843" y2="-874.622"/><linearGradient id="prefix__dA" gradientTransform="matrix(0 1 1 0 1159.723 -1129.73)" gradientUnits="userSpaceOnUse" x1="1396.383" x2="1409.42" xlink:href="#prefix__g" y1="-867.067" y2="-854.03"/><linearGradient id="prefix__dB" gradientTransform="matrix(0 1 1 0 1159.723 -1129.73)" gradientUnits="userSpaceOnUse" x1="1405.626" x2="1424.399" xlink:href="#prefix__h" y1="-860.482" y2="-867.261"/><linearGradient id="prefix__dC" gradientTransform="matrix(0 1 1 0 1159.723 -1129.73)" gradientUnits="userSpaceOnUse" x1="1385.586" x2="1398.623" xlink:href="#prefix__g" y1="-851.456" y2="-838.418"/><linearGradient id="prefix__dD" gradientTransform="matrix(0 1 1 0 1159.723 -1129.73)" gradientUnits="userSpaceOnUse" x1="1394.83" x2="1413.602" xlink:href="#prefix__h" y1="-844.87" y2="-851.649"/><linearGradient id="prefix__dE" gradientTransform="matrix(0 1 1 0 1071.723 -1046.73)" gradientUnits="userSpaceOnUse" x1="1310.465" x2="1323.502" xlink:href="#prefix__g" y1="-878.864" y2="-865.826"/><linearGradient id="prefix__dF" gradientTransform="matrix(0 1 1 0 1071.723 -1046.73)" gradientUnits="userSpaceOnUse" x1="1319.708" x2="1338.481" xlink:href="#prefix__h" y1="-872.278" y2="-879.057"/><linearGradient id="prefix__dG" gradientTransform="matrix(0 1 1 0 1092.723 -1045.73)" gradientUnits="userSpaceOnUse" x1="1322.304" x2="1335.341" xlink:href="#prefix__g" y1="-888.192" y2="-875.154"/><linearGradient id="prefix__dH" gradientTransform="matrix(0 1 1 0 1092.723 -1045.73)" gradientUnits="userSpaceOnUse" x1="1331.548" x2="1350.32" xlink:href="#prefix__h" y1="-881.606" y2="-888.385"/><linearGradient id="prefix__dI" gradientTransform="matrix(0 1 1 0 1112.723 -1055.73)" gradientUnits="userSpaceOnUse" x1="1338.14" x2="1351.177" xlink:href="#prefix__g" y1="-890.683" y2="-877.646"/><linearGradient id="prefix__dJ" gradientTransform="matrix(0 1 1 0 1112.723 -1055.73)" gradientUnits="userSpaceOnUse" x1="1347.384" x2="1366.156" xlink:href="#prefix__h" y1="-884.098" y2="-890.877"/><linearGradient id="prefix__dK" gradientTransform="matrix(0 1 1 0 1135.223 -1069.23)" gradientUnits="userSpaceOnUse" x1="1356.893" x2="1369.93" xlink:href="#prefix__g" y1="-892.174" y2="-879.136"/><linearGradient id="prefix__dL" gradientTransform="matrix(0 1 1 0 1135.223 -1069.23)" gradientUnits="userSpaceOnUse" x1="1366.136" x2="1384.909" xlink:href="#prefix__h" y1="-885.588" y2="-892.367"/><linearGradient id="prefix__dM" gradientTransform="matrix(0 1 1 0 1158.973 -1094.23)" gradientUnits="userSpaceOnUse" x1="1382.184" x2="1395.221" xlink:href="#prefix__g" y1="-894.476" y2="-881.439"/><linearGradient id="prefix__dN" gradientTransform="matrix(0 1 1 0 1158.973 -1094.23)" gradientUnits="userSpaceOnUse" x1="1391.428" x2="1410.201" xlink:href="#prefix__h" y1="-887.891" y2="-894.67"/><linearGradient id="prefix__dO" gradientTransform="matrix(0 1 1 0 1158.973 -1094.23)" gradientUnits="userSpaceOnUse" x1="1377.661" x2="1390.699" xlink:href="#prefix__g" y1="-874.633" y2="-861.596"/><linearGradient id="prefix__dP" gradientTransform="matrix(0 1 1 0 1158.973 -1094.23)" gradientUnits="userSpaceOnUse" x1="1386.905" x2="1405.678" xlink:href="#prefix__h" y1="-868.048" y2="-874.827"/><linearGradient id="prefix__dQ" gradientTransform="matrix(0 1 1 0 1158.973 -1094.23)" gradientUnits="userSpaceOnUse" x1="1368.761" x2="1381.799" xlink:href="#prefix__g" y1="-855.374" y2="-842.337"/><linearGradient id="prefix__dR" gradientTransform="matrix(0 1 1 0 1158.973 -1094.23)" gradientUnits="userSpaceOnUse" x1="1378.005" x2="1396.778" xlink:href="#prefix__h" y1="-848.789" y2="-855.568"/><path d="M255 137.497c0-42.342-255-42.342-255 0v99.635c0 42.342 57.084 76.667 127.5 76.667S255 279.474 255 237.132v-99.635z" fill="url(#prefix__i)"/><ellipse cx="127.5" cy="137.497" fill="url(#prefix__j)" rx="127.5" ry="76.667"/><ellipse cx="127.5" cy="131.855" fill="url(#prefix__k)" rx="91.943" ry="52.607"/><ellipse cx="127.5" cy="131.855" fill="url(#prefix__l)" rx="85.276" ry="47.607"/><path d="M58.322 104.034c-9.71 7.512-7.851 22.906 3.421 27.77 5.834 2.517 12.494 3.944 19.569 3.944 23.013 0 41.669-15.09 41.669-33.705l-.001-.191c-.068-9.96-9.247-17.319-19.082-15.741-18.575 2.98-34.546 9.389-45.576 17.923z" fill="url(#prefix__m)"/><path d="M115.642 82.677c-.065-.061-1.892-1.898-1.892-1.898a10.861 10.861 0 00-1.196-.977c-.036-.025-.068-.054-.104-.078a10.708 10.708 0 00-1.143-.674c-.038-.02-.072-.046-.11-.065l.007.015a10.764 10.764 0 00-4.85-1.157c-4.998 0-9.193 3.39-10.441 7.993-.111-.114-.229-.221-.345-.33a11.297 11.297 0 00-1.196-.977c-.035-.025-.068-.053-.104-.078a10.708 10.708 0 00-1.143-.674c-.038-.02-.072-.046-.11-.065a.1.1 0 00.007.015 10.768 10.768 0 00-4.851-1.157c-5.632 0-10.256 4.3-10.777 9.796l-.05-.035a10.708 10.708 0 00-1.143-.674c-.038-.02-.072-.046-.11-.065l.006.015a10.767 10.767 0 00-4.85-1.157c-5.98 0-10.829 4.848-10.829 10.829 0 .392.028.777.07 1.158 15.614-11.07 39.819-18.186 67.016-18.186 25.66 0 48.655 6.336 64.288 16.348a3456.167 3456.167 0 00-5.672-5.665 10.861 10.861 0 00-1.196-.977c-.036-.025-.068-.053-.105-.078a10.708 10.708 0 00-1.143-.674c-.038-.02-.072-.046-.11-.065a.1.1 0 00.007.015 10.815 10.815 0 00-3.896-1.1l-8.149-8.077c-.085-.111-.158-.232-.247-.339-.033-.04-.071-.076-.105-.115a10.992 10.992 0 00-1.07-1.079c-.3-.264-.611-.513-.939-.743-.036-.025-.068-.054-.104-.078a10.708 10.708 0 00-1.143-.674c-.038-.02-.072-.046-.11-.065l.007.015a10.79 10.79 0 00-13.017 2.574l-.047-.043-2.481-2.37c-.085-.111-.158-.231-.247-.339-.033-.04-.071-.076-.105-.115a10.992 10.992 0 00-1.07-1.079c-.3-.264-.611-.513-.939-.743-.036-.025-.069-.054-.104-.078a10.808 10.808 0 00-1.143-.674c-.038-.02-.072-.046-.11-.065a.1.1 0 00.007.015 10.768 10.768 0 00-4.851-1.157c-4.358 0-8.107 2.578-9.825 6.288l-2.036-2.039a10.861 10.861 0 00-1.196-.977c-.036-.025-.068-.053-.105-.078a10.708 10.708 0 00-1.143-.674c-.038-.02-.072-.046-.11-.065a.1.1 0 00.007.015 10.768 10.768 0 00-4.851-1.157c-3.641-.004-6.845 1.793-8.809 4.538z" fill="url(#prefix__n)"/><path d="M212.776 131.855c0-4.891-1.325-9.608-3.779-14.049-6.219-6.22-12.727-12.73-17.208-17.209-15.634-10.013-38.629-16.349-64.289-16.349-27.197 0-51.402 7.117-67.016 18.186.143 1.315.518 2.56 1.087 3.693l-.015-.006c.019.038.045.072.065.11.204.395.425.778.674 1.143.024.036.053.069.078.104a11.072 11.072 0 00.976 1.197c.268.286.549.559.846.814l1.514 1.531a10.757 10.757 0 00-.546 10.661l-.015-.007c.019.038.045.072.065.11.204.395.425.778.674 1.143.025.036.053.069.078.104a10.861 10.861 0 00.977 1.196c.046.049.09.102.137.151-3.865 1.653-6.575 5.489-6.575 9.959 0 1.746.423 3.39 1.157 4.85l-.015-.007c.019.038.046.072.065.111.204.395.425.778.674 1.143.025.036.054.069.079.106.229.327.479.639.742.938l9.759 9.759.046.051c.103.249.201.5.321.739l-.015-.007c.019.038.045.072.065.11.204.395.426.779.675 1.144.024.035.052.068.077.103.23.328.48.64.744.94l21.958 21.958c9.518 2.049 19.849 3.184 30.661 3.184 47.099.002 85.279-21.312 85.279-47.604z" fill="url(#prefix__o)"/><circle cx="71.243" cy="101.276" fill="url(#prefix__p)" r="10.829"/><path d="M61.556 106.121a10.79 10.79 0 004.844 1.142c5.981 0 10.829-4.848 10.829-10.829a10.79 10.79 0 00-1.142-4.844 10.83 10.83 0 015.985 9.687c0 5.98-4.848 10.829-10.829 10.829a10.832 10.832 0 01-9.687-5.985z" fill="url(#prefix__q)"/><circle cx="88.168" cy="93.398" fill="url(#prefix__r)" r="10.829"/><path d="M78.481 98.242a10.79 10.79 0 004.844 1.142c5.981 0 10.829-4.848 10.829-10.829a10.79 10.79 0 00-1.142-4.844 10.83 10.83 0 015.985 9.687c0 5.981-4.848 10.829-10.829 10.829-4.24 0-7.909-2.437-9.687-5.985z" fill="url(#prefix__s)"/><circle cx="106.351" cy="88.672" fill="url(#prefix__t)" r="10.829"/><path d="M96.665 93.516a10.79 10.79 0 004.844 1.142c5.98 0 10.829-4.848 10.829-10.829a10.79 10.79 0 00-1.142-4.844 10.83 10.83 0 015.985 9.687c0 5.981-4.848 10.829-10.829 10.829-4.24 0-7.909-2.437-9.687-5.985z" fill="url(#prefix__u)"/><circle cx="124.443" cy="88.964" fill="url(#prefix__v)" r="10.829"/><path d="M114.756 93.808a10.79 10.79 0 004.844 1.142c5.981 0 10.829-4.848 10.829-10.829a10.79 10.79 0 00-1.142-4.844 10.83 10.83 0 015.985 9.687c0 5.981-4.848 10.829-10.829 10.829a10.832 10.832 0 01-9.687-5.985z" fill="url(#prefix__w)"/><circle cx="143.702" cy="87.65" fill="url(#prefix__x)" r="10.829"/><path d="M134.015 92.494a10.79 10.79 0 004.844 1.142c5.981 0 10.829-4.848 10.829-10.829a10.79 10.79 0 00-1.142-4.844 10.83 10.83 0 015.985 9.687c0 5.98-4.848 10.829-10.829 10.829a10.828 10.828 0 01-9.687-5.985z" fill="url(#prefix__y)"/><circle cx="162.961" cy="90.568" fill="url(#prefix__z)" r="10.829"/><path d="M153.274 95.413a10.79 10.79 0 004.844 1.142c5.981 0 10.829-4.848 10.829-10.829a10.79 10.79 0 00-1.142-4.844 10.83 10.83 0 015.985 9.687c0 5.981-4.848 10.829-10.829 10.829a10.832 10.832 0 01-9.687-5.985z" fill="url(#prefix__A)"/><circle cx="178.718" cy="102.824" fill="url(#prefix__B)" r="10.829"/><path d="M169.032 107.668a10.79 10.79 0 004.844 1.142c5.98 0 10.829-4.848 10.829-10.829a10.79 10.79 0 00-1.142-4.844 10.828 10.828 0 015.985 9.687c0 5.981-4.848 10.829-10.829 10.829-4.24 0-7.909-2.436-9.687-5.985z" fill="url(#prefix__C)"/><circle cx="163.545" cy="106.909" fill="url(#prefix__D)" r="10.829"/><path d="M153.858 111.753a10.79 10.79 0 004.844 1.142c5.981 0 10.829-4.848 10.829-10.829a10.79 10.79 0 00-1.142-4.844 10.83 10.83 0 015.985 9.687c0 5.98-4.848 10.829-10.829 10.829a10.828 10.828 0 01-9.687-5.985z" fill="url(#prefix__E)"/><circle cx="150.122" cy="102.241" fill="url(#prefix__F)" r="10.829"/><path d="M140.435 107.085a10.79 10.79 0 004.844 1.142c5.981 0 10.829-4.848 10.829-10.829a10.79 10.79 0 00-1.142-4.844 10.828 10.828 0 015.985 9.687c0 5.981-4.848 10.829-10.829 10.829a10.832 10.832 0 01-9.687-5.985z" fill="url(#prefix__G)"/><circle cx="136.115" cy="103.408" fill="url(#prefix__H)" r="10.829"/><path d="M126.428 108.252a10.79 10.79 0 004.844 1.142c5.98 0 10.829-4.848 10.829-10.829a10.79 10.79 0 00-1.142-4.844 10.83 10.83 0 015.985 9.687c0 5.981-4.848 10.829-10.829 10.829a10.83 10.83 0 01-9.687-5.985z" fill="url(#prefix__I)"/><circle cx="116.856" cy="103.408" fill="url(#prefix__J)" r="10.829"/><path d="M107.17 108.252a10.79 10.79 0 004.844 1.142c5.98 0 10.829-4.848 10.829-10.829a10.79 10.79 0 00-1.142-4.844 10.83 10.83 0 015.985 9.687c0 5.981-4.848 10.829-10.829 10.829-4.24 0-7.91-2.437-9.687-5.985z" fill="url(#prefix__K)"/><circle cx="101.099" cy="103.408" fill="url(#prefix__L)" r="10.829"/><path d="M91.412 108.252a10.79 10.79 0 004.844 1.142c5.981 0 10.829-4.848 10.829-10.829a10.79 10.79 0 00-1.142-4.844 10.828 10.828 0 015.985 9.687c0 5.981-4.848 10.829-10.829 10.829a10.83 10.83 0 01-9.687-5.985z" fill="url(#prefix__M)"/><circle cx="85.342" cy="106.909" fill="url(#prefix__N)" r="10.829"/><path d="M75.655 111.753a10.79 10.79 0 004.844 1.142c5.98 0 10.829-4.848 10.829-10.829a10.79 10.79 0 00-1.142-4.844 10.83 10.83 0 015.985 9.687c0 5.98-4.848 10.829-10.829 10.829-4.24 0-7.909-2.436-9.687-5.985z" fill="url(#prefix__O)"/><circle cx="98.764" cy="120.332" fill="url(#prefix__P)" r="10.829"/><path d="M89.078 125.176a10.79 10.79 0 004.844 1.142c5.981 0 10.829-4.848 10.829-10.829a10.79 10.79 0 00-1.142-4.844 10.828 10.828 0 015.985 9.687c0 5.981-4.848 10.829-10.829 10.829-4.24 0-7.909-2.436-9.687-5.985z" fill="url(#prefix__Q)"/><circle cx="115.689" cy="117.414" fill="url(#prefix__R)" r="10.829"/><path d="M106.002 122.258a10.79 10.79 0 004.844 1.142c5.98 0 10.829-4.848 10.829-10.829a10.79 10.79 0 00-1.142-4.844 10.83 10.83 0 015.985 9.687c0 5.98-4.848 10.829-10.829 10.829a10.828 10.828 0 01-9.687-5.985z" fill="url(#prefix__S)"/><circle cx="129.112" cy="116.247" fill="url(#prefix__T)" r="10.829"/><path d="M119.425 121.091a10.79 10.79 0 004.844 1.142c5.981 0 10.829-4.848 10.829-10.829a10.79 10.79 0 00-1.142-4.844 10.83 10.83 0 015.985 9.687c0 5.98-4.848 10.829-10.829 10.829a10.828 10.828 0 01-9.687-5.985z" fill="url(#prefix__U)"/><circle cx="148.955" cy="119.165" fill="url(#prefix__V)" r="10.829"/><path d="M139.268 124.009a10.79 10.79 0 004.844 1.142c5.981 0 10.829-4.848 10.829-10.829a10.79 10.79 0 00-1.142-4.844 10.83 10.83 0 015.985 9.687c0 5.981-4.848 10.829-10.829 10.829-4.24 0-7.909-2.436-9.687-5.985z" fill="url(#prefix__W)"/><circle cx="172.299" cy="120.332" fill="url(#prefix__X)" r="10.829"/><path d="M162.612 125.176a10.79 10.79 0 004.844 1.142c5.981 0 10.829-4.848 10.829-10.829a10.79 10.79 0 00-1.142-4.844 10.83 10.83 0 015.985 9.687c0 5.981-4.848 10.829-10.829 10.829a10.828 10.828 0 01-9.687-5.985z" fill="url(#prefix__Y)"/><circle cx="158.876" cy="126.168" fill="url(#prefix__Z)" r="10.829"/><path d="M149.189 131.012a10.79 10.79 0 004.844 1.142c5.981 0 10.829-4.848 10.829-10.829a10.79 10.79 0 00-1.142-4.844 10.83 10.83 0 015.985 9.687c0 5.98-4.848 10.829-10.829 10.829a10.828 10.828 0 01-9.687-5.985z" fill="url(#prefix__aa)"/><g><circle cx="74.837" cy="116.831" fill="url(#prefix__ab)" r="10.829"/><path d="M65.15 121.675a10.79 10.79 0 004.844 1.142c5.98 0 10.829-4.848 10.829-10.829a10.79 10.79 0 00-1.142-4.844 10.83 10.83 0 015.985 9.687c0 5.98-4.848 10.829-10.829 10.829a10.83 10.83 0 01-9.687-5.985z" fill="url(#prefix__ac)"/></g><g><circle cx="86.509" cy="127.919" fill="url(#prefix__ad)" r="10.829"/><path d="M76.822 132.763a10.79 10.79 0 004.844 1.142c5.98 0 10.829-4.848 10.829-10.829a10.79 10.79 0 00-1.142-4.844 10.829 10.829 0 015.985 9.687c0 5.981-4.848 10.829-10.829 10.829a10.828 10.828 0 01-9.687-5.985z" fill="url(#prefix__ae)"/></g><g><circle cx="109.269" cy="133.172" fill="url(#prefix__af)" r="10.829"/><path d="M99.583 138.016a10.79 10.79 0 004.844 1.142c5.981 0 10.829-4.848 10.829-10.829a10.79 10.79 0 00-1.142-4.844 10.828 10.828 0 015.985 9.687c0 5.981-4.848 10.829-10.829 10.829a10.83 10.83 0 01-9.687-5.985z" fill="url(#prefix__ag)"/></g><g><circle cx="126.194" cy="130.837" fill="url(#prefix__ah)" r="10.829"/><path d="M116.507 135.681a10.79 10.79 0 004.844 1.142c5.98 0 10.829-4.848 10.829-10.829a10.79 10.79 0 00-1.142-4.844 10.829 10.829 0 015.985 9.687c0 5.981-4.848 10.829-10.829 10.829a10.828 10.828 0 01-9.687-5.985z" fill="url(#prefix__ai)"/></g><g><circle cx="142.535" cy="130.837" fill="url(#prefix__aj)" r="10.829"/><path d="M132.848 135.681a10.79 10.79 0 004.844 1.142c5.981 0 10.829-4.848 10.829-10.829a10.79 10.79 0 00-1.142-4.844 10.829 10.829 0 015.985 9.687c0 5.981-4.848 10.829-10.829 10.829a10.828 10.828 0 01-9.687-5.985z" fill="url(#prefix__ak)"/></g><g><circle cx="98.764" cy="138.424" fill="url(#prefix__al)" r="10.829"/><path d="M89.078 143.268a10.79 10.79 0 004.844 1.142c5.981 0 10.829-4.848 10.829-10.829a10.79 10.79 0 00-1.142-4.844 10.827 10.827 0 015.985 9.687c0 5.981-4.848 10.829-10.829 10.829-4.24 0-7.909-2.436-9.687-5.985z" fill="url(#prefix__am)"/></g><g><circle cx="116.856" cy="147.178" fill="url(#prefix__an)" r="10.829"/><path d="M107.17 152.022a10.79 10.79 0 004.844 1.142c5.98 0 10.829-4.848 10.829-10.829a10.79 10.79 0 00-1.142-4.844 10.829 10.829 0 015.985 9.687c0 5.98-4.848 10.829-10.829 10.829-4.24 0-7.91-2.436-9.687-5.985z" fill="url(#prefix__ao)"/></g><g><circle cx="135.678" cy="146.303" fill="url(#prefix__ap)" r="10.829"/><path d="M125.991 151.147a10.79 10.79 0 004.844 1.142c5.98 0 10.829-4.848 10.829-10.829a10.79 10.79 0 00-1.142-4.844 10.83 10.83 0 015.985 9.687c0 5.98-4.848 10.829-10.829 10.829-4.24 0-7.909-2.437-9.687-5.985z" fill="url(#prefix__aq)"/></g><g><circle cx="155.52" cy="143.239" fill="url(#prefix__ar)" r="10.829"/><path d="M145.833 148.083a10.79 10.79 0 004.844 1.142c5.981 0 10.829-4.848 10.829-10.829a10.79 10.79 0 00-1.142-4.844 10.83 10.83 0 015.985 9.687c0 5.981-4.848 10.829-10.829 10.829a10.83 10.83 0 01-9.687-5.985z" fill="url(#prefix__as)"/></g><g><circle cx="171.132" cy="137.257" fill="url(#prefix__at)" r="10.829"/><path d="M161.445 142.101a10.79 10.79 0 004.844 1.142c5.981 0 10.829-4.848 10.829-10.829a10.79 10.79 0 00-1.142-4.844 10.827 10.827 0 015.985 9.687c0 5.98-4.848 10.829-10.829 10.829-4.24 0-7.909-2.437-9.687-5.985z" fill="url(#prefix__au)"/></g><g><circle cx="186.743" cy="126.46" fill="url(#prefix__av)" r="10.829"/><path d="M177.056 131.304a10.79 10.79 0 004.844 1.142c5.98 0 10.829-4.848 10.829-10.829a10.79 10.79 0 00-1.142-4.844 10.829 10.829 0 015.985 9.687c0 5.98-4.848 10.829-10.829 10.829a10.828 10.828 0 01-9.687-5.985z" fill="url(#prefix__aw)"/></g><g><circle cx="71.335" cy="134.339" fill="url(#prefix__ax)" r="10.829"/><path d="M61.648 139.183a10.79 10.79 0 004.844 1.142c5.981 0 10.829-4.848 10.829-10.829a10.79 10.79 0 00-1.142-4.844 10.83 10.83 0 015.985 9.687c0 5.98-4.848 10.829-10.829 10.829a10.83 10.83 0 01-9.687-5.985z" fill="url(#prefix__ay)"/></g><g><circle cx="83.007" cy="147.178" fill="url(#prefix__az)" r="10.829"/><path d="M73.32 152.022a10.79 10.79 0 004.844 1.142c5.981 0 10.829-4.848 10.829-10.829a10.79 10.79 0 00-1.142-4.844 10.829 10.829 0 015.985 9.687c0 5.98-4.848 10.829-10.829 10.829a10.828 10.828 0 01-9.687-5.985z" fill="url(#prefix__aA)"/></g><g><circle cx="100.515" cy="153.014" fill="url(#prefix__aB)" r="10.829"/><path d="M90.829 157.858A10.79 10.79 0 0095.673 159c5.981 0 10.829-4.848 10.829-10.829a10.79 10.79 0 00-1.142-4.844 10.828 10.828 0 015.985 9.687c0 5.981-4.848 10.829-10.829 10.829-4.24 0-7.91-2.436-9.687-5.985z" fill="url(#prefix__aC)"/></g><g><circle cx="121.525" cy="158.267" fill="url(#prefix__aD)" r="10.829"/><path d="M111.838 163.111a10.79 10.79 0 004.844 1.142c5.981 0 10.829-4.848 10.829-10.829a10.79 10.79 0 00-1.142-4.844 10.83 10.83 0 015.985 9.687c0 5.981-4.848 10.829-10.829 10.829a10.83 10.83 0 01-9.687-5.985z" fill="url(#prefix__aE)"/></g><g><circle cx="142.973" cy="158.559" fill="url(#prefix__aF)" r="10.829"/><path d="M133.286 163.403a10.79 10.79 0 004.844 1.142c5.981 0 10.829-4.848 10.829-10.829a10.79 10.79 0 00-1.142-4.844 10.829 10.829 0 015.985 9.687c0 5.981-4.848 10.829-10.829 10.829a10.83 10.83 0 01-9.687-5.985z" fill="url(#prefix__aG)"/></g><g><circle cx="162.815" cy="154.036" fill="url(#prefix__aH)" r="10.829"/><path d="M153.128 158.88a10.79 10.79 0 004.844 1.142c5.981 0 10.829-4.848 10.829-10.829a10.79 10.79 0 00-1.142-4.844 10.83 10.83 0 015.985 9.687c0 5.981-4.848 10.829-10.829 10.829a10.832 10.832 0 01-9.687-5.985z" fill="url(#prefix__aI)"/></g><g><circle cx="182.074" cy="145.136" fill="url(#prefix__aJ)" r="10.829"/><path d="M172.387 149.98a10.79 10.79 0 004.844 1.142c5.981 0 10.829-4.848 10.829-10.829a10.79 10.79 0 00-1.142-4.844 10.83 10.83 0 015.985 9.687c0 5.98-4.848 10.829-10.829 10.829a10.832 10.832 0 01-9.687-5.985z" fill="url(#prefix__aK)"/></g><g><path d="M510 137.497c0-42.342-255-42.342-255 0v99.635c0 42.342 57.084 76.667 127.5 76.667S510 279.474 510 237.132v-99.635z" fill="url(#prefix__aL)"/><ellipse cx="382.5" cy="137.497" fill="url(#prefix__aM)" rx="127.5" ry="76.667"/><ellipse cx="382.5" cy="131.855" fill="url(#prefix__aN)" rx="91.943" ry="52.607"/><ellipse cx="382.5" cy="131.855" fill="url(#prefix__aO)" rx="85.276" ry="47.607"/><path d="M313.322 104.034c-9.71 7.512-7.851 22.906 3.421 27.77 5.834 2.517 12.494 3.944 19.569 3.944 23.013 0 41.669-15.09 41.669-33.705l-.001-.191c-.068-9.96-9.247-17.319-19.082-15.741-18.575 2.98-34.546 9.389-45.576 17.923z" fill="url(#prefix__aP)"/><path d="M370.642 82.677c-.065-.061-1.892-1.898-1.892-1.898a10.861 10.861 0 00-1.196-.977c-.036-.025-.068-.054-.104-.078a10.808 10.808 0 00-1.143-.674c-.038-.02-.072-.046-.11-.065l.007.015a10.767 10.767 0 00-4.85-1.157c-4.997 0-9.193 3.39-10.44 7.993-.112-.114-.229-.221-.345-.33a11.297 11.297 0 00-1.196-.977c-.035-.025-.068-.053-.104-.078a10.708 10.708 0 00-1.143-.674c-.038-.02-.072-.046-.11-.065l.007.015a10.77 10.77 0 00-4.851-1.157c-5.632 0-10.256 4.3-10.777 9.796l-.05-.035a10.708 10.708 0 00-1.143-.674c-.038-.02-.072-.046-.11-.065l.006.015a10.767 10.767 0 00-4.85-1.157c-5.981 0-10.829 4.848-10.829 10.829 0 .392.028.777.07 1.158 15.614-11.07 39.819-18.186 67.016-18.186 25.66 0 48.655 6.336 64.288 16.348a3456.167 3456.167 0 00-5.672-5.665 10.861 10.861 0 00-1.196-.977c-.036-.025-.068-.053-.104-.078a10.708 10.708 0 00-1.143-.674c-.038-.02-.072-.046-.11-.065a.1.1 0 00.007.015 10.815 10.815 0 00-3.896-1.1l-8.149-8.077c-.085-.111-.158-.232-.247-.339-.033-.04-.071-.076-.105-.115a10.992 10.992 0 00-1.07-1.079c-.3-.264-.611-.513-.939-.743-.036-.025-.069-.054-.104-.078a10.708 10.708 0 00-1.143-.674c-.038-.02-.072-.046-.11-.065l.007.015a10.79 10.79 0 00-13.017 2.574l-.047-.043-2.481-2.37c-.085-.111-.158-.231-.247-.339-.033-.04-.071-.076-.105-.115a10.992 10.992 0 00-1.07-1.079c-.3-.264-.611-.513-.939-.743-.036-.025-.069-.054-.104-.078a10.808 10.808 0 00-1.143-.674c-.038-.02-.072-.046-.11-.065a.1.1 0 00.007.015 10.767 10.767 0 00-4.85-1.157c-4.358 0-8.107 2.578-9.825 6.288l-2.036-2.039a10.861 10.861 0 00-1.196-.977c-.036-.025-.068-.053-.104-.078a10.708 10.708 0 00-1.143-.674c-.038-.02-.072-.046-.11-.065a.1.1 0 00.007.015 10.768 10.768 0 00-4.851-1.157c-3.645-.004-6.849 1.793-8.813 4.538z" fill="url(#prefix__aQ)"/><path d="M467.776 131.855c0-4.891-1.325-9.608-3.779-14.049-6.219-6.22-12.727-12.73-17.208-17.209-15.634-10.013-38.629-16.349-64.289-16.349-27.197 0-51.402 7.117-67.016 18.186.143 1.315.518 2.56 1.087 3.693l-.015-.006c.019.038.045.072.065.11.204.395.425.778.674 1.143.024.036.053.069.078.104a11.072 11.072 0 00.976 1.197c.268.286.549.559.846.814l1.514 1.531a10.757 10.757 0 00-.546 10.661l-.015-.007c.019.038.045.072.065.11.204.395.425.778.674 1.143.025.036.053.069.078.104a10.861 10.861 0 00.977 1.196c.046.049.09.102.137.151-3.866 1.653-6.575 5.489-6.575 9.959 0 1.746.423 3.39 1.157 4.85l-.015-.007c.019.038.046.072.065.111.204.395.425.778.674 1.143.025.036.054.069.079.106.229.327.479.639.742.938l9.759 9.759.046.051c.103.249.201.5.321.739l-.015-.007c.019.038.045.072.065.11.204.395.426.779.675 1.144.024.035.052.068.077.103.23.328.48.64.744.94l21.958 21.958c9.518 2.049 19.849 3.184 30.661 3.184 47.099.002 85.279-21.312 85.279-47.604z" fill="url(#prefix__aR)"/><circle cx="326.243" cy="101.276" fill="url(#prefix__aS)" r="10.829"/><path d="M316.556 106.121a10.79 10.79 0 004.844 1.142c5.981 0 10.829-4.848 10.829-10.829a10.79 10.79 0 00-1.142-4.844 10.83 10.83 0 015.985 9.687c0 5.98-4.848 10.829-10.829 10.829a10.832 10.832 0 01-9.687-5.985z" fill="url(#prefix__aT)"/><circle cx="343.168" cy="93.398" fill="url(#prefix__aU)" r="10.829"/><path d="M333.481 98.242a10.79 10.79 0 004.844 1.142c5.98 0 10.829-4.848 10.829-10.829a10.79 10.79 0 00-1.142-4.844 10.83 10.83 0 015.985 9.687c0 5.981-4.848 10.829-10.829 10.829-4.24 0-7.909-2.437-9.687-5.985z" fill="url(#prefix__aV)"/><circle cx="361.351" cy="88.672" fill="url(#prefix__aW)" r="10.829"/><path d="M351.665 93.516a10.79 10.79 0 004.844 1.142c5.98 0 10.829-4.848 10.829-10.829a10.79 10.79 0 00-1.142-4.844 10.83 10.83 0 015.985 9.687c0 5.981-4.848 10.829-10.829 10.829-4.24 0-7.909-2.437-9.687-5.985z" fill="url(#prefix__aX)"/><circle cx="379.443" cy="88.964" fill="url(#prefix__aY)" r="10.829"/><path d="M369.756 93.808a10.79 10.79 0 004.844 1.142c5.981 0 10.829-4.848 10.829-10.829a10.79 10.79 0 00-1.142-4.844 10.83 10.83 0 015.985 9.687c0 5.981-4.848 10.829-10.829 10.829a10.832 10.832 0 01-9.687-5.985z" fill="url(#prefix__aZ)"/><circle cx="398.702" cy="87.65" fill="url(#prefix__ba)" r="10.829"/><path d="M389.015 92.494a10.79 10.79 0 004.844 1.142c5.981 0 10.829-4.848 10.829-10.829a10.79 10.79 0 00-1.142-4.844 10.83 10.83 0 015.985 9.687c0 5.98-4.848 10.829-10.829 10.829a10.828 10.828 0 01-9.687-5.985z" fill="url(#prefix__bb)"/><circle cx="417.961" cy="90.568" fill="url(#prefix__bc)" r="10.829"/><path d="M408.274 95.413a10.79 10.79 0 004.844 1.142c5.981 0 10.829-4.848 10.829-10.829a10.79 10.79 0 00-1.142-4.844 10.83 10.83 0 015.985 9.687c0 5.981-4.848 10.829-10.829 10.829a10.832 10.832 0 01-9.687-5.985z" fill="url(#prefix__bd)"/><circle cx="433.718" cy="102.824" fill="url(#prefix__be)" r="10.829"/><path d="M424.032 107.668a10.79 10.79 0 004.844 1.142c5.98 0 10.829-4.848 10.829-10.829a10.79 10.79 0 00-1.142-4.844 10.828 10.828 0 015.985 9.687c0 5.981-4.848 10.829-10.829 10.829-4.24 0-7.909-2.436-9.687-5.985z" fill="url(#prefix__bf)"/><circle cx="418.545" cy="106.909" fill="url(#prefix__bg)" r="10.829"/><path d="M408.858 111.753a10.79 10.79 0 004.844 1.142c5.981 0 10.829-4.848 10.829-10.829a10.79 10.79 0 00-1.142-4.844 10.83 10.83 0 015.985 9.687c0 5.98-4.848 10.829-10.829 10.829a10.828 10.828 0 01-9.687-5.985z" fill="url(#prefix__bh)"/><circle cx="405.122" cy="102.241" fill="url(#prefix__bi)" r="10.829"/><path d="M395.435 107.085a10.79 10.79 0 004.844 1.142c5.981 0 10.829-4.848 10.829-10.829a10.79 10.79 0 00-1.142-4.844 10.83 10.83 0 015.985 9.687c0 5.981-4.848 10.829-10.829 10.829a10.832 10.832 0 01-9.687-5.985z" fill="url(#prefix__bj)"/><circle cx="391.115" cy="103.408" fill="url(#prefix__bk)" r="10.829"/><path d="M381.428 108.252a10.79 10.79 0 004.844 1.142c5.98 0 10.829-4.848 10.829-10.829a10.79 10.79 0 00-1.142-4.844 10.83 10.83 0 015.985 9.687c0 5.981-4.848 10.829-10.829 10.829a10.83 10.83 0 01-9.687-5.985z" fill="url(#prefix__bl)"/><circle cx="371.856" cy="103.408" fill="url(#prefix__bm)" r="10.829"/><path d="M362.17 108.252a10.79 10.79 0 004.844 1.142c5.98 0 10.829-4.848 10.829-10.829a10.79 10.79 0 00-1.142-4.844 10.83 10.83 0 015.985 9.687c0 5.981-4.848 10.829-10.829 10.829-4.24 0-7.91-2.437-9.687-5.985z" fill="url(#prefix__bn)"/><circle cx="356.099" cy="103.408" fill="url(#prefix__bo)" r="10.829"/><path d="M346.412 108.252a10.79 10.79 0 004.844 1.142c5.981 0 10.829-4.848 10.829-10.829a10.79 10.79 0 00-1.142-4.844 10.83 10.83 0 015.985 9.687c0 5.981-4.848 10.829-10.829 10.829a10.83 10.83 0 01-9.687-5.985z" fill="url(#prefix__bp)"/><circle cx="340.342" cy="106.909" fill="url(#prefix__bq)" r="10.829"/><path d="M330.655 111.753a10.79 10.79 0 004.844 1.142c5.98 0 10.829-4.848 10.829-10.829a10.79 10.79 0 00-1.142-4.844 10.83 10.83 0 015.985 9.687c0 5.98-4.848 10.829-10.829 10.829-4.24 0-7.909-2.436-9.687-5.985z" fill="url(#prefix__br)"/><circle cx="353.764" cy="120.332" fill="url(#prefix__bs)" r="10.829"/><path d="M344.078 125.176a10.79 10.79 0 004.844 1.142c5.981 0 10.829-4.848 10.829-10.829a10.79 10.79 0 00-1.142-4.844 10.828 10.828 0 015.985 9.687c0 5.981-4.848 10.829-10.829 10.829-4.24 0-7.909-2.436-9.687-5.985z" fill="url(#prefix__bt)"/><circle cx="370.689" cy="117.414" fill="url(#prefix__bu)" r="10.829"/><path d="M361.002 122.258a10.79 10.79 0 004.844 1.142c5.98 0 10.829-4.848 10.829-10.829a10.79 10.79 0 00-1.142-4.844 10.83 10.83 0 015.985 9.687c0 5.98-4.848 10.829-10.829 10.829a10.828 10.828 0 01-9.687-5.985z" fill="url(#prefix__bv)"/><circle cx="384.112" cy="116.247" fill="url(#prefix__bw)" r="10.829"/><path d="M374.425 121.091a10.79 10.79 0 004.844 1.142c5.981 0 10.829-4.848 10.829-10.829a10.79 10.79 0 00-1.142-4.844 10.83 10.83 0 015.985 9.687c0 5.98-4.848 10.829-10.829 10.829a10.828 10.828 0 01-9.687-5.985z" fill="url(#prefix__bx)"/><circle cx="403.955" cy="119.165" fill="url(#prefix__by)" r="10.829"/><path d="M394.268 124.009a10.79 10.79 0 004.844 1.142c5.981 0 10.829-4.848 10.829-10.829a10.79 10.79 0 00-1.142-4.844 10.83 10.83 0 015.985 9.687c0 5.981-4.848 10.829-10.829 10.829-4.24 0-7.909-2.436-9.687-5.985z" fill="url(#prefix__bz)"/><circle cx="427.299" cy="120.332" fill="url(#prefix__bA)" r="10.829"/><path d="M417.612 125.176a10.79 10.79 0 004.844 1.142c5.981 0 10.829-4.848 10.829-10.829a10.79 10.79 0 00-1.142-4.844 10.83 10.83 0 015.985 9.687c0 5.981-4.848 10.829-10.829 10.829a10.828 10.828 0 01-9.687-5.985z" fill="url(#prefix__bB)"/><circle cx="413.876" cy="126.168" fill="url(#prefix__bC)" r="10.829"/><path d="M404.189 131.012a10.79 10.79 0 004.844 1.142c5.981 0 10.829-4.848 10.829-10.829a10.79 10.79 0 00-1.142-4.844 10.83 10.83 0 015.985 9.687c0 5.98-4.848 10.829-10.829 10.829a10.828 10.828 0 01-9.687-5.985z" fill="url(#prefix__bD)"/><g><circle cx="329.837" cy="116.831" fill="url(#prefix__bE)" r="10.829"/><path d="M320.15 121.675a10.79 10.79 0 004.844 1.142c5.98 0 10.829-4.848 10.829-10.829a10.79 10.79 0 00-1.142-4.844 10.83 10.83 0 015.985 9.687c0 5.98-4.848 10.829-10.829 10.829a10.83 10.83 0 01-9.687-5.985z" fill="url(#prefix__bF)"/></g><g><circle cx="341.509" cy="127.919" fill="url(#prefix__bG)" r="10.829"/><path d="M331.822 132.763a10.79 10.79 0 004.844 1.142c5.98 0 10.829-4.848 10.829-10.829a10.79 10.79 0 00-1.142-4.844 10.829 10.829 0 015.985 9.687c0 5.981-4.848 10.829-10.829 10.829a10.828 10.828 0 01-9.687-5.985z" fill="url(#prefix__bH)"/></g><g><circle cx="364.269" cy="133.172" fill="url(#prefix__bI)" r="10.829"/><path d="M354.583 138.016a10.79 10.79 0 004.844 1.142c5.981 0 10.829-4.848 10.829-10.829a10.79 10.79 0 00-1.142-4.844 10.828 10.828 0 015.985 9.687c0 5.981-4.848 10.829-10.829 10.829a10.83 10.83 0 01-9.687-5.985z" fill="url(#prefix__bJ)"/></g><g><circle cx="381.194" cy="130.837" fill="url(#prefix__bK)" r="10.829"/><path d="M371.507 135.681a10.79 10.79 0 004.844 1.142c5.98 0 10.829-4.848 10.829-10.829a10.79 10.79 0 00-1.142-4.844 10.829 10.829 0 015.985 9.687c0 5.981-4.848 10.829-10.829 10.829a10.828 10.828 0 01-9.687-5.985z" fill="url(#prefix__bL)"/></g><g><circle cx="397.535" cy="130.837" fill="url(#prefix__bM)" r="10.829"/><path d="M387.848 135.681a10.79 10.79 0 004.844 1.142c5.981 0 10.829-4.848 10.829-10.829a10.79 10.79 0 00-1.142-4.844 10.829 10.829 0 015.985 9.687c0 5.981-4.848 10.829-10.829 10.829a10.828 10.828 0 01-9.687-5.985z" fill="url(#prefix__bN)"/></g><g><circle cx="353.764" cy="138.424" fill="url(#prefix__bO)" r="10.829"/><path d="M344.078 143.268a10.79 10.79 0 004.844 1.142c5.981 0 10.829-4.848 10.829-10.829a10.79 10.79 0 00-1.142-4.844 10.827 10.827 0 015.985 9.687c0 5.981-4.848 10.829-10.829 10.829-4.24 0-7.909-2.436-9.687-5.985z" fill="url(#prefix__bP)"/></g><g><circle cx="371.856" cy="147.178" fill="url(#prefix__bQ)" r="10.829"/><path d="M362.17 152.022a10.79 10.79 0 004.844 1.142c5.98 0 10.829-4.848 10.829-10.829a10.79 10.79 0 00-1.142-4.844 10.829 10.829 0 015.985 9.687c0 5.98-4.848 10.829-10.829 10.829-4.24 0-7.91-2.436-9.687-5.985z" fill="url(#prefix__bR)"/></g><g><circle cx="390.678" cy="146.303" fill="url(#prefix__bS)" r="10.829"/><path d="M380.991 151.147a10.79 10.79 0 004.844 1.142c5.98 0 10.829-4.848 10.829-10.829a10.79 10.79 0 00-1.142-4.844 10.83 10.83 0 015.985 9.687c0 5.98-4.848 10.829-10.829 10.829-4.24 0-7.909-2.437-9.687-5.985z" fill="url(#prefix__bT)"/></g><g><circle cx="410.52" cy="143.239" fill="url(#prefix__bU)" r="10.829"/><path d="M400.833 148.083a10.79 10.79 0 004.844 1.142c5.98 0 10.829-4.848 10.829-10.829a10.79 10.79 0 00-1.142-4.844 10.83 10.83 0 015.985 9.687c0 5.981-4.848 10.829-10.829 10.829a10.83 10.83 0 01-9.687-5.985z" fill="url(#prefix__bV)"/></g><g><circle cx="426.132" cy="137.257" fill="url(#prefix__bW)" r="10.829"/><path d="M416.445 142.101a10.79 10.79 0 004.844 1.142c5.981 0 10.829-4.848 10.829-10.829a10.79 10.79 0 00-1.142-4.844 10.829 10.829 0 015.985 9.687c0 5.98-4.848 10.829-10.829 10.829-4.24 0-7.909-2.437-9.687-5.985z" fill="url(#prefix__bX)"/></g><g><circle cx="441.743" cy="126.46" fill="url(#prefix__bY)" r="10.829"/><path d="M432.056 131.304a10.79 10.79 0 004.844 1.142c5.98 0 10.829-4.848 10.829-10.829a10.79 10.79 0 00-1.142-4.844 10.829 10.829 0 015.985 9.687c0 5.98-4.848 10.829-10.829 10.829a10.828 10.828 0 01-9.687-5.985z" fill="url(#prefix__bZ)"/></g><g><circle cx="326.335" cy="134.339" fill="url(#prefix__ca)" r="10.829"/><path d="M316.648 139.183a10.79 10.79 0 004.844 1.142c5.981 0 10.829-4.848 10.829-10.829a10.79 10.79 0 00-1.142-4.844 10.83 10.83 0 015.985 9.687c0 5.98-4.848 10.829-10.829 10.829a10.83 10.83 0 01-9.687-5.985z" fill="url(#prefix__cb)"/></g><g><circle cx="338.007" cy="147.178" fill="url(#prefix__cc)" r="10.829"/><path d="M328.32 152.022a10.79 10.79 0 004.844 1.142c5.981 0 10.829-4.848 10.829-10.829a10.79 10.79 0 00-1.142-4.844 10.829 10.829 0 015.985 9.687c0 5.98-4.848 10.829-10.829 10.829a10.828 10.828 0 01-9.687-5.985z" fill="url(#prefix__cd)"/></g><g><circle cx="355.515" cy="153.014" fill="url(#prefix__ce)" r="10.829"/><path d="M345.829 157.858a10.79 10.79 0 004.844 1.142c5.981 0 10.829-4.848 10.829-10.829a10.79 10.79 0 00-1.142-4.844 10.83 10.83 0 015.985 9.687c0 5.981-4.848 10.829-10.829 10.829-4.24 0-7.91-2.436-9.687-5.985z" fill="url(#prefix__cf)"/></g><g><circle cx="376.525" cy="158.267" fill="url(#prefix__cg)" r="10.829"/><path d="M366.838 163.111a10.79 10.79 0 004.844 1.142c5.981 0 10.829-4.848 10.829-10.829a10.79 10.79 0 00-1.142-4.844 10.83 10.83 0 015.985 9.687c0 5.981-4.848 10.829-10.829 10.829a10.83 10.83 0 01-9.687-5.985z" fill="url(#prefix__ch)"/></g><g><circle cx="397.973" cy="158.559" fill="url(#prefix__ci)" r="10.829"/><path d="M388.286 163.403a10.79 10.79 0 004.844 1.142c5.981 0 10.829-4.848 10.829-10.829a10.79 10.79 0 00-1.142-4.844 10.829 10.829 0 015.985 9.687c0 5.981-4.848 10.829-10.829 10.829a10.83 10.83 0 01-9.687-5.985z" fill="url(#prefix__cj)"/></g><g><circle cx="417.815" cy="154.036" fill="url(#prefix__ck)" r="10.829"/><path d="M408.128 158.88a10.79 10.79 0 004.844 1.142c5.981 0 10.829-4.848 10.829-10.829a10.79 10.79 0 00-1.142-4.844 10.83 10.83 0 015.985 9.687c0 5.981-4.848 10.829-10.829 10.829a10.832 10.832 0 01-9.687-5.985z" fill="url(#prefix__cl)"/></g><g><circle cx="437.074" cy="145.136" fill="url(#prefix__cm)" r="10.829"/><path d="M427.387 149.98a10.79 10.79 0 004.844 1.142c5.981 0 10.829-4.848 10.829-10.829a10.79 10.79 0 00-1.142-4.844 10.83 10.83 0 015.985 9.687c0 5.98-4.848 10.829-10.829 10.829a10.832 10.832 0 01-9.687-5.985z" fill="url(#prefix__cn)"/></g></g><path d="M382.5 313.798c19.53 0 38.031-2.644 54.576-7.363l-69.061-69.061v75.929c4.755.323 9.586.495 14.485.495z" fill="url(#prefix__co)"/><g><path d="M382.5 272.869c0-42.342-57.084-76.667-127.5-76.667s-127.5 34.325-127.5 76.667v99.635c0 42.342 57.084 76.667 127.5 76.667s127.5-34.325 127.5-76.667v-99.635z" fill="url(#prefix__cp)"/><ellipse cx="255" cy="272.869" fill="url(#prefix__cq)" rx="127.5" ry="76.667"/><ellipse cx="255" cy="267.227" fill="url(#prefix__cr)" rx="91.943" ry="52.607"/><ellipse cx="255" cy="267.227" fill="url(#prefix__cs)" rx="85.276" ry="47.607"/><path d="M185.822 239.406c-9.71 7.512-7.851 22.905 3.421 27.77 5.834 2.517 12.494 3.944 19.569 3.944 23.013 0 41.669-15.09 41.669-33.705l-.001-.191c-.068-9.96-9.247-17.319-19.082-15.741-18.575 2.98-34.546 9.389-45.576 17.923z" fill="url(#prefix__ct)"/><path d="M243.142 218.049c-.065-.061-1.892-1.898-1.892-1.898a11.297 11.297 0 00-1.196-.977c-.036-.025-.068-.054-.105-.078a10.708 10.708 0 00-1.143-.674c-.038-.02-.072-.046-.11-.065l.007.015a10.764 10.764 0 00-4.85-1.157c-4.997 0-9.193 3.39-10.44 7.993-.112-.114-.229-.221-.345-.33a10.861 10.861 0 00-1.196-.977c-.035-.025-.068-.053-.104-.078a10.708 10.708 0 00-1.143-.674c-.038-.02-.072-.046-.11-.065a.1.1 0 00.007.015 10.77 10.77 0 00-4.851-1.157c-5.632 0-10.256 4.3-10.777 9.796l-.05-.035a10.708 10.708 0 00-1.143-.674c-.038-.02-.072-.046-.11-.065l.006.015a10.767 10.767 0 00-4.85-1.157c-5.98 0-10.829 4.848-10.829 10.829 0 .392.028.777.07 1.158 15.614-11.07 39.819-18.186 67.016-18.186 25.66 0 48.655 6.336 64.288 16.349a3028.275 3028.275 0 00-5.672-5.665 11.25 11.25 0 00-1.196-.976c-.036-.025-.068-.053-.104-.078a10.887 10.887 0 00-1.143-.675c-.038-.02-.072-.046-.11-.065a.1.1 0 00.007.015 10.815 10.815 0 00-3.896-1.1l-8.149-8.077c-.085-.111-.158-.231-.247-.339-.033-.04-.071-.076-.105-.115a10.813 10.813 0 00-1.07-1.079c-.3-.264-.611-.513-.939-.743-.036-.025-.069-.054-.104-.078a10.708 10.708 0 00-1.143-.674c-.038-.02-.072-.046-.11-.065l.007.015a10.79 10.79 0 00-13.017 2.574l-.047-.043-2.481-2.37c-.085-.111-.158-.231-.247-.339-.033-.04-.071-.076-.105-.115a10.992 10.992 0 00-1.07-1.079c-.3-.264-.611-.513-.939-.743-.036-.025-.068-.054-.104-.078a10.808 10.808 0 00-1.143-.674c-.038-.02-.072-.046-.11-.065a.1.1 0 00.007.015 10.767 10.767 0 00-4.85-1.157c-4.358 0-8.107 2.578-9.825 6.288l-2.036-2.039a10.861 10.861 0 00-1.196-.977c-.036-.025-.068-.053-.104-.078a10.708 10.708 0 00-1.143-.674c-.038-.02-.072-.046-.11-.065a.1.1 0 00.007.015 10.768 10.768 0 00-4.851-1.157c-3.644-.005-6.848 1.792-8.812 4.537z" fill="url(#prefix__cu)"/><path d="M340.276 267.227c0-4.891-1.325-9.608-3.779-14.049-6.219-6.22-12.727-12.73-17.208-17.209C303.655 225.956 280.66 219.62 255 219.62c-27.197 0-51.402 7.117-67.016 18.186.143 1.315.518 2.56 1.087 3.693l-.015-.007c.019.038.045.072.065.11.204.395.425.778.674 1.143.024.036.053.069.078.104a11.072 11.072 0 00.976 1.197c.268.286.549.559.846.814l1.514 1.531a10.757 10.757 0 00-.546 10.662l-.015-.007c.019.038.045.072.065.11.204.395.425.778.674 1.143.025.036.053.069.078.104a10.861 10.861 0 00.977 1.196c.046.05.09.102.137.151-3.865 1.653-6.575 5.489-6.575 9.959 0 1.746.423 3.39 1.157 4.851l-.015-.007c.019.038.046.073.065.111.204.395.425.778.674 1.142.025.036.054.069.079.106.229.327.479.639.742.938l9.759 9.759.046.051c.103.249.201.5.321.739l-.015-.007c.019.038.045.072.065.11.204.395.426.779.675 1.144.024.035.052.068.077.103.23.328.48.64.744.941l21.958 21.958c9.518 2.049 19.849 3.184 30.661 3.184 47.099.001 85.279-21.313 85.279-47.605z" fill="url(#prefix__cv)"/><circle cx="198.743" cy="236.649" fill="url(#prefix__cw)" r="10.829"/><path d="M189.056 241.493a10.79 10.79 0 004.844 1.142c5.981 0 10.829-4.848 10.829-10.829a10.79 10.79 0 00-1.142-4.844 10.83 10.83 0 015.985 9.687c0 5.981-4.848 10.829-10.829 10.829a10.832 10.832 0 01-9.687-5.985z" fill="url(#prefix__cx)"/><circle cx="215.668" cy="228.77" fill="url(#prefix__cy)" r="10.829"/><path d="M205.981 233.614a10.79 10.79 0 004.844 1.142c5.98 0 10.829-4.848 10.829-10.829a10.79 10.79 0 00-1.142-4.844 10.83 10.83 0 015.985 9.687c0 5.981-4.848 10.829-10.829 10.829-4.24 0-7.909-2.437-9.687-5.985z" fill="url(#prefix__cz)"/><circle cx="233.851" cy="224.044" fill="url(#prefix__cA)" r="10.829"/><path d="M224.165 228.888a10.79 10.79 0 004.844 1.142c5.981 0 10.829-4.848 10.829-10.829a10.79 10.79 0 00-1.142-4.844 10.83 10.83 0 015.985 9.687c0 5.98-4.848 10.829-10.829 10.829-4.24 0-7.909-2.437-9.687-5.985z" fill="url(#prefix__cB)"/><circle cx="251.943" cy="224.336" fill="url(#prefix__cC)" r="10.829"/><path d="M242.256 229.18a10.79 10.79 0 004.844 1.142c5.981 0 10.829-4.848 10.829-10.829a10.79 10.79 0 00-1.142-4.844 10.83 10.83 0 015.985 9.687c0 5.98-4.848 10.829-10.829 10.829a10.832 10.832 0 01-9.687-5.985z" fill="url(#prefix__cD)"/><circle cx="271.202" cy="223.023" fill="url(#prefix__cE)" r="10.829"/><path d="M261.515 227.867a10.79 10.79 0 004.844 1.142c5.981 0 10.829-4.848 10.829-10.829a10.79 10.79 0 00-1.142-4.844 10.83 10.83 0 015.985 9.687c0 5.981-4.848 10.829-10.829 10.829a10.832 10.832 0 01-9.687-5.985z" fill="url(#prefix__cF)"/><circle cx="290.461" cy="225.941" fill="url(#prefix__cG)" r="10.829"/><path d="M280.774 230.785a10.79 10.79 0 004.844 1.142c5.981 0 10.829-4.848 10.829-10.829a10.79 10.79 0 00-1.142-4.844 10.829 10.829 0 015.985 9.687c0 5.98-4.848 10.829-10.829 10.829a10.832 10.832 0 01-9.687-5.985z" fill="url(#prefix__cH)"/><circle cx="306.218" cy="238.196" fill="url(#prefix__cI)" r="10.829"/><path d="M296.532 243.04a10.79 10.79 0 004.844 1.142c5.981 0 10.829-4.848 10.829-10.829a10.79 10.79 0 00-1.142-4.844 10.83 10.83 0 015.985 9.687c0 5.981-4.848 10.829-10.829 10.829-4.24 0-7.909-2.436-9.687-5.985z" fill="url(#prefix__cJ)"/><circle cx="291.045" cy="242.282" fill="url(#prefix__cK)" r="10.829"/><path d="M281.358 247.126a10.79 10.79 0 004.844 1.142c5.981 0 10.829-4.848 10.829-10.829a10.79 10.79 0 00-1.142-4.844 10.83 10.83 0 015.985 9.687c0 5.981-4.848 10.829-10.829 10.829a10.832 10.832 0 01-9.687-5.985z" fill="url(#prefix__cL)"/><circle cx="277.622" cy="237.613" fill="url(#prefix__cM)" r="10.829"/><path d="M267.935 242.457a10.79 10.79 0 004.844 1.142c5.981 0 10.829-4.848 10.829-10.829a10.79 10.79 0 00-1.142-4.844 10.83 10.83 0 015.985 9.687c0 5.981-4.848 10.829-10.829 10.829a10.83 10.83 0 01-9.687-5.985z" fill="url(#prefix__cN)"/><circle cx="263.615" cy="238.78" fill="url(#prefix__cO)" r="10.829"/><path d="M253.928 243.624a10.79 10.79 0 004.844 1.142c5.98 0 10.829-4.848 10.829-10.829a10.79 10.79 0 00-1.142-4.844 10.83 10.83 0 015.985 9.687c0 5.981-4.848 10.829-10.829 10.829a10.83 10.83 0 01-9.687-5.985z" fill="url(#prefix__cP)"/><circle cx="244.356" cy="238.78" fill="url(#prefix__cQ)" r="10.829"/><path d="M234.67 243.624a10.79 10.79 0 004.844 1.142c5.98 0 10.829-4.848 10.829-10.829a10.79 10.79 0 00-1.142-4.844 10.83 10.83 0 015.985 9.687c0 5.981-4.848 10.829-10.829 10.829-4.24 0-7.91-2.437-9.687-5.985z" fill="url(#prefix__cR)"/><circle cx="228.599" cy="238.78" fill="url(#prefix__cS)" r="10.829"/><path d="M218.912 243.624a10.79 10.79 0 004.844 1.142c5.981 0 10.829-4.848 10.829-10.829a10.79 10.79 0 00-1.142-4.844 10.828 10.828 0 015.985 9.687c0 5.981-4.848 10.829-10.829 10.829a10.83 10.83 0 01-9.687-5.985z" fill="url(#prefix__cT)"/><circle cx="212.842" cy="242.282" fill="url(#prefix__cU)" r="10.829"/><path d="M203.155 247.126a10.79 10.79 0 004.844 1.142c5.98 0 10.829-4.848 10.829-10.829a10.79 10.79 0 00-1.142-4.844 10.83 10.83 0 015.985 9.687c0 5.981-4.848 10.829-10.829 10.829a10.83 10.83 0 01-9.687-5.985z" fill="url(#prefix__cV)"/><circle cx="226.264" cy="255.704" fill="url(#prefix__cW)" r="10.829"/><path d="M216.578 260.549a10.79 10.79 0 004.844 1.142c5.981 0 10.829-4.848 10.829-10.829a10.79 10.79 0 00-1.142-4.844 10.827 10.827 0 015.985 9.687c0 5.98-4.848 10.829-10.829 10.829a10.83 10.83 0 01-9.687-5.985z" fill="url(#prefix__cX)"/><circle cx="243.189" cy="252.786" fill="url(#prefix__cY)" r="10.829"/><path d="M233.502 257.631a10.79 10.79 0 004.844 1.142c5.98 0 10.829-4.848 10.829-10.829a10.79 10.79 0 00-1.142-4.844 10.83 10.83 0 015.985 9.687c0 5.981-4.848 10.829-10.829 10.829a10.832 10.832 0 01-9.687-5.985z" fill="url(#prefix__cZ)"/><circle cx="256.612" cy="251.619" fill="url(#prefix__da)" r="10.829"/><path d="M246.925 256.463a10.79 10.79 0 004.844 1.142c5.981 0 10.829-4.848 10.829-10.829a10.79 10.79 0 00-1.142-4.844 10.83 10.83 0 015.985 9.687c0 5.981-4.848 10.829-10.829 10.829a10.828 10.828 0 01-9.687-5.985z" fill="url(#prefix__db)"/><circle cx="276.455" cy="254.537" fill="url(#prefix__dc)" r="10.829"/><path d="M266.768 259.381a10.79 10.79 0 004.844 1.142c5.981 0 10.829-4.848 10.829-10.829a10.79 10.79 0 00-1.142-4.844 10.83 10.83 0 015.985 9.687c0 5.98-4.848 10.829-10.829 10.829-4.24 0-7.909-2.436-9.687-5.985z" fill="url(#prefix__dd)"/><circle cx="299.799" cy="255.704" fill="url(#prefix__de)" r="10.829"/><path d="M290.112 260.549a10.79 10.79 0 004.844 1.142c5.981 0 10.829-4.848 10.829-10.829a10.79 10.79 0 00-1.142-4.844 10.829 10.829 0 015.985 9.687c0 5.98-4.848 10.829-10.829 10.829a10.832 10.832 0 01-9.687-5.985z" fill="url(#prefix__df)"/><circle cx="286.376" cy="261.541" fill="url(#prefix__dg)" r="10.829"/><path d="M276.689 266.385a10.79 10.79 0 004.844 1.142c5.981 0 10.829-4.848 10.829-10.829a10.79 10.79 0 00-1.142-4.844 10.828 10.828 0 015.985 9.687c0 5.981-4.848 10.829-10.829 10.829a10.832 10.832 0 01-9.687-5.985z" fill="url(#prefix__dh)"/><g><circle cx="202.337" cy="252.203" fill="url(#prefix__di)" r="10.829"/><path d="M192.65 257.047a10.79 10.79 0 004.844 1.142c5.98 0 10.829-4.848 10.829-10.829a10.79 10.79 0 00-1.142-4.844 10.83 10.83 0 015.985 9.687c0 5.981-4.848 10.829-10.829 10.829-4.24 0-7.909-2.437-9.687-5.985z" fill="url(#prefix__dj)"/></g><g><circle cx="214.009" cy="263.291" fill="url(#prefix__dk)" r="10.829"/><path d="M204.322 268.135a10.79 10.79 0 004.844 1.142c5.98 0 10.829-4.848 10.829-10.829a10.79 10.79 0 00-1.142-4.844 10.83 10.83 0 015.985 9.687c0 5.981-4.848 10.829-10.829 10.829a10.828 10.828 0 01-9.687-5.985z" fill="url(#prefix__dl)"/></g><g><circle cx="236.769" cy="268.544" fill="url(#prefix__dm)" r="10.829"/><path d="M227.083 273.388a10.79 10.79 0 004.844 1.142c5.981 0 10.829-4.848 10.829-10.829a10.79 10.79 0 00-1.142-4.844 10.828 10.828 0 015.985 9.687c0 5.981-4.848 10.829-10.829 10.829-4.24 0-7.909-2.437-9.687-5.985z" fill="url(#prefix__dn)"/></g><g><circle cx="253.694" cy="266.209" fill="url(#prefix__do)" r="10.829"/><path d="M244.007 271.053a10.79 10.79 0 004.844 1.142c5.98 0 10.829-4.848 10.829-10.829a10.79 10.79 0 00-1.142-4.844 10.83 10.83 0 015.985 9.687c0 5.98-4.848 10.829-10.829 10.829a10.828 10.828 0 01-9.687-5.985z" fill="url(#prefix__dp)"/></g><g><circle cx="270.035" cy="266.209" fill="url(#prefix__dq)" r="10.829"/><path d="M260.348 271.053a10.79 10.79 0 004.844 1.142c5.981 0 10.829-4.848 10.829-10.829a10.79 10.79 0 00-1.142-4.844 10.83 10.83 0 015.985 9.687c0 5.98-4.848 10.829-10.829 10.829a10.828 10.828 0 01-9.687-5.985z" fill="url(#prefix__dr)"/></g><g><circle cx="226.264" cy="273.796" fill="url(#prefix__ds)" r="10.829"/><path d="M216.578 278.64a10.79 10.79 0 004.844 1.142c5.981 0 10.829-4.848 10.829-10.829a10.79 10.79 0 00-1.142-4.844 10.828 10.828 0 015.985 9.687c0 5.981-4.848 10.829-10.829 10.829-4.24 0-7.909-2.436-9.687-5.985z" fill="url(#prefix__dt)"/></g><g><circle cx="244.356" cy="282.55" fill="url(#prefix__du)" r="10.829"/><path d="M234.67 287.394a10.79 10.79 0 004.844 1.142c5.98 0 10.829-4.848 10.829-10.829a10.79 10.79 0 00-1.142-4.844 10.83 10.83 0 015.985 9.687c0 5.981-4.848 10.829-10.829 10.829-4.24 0-7.91-2.436-9.687-5.985z" fill="url(#prefix__dv)"/></g><g><circle cx="263.178" cy="281.675" fill="url(#prefix__dw)" r="10.829"/><path d="M253.491 286.519a10.79 10.79 0 004.844 1.142c5.98 0 10.829-4.848 10.829-10.829a10.79 10.79 0 00-1.142-4.844 10.83 10.83 0 015.985 9.687c0 5.981-4.848 10.829-10.829 10.829-4.24 0-7.909-2.437-9.687-5.985z" fill="url(#prefix__dx)"/></g><g><circle cx="283.02" cy="278.611" fill="url(#prefix__dy)" r="10.829"/><path d="M273.333 283.455a10.79 10.79 0 004.844 1.142c5.98 0 10.829-4.848 10.829-10.829a10.79 10.79 0 00-1.142-4.844 10.83 10.83 0 015.985 9.687c0 5.981-4.848 10.829-10.829 10.829a10.828 10.828 0 01-9.687-5.985z" fill="url(#prefix__dz)"/></g><g><circle cx="298.632" cy="272.629" fill="url(#prefix__dA)" r="10.829"/><path d="M288.945 277.473a10.79 10.79 0 004.844 1.142c5.981 0 10.829-4.848 10.829-10.829a10.79 10.79 0 00-1.142-4.844 10.83 10.83 0 015.985 9.687c0 5.981-4.848 10.829-10.829 10.829-4.24 0-7.909-2.436-9.687-5.985z" fill="url(#prefix__dB)"/></g><g><circle cx="314.243" cy="261.832" fill="url(#prefix__dC)" r="10.829"/><path d="M304.556 266.676a10.79 10.79 0 004.844 1.142c5.98 0 10.829-4.848 10.829-10.829a10.79 10.79 0 00-1.142-4.844 10.83 10.83 0 015.985 9.687c0 5.981-4.848 10.829-10.829 10.829a10.828 10.828 0 01-9.687-5.985z" fill="url(#prefix__dD)"/></g><g><circle cx="198.835" cy="269.711" fill="url(#prefix__dE)" r="10.829"/><path d="M189.148 274.555a10.79 10.79 0 004.844 1.142c5.981 0 10.829-4.848 10.829-10.829a10.79 10.79 0 00-1.142-4.844 10.83 10.83 0 015.985 9.687c0 5.981-4.848 10.829-10.829 10.829a10.828 10.828 0 01-9.687-5.985z" fill="url(#prefix__dF)"/></g><g><circle cx="210.507" cy="282.55" fill="url(#prefix__dG)" r="10.829"/><path d="M200.82 287.394a10.79 10.79 0 004.844 1.142c5.981 0 10.829-4.848 10.829-10.829a10.79 10.79 0 00-1.142-4.844 10.83 10.83 0 015.985 9.687c0 5.981-4.848 10.829-10.829 10.829a10.828 10.828 0 01-9.687-5.985z" fill="url(#prefix__dH)"/></g><g><circle cx="228.015" cy="288.386" fill="url(#prefix__dI)" r="10.829"/><path d="M218.329 293.23a10.79 10.79 0 004.844 1.142c5.981 0 10.829-4.848 10.829-10.829a10.79 10.79 0 00-1.142-4.844 10.828 10.828 0 015.985 9.687c0 5.981-4.848 10.829-10.829 10.829-4.24 0-7.91-2.436-9.687-5.985z" fill="url(#prefix__dJ)"/></g><g><circle cx="249.025" cy="293.639" fill="url(#prefix__dK)" r="10.829"/><path d="M239.338 298.483a10.79 10.79 0 004.844 1.142c5.981 0 10.829-4.848 10.829-10.829a10.79 10.79 0 00-1.142-4.844 10.828 10.828 0 015.985 9.687c0 5.981-4.848 10.829-10.829 10.829a10.83 10.83 0 01-9.687-5.985z" fill="url(#prefix__dL)"/></g><g><circle cx="270.473" cy="293.931" fill="url(#prefix__dM)" r="10.829"/><path d="M260.786 298.775a10.79 10.79 0 004.844 1.142c5.981 0 10.829-4.848 10.829-10.829a10.79 10.79 0 00-1.142-4.844 10.83 10.83 0 015.985 9.687c0 5.98-4.848 10.829-10.829 10.829a10.83 10.83 0 01-9.687-5.985z" fill="url(#prefix__dN)"/></g><g><circle cx="290.315" cy="289.408" fill="url(#prefix__dO)" r="10.829"/><path d="M280.628 294.252a10.79 10.79 0 004.844 1.142c5.981 0 10.829-4.848 10.829-10.829a10.79 10.79 0 00-1.142-4.844 10.83 10.83 0 015.985 9.687c0 5.981-4.848 10.829-10.829 10.829a10.83 10.83 0 01-9.687-5.985z" fill="url(#prefix__dP)"/></g><g><circle cx="309.574" cy="280.508" fill="url(#prefix__dQ)" r="10.829"/><path d="M299.887 285.352a10.79 10.79 0 004.844 1.142c5.981 0 10.829-4.848 10.829-10.829a10.79 10.79 0 00-1.142-4.844 10.83 10.83 0 015.985 9.687c0 5.981-4.848 10.829-10.829 10.829a10.83 10.83 0 01-9.687-5.985z" fill="url(#prefix__dR)"/></g></g></svg>
