<svg xmlns="http://www.w3.org/2000/svg" id="svg-icon" viewBox="0 0 512 512"><path d="M332.606 475.785H102.951l-2.704 2.644-.004.006-.31.383v18.433c0 8.144 6.602 14.749 14.748 14.749h206.194c8.146 0 14.748-6.604 14.748-14.749v-18.433c-.52-.645-2.412-2.442-3.017-3.033z" fill="#ffc33e"/><path d="M206.114 497.251v-18.433c.521-.644 2.413-2.441 3.018-3.033H102.951l-2.704 2.644-.004.006-.31.383v18.433c0 8.144 6.602 14.749 14.748 14.749h106.18c-8.145 0-14.747-6.604-14.747-14.749z" fill="#f9a832"/><path d="M306.228.816a1.03 1.03 0 00-.735-.408A112.385 112.385 0 00295.939 0c-53.18 0-98.942 37.283-109.838 89.014-.108.514.129.795.453 1.105 22.925 22.925 30.425 57.402 19.107 87.834-.121.326-.069.692.138.972.319.442.505.804 1.055.851 5.268.452 9.558.409 9.558.409 92.205.001 145.135-105.46 89.816-179.369z" fill="#88bc24"/><path d="M306.228.816c-.417-.555-.999-.418-2.632-.529-79.693 17.284-108.525 116.375-50.858 173.855C325.225 149.358 351.521 61.33 306.228.816z" fill="#9dce32"/><path d="M205.66 181.109a7.71 7.71 0 01-4.869-9.757c22.101-66.149 61.082-124.693 82.352-153.703a7.71 7.71 0 1112.436 9.118c-20.736 28.283-58.725 85.312-80.162 149.472a7.712 7.712 0 01-9.757 4.87z" fill="#428715"/><path d="M97.185 68.833a1.544 1.544 0 00-.892.892c-26.197 68.751 41.22 137.117 110.656 110.654.411-.157.735-.481.892-.891 26.148-68.636-41.112-137.159-110.656-110.655z" fill="#93ce36"/><path d="M141.658 64.342c-28.905 50.005 4.899 113.295 62.62 116.985 2.223-.765 3.196-.879 3.563-1.84 19.375-50.858-13.032-106.544-66.183-115.145z" fill="#a9db49"/><path d="M401.348 273.252a230.388 230.388 0 01-4.994 30.371c28.933 2.521 52.737 26.863 52.737 56.439 0 51.453-64.294 77.653-100.439 36.117a195.478 195.478 0 01-22.066 21.416c16.004 17.694 40.156 29.859 65.837 29.859 48.188 0 87.393-39.204 87.393-87.392 0-44.823-34.951-81.852-78.468-86.81z" fill="#fc9835"/><path d="M394.267 241.265H41.403a9.217 9.217 0 00-9.218 9.217c0 84.008 44.399 156.569 108.201 189.623h154.895c63.804-33.054 108.203-105.615 108.203-189.623 0-5.091-4.129-9.217-9.217-9.217z" fill="#f9a832"/><path d="M394.267 241.265H93.549c-1.45 95.911 64.217 177.047 153.541 198.84h48.191c63.804-33.054 108.203-105.615 108.203-189.623 0-5.091-4.129-9.217-9.217-9.217z" fill="#ffc33e"/><path d="M359.05 327.956a1.54 1.54 0 00-1.287-.693H77.905a1.545 1.545 0 00-1.418 2.15c16.424 38.339 42.468 67.598 75.316 84.616.219.113.462.173.709.173h130.642c.247 0 .49-.059.709-.173 32.848-17.017 58.891-46.276 75.316-84.616a1.54 1.54 0 00-.129-1.457z" fill="#f47a27"/><path d="M359.181 329.413a1.542 1.542 0 00-1.418-2.15H111.308c16.172 35.769 42.488 65.966 75.277 86.938h96.57c.247 0 .49-.059.709-.173 32.848-17.017 58.892-46.276 75.317-84.615z" fill="#fc9835"/><path d="M226.878 226.176a7.714 7.714 0 01-7.214-4.985c-26.841-70.969-86.729-117.98-111.231-134.898a7.711 7.711 0 018.762-12.691c31.914 22.035 89.537 69.802 116.893 142.133a7.708 7.708 0 01-4.484 9.939 7.665 7.665 0 01-2.726.502z" fill="#4e991d"/><path d="M335.623 478.818c-.519-.644-38.921-38.135-39.512-38.713H139.446l-39.199 38.324-.004.006-.31.383h235.69z" fill="#f9a83d"/><path d="M245.627 440.105H139.446l-39.199 38.324-.004.006-.31.383h106.18c.521-.643 38.923-38.135 39.514-38.713z" fill="#fc9835"/></svg>
