<svg xmlns="http://www.w3.org/2000/svg" id="svg-icon" viewBox="0 0 448.003 448.003"><path d="M427.658 219.87c-11.016-24.117-39.484-34.718-63.61-23.703-39.266 17.953-89 27.836-140.047 27.836-.09 0-.176-.008-.266-.008v96c.09 0 .176.008.266.008 65.453 0 127.687-12.633 179.953-36.523 24.11-11.024 34.72-39.501 23.704-63.61z" fill="#9b6534"/><path d="M20.346 219.87c11.016-24.117 39.484-34.718 63.61-23.703 39.266 17.953 89 27.836 140.047 27.836.09 0 .176-.008.266-.008v96c-.09 0-.176.008-.266.008-65.453 0-127.687-12.633-179.953-36.523-24.111-11.024-34.72-39.501-23.704-63.61z" fill="#aa7135"/><circle cx="384.036" cy="240" r="32" fill="#b9a086"/><circle cx="224.036" cy="304" r="112" fill="#aa7135"/><ellipse cx="224.036" cy="304" rx="62.512" ry="80" fill="#d5b99b"/><path d="M224.002 192.002c-31.363 0-59.676 12.926-80.008 33.698l158.309 158.31c20.774-20.332 33.699-48.645 33.699-80.008 0-61.855-50.145-112-112-112z" fill="#a26b34"/><path d="M224.004 224.002c-20.383 0-38.309 12.672-49.718 31.988l98.098 98.098c8.699-13.744 14.129-31.019 14.129-50.086-.001-44.183-27.986-80-62.509-80z" fill="#b9a086"/><g fill="#aa7135"><circle cx="320.036" cy="64" r="64"/><circle cx="128.004" cy="64" r="64"/></g><g fill="#d5b99b"><circle cx="128.004" cy="64" r="32"/><circle cx="320.036" cy="64" r="32"/></g><circle cx="224.036" cy="136" r="120" fill="#aa7135"/><g fill="#231f20"><circle cx="176.004" cy="112" r="16"/><circle cx="272.036" cy="112" r="16"/></g><circle cx="224.036" cy="176" r="64" fill="#d5b99b"/><circle cx="224.036" cy="160" r="16" fill="#231f20"/><circle cx="64.004" cy="240" r="32" fill="#d5b99b"/><path d="M272.408 241.089c7.085-3.443 15.329 1.717 15.329 9.594v37.434c0 7.877-8.245 13.037-15.329 9.594l-48.671-17.442v-21.542l48.671-17.638z" fill="#d64231"/><path d="M282.195 297.333l-43.886-43.886-14.573 5.28v21.542l48.672 17.442c3.35 1.627 6.912 1.219 9.787-.378z" fill="#b22f28"/><path d="M224.087 248.067c-5.5 0-10.406 2.225-14.187 5.646l-34.836-12.625c-7.082-3.443-15.328 1.717-15.328 9.594v37.434c0 7.879 8.246 13.039 15.328 9.594l34.969-12.531c3.77 3.358 8.614 5.554 14.054 5.554 11.785 0 21.336-9.55 21.336-21.332 0-11.783-9.55-21.334-21.336-21.334z" fill="#d64231"/><path d="M117.781 321.549l-21.154 13.563c-24.078-21.383-55.953-26.518-76.817-10.297-24.418 18.984-24.426 59.82-.019 91.215 14.566 18.74 36.543 31.973 60.211 31.973 8.211 0 17.279-2.651 23.898-6.603l67.15-40.298c29.299-17.339-21.207-99.008-53.269-79.553z" fill="#aa7135"/><path d="M90.724 363.194c-22.086-28.406-56.481-39.106-80.938-26.867C-3.655 357.499-.495 389.938 19.79 416.03c22.086 28.406 56.484 39.103 80.938 26.863 13.438-21.17 10.278-53.609-10.004-79.699z" fill="#d5b99b"/><path d="M330.222 321.549l21.154 13.563c24.078-21.383 55.953-26.518 76.817-10.297 24.418 18.984 24.426 59.82.019 91.215-14.566 18.74-36.543 31.973-60.211 31.973-8.211 0-17.279-2.651-23.898-6.603l-67.15-40.298c-29.299-17.339 21.207-99.008 53.269-79.553z" fill="#9b6534"/><path d="M357.279 363.194c22.086-28.406 56.481-39.106 80.938-26.867 13.442 21.172 10.282 53.611-10.004 79.703-22.086 28.406-56.484 39.103-80.938 26.863-13.437-21.17-10.277-53.609 10.004-79.699z" fill="#b9a086"/></svg>
