<svg xmlns="http://www.w3.org/2000/svg" id="svg-icon" viewBox="0 0 512 512">
  <path
    d="M469.762 69.653c-20.188-34.32-40.054-62.201-40.89-63.372a14.997 14.997 0 00-24.411 0c-.836 1.17-20.702 29.052-40.89 63.372a741.01 741.01 0 00-8.217 14.323 1697.286 1697.286 0 0119.766 32.725c34.754 59.082 58.843 108.484 72.624 149.093C485.098 252.877 512 217.356 512 175.667c0-23.02-13.816-57.698-42.238-106.014zM268.206 6.281a15 15 0 00-24.412 0c-.405.568-41.016 57.562-81.056 125.63-54.68 92.955-82.404 161.733-82.404 204.422C80.333 433.196 159.137 512 256 512s175.667-78.804 175.667-175.667c0-42.689-27.725-111.467-82.404-204.422-40.041-68.068-80.652-125.062-81.057-125.63zM132.57 124.083c-13.639-21.479-24.42-36.613-25.031-37.468a15 15 0 00-24.412 0c-.836 1.17-20.702 29.052-40.89 63.372C13.816 198.303 0 232.98 0 256c0 36.321 20.42 67.96 50.381 84.049-.433-24.311 2.637-79.06 82.189-215.966z" />
  </svg>
