<svg viewBox="0 -11 512 512" xmlns="http://www.w3.org/2000/svg"><path d="m245.003906 0c-18.273437 0-36.070312 2.015625-53.199218 5.808594v478.386718c17.128906 3.792969 34.925781 5.808594 53.199218 5.808594 135.308594 0 245-109.691406 245-245.003906 0-135.308594-109.691406-245-245-245zm0 0" fill="#7fbc0a"/><path d="m209.171875 5.066406c-5.15625 0-10.277344.105469-15.367187.308594-67.214844 14.289062-124.230469 56.140625-158.667969 113.160156l-34.9375 135.972656-.007813-.011718c4.328125 113.511718 85.871094 207.226562 193.613282 230.132812 5.089843.203125 10.214843.308594 15.367187.308594 167.246094 0 302.828125-107.421875 302.828125-239.933594 0-132.515625-135.582031-239.9375-302.828125-239.9375zm0 0" fill="#deeefa"/><path d="m244.621094 437.066406c1.839844-8.40625-2.351563-16.925781-10.066406-20.730468-163.210938-80.441407-116.144532-281.019532-101.054688-332.066407 1.972656-6.667969-.109375-13.792969-5.148438-18.585937-16.445312-15.628906-5.472656-32.84375-5.21875-33.238282-36.140624 20.761719-66.480468 50.476563-88.003906 86.113282l-34.929687 135.949218-.007813-.011718c4.328125 113.511718 85.871094 207.226562 193.613282 230.132812 5.089843.203125 10.214843.308594 15.367187.308594 21.097656 0 41.691406-1.714844 61.574219-4.96875-27.382813-11.039062-28.960938-29.976562-26.125-42.902344zm0 0" fill="#b8dcf2"/><path d="m386.574219 121.703125c-95.628907-75.761719-254.296875-76.835937-351.625-2.445313l-34.75 135.25s-.011719-.015624-.011719-.015624c1.613281 42.261718 13.933594 81.777343 34.320312 115.921874 96.945313 74.460938 255.949219 74.035157 352.066407-2.113281 88.300781-69.960937 88.445312-176.519531 0-246.597656zm0 0" fill="#b8dcf2"/><path d="m234.554688 416.335938c-144.9375-91.9375-116.144532-281.019532-101.054688-332.066407 1.089844-3.683593.9375-7.503906-.265625-10.996093-35.945313 8.855468-69.75 24.175781-98.285156 45.988281l-34.75 135.246093s-.011719-.015624-.011719-.015624c1.613281 42.261718 13.933594 81.777343 34.320312 115.921874 56.550782 43.433594 134.210938 61.375 208.191407 53.683594-1.8125-3.269531-4.808594-5.644531-8.144531-7.761718zm0 0" fill="#89c2e5"/><path d="m41.761719 268.433594c-27.777344 23.957031-35.546875 64.992187-16.53125 97.929687s58.4375 46.726563 93.074219 34.648438c4.269531-1.488281 6.132812-6.492188 3.871093-10.40625l-69.464843-120.320313c-2.261719-3.914062-7.527344-4.804687-10.949219-1.851562zm0 0" fill="#fc7e9c"/><path d="m122.175781 390.605469-41.476562-71.84375h-39.667969c-1.410156 6.171875-6.921875 10.777343-13.519531 10.777343-5.511719 0-10.253907-3.214843-12.5-7.863281-1.125 15.0625 2.09375 30.613281 10.21875 44.6875 19.019531 32.9375 58.4375 46.726563 93.078125 34.648438 4.265625-1.488281 6.128906-6.496094 3.867187-10.40625zm0 0" fill="#f94862"/><path d="m86.921875 329.539062-26.308594-45.5625c-1.21875-.035156-2.460937.359376-3.476562 1.234376-11.871094 10.238281-18.585938 24.875-19.105469 40.003906zm0 0" fill="#f94862"/><path d="m67.265625 375.851562c13.363281 7.113282 29.394531 8.617188 44.199219 3.457032 1.265625-.441406 2.226562-1.320313 2.808594-2.394532l-26.308594-45.566406zm0 0" fill="#db2640"/><path d="m86.425781 328.679688-48.367187-4.28125c-.503906 10.253906 1.832031 20.761718 7.347656 30.316406 5.515625 9.550781 13.449219 16.832031 22.578125 21.519531l20.480469-44.023437zm0 0" fill="#ed3346"/><path d="m60.195312 318.761719c-4.832031 0-8.519531-3.96875-8.519531-8.53125 0-10.976563 17.035157-11.566407 17.035157 0 .003906 4.707031-3.84375 8.53125-8.515626 8.53125zm0 0" fill="#fc7e9c"/><path d="m90.769531 373.84375c-4.828125 0-8.519531-3.964844-8.519531-8.53125 0-10.976562 17.035156-11.566406 17.035156 0 .003906 4.710938-3.839844 8.53125-8.515625 8.53125zm0 0" fill="#ed3346"/><path d="m65.011719 352.992188c-4.832031 0-8.519531-3.96875-8.519531-8.53125 0-10.976563 17.035156-11.566407 17.035156 0 0 4.710937-3.839844 8.53125-8.515625 8.53125zm0 0" fill="#f94862"/><path d="m206.53125 227.027344c10.972656-61.574219 65.480469-108.078125 130.554688-106.546875 68.667968 1.621093 124.667968 57.621093 126.28125 126.289062 1.714843 72.914063-56.878907 132.5625-129.40625 132.5625h-108.675782c-40.113281 0-72.628906-32.515625-72.628906-72.628906 0-18.800781 10.585938-36 27.375-44.464844 13.828125-6.976562 23.78125-19.960937 26.5-35.210937zm0 0" fill="#fcebbb"/><path d="m411.160156 353.789062c-45.574218-12.605468-29.355468-58.34375-29.355468-58.34375l-43.457032-113.554687c-48.695312-19.617187-23.828125-59.988281-23.828125-59.988281-54.777343 8.253906-98.3125 50.824218-107.988281 105.121094-2.71875 15.25-12.671875 28.238281-26.5 35.214843-16.789062 8.464844-27.375 25.664063-27.375 44.464844 0 40.109375 32.515625 72.628906 72.628906 72.628906h108.675782c28.933593 0 55.644531-9.503906 77.199218-25.542969zm0 0" fill="#ffdd71"/><path d="m400.765625 223.117188c-12.675781-33.125-49.800781-49.699219-82.925781-37.027344-33.121094 12.675781-49.699219 49.800781-37.023438 82.925781 12.675782 33.121094 49.800782 49.699219 82.925782 37.023437 33.121093-12.675781 49.699218-49.800781 37.023437-82.921874zm0 0" fill="#fabd2b"/><path d="m319.40625 254.230469c-10.089844-26.363281-1.628906-55.253907 18.941406-72.339844-6.847656.257813-13.769531 1.609375-20.523437 4.195313-33.121094 12.671874-49.695313 49.796874-37.019531 82.917968 12.671874 33.121094 49.796874 49.695313 82.917968 37.023438 6.757813-2.585938 12.808594-6.203125 18.082032-10.582032-26.726563 1.015626-52.308594-14.847656-62.398438-41.214843zm0 0" fill="#f6ac2b"/><path d="m137.269531 105.738281c-6.746093-17.4375-26.347656-26.097656-43.78125-19.351562-17.433593 6.746093-26.097656 26.347656-19.351562 43.78125 6.746093 17.433593 26.347656 26.097656 43.78125 19.351562 17.4375-6.746093 26.097656-26.347656 19.351562-43.78125zm0 0" fill="#fabd2b"/><path d="m100.589844 123.171875c-5.464844-14.121094-.820313-29.660156 10.40625-38.644531-5.710938-.910156-11.726563-.375-17.507813 1.863281-17.433593 6.746094-26.097656 26.347656-19.351562 43.78125 6.746093 17.433594 26.347656 26.097656 43.78125 19.351563 3.3125-1.28125 6.308593-3.03125 8.941406-5.140626-11.507813-1.832031-21.761719-9.558593-26.269531-21.210937zm0 0" fill="#f6ac2b"/><path d="m40.707031 115.882812c-1.945312.753907-3.800781 1.640626-5.566406 2.636719-8.347656 13.820313-15.359375 28.53125-20.875 43.957031.46875 2.726563 1.210937 5.453126 2.25 8.136719 8.433594 21.792969 32.933594 32.625 54.726563 24.191407 21.792968-8.433594 32.625-32.9375 24.191406-54.730469-8.429688-21.792969-32.933594-32.625-54.726563-24.191407zm0 0" fill="#fecf2b"/><path d="m47.953125 162.648438c-6.90625-17.851563-1.542969-37.425782 11.972656-49.429688-6.328125-.597656-12.886719.214844-19.222656 2.664062-1.945313.753907-3.800781 1.640626-5.566406 2.636719-8.34375 13.820313-15.355469 28.53125-20.875 43.957031.46875 2.726563 1.214843 5.453126 2.253906 8.136719 8.429687 21.792969 32.933594 32.625 54.726563 24.191407 3.1875-1.234376 6.132812-2.820313 8.828124-4.683594-14.136718-3.082032-26.503906-12.96875-32.117187-27.472656zm0 0" fill="#fabd2b"/><path d="m.199219 254.507812c9.792969 3.148438 20.6875 3.097657 31.027343-.902343 23.972657-9.277344 35.886719-36.230469 26.609376-60.203125-7.210938-18.640625-25.109376-29.984375-43.984376-29.753906-8.960937 25.457031-13.851562 52.832031-13.851562 81.355468 0 3.183594.078125 6.347656.199219 9.503906zm0 0" fill="#ffdd71"/><path d="m4.945312 207.1875c-.523437-1.371094-.972656-2.753906-1.355468-4.140625-2.359375 13.632813-3.589844 27.648437-3.589844 41.957031 0 3.183594.078125 6.347656.199219 9.503906 9.792969 3.148438 20.6875 3.097657 31.027343-.902343 9.382813-3.632813 16.90625-9.976563 22.046876-17.785157-20.34375 2.792969-40.671876-8.625-48.328126-28.632812zm0 0" fill="#fecf2b"/><path d="m116.597656 268.433594c-27.777344 23.957031-35.546875 64.992187-16.53125 97.929687 19.019532 32.9375 58.4375 46.726563 93.074219 34.648438 4.269531-1.488281 6.132813-6.492188 3.871094-10.40625l-69.464844-120.320313c-2.261719-3.914062-7.527344-4.804687-10.949219-1.851562zm0 0" fill="#fc7e9c"/><path d="m197.011719 390.605469-41.480469-71.84375h-39.664062c-1.410157 6.171875-6.921876 10.777343-13.523438 10.777343-5.507812 0-10.253906-3.214843-12.496094-7.863281-1.125 15.0625 2.09375 30.613281 10.21875 44.6875 19.019532 32.9375 58.4375 46.726563 93.074219 34.648438 4.269531-1.488281 6.132813-6.496094 3.871094-10.40625zm0 0" fill="#f94862"/><path d="m161.757812 329.539062-26.308593-45.5625c-1.21875-.035156-2.460938.359376-3.476563 1.234376-11.871094 10.238281-18.585937 24.875-19.105468 40.003906zm0 0" fill="#f94862"/><path d="m142.101562 375.851562c13.363282 7.113282 29.394532 8.617188 44.199219 3.457032 1.265625-.441406 2.226563-1.320313 2.808594-2.394532l-26.308594-45.566406zm0 0" fill="#db2640"/><path d="m161.261719 328.679688-48.367188-4.28125c-.507812 10.253906 1.832031 20.761718 7.34375 30.316406 5.515625 9.550781 13.449219 16.832031 22.582031 21.519531l20.476563-44.023437zm0 0" fill="#ed3346"/><g fill="#7fbc0a"><path d="m48.320312 242.140625c-6.667968 0-12.167968-5.425781-12.167968-12.167969 0-7.765625 7.125-13.433594 14.539062-11.9375 5.945313 1.203125 9.796875 6.367188 9.796875 11.9375 0 6.722656-5.523437 12.167969-12.167969 12.167969zm0 0"/><path d="m82.285156 248.421875c-6.539062 0-12.171875-5.277344-12.171875-12.167969 0-7.816406 7.203125-13.398437 14.542969-11.929687 5.976562 1.214843 9.796875 6.402343 9.796875 11.929687 0 6.585938-5.339844 12.167969-12.167969 12.167969zm0 0"/><path d="m82.285156 275.207031c-4.828125 0-8.519531-3.96875-8.519531-8.53125 0-10.976562 17.035156-11.566406 17.035156 0 .003907 4.707031-3.839843 8.53125-8.515625 8.53125zm0 0"/></g><path d="m135.03125 318.761719c-4.832031 0-8.519531-3.96875-8.519531-8.53125 0-10.976563 17.035156-11.566407 17.035156 0 .003906 4.707031-3.84375 8.53125-8.515625 8.53125zm0 0" fill="#fc7e9c"/><path d="m165.605469 373.84375c-4.828125 0-8.519531-3.964844-8.519531-8.53125 0-10.976562 17.035156-11.566406 17.035156 0 0 4.710938-3.839844 8.53125-8.515625 8.53125zm0 0" fill="#ed3346"/><path d="m139.847656 352.992188c-4.832031 0-8.519531-3.96875-8.519531-8.53125 0-10.976563 17.035156-11.566407 17.035156 0 0 4.710937-3.84375 8.53125-8.515625 8.53125zm0 0" fill="#f94862"/><path d="m81.019531 178.605469c-6.683593 0-12.160156-5.421875-12.160156-12.167969 0-7.792969 7.167969-13.414062 14.542969-11.925781 5.914062 1.199219 9.796875 6.34375 9.796875 11.925781 0 6.601562-5.363281 12.167969-12.179688 12.167969zm0 0" fill="#7fbc0a"/><path d="m371.933594 224.894531c-6.316406 0-11.488282-5.125-11.488282-11.503906 0-7.363281 6.773438-12.675781 13.742188-11.273437 5.589844 1.136718 9.261719 6 9.261719 11.273437 0 6.242187-5.070313 11.503906-11.515625 11.503906zm0 0" fill="#fecf2b"/><path d="m356.875 235.1875c-2.828125 0-5.144531-2.292969-5.144531-5.148438 0-3.296874 3.03125-5.671874 6.152343-5.046874 2.503907.511718 4.144532 2.6875 4.144532 5.046874 0 2.792969-2.269532 5.148438-5.152344 5.148438zm0 0" fill="#fecf2b"/><path d="m63.238281 211.75c-2.9375-4.09375-2-9.796875 2.09375-12.734375l12.75-9.148437c4.09375-2.9375 9.796875-2 12.734375 2.09375 2.941406 4.09375 2.003906 9.796874-2.089844 12.734374l-12.75 9.148438c-4.105468 2.945312-9.800781 1.996094-12.738281-2.09375zm0 0" fill="#7fbc0a"/><path d="m139.023438 238.058594c-19.933594-30.320313-21.1875-68.734375-3.265626-100.242188 17.921876-31.511718 51.632813-50.097656 87.828126-48.433594 12.996093.585938 23.054687 11.59375 22.46875 24.589844-.578126 12.886719-11.40625 22.882813-24.257813 22.484375-.109375-.003906-.222656-.007812-.332031-.011719-18.460938-.878906-35.628906 8.617188-44.753906 24.660157-9.125 16.046875-8.484376 35.617187 1.675781 51.070312 7.148437 10.871094 4.128906 25.476563-6.742188 32.625-10.867187 7.144531-25.472656 4.128907-32.621093-6.742187zm0 0" fill="#ff6683"/><path d="m171.648438 244.800781c10.871093-7.148437 13.886718-21.753906 6.742187-32.625-10.164063-15.453125-10.804687-35.023437-1.679687-51.070312.46875-.824219.964843-1.628907 1.476562-2.417969l-17.445312-9.925781c-15.785157-5.472657-17.460938-16.308594-16.722657-23.175781-3.023437 3.820312-5.796875 7.898437-8.257812 12.230468-17.921875 31.511719-16.671875 69.921875 3.261719 100.242188 7.152343 10.871094 21.753906 13.886718 32.625 6.742187zm0 0" fill="#f94862"/><path d="m193.144531 143.074219-4.527343-11.113281c-1.898438-4.671876.34375-9.996094 5.011718-11.898438 4.671875-1.898438 9.996094.34375 11.894532 5.011719l4.527343 11.117187c1.898438 4.667969-.34375 9.992188-5.011719 11.894532-4.671874 1.898437-9.992187-.34375-11.894531-5.011719zm0 0" fill="#f94862"/><path d="m172.714844 169.3125-11.488282-5.597656c-4.53125-2.207032-6.417968-7.671875-4.207031-12.203125 2.207031-4.53125 7.671875-6.414063 12.199219-4.207031l11.488281 5.597656c4.53125 2.207031 6.414063 7.667968 4.207031 12.203125-2.210937 4.539062-7.675781 6.410156-12.199218 4.207031zm0 0" fill="#db2640"/><path d="m150.199219 202.703125c-1.664063-4.757813.847656-9.960937 5.605469-11.625l12.53125-4.378906c4.757812-1.664063 9.960937.847656 11.625 5.609375 1.664062 4.757812-.847657 9.960937-5.605469 11.625l-12.53125 4.378906c-4.777344 1.667969-9.96875-.871094-11.625-5.609375zm0 0" fill="#db2640"/></svg>