<svg xmlns="http://www.w3.org/2000/svg" viewBox="0 0 482.07 511.77"><path d="M29.1,0c.76,2.27-1.29,1.65-2.19,2C9.67,8.54.1,22.15.06,40.63q-.1,40.47,0,81C.13,143.77,15.35,159.71,37.42,162c25.56,2.71,51.14,4,76.8,2.78,35.33-1.73,69.73-7.7,101.6-24.12a134.84,134.84,0,0,0,23.37-15.22c2.07-1.68,4.2-3.51,7.14-1.65,3.12,2,2.41,4.77,1.59,7.55-6.34,21.55-9.65,43.52-8.93,66,1.36,42.23,16.57,78.45,47.83,107.23,7.74,7.12,9.91,14.68,8.69,24.86-4.07,34-7.77,68.14-10.59,102.32-1.37,16.59-2.54,33.2-3.8,49.8-1,13.15,3.59,23.11,16.22,28.51.56.25,1.77.61.63,1.66H435.9c2.64-1.89,5.93-2.79,7.62-6.08,4.08-8,.25-17.21-9.56-20.63-11.91-4.15-24.1-7.51-36.14-11.3-9.45-3-19.79-4.33-26.73-12.42-9-10.5-19.23-19.79-28.85-29.69a14.37,14.37,0,0,1-4.24-9.84c-.27-8.62-.4-17.24-.88-25.88-1-17.58.23-35.21-1-52.84-1.23-18.06.2-36.21-1-54.34-1.19-17.56.19-35.21-1-52.84-1.2-18.23.2-36.55-1-54.84-1.15-16.9-.05-33.87-.91-50.85-1-21.06,0-42.22-1.19-63.32-.23-4-.21-7.94-1.08-11.87-4.68-21.16-16.05-37.16-35.46-47.41C287,3.67,279,2.12,271,0Z" style="fill:#feccbd"/><path d="M475.89,511.77c-1.35-1.52.37-1.74,1-2.35,7.14-6.52,6.84-15.25-.76-21.28A32.9,32.9,0,0,0,465,482.81c-14.23-4.32-28.45-8.7-42.72-12.89a31,31,0,0,1-15.35-9.65,226.7,226.7,0,0,0-23.16-23.43c-6.81-6-9.51-13.16-9.58-22.4-.26-37.46-1.17-74.92-1.88-112.38-.41-21.65-1-43.29-1.35-64.93Q369.4,151,367.91,64.8c-.5-28.26-21.52-54.62-49.94-62.66-1.2-.34-3.44.57-3-2.14H271c8,2.12,16,3.67,23.5,7.62C313.89,17.87,325.26,33.87,329.94,55c.87,3.93.85,7.89,1.08,11.87,1.2,21.1.14,42.26,1.19,63.32.86,17-.24,33.95.91,50.85,1.24,18.29-.16,36.61,1,54.84,1.16,17.63-.22,35.28,1,52.84,1.23,18.13-.2,36.28,1,54.34,1.19,17.63,0,35.26,1,52.84.48,8.64.61,17.26.88,25.88a14.37,14.37,0,0,0,4.24,9.84c9.62,9.9,19.84,19.19,28.85,29.69,6.94,8.09,17.28,9.45,26.73,12.42,12,3.79,24.23,7.15,36.14,11.3,9.81,3.42,13.64,12.66,9.56,20.63-1.69,3.29-5,4.19-7.62,6.08Z" style="fill:#fab09e"/><path d="M55.17,504c.54-.93-.3-.86-.75-1-13.23-4-20.52-13-22.22-26.61,4-3.94,8.07-7.85,12-11.83q35.76-35.83,71.5-71.7c1.08,6.64,6.12,9.87,11.25,13,1.74,1.05,1.78,1.65.31,3.1C113,423,98.88,437.27,84.63,451.42c-1.41,1.39-1.45,2.13-.14,3.68a29.69,29.69,0,0,1-14.07,47.64c-.61.19-2-.31-1.69,1.22Z" style="fill:#fdb79a"/><path d="M197.06,236.86c-.54.93.3.85.75,1,13.28,4,20.5,13,22.23,26.64-.65.56-1.34,1.09-1.95,1.7q-39.45,39.44-78.91,78.88c-.9.91-1.63,2.08-3,2.4-1-5.27-4.33-8.62-8.85-11.08-1.36-.74-2.57-1.76-4.42-3.05a21.71,21.71,0,0,0,2.5-1.82q21.22-21.18,42.43-42.37c1.09-1.09,1.4-1.69.22-3.08-14.24-16.75-7-41.54,14-48.09.51-.16,1.95.48,1.45-1.12Z" style="fill:#fdcebb"/><path d="M136.17,347.47c1.38-.32,2.11-1.49,3-2.4q39.47-39.42,78.91-78.88c.61-.61,1.3-1.14,1.95-1.7,15.13.84,27.35,13.87,27.53,29.34.17,15.12-11.74,28.38-26.6,29.72a28.89,28.89,0,0,1-22.42-7c-1.5-1.3-2.15-1.11-3.43.18q-24.62,24.75-49.32,49.41c-.67.68-1.19,1.5-2.17,2.74C141,361.24,138.57,354.35,136.17,347.47Z" style="fill:#fdb79a"/><path d="M115.74,392.82Q80,428.69,44.24,464.52c-4,4-8,7.89-12,11.83a29.66,29.66,0,0,1-14-54.47c10-6.56,25.3-7.36,37.44,3.93l53.23-53.27C111.19,379.38,113.46,386.1,115.74,392.82Z" style="fill:#fdcdbb"/><path d="M45.81,281.64c.45.42.84.75,1.2,1.1q17.06,17,34.12,34.07c.93.93,1,1.5,0,2.45q-5,4.8-9.77,9.76c-1,1-1.56.85-2.48-.07q-17-17.08-34.06-34.12c-.57-.56-1.48-1-.42-2.05,3.54-3.46,7-7,10.52-10.48A7.64,7.64,0,0,1,45.81,281.64Z" style="fill:#fa6176"/><path d="M26.89,361.64c-6.34,0-12.68-.05-19,0-1.61,0-2.11-.46-2.07-2.06.1-4.34.09-8.69,0-13,0-1.55.41-2.13,2.05-2.12q19,.09,38.06,0c1.36,0,2,.24,2,1.83-.1,4.52-.11,9,0,13.55,0,1.61-.62,1.83-2,1.81C39.58,361.61,33.24,361.64,26.89,361.64Z" style="fill:#fa6176"/><path d="M113.79,274.79c0,6.16-.06,12.33,0,18.49,0,1.82-.29,2.63-2.38,2.54-4.16-.18-8.33-.11-12.5,0-1.58,0-2.29-.27-2.28-2.1q.12-19,0-38c0-1.63.55-2.07,2.11-2,4.34.09,8.68.1,13,0,1.69,0,2,.64,2,2.14C113.76,262.11,113.79,268.45,113.79,274.79Z" style="fill:#fd6277"/></svg>