<svg height="672" viewBox="-168 0 504 504" width="672" xmlns="http://www.w3.org/2000/svg" id="svg-icon"><path d="M84 504a7.99 7.99 0 01-8-8v-48c0-4.426 3.574-8 8-8s8 3.574 8 8v48c0 4.426-3.574 8-8 8zm0 0" fill="#434a54"/><path d="M79.992 415.754c4.078 0 16.008-.328 19.93-.8l.078.8v24.23L91.992 448H76l-8.008-8.016v-24.23l.078-.8c3.922.472 7.84.8 11.922.8zm0 0" fill="#353b44"/><path d="M152 96H16C7.2 96 0 88.871 0 80v259.84c0 42.23 31.36 77.265 72.078 83.113 3.922.488 7.844.8 11.922.8s8-.312 11.922-.8C136.64 417.113 168 382.078 168 339.84V80c0 8.871-7.121 16-16 16zM84 344c-19.922 0-36-16.078-36-36 0-19.84 16.078-36 36-36s36 16.16 36 36c0 19.922-16.078 36-36 36zm0 0" fill="#434a54"/><g fill="#aab2bd"><path d="M48 16h24v56H48zm0 0M24 16h24v56H24zm0 0M72 16h24v56H72zm0 0M120 16h24v56h-24zm0 0M96 16h24v56H96zm0 0"/></g><path d="M120 96c4.398 0 8 3.594 8 8v8c0 4.39-3.602 8-8 8H48c-4.398 0-8-3.61-8-8v-8c0-4.406 3.602-8 8-8zm0 0" fill="#353b44"/><path d="M84 352c-24.344 0-44-19.656-44-44 0-24.246 19.656-44 44-44s44 19.754 44 44c0 24.344-19.656 44-44 44zm0 0M41.984 80a7.99 7.99 0 01-8-8V8c0-4.426 3.575-8 8-8 4.422 0 8 3.574 8 8v64c0 4.426-3.578 8-8 8zm0 0M70 80a7.99 7.99 0 01-8-8V8c0-4.426 3.574-8 8-8s8 3.574 8 8v64c0 4.426-3.574 8-8 8zm0 0M98 80a7.99 7.99 0 01-8-8V8c0-4.426 3.574-8 8-8s8 3.574 8 8v64c0 4.426-3.574 8-8 8zm0 0M126.016 80c-4.422 0-8-3.574-8-8V8c0-4.426 3.578-8 8-8 4.425 0 8 3.574 8 8v64c0 4.426-3.575 8-8 8zm0 0" fill="#ccd1d9"/><path d="M130.398 200H28c-4.398 0-8 3.594-8 8v7.984c0 4.407 3.602 8 8 8h112c4.398 0 8-3.593 8-8V208c0-4.406-3.602-8-8-8zm0 0" fill="#656d78"/><path d="M122.031 200v23.984h8V200h-8zm0 0M94.016 200v23.984h8V200h-8zm0 0M66 200v23.984h8V200h-8zm0 0M37.984 200v23.984h8V200h-8zm0 0" fill="#545c66"/><path d="M95.992 316h-24c-4.426 0-8-3.574-8-8s3.574-8 8-8h24c4.422 0 8 3.574 8 8s-3.578 8-8 8zm0 0" fill="#aab2bd"/><path d="M127.992 168.016h-88a7.99 7.99 0 01-8-8c0-4.422 3.574-8 8-8h88c4.422 0 8 3.578 8 8 0 4.425-3.578 8-8 8zm0 0" fill="#353b44"/><path d="M24 72h120V12c0-6.64 5.36-12 12-12s12 5.36 12 12v68c0 8.871-7.121 16-16 16H16C7.2 96 0 88.871 0 80V12C0 5.36 5.36 0 12 0s12 5.36 12 12zm0 0" fill="#e6e9ed"/><path d="M40 96h88v16H40zm0 0M84 440a8 8 0 11-16 0 8 8 0 0116 0zm0 0M100 440a8 8 0 11-16 0 8 8 0 0116 0zm0 0" fill="#353b44"/></svg>
