<svg xmlns="http://www.w3.org/2000/svg" id="svg-icon" viewBox="0 0 511.991 511.991"><path d="M255.992.003c-5.875 0-10.656 4.781-10.656 10.672v42.67h21.328v-42.67c0-5.891-4.766-10.672-10.672-10.672z" fill="#434a54"/><path d="M255.992 42.673C114.621 42.673 0 157.279 0 298.681v2.313c18.281-23.25 46.654-38.171 78.513-38.171 38.639 0 50.811 21.952 67.419 54.076 16.593-32.124 71.436-54.076 110.059-54.076 38.662 0 93.473 21.952 110.098 54.076 16.594-32.124 28.75-54.076 67.404-54.076 31.842 0 60.217 14.921 78.498 38.171v-2.313c.001-141.402-114.62-256.008-255.999-256.008z" fill="#da4453"/><path d="M341.34 447.989a10.682 10.682 0 00-10.686 10.687c0 17.624-14.344 31.999-32 31.999-17.625 0-31.99-14.375-31.99-31.999V252.152h-21.328v206.524c0 29.437 23.875 53.312 53.318 53.312 29.469 0 53.342-23.875 53.342-53.312 0-5.907-4.781-10.687-10.656-10.687z" fill="#434a54"/><path d="M255.992 262.823c38.662 0 93.473 21.952 110.098 54.045 0-162.37-67.186-241.789-92.965-273.632-5.664-.375-11.383-.563-17.133-.563s-11.453.188-17.109.563c-25.796 31.843-92.95 111.263-92.95 273.664 16.593-32.125 71.436-54.077 110.059-54.077z" fill="#ed5564"/></svg>
