<svg viewBox="0 0 512 512" xmlns="http://www.w3.org/2000/svg"><g><path d="m486.395 25.605-25.606-25.605h-38.247l-3.413 10.254c-6.211 18.618-16.831 35.801-30.703 49.673l-8.115 8.101c-5.154 5.208-14.026 5.641-19.878 1.322l6.705 36.705 19.402 19.406 23.958 23.959 32.082 2.084c-4.422-5.914-3.975-14.474 1.364-19.814l8.13-8.115c13.857-13.872 31.04-24.492 49.673-30.718l10.253-3.414v-38.232z" fill="#3d4759"/><path d="m442.579 151.503c-4.422-5.914-3.975-14.474 1.364-19.814l8.13-8.115c13.857-13.872 31.04-24.492 49.673-30.718l10.254-3.413v-38.232l-25.605-25.605-99.855 99.854 23.958 23.959z" fill="#252e40"/><path d="m421.498 157.842-33.669-33.671-24.769-24.77-35.764-20.766-63.644 63.647 21.206 51.206 16.827 16.827 32.368 32.367 35.659 5.66 63.642-63.642z" fill="#ecf2ff"/><path d="m369.712 248.342 63.642-63.642-11.856-26.858-33.669-33.671-86.144 86.144 32.368 32.367z" fill="#d9e5ff"/><path d="m390.931 121.069-10.606-10.605-93.633 93.633 10.606 10.605 10.605 10.606 93.633-93.633z" fill="#d9e5ff"/><path d="m283.209 165.689h132.417v14.998h-132.417z" fill="#bfd6ff" transform="matrix(.707 -.707 .707 .707 -20.121 297.801)"/><path d="m316.685 195.315-53.033-53.033-42.422 42.422 17.467 47.466 20.566 20.567 36.209 36.209 31.819 1.818 42.421-42.422z" fill="#ffd580"/><path d="m327.291 290.764 42.421-42.422-53.027-53.027-57.422 57.422 36.209 36.209z" fill="#faa732"/><path d="m348.509 57.422-.002.002.068.067z" fill="#ecf2ff"/><path d="m274.263 237.737-53.033-53.033-221.23 221.241 53.027 53.028 53.028 53.027 221.236-221.236z" fill="#5b6373"/><path d="m33.722 337.372h312.875v74.992h-312.875z" fill="#3d4759" transform="matrix(.707 -.707 .707 .707 -209.376 244.259)"/><g fill="#3d4759"><path d="m200.018 290.771-21.211 21.211 10.605 10.606 10.606 10.605 21.211-21.211-10.606-10.605z"/><path d="m253.045 258.955-10.606-10.605-21.21 21.211 10.605 10.605 10.605 10.605 21.211-21.21z"/></g><path d="m232.744 267.364h29.997v14.998h-29.997z" fill="#252e40" transform="matrix(.707 -.707 .707 .707 -121.796 255.686)"/><path d="m190.322 309.786h29.997v14.998h-29.997z" fill="#252e40" transform="matrix(.707 -.707 .707 .707 -164.218 238.114)"/><path d="m442.579 151.503-41.039-41.043-41.107-41.111c-.518-.383-11.858-11.858-11.858-11.858l-.068-.068-21.211 21.211 53.033 53.036 53.026 53.029 21.209-21.209c-.001.001-11.578-11.445-11.985-11.987z" fill="#5b6373"/><path d="m454.563 163.491s-11.578-11.446-11.984-11.988l-41.039-41.043-21.211 21.211 53.026 53.029z" fill="#3d4759"/></g></svg>