<svg viewBox="0 0 60 58" xmlns="http://www.w3.org/2000/svg"><g id="Page-1" fill="none" fill-rule="evenodd"><g id="041---Pouring-Milk" fill-rule="nonzero"><path id="Shape" d="m50 41.04c-.527303-.0011698-.9630889-.4115831-.9958496-.9378688-.0327608-.5262857.3487624-.9875756.8718496-1.0541312 2.2129281-.2561418 4.2757989-1.2477848 5.858-2.816 1.0201264-.9853713 1.7470544-2.2343029 2.1-3.608.4821407-1.9559944-.1355091-4.0195496-1.613-5.389-.7972024-.8854848-1.9765025-1.3259958-3.159-1.18-2.295.307-4.272 2.839-5.088 4.109-.0194268.1158187-.0593879.2272356-.118.329-.313.546-.7 1.222-1.5.977-.4484506-.1443113-.738444-.5784728-.7-1.048.059-.7 3.079-5.8 7.146-6.35 1.8010436-.2358153 3.6045864.4165617 4.838 1.75 1.9654989 1.8608849 2.783961 4.6318275 2.145 7.262-.4394297 1.7351328-1.351583 3.3143523-2.635 4.562-1.8957697 1.8827125-4.3683567 3.074991-7.022 3.386-.0424748.0051538-.0852141.007825-.128.008z" fill="#c03a2b"/><path id="Shape" d="m47.1 26.47c0-.01 0-.01-.01-.02h.01c2.39 2.78 13.46 16.8 3.08 27.18s-24.37-.67-27.17-3.07z" fill="#e64c3c"/><path id="Shape" d="m39.794 55c-2.0890424-.0381352-4.1522616-.468962-6.082-1.27-.332257-.1314737-.5691348-.4302175-.6214037-.7836974-.0522689-.3534798.0880119-.7079938.368-.93.2799882-.2220061.6571467-.2777764.9894037-.1463026 4.089 1.618 7.676 1.494 10.536-.4.2978104-.2158227.690056-.25075 1.0213142-.0909422.3312581.1598078.5480576.4885547.5644942.8559786s-.1701428.7142159-.4858084.9029636c-1.864024 1.2341318-4.0545485 1.8825827-6.29 1.862z" fill="#fff"/><path id="Shape" d="m39 28.74v11.91c-.29.3-.59.61-.89.91-.16.15-.31.3-.47.46-6.25 6.12-12.56 9.79-14.63 8.54l-.01-.01h-.01c-2.31-1.45 1.57-8.53 8.57-15.53 2.2876489-2.3111353 4.7775848-4.4128554 7.44-6.28z" fill="#bdc3c7"/><path id="Shape" d="m46.77 29.89c-.988707 2.2026744-2.2556994 4.2695188-3.77 6.15v-9.58c1.83-.79 3.23-.92 3.91-.24.0684489.069662.1288299.1468154.18.23.01.01.01.01.01.02.43.7.29 1.9-.33 3.42z" fill="#bdc3c7"/><path id="Shape" d="m33.29 13.51.04-.04c2.92-1.07 9.67.05 9.67 5.53v17.04c-1.2548175 1.6030731-2.5898538 3.1417023-4 4.61v-20.93z" fill="#f5efca"/><path id="Shape" d="m46.77 29.89c-.988707 2.2026744-2.2556994 4.2695188-3.77 6.15-1.2548175 1.6030731-2.5898538 3.1417023-4 4.61-.29.3-.59.61-.89.91-.16.15-.31.3-.47.46-6.25 6.12-12.56 9.79-14.63 8.54l-.01-.01h-.01c-2.31-1.45 1.57-8.53 8.57-15.53 2.2876489-2.3111353 4.7775848-4.4128554 7.44-6.28v1.17c-2.3726536 1.7399686-4.6030316 3.6660521-6.67 5.76-5.98 5.98-9.71 11.95-8.33 13.33s7.35-2.35 13.33-8.33c.58-.58 1.14-1.16 1.67-1.73 1.4295006-1.5208585 2.7652941-3.1271501 4-4.81 2.41-3.31 3.53-5.94 2.67-6.8-.45-.45-1.4-.36-2.67.19v-1.06c1.83-.79 3.23-.92 3.91-.24.0684489.069662.1288299.1468154.18.23.01.01.01.01.01.02.43.7.29 1.9-.33 3.42z" fill="#ecf0f1"/><path id="Shape" d="m5.692 16.07c-.26534858.0007185-.51994691-.1047939-.707-.293l-2.848-2.847c-.91450376-.918523-1.40403324-2.1771202-1.35049241-3.47216264.05354082-1.29504246.64529029-2.50893644 1.63249241-3.34883736l5.581-4.719c1.846516-1.54316473 4.5635501-1.42972043 6.275.262l3.277 3.277c.3789722.39237889.3735524 1.01608478-.0121814 1.40181858-.3857338.38573379-1.0094397.39115363-1.4018186.01218142l-3.28-3.277c-.9735525-.96278402-2.5196063-1.02731119-3.57-.149l-5.575 4.718c-.5614176.47796502-.89803772 1.16843363-.92878801 1.90511179-.03075029.73667811.24715627 1.45279821.76678801 1.97588821l2.849 2.847c.28590792.2859943.37142191.7160366.21667798 1.0896546-.15474393.3736179-.51928208.6172591-.92367798.6173454z" fill="#95a5a5"/><path id="Shape" d="m39 19.72c.0037913.4273158-.2212633.8240222-.59 1.04l-9.82 5.64-5.09 2.93-.08.04-4.52 5.34c-.6563503.7783263-1.6093236 1.2453311-2.6265933 1.2871627-1.0172697.0418317-2.0053686-.3453533-2.7234067-1.0671627l-11.56-11.56c-.72180935-.7180381-1.10899436-1.706137-1.06716271-2.7234067s.50883645-1.970243 1.28716271-2.6265933l16.72-14.15c1.4486062-1.22061982 3.5904406-1.1293855 4.93.21l9.43 9.43 1.92 1.92 3.43 3.43c.2298668.2271999.3594668.5368.36.86z" fill="#bdc3c7"/><path id="Shape" d="m35.21 15.43-.85-.86" fill="#bdc3c7"/><g fill="#95a5a5"><path id="Shape" d="m16.044 31.569c-.2651948-.0000566-.5195073-.1054506-.707-.293l-2.273-2.276c-.2525868-.2527654-.3511379-.6210837-.25853-.966213s.3623054-.6146361.7075-.707c.3451947-.0923638.7134432.0064476.96603.259213l1.5 1.505 1.682-1.99c.3587089-.422774.992226-.4747089 1.415-.116s.4747089.992226.116 1.415l-2.384 2.819c-.1807144.2134534-.4425591.3414744-.722.353z"/><path id="Shape" d="m33.35 20.77-4.76 5.63-5.17 2.97 8.41-9.9c.2322226-.2715218.5916604-.3985291.9429165-.3331793s.6409665.3131284.76.65.0493061.7116575-.1829165.9831793z"/></g></g></g></svg>