<svg viewBox="0 0 64 64" xmlns="http://www.w3.org/2000/svg" id="svg-icon"><path d="M40.783 26.457A30.386 30.386 0 0139 19c-.053-1.5 0-6 0-6H25s.053 4.5 0 6c-.081 2.3-1 4.983-2.07 8.359L25 32z" fill="#96c3f0"/><path d="M19.59 44a65.794 65.794 0 013.34-16.64A8.3 8.3 0 0027.99 29c4.84 0 5.18-3 10.01-3a7.435 7.435 0 012.78.46A67.844 67.844 0 0144.42 44zM44.38 52a67.14 67.14 0 01-.38 4c-.28 2.27-1.71 5-4 5H24c-2.29 0-3.72-2.73-4-5a76.66 76.66 0 01-.38-4z" fill="#f4f4e6"/><path d="M25 7h14v6H25z" fill="#4f97d5"/><path d="M39 7H25l-3-4h20z" fill="#2d75bb"/><path d="M26 56h9v2h-9zM37 56h2v2h-2z" fill="#fff"/><path d="M31 10h2v3h-2z" fill="#f4f4e6"/><path d="M36 35h2v2h-2zM38 39h2v2h-2z" fill="#fff"/><g fill="#f9bb4b"><circle cx="8" cy="59" r="2"/><circle cx="14" cy="53" r="2"/><circle cx="51" cy="59" r="2"/><circle cx="58" cy="49" r="2"/><circle cx="50" cy="51" r="2"/></g><path d="M44.38 52H19.62a63.008 63.008 0 01-.03-8h24.83a65.033 65.033 0 01-.04 8z" fill="#96c3f0"/><circle cx="32" cy="44" fill="#2d75bb" r="4"/></svg>