<svg xmlns="http://www.w3.org/2000/svg" viewBox="0 0 512 512">
  <path
    d="M258.23 57.41H96.2a6 6 0 00-6 6v76.36a6 6 0 006 6h99.755a6 6 0 000-12H102.2V69.41h150.03v64.36h-26.563a6 6 0 000 12h32.563a6 6 0 006-6V63.41a6 6 0 00-6-6zM92.46 218.97a6 6 0 00-6 6v7.83a6 6 0 0012 0v-7.83a6 6 0 00-6-6zM92.46 244.71a6 6 0 00-6 6v147.53a6 6 0 0012 0V250.71a6 6 0 00-6-6z" />
  <path
    d="M481 88.9h-18.38V61.87a11.961 11.961 0 013.513-8.5l18.42-18.42a6 6 0 00-8.486-8.486l-18.425 18.43a23.887 23.887 0 00-7.022 16.976V88.9h-15.87a21.264 21.264 0 00-21.24 21.24v14.66l-5.143 2.308a23.924 23.924 0 00-13.913 18.244l-5.405 34a23.9 23.9 0 0014.915 25.966L413.3 209v10.78a6 6 0 006 6h9.41v32.17a6 6 0 006 6h12.35v181.23a28.53 28.53 0 11-57.06 0v-76.47a40.045 40.045 0 00-40-40h-9.79V292a6 6 0 00-6-6h-30.86V64.29a46.051 46.051 0 00-46-46H97.08a46.052 46.052 0 00-46 46v374.3H49.3a24.323 24.323 0 00-24.3 24.3v24.82a6 6 0 006 6h292.43a6 6 0 006-6v-24.824a24.323 24.323 0 00-24.3-24.3h-1.78V394h30.86a6 6 0 006-6v-47.29H350a28.032 28.032 0 0128 28v76.47a40.53 40.53 0 0081.06 0V263.95h12.53a6 6 0 006-6v-32.17H481a6 6 0 006-6V94.9a6 6 0 00-6-6zM63.08 64.29a34.039 34.039 0 0134-34h160.27a34.038 34.038 0 0134 34v108.6H63.08zm242.054 386.3a12.31 12.31 0 0112.3 12.3v18.82H37v-18.824a12.31 12.31 0 0112.3-12.3h43.16a6 6 0 000-12H63.08V184.89h228.27v253.7H121.667a6 6 0 100 12zM328.21 382h-24.86v-84h24.86zm137.38-130.05h-24.88v-26.17h24.88zm9.41-64.82h-27.63v-38.19a21.044 21.044 0 0121.02-21.02H475zm0-71.21h-6.61a33.057 33.057 0 00-33.02 33.02v44.19a6 6 0 006 6H475v14.65h-49.7v-8.86a6 6 0 00-3.8-5.58l-13.13-5.19a11.949 11.949 0 01-7.469-12.958l5.4-33.989a11.984 11.984 0 016.966-9.149l8.69-3.9a6 6 0 003.544-5.474v-18.54a9.25 9.25 0 019.24-9.24H475z" />
  <path
    d="M177.21 398.712a53.094 53.094 0 0045.817-79.925l-40.64-69.37a6 6 0 00-10.354 0L131.4 318.791a53.086 53.086 0 0045.809 79.921zm-35.453-73.86l35.453-60.531 35.463 60.531a41.1 41.1 0 11-70.916 0z" />
  <path
    d="M187.379 377.352a5.962 5.962 0 001.959-.331 32.185 32.185 0 0021.075-24.09 6 6 0 00-11.766-2.362 20.183 20.183 0 01-13.226 15.11 6 6 0 001.958 11.673z" />
  </svg>
